<svg xmlns="http://www.w3.org/2000/svg" viewBox="0 0 1080 1080"><defs><style>.cls-1{fill:#4700b7;}.cls-2{fill:#6900ff;}.cls-3{fill:#8761ff;}</style></defs><g id="LOGO"><path class="cls-1" d="M257,663.06c2.07,63.23,18.45,106.75,35.58,126.52s64.58,46.13,113.34,44.81S482.38,866,512.69,868.65s138.38,14.5,175.28,0,46.13-40.85,46.13-59.3c31.63-9.23,40.85-29,43.49-47.45s-7.91-44.81-14.5-48.76c19.77-10.54,36.9-30.31,36.9-59.3s-22.4-56.67-26.35-58c25-15.82,35.58-43.49,34.26-72.49s-40.85-47.44-51.4-50.08-179.93,0-207.26,0c25.39-38.22,32-113.34,32-138.38s-4-84.34-18.45-94.88-40.85-25-61.94-25c-17.13,15.81-25,60.62-30.31,80.39s-30.26,103.43-51.4,131.79-89.62,72.48-108.07,90.93S254.38,582.67,257,663.06Z"/><path class="cls-2" d="M274.42,571c-.27,28.78-6.33,92,0,115.76s30,83,61.67,98.84,57.86,9.23,81.71,31.63,47.45,21.09,69.85,30.32,112,27.67,146.29,22.4,25,2.64,34.26-5.27S713,830.43,710.38,812c17.13-5.27,40.85-25,46.12-46.12s-5.27-50.08-13.18-52.72c14.5-6.59,35.59-32.95,35.59-58s-7.91-64.57-27.68-65.89c17.13-9.23,23.72-39.13,21.09-55.81s-11.86-49.62-44.81-52.26-178.27-7.91-178.27-7.91a151.08,151.08,0,0,0-45.77,0c30.31-11.86,75-151.94,73.76-192.6s-28-49.43-28-49.43L500.83,215,485.3,241.64S448.89,398,419.12,427.16s-77.76,67.21-108.07,90.93S274.42,571,274.42,571Z"/><path class="cls-3" d="M469.68,301.72s32.47-10.31,44.33-34,11.22-44.51,11.22-44.51l-24.4-8.2a224,224,0,0,0-15.53,26.66C478.43,255.83,469.68,301.72,469.68,301.72Z"/></g></svg>