<svg xmlns="http://www.w3.org/2000/svg" viewBox="0 0 1080 1080"><defs><style>.cls-1{fill:#260063;}.cls-2{fill:#bbb8ff;}.cls-3{fill:#6900ff;}.cls-4{fill:#4700b7;}.cls-5{fill:#8761ff;}</style></defs><g id="LOGO"><path class="cls-1" d="M181.65,620.07s-.17,31-.2,41.3c0,11.91,26.22,48.43,37.5,52.24L562.79,829.75a27.79,27.79,0,0,0,27.67-5.86l315.3-289.72a27.78,27.78,0,0,0,8.12-27.3h0a27.76,27.76,0,0,0-43.36-15.5L587.19,699.89a27.75,27.75,0,0,1-23.37,4.53L270,628.87C234.57,619.76,181.65,583.5,181.65,620.07Z"/><path class="cls-2" d="M200.07,658.86v4.23A27.76,27.76,0,0,0,219,689.39L562.79,805.53a27.77,27.77,0,0,0,27.67-5.87L905.76,510a27.79,27.79,0,0,0,8.12-27.31h0a27.77,27.77,0,0,0-43.36-15.5L587.19,675.67a27.79,27.79,0,0,1-23.37,4.53L270,604.65A56,56,0,0,0,200.07,658.86Z"/><path class="cls-3" d="M206.22,651.05,555.17,770A36.54,36.54,0,0,0,592,762l311.2-293.31c21.59-20.35,11.22-56.59-17.87-62.44L561.88,341.17a36.53,36.53,0,0,0-28.39,6.05L196.83,586.67C172.55,603.94,178,641.44,206.22,651.05Z"/><path class="cls-4" d="M511.22,442a5.17,5.17,0,0,0,1.53,9.22h0l164.88,46.81a5.22,5.22,0,0,0,4.4-.76l80.81-57.38a5.16,5.16,0,0,0-1.92-9.26L584.41,393.26a5.18,5.18,0,0,0-4,.81Z"/><path class="cls-5" d="M597.8,423.08l90.87,22.09a4.62,4.62,0,0,1,.88,8.66L674.44,461a4.62,4.62,0,0,1-3.19.28l-94-25.65a4.62,4.62,0,0,1-1.5-8.19h0A26.71,26.71,0,0,1,597.8,423.08Z"/><path class="cls-4" d="M427.37,726.42a4,4,0,0,0-3.43.41c-7.05,4.52-33.71,24.7-33.71,71.61,0,54.06-9.79,28.33-30.22,48.76-11.93,11.93-23.87,24.3-31.74,32.54a4,4,0,0,0,3.79,6.63l35.43-8.2a4,4,0,0,1,4.88,3.88v21.68a4,4,0,0,0,7.28,2.26c10-14.61,27.94-39.71,39-48.26,16-12.34,17.77-33.34,17.77-59.29,0-24,9.72-35.76,27.33-53.55a4,4,0,0,0-1.54-6.59Z"/></g></svg>