<svg xmlns="http://www.w3.org/2000/svg" viewBox="0 0 1080 1080"><defs><style>.cls-1{fill:#bbb8ff;}.cls-2{fill:#6900ff;}.cls-3{fill:#8761ff;}</style></defs><g id="LOGO"><path class="cls-1" d="M221,124.5c58.29,27.61,109.33-138.11,261.33-26.39s256.82,19.38,347.34,0C1080,44.5,1042.33,335.17,1013,473.83s-13.33,341.34,5.33,410.67-46.14,90.33-140.44,90.33c-76.27,0-259.56-72.55-337.89-72.55-92.33,0-140.33,90.67-252.33,64-94.43-22.49-53.24-136.89-160-136.89-51.56,0-112-64.89-48-187.86,27.31-52.48,50.8-172.85,35.55-256.64-18-99-48.41-176.75-7.52-223C137.73,128,170.33,100.5,221,124.5Z"/><path class="cls-2" d="M420.86,797.78v-521a39.47,39.47,0,0,1,35.92-39.31l185.93-16.82a39.47,39.47,0,0,1,43,39.72L680,820.48a39.48,39.48,0,0,1-44.32,38.77L455.49,837A39.48,39.48,0,0,1,420.86,797.78Z"/><path class="cls-3" d="M736.92,726.37,811,775.25l-6.63-460.42-45.86-2.19a26.61,26.61,0,0,0-27.87,25.69L718.94,691.58A40.08,40.08,0,0,0,736.92,726.37Z"/><path class="cls-3" d="M327.81,321.49l45.72,33.07a35.45,35.45,0,0,1,14.66,27.37L400.14,690a45.48,45.48,0,0,1-11.91,32.47l-50.29,54.9Z"/><path class="cls-2" d="M793.21,749.55,783,343.15A28.5,28.5,0,0,1,813.9,314l83.54,7.09a28.5,28.5,0,0,1,26.09,28.4v373.6A28.51,28.51,0,0,1,904.45,750l-73.32,25.7A28.5,28.5,0,0,1,793.21,749.55Z"/><path class="cls-2" d="M196.06,752.55l-11.64-409.9a28.94,28.94,0,0,1,30.39-29.73L315.41,318a28.94,28.94,0,0,1,27.48,28.16L353.42,751a29,29,0,0,1-28.94,29.7H225A29,29,0,0,1,196.06,752.55Z"/><path class="cls-3" d="M440.86,301.48h0a24,24,0,0,0,24.52,24L630.69,322a24,24,0,0,0,23.5-24V277.72A24,24,0,0,0,626.76,254L461.45,277.72A24,24,0,0,0,440.86,301.48Z"/><path class="cls-1" d="M446.19,389.06v7.6a24,24,0,0,0,24,24h148a24,24,0,0,0,24-24V383a24,24,0,0,0-25-24l-148,6A24,24,0,0,0,446.19,389.06Z"/><path class="cls-3" d="M446.19,477.06V481a24,24,0,0,0,22.33,24l155.29,10.95A24,24,0,0,0,649.19,488l-3.51-21.05A24,24,0,0,0,621,446.87l-151.78,6.2A24,24,0,0,0,446.19,477.06Z"/><path class="cls-1" d="M446.19,564.47v12a24,24,0,0,0,21.41,23.87l160,17.44a24,24,0,0,0,26.61-23.87V567.49a24,24,0,0,0-23.56-24l-160-3A24,24,0,0,0,446.19,564.47Z"/><path class="cls-1" d="M443.8,660.79l-.37,3.43a24,24,0,0,0,21.94,26.45L628.24,703.9a24,24,0,0,0,26-23.93v-7.29a24,24,0,0,0-22.63-24l-162.5-9.37A24,24,0,0,0,443.8,660.79Z"/><path class="cls-3" d="M440.86,754.83v3.81a24,24,0,0,0,21.95,23.93l153.31,13.2a24,24,0,0,0,26.07-23.93V759.91a24,24,0,0,0-23.21-24l-153.31-5.08A24,24,0,0,0,440.86,754.83Z"/><path class="cls-3" d="M209.79,437.53v9.06a10.22,10.22,0,0,0,10.46,10.22l97.82-2.33a10.22,10.22,0,0,0,10-10.21V421.74a10.22,10.22,0,0,0-11.85-10.09l-97.83,15.79A10.23,10.23,0,0,0,209.79,437.53Z"/><path class="cls-3" d="M212.74,491.72v14.06A10.22,10.22,0,0,0,223,516h88.22a10.22,10.22,0,0,0,10.22-10.22v-18.1a10.22,10.22,0,0,0-10.69-10.21l-88.22,4A10.22,10.22,0,0,0,212.74,491.72Z"/><path class="cls-1" d="M212.74,546.51V558a10.22,10.22,0,0,0,9.41,10.19l93.1,7.37a10.21,10.21,0,0,0,10.91-11.69l-3.41-23a10.22,10.22,0,0,0-10.57-8.7l-89.69,4.11A10.22,10.22,0,0,0,212.74,546.51Z"/><path class="cls-3" d="M212.74,600.73v16.64a10.22,10.22,0,0,0,9,10.14l94.87,11.61A10.21,10.21,0,0,0,328.05,629V602.74a10.21,10.21,0,0,0-10-10.21l-94.87-2A10.21,10.21,0,0,0,212.74,600.73Z"/><path class="cls-1" d="M211.82,661.2l-1.08,11.47A10.22,10.22,0,0,0,220,683.8l96.91,8.84a10.21,10.21,0,0,0,11.15-10.17v-14.1a10.22,10.22,0,0,0-9.56-10.2L222.65,652A10.21,10.21,0,0,0,211.82,661.2Z"/><path class="cls-3" d="M209.79,719.2v11.67A10.22,10.22,0,0,0,219,741l91.17,8.82a10.22,10.22,0,0,0,11.21-10.17V722.6a10.21,10.21,0,0,0-9.84-10.21L220.38,709A10.21,10.21,0,0,0,209.79,719.2Z"/><path class="cls-1" d="M212.74,390v8.53a10.22,10.22,0,0,0,11.17,10.17l88.22-8.28a10.22,10.22,0,0,0,9.27-10.17v-14A10.22,10.22,0,0,0,311.18,366h-89.8a10.22,10.22,0,0,0-10.14,11.5l1.42,11.19A9.31,9.31,0,0,1,212.74,390Z"/><path class="cls-1" d="M209.79,336.9h0a10.21,10.21,0,0,0,9.05,10.15l84,9.65a10.21,10.21,0,0,0,11.38-10.15v-4.29a10.2,10.2,0,0,0-9.56-10.19l-84-5.37A10.22,10.22,0,0,0,209.79,336.9Z"/><path class="cls-3" d="M907.37,627.78v-8.15a10,10,0,0,0-10.27-10l-88.18,2.19a10,10,0,0,0-9.78,10V642.6a10,10,0,0,0,11.69,9.89L899,637.66A10,10,0,0,0,907.37,627.78Z"/><path class="cls-1" d="M904.66,576.07V563.21a10,10,0,0,0-10-10H815.25a10,10,0,0,0-10,10v16.65a10,10,0,0,0,10.5,10l79.39-3.79A10,10,0,0,0,904.66,576.07Z"/><path class="cls-1" d="M904.66,523.86V513.37a10,10,0,0,0-9.2-10l-83.8-6.91a10,10,0,0,0-10.75,11.41l3,21.25a10,10,0,0,0,10.4,8.59l80.78-3.85A10,10,0,0,0,904.66,523.86Z"/><path class="cls-3" d="M904.66,472.15V456.8a10,10,0,0,0-8.75-9.94L810.43,436a10,10,0,0,0-11.29,10v24.35a10,10,0,0,0,9.8,10l85.48,1.89A10,10,0,0,0,904.66,472.15Z"/><path class="cls-1" d="M905.54,414.48l.93-10.37a10,10,0,0,0-9-10.87l-87.33-8.3a10,10,0,0,0-11,10v12.83a10,10,0,0,0,9.35,10l86.39,5.83A10,10,0,0,0,905.54,414.48Z"/><path class="cls-3" d="M907.37,359.24V348.66a10,10,0,0,0-9-10l-82.09-8.26a10,10,0,0,0-11,10v15.67a10,10,0,0,0,9.63,10l82.1,3.18A10,10,0,0,0,907.37,359.24Z"/><path class="cls-3" d="M903.31,680V666.27a10,10,0,0,0-11.66-9.89l-77.44,12.8a10,10,0,0,0-8.18,12l4,19a10,10,0,0,0,10.42,7.94l74.93-4.58a10,10,0,0,0,9.34-11.22l-1.35-11.06A9.82,9.82,0,0,1,903.31,680Z"/><path class="cls-1" d="M907.37,726.4h0a10,10,0,0,0-11.15-10L820.71,725a10,10,0,0,0-8.89,10v10.23a10,10,0,0,0,12.44,9.72l75.5-18.78A10,10,0,0,0,907.37,726.4Z"/></g></svg>