<svg xmlns="http://www.w3.org/2000/svg" viewBox="0 0 1080 1080"><defs><style>.cls-1{fill:#bbb8ff;}.cls-2{fill:#4700b7;}.cls-3,.cls-5,.cls-7{fill:none;stroke-linecap:round;stroke-miterlimit:10;}.cls-3{stroke:#bbb8ff;stroke-width:15px;}.cls-4{fill:#8761ff;}.cls-5{stroke:#6900ff;}.cls-5,.cls-7{stroke-width:10px;}.cls-6{fill:#6900ff;}.cls-7{stroke:#8761ff;}.cls-8{fill:#fff;}.cls-9{fill:#260063;}</style></defs><g id="LOGO"><path class="cls-1" d="M872.34,215.73c-26,54.93,198,103,92.72,246.27-39.48,53.72,2.47,130.36-11.81,180.4C929.44,725.81,867.63,777,879,830.26c50.52,235.91-145.49,114.74-244.8,171.57C462,1100.4,360.3,969.18,302.72,967.64c-67.64-1.8-107.21-73-107.21-161.89,0-152.26-108.9-102.8-108.9-289.4,0-87,60.31-56.33,60.31-237.8,0-91.47,28.44-153.81,129-150.78,141.44,4.28,72.4-19,180.55-83.64C570.28-23.94,616.89,96.48,694.81,86.42c94.05-12.15,120.57-30.16,164.13,8.37C890.94,123.1,895,168,872.34,215.73Z"/><path class="cls-2" d="M755,470.22c39,1.71,103.53,5.22,138.8-.22a25.6,25.6,0,0,0,21.62-27c-3.52-53.51-11.18-188.26-10.44-245a25.63,25.63,0,0,0-25-26c-38.9-1.09-100.35,3.37-135.58,6.73a25.61,25.61,0,0,0-23.13,26.87c2.94,54.9,11.08,180.8,9.21,238.17A25.61,25.61,0,0,0,755,470.22Z"/><path class="cls-3" d="M741.86,204.6c43.87,0,85.83-15.53,137.33-9.2"/><path class="cls-3" d="M743.7,231.49c46.62-.43,85.92-12.89,136.55-8.61"/><path class="cls-3" d="M745.53,258.38c49.38-.86,86-10.26,135.78-8"/><path class="cls-3" d="M747.37,285.26c52.14-1.28,86.11-7.61,135-7.42"/><path class="cls-3" d="M749.21,312.15c54.89-1.71,86.19-5,134.22-6.83"/><path class="cls-3" d="M751,339c57.65-2.14,86.29-2.33,133.45-6.23"/><path class="cls-3" d="M752.88,365.92c60.4-2.57,86.38.31,132.67-5.64"/><path class="cls-3" d="M754.72,392.8c63.15-3,86.46,2.95,131.89-5"/><path class="cls-3" d="M756.55,419.69c65.92-3.42,86.56,5.59,131.12-4.45"/><path class="cls-3" d="M758.39,446.57c68.67-3.84,86.65,8.24,130.34-3.84"/><path class="cls-4" d="M794.79,430.39c39.05,1.71,103.53,5.22,138.8-.22a25.6,25.6,0,0,0,21.62-27c-3.52-53.51-11.19-188.25-10.44-245a25.64,25.64,0,0,0-25-26c-38.91-1.08-100.35,3.37-135.58,6.73a25.62,25.62,0,0,0-23.14,26.87C764,220.72,772.18,346.62,770.31,404A25.6,25.6,0,0,0,794.79,430.39Z"/><path class="cls-5" d="M781.69,164.78c43.87,0,85.83-15.54,137.33-9.21"/><path class="cls-5" d="M783.52,191.66c46.63-.42,85.93-12.89,136.56-8.61"/><path class="cls-5" d="M785.36,218.55c49.38-.86,86-10.25,135.78-8"/><path class="cls-5" d="M787.2,245.43c52.13-1.28,86.1-7.61,135-7.41"/><path class="cls-5" d="M789,272.32c54.89-1.71,86.2-5,134.23-6.82"/><path class="cls-5" d="M790.87,299.21c57.65-2.14,86.28-2.33,133.45-6.23"/><path class="cls-5" d="M792.71,326.09c60.4-2.56,86.37.31,132.67-5.63"/><path class="cls-5" d="M794.54,353c63.16-3,86.47,2.95,131.9-5"/><path class="cls-5" d="M796.38,379.86c65.91-3.42,86.56,5.59,131.12-4.44"/><path class="cls-5" d="M798.22,406.75c68.66-3.85,86.64,8.23,130.34-3.85"/><path class="cls-6" d="M834.61,390.57c39,1.7,103.53,5.21,138.8-.22a25.62,25.62,0,0,0,21.63-27c-3.52-53.51-11.19-188.26-10.44-245a25.64,25.64,0,0,0-25-25.95c-38.91-1.09-100.35,3.37-135.59,6.73A25.61,25.61,0,0,0,800.92,126c2.94,54.9,11.08,180.8,9.21,238.17A25.61,25.61,0,0,0,834.61,390.57Z"/><path class="cls-7" d="M821.51,125c43.87,0,85.84-15.53,137.34-9.2"/><path class="cls-7" d="M823.35,151.84c46.62-.43,85.92-12.9,136.56-8.61"/><path class="cls-7" d="M825.19,178.72c49.38-.85,86-10.25,135.78-8"/><path class="cls-7" d="M827,205.61c52.14-1.28,86.11-7.61,135-7.42"/><path class="cls-7" d="M828.86,232.49c54.89-1.71,86.19-5,134.23-6.82"/><path class="cls-7" d="M830.7,259.38c57.64-2.14,86.28-2.33,133.44-6.23"/><path class="cls-7" d="M832.53,286.27c60.4-2.57,86.38.31,132.67-5.64"/><path class="cls-7" d="M834.37,313.15c63.16-3,86.46,3,131.89-5"/><path class="cls-7" d="M836.21,340c65.91-3.42,86.55,5.59,131.11-4.45"/><path class="cls-7" d="M838,366.92c68.67-3.85,86.65,8.23,130.34-3.85"/><path class="cls-2" d="M367.71,470c-40.29,1.69-113.79,6.07-148.87-.94a20.75,20.75,0,0,1-16.61-21.74c3.46-51.55,11.94-198.7,10.65-253.9a20.73,20.73,0,0,1,19.79-21.21c40.11-1.76,109.81,3.46,145.54,7A20.73,20.73,0,0,1,396.88,201c-2.77,53.46-11.85,190.87-9.28,247.42A20.75,20.75,0,0,1,367.71,470Z"/><path class="cls-3" d="M376,204.6c-43.87,0-85.83-15.53-137.33-9.2"/><path class="cls-3" d="M374.21,231.49c-46.63-.43-85.93-12.89-136.56-8.61"/><path class="cls-3" d="M372.37,258.38c-49.38-.86-86-10.26-135.78-8"/><path class="cls-3" d="M370.53,285.26c-52.13-1.28-86.1-7.61-135-7.42"/><path class="cls-3" d="M368.7,312.15c-54.89-1.71-86.2-5-134.23-6.83"/><path class="cls-3" d="M366.86,339c-57.65-2.14-86.28-2.33-133.45-6.23"/><path class="cls-3" d="M365,365.92c-60.4-2.57-86.37.31-132.67-5.64"/><path class="cls-3" d="M363.19,392.8c-63.16-3-86.47,2.95-131.9-5"/><path class="cls-3" d="M361.35,419.69c-65.91-3.42-86.55,5.59-131.12-4.45"/><path class="cls-3" d="M359.51,446.57c-68.66-3.84-86.64,8.24-130.34-3.84"/><path class="cls-4" d="M327.89,430.19c-40.3,1.68-113.8,6.06-148.87-.95a20.74,20.74,0,0,1-16.61-21.74c3.46-51.54,11.94-198.7,10.64-253.9a20.73,20.73,0,0,1,19.79-21.2c40.11-1.76,109.82,3.46,145.55,7a20.75,20.75,0,0,1,18.67,21.73c-2.77,53.46-11.86,190.86-9.28,247.41A20.76,20.76,0,0,1,327.89,430.19Z"/><path class="cls-5" d="M336.22,164.78c-43.87,0-85.84-15.54-137.34-9.21"/><path class="cls-5" d="M334.38,191.66c-46.62-.42-85.92-12.89-136.56-8.61"/><path class="cls-5" d="M332.55,218.55c-49.39-.86-86-10.25-135.79-8"/><path class="cls-5" d="M330.71,245.43c-52.14-1.28-86.11-7.61-135-7.41"/><path class="cls-5" d="M328.87,272.32c-54.89-1.71-86.19-5-134.22-6.82"/><path class="cls-5" d="M327,299.21c-57.65-2.14-86.29-2.33-133.45-6.23"/><path class="cls-5" d="M325.2,326.09c-60.4-2.56-86.38.31-132.67-5.63"/><path class="cls-5" d="M323.36,353c-63.16-3-86.46,2.95-131.89-5"/><path class="cls-5" d="M321.52,379.86c-65.91-3.42-86.55,5.59-131.11-4.44"/><path class="cls-5" d="M319.69,406.75C251,402.9,233,415,189.35,402.9"/><path class="cls-6" d="M288.06,390.36c-40.29,1.68-113.79,6.07-148.87-.95a20.73,20.73,0,0,1-16.61-21.73C126,316.13,134.52,169,133.23,113.78A20.72,20.72,0,0,1,153,92.57c40.11-1.76,109.81,3.46,145.54,7a20.73,20.73,0,0,1,18.67,21.72c-2.77,53.46-11.85,190.87-9.28,247.42A20.75,20.75,0,0,1,288.06,390.36Z"/><path class="cls-7" d="M296.39,125c-43.87,0-85.83-15.53-137.33-9.2"/><path class="cls-7" d="M294.56,151.84c-46.63-.43-85.93-12.9-136.56-8.61"/><path class="cls-7" d="M292.72,178.72c-49.38-.85-86-10.25-135.78-8"/><path class="cls-7" d="M290.88,205.61c-52.13-1.28-86.1-7.61-135-7.42"/><path class="cls-7" d="M289.05,232.49c-54.9-1.71-86.2-5-134.23-6.82"/><path class="cls-7" d="M287.21,259.38c-57.65-2.14-86.29-2.33-133.45-6.23"/><path class="cls-7" d="M285.37,286.27c-60.4-2.57-86.37.31-132.67-5.64"/><path class="cls-7" d="M283.54,313.15c-63.16-3-86.47,3-131.9-5"/><path class="cls-7" d="M281.7,340c-65.91-3.42-86.56,5.59-131.12-4.45"/><path class="cls-7" d="M279.86,366.92c-68.67-3.85-86.64,8.23-130.34-3.85"/><path class="cls-2" d="M756.26,606c38.58-1.71,100.73-5,135.92,0a27,27,0,0,1,23.13,28.44c-3.53,53.92-11,185.6-10.38,242.59a26.92,26.92,0,0,1-26.25,27.2c-38.48.94-97.95-3.34-133-6.65a26.93,26.93,0,0,1-24.36-28.26c3-55.14,10.88-178.08,9.18-235.59A27,27,0,0,1,756.26,606Z"/><path class="cls-3" d="M741.86,871.68c43.87,0,85.83,15.53,137.33,9.2"/><path class="cls-3" d="M743.7,844.79c46.62.43,85.92,12.89,136.55,8.61"/><path class="cls-3" d="M745.53,817.9c49.38.86,86,10.26,135.78,8"/><path class="cls-3" d="M747.37,791c52.14,1.28,86.11,7.61,135,7.42"/><path class="cls-3" d="M749.21,764.13c54.89,1.71,86.19,5,134.22,6.83"/><path class="cls-3" d="M751,737.25c57.65,2.14,86.29,2.33,133.45,6.23"/><path class="cls-3" d="M752.88,710.36c60.4,2.57,86.38-.31,132.67,5.64"/><path class="cls-3" d="M754.72,683.48c63.15,3,86.46-3,131.89,5"/><path class="cls-3" d="M756.55,656.59C822.47,660,843.11,651,887.67,661"/><path class="cls-3" d="M758.39,629.71c68.67,3.84,86.65-8.24,130.34,3.84"/><path class="cls-4" d="M796.09,645.83c38.58-1.7,100.72-5,135.91,0a27,27,0,0,1,23.13,28.45c-3.53,53.92-11,185.59-10.37,242.59a26.91,26.91,0,0,1-26.25,27.19c-38.49.94-98-3.33-133-6.64a26.93,26.93,0,0,1-24.37-28.27c3-55.13,10.88-178.08,9.19-235.58A27,27,0,0,1,796.09,645.83Z"/><path class="cls-5" d="M781.69,911.5c43.87,0,85.83,15.54,137.33,9.21"/><path class="cls-5" d="M783.52,884.62c46.63.42,85.93,12.89,136.56,8.61"/><path class="cls-5" d="M785.36,857.73c49.38.86,86,10.25,135.78,8"/><path class="cls-5" d="M787.2,830.84c52.13,1.29,86.1,7.62,135,7.42"/><path class="cls-5" d="M789,804c54.89,1.71,86.2,5,134.23,6.82"/><path class="cls-5" d="M790.87,777.07c57.65,2.14,86.28,2.33,133.45,6.23"/><path class="cls-5" d="M792.71,750.19c60.4,2.56,86.37-.31,132.67,5.63"/><path class="cls-5" d="M794.54,723.3c63.16,3,86.47-2.95,131.9,5"/><path class="cls-5" d="M796.38,696.42c65.91,3.42,86.56-5.59,131.12,4.44"/><path class="cls-5" d="M798.22,669.53c68.66,3.85,86.64-8.23,130.34,3.85"/><path class="cls-6" d="M835.91,685.66c38.58-1.7,100.73-5,135.92,0A27,27,0,0,1,995,714.14c-3.53,53.93-11,185.6-10.38,242.59a26.92,26.92,0,0,1-26.24,27.2c-38.49.94-98-3.34-133-6.64A26.94,26.94,0,0,1,801,949c3-55.14,10.88-178.08,9.18-235.58A27,27,0,0,1,835.91,685.66Z"/><path class="cls-7" d="M821.51,951.33c43.87,0,85.84,15.53,137.34,9.2"/><path class="cls-7" d="M823.35,924.44c46.62.43,85.92,12.89,136.56,8.61"/><path class="cls-7" d="M825.19,897.56c49.38.85,86,10.25,135.78,8"/><path class="cls-7" d="M827,870.67c52.14,1.28,86.11,7.61,135,7.42"/><path class="cls-7" d="M828.86,843.79c54.89,1.71,86.19,5,134.23,6.82"/><path class="cls-7" d="M830.7,816.9c57.64,2.14,86.28,2.33,133.44,6.23"/><path class="cls-7" d="M832.53,790c60.4,2.57,86.38-.31,132.67,5.64"/><path class="cls-7" d="M834.37,763.13c63.16,3,86.46-3,131.89,5"/><path class="cls-7" d="M836.21,736.24c65.91,3.42,86.55-5.59,131.11,4.45"/><path class="cls-7" d="M838,709.36c68.67,3.85,86.65-8.23,130.34,3.85"/><path class="cls-2" d="M363,606.07c-39.06-1.71-103.63-5.23-138.91.22a25.55,25.55,0,0,0-21.57,26.94C206,686.73,213.71,821.6,213,878.34a25.58,25.58,0,0,0,24.91,25.9c38.92,1.09,100.45-3.37,135.68-6.73a25.57,25.57,0,0,0,23.09-26.81c-2.94-54.9-11.09-180.92-9.21-238.28A25.55,25.55,0,0,0,363,606.07Z"/><path class="cls-3" d="M376,871.68c-43.87,0-85.83,15.53-137.33,9.2"/><path class="cls-3" d="M374.21,844.79c-46.63.43-85.93,12.89-136.56,8.61"/><path class="cls-3" d="M372.37,817.9c-49.38.86-86,10.26-135.78,8"/><path class="cls-3" d="M370.53,791c-52.13,1.28-86.1,7.61-135,7.42"/><path class="cls-3" d="M368.7,764.13c-54.89,1.71-86.2,5-134.23,6.83"/><path class="cls-3" d="M366.86,737.25c-57.65,2.14-86.28,2.33-133.45,6.23"/><path class="cls-3" d="M365,710.36c-60.4,2.57-86.37-.31-132.67,5.64"/><path class="cls-3" d="M363.19,683.48c-63.16,3-86.47-3-131.9,5"/><path class="cls-3" d="M361.35,656.59C295.44,660,274.8,651,230.23,661"/><path class="cls-3" d="M359.51,629.71c-68.66,3.84-86.64-8.24-130.34,3.84"/><path class="cls-4" d="M323.17,645.89c-39.06-1.71-103.63-5.23-138.9.23a25.55,25.55,0,0,0-21.58,26.94c3.52,53.49,11.2,188.37,10.44,245.1A25.59,25.59,0,0,0,198,944.07c38.93,1.09,100.45-3.38,135.69-6.74a25.55,25.55,0,0,0,23.08-26.81c-2.94-54.89-11.09-180.92-9.21-238.27A25.55,25.55,0,0,0,323.17,645.89Z"/><path class="cls-5" d="M336.22,911.5c-43.87,0-85.84,15.54-137.34,9.21"/><path class="cls-5" d="M334.38,884.62c-46.62.42-85.92,12.89-136.56,8.61"/><path class="cls-5" d="M332.55,857.73c-49.39.86-86,10.25-135.79,8"/><path class="cls-5" d="M330.71,830.84c-52.14,1.29-86.11,7.62-135,7.42"/><path class="cls-5" d="M328.87,804c-54.89,1.71-86.19,5-134.22,6.82"/><path class="cls-5" d="M327,777.07c-57.65,2.14-86.29,2.33-133.45,6.23"/><path class="cls-5" d="M325.2,750.19c-60.4,2.56-86.38-.31-132.67,5.63"/><path class="cls-5" d="M323.36,723.3c-63.16,3-86.46-2.95-131.89,5"/><path class="cls-5" d="M321.52,696.42c-65.91,3.42-86.55-5.59-131.11,4.44"/><path class="cls-5" d="M319.69,669.53C251,673.38,233,661.3,189.35,673.38"/><path class="cls-6" d="M283.35,685.72c-39.07-1.71-103.63-5.23-138.91.22a25.55,25.55,0,0,0-21.57,26.94c3.52,53.5,11.19,188.38,10.44,245.11a25.58,25.58,0,0,0,24.91,25.9c38.92,1.09,100.45-3.37,135.68-6.73A25.56,25.56,0,0,0,317,950.35c-2.94-54.9-11.09-180.92-9.22-238.28A25.55,25.55,0,0,0,283.35,685.72Z"/><path class="cls-7" d="M296.39,951.33c-43.87,0-85.83,15.53-137.33,9.2"/><path class="cls-7" d="M294.56,924.44c-46.63.43-85.93,12.89-136.56,8.61"/><path class="cls-7" d="M292.72,897.56c-49.38.85-86,10.25-135.78,8"/><path class="cls-7" d="M290.88,870.67c-52.13,1.28-86.1,7.61-135,7.42"/><path class="cls-7" d="M289.05,843.79c-54.9,1.71-86.2,5-134.23,6.82"/><path class="cls-7" d="M287.21,816.9c-57.65,2.14-86.29,2.33-133.45,6.23"/><path class="cls-7" d="M285.37,790c-60.4,2.57-86.37-.31-132.67,5.64"/><path class="cls-7" d="M283.54,763.13c-63.16,3-86.47-3-131.9,5"/><path class="cls-7" d="M281.7,736.24c-65.91,3.42-86.56-5.59-131.12,4.45"/><path class="cls-7" d="M279.86,709.36c-68.67,3.85-86.64-8.23-130.34,3.85"/><path class="cls-8" d="M271.43,484.47c81-73,288.74-212.3,535.22-8.05a59.26,59.26,0,0,1,1.52,89.83c-177.6,157.93-378.49,224-544.68-2.75A59.28,59.28,0,0,1,271.43,484.47Z"/><circle class="cls-6" cx="525.58" cy="518.97" r="131.68"/><circle class="cls-9" cx="525.58" cy="518.97" r="44.7"/></g></svg>