<svg xmlns="http://www.w3.org/2000/svg" viewBox="0 0 1080 1080"><defs><style>.cls-1{fill:#4700b7;}.cls-2{fill:#6900ff;}.cls-3{fill:#8761ff;}</style></defs><g id="LOGO"><path class="cls-1" d="M376.24,845.6c17.36,24.3,78.69,60.18,133.09,61.33s125-4.62,158.54-38.19c0-33.56,25.46-212.93,25.46-212.93l-40.5-511.52s-49.76,2.31-50.92,38.19-8.1,238.4-8.1,248.81c-12.73-22-34.72-28.93-53.24-28.93S495.44,422,493.12,432.45c-10.41-6.94-38.19-16.2-56.7-6.94s-37,23.14-35.88,34.72c-18.51,0-34.72,2.31-48.6,19.67s-31.25,44-31.25,79.85S331.11,659.28,334.58,672s35.87,93.74,35.87,112.25S376.24,845.6,376.24,845.6Z"/><path class="cls-2" d="M334.58,672c18.51,9.26,46.29,0,50.92-5.79s16.2-55.55,9.26-63.65-47.45-17.36-53.24-42.82,8-61.33,24.23-70.59,19.45-7,31.17-7c.15,16.21,0,107.63,0,107.63s-1,69.44,10.57,77.54,24.3,17.36,39.34,16.2S470,680.11,475.77,672s4.62-66,0-72.91-60.18-13.89-63.65-31.25-5.79-73.42,0-85.89,10.41-36.78,31.24-39.09,27.51,5.78,36.32,8.1c-1.6,17.36,0,135.4,0,135.4s-4.18,88.15,0,97.31,66.68,13.79,86.35-5.89,52.08-24.3,67.12-26.61,18.52-28.94,0-28.94-118,2.32-133.08-38.19,0-54.39,6.94-68.27c11.57,2.31,118,9.39,130.77,9.9,1.16-13.38-24.3-30.74-24.3-66.61S612.87,202.65,616.1,183c2.54-15.53-.43-38.67,36.73-38.67,29.57,0,40.5,41.66,40.5,55.55S700.28,522.72,703.75,554c11.57,12.73,54.39,37,55.55,77.53S673.66,835.18,654,856s-93.74,30.09-137.72,27.78-131.93-53.24-135.4-69.44-12.5-46.43-21.14-71.25S334.58,672,334.58,672Z"/><path class="cls-3" d="M588,522.53c-2.32,12.34,4.33,36.63-51,34.08-57.71-2.66-30-40.83-30-40.83Z"/><path class="cls-2" d="M588,423c5.53,19.83,0,99.49,0,99.49l-52.76-4.4a19.67,19.67,0,0,0-13.79-19.71C506.43,493.21,506.43,477.59,507,462s-4.63-34.72,7.52-42.82S558,401.47,588,423Z"/></g></svg>