<svg xmlns="http://www.w3.org/2000/svg" viewBox="0 0 1080 1080"><defs><style>.cls-1{fill:#4700b7;}.cls-2{fill:#6900ff;}.cls-3{fill:#8761ff;}</style></defs><g id="LOGO"><path class="cls-1" d="M264.57,427.64c2.07-63.23,18.45-106.75,35.58-126.52S364.73,255,413.49,256.31s76.44-31.63,106.75-34.26,138.38-14.5,175.28,0,46.13,40.85,46.13,59.3c31.63,9.23,40.85,29,43.49,47.44s-7.91,44.81-14.5,48.77c19.77,10.54,36.9,30.31,36.9,59.3s-22.4,56.67-26.35,58c25,15.81,35.58,43.49,34.26,72.48s-40.85,47.45-51.4,50.08-179.93,0-207.26,0c25.39,38.22,32,113.34,32,138.38s-3.95,84.35-18.45,94.89-40.85,25-61.94,25c-17.13-15.81-25-60.62-30.31-80.39s-30.26-103.44-51.4-131.79-89.62-72.48-108.07-90.93S261.93,508,264.57,427.64Z"/><path class="cls-2" d="M282,519.68c-.27-28.78-6.33-92,0-115.77s30-83,61.67-98.84,57.86-9.22,81.71-31.63,47.45-21.08,69.85-30.31,112-27.67,146.29-22.4,25-2.64,34.26,5.27,44.81,34.26,42.18,52.71c17.13,5.28,40.85,25,46.12,46.13s-5.27,50.08-13.18,52.72c14.5,6.59,35.59,32.94,35.59,58s-7.91,64.58-27.68,65.9c17.13,9.22,23.72,39.12,21.09,55.8S768,606.87,735.06,609.51s-178.27,7.9-178.27,7.9a150.7,150.7,0,0,1-45.77,0c30.31,11.87,75,152,73.76,192.61s-28,49.43-28,49.43l-48.41,16.27-15.53-26.66s-36.41-156.38-66.18-185.52-77.76-67.21-108.07-90.93S282,519.68,282,519.68Z"/><path class="cls-3" d="M477.24,789s32.46,10.3,44.32,34,11.22,44.51,11.22,44.51l-24.4,8.2a224,224,0,0,1-15.53-26.66C486,834.87,477.24,789,477.24,789Z"/></g></svg>