<svg xmlns="http://www.w3.org/2000/svg" viewBox="0 0 1080 1080"><defs><style>.cls-1{fill:#bbb8ff;}.cls-2{fill:#6900ff;}</style></defs><g id="LOGO"><path class="cls-1" d="M750.94,685.2l-61.69-61.66-47.78-47.78a27.73,27.73,0,0,1,0-39.1,27.5,27.5,0,0,1,39,0L707.75,564a39.76,39.76,0,0,0,56.33,0,40,40,0,0,0,0-56.41l-4.48-4.52-47.68-47.81a6.9,6.9,0,0,0-1-.78l-64.85-64.84.09-.09L448.78,192.1l-87.33-87.33a39.76,39.76,0,0,0-50.2,5,40,40,0,0,0,0,56.43l3,3a27.73,27.73,0,0,1,0,39.1,27.48,27.48,0,0,1-38.62.32l-51-51.25a39.51,39.51,0,0,0-28.16-11.69h0a39.47,39.47,0,0,0-28.16,11.7,40,40,0,0,0,0,56.43L230,275.52l47.77,47.78a27.72,27.72,0,0,1,0,39.1,27.49,27.49,0,0,1-38.95,0l-27.33-27.33a39.74,39.74,0,0,0-56.32,0,40,40,0,0,0,0,56.41l4.48,4.53,47.68,47.8a5.4,5.4,0,0,0,1,.78l64.84,64.85-.08.08L470.44,707l87.33,87.33a39.81,39.81,0,0,0,50.21-5,40,40,0,0,0,0-56.43l-3-3a27.73,27.73,0,0,1,0-39.1,27.49,27.49,0,0,1,38.63-.32l51,51.25a39.51,39.51,0,0,0,28.16,11.69h0A39.53,39.53,0,0,0,751,741.64,40,40,0,0,0,750.94,685.2Z"/><path class="cls-1" d="M942.94,877.2l-61.69-61.66-47.78-47.78a27.73,27.73,0,0,1,0-39.1,27.5,27.5,0,0,1,39,0L899.75,756a39.76,39.76,0,0,0,56.33,0,40,40,0,0,0,0-56.41l-4.48-4.52-47.68-47.81a6.9,6.9,0,0,0-1-.78l-64.85-64.84.09-.09L640.78,384.1l-87.33-87.33a39.76,39.76,0,0,0-50.2,5,40,40,0,0,0,0,56.43l3,3a27.73,27.73,0,0,1,0,39.1,27.48,27.48,0,0,1-38.62.32l-51-51.25a39.51,39.51,0,0,0-28.16-11.69h0a39.47,39.47,0,0,0-28.16,11.7,40,40,0,0,0,0,56.43L422,467.52l47.77,47.78a27.72,27.72,0,0,1,0,39.1,27.49,27.49,0,0,1-38.95,0l-27.33-27.33a39.74,39.74,0,0,0-56.32,0,40,40,0,0,0,0,56.41l4.48,4.53,47.68,47.8a5.4,5.4,0,0,0,.95.78l64.84,64.85-.08.08L662.44,899l87.33,87.33a39.81,39.81,0,0,0,50.21-5,40,40,0,0,0,0-56.43l-3-3a27.73,27.73,0,0,1,0-39.1,27.49,27.49,0,0,1,38.63-.32l51,51.25a39.51,39.51,0,0,0,28.16,11.69h0A39.53,39.53,0,0,0,943,933.64,40,40,0,0,0,942.94,877.2Z"/><path class="cls-1" d="M942.94,685.2l-61.69-61.66-47.78-47.78a27.73,27.73,0,0,1,0-39.1,27.5,27.5,0,0,1,39,0L899.75,564a39.76,39.76,0,0,0,56.33,0,40,40,0,0,0,0-56.41l-4.48-4.52-47.68-47.81a6.9,6.9,0,0,0-1-.78l-64.85-64.84.09-.09L640.78,192.1l-87.33-87.33a39.76,39.76,0,0,0-50.2,5,40,40,0,0,0,0,56.43l3,3a27.73,27.73,0,0,1,0,39.1,27.48,27.48,0,0,1-38.62.32l-51-51.25a39.51,39.51,0,0,0-28.16-11.69h0a39.47,39.47,0,0,0-28.16,11.7,40,40,0,0,0,0,56.43L422,275.52l47.77,47.78a27.72,27.72,0,0,1,0,39.1,27.49,27.49,0,0,1-38.95,0l-27.33-27.33a39.74,39.74,0,0,0-56.32,0,40,40,0,0,0,0,56.41l4.48,4.53,47.68,47.8a5.4,5.4,0,0,0,.95.78l64.84,64.85-.08.08L662.44,707l87.33,87.33a39.81,39.81,0,0,0,50.21-5,40,40,0,0,0,0-56.43l-3-3a27.73,27.73,0,0,1,0-39.1,27.49,27.49,0,0,1,38.63-.32l51,51.25a39.51,39.51,0,0,0,28.16,11.69h0A39.53,39.53,0,0,0,943,741.64,40,40,0,0,0,942.94,685.2Z"/><path class="cls-1" d="M750.94,877.2l-61.69-61.66-47.78-47.78a27.73,27.73,0,0,1,0-39.1,27.5,27.5,0,0,1,39,0L707.75,756a39.76,39.76,0,0,0,56.33,0,40,40,0,0,0,0-56.41l-4.48-4.52-47.68-47.81a6.9,6.9,0,0,0-1-.78l-64.85-64.84.09-.09L448.78,384.1l-87.33-87.33a39.76,39.76,0,0,0-50.2,5,40,40,0,0,0,0,56.43l3,3a27.73,27.73,0,0,1,0,39.1,27.48,27.48,0,0,1-38.62.32l-51-51.25a39.51,39.51,0,0,0-28.16-11.69h0a39.47,39.47,0,0,0-28.16,11.7,40,40,0,0,0,0,56.43L230,467.52l47.77,47.78a27.72,27.72,0,0,1,0,39.1,27.49,27.49,0,0,1-38.95,0l-27.33-27.33a39.74,39.74,0,0,0-56.32,0,40,40,0,0,0,0,56.41l4.48,4.53,47.68,47.8a5.4,5.4,0,0,0,1,.78l64.84,64.85-.08.08L470.44,899l87.33,87.33a39.81,39.81,0,0,0,50.21-5,40,40,0,0,0,0-56.43l-3-3a27.73,27.73,0,0,1,0-39.1,27.49,27.49,0,0,1,38.63-.32l51,51.25a39.51,39.51,0,0,0,28.16,11.69h0A39.53,39.53,0,0,0,751,933.64,40,40,0,0,0,750.94,877.2Z"/><path class="cls-2" d="M550.08,743.28C438,743.28,346.8,652.09,346.8,540S438,336.72,550.08,336.72,753.36,427.91,753.36,540,662.17,743.28,550.08,743.28Zm0-386.56C449,356.72,366.8,438.94,366.8,540S449,723.28,550.08,723.28,733.36,641.06,733.36,540,651.14,356.72,550.08,356.72Z"/><circle cx="550.08" cy="540" r="183.28"/></g></svg>