<svg xmlns="http://www.w3.org/2000/svg" viewBox="0 0 1080 1080"><defs><style>.cls-1{fill:#4700b7;}.cls-2,.cls-4,.cls-6{fill:none;stroke-linecap:round;stroke-miterlimit:10;}.cls-2{stroke:#bbb8ff;stroke-width:15px;}.cls-3{fill:#8761ff;}.cls-4{stroke:#6900ff;}.cls-4,.cls-6{stroke-width:10px;}.cls-5{fill:#6900ff;}.cls-6{stroke:#8761ff;}</style></defs><g id="LOGO"><path class="cls-1" d="M372.25,848.92c67.25,2.67,199.34,11,256.06-2.55A29.13,29.13,0,0,0,650.52,816c-5.6-82.18-20.53-339.13-17.72-427.73a29.15,29.15,0,0,0-27.55-30c-67-3.73-191.39,5.78-250.12,11.78A29.16,29.16,0,0,0,329,400.55c4.32,85.84,20.42,325.89,15.32,417.64A29.15,29.15,0,0,0,372.25,848.92Z"/><path class="cls-2" d="M363.58,411.43c72.35,0,141.56-25.62,226.49-15.19"/><path class="cls-2" d="M366.61,455.76c76.9-.7,141.71-21.26,225.21-14.2"/><path class="cls-2" d="M369.64,500.1c81.44-1.41,141.85-16.91,223.93-13.22"/><path class="cls-2" d="M372.67,544.44c86-2.11,142-12.55,222.64-12.24"/><path class="cls-2" d="M375.7,588.78c90.53-2.82,142.15-8.2,221.36-11.26"/><path class="cls-2" d="M378.73,633.12c95.07-3.53,142.3-3.85,220.08-10.28"/><path class="cls-2" d="M381.76,677.45c99.61-4.22,142.44.52,218.8-9.29"/><path class="cls-2" d="M384.79,721.79c104.15-4.93,142.59,4.87,217.51-8.31"/><path class="cls-2" d="M387.82,766.13c108.7-5.64,142.74,9.22,216.23-7.33"/><path class="cls-2" d="M390.85,810.47c113.24-6.35,142.89,13.58,214.95-6.35"/><path class="cls-3" d="M437.92,783.24c67.26,2.68,199.34,11,256.07-2.55a29.13,29.13,0,0,0,22.21-30.33c-5.6-82.18-20.53-339.13-17.72-427.72a29.16,29.16,0,0,0-27.55-30c-67-3.73-191.39,5.79-250.12,11.78a29.16,29.16,0,0,0-26.16,30.48C399,420.71,415.06,660.76,410,752.51A29.16,29.16,0,0,0,437.92,783.24Z"/><path class="cls-4" d="M429.26,345.75c72.35,0,141.56-25.62,226.49-15.18"/><path class="cls-4" d="M432.29,390.09c76.9-.71,141.7-21.27,225.21-14.2"/><path class="cls-4" d="M435.32,434.42c81.44-1.41,141.85-16.9,223.92-13.21"/><path class="cls-4" d="M438.35,478.76c86-2.11,142-12.55,222.64-12.23"/><path class="cls-4" d="M441.38,523.1c90.52-2.82,142.15-8.2,221.36-11.25"/><path class="cls-4" d="M444.41,567.44c95.07-3.53,142.29-3.84,220.08-10.27"/><path class="cls-4" d="M447.44,611.78c99.61-4.23,142.44.51,218.79-9.29"/><path class="cls-4" d="M450.47,656.11c104.15-4.93,142.59,4.87,217.51-8.3"/><path class="cls-4" d="M453.5,700.45c108.69-5.64,142.74,9.23,216.23-7.32"/><path class="cls-4" d="M456.53,744.79c113.24-6.34,142.89,13.58,215-6.34"/><path class="cls-5" d="M503.6,717.56c67.26,2.68,199.34,11,256.06-2.55a29.13,29.13,0,0,0,22.22-30.33c-5.6-82.18-20.53-339.13-17.72-427.72a29.17,29.17,0,0,0-27.55-30c-67-3.73-191.39,5.79-250.12,11.78a29.17,29.17,0,0,0-26.16,30.48c4.32,85.85,20.41,325.9,15.31,417.64A29.16,29.16,0,0,0,503.6,717.56Z"/><path class="cls-6" d="M494.94,280.07c72.35,0,141.55-25.62,226.49-15.18"/><path class="cls-6" d="M498,324.41c76.89-.71,141.7-21.27,225.2-14.2"/><path class="cls-6" d="M501,368.75c81.44-1.41,141.85-16.91,223.92-13.22"/><path class="cls-6" d="M504,413.08c86-2.11,142-12.55,222.64-12.23"/><path class="cls-6" d="M507.06,457.42c90.52-2.82,142.15-8.2,221.36-11.25"/><path class="cls-6" d="M510.09,501.76c95.07-3.52,142.29-3.84,220.07-10.27"/><path class="cls-6" d="M513.12,546.1c99.61-4.23,142.44.51,218.79-9.29"/><path class="cls-6" d="M516.15,590.44c104.15-4.94,142.59,4.86,217.51-8.31"/><path class="cls-6" d="M519.17,634.77c108.7-5.64,142.75,9.23,216.24-7.32"/><path class="cls-6" d="M522.2,679.11c113.25-6.34,142.89,13.58,215-6.34"/></g></svg>