<svg xmlns="http://www.w3.org/2000/svg" viewBox="0 0 1080 1080"><defs><style>.cls-1{fill:#260063;}.cls-2{fill:#4700b7;}.cls-3{fill:#6900ff;}.cls-4{fill:#8761ff;}</style></defs><g id="LOGO"><path class="cls-1" d="M788.22,865.47C765,885.81,718.47,911,684.56,913.9s-189.88-61-211.19-84.28S313.53,698.84,299,664.93s4.79-43.06,13.51-48.87c-9.33-16.45-27.59-43.06-27.11-59,.41-13.49-.93-26.81,19.42-37.47-5.82-10.66-10.18-26.75-8.72-40.69,1.26-12.07,13.56-25.19,28.09-26.15S788.22,865.47,788.22,865.47Z"/><path class="cls-2" d="M855.06,748.25c1.94,21.31,1,67.81-66.84,117.22s-133.69,12.59-157.91,0-106.56-65.88-140.47-95.91S368.74,638.78,360,621.34s-28.1-42.63-30-59.1,1-59.09,13.57-64.9c-5.82-11.63-25.19-44.56-5.82-63.94s20.35-14.53,27.13-15.5c-5.81-17.44-5.81-46.5,6.78-57.16s34.88-20.34,74.6,15.5c0-13.56-1.89-32.45,24-42.5,19.26-7.46,48.23-.58,62.52,13S706.15,531.9,727.46,557.09c-24-26.7-26.09-39.41-27.72-62.66s24.54-55.22,38.1-58.12S855.06,748.25,855.06,748.25Z"/><path class="cls-3" d="M855.06,748.25c-1.46,23-45.53,103.65-113.34,107.53s-153.07-31-204.41-71.69S374.34,615.21,360,600c-14.64-15.53-22.29-17.44-24.22-33.91s-1.94-24.22,6.78-31,26.15-13.56,32-6.78,124.16,155,138.52,141.76c11.9-8.71-12-18.16-27.69-38.93C475.89,618.58,359.14,497.75,350,485.76c-9.53-12.43-29-38.37-12.21-52.36s31-11.63,39.72-4.84,179.88,201.26,190.6,188.38c9-10.77,2.66-4.37.88-6.35,5.34-4.31-185.12-178.29-196.32-201.41s-10.05-42.38-1-48.44,33.94-21.62,69.78,11.32S594.7,537.32,610.2,549c8.72-1-.94-18.43-4.81-23.27S466.75,393.78,458.48,377.55s-5.09-25.72,6.22-37.25c8.14-8.29,41.75-5,55.78.32s219.3,220.66,219.3,220.66-24.46-34.81-27.13-66.85,10.66-48.44,25.19-58.12,26.16-10.66,39.72-3.88c6.78,17.44,4.84,38.75,16.47,58.13s21.31,46.5,22.28,59.09,1.94,53,7.75,63.33S857.07,716.59,855.06,748.25Z"/><path class="cls-4" d="M388.12,581.62c-16.45,17-45.72-2.47-50.21-8.28-3.86-5-7.43-25.63,4.68-38.22s27.62-11.55,35.36-3S403.14,566.12,388.12,581.62Z"/><path class="cls-4" d="M341.62,434.85c-21.41,18.56,11.18,77,39.23,51.83S373.75,407,341.62,434.85Z"/><path class="cls-4" d="M422.51,416.45c44-44.65-14.53-75.57-44.56-52.8S388.12,451.32,422.51,416.45Z"/><path class="cls-4" d="M527,382.5c-31.33,29.07-98.35-1.94-62-36.81C488.69,322.93,560.86,351.05,527,382.5Z"/><path class="cls-4" d="M777.56,432.43c-16-1-24.41,9.19-20.34,29.55s7.26,36.81,25.67,33.9,4.84,1.94,11.14-5.32C791.84,486.57,781.92,456.17,777.56,432.43Z"/><path class="cls-4" d="M595.09,306.32S649.76,121,672.42,119.65s40,16,38.67,24S595.09,306.32,595.09,306.32Z"/><path class="cls-4" d="M527.09,279.62s-10.31-111,14.67-133.34c2.73-2.44,12.37-2.86,14.66,0C577.81,172.88,527.09,279.62,527.09,279.62Z"/><path class="cls-4" d="M641.13,350.28s93.54-76.72,122.23-58.66c3.67,2.3,2.53,13.81,0,17.33C744.56,335.16,641.13,350.28,641.13,350.28Z"/></g></svg>