<svg xmlns="http://www.w3.org/2000/svg" viewBox="0 0 1080 1080"><defs><style>.cls-1{fill:#bbb8ff;}.cls-2{fill:#6900ff;}.cls-3{fill:#8761ff;}</style></defs><g id="LOGO"><path class="cls-1" d="M345.55,774.79c-1.94-1.94-2-6.28-4.62-6.5-2.29-.18-2.82,3.67-4.49,5.35-6.8,6.79-19.72,4-24.23,11.73-18,30.72,7.06,72.22-19.7,99-13.54,13.54-32.26,16.42-47.81,25.09-.85.48-1.32,1.44-2,2.14a56.68,56.68,0,0,1-80.15,0c-4.88-4.88-5.12-14.64-11.41-16.36-11.54-3.16-26.9-2.36-33.15,7.32-8.34,12.91,7.24,30.19-4,41.47a32.79,32.79,0,1,1-46.37-46.37c6.69-6.69,20.59-1.64,24.31-9.58,10.07-21.44-15.14-44.8,1.82-61.76,11.91-11.91,31.17-2.4,44-11.54,12.57-9,15.84-28.11,14.46-44.07-1.62-18.81-12.56-35.46.9-48.92a35.27,35.27,0,0,1,49.87,0c2.85,2.85,3.34,7.81,6.77,9.49,17.55,8.6,39.69,15.91,57.27,6.66,7.33-3.86,5.16-16,11.46-22.33,5.29-5.29,18.77-3.66,18.41-10.63-.3-5.73-11.12-3.53-15.49-7.9a28.2,28.2,0,1,1,39.89,0c-3.07,3.07-11,2.61-10.51,6.64,1.23,9.34,18.57,4.7,25.76,11.89,6.51,6.51,3.68,19.89,11.6,23.14,10.91,4.48,22.85-6.42,31.42,2.16a24,24,0,0,1-33.91,33.9Z"/><path class="cls-2" d="M591.64,553.25c-1.09-1.1-1.13-3.52-2.59-3.64-1.28-.11-1.58,2-2.52,3-3.8,3.81-11,2.27-13.57,6.57-10.11,17.22,3.95,40.47-11,55.46-7.59,7.59-18.08,9.21-26.79,14.06-.47.27-.74.81-1.13,1.2a31.76,31.76,0,0,1-44.91,0c-2.73-2.74-2.87-8.2-6.39-9.17-6.47-1.77-15.08-1.32-18.58,4.11-4.67,7.23,4.06,16.91-2.26,23.23a18.37,18.37,0,0,1-26-26c3.75-3.75,11.53-.92,13.62-5.37,5.64-12-8.48-25.1,1-34.61,6.67-6.67,17.47-1.34,24.63-6.46s8.87-15.75,8.1-24.69c-.91-10.54-7-19.87.51-27.41a19.75,19.75,0,0,1,27.94,0c1.59,1.59,1.87,4.37,3.79,5.31,9.83,4.83,22.24,8.92,32.09,3.74,4.11-2.17,2.89-9,6.42-12.52,3-3,10.52-2.05,10.32-6-.17-3.21-6.23-2-8.68-4.43a15.8,15.8,0,1,1,22.35,0c-1.72,1.72-6.19,1.46-5.89,3.72.69,5.24,10.41,2.64,14.43,6.66,3.65,3.65,2.07,11.15,6.5,13,6.12,2.51,12.8-3.6,17.61,1.21a13.44,13.44,0,0,1-19,19Z"/><path class="cls-2" d="M754.36,432.13c22.34-22.34,114.64-77.84,122.17-202a14.82,14.82,0,0,0-16-15.64c-107.61,8.67-179.64,99.81-201.81,122-23.3,23.29-83.51,36.43-98.38,51.3s3,33.69,18.34,18.33c10.94-10.94,29.92-14.34,44.77-10.56a9.78,9.78,0,0,1,4.08,16.73c-13.85,12.43-33,36.45-9.2,60.24,23.6,23.61,47.45,4.94,59.95-8.89a10,10,0,0,1,17.19,4.47c3.5,14.75,0,33.3-10.74,44.07-15.36,15.36,3.47,33.2,18.34,18.33S731.07,455.42,754.36,432.13ZM708.14,385.5a24.39,24.39,0,1,1,31.58,0A24.39,24.39,0,0,1,708.14,385.5Zm42-42a24.39,24.39,0,1,1,31.57,0A24.4,24.4,0,0,1,750.13,343.52Zm42-42a24.39,24.39,0,1,1,31.58,0A24.39,24.39,0,0,1,792.11,301.53Z"/><path class="cls-2" d="M483.16,534.35c1.1,1.09,3.53,1.13,3.65,2.59.1,1.28-2.06,1.58-3,2.52-3.8,3.81-2.26,11-6.57,13.58-17.21,10.1-40.47-4-55.46,11-7.59,7.59-9.2,18.08-14.06,26.79-.27.47-.81.74-1.2,1.13a31.76,31.76,0,0,0,0,44.91c2.74,2.73,8.2,2.87,9.17,6.39,1.77,6.47,1.32,15.08-4.1,18.58-7.24,4.67-16.92-4.06-23.24,2.26a18.37,18.37,0,0,0,26,26c3.75-3.74.92-11.53,5.37-13.62,12-5.64,25.1,8.48,34.61-1,6.67-6.67,1.34-17.46,6.46-24.63s15.75-8.87,24.7-8.1c10.54.91,19.86,7,27.41-.51a19.77,19.77,0,0,0,0-27.94c-1.6-1.59-4.38-1.87-5.32-3.79-4.82-9.83-8.92-22.24-3.73-32.09,2.16-4.11,9-2.89,12.51-6.42,3-3,2-10.52,5.95-10.32,3.21.17,2,6.23,4.43,8.68a15.8,15.8,0,1,0,0-22.35c-1.72,1.72-1.46,6.19-3.72,5.89-5.23-.69-2.64-10.41-6.66-14.43-3.65-3.65-11.15-2.07-13-6.5-2.51-6.12,3.6-12.8-1.21-17.61a13.44,13.44,0,0,0-19,19Z"/><path class="cls-1" d="M453.43,573.51c1.09,1.09,1.13,3.52,2.59,3.64,1.28.11,1.58-2,2.52-3,3.8-3.81,11-2.27,13.57-6.58,10.11-17.21-3.95-40.46,11-55.45,7.59-7.59,18.07-9.21,26.79-14.07.47-.26.74-.8,1.13-1.19a31.76,31.76,0,0,1,44.91,0c2.73,2.73,2.87,8.2,6.39,9.16,6.47,1.77,15.08,1.32,18.58-4.1,4.67-7.23-4.06-16.92,2.26-23.23a18.37,18.37,0,0,1,26,26c-3.75,3.75-11.53.92-13.62,5.37-5.64,12,8.48,25.1-1,34.6-6.67,6.67-17.47,1.34-24.63,6.46s-8.87,15.76-8.1,24.7c.91,10.54,7,19.87-.51,27.41a19.75,19.75,0,0,1-27.94,0c-1.59-1.59-1.87-4.38-3.79-5.32-9.83-4.82-22.24-8.91-32.09-3.73-4.11,2.16-2.89,9-6.42,12.52-3,3-10.52,2-10.32,5.95.17,3.21,6.23,2,8.68,4.42a15.8,15.8,0,1,1-22.35,0c1.72-1.72,6.18-1.46,5.89-3.72-.69-5.23-10.41-2.63-14.43-6.65-3.65-3.65-2.07-11.15-6.5-13-6.12-2.51-12.8,3.59-17.61-1.21a13.44,13.44,0,0,1,19-19Z"/><path class="cls-3" d="M313.86,712.9c1.09,1.09,1.14,3.52,2.59,3.64,1.28.1,1.58-2.06,2.52-3,3.81-3.8,11-2.26,13.58-6.57,10.11-17.21-4-40.47,11-55.46,7.59-7.59,18.08-9.2,26.79-14.06.48-.27.75-.81,1.14-1.2a31.75,31.75,0,0,1,44.9,0c2.74,2.74,2.87,8.2,6.4,9.17,6.47,1.77,15.07,1.32,18.57-4.1,4.67-7.24-4.05-16.92,2.26-23.24a18.37,18.37,0,1,1,26,26c-3.75,3.75-11.54.92-13.63,5.37-5.63,12,8.49,25.11-1,34.61-6.67,6.67-17.46,1.34-24.63,6.46s-8.87,15.75-8.1,24.7c.91,10.54,7,19.87-.5,27.41a19.78,19.78,0,0,1-27.95,0c-1.59-1.6-1.87-4.38-3.79-5.32-9.83-4.82-22.24-8.91-32.09-3.73-4.11,2.16-2.89,9-6.42,12.51-3,3-10.51,2-10.31,5.95.16,3.21,6.23,2,8.67,4.43a15.8,15.8,0,1,1-22.34,0c1.72-1.72,6.18-1.46,5.88-3.72-.68-5.23-10.4-2.63-14.43-6.66-3.65-3.65-2.06-11.15-6.5-13-6.11-2.5-12.8,3.6-17.61-1.21a13.43,13.43,0,0,1,19-19Z"/><path class="cls-3" d="M292.75,835.74c-1.09-1.09-3.52-1.14-3.64-2.59-.11-1.29,2.05-1.58,3-2.52,3.81-3.81,2.27-11,6.57-13.58,17.22-10.11,40.47,4,55.46-11,7.59-7.59,9.21-18.08,14.06-26.79.27-.48.81-.75,1.2-1.14a31.75,31.75,0,0,0,0-44.9c-2.74-2.74-8.2-2.87-9.17-6.4-1.77-6.47-1.32-15.07,4.11-18.57,7.23-4.67,16.91,4,23.23-2.26a18.37,18.37,0,0,0-26-26c-3.75,3.75-.92,11.54-5.37,13.63-12,5.63-25.1-8.49-34.6,1-6.68,6.67-1.35,17.46-6.47,24.63s-15.75,8.87-24.69,8.1c-10.54-.91-19.87-7-27.41.5a19.75,19.75,0,0,0,0,27.94c1.59,1.6,4.38,1.88,5.32,3.8,4.82,9.83,8.91,22.24,3.73,32.09-2.16,4.1-9,2.89-12.52,6.42-3,3-2,10.51-5.95,10.31-3.21-.16-2-6.23-4.42-8.67a15.8,15.8,0,1,0,0,22.34c1.71-1.72,1.45-6.18,3.71-5.88,5.24.68,2.64,10.4,6.66,14.43,3.65,3.65,11.15,2.06,13,6.5,2.51,6.11-3.6,12.8,1.21,17.61a13.44,13.44,0,0,0,19-19Z"/><path class="cls-1" d="M397.83,665.93c1.6,1.61,5.17,1.67,5.35,3.8.15,1.88-3,2.32-4.4,3.7-5.58,5.58-3.32,16.21-9.64,19.92-25.25,14.83-59.37-5.81-81.37,16.19-11.13,11.13-13.5,26.52-20.62,39.3-.39.7-1.18,1.09-1.76,1.66a46.59,46.59,0,0,0,0,65.88c4,4,12,4.21,13.45,9.38,2.6,9.5,1.94,22.12-6,27.26-10.62,6.85-24.82-5.95-34.09,3.31a27,27,0,1,0,38.12,38.12c5.5-5.49,1.35-16.92,7.87-20,17.62-8.27,36.83,12.44,50.78-1.5,9.78-9.78,2-25.62,9.48-36.13,7.38-10.33,23.11-13,36.23-11.89,15.46,1.34,29.15,10.32,40.21-.74a29,29,0,0,0,0-41c-2.34-2.34-6.42-2.75-7.8-5.57-7.07-14.42-13.08-32.63-5.48-47.07,3.18-6,13.18-4.24,18.36-9.43,4.35-4.35,3-15.42,8.73-15.13,4.72.24,2.91,9.14,6.5,12.73a23.18,23.18,0,1,0,0-32.78c-2.52,2.52-2.14,9.07-5.46,8.63-7.67-1-3.86-15.27-9.77-21.17-5.35-5.36-16.35-3-19-9.54-3.68-9,5.27-18.78-1.77-25.83a19.71,19.71,0,1,0-27.88,27.87Z"/><path class="cls-3" d="M159.39,881c1.64,1.65,1.7,5.3,3.89,5.48,1.93.16,2.37-3.09,3.79-4.5,5.72-5.73,16.61-3.41,20.41-9.89,15.2-25.88-5.95-60.84,16.59-83.38,11.41-11.41,27.18-13.84,40.28-21.14.72-.4,1.12-1.21,1.71-1.8a47.72,47.72,0,0,1,67.51,0c4.12,4.11,4.32,12.33,9.62,13.78,9.73,2.66,22.66,2,27.93-6.17,7-10.88-6.1-25.44,3.4-34.93a27.62,27.62,0,0,1,39.06,39.06c-5.63,5.64-17.34,1.38-20.48,8.07-8.47,18.06,12.76,37.75-1.53,52-10,10-26.26,2-37,9.71C324,854.87,321.19,871,322.36,884.43c1.36,15.85,10.57,29.88-.77,41.22a29.71,29.71,0,0,1-42,0c-2.4-2.4-2.81-6.59-5.7-8-14.78-7.25-33.44-13.4-48.25-5.61-6.17,3.25-4.34,13.5-9.66,18.81-4.45,4.46-15.8,3.08-15.5,8.95.25,4.83,9.36,3,13.05,6.66a23.76,23.76,0,1,1-33.6,0c2.58-2.59,9.29-2.2,8.84-5.59-1-7.87-15.64-4-21.69-10-5.49-5.48-3.11-16.76-9.78-19.49-9.19-3.77-19.25,5.4-26.47-1.82A20.2,20.2,0,0,1,159.39,881Z"/><path class="cls-2" d="M371.91,689c1.3,1.3,4.18,1.35,4.33,3.08.12,1.52-2.44,1.87-3.56,3-4.52,4.53-2.69,13.13-7.81,16.14-20.46,12-48.1-4.71-65.91,13.11-9,9-10.94,21.48-16.72,31.84-.31.56-.95.88-1.42,1.35a37.74,37.74,0,0,0,0,53.36c3.25,3.26,9.75,3.41,10.9,7.6,2.1,7.69,1.57,17.92-4.88,22.08-8.6,5.55-20.11-4.82-27.61,2.69a21.84,21.84,0,1,0,30.88,30.88c4.45-4.46,1.09-13.71,6.37-16.19,14.28-6.7,29.84,10.08,41.13-1.21,7.93-7.93,1.6-20.76,7.68-29.28s18.73-10.54,29.35-9.62c12.53,1.08,23.62,8.36,32.58-.6a23.48,23.48,0,0,0,0-33.21c-1.9-1.9-5.2-2.23-6.32-4.51-5.73-11.68-10.59-26.43-4.44-38.14,2.57-4.88,10.68-3.43,14.88-7.63,3.52-3.52,2.43-12.5,7.07-12.26,3.82.2,2.35,7.41,5.26,10.32a18.78,18.78,0,1,0,0-26.56c-2,2-1.73,7.34-4.42,7-6.22-.82-3.13-12.37-7.91-17.15-4.34-4.34-13.25-2.45-15.41-7.72-3-7.27,4.27-15.22-1.44-20.93A16,16,0,0,0,371.91,689Z"/><path class="cls-1" d="M422.27,692.9c-1.38-1.38-1.44-4.46-3.28-4.62-1.63-.13-2,2.61-3.2,3.8-4.82,4.83-14,2.87-17.22,8.34-12.81,21.83,5,51.32-14,70.33-9.62,9.62-22.92,11.67-34,17.83-.61.34-.95,1-1.44,1.52a40.26,40.26,0,0,1-56.95,0c-3.47-3.47-3.64-10.4-8.11-11.62-8.21-2.25-19.12-1.68-23.56,5.2-5.92,9.17,5.15,21.45-2.87,29.47a23.3,23.3,0,1,1-33-33c4.75-4.75,14.63-1.16,17.28-6.8,7.15-15.23-10.76-31.84,1.29-43.89,8.46-8.46,22.15-1.7,31.24-8.2,8.93-6.38,11.25-20,10.27-31.32-1.15-13.36-8.92-25.2.64-34.76a25.05,25.05,0,0,1,35.44,0c2,2,2.37,5.55,4.81,6.75,12.47,6.11,28.2,11.3,40.69,4.73,5.21-2.74,3.67-11.39,8.15-15.87,3.76-3.76,13.33-2.6,13.08-7.55-.21-4.07-7.9-2.51-11-5.61a20,20,0,1,1,28.34,0c-2.18,2.18-7.84,1.85-7.47,4.71.87,6.64,13.2,3.34,18.3,8.45,4.63,4.63,2.62,14.14,8.25,16.44,7.75,3.18,16.23-4.56,22.33,1.54a17,17,0,1,1-24.1,24.09Z"/><path class="cls-2" d="M485.89,687.5c-1.09-1.1-1.14-3.52-2.59-3.65-1.28-.1-1.58,2.06-2.52,3-3.81,3.8-11,2.27-13.58,6.57-10.11,17.22,4,40.47-11,55.46-7.59,7.59-18.08,9.21-26.79,14.06-.48.27-.74.81-1.14,1.2a31.75,31.75,0,0,1-44.9,0c-2.74-2.74-2.87-8.2-6.39-9.17-6.48-1.77-15.08-1.32-18.58,4.11-4.67,7.23,4.06,16.91-2.26,23.23a18.37,18.37,0,0,1-26-26c3.75-3.75,11.54-.92,13.63-5.37,5.63-12-8.49-25.1,1-34.61,6.67-6.67,17.46-1.34,24.63-6.46s8.87-15.75,8.1-24.7c-.91-10.53-7-19.86.5-27.41a19.78,19.78,0,0,1,27.95,0c1.59,1.6,1.87,4.38,3.79,5.32,9.83,4.82,22.24,8.92,32.09,3.74,4.11-2.17,2.89-9,6.42-12.52,3-3,10.51-2.05,10.31-6-.16-3.21-6.23-2-8.67-4.43a15.8,15.8,0,1,1,22.34,0c-1.72,1.72-6.18,1.46-5.88,3.72.69,5.24,10.4,2.64,14.43,6.66,3.65,3.65,2.06,11.15,6.5,13,6.11,2.51,12.8-3.6,17.61,1.21a13.44,13.44,0,0,1-19,19Z"/><path class="cls-1" d="M475.84,564.65c1.1,1.1,3.53,1.14,3.65,2.6.1,1.28-2.06,1.57-3,2.51-3.8,3.81-2.26,11-6.57,13.58-17.21,10.11-40.47-4-55.46,11-7.59,7.58-9.2,18.07-14.06,26.78-.27.48-.81.75-1.2,1.14a31.75,31.75,0,0,0,0,44.9c2.74,2.74,8.2,2.87,9.17,6.4,1.77,6.47,1.32,15.07-4.1,18.57-7.24,4.68-16.92-4-23.24,2.27a18.37,18.37,0,1,0,26,26c3.75-3.75.92-11.54,5.37-13.62,12-5.64,25.1,8.48,34.61-1,6.67-6.68,1.34-17.47,6.46-24.63s15.75-8.88,24.7-8.11c10.54.91,19.86,7,27.41-.5a19.77,19.77,0,0,0,0-27.94c-1.6-1.6-4.38-1.88-5.32-3.79-4.82-9.84-8.92-22.25-3.73-32.09,2.16-4.11,9-2.89,12.51-6.43,3-3,2.05-10.51,6-10.31,3.21.17,2,6.23,4.43,8.68a15.8,15.8,0,1,0,0-22.35c-1.72,1.72-1.46,6.18-3.72,5.88-5.23-.68-2.64-10.4-6.66-14.43-3.65-3.65-11.15-2.06-13-6.5-2.51-6.11,3.6-12.8-1.21-17.6a13.43,13.43,0,0,0-19,19Z"/><path class="cls-3" d="M514.38,672.56c-1.09-1.09-3.52-1.13-3.64-2.59-.11-1.28,2-1.58,3-2.52,3.81-3.8,2.27-11,6.57-13.57,17.22-10.11,40.47,4,55.46-11,7.59-7.59,9.21-18.07,14.06-26.79.27-.47.81-.74,1.2-1.13A31.76,31.76,0,0,0,591,570c-2.74-2.73-8.2-2.87-9.17-6.39-1.77-6.47-1.32-15.08,4.11-18.58,7.23-4.67,16.91,4.06,23.23-2.26a18.37,18.37,0,0,0-26-26c-3.75,3.75-.92,11.53-5.37,13.62-12,5.64-25.1-8.48-34.6,1-6.68,6.67-1.35,17.47-6.47,24.63s-15.75,8.87-24.69,8.1c-10.54-.91-19.87-7-27.41.51a19.75,19.75,0,0,0,0,27.94c1.59,1.6,4.38,1.87,5.32,3.79,4.82,9.83,8.91,22.24,3.73,32.09-2.17,4.11-9,2.89-12.52,6.42-3,3-2,10.52-5.95,10.32-3.21-.17-2-6.23-4.42-8.68a15.8,15.8,0,1,0,0,22.35c1.71-1.72,1.45-6.18,3.71-5.89,5.24.69,2.64,10.41,6.66,14.43,3.65,3.65,11.15,2.07,13,6.5,2.51,6.12-3.6,12.81,1.21,17.61a13.44,13.44,0,0,0,19-19Z"/></g></svg>