<svg xmlns="http://www.w3.org/2000/svg" viewBox="0 0 1080 1080"><defs><style>.cls-1{fill:#4700b7;}.cls-2{fill:#6900ff;}.cls-3{fill:#8761ff;}</style></defs><g id="LOGO"><path class="cls-1" d="M252.22,616.35c-6.48,36.65,49.61,92.45,69.9,115s82.3,64.26,96.95,87.93S489,900.46,507,907.22,664.85,924.13,685.14,914s47.35-38.34,51.86-50.74,7.66-73.49,9-98.08c3.5-63.43,4.17-179.33,9.11-238.89,4.69-56.55,25.78-192,23.58-225.74-1-14.71-34-24-56.45-17s-35.2,25.05-35.34,35.19-4,156.72-4,156.72-4.2-263.52-32.65-285.74c-9-7-43.84,9.58-49.48,23.11s-14.67,65.58-12.58,87.74c3.54,37.36,25.93,147.83,25.93,147.83S565.8,196.92,496.68,162.27c-14.36-7.2-47.17,12.14-46,44.84S504.76,330,504.76,351.41s3.38,136.42,3.38,136.42S358.42,485,315.05,506.71c-18.59,9.31-52,41-56.07,61.41-1.78,9,7.61,21.1,25.93,25.68s47.36-7.32,54.12-12.4c13.53-10.14,56.37-53,63.13-53s37.21-5.64,48.48,5.63,36.08,20.79,37.21,34.07,6.76,71.91,0,80.93-48.3,41.44-67.81,41.44-62.33-51.88-82.14-67.37-29.31-29.32-53-29.32S254,606.58,252.22,616.35Z"/><path class="cls-2" d="M742.69,771.61c-6-33.56-1-192.93,4-254.82,4.4-54.25,27.18-206.87,25.21-216.25-4.76-22.71-31-20.93-45-17.9-18.73,4-22.54,40.59-22.54,53s-12.41,120.63-21.42,139.8c1.12-32.7,9-251.41,0-268.32s-53-24.81-63.14-7.89-18,80-14.65,95.82,12.4,137.55,9,153.33c-7.89-39.46-16.91-126.55-25.93-147.83s-50.73-123.87-76.66-136.27-40.59,23.67-39.46,40.58-3.38,29.31,7.89,53,41.72,76.66,41.72,99.21,14.65,120.63,4.51,124-25.93-37.2-84.56-44-45.09-4.51-60.88,3.38S261.18,546.09,259,568.12c-2,20,27.06,24.56,48.48,14.41s81.17-64.26,95.83-64.26,54.12-.29,62,9.44,40.58,30,40.58,49.18,2.26,72.16-7.89,80.05-47.35,33.82-84.55,33.82-47.35-40.59-75.54-67.64-42.84-22.55-56.37-20.3-28.18,7.9-22.55,16.91,50.74,80,64.27,94.71,66.51,44,90.19,67.64,63.82,84.55,105.19,86.81,160.87,7.89,183.42-6.77S746.46,792.73,742.69,771.61Z"/><path class="cls-3" d="M758.42,340.14c-14.95,8-49.89-27.11-32.69-46.22,20.07-22.31,34.27-8.84,41-4.21C775.06,295.38,775.33,331.12,758.42,340.14Z"/><path class="cls-3" d="M657,274.75c-21.3,2.28-43.73-74.38-23.56-84s43.62,4.69,49.49,16.33C691,223.28,688.52,271.37,657,274.75Z"/><path class="cls-3" d="M531.81,247.87c27.76-11.91-2-72.24-20.29-83.6-7.64-4.76-27-3.61-33,14.4S494.61,263.82,531.81,247.87Z"/></g></svg>