<svg xmlns="http://www.w3.org/2000/svg" viewBox="0 0 1080 1080"><defs><style>.cls-1{fill:#8761ff;}.cls-2{fill:#bbb8ff;}.cls-3{fill:#6900ff;}.cls-4{fill:none;stroke:#8761ff;stroke-linecap:round;stroke-linejoin:round;stroke-width:10px;}.cls-5{fill:#4700b7;}</style></defs><g id="LOGO"><path class="cls-1" d="M318.53,390.88,251.27,854.14a19.4,19.4,0,0,0,19.19,22.18H788.78a19.4,19.4,0,0,0,19.29-17.41l47.57-463.26a19.39,19.39,0,0,0-19.29-21.37H337.72A19.4,19.4,0,0,0,318.53,390.88Z"/><path class="cls-2" d="M219.69,824.06c-4.52,36.44,9.7,52.26,44.81,52.26H795.61s11.56-4.26,12.46-17.41c-2,13.37-42.68,3.81-32.83-32.5C784.44,792.52,236.47,688.7,219.69,824.06Z"/><path class="cls-2" d="M286.8,355.05,219.9,815.79a20.67,20.67,0,0,0,20.44,23.62H756.06a20.65,20.65,0,0,0,20.54-18.54l47.32-460.75a20.65,20.65,0,0,0-20.55-22.75H307.23A20.64,20.64,0,0,0,286.8,355.05Z"/><path class="cls-3" d="M317,378.75l-6.8,30.58a19.34,19.34,0,0,0,18.95,23.53l428.73-1.48a19.33,19.33,0,0,0,19.13-17l3.54-29.1a19.35,19.35,0,0,0-19.2-21.67H335.86A19.33,19.33,0,0,0,317,378.75Z"/><line class="cls-4" x1="304.94" y1="461.72" x2="540" y2="461.72"/><line class="cls-4" x1="301.83" y1="483.61" x2="536.89" y2="483.61"/><line class="cls-4" x1="298.72" y1="505.5" x2="533.78" y2="505.5"/><line class="cls-4" x1="295.61" y1="527.39" x2="530.67" y2="527.39"/><line class="cls-4" x1="292.5" y1="549.28" x2="527.56" y2="549.28"/><line class="cls-4" x1="289.39" y1="571.17" x2="524.44" y2="571.17"/><line class="cls-4" x1="286.28" y1="593.06" x2="521.33" y2="593.06"/><line class="cls-4" x1="283.17" y1="614.95" x2="518.22" y2="614.95"/><line class="cls-4" x1="280.06" y1="636.83" x2="515.11" y2="636.83"/><line class="cls-4" x1="276.94" y1="658.72" x2="512" y2="658.72"/><line class="cls-4" x1="273.83" y1="680.61" x2="508.89" y2="680.61"/><line class="cls-4" x1="270.72" y1="702.5" x2="505.78" y2="702.5"/><line class="cls-4" x1="267.61" y1="724.39" x2="502.67" y2="724.39"/><line class="cls-4" x1="264.5" y1="746.28" x2="499.56" y2="746.28"/><line class="cls-4" x1="261.39" y1="768.17" x2="496.44" y2="768.17"/><line class="cls-4" x1="258.28" y1="790.06" x2="493.33" y2="790.06"/><line class="cls-4" x1="255.17" y1="811.95" x2="490.22" y2="811.95"/><path class="cls-1" d="M559.58,480.26,539.76,643.09a21.09,21.09,0,0,0,20.94,23.63h166a21.08,21.08,0,0,0,21-19.08l15.54-162.83a21.09,21.09,0,0,0-21-23.09H580.51A21.08,21.08,0,0,0,559.58,480.26Z"/><line class="cls-4" x1="742.28" y1="688.94" x2="584.94" y2="688.94"/><line class="cls-4" x1="734.28" y1="746.28" x2="530.67" y2="746.28"/><line class="cls-4" x1="730.06" y1="768.17" x2="526.44" y2="768.17"/><line class="cls-4" x1="725.83" y1="790.06" x2="522.22" y2="790.06"/><line class="cls-4" x1="719.61" y1="811.95" x2="516" y2="811.95"/><circle class="cls-2" cx="628.25" cy="556.19" r="42.65"/><path class="cls-5" d="M579.34,644.21l82.15-124.64a14.52,14.52,0,0,1,26.13,4.16l34,124.65a14.51,14.51,0,0,1-14,18.34H591.46A14.52,14.52,0,0,1,579.34,644.21Z"/></g></svg>