<svg xmlns="http://www.w3.org/2000/svg" viewBox="0 0 1080 1080"><defs><style>.cls-1{fill:#bbb8ff;}.cls-2{fill:#4700b7;}.cls-3{fill:#8761ff;}</style></defs><g id="LOGO"><path class="cls-1" d="M208.46,456.58,205.4,662.33C203.72,775,295.83,866.59,408.48,864.28l299.1-6.12c113.22-2.32,201.7-98.5,194.57-211.52l-13.6-215.52C881.67,322,788,238.79,678.74,244.93L396.3,260.82A199,199,0,0,0,208.46,456.58Z"/><path class="cls-2" d="M395.05,406.07a13.9,13.9,0,0,0-13.12,11.76c-1.63,10.52-4.45,27.38-6.48,39.42a12.35,12.35,0,0,0,12.17,14.42c52.5.09,231.4.35,287.57-.41a13.91,13.91,0,0,0,13.42-16.79l-10.5-49.66a13.91,13.91,0,0,0-14.25-11Z"/><path class="cls-3" d="M373.37,491.27,378,735.83a19.31,19.31,0,0,0,20.44,18.91L698.28,737.1a19.3,19.3,0,0,0,18.07-21.17L693.84,488.47a19.31,19.31,0,0,0-19.25-17.41l-282,.55A19.3,19.3,0,0,0,373.37,491.27Z"/><path class="cls-2" d="M488.49,657.21c15.13,0,28.22-9.86,28.22-24.31,0-16.32-13.94-23.63-32-23.63h0a2.18,2.18,0,0,1-2.14-2.52l1.51-9.26a2.17,2.17,0,0,1,2.14-1.82h7.16c14.79,0,29.07-5.27,29.07-20.74,0-13.43-12.41-19.55-24.14-19.55-14.16,0-24,8.11-26.86,20.45a2.14,2.14,0,0,1-2.1,1.65H457.85A2.17,2.17,0,0,1,455.7,575c3.38-19.36,21.17-32.49,43.5-32.49,16.49,0,39.95,5.78,39.95,29.92,0,13.85-7.35,23.74-20.11,29.45a2.16,2.16,0,0,0-.19,3.88c9.23,5,14.35,13.25,14.35,25.49,0,23.12-19,38.93-45.22,38.93-23.8,0-41.82-12.7-42.79-38.88a2.17,2.17,0,0,1,2.17-2.26h11.48a2.16,2.16,0,0,1,2.16,2C461.76,647,471.53,657.21,488.49,657.21Z"/><path class="cls-2" d="M579.85,661.42,597.65,578a5.37,5.37,0,0,0-5.25-6.5H577.09a5.37,5.37,0,0,1-5.25-6.48h0a5.35,5.35,0,0,1,4.92-4.25c14.36-.86,22.86-3.43,31.25-14.06a5.41,5.41,0,0,1,4.24-2.07h1.4a5.38,5.38,0,0,1,5.26,6.49L595,663.66a5.38,5.38,0,0,1-5.26,4.26h-4.64A5.38,5.38,0,0,1,579.85,661.42Z"/></g></svg>