<svg xmlns="http://www.w3.org/2000/svg" viewBox="0 0 1080 1080"><defs><style>.cls-1{fill:#bbb8ff;}.cls-2{fill:#6900ff;}.cls-3{fill:#fff;}</style></defs><g id="LOGO"><path class="cls-1" d="M737.44,685.2l-61.69-61.66L628,575.76a27.73,27.73,0,0,1,0-39.1,27.5,27.5,0,0,1,39,0L694.25,564a39.76,39.76,0,0,0,56.33,0,40,40,0,0,0,0-56.41l-4.48-4.52-47.68-47.81a6.35,6.35,0,0,0-1-.78l-64.84-64.84.08-.09L435.28,192.1,348,104.77a39.76,39.76,0,0,0-50.2,5,40,40,0,0,0,0,56.43l3,3a27.72,27.72,0,0,1,0,39.1,27.48,27.48,0,0,1-38.62.32l-51-51.25A39.5,39.5,0,0,0,183,145.73h0a39.5,39.5,0,0,0-28.17,11.7,40,40,0,0,0,0,56.43l61.69,61.66,47.78,47.78a27.73,27.73,0,0,1,0,39.1,27.5,27.5,0,0,1-39,0L198,335.07a39.75,39.75,0,0,0-56.33,0,40,40,0,0,0,0,56.41l4.48,4.53,47.68,47.8a6.24,6.24,0,0,0,1,.78l64.85,64.85-.09.08L457,707l87.33,87.33a39.8,39.8,0,0,0,50.2-5,40,40,0,0,0,0-56.43l-3-3a27.72,27.72,0,0,1,0-39.1,27.48,27.48,0,0,1,38.62-.32l51,51.25a39.51,39.51,0,0,0,28.16,11.69h0a39.51,39.51,0,0,0,28.16-11.69A40,40,0,0,0,737.44,685.2Z"/><path class="cls-1" d="M929.44,877.2l-61.69-61.66L820,767.76a27.73,27.73,0,0,1,0-39.1,27.5,27.5,0,0,1,39,0L886.25,756a39.76,39.76,0,0,0,56.33,0,40,40,0,0,0,0-56.41l-4.48-4.52-47.68-47.81a6.35,6.35,0,0,0-1-.78l-64.84-64.84.08-.09L627.28,384.1,540,296.77a39.76,39.76,0,0,0-50.2,5,40,40,0,0,0,0,56.43l3,3a27.72,27.72,0,0,1,0,39.1,27.48,27.48,0,0,1-38.62.32l-51-51.25A39.5,39.5,0,0,0,375,337.73h0a39.5,39.5,0,0,0-28.17,11.7,40,40,0,0,0,0,56.43l61.69,61.66,47.78,47.78a27.73,27.73,0,0,1,0,39.1,27.5,27.5,0,0,1-39,0L390,527.07a39.75,39.75,0,0,0-56.33,0,40,40,0,0,0,0,56.41l4.48,4.53,47.68,47.8a6.24,6.24,0,0,0,.95.78l64.85,64.85-.09.08L649,899l87.33,87.33a39.8,39.8,0,0,0,50.2-5,40,40,0,0,0,0-56.43l-3-3a27.72,27.72,0,0,1,0-39.1,27.48,27.48,0,0,1,38.62-.32l51,51.25a39.51,39.51,0,0,0,28.16,11.69h0a39.51,39.51,0,0,0,28.16-11.69A40,40,0,0,0,929.44,877.2Z"/><path class="cls-1" d="M929.44,685.2l-61.69-61.66L820,575.76a27.73,27.73,0,0,1,0-39.1,27.5,27.5,0,0,1,39,0L886.25,564a39.76,39.76,0,0,0,56.33,0,40,40,0,0,0,0-56.41l-4.48-4.52-47.68-47.81a6.35,6.35,0,0,0-1-.78l-64.84-64.84.08-.09L627.28,192.1,540,104.77a39.76,39.76,0,0,0-50.2,5,40,40,0,0,0,0,56.43l3,3a27.72,27.72,0,0,1,0,39.1,27.48,27.48,0,0,1-38.62.32l-51-51.25A39.5,39.5,0,0,0,375,145.73h0a39.5,39.5,0,0,0-28.17,11.7,40,40,0,0,0,0,56.43l61.69,61.66,47.78,47.78a27.73,27.73,0,0,1,0,39.1,27.5,27.5,0,0,1-39,0L390,335.07a39.75,39.75,0,0,0-56.33,0,40,40,0,0,0,0,56.41l4.48,4.53,47.68,47.8a6.24,6.24,0,0,0,.95.78l64.85,64.85-.09.08L649,707l87.33,87.33a39.8,39.8,0,0,0,50.2-5,40,40,0,0,0,0-56.43l-3-3a27.72,27.72,0,0,1,0-39.1,27.48,27.48,0,0,1,38.62-.32l51,51.25a39.51,39.51,0,0,0,28.16,11.69h0a39.51,39.51,0,0,0,28.16-11.69A40,40,0,0,0,929.44,685.2Z"/><path class="cls-1" d="M737.44,877.2l-61.69-61.66L628,767.76a27.73,27.73,0,0,1,0-39.1,27.5,27.5,0,0,1,39,0L694.25,756a39.76,39.76,0,0,0,56.33,0,40,40,0,0,0,0-56.41l-4.48-4.52-47.68-47.81a6.35,6.35,0,0,0-1-.78l-64.84-64.84.08-.09L435.28,384.1,348,296.77a39.76,39.76,0,0,0-50.2,5,40,40,0,0,0,0,56.43l3,3a27.72,27.72,0,0,1,0,39.1,27.48,27.48,0,0,1-38.62.32l-51-51.25A39.5,39.5,0,0,0,183,337.73h0a39.5,39.5,0,0,0-28.17,11.7,40,40,0,0,0,0,56.43l61.69,61.66,47.78,47.78a27.73,27.73,0,0,1,0,39.1,27.5,27.5,0,0,1-39,0L198,527.07a39.75,39.75,0,0,0-56.33,0,40,40,0,0,0,0,56.41l4.48,4.53,47.68,47.8a6.24,6.24,0,0,0,1,.78l64.85,64.85-.09.08L457,899l87.33,87.33a39.8,39.8,0,0,0,50.2-5,40,40,0,0,0,0-56.43l-3-3a27.72,27.72,0,0,1,0-39.1,27.48,27.48,0,0,1,38.62-.32l51,51.25a39.51,39.51,0,0,0,28.16,11.69h0a39.51,39.51,0,0,0,28.16-11.69A40,40,0,0,0,737.44,877.2Z"/><path class="cls-2" d="M536.58,743.28c-112.08,0-203.27-91.19-203.27-203.28S424.5,336.72,536.58,336.72,739.86,427.91,739.86,540,648.67,743.28,536.58,743.28Zm0-386.56c-101.06,0-183.27,82.22-183.27,183.28s82.21,183.28,183.27,183.28S719.86,641.06,719.86,540,637.64,356.72,536.58,356.72Z"/><circle class="cls-3" cx="536.58" cy="540" r="183.28"/></g></svg>