<svg xmlns="http://www.w3.org/2000/svg" viewBox="0 0 1080 1080"><defs><style>.cls-1{fill:#bbb8ff;}.cls-2{fill:#6900ff;}.cls-3{fill:#fff;}.cls-4{fill:none;stroke:#6900ff;stroke-linecap:round;stroke-linejoin:round;stroke-width:40px;}</style></defs><g id="LOGO"><circle class="cls-1" cx="540" cy="555.17" r="389.83"/><path class="cls-2" d="M540,955.17a404.09,404.09,0,1,1,157.78-31.86A402.83,402.83,0,0,1,540,955.17Zm0-770.67c-201.45,0-365.33,163.89-365.33,365.33S338.55,915.17,540,915.17,905.33,751.28,905.33,549.83,741.45,184.5,540,184.5Z"/><circle class="cls-3" cx="540" cy="342.55" r="66.84"/><path class="cls-2" d="M540,438.08a92.36,92.36,0,1,1,92.36-92.36A92.47,92.47,0,0,1,540,438.08Zm0-144.72a52.36,52.36,0,1,0,52.36,52.36A52.41,52.41,0,0,0,540,293.36Z"/><path class="cls-4" d="M447.64,541.72c40,0,73.3-19.44,88.42-60.33,0,61.8-48,237.36-48,275.06,0,27.61,21.45,55,61.35,55,51.55,0,65.67-34.5,65.67-58.5"/></g></svg>