<svg xmlns="http://www.w3.org/2000/svg" viewBox="0 0 1080 1080"><defs><style>.cls-1{fill:#bbb8ff;}.cls-2{fill:#260063;}.cls-3{fill:#4700b7;}.cls-4{fill:#6900ff;}.cls-5{fill:#8761ff;}</style></defs><g id="LOGO"><path class="cls-1" d="M212.45,229.41c54.93,26,103-198,246.27-92.72,53.72,39.48,130.36-2.47,180.41,11.81,83.4,23.81,134.54,85.62,187.86,74.21,235.9-50.52,106.3,96.61,172.56,189.9,157,221.08-33.65,328.84-35.19,386.42-1.8,67.64-73,107.21-161.89,107.21-152.25,0-102.8,108.9-289.4,108.9-87,0-56.33-60.31-237.8-60.31-91.47,0-50.16-129-150.77-129C31.2,825.82,146.82,753.18,48,675c-101.73-80.4,45.24-190.18,35.18-268.1C71,312.89,53,286.37,91.52,242.81,119.82,210.81,164.7,206.79,212.45,229.41Z"/><path class="cls-2" d="M148.38,346.69l744.8-14.64a39.33,39.33,0,0,1,40.1,40.13L926,727.58a39.32,39.32,0,0,1-39.33,38.53H161.22a39.33,39.33,0,0,1-39.31-37.94L109.84,387.41A39.34,39.34,0,0,1,148.38,346.69Z"/><path class="cls-3" d="M360.81,759.14h395.6a13.58,13.58,0,0,1,13.32,16.22l-2.53,12.73A13.58,13.58,0,0,1,753.88,799H337.56a13.59,13.59,0,0,1-12.16-7.54l-6.32-12.73a13.58,13.58,0,0,1,12.16-19.62Z"/><path class="cls-3" d="M357,755.67l-9.27-306a21.62,21.62,0,0,1,21.11-22.26l47.26-1.07a21.62,21.62,0,0,1,22.09,22.39l-11.12,307a21.61,21.61,0,0,1-21.59,20.83H378.64A21.61,21.61,0,0,1,357,755.67Z"/><path class="cls-3" d="M506.57,756.38,487.08,448.31a21.61,21.61,0,0,1,21.09-23l66.95-1.5a21.61,21.61,0,0,1,22,23L576.81,756.44a21.61,21.61,0,0,1-21.57,20.19h-27.1A21.61,21.61,0,0,1,506.57,756.38Z"/><path class="cls-3" d="M648.67,756.51,628.59,444.44c-.79-12.4,7.93-23,19.11-23.21l60.8-1.13c11.15-.21,20.19,10,19.79,22.43l-10,313.21c-.37,11.65-9,20.89-19.47,20.89H668.11C657.89,776.63,649.4,767.85,648.67,756.51Z"/><path class="cls-4" d="M332.39,427.12l399.84-6.69c13.72-.23,17.6-18.91,5.11-24.59L516.51,295.46a12.89,12.89,0,0,0-11.93.68l-179,107.07C314.26,410,319.22,427.34,332.39,427.12Z"/><path class="cls-4" d="M350.17,755.67l-9.27-306A21.62,21.62,0,0,1,362,427.43l47.26-1.07a21.61,21.61,0,0,1,22.09,22.39l-11.11,307a21.62,21.62,0,0,1-21.6,20.83H371.78A21.62,21.62,0,0,1,350.17,755.67Z"/><path class="cls-4" d="M496.53,756.38,477.05,448.31a21.6,21.6,0,0,1,21.08-23l67-1.5a21.61,21.61,0,0,1,22,23L566.77,756.44a21.61,21.61,0,0,1-21.57,20.19H518.1A21.61,21.61,0,0,1,496.53,756.38Z"/><path class="cls-4" d="M642.33,756.51,622.25,444.44c-.79-12.4,7.93-23,19.11-23.21l60.8-1.13c11.15-.21,20.19,10,19.79,22.43l-10,313.21c-.37,11.65-9,20.89-19.47,20.89H661.77C651.55,776.63,643.06,767.85,642.33,756.51Z"/><path class="cls-5" d="M350.87,447.8l9.33,310.74a4,4,0,0,0,3.95,3.83h2.67a4,4,0,0,0,3.94-4.07L361.1,445.58a4,4,0,0,0-6.49-2.89l-2.34,2A3.94,3.94,0,0,0,350.87,447.8Z"/><path class="cls-5" d="M378.63,437.44h7.92a3.94,3.94,0,0,1,3.95,3.88l5.15,320.21a3.94,3.94,0,0,1-3.94,4h-4.83a3.94,3.94,0,0,1-3.94-3.85l-8.25-320.21A3.94,3.94,0,0,1,378.63,437.44Z"/><path class="cls-5" d="M412.61,440.66l1.65.91a4,4,0,0,1,2,3.51L411.6,750.66a3.92,3.92,0,0,1-1.91,3.32h0a3.94,3.94,0,0,1-6-3.42l3-306.49A3.94,3.94,0,0,1,412.61,440.66Z"/><path class="cls-5" d="M704.6,446.85,705,757.73a4,4,0,0,1-3.82,3.95l-2.67.08a4,4,0,0,1-4.07-3.94L694.31,445a3.94,3.94,0,0,1,6.39-3.1l2.4,1.9A3.94,3.94,0,0,1,704.6,446.85Z"/><path class="cls-5" d="M676.53,437.36l-7.92.25a4,4,0,0,0-3.82,4l4.91,320.21a4,4,0,0,0,4.07,3.88l4.83-.15a4,4,0,0,0,3.82-4l-1.83-320.31A3.94,3.94,0,0,0,676.53,437.36Z"/><path class="cls-5" d="M642.67,441.65l-1.62,1a3.94,3.94,0,0,0-1.92,3.57l14.29,305.28a3.94,3.94,0,0,0,2,3.26h0a3.94,3.94,0,0,0,5.86-3.61L648.63,444.87A3.94,3.94,0,0,0,642.67,441.65Z"/><path class="cls-5" d="M492.34,446.43l14.88,313.62c.1,2.15,2.34,3.84,5.06,3.82l3.41,0c2.84,0,5.1-1.9,5-4.15l-15.3-315.61c-.16-3.33-5.1-5-8.3-2.84l-3,2A3.7,3.7,0,0,0,492.34,446.43Z"/><path class="cls-5" d="M523.75,434.84h10.1c2.75,0,5,1.75,5,3.92l6.58,323.31c0,2.22-2.22,4-5,4h-6.15c-2.73,0-5-1.72-5-3.88l-10.52-323.3C518.64,436.69,520.92,434.84,523.75,434.84Z"/><path class="cls-5" d="M567.44,442.37l2.09,1a3.94,3.94,0,0,1,2.53,3.58L560.52,755.3a3.92,3.92,0,0,1-2.5,3.31h0c-3.41,1.54-7.66-.48-7.56-3.59l9.44-309.34C560,442.66,564.13,440.85,567.44,442.37Z"/><circle class="cls-3" cx="518.98" cy="368.68" r="34.46"/><path class="cls-3" d="M339.65,407.06l128.2-75.28a3,3,0,0,1,3.3,4.94L371.56,412a3,3,0,0,1-1.8.61H341.15A3,3,0,0,1,339.65,407.06Z"/><circle class="cls-5" cx="516" cy="365.7" r="34.46"/><path class="cls-3" d="M571.14,335.9l125.35,55.65a4.5,4.5,0,0,1-1.82,8.61H646a4.51,4.51,0,0,1-2.65-.86l-76.7-55.65C562.31,340.48,566.21,333.71,571.14,335.9Z"/><path class="cls-1" d="M540.22,369.9a3,3,0,0,1-3-3,21.55,21.55,0,0,0-21.52-21.52,3,3,0,0,1,0-6,27.5,27.5,0,0,1,27.46,27.47A3,3,0,0,1,540.22,369.9Z"/><path class="cls-1" d="M516.27,393.85a27.5,27.5,0,0,1-27.47-27.46,3,3,0,1,1,5.95,0,21.55,21.55,0,0,0,21.52,21.52,3,3,0,1,1,0,5.94Z"/><path class="cls-3" d="M133,413.25,152.31,696.5a15.19,15.19,0,0,0,15.16,14.16H177a15.2,15.2,0,0,0,15.2-15.19V406a15.19,15.19,0,0,0-18.42-14.84L145,397.37A15.2,15.2,0,0,0,133,413.25Z"/><path class="cls-3" d="M233.06,681.75l-4-272.49a15.19,15.19,0,0,1,15.19-15.41h36.57A15.19,15.19,0,0,1,296,409.67L285,678.41a15.2,15.2,0,0,1-12.58,14.34l-21.53,3.74A15.19,15.19,0,0,1,233.06,681.75Z"/><path class="cls-3" d="M784.82,371l33.35-2.14a15.19,15.19,0,0,1,16.16,15.59l-9.12,324.77A15.19,15.19,0,0,1,810,724H799.34a15.19,15.19,0,0,1-15.18-14.55L770.62,386.82A15.18,15.18,0,0,1,784.82,371Z"/><path class="cls-3" d="M893,361.71h0a14.78,14.78,0,0,1,15.66,15.34L895.4,709.81A14.77,14.77,0,0,1,880.63,724h-1a14.77,14.77,0,0,1-14.78-14.78V391.62A30,30,0,0,1,893,361.71Z"/></g></svg>