<svg xmlns="http://www.w3.org/2000/svg" viewBox="0 0 1080 1080"><defs><style>.cls-1{fill:#bbb8ff;}.cls-2{fill:#4700b7;}.cls-3{fill:#8761ff;}.cls-4{fill:none;stroke:#bbb8ff;stroke-linecap:round;stroke-linejoin:round;stroke-width:10px;}</style></defs><g id="LOGO"><path class="cls-1" d="M158.28,490.83l96.18-39.34a10.28,10.28,0,0,1,3.94-.77H910.07c9,0,12.6,9.93,5.26,14.35L850,504.41a10.19,10.19,0,0,1-5.26,1.42H162.22C152.44,505.83,149.45,494.44,158.28,490.83Z"/><path class="cls-2" d="M884.07,804l42.36-45A27.85,27.85,0,0,0,933.88,740V477.76c0-21.84-23.18-34.64-40-22.11l-42.37,31.49a27.5,27.5,0,0,0-10.84,22.11V784.9C840.63,809,868,821,884.07,804Z"/><rect class="cls-3" x="147.26" y="481.83" width="740" height="334.52" rx="36.44"/><circle class="cls-2" cx="302.59" cy="649.09" r="92.67"/><circle class="cls-2" cx="717.26" cy="649.09" r="92.67"/><circle class="cls-1" cx="302.59" cy="649.09" r="60.67"/><circle class="cls-1" cx="717.26" cy="649.09" r="60.67"/><line class="cls-4" x1="820.63" y1="464.62" x2="953.88" y2="115.95"/><line class="cls-4" x1="261.14" y1="469.95" x2="158.7" y2="110.62"/></g></svg>