<?xml version="1.0" encoding="utf-8"?>
<!-- Generator: Adobe Illustrator 25.2.0, SVG Export Plug-In . SVG Version: 6.00 Build 0)  -->
<svg version="1.1" xmlns="http://www.w3.org/2000/svg" xmlns:xlink="http://www.w3.org/1999/xlink" x="0px" y="0px"
	 viewBox="0 0 1080 1080" style="enable-background:new 0 0 1080 1080;" xml:space="preserve">
<style type="text/css">
	.st0{fill:#FF0049;}
	.st1{fill:#FF5072;}
	.st2{fill:#FF85A2;}
	.st3{fill:#A5003F;}
	.st4{fill:#D30046;}
	.st5{fill:none;stroke:#A5003F;stroke-width:20;stroke-linecap:round;stroke-miterlimit:10;}
	.st6{fill:none;stroke:#FFFFFF;stroke-width:15;stroke-linecap:round;stroke-miterlimit:10;}
	.st7{fill:none;stroke:#FF0049;stroke-width:70;stroke-linecap:round;stroke-miterlimit:10;}
	.st8{fill:none;stroke:#FFFFFF;stroke-width:10;stroke-linecap:round;stroke-miterlimit:10;}
	.st9{fill:#FFFFFF;}
</style>
<g id="COULEURS">
</g>
<g id="Jauge__x2B_accueil">
</g>
<g id="images">
</g>
<g id="TEXTE">
</g>
<g id="jauge">
</g>
<g id="picto_accueil">
</g>
<g id="FOND">
</g>
<g id="PICTOS">
</g>
<g id="bulles_Source__x2B_dico">
</g>
<g id="règles">
</g>
<g id="LOGO">
	<path class="st2" d="M850.3,188.85l-89.36,0.03l-69.23-0.01c-15.6-0.02-28.31-12.73-28.33-28.33c-0.01-7.55,2.92-14.64,8.25-19.97
		c5.33-5.33,12.42-8.26,19.98-8.25l39.59,0.01c10.91,0.01,21.17-4.22,28.88-11.93c7.71-7.71,11.95-17.96,11.93-28.88
		c-0.03-22.51-18.37-40.85-40.86-40.88l-6.52-0.03l-69.18-0.09c-0.43,0-0.85,0.04-1.25,0.12h-93.96v-0.12h-286.1H147.6
		c0,0-0.01,0-0.01,0c-7.83,1.55-15.02,5.38-20.78,11.14c-7.71,7.71-11.95,17.96-11.93,28.88c0.03,22.51,18.37,40.85,40.88,40.88
		l3.67,0c15.67,0.02,28.87,12.44,29.01,28.11c0.07,7.63-2.87,14.81-8.25,20.2c-5.22,5.22-12.13,8.13-19.5,8.24l-74.1-0.16
		c-10.91-0.01-21.17,4.22-28.87,11.93c0,0,0,0,0,0c-7.71,7.71-11.95,17.97-11.93,28.88c0.03,22.51,18.37,40.85,40.89,40.88
		l89.36-0.03l69.23,0.01c15.6,0.02,28.31,12.73,28.33,28.33c0.01,7.55-2.92,14.64-8.25,19.97c-5.33,5.33-12.42,8.26-19.98,8.25
		l-39.6-0.01c-10.91-0.02-21.17,4.22-28.88,11.93c-7.71,7.71-11.95,17.96-11.93,28.88c0.03,22.51,18.37,40.85,40.86,40.88l6.52,0.03
		l69.18,0.09c0.43,0,0.85-0.04,1.25-0.12h2.13c11.29,0,20.44,9.15,20.44,20.44v0c0,23.01,18.83,42.3,41.84,41.84
		c22.26-0.44,40.16-18.63,40.16-40.99v0c0-11.69,9.48-21.16,21.16-21.16h254.32h126.54c0,0,0.01,0,0.01,0
		c7.83-1.55,15.02-5.38,20.78-11.14c7.71-7.71,11.95-17.96,11.93-28.88c-0.03-22.51-18.37-40.85-40.88-40.88l-4.36-0.01
		c-15.6-0.02-28.31-12.73-28.33-28.33c-0.01-7.55,2.92-14.64,8.25-19.97c5.22-5.22,12.13-8.14,19.5-8.24l74.1,0.16
		c10.91,0.01,21.17-4.22,28.87-11.93c0,0,0,0,0,0c7.71-7.71,11.95-17.97,11.93-28.88C891.16,207.22,872.82,188.88,850.3,188.85z"/>
	<path class="st3" d="M199.78,912.2l89.36-0.03l69.23,0.01c15.6,0.02,28.31,12.73,28.33,28.33c0.01,7.55-2.92,14.64-8.25,19.97
		c-5.33,5.33-12.42,8.26-19.98,8.25l-39.59-0.01c-10.91-0.01-21.17,4.22-28.88,11.93c-7.71,7.71-11.95,17.96-11.93,28.88
		c0.03,22.51,18.37,40.85,40.86,40.88l6.52,0.03l69.18,0.09c0.43,0,0.85-0.04,1.25-0.12h93.96v0.12h286.1h126.54c0,0,0.01,0,0.01,0
		c7.83-1.55,15.02-5.38,20.78-11.14c7.71-7.71,11.95-17.96,11.93-28.88c-0.03-22.51-18.37-40.85-40.88-40.88l-3.67,0
		c-15.67-0.02-28.87-12.44-29.01-28.11c-0.07-7.63,2.87-14.81,8.25-20.2c5.22-5.22,12.13-8.13,19.5-8.24l74.1,0.16
		c10.91,0.01,21.17-4.22,28.87-11.93c0,0,0,0,0,0c7.71-7.71,11.95-17.97,11.93-28.88c-0.03-22.51-18.37-40.85-40.89-40.88
		l-89.36,0.03l-69.23-0.01c-15.6-0.02-28.31-12.73-28.33-28.33c-0.01-7.55,2.92-14.64,8.25-19.97c5.33-5.33,12.42-8.26,19.98-8.25
		l39.6,0.01c10.91,0.02,21.17-4.22,28.88-11.93c7.71-7.71,11.95-17.96,11.93-28.88c-0.03-22.51-18.37-40.85-40.86-40.88l-6.52-0.03
		l-69.18-0.09c-0.43,0-0.85,0.04-1.25,0.12h-2.13c-11.29,0-20.44-9.15-20.44-20.44l0,0c0-23.01-18.83-42.3-41.84-41.84
		c-22.26,0.44-40.16,18.63-40.16,40.99v0c0,11.69-9.48,21.16-21.16,21.16H387.23H260.69c0,0-0.01,0-0.01,0
		c-7.83,1.55-15.02,5.38-20.78,11.14c-7.71,7.71-11.95,17.96-11.93,28.88c0.03,22.51,18.37,40.85,40.88,40.88l4.36,0.01
		c15.6,0.02,28.31,12.73,28.33,28.33c0.01,7.55-2.92,14.64-8.25,19.97c-5.22,5.22-12.13,8.14-19.5,8.24l-74.1-0.16
		c-10.91-0.01-21.17,4.22-28.87,11.93c0,0,0,0,0,0c-7.71,7.71-11.95,17.97-11.93,28.88C158.92,893.84,177.26,912.18,199.78,912.2z"
		/>
	<g>
		<path class="st3" d="M386.49,253.13c-2.02,11.43,15.46,28.82,21.79,35.85c6.33,7.03,25.66,20.03,30.22,27.41
			c4.57,7.38,21.79,25.3,27.41,27.41c5.62,2.11,49.2,5.27,55.53,2.11c6.33-3.16,14.76-11.95,16.17-15.81
			c1.41-3.87,2.39-22.91,2.81-30.58c1.09-19.77,1.3-55.9,2.84-74.47c1.46-17.63,8.04-59.85,7.35-70.37
			c-0.3-4.59-10.6-7.49-17.6-5.31c-7,2.19-10.97,7.81-11.01,10.97s-1.26,48.85-1.26,48.85s-1.31-82.15-10.18-89.07
			c-2.81-2.19-13.67,2.99-15.42,7.2c-1.76,4.22-4.57,20.44-3.92,27.35c1.1,11.64,8.08,46.08,8.08,46.08s-15.06-78.38-36.61-89.19
			c-4.48-2.24-14.7,3.79-14.35,13.98c0.35,10.19,16.87,38.31,16.87,44.98c0,6.68,1.05,42.52,1.05,42.52s-46.67-0.88-60.19,5.89
			c-5.79,2.9-16.21,12.79-17.48,19.14c-0.56,2.79,2.37,6.58,8.08,8.01s14.76-2.28,16.87-3.87c4.22-3.16,17.57-16.52,19.68-16.52
			s11.6-1.76,15.11,1.76c3.51,3.51,11.25,6.48,11.6,10.62s2.11,22.41,0,25.23s-15.05,12.92-21.14,12.92s-19.43-16.17-25.61-21
			c-6.18-4.83-9.14-9.14-16.52-9.14S387.03,250.08,386.49,253.13z"/>
		<path class="st0" d="M539.38,301.52c-1.87-10.46-0.32-60.14,1.25-79.44c1.37-16.91,8.47-64.49,7.86-67.41
			c-1.48-7.08-9.66-6.52-14.04-5.58c-5.84,1.26-7.03,12.65-7.03,16.52s-3.87,37.6-6.68,43.58c0.35-10.19,2.81-78.37,0-83.64
			c-2.81-5.27-16.52-7.73-19.68-2.46c-3.16,5.27-5.62,24.95-4.57,29.87s3.87,42.88,2.81,47.8c-2.46-12.3-5.27-39.45-8.08-46.08
			c-2.81-6.63-15.81-38.61-23.9-42.48c-8.08-3.87-12.65,7.38-12.3,12.65s-1.05,9.14,2.46,16.52s13,23.9,13,30.93
			c0,7.03,4.57,37.6,1.41,38.66s-8.08-11.6-26.36-13.71s-14.06-1.41-18.98,1.05c-4.92,2.46-37.27,32.92-37.96,39.79
			c-0.62,6.24,8.43,7.65,15.11,4.49c6.68-3.16,25.3-20.03,29.87-20.03c4.57,0,16.87-0.09,19.33,2.94
			c2.46,3.03,12.65,9.36,12.65,15.33c0,5.97,0.7,22.49-2.46,24.95s-14.76,10.54-26.36,10.54c-11.6,0-14.76-12.65-23.55-21.09
			c-8.79-8.43-13.35-7.03-17.57-6.33s-8.79,2.46-7.03,5.27c1.76,2.81,15.81,24.95,20.03,29.52c4.22,4.57,20.73,13.71,28.12,21.09
			c7.38,7.38,19.89,26.36,32.79,27.06c12.9,0.7,50.15,2.46,57.18-2.11S540.56,308.11,539.38,301.52z"/>
		<path class="st1" d="M544.29,167.02c-4.66,2.49-15.55-8.45-10.19-14.41c6.26-6.95,10.68-2.75,12.79-1.31
			C549.47,153.07,549.56,164.21,544.29,167.02z"/>
		<path class="st1" d="M512.66,146.64c-6.64,0.71-13.63-23.19-7.34-26.18c6.29-2.99,13.6,1.47,15.43,5.09
			C523.28,130.59,522.5,145.58,512.66,146.64z"/>
		<path class="st1" d="M473.65,138.26c8.65-3.71-0.63-22.52-6.33-26.06c-2.38-1.48-8.41-1.13-10.28,4.49
			C455.17,122.3,462.05,143.23,473.65,138.26z"/>
	</g>
	<g>
		<path class="st2" d="M492.98,897.85c0.67,20.34,5.94,34.34,11.45,40.7c5.51,6.36,20.77,14.84,36.46,14.41
			c15.69-0.42,24.59,10.17,34.34,11.02c9.75,0.85,44.51,4.66,56.38,0c11.87-4.66,14.84-13.14,14.84-19.08
			c10.17-2.97,13.14-9.33,13.99-15.26c0.85-5.94-2.54-14.41-4.66-15.69c6.36-3.39,11.87-9.75,11.87-19.08s-7.21-18.23-8.48-18.65
			c8.05-5.09,11.45-13.99,11.02-23.32c-0.42-9.33-13.14-15.26-16.53-16.11s-57.88,0-66.67,0c8.17-12.29,10.29-36.46,10.29-44.51
			c0-8.05-1.27-27.13-5.94-30.52c-4.66-3.39-13.14-8.05-19.93-8.05c-5.51,5.09-8.05,19.5-9.75,25.86
			c-1.7,6.36-9.73,33.27-16.53,42.39c-6.79,9.11-28.83,23.32-34.76,29.25C504.43,857.16,492.14,871.99,492.98,897.85z"/>
		<path class="st0" d="M498.58,868.25c-0.09,9.26-2.03,29.61,0,37.24c2.03,7.63,9.67,26.71,19.84,31.8
			c10.17,5.09,18.61,2.97,26.28,10.17s15.26,6.78,22.47,9.75s36.04,8.9,47.06,7.21c11.02-1.7,8.05,0.85,11.02-1.7
			s14.41-11.02,13.57-16.96c5.51-1.7,13.14-8.05,14.84-14.84c1.7-6.78-1.7-16.11-4.24-16.96c4.66-2.12,11.45-10.6,11.45-18.65
			s-2.54-20.77-8.9-21.2c5.51-2.97,7.63-12.59,6.78-17.95c-0.85-5.37-3.82-15.96-14.41-16.81c-10.6-0.85-57.35-2.54-57.35-2.54
			s-7.09-1.27-14.72,0c9.75-3.82,24.14-48.88,23.73-61.96c-0.41-13.08-9-15.9-9-15.9l-15.57-5.23l-5,8.58
			c0,0-11.71,50.31-21.29,59.68s-25.01,21.62-34.76,29.25C500.61,858.85,498.58,868.25,498.58,868.25z"/>
		<path class="st4" d="M561.39,781.62c0,0,10.44-3.32,14.26-10.95c3.82-7.63,3.61-14.32,3.61-14.32l-7.85-2.64c0,0-2.79,4.01-5,8.58
			C564.21,766.86,561.39,781.62,561.39,781.62z"/>
	</g>
	<path class="st2" d="M316.39,649.68c22.19,11.5,62.05,15.8,77.02-4.21c36.72-49.09,42.24-162.3-33.12-162.3
		C226.48,483.17,242.41,611.35,316.39,649.68z"/>
	<g>
		<circle class="st3" cx="325.81" cy="541.13" r="11.59"/>
	</g>
	<g>
		<circle class="st3" cx="410.27" cy="541.13" r="11.59"/>
	</g>
	<g>
		<path class="st3" d="M348.56,553.75c-1.72,0-3.11-1.39-3.11-3.11c0-10.83-8.81-19.65-19.65-19.65c-10.83,0-19.65,8.81-19.65,19.65
			c0,1.72-1.39,3.11-3.11,3.11c-1.72,0-3.11-1.39-3.11-3.11c0-14.26,11.6-25.86,25.86-25.86c14.26,0,25.86,11.6,25.86,25.86
			C351.67,552.36,350.28,553.75,348.56,553.75z"/>
	</g>
	<g>
		<path class="st3" d="M432.01,553.75c-1.72,0-3.11-1.39-3.11-3.11c0-10.83-8.81-19.65-19.65-19.65c-10.83,0-19.65,8.81-19.65,19.65
			c0,1.72-1.39,3.11-3.11,3.11c-1.72,0-3.11-1.39-3.11-3.11c0-14.26,11.6-25.86,25.86-25.86c14.26,0,25.86,11.6,25.86,25.86
			C435.12,552.36,433.73,553.75,432.01,553.75z"/>
	</g>
	<g>
		<path class="st3" d="M356.77,613.24h-8.21c-1.72,0-3.11-1.39-3.11-3.11s1.39-3.11,3.11-3.11h8.21c2.57,0,4.67-2.09,4.67-4.67
			v-38.05c0-1.72,1.39-3.11,3.11-3.11c1.72,0,3.11,1.39,3.11,3.11v38.05C367.65,608.36,362.77,613.24,356.77,613.24z"/>
	</g>
	<path class="st3" d="M724.68,600.9c-22.91,11.87-64.06,16.32-79.52-4.34C607.25,545.88,601.55,429,679.36,429
		C817.5,429,801.06,561.33,724.68,600.9z"/>
	<g>
		<circle class="st2" cx="714.96" cy="488.85" r="11.97"/>
	</g>
	<g>
		<circle class="st2" cx="627.76" cy="488.85" r="11.97"/>
	</g>
	<g>
		<path class="st2" d="M738.45,501.87c-1.77,0-3.21-1.44-3.21-3.21c0-11.18-9.1-20.28-20.28-20.28c-11.18,0-20.28,9.1-20.28,20.28
			c0,1.77-1.44,3.21-3.21,3.21s-3.21-1.44-3.21-3.21c0-14.72,11.98-26.69,26.69-26.69c14.72,0,26.7,11.98,26.7,26.69
			C741.65,500.44,740.22,501.87,738.45,501.87z"/>
	</g>
	<g>
		<path class="st2" d="M652.29,501.87c-1.77,0-3.21-1.44-3.21-3.21c0-11.18-9.1-20.28-20.28-20.28c-11.18,0-20.28,9.1-20.28,20.28
			c0,1.77-1.44,3.21-3.21,3.21c-1.77,0-3.21-1.44-3.21-3.21c0-14.72,11.98-26.69,26.69-26.69c14.72,0,26.7,11.98,26.7,26.69
			C655.5,500.44,654.06,501.87,652.29,501.87z"/>
	</g>
	<g>
		<path class="st2" d="M691.47,563.29H683c-6.19,0-11.23-5.04-11.23-11.23v-39.28c0-1.77,1.44-3.21,3.21-3.21
			c1.77,0,3.21,1.44,3.21,3.21v39.28c0,2.66,2.16,4.82,4.82,4.82h8.47c1.77,0,3.21,1.44,3.21,3.21
			C694.67,561.86,693.24,563.29,691.47,563.29z"/>
	</g>
</g>
</svg>
