<?xml version="1.0" encoding="utf-8"?>
<!-- Generator: Adobe Illustrator 25.2.0, SVG Export Plug-In . SVG Version: 6.00 Build 0)  -->
<svg version="1.1" xmlns="http://www.w3.org/2000/svg" xmlns:xlink="http://www.w3.org/1999/xlink" x="0px" y="0px"
	 viewBox="0 0 1080 1080" style="enable-background:new 0 0 1080 1080;" xml:space="preserve">
<style type="text/css">
	.st0{fill:#FF0049;}
	.st1{fill:#FF5072;}
	.st2{fill:#FF85A2;}
	.st3{fill:#A5003F;}
	.st4{fill:#D30046;}
	.st5{fill:none;stroke:#A5003F;stroke-width:20;stroke-linecap:round;stroke-miterlimit:10;}
	.st6{fill:none;stroke:#FFFFFF;stroke-width:15;stroke-linecap:round;stroke-miterlimit:10;}
	.st7{fill:none;stroke:#FF0049;stroke-width:70;stroke-linecap:round;stroke-miterlimit:10;}
	.st8{fill:none;stroke:#FFFFFF;stroke-width:10;stroke-linecap:round;stroke-miterlimit:10;}
	.st9{fill:#FFFFFF;}
</style>
<g id="COULEURS">
</g>
<g id="Jauge__x2B_accueil">
</g>
<g id="images">
</g>
<g id="TEXTE">
</g>
<g id="jauge">
</g>
<g id="picto_accueil">
</g>
<g id="FOND">
</g>
<g id="PICTOS">
</g>
<g id="bulles_Source__x2B_dico">
</g>
<g id="règles">
</g>
<g id="LOGO">
	<path class="st2" d="M327.97,221.48L172.33,371.06c-25.06,24.08-42.56,54.94-50.38,88.8l-80.2,347.38
		c0,38.96,19.68,75.28,52.31,96.56l151.45,98.75c21.04,13.72,45.97,20.19,71.02,18.43l354.81-24.9
		c42.29-2.97,79.54-28.91,96.99-67.56l55.85-123.72c10.5-23.26,12.99-49.35,7.06-74.18l-46.81-196.2
		c-3.9-16.36-11.33-31.66-21.78-44.84L497.66,155.13L327.97,221.48z"/>
	<path class="st9" d="M427.68,287.78c24.16,0,43.74-19.58,43.74-43.74c0-4.73-0.76-9.28-2.15-13.54l-80.51,33.5
		C396.01,278.11,410.71,287.78,427.68,287.78z"/>
	<path class="st1" d="M529.76,190.7L420.91,54.64c-3.43-4.28-9.36-5.63-14.3-3.23l-94.94,46c-4.33,2.1-6.95,6.63-6.6,11.44
		l1.26,17.09L63.74,415.63c-2.38,2.84-3.28,6.63-2.43,10.24l98.12,416.82c1.49,6.32,7.81,10.23,14.13,8.75l0,0
		c6.32-1.49,10.23-7.81,8.75-14.13L86.89,431.94c-0.85-3.6,0.05-7.4,2.43-10.24L308.8,159.59l8.74,118.92
		c0.59,8,8.83,13.07,16.23,9.99l41.7-17.35l106.89-44.48l42.72-17.78C532.31,205.89,534.64,196.81,529.76,190.7z"/>
	<path class="st1" d="M123.85,865.63h612.48c7.84,0,14.2-6.36,14.2-14.2v0c0-7.84-6.36-14.2-14.2-14.2H123.85
		c-7.84,0-14.2,6.36-14.2,14.2v0C109.65,859.27,116,865.63,123.85,865.63z"/>
	<path class="st4" d="M396.88,639.45c2.59-0.95,6.55,0.81,7.84-1.46c1.13-2-2.14-4.1-2.96-6.33c-3.31-9.02,4.62-19.59-0.46-26.92
		c-20.29-29.28-68.5-23.95-81.53-59.48c-6.59-17.98-1.34-36.17-2.67-53.93c-0.07-0.97-0.74-1.81-1.08-2.74
		c-10.78-29.38,4.31-61.94,33.69-72.72c6.48-2.38,15.43,1.51,19.64-3.48c7.72-9.15,13.45-23.42,7.29-33.16
		c-8.21-12.99-30.44-6.12-35.93-21.09c-6.24-17,2.49-35.84,19.49-42.08c17-6.24,35.84,2.49,42.08,19.49
		c3.26,8.88-7.17,19.37-1.53,26.09c15.22,18.14,47.02,5.1,55.28,27.62c5.8,15.81-10.93,29.29-8.02,44.73
		c2.86,15.18,18.86,26.19,33.92,31.65c17.75,6.43,37.45,3.51,44.01,21.38c6.71,18.28-2.68,38.54-20.96,45.25
		c-3.78,1.39-8.5-0.25-11.46,2.15c-15.18,12.31-31.12,29.33-30.12,49.16c0.42,8.28,12.37,11.42,15.45,19.79
		c2.58,7.02-4.57,18.56,1.9,21.16c5.33,2.14,7.88-8.6,13.68-10.73c14.62-5.36,30.82,2.14,36.19,16.77
		c5.36,14.62-2.14,30.82-16.77,36.19c-14.62,5.36-30.82-2.14-36.19-16.77c-1.49-4.07,2.28-11.11-1.61-12.32
		c-8.99-2.81-12.07,14.87-21.61,18.37c-8.65,3.17-19.6-5.02-25.88,0.8c-8.65,8.02-3.78,23.43-15.17,27.61
		c-12.43,4.56-26.21-1.82-30.77-14.25C378.06,657.78,384.44,644.01,396.88,639.45z"/>
	<path class="st0" d="M738.78,449.79c-1.09-1.09-1.13-3.52-2.59-3.64c-1.28-0.11-1.58,2.05-2.52,2.99
		c-3.81,3.81-11.05,2.27-13.58,6.57c-10.11,17.21,3.96,40.47-11.04,55.46c-7.59,7.59-18.07,9.2-26.79,14.06
		c-0.48,0.27-0.74,0.8-1.14,1.2c-12.4,12.4-32.51,12.4-44.91,0c-2.74-2.74-2.87-8.2-6.39-9.17c-6.47-1.77-15.08-1.32-18.58,4.1
		c-4.67,7.24,4.06,16.92-2.26,23.24c-7.18,7.18-18.81,7.18-25.98,0c-7.18-7.18-7.18-18.81,0-25.98c3.75-3.75,11.54-0.92,13.62-5.37
		c5.64-12.01-8.48-25.1,1.02-34.61c6.67-6.67,17.47-1.34,24.63-6.46c7.04-5.03,8.87-15.75,8.1-24.7
		c-0.91-10.54-7.04-19.87,0.51-27.41c7.72-7.72,20.23-7.72,27.94,0c1.6,1.6,1.87,4.38,3.79,5.32c9.83,4.82,22.24,8.91,32.09,3.73
		c4.11-2.16,2.89-8.98,6.42-12.51c2.96-2.96,10.51-2.05,10.31-5.95c-0.17-3.21-6.23-1.98-8.68-4.43c-6.17-6.17-6.17-16.18,0-22.35
		c6.17-6.17,16.18-6.17,22.35,0c6.17,6.17,6.17,16.18,0,22.35c-1.72,1.72-6.18,1.46-5.89,3.72c0.69,5.23,10.41,2.63,14.43,6.66
		c3.65,3.65,2.07,11.15,6.5,12.97c6.12,2.51,12.8-3.6,17.61,1.21c5.25,5.25,5.25,13.75,0,19
		C752.54,455.04,744.03,455.04,738.78,449.79z"/>
	<path class="st0" d="M869.3,277.33c12.22-16.39,66.13-60.55,59.35-140.76c-0.49-5.81-6.03-9.82-11.71-8.52
		c-68.09,15.61-105.69,80.7-117.82,96.97c-12.74,17.09-50.06,31.13-58.19,42.03c-8.13,10.91,5.05,21.3,13.45,10.03
		c5.98-8.03,17.82-11.98,27.68-10.95c5,0.52,7.4,6.47,4.18,10.33c-7.71,9.25-17.72,26.42-0.27,39.43
		c17.32,12.91,30.84-1.27,37.56-11.29c2.91-4.35,9.5-3.61,11.43,1.26c3.62,9.11,3.13,21.32-2.76,29.22
		c-8.4,11.27,5.32,20.94,13.45,10.03C853.78,334.2,856.56,294.42,869.3,277.33z M835.35,251.79c-8.25-5.2-9.9-16.46-3.47-23.8
		c5.05-5.77,13.72-7.04,20.22-2.95c8.25,5.2,9.9,16.47,3.47,23.8C850.51,254.62,841.84,255.88,835.35,251.79z M858.31,220.99
		c-8.25-5.2-9.9-16.46-3.47-23.8c5.05-5.77,13.73-7.04,20.22-2.95c8.25,5.2,9.9,16.46,3.47,23.8
		C873.47,223.81,864.8,225.08,858.31,220.99z M881.27,190.19c-8.25-5.2-9.9-16.46-3.47-23.8c5.05-5.77,13.73-7.04,20.22-2.95
		c8.25,5.2,9.9,16.46,3.47,23.8C896.43,193.01,887.76,194.27,881.27,190.19z"/>
	<path class="st4" d="M630.31,430.89c1.09,1.09,3.52,1.13,3.64,2.59c0.11,1.28-2.05,1.58-2.99,2.52
		c-3.81,3.81-2.27,11.05-6.57,13.58c-17.21,10.11-40.47-3.96-55.46,11.04c-7.59,7.59-9.2,18.07-14.06,26.79
		c-0.27,0.48-0.8,0.74-1.2,1.14c-12.4,12.4-12.4,32.51,0,44.91c2.74,2.74,8.2,2.87,9.17,6.39c1.77,6.47,1.32,15.08-4.1,18.58
		c-7.24,4.67-16.92-4.06-23.24,2.26c-7.18,7.18-7.18,18.81,0,25.98c7.18,7.18,18.81,7.18,25.98,0c3.75-3.75,0.92-11.54,5.37-13.62
		c12.01-5.64,25.1,8.48,34.61-1.02c6.67-6.67,1.34-17.47,6.46-24.63c5.03-7.04,15.75-8.87,24.7-8.1
		c10.54,0.91,19.87,7.04,27.41-0.51c7.72-7.72,7.72-20.23,0-27.94c-1.6-1.6-4.38-1.87-5.32-3.79c-4.82-9.83-8.91-22.24-3.73-32.09
		c2.16-4.11,8.98-2.89,12.51-6.42c2.96-2.96,2.05-10.51,5.95-10.31c3.21,0.17,1.98,6.23,4.43,8.68c6.17,6.17,16.18,6.17,22.35,0
		c6.17-6.17,6.17-16.18,0-22.35c-6.17-6.17-16.18-6.17-22.35,0c-1.72,1.72-1.46,6.18-3.72,5.89c-5.23-0.69-2.63-10.41-6.66-14.43
		c-3.65-3.65-11.15-2.07-12.97-6.5c-2.51-6.12,3.6-12.8-1.21-17.61c-5.25-5.25-13.75-5.25-19,0
		C625.06,417.14,625.06,425.65,630.31,430.89z"/>
	<path class="st9" d="M600.57,470.06c1.09,1.09,1.13,3.52,2.59,3.64c1.28,0.11,1.58-2.05,2.52-2.99c3.81-3.81,11.05-2.27,13.58-6.57
		c10.11-17.21-3.96-40.47,11.04-55.46c7.59-7.59,18.07-9.2,26.79-14.06c0.48-0.27,0.74-0.8,1.14-1.2c12.4-12.4,32.51-12.4,44.91,0
		c2.74,2.74,2.87,8.2,6.39,9.17c6.47,1.77,15.08,1.32,18.58-4.1c4.67-7.24-4.06-16.92,2.26-23.24c7.18-7.18,18.81-7.18,25.98,0
		c7.18,7.18,7.18,18.81,0,25.98c-3.75,3.75-11.54,0.92-13.62,5.37c-5.64,12.01,8.48,25.1-1.02,34.61
		c-6.67,6.67-17.47,1.34-24.63,6.46c-7.04,5.03-8.87,15.75-8.1,24.7c0.91,10.54,7.04,19.87-0.51,27.41
		c-7.72,7.72-20.23,7.72-27.94,0c-1.6-1.6-1.87-4.38-3.79-5.32c-9.83-4.82-22.24-8.91-32.09-3.73c-4.11,2.16-2.89,8.98-6.42,12.51
		c-2.96,2.96-10.51,2.05-10.31,5.95c0.17,3.21,6.23,1.98,8.68,4.43c6.17,6.17,6.17,16.18,0,22.35c-6.17,6.17-16.18,6.17-22.35,0
		c-6.17-6.17-6.17-16.18,0-22.35c1.72-1.72,6.18-1.46,5.89-3.72c-0.69-5.23-10.41-2.63-14.43-6.66c-3.65-3.65-2.07-11.15-6.5-12.97
		c-6.12-2.51-12.8,3.6-17.61-1.21c-5.25-5.25-5.25-13.75,0-19C586.82,464.81,595.33,464.81,600.57,470.06z"/>
	<path class="st1" d="M461.01,609.44c1.09,1.09,1.13,3.52,2.59,3.64c1.28,0.11,1.58-2.05,2.52-2.99c3.81-3.81,11.05-2.27,13.58-6.57
		c10.11-17.21-3.96-40.47,11.04-55.46c7.59-7.59,18.07-9.2,26.79-14.06c0.48-0.27,0.74-0.8,1.14-1.2c12.4-12.4,32.51-12.4,44.91,0
		c2.74,2.74,2.87,8.2,6.39,9.17c6.47,1.77,15.08,1.32,18.58-4.1c4.67-7.24-4.06-16.92,2.26-23.24c7.18-7.18,18.81-7.18,25.98,0
		c7.18,7.18,7.18,18.81,0,25.98c-3.75,3.75-11.54,0.92-13.62,5.37c-5.64,12.01,8.48,25.1-1.02,34.61
		c-6.67,6.67-17.47,1.34-24.63,6.46c-7.04,5.03-8.87,15.75-8.1,24.7c0.91,10.54,7.04,19.87-0.51,27.41
		c-7.72,7.72-20.23,7.72-27.94,0c-1.6-1.6-1.87-4.38-3.79-5.32c-9.83-4.82-22.24-8.91-32.09-3.73c-4.11,2.16-2.89,8.98-6.42,12.51
		c-2.96,2.96-10.51,2.05-10.31,5.95c0.17,3.21,6.23,1.98,8.68,4.43c6.17,6.17,6.17,16.18,0,22.35c-6.17,6.17-16.18,6.17-22.35,0
		c-6.17-6.17-6.17-16.18,0-22.35c1.72-1.72,6.18-1.46,5.89-3.72c-0.69-5.23-10.41-2.63-14.43-6.66c-3.65-3.65-2.07-11.15-6.5-12.97
		c-6.12-2.51-12.8,3.6-17.61-1.21c-5.25-5.25-5.25-13.75,0-19C447.25,604.19,455.76,604.19,461.01,609.44z"/>
	<path class="st9" d="M395.58,326.07c1.54,0.07,3.37-1.53,4.44-0.53c0.94,0.88-0.46,2.55-0.52,3.88c-0.26,5.38,5.75,9.7,4.26,14.47
		c-5.95,19.05-32.62,24.26-33.65,45.44c-0.52,10.72,5.33,19.57,7.59,29.29c0.12,0.53-0.1,1.09-0.12,1.64
		c-0.85,17.52,12.66,32.4,30.18,33.25c3.86,0.19,8-3.39,11.08-1.43c5.66,3.6,11.11,10.28,9.45,16.51
		c-2.22,8.32-15.25,8.37-15.69,17.29c-0.49,10.14,7.33,18.75,17.46,19.24s18.75-7.33,19.24-17.46c0.26-5.29-7.07-9.16-5.18-13.69
		c5.1-12.25,24.29-10.59,24.94-24.01c0.46-9.42-10.74-13.83-11.77-22.58c-1.01-8.6,5.7-17.16,12.84-22.6
		c8.42-6.41,19.44-8.14,19.96-18.8c0.53-10.9-7.88-20.16-18.78-20.69c-2.25-0.11-4.5,1.56-6.49,0.77
		c-10.18-4.04-21.55-10.48-24.33-21.25c-1.16-4.5,4.71-8.18,4.95-13.17c0.2-4.19-5.55-9.16-2.52-11.64
		c2.49-2.04,5.65,3.28,9.11,3.45c8.72,0.42,16.13-6.3,16.55-15.02c0.42-8.72-6.3-16.13-15.02-16.55
		c-8.72-0.42-16.13,6.3-16.55,15.02c-0.12,2.43,3.07,5.56,1.2,6.86c-4.34,3.01-8.94-5.93-14.63-6.21c-5.16-0.25-9.64,5.96-13.97,3.9
		c-5.97-2.84-5.94-11.9-12.73-12.22c-7.41-0.36-13.71,5.36-14.07,12.77C382.45,319.41,388.17,325.71,395.58,326.07z"/>
	<path class="st2" d="M607.52,478.02c0.24,2.25,2.98,4.54,1.77,6.31c-1.06,1.56-3.8-0.09-5.74,0.12
		c-7.85,0.84-12.76,10.53-20.01,9.45c-28.97-4.31-42.57-41.79-73.5-38.47c-15.65,1.68-27.16,12.17-40.73,17.64
		c-0.74,0.3-1.6,0.11-2.41,0.2c-25.58,2.74-44.1,25.7-41.36,51.28c0.6,5.64,6.72,10.83,4.58,15.74
		c-3.94,9.02-12.38,18.43-21.8,17.44c-12.56-1.33-15.58-20.21-28.62-18.82c-14.8,1.59-25.52,14.87-23.93,29.67
		c1.59,14.8,14.87,25.52,29.67,23.93c7.73-0.83,11.67-12.33,18.67-10.62c18.91,4.62,20.86,32.81,40.46,30.71
		c13.76-1.47,17.62-18.71,30.06-22.18c12.23-3.41,26.16,4.38,35.67,13.49c11.2,10.74,16.21,26.33,31.77,24.67
		c15.92-1.71,27.44-15.99,25.73-31.91c-0.35-3.29-3.28-6.17-2.58-9.23c3.55-15.67,10.31-33.61,25.29-40.08
		c6.25-2.7,12.92,4.97,20.21,4.19c6.11-0.65,12.02-10.12,16.29-6.3c3.52,3.15-3.48,8.93-2.94,13.99
		c1.36,12.73,12.79,21.94,25.52,20.58c12.73-1.36,21.94-12.79,20.58-25.52c-1.36-12.73-12.79-21.95-25.52-20.58
		c-3.55,0.38-7.36,5.72-9.67,3.3c-5.34-5.6,6.58-14.31,5.69-22.61c-0.81-7.53-10.83-12.63-8.82-19.37
		c2.77-9.29,15.9-11.31,14.83-21.22c-1.16-10.82-10.87-18.66-21.7-17.5C614.19,457.48,606.36,467.2,607.52,478.02z"/>
	<path class="st3" d="M379.07,399.43c-1.08,2.06-4.54,3.21-4.06,5.35c0.42,1.89,3.66,1.34,5.43,2.27
		c7.17,3.75,8.21,14.83,15.53,16.53c29.24,6.78,56.29-23.85,84.54-9.07c14.29,7.48,21.32,21.8,32.2,32.12
		c0.6,0.57,1.49,0.71,2.23,1.09c23.36,12.23,32.39,41.08,20.16,64.44c-2.7,5.15-10.48,7.8-10.28,13.29
		c0.36,10.08,4.87,22.23,14.23,24.82c12.48,3.45,22.45-13.42,34.36-7.19c13.52,7.07,18.74,23.77,11.67,37.28
		s-23.77,18.74-37.28,11.67c-7.06-3.7-6.5-16.14-13.82-17.14c-19.77-2.7-32.21,23.44-50.12,14.08
		c-12.57-6.58-9.77-24.46-20.33-32.44c-10.38-7.85-26.59-5.66-39.08-0.53c-14.71,6.04-25.35,19.02-39.56,11.58
		c-14.54-7.61-20.15-25.56-12.55-40.09c1.57-3.01,5.44-4.65,5.93-7.83c2.5-16.27,2.8-35.92-9.05-47.72
		c-4.95-4.93-14.18-0.12-20.84-3.6c-5.58-2.92-7.66-14.17-13.17-12.13c-4.53,1.68-0.04,9.83-2.46,14.44
		c-6.08,11.63-20.44,16.12-32.07,10.03c-11.63-6.08-16.12-20.44-10.03-32.07c6.08-11.63,20.44-16.12,32.07-10.03
		c3.24,1.7,4.87,8.22,7.98,6.77c7.2-3.34-0.89-16.11,3.07-23.7c3.6-6.88,15.07-7.97,15.69-15.15c0.85-9.9-10.91-16.76-6.17-25.81
		c5.17-9.88,17.38-13.7,27.26-8.53C380.43,377.34,384.24,389.54,379.07,399.43z"/>
	<path class="st9" d="M544.82,577.56c-0.95,1.57-0.31,4.39-1.96,4.94c-1.45,0.49-2.4-1.92-3.76-2.74
		c-5.47-3.31-13.39,0.52-17.53-3.74c-16.55-17-6.91-47.82-28.47-60.88c-10.91-6.6-23.47-5.5-34.9-8.63
		c-0.63-0.17-1.09-0.72-1.65-1.06c-17.83-10.79-41.03-5.09-51.83,12.74c-2.38,3.93-0.98,10.28-4.78,12.39
		c-6.97,3.88-17.02,5.8-22.6,0.53c-7.44-7.03-0.12-20.68-9.2-26.18c-10.32-6.25-23.74-2.95-29.99,7.37s-2.95,23.74,7.37,29.99
		c5.39,3.26,13.57-2.21,17.24,2.33c9.91,12.26-2.67,31.38,10.99,39.65c9.59,5.81,20.54-3.41,30.26,0.47
		c9.55,3.81,14.71,15.67,16.35,26.21c1.94,12.42-2.49,24.93,8.36,31.49c11.09,6.72,25.53,3.17,32.25-7.93
		c1.39-2.29,0.92-5.58,2.87-7.21c9.98-8.35,23.14-16.59,35.98-13.41c5.36,1.33,5.88,9.54,10.96,12.62
		c4.26,2.58,12.71-0.62,13.59,3.94c0.72,3.75-6.63,4.05-8.76,7.57c-5.37,8.87-2.53,20.42,6.34,25.79
		c8.87,5.37,20.42,2.53,25.79-6.34c5.37-8.87,2.53-20.42-6.34-25.79c-2.47-1.5-7.55,0.07-7.85-2.62
		c-0.69-6.23,11.26-5.99,14.77-11.78c3.18-5.25-0.78-13.45,3.82-16.81c6.35-4.63,15.8,0.52,19.98-6.39
		c4.57-7.54,2.15-17.36-5.39-21.93C559.21,567.61,549.39,570.02,544.82,577.56z"/>
	<path class="st1" d="M586.47,595.86c0.22-1.95,2.61-3.9,1.58-5.44c-0.9-1.36-3.28,0.05-4.96-0.14c-6.78-0.78-10.96-9.19-17.23-8.31
		c-25.07,3.52-37.1,35.82-63.81,32.73c-13.52-1.56-23.39-10.71-35.08-15.54c-0.64-0.26-1.39-0.11-2.08-0.19
		c-22.09-2.55-37.93-22.53-35.38-44.63c0.56-4.87,5.89-9.31,4.07-13.58c-3.34-7.83-10.57-16.02-18.71-15.23
		c-10.87,1.06-13.62,17.36-24.87,16.06c-12.78-1.48-21.95-13.04-20.47-25.82c1.48-12.78,13.04-21.95,25.82-20.47
		c6.68,0.77,10,10.74,16.07,9.31c16.38-3.86,18.26-28.21,35.2-26.25c11.89,1.37,15.09,16.3,25.83,19.39
		c10.55,3.03,22.65-3.6,30.93-11.41c9.76-9.21,14.2-22.65,27.64-21.09c13.75,1.59,23.6,14.02,22.01,27.77
		c-0.33,2.84-2.88,5.31-2.3,7.96c2.96,13.57,8.67,29.13,21.57,34.83c5.39,2.38,11.2-4.2,17.5-3.48c5.28,0.61,10.32,8.84,14.04,5.56
		c3.06-2.7-2.94-7.75-2.44-12.11c1.27-10.99,11.21-18.88,22.21-17.61c10.99,1.27,18.88,11.21,17.61,22.21
		c-1.27,10.99-11.21,18.88-22.21,17.61c-3.06-0.35-6.32-4.99-8.33-2.92c-4.66,4.81,5.58,12.42,4.75,19.59
		c-0.75,6.5-9.45,10.84-7.77,16.68c2.33,8.05,13.66,9.89,12.67,18.45c-1.08,9.35-9.53,16.05-18.88,14.97
		C592.09,613.66,585.39,605.2,586.47,595.86z"/>
	<path class="st4" d="M666.5,553.05c-1.09-1.09-1.13-3.52-2.59-3.64c-1.28-0.11-1.58,2.05-2.52,2.99
		c-3.81,3.81-11.05,2.27-13.58,6.57c-10.11,17.21,3.96,40.47-11.04,55.46c-7.59,7.59-18.07,9.2-26.79,14.06
		c-0.48,0.27-0.74,0.8-1.14,1.2c-12.4,12.4-32.51,12.4-44.91,0c-2.74-2.74-2.87-8.2-6.39-9.17c-6.47-1.77-15.08-1.32-18.58,4.1
		c-4.67,7.24,4.06,16.92-2.26,23.24c-7.18,7.18-18.81,7.18-25.98,0c-7.18-7.18-7.18-18.81,0-25.98c3.75-3.75,11.54-0.92,13.62-5.37
		c5.64-12.01-8.48-25.1,1.02-34.61c6.67-6.67,17.47-1.34,24.63-6.46c7.04-5.03,8.87-15.75,8.1-24.7
		c-0.91-10.54-7.04-19.87,0.51-27.41c7.72-7.72,20.23-7.72,27.94,0c1.6,1.6,1.87,4.38,3.79,5.32c9.83,4.82,22.24,8.91,32.09,3.73
		c4.11-2.16,2.89-8.98,6.42-12.51c2.96-2.96,10.51-2.05,10.31-5.95c-0.17-3.21-6.23-1.98-8.68-4.43c-6.17-6.17-6.17-16.18,0-22.35
		c6.17-6.17,16.18-6.17,22.35,0c6.17,6.17,6.17,16.18,0,22.35c-1.72,1.72-6.18,1.46-5.89,3.72c0.69,5.23,10.41,2.63,14.43,6.66
		c3.65,3.65,2.07,11.15,6.5,12.97c6.12,2.51,12.8-3.6,17.61,1.21c5.25,5.25,5.25,13.75,0,19C680.25,558.3,671.74,558.3,666.5,553.05
		z"/>
	<path class="st2" d="M656.17,440.14c1.09,1.09,3.52,1.13,3.64,2.59c0.11,1.28-2.05,1.58-2.99,2.52
		c-3.81,3.81-2.27,11.05-6.57,13.58c-17.21,10.11-40.47-3.96-55.46,11.04c-7.59,7.59-9.2,18.07-14.06,26.79
		c-0.27,0.48-0.8,0.74-1.2,1.14c-12.4,12.4-12.4,32.51,0,44.91c2.74,2.74,8.2,2.87,9.17,6.39c1.77,6.47,1.32,15.08-4.1,18.58
		c-7.24,4.67-16.92-4.06-23.24,2.26c-7.18,7.18-7.18,18.81,0,25.98c7.18,7.18,18.81,7.18,25.98,0c3.75-3.75,0.92-11.54,5.37-13.62
		c12.01-5.64,25.1,8.48,34.61-1.02c6.67-6.67,1.34-17.47,6.46-24.63c5.03-7.04,15.75-8.87,24.7-8.1
		c10.54,0.91,19.87,7.04,27.41-0.51c7.72-7.72,7.72-20.23,0-27.94c-1.6-1.6-4.38-1.87-5.32-3.79c-4.82-9.83-8.91-22.24-3.73-32.09
		c2.16-4.11,8.98-2.89,12.51-6.42c2.96-2.96,2.05-10.51,5.95-10.31c3.21,0.17,1.98,6.23,4.43,8.68c6.17,6.17,16.18,6.17,22.35,0
		c6.17-6.17,6.17-16.18,0-22.35c-6.17-6.17-16.18-6.17-22.35,0c-1.72,1.72-1.46,6.18-3.72,5.89c-5.23-0.69-2.63-10.41-6.66-14.43
		c-3.65-3.65-11.15-2.07-12.97-6.5c-2.51-6.12,3.6-12.8-1.21-17.61c-5.25-5.25-13.75-5.25-19,0
		C650.92,426.39,650.92,434.89,656.17,440.14z"/>
	<path class="st1" d="M686,490.58c-1.09-1.09-3.52-1.13-3.64-2.59c-0.11-1.28,2.05-1.58,2.99-2.52c3.81-3.81,2.27-11.05,6.57-13.58
		c17.21-10.11,40.47,3.96,55.46-11.04c7.59-7.59,9.2-18.07,14.06-26.79c0.27-0.48,0.8-0.74,1.2-1.14c12.4-12.4,12.4-32.51,0-44.91
		c-2.74-2.74-8.2-2.87-9.17-6.39c-1.77-6.47-1.32-15.08,4.1-18.58c7.24-4.67,16.92,4.06,23.24-2.26c7.18-7.18,7.18-18.81,0-25.98
		c-7.18-7.18-18.81-7.18-25.98,0c-3.75,3.75-0.92,11.54-5.37,13.62c-12.01,5.64-25.1-8.48-34.61,1.02
		c-6.67,6.67-1.34,17.47-6.46,24.63c-5.03,7.04-15.75,8.87-24.7,8.1c-10.54-0.91-19.87-7.04-27.41,0.51
		c-7.72,7.72-7.72,20.23,0,27.94c1.6,1.6,4.38,1.87,5.32,3.79c4.82,9.83,8.91,22.24,3.73,32.09c-2.16,4.11-8.98,2.89-12.51,6.42
		c-2.96,2.96-2.05,10.51-5.95,10.31c-3.21-0.17-1.98-6.23-4.43-8.68c-6.17-6.17-16.18-6.17-22.35,0c-6.17,6.17-6.17,16.18,0,22.35
		c6.17,6.17,16.18,6.17,22.35,0c1.72-1.72,1.46-6.18,3.72-5.89c5.23,0.69,2.63,10.41,6.66,14.43c3.65,3.65,11.15,2.07,12.97,6.5
		c2.51,6.12-3.6,12.8,1.21,17.61c5.25,5.25,13.75,5.25,19,0C691.25,504.33,691.25,495.83,686,490.58z"/>
</g>
</svg>
