<?xml version="1.0" encoding="utf-8"?>
<!-- Generator: Adobe Illustrator 25.2.0, SVG Export Plug-In . SVG Version: 6.00 Build 0)  -->
<svg version="1.1" xmlns="http://www.w3.org/2000/svg" xmlns:xlink="http://www.w3.org/1999/xlink" x="0px" y="0px"
	 viewBox="0 0 1080 1080" style="enable-background:new 0 0 1080 1080;" xml:space="preserve">
<style type="text/css">
	.st0{fill:#FF0049;}
	.st1{fill:#FF5072;}
	.st2{fill:#FF85A2;}
	.st3{fill:#A5003F;}
	.st4{fill:#D30046;}
	.st5{fill:none;stroke:#A5003F;stroke-width:20;stroke-linecap:round;stroke-miterlimit:10;}
	.st6{fill:none;stroke:#FFFFFF;stroke-width:15;stroke-linecap:round;stroke-miterlimit:10;}
	.st7{fill:none;stroke:#FF0049;stroke-width:70;stroke-linecap:round;stroke-miterlimit:10;}
	.st8{fill:none;stroke:#FFFFFF;stroke-width:10;stroke-linecap:round;stroke-miterlimit:10;}
	.st9{fill:#FFFFFF;}
</style>
<g id="COULEURS">
</g>
<g id="Jauge__x2B_accueil">
</g>
<g id="images">
</g>
<g id="TEXTE">
</g>
<g id="jauge">
</g>
<g id="picto_accueil">
</g>
<g id="FOND">
</g>
<g id="PICTOS">
</g>
<g id="bulles_Source__x2B_dico">
</g>
<g id="règles">
</g>
<g id="LOGO">
	<path class="st2" d="M457.37,221.48L301.73,371.06c-25.06,24.08-42.56,54.94-50.38,88.8l-80.2,347.38
		c0,38.96,19.68,75.28,52.31,96.56l151.45,98.75c21.04,13.72,45.97,20.19,71.02,18.43l354.81-24.9
		c42.29-2.97,79.54-28.91,96.99-67.56l55.85-123.72c10.5-23.26,12.99-49.35,7.06-74.18l47.25-202.66
		c5.75-24.64,0.26-50.69-15.37-70.59c-0.1-0.13-0.21-0.26-0.31-0.4l-30.79-32.78c-36.06-38.39-66.1-82.18-87.49-130.31
		c-14.43-32.46-41.22-58.74-75.57-72.1l-171.32-66.65L457.37,221.48z"/>
	<path class="st9" d="M557.07,287.78c24.16,0,43.74-19.58,43.74-43.74c0-4.73-0.76-9.28-2.15-13.54l-80.51,33.5
		C525.41,278.11,540.11,287.78,557.07,287.78z"/>
	<path class="st1" d="M659.15,190.7L550.3,54.64c-3.43-4.28-9.36-5.63-14.3-3.23l-94.94,46c-4.33,2.1-6.95,6.63-6.6,11.44
		l1.26,17.09L193.14,415.63c-2.38,2.84-3.28,6.63-2.43,10.24l98.12,416.82c1.49,6.32,7.81,10.23,14.13,8.75l0,0
		c6.32-1.49,10.23-7.81,8.75-14.13l-95.43-405.36c-0.85-3.6,0.05-7.4,2.43-10.24L438.2,159.59l8.74,118.92
		c0.59,8,8.83,13.07,16.23,9.99l41.7-17.35l106.89-44.48l42.72-17.78C661.71,205.89,664.04,196.81,659.15,190.7z"/>
	<path class="st1" d="M253.24,865.63h612.48c7.84,0,14.2-6.36,14.2-14.2v0c0-7.84-6.36-14.2-14.2-14.2H253.24
		c-7.84,0-14.2,6.36-14.2,14.2v0C239.04,859.27,245.4,865.63,253.24,865.63z"/>
	<g>
		<path class="st3" d="M513.96,621.39c28.8,1.67,84.64,6.16,109.28,0.94c6.21-1.32,10.56-6.91,10.24-13.25
			c-1.78-35.57-6.19-145.14-4.36-183.4c0.34-6.98-4.95-12.97-11.92-13.47c-28.71-2.06-81.63,1.03-106.96,3.15
			c-6.83,0.57-12.02,6.4-11.8,13.25c1.22,37.1,6.24,139.47,3.41,179C501.35,614.78,506.79,620.97,513.96,621.39z"/>
		<g>
			<g>
				<path class="st2" d="M513.18,436.46c-1.78-0.03-3.2-1.5-3.17-3.28c0.03-1.78,1.5-3.2,3.28-3.17
					c12.35,0.22,24.44-1.33,37.24-2.96c18.94-2.42,38.52-4.92,60.63-1.81c1.76,0.25,2.99,1.88,2.74,3.64
					c-0.25,1.76-1.88,2.99-3.64,2.74c-21.26-3-40.4-0.55-58.91,1.82C538.32,435.11,526.01,436.69,513.18,436.46z"/>
			</g>
			<g>
				<path class="st2" d="M514.15,455.54c-1.77-0.03-3.18-1.48-3.17-3.25c0.02-1.78,1.47-3.21,3.25-3.2
					c13.58,0.12,26.61-1.28,39.22-2.62c18.06-1.93,36.74-3.92,58-1.75c1.77,0.18,3.06,1.77,2.88,3.54
					c-0.18,1.77-1.76,3.06-3.54,2.88c-20.59-2.11-38.92-0.15-56.66,1.74c-12.79,1.37-26.02,2.78-39.96,2.66
					C514.17,455.54,514.16,455.54,514.15,455.54z"/>
			</g>
			<g>
				<path class="st2" d="M515.11,474.63c-1.75-0.03-3.17-1.46-3.17-3.23c0-1.78,1.45-3.22,3.23-3.22
					c14.97,0.01,28.47-1.15,41.52-2.27c17.88-1.53,34.76-2.98,55.04-1.7c1.78,0.11,3.13,1.64,3.02,3.42
					c-0.11,1.78-1.65,3.14-3.42,3.02c-19.8-1.24-36.46,0.18-54.09,1.69c-13.19,1.13-26.82,2.3-42.07,2.29
					C515.15,474.63,515.13,474.63,515.11,474.63z"/>
			</g>
			<g>
				<path class="st2" d="M516.07,493.71c-1.74-0.03-3.15-1.45-3.17-3.2c-0.01-1.78,1.42-3.23,3.2-3.25
					c16.83-0.11,31.03-1.03,44.77-1.91c16.55-1.06,32.19-2.07,51.13-1.65c1.78,0.04,3.19,1.51,3.15,3.29
					c-0.04,1.78-1.51,3.19-3.28,3.15c0,0-0.01,0-0.01,0c-18.67-0.41-34.16,0.59-50.57,1.64c-13.83,0.89-28.12,1.8-45.14,1.92
					C516.13,493.71,516.1,493.71,516.07,493.71z"/>
			</g>
			<g>
				<path class="st2" d="M517.04,512.79c-1.73-0.03-3.14-1.43-3.17-3.18c-0.02-1.78,1.4-3.24,3.18-3.27
					c21.44-0.29,37.95-1.01,53.91-1.7c13.37-0.58,26.01-1.13,41.31-1.45c1.79-0.04,3.25,1.38,3.29,3.16
					c0.04,1.78-1.38,3.25-3.16,3.29c-15.23,0.32-27.83,0.87-41.16,1.45c-16.01,0.7-32.57,1.42-54.1,1.7
					C517.11,512.79,517.07,512.79,517.04,512.79z"/>
			</g>
			<g>
				<path class="st2" d="M518,531.88c-1.73-0.03-3.13-1.42-3.16-3.16c-0.03-1.78,1.38-3.25,3.16-3.29
					c9.92-0.19,18.78-0.33,26.6-0.44c24.76-0.38,42.65-0.65,67.94-2.29c1.77-0.12,3.31,1.23,3.43,3.01
					c0.12,1.78-1.23,3.31-3.01,3.43c-25.45,1.65-43.41,1.92-68.26,2.3c-7.81,0.12-16.67,0.25-26.57,0.44
					C518.08,531.88,518.04,531.88,518,531.88z"/>
			</g>
			<g>
				<path class="st2" d="M518.96,550.96c-1.72-0.03-3.12-1.41-3.16-3.14c-0.04-1.78,1.36-3.26,3.14-3.3
					c15.91-0.39,28.49-0.31,39.59-0.25c18.84,0.12,33.73,0.21,54.26-2.06c1.77-0.2,3.36,1.08,3.56,2.85
					c0.2,1.77-1.08,3.36-2.85,3.56c-20.91,2.31-35.96,2.22-55.01,2.1c-11.06-0.07-23.58-0.15-39.39,0.24
					C519.06,550.96,519.01,550.96,518.96,550.96z"/>
			</g>
			<g>
				<path class="st2" d="M519.93,570.04c-1.71-0.03-3.11-1.4-3.16-3.13c-0.05-1.78,1.35-3.27,3.13-3.32
					c17.96-0.53,31.3-0.13,43.07,0.22c17.3,0.52,30.96,0.92,50.09-2.09c1.76-0.28,3.41,0.92,3.69,2.68
					c0.28,1.76-0.92,3.41-2.68,3.69c-19.72,3.11-33.65,2.69-51.29,2.17c-11.68-0.35-24.92-0.74-42.69-0.22
					C520.03,570.04,519.98,570.04,519.93,570.04z"/>
			</g>
			<g>
				<path class="st2" d="M581.84,590.54c-5.18-0.09-10.4-0.38-16.02-0.68c-11.96-0.65-25.52-1.39-44.76-0.73
					c-1.77,0.06-3.27-1.33-3.33-3.11c-0.06-1.78,1.33-3.27,3.11-3.33c19.52-0.67,33.23,0.08,45.33,0.74
					c16.82,0.92,28.97,1.58,47.14-2.18c1.75-0.36,3.45,0.76,3.81,2.51c0.36,1.74-0.76,3.45-2.51,3.81
					C602.03,590.16,592.01,590.72,581.84,590.54z"/>
			</g>
			<g>
				<path class="st2" d="M585.69,610.52c-5.6-0.1-11.18-0.55-17.24-1.03c-11.52-0.92-25.86-2.07-46.41-1.28
					c-1.77,0.07-3.28-1.32-3.35-3.1c-0.07-1.78,1.32-3.28,3.1-3.35c20.93-0.8,35.48,0.36,47.17,1.3c15.81,1.27,27.24,2.18,44.6-2.29
					c1.73-0.45,3.48,0.59,3.93,2.32c0.44,1.73-0.59,3.48-2.32,3.93C603.82,609.94,594.71,610.68,585.69,610.52z"/>
			</g>
		</g>
	</g>
	<g>
		<path class="st1" d="M415.91,575.01c10.89,29.51,30.03,84.54,45.7,107.47c4.4,6.44,12.9,8.63,19.88,5.15
			c35.74-17.8,140-68.51,179.83-83.95c7.92-3.07,11.94-11.92,9.04-19.9c-10.7-29.43-35.71-78.66-48.96-103.24
			c-3.96-7.35-13-10.3-20.54-6.69c-37.35,17.88-134.27,66.04-175.57,81.01C417.12,557.82,412.9,566.85,415.91,575.01z"/>
		<g>
			<g>
				<path class="st4" d="M601.88,490.99c-0.5-1.2,0.07-2.58,1.27-3.08s2.58,0.07,3.08,1.27c5.25,12.59,12.14,24.08,19.43,36.25
					c10.72,17.89,21.81,36.39,28.36,59.82c0.35,1.25-0.38,2.55-1.64,2.91c-1.25,0.35-2.55-0.38-2.91-1.64
					c-6.38-22.82-17.3-41.04-27.86-58.67C614.23,515.53,607.26,503.89,601.88,490.99z"/>
			</g>
			<g>
				<path class="st4" d="M583.13,500.35c-0.5-1.19,0.06-2.56,1.25-3.07c1.2-0.51,2.58,0.04,3.09,1.24
					c5.88,13.75,13.03,26.27,19.95,38.37c9.85,17.24,20.04,35.07,27.16,57.26c0.4,1.24-0.28,2.57-1.52,2.96
					c-1.24,0.4-2.56-0.29-2.96-1.52c-6.97-21.72-17.04-39.33-26.77-56.37c-6.98-12.22-14.2-24.85-20.19-38.85
					C583.14,500.37,583.14,500.36,583.13,500.35z"/>
			</g>
			<g>
				<path class="st4" d="M564.39,509.71c-0.49-1.18,0.05-2.55,1.23-3.07c1.19-0.52,2.58,0.02,3.1,1.21
					c6.6,15.09,13.71,28.16,20.58,40.8c9.38,17.24,18.23,33.53,25.85,54.38c0.45,1.22-0.18,2.58-1.41,3.02
					c-1.22,0.45-2.57-0.2-3.02-1.41c-7.49-20.52-16.27-36.66-25.56-53.74c-6.92-12.73-14.08-25.89-20.76-41.16
					C564.4,509.74,564.39,509.73,564.39,509.71z"/>
			</g>
			<g>
				<path class="st4" d="M545.64,519.07c-0.49-1.18,0.04-2.54,1.22-3.06c1.19-0.53,2.58,0,3.11,1.19
					c7.53,16.89,14.7,30.77,21.63,44.19c8.34,16.14,16.2,31.38,24.11,50.54c0.5,1.2-0.08,2.58-1.28,3.08
					c-1.2,0.5-2.57-0.07-3.07-1.27c0,0,0-0.01,0-0.01c-7.81-18.96-15.65-34.13-23.94-50.17c-6.96-13.48-14.16-27.42-21.75-44.43
					C545.66,519.11,545.65,519.09,545.64,519.07z"/>
			</g>
			<g>
				<path class="st4" d="M526.9,528.43c-0.49-1.17,0.04-2.52,1.2-3.05c1.19-0.54,2.58-0.01,3.12,1.17
					c9.72,21.42,17.71,37.69,25.43,53.43c6.46,13.17,12.57,25.62,19.62,40.84c0.55,1.19,0.03,2.58-1.15,3.13
					c-1.18,0.55-2.58,0.03-3.13-1.15c-7.02-15.17-13.12-27.6-19.57-40.75c-7.74-15.76-15.73-32.07-25.49-53.56
					C526.92,528.48,526.91,528.46,526.9,528.43z"/>
			</g>
			<g>
				<path class="st4" d="M508.15,537.8c-0.49-1.16,0.03-2.51,1.19-3.05c1.18-0.55,2.58-0.03,3.13,1.15
					c4.55,9.87,8.58,18.7,12.13,26.5c11.28,24.73,19.43,42.6,32.21,67.31c0.59,1.16,0.15,2.58-1.01,3.18
					c-1.16,0.6-2.58,0.15-3.18-1.01c-12.84-24.82-21.01-42.73-32.32-67.52c-3.55-7.79-7.58-16.62-12.13-26.48
					C508.18,537.85,508.17,537.82,508.15,537.8z"/>
			</g>
			<g>
				<path class="st4" d="M489.41,547.16c-0.48-1.16,0.03-2.5,1.18-3.04c1.18-0.55,2.58-0.04,3.13,1.14
					c7.38,15.79,12.83,28.45,17.65,39.62c8.19,19.01,14.65,34.03,26,53.72c0.66,1.12,0.26,2.57-0.87,3.22s-2.57,0.26-3.22-0.87
					c-11.48-19.93-17.99-35.06-26.24-54.21c-4.8-11.14-10.23-23.77-17.59-39.49C489.44,547.22,489.42,547.19,489.41,547.16z"/>
			</g>
			<g>
				<path class="st4" d="M470.67,556.52c-0.48-1.15,0.03-2.49,1.17-3.04c1.18-0.56,2.58-0.06,3.14,1.12
					c8.42,17.78,13.88,31.33,18.7,43.29c7.11,17.66,12.73,31.61,24.23,49.59c0.7,1.1,0.38,2.55-0.72,3.26
					c-1.1,0.7-2.55,0.38-3.26-0.72c-11.74-18.35-17.43-32.48-24.63-50.37c-4.79-11.9-10.23-25.39-18.59-43.04
					C470.7,556.59,470.68,556.55,470.67,556.52z"/>
			</g>
			<g>
				<path class="st4" d="M477.29,627.7c-2.18-5.22-4.18-10.57-6.34-16.33c-4.62-12.33-9.85-26.29-18.99-45.37
					c-0.57-1.17-0.07-2.58,1.11-3.14s2.58-0.07,3.14,1.11c9.23,19.27,14.5,33.34,19.15,45.76c6.51,17.38,11.21,29.94,23.06,46.66
					c0.75,1.06,0.5,2.53-0.56,3.29c-1.06,0.75-2.53,0.5-3.29-0.56C486.51,647.7,481.56,637.94,477.29,627.7z"/>
			</g>
			<g>
				<path class="st4" d="M459,640.59c-2.34-5.61-4.35-11.42-6.59-17.92c-4.15-12.01-9.32-26.96-19.17-47.31
					c-0.55-1.17-0.08-2.58,1.09-3.15c1.17-0.57,2.58-0.08,3.15,1.09c9.98,20.6,15.19,35.7,19.39,47.82
					c5.72,16.55,9.85,28.51,22.1,44.14c0.8,1.02,0.62,2.51-0.4,3.31c-1.02,0.8-2.51,0.62-3.31-0.4
					C467.39,658.15,462.77,649.64,459,640.59z"/>
			</g>
		</g>
	</g>
	<g>
		<path class="st0" d="M623.23,526.23c25.84-11.37,76.45-32.31,95.61-47.82c4.84-3.92,6.13-10.75,3.03-16.14
			c-17.4-30.21-70-123.66-85.44-157.83c-2.82-6.24-10.1-9.11-16.41-6.44c-25.93,10.99-70.63,37.23-91.76,50.36
			c-5.71,3.55-7.64,10.94-4.39,16.83c17.59,31.8,67.51,118.7,82.66,154.41C609.28,526.08,616.79,529.07,623.23,526.23z"/>
		<g>
			<g>
				<path class="st3" d="M539.73,364.51c-1.04,0.51-2.3,0.08-2.81-0.97c-0.51-1.04-0.08-2.3,0.97-2.81
					c10.93-5.34,20.81-12.09,31.26-19.24c15.36-10.5,31.25-21.36,51.78-28.45c1.1-0.38,2.3,0.2,2.68,1.3c0.38,1.1-0.2,2.3-1.3,2.68
					c-19.99,6.9-35.64,17.6-50.78,27.94C560.93,352.2,550.93,359.03,539.73,364.51z"/>
			</g>
			<g>
				<path class="st3" d="M549.06,380.71c-1.04,0.51-2.29,0.08-2.8-0.95c-0.52-1.04-0.1-2.3,0.94-2.82
					c11.94-5.97,22.7-13.01,33.11-19.81c14.83-9.69,30.17-19.72,49.56-27.25c1.08-0.42,2.3,0.12,2.72,1.2
					c0.42,1.08-0.12,2.3-1.2,2.72c-18.98,7.37-34.13,17.27-48.78,26.85c-10.51,6.87-21.38,13.97-33.53,20.05
					C549.07,380.7,549.07,380.7,549.06,380.71z"/>
			</g>
			<g>
				<path class="st3" d="M558.4,396.9c-1.03,0.5-2.27,0.09-2.8-0.93c-0.53-1.03-0.12-2.3,0.92-2.83
					c13.09-6.68,24.35-13.71,35.25-20.51c14.86-9.27,28.9-18.03,47.06-25.92c1.07-0.46,2.3,0.03,2.77,1.09
					c0.46,1.07-0.04,2.31-1.09,2.77c-17.88,7.77-31.79,16.44-46.51,25.63c-10.97,6.84-22.31,13.92-35.56,20.68
					C558.42,396.89,558.41,396.9,558.4,396.9z"/>
			</g>
			<g>
				<path class="st3" d="M567.74,413.1c-1.02,0.5-2.26,0.1-2.79-0.92c-0.54-1.03-0.13-2.3,0.9-2.84
					c14.64-7.61,26.62-14.73,38.21-21.63c13.93-8.28,27.1-16.11,43.73-24.16c1.05-0.51,2.3-0.07,2.81,0.98
					c0.51,1.04,0.07,2.3-0.97,2.81c0,0,0,0-0.01,0c-16.47,7.96-29.56,15.76-43.41,23.99c-11.64,6.92-23.67,14.08-38.42,21.74
					C567.77,413.09,567.75,413.1,567.74,413.1z"/>
			</g>
			<g>
				<path class="st3" d="M577.07,429.3c-1.02,0.5-2.25,0.1-2.78-0.91c-0.54-1.03-0.15-2.3,0.88-2.84
					c18.57-9.8,32.64-17.78,46.24-25.5c11.39-6.46,22.15-12.56,35.33-19.65c1.03-0.56,2.3-0.17,2.85,0.86
					c0.55,1.02,0.17,2.3-0.86,2.85c-13.14,7.06-23.88,13.15-35.25,19.6c-13.63,7.73-27.73,15.73-46.35,25.56
					C577.11,429.28,577.09,429.29,577.07,429.3z"/>
			</g>
			<g>
				<path class="st3" d="M586.41,445.5c-1.01,0.49-2.24,0.1-2.78-0.9c-0.55-1.02-0.16-2.3,0.86-2.85
					c8.55-4.58,16.2-8.64,22.96-12.22c21.43-11.36,36.91-19.57,58.24-32.28c1-0.59,2.29-0.27,2.88,0.73s0.27,2.29-0.73,2.88
					c-21.42,12.76-36.94,20.99-58.43,32.38c-6.75,3.58-14.4,7.64-22.94,12.21C586.46,445.48,586.43,445.49,586.41,445.5z"/>
			</g>
			<g>
				<path class="st3" d="M595.75,461.7c-1.01,0.49-2.23,0.11-2.77-0.89c-0.55-1.02-0.18-2.3,0.85-2.85
					c13.67-7.42,24.66-12.95,34.36-17.83c16.5-8.3,29.53-14.86,46.47-26.02c0.97-0.64,2.27-0.37,2.91,0.6
					c0.64,0.97,0.37,2.27-0.6,2.91c-17.14,11.29-30.27,17.9-46.89,26.26c-9.67,4.87-20.63,10.38-34.24,17.77
					C595.8,461.67,595.77,461.69,595.75,461.7z"/>
			</g>
			<g>
				<path class="st3" d="M605.08,477.9c-1,0.49-2.22,0.11-2.77-0.88c-0.56-1.02-0.19-2.3,0.83-2.86
					c15.39-8.45,27.17-14.03,37.57-18.96c15.35-7.28,27.48-13.02,42.88-24.23c0.94-0.68,2.26-0.48,2.94,0.46
					c0.68,0.94,0.48,2.26-0.46,2.94c-15.72,11.43-28,17.25-43.55,24.63c-10.34,4.9-22.07,10.46-37.35,18.85
					C605.14,477.87,605.11,477.88,605.08,477.9z"/>
			</g>
			<g>
				<path class="st3" d="M668.13,468.2c-4.54,2.22-9.19,4.29-14.21,6.51c-10.73,4.77-22.9,10.17-39.41,19.33
					c-1.02,0.57-2.3,0.2-2.86-0.82c-0.56-1.02-0.2-2.3,0.82-2.86c16.67-9.25,28.93-14.69,39.74-19.5
					c15.14-6.72,26.07-11.58,40.34-23.03c0.9-0.73,2.23-0.58,2.96,0.32c0.73,0.91,0.58,2.23-0.32,2.96
					C685.46,458.93,677.03,463.85,668.13,468.2z"/>
			</g>
			<g>
				<path class="st3" d="M680.6,483.81c-4.87,2.38-9.94,4.48-15.61,6.83c-10.48,4.34-23.52,9.74-41.12,19.6
					c-1,0.56-2.29,0.21-2.86-0.81c-0.57-1.01-0.21-2.3,0.81-2.86c17.82-9.98,30.99-15.44,41.57-19.82
					c14.44-5.98,24.87-10.3,38.14-22.04c0.87-0.77,2.2-0.69,2.97,0.18c0.77,0.87,0.69,2.2-0.18,2.97
					C695.79,475.4,688.45,479.97,680.6,483.81z"/>
			</g>
		</g>
	</g>
	<g>
		<path class="st3" d="M131.25,646.68c-7.62,35.26-23.94,103.36-22.25,134.8c0.43,7.92,6.5,14.38,14.39,15.21
			c44.28,4.66,180.47,20.36,227.37,30.01c8.56,1.76,16.97-3.61,18.93-12.12c8.08-35.06,14.48-101.03,16.75-132.73
			c0.61-8.55-5.58-16.08-14.09-17.13c-46.06-5.66-173.47-19.21-221.76-30.33C141.85,632.38,133.15,637.9,131.25,646.68z"/>
		<g>
			<g>
				<path class="st2" d="M359.82,681.41c0.38-2.19,2.47-3.66,4.66-3.28c2.19,0.38,3.66,2.47,3.28,4.66
					c-2.66,15.22-3.08,30.45-3.53,46.57c-0.66,23.86-1.35,48.53-9.47,75.24c-0.65,2.13-2.9,3.33-5.03,2.68
					c-2.13-0.65-3.33-2.9-2.69-5.03c7.8-25.68,8.48-49.8,9.13-73.12C356.63,712.71,357.07,697.2,359.82,681.41z"/>
			</g>
			<g>
				<path class="st2" d="M336.07,678.91c0.38-2.18,2.44-3.64,4.63-3.28c2.2,0.36,3.68,2.44,3.32,4.63
					c-2.76,16.75-3.56,33.12-4.33,48.95c-1.1,22.68-2.24,46.14-9.04,71.97c-0.57,2.15-2.77,3.44-4.92,2.87
					c-2.15-0.57-3.44-2.77-2.87-4.92c6.58-25.02,7.7-48.05,8.78-70.32c0.78-16.06,1.59-32.67,4.43-49.88
					C336.06,678.94,336.06,678.93,336.07,678.91z"/>
			</g>
			<g>
				<path class="st2" d="M312.31,676.42c0.38-2.16,2.42-3.63,4.6-3.29c2.2,0.34,3.7,2.41,3.36,4.61
					c-2.9,18.49-4.08,35.39-5.22,51.72c-1.56,22.38-3.03,43.51-8.52,68.31c-0.48,2.17-2.63,3.55-4.81,3.07
					c-2.17-0.48-3.56-2.64-3.07-4.81c5.36-24.22,6.81-45.07,8.35-67.13c1.15-16.51,2.34-33.58,5.29-52.41
					C312.3,676.47,312.3,676.44,312.31,676.42z"/>
			</g>
			<g>
				<path class="st2" d="M288.55,673.93c0.37-2.15,2.4-3.62,4.57-3.29c2.2,0.33,3.72,2.38,3.39,4.58
					c-3.11,20.81-4.72,38.53-6.28,55.66c-1.88,20.65-3.66,40.15-7.82,63.47c-0.39,2.19-2.49,3.65-4.68,3.26
					c-2.19-0.39-3.64-2.48-3.26-4.66c0-0.01,0-0.01,0-0.02c4.11-22.98,5.87-42.31,7.73-62.78c1.57-17.25,3.2-35.08,6.34-56.12
					C288.54,673.99,288.55,673.96,288.55,673.93z"/>
			</g>
			<g>
				<path class="st2" d="M264.79,671.44c0.37-2.14,2.38-3.6,4.54-3.3c2.2,0.31,3.74,2.36,3.42,4.56
					c-3.78,26.54-6.08,47.07-8.31,66.92c-1.86,16.63-3.62,32.34-6.18,51.31c-0.3,2.22-2.33,3.75-4.53,3.46
					c-2.21-0.3-3.75-2.33-3.46-4.53c2.55-18.87,4.3-34.54,6.16-51.12c2.23-19.91,4.54-40.5,8.34-67.16
					C264.78,671.52,264.79,671.48,264.79,671.44z"/>
			</g>
			<g>
				<path class="st2" d="M241.04,668.94c0.37-2.13,2.36-3.59,4.52-3.3c2.21,0.3,3.75,2.33,3.45,4.54
					c-1.68,12.29-3.22,23.26-4.58,32.94c-4.31,30.66-7.43,52.81-10.29,84.36c-0.2,2.21-2.16,3.85-4.38,3.65
					c-2.22-0.2-3.85-2.16-3.65-4.38c2.87-31.76,6-53.99,10.33-84.76c1.36-9.67,2.9-20.63,4.58-32.9
					C241.02,669.04,241.03,668.99,241.04,668.94z"/>
			</g>
			<g>
				<path class="st2" d="M217.28,666.45c0.37-2.12,2.34-3.58,4.49-3.3c2.21,0.29,3.76,2.31,3.47,4.52
					c-2.58,19.72-5.11,35.25-7.34,48.95c-3.78,23.25-6.77,41.62-7.93,67.42c-0.1,2.23-1.98,3.95-4.21,3.85
					c-2.22-0.1-3.95-1.98-3.85-4.21c1.18-26.28,4.2-44.84,8.03-68.35c2.22-13.64,4.73-29.1,7.3-48.7
					C217.26,666.56,217.27,666.51,217.28,666.45z"/>
			</g>
			<g>
				<path class="st2" d="M193.52,663.96c0.37-2.11,2.33-3.57,4.48-3.3c2.21,0.28,3.77,2.29,3.5,4.5
					c-2.81,22.29-5.88,38.69-8.58,53.16c-3.98,21.27-7.12,38.07-7.08,62.28c0,2.23-1.8,4.03-4.03,4.04c-2.23,0-4.03-1.8-4.04-4.03
					c-0.03-24.96,3.17-42.09,7.22-63.77c2.68-14.36,5.73-30.63,8.51-52.69C193.5,664.09,193.51,664.02,193.52,663.96z"/>
			</g>
			<g>
				<path class="st2" d="M156.26,736.47c1.11-6.38,2.47-12.77,3.93-19.65c3.11-14.65,6.64-31.25,9.54-55.14
					c0.27-2.2,2.28-3.78,4.49-3.52c2.21,0.27,3.78,2.28,3.52,4.49c-2.94,24.24-6.51,41.03-9.66,55.84
					c-4.38,20.6-7.54,35.48-6.41,58.65c0.11,2.23-1.61,4.11-3.83,4.22c-2.22,0.11-4.11-1.61-4.22-3.83
					C152.83,761.49,154.07,749,156.26,736.47z"/>
			</g>
			<g>
				<path class="st2" d="M130.83,737.37c1.2-6.9,2.83-13.7,4.6-21.09c3.36-14.06,7.55-31.55,10.54-57.08
					c0.26-2.2,2.26-3.79,4.47-3.53c2.21,0.26,3.79,2.26,3.53,4.47c-3.05,26-7.3,43.75-10.71,58.01
					c-4.62,19.29-7.95,33.23-5.78,55.53c0.22,2.22-1.41,4.19-3.62,4.4c-2.22,0.22-4.19-1.41-4.4-3.62
					C128.05,759.87,128.89,748.48,130.83,737.37z"/>
			</g>
		</g>
	</g>
	<g>
		<path class="st1" d="M861.55,563.71c10.44-25.51,30.67-72.39,34.13-96.47c0.97-6.77-3.22-13.21-9.8-15.1
			c-33.62-9.66-131-38.66-165.87-52.27c-6.93-2.71-14.77,0.63-17.63,7.5c-10.51,25.34-23.52,71.95-29.51,95.68
			c-1.79,7.1,2.3,14.35,9.3,16.48c34.71,10.57,125.83,36.86,161.37,51.64C850.59,574.1,858.67,570.76,861.55,563.71z"/>
		<g>
			<g>
				<path class="st4" d="M691.68,507.84c-0.39,1.07-1.57,1.63-2.65,1.24c-1.07-0.39-1.63-1.57-1.24-2.65
					c4.06-11.24,6.42-22.74,8.92-34.92c3.67-17.9,7.47-36.42,17.11-55.43c0.52-1.02,1.76-1.42,2.78-0.91
					c1.02,0.52,1.43,1.76,0.91,2.78c-9.39,18.52-13.13,36.76-16.75,54.39C698.24,484.68,695.85,496.32,691.68,507.84z"/>
			</g>
			<g>
				<path class="st4" d="M709.34,512.9c-0.39,1.06-1.56,1.62-2.63,1.25c-1.08-0.38-1.64-1.56-1.26-2.63
					c4.35-12.36,7.14-24.68,9.84-36.59c3.85-16.97,7.82-34.52,16.37-53.07c0.48-1.04,1.7-1.49,2.74-1.01
					c1.04,0.48,1.48,1.71,1.01,2.74c-8.36,18.16-12.29,35.49-16.09,52.26c-2.73,12.03-5.54,24.46-9.97,37.05
					C709.34,512.88,709.34,512.89,709.34,512.9z"/>
			</g>
			<g>
				<path class="st4" d="M726.99,517.95c-0.38,1.06-1.54,1.62-2.61,1.25c-1.08-0.37-1.65-1.54-1.29-2.62
					c4.67-13.65,7.82-26.3,10.87-38.54c4.15-16.69,8.08-32.46,15.51-50.43c0.44-1.05,1.64-1.56,2.7-1.12
					c1.05,0.44,1.54,1.65,1.12,2.7c-7.31,17.69-11.2,33.31-15.32,49.85c-3.07,12.32-6.24,25.06-10.97,38.88
					C726.99,517.93,726.99,517.94,726.99,517.95z"/>
			</g>
			<g>
				<path class="st4" d="M744.64,523c-0.38,1.05-1.53,1.61-2.6,1.26c-1.08-0.36-1.67-1.53-1.3-2.61
					c5.13-15.37,8.72-28.58,12.19-41.35c4.17-15.36,8.12-29.87,14.36-46.92c0.39-1.07,1.58-1.62,2.65-1.23
					c1.07,0.39,1.62,1.57,1.23,2.64c0,0,0,0,0,0.01c-6.18,16.87-10.1,31.31-14.25,46.58c-3.49,12.83-7.09,26.1-12.26,41.58
					C744.65,522.97,744.64,522.99,744.64,523z"/>
			</g>
			<g>
				<path class="st4" d="M762.29,528.06c-0.38,1.04-1.52,1.61-2.58,1.26c-1.08-0.35-1.68-1.52-1.32-2.61
					c6.41-19.6,10.88-34.83,15.22-49.57c3.63-12.34,7.05-23.99,11.52-38c0.35-1.09,1.51-1.69,2.6-1.34c1.09,0.35,1.69,1.51,1.34,2.6
					c-4.45,13.96-7.87,25.59-11.49,37.91c-4.34,14.76-8.83,30.03-15.25,49.69C762.3,528.02,762.29,528.04,762.29,528.06z"/>
			</g>
			<g>
				<path class="st4" d="M779.94,533.11c-0.38,1.04-1.51,1.6-2.57,1.26c-1.09-0.35-1.69-1.51-1.34-2.6
					c2.9-9.07,5.53-17.16,7.85-24.3c7.36-22.65,12.68-39.02,19.06-62.55c0.31-1.1,1.43-1.75,2.53-1.45c1.1,0.3,1.75,1.43,1.45,2.53
					c-6.4,23.63-11.74,40.04-19.11,62.75c-2.32,7.14-4.95,15.22-7.85,24.28C779.96,533.06,779.95,533.09,779.94,533.11z"/>
			</g>
			<g>
				<path class="st4" d="M797.59,538.17c-0.37,1.03-1.5,1.6-2.56,1.27c-1.09-0.34-1.69-1.5-1.35-2.59
					c4.58-14.57,8.56-25.98,12.07-36.04c5.97-17.13,10.69-30.66,15.02-50.09c0.24-1.11,1.35-1.81,2.47-1.57
					c1.11,0.25,1.81,1.35,1.57,2.47c-4.39,19.67-9.14,33.3-15.15,50.55c-3.5,10.04-7.47,21.41-12.03,35.92
					C797.61,538.11,797.6,538.14,797.59,538.17z"/>
			</g>
			<g>
				<path class="st4" d="M815.24,543.22c-0.37,1.03-1.49,1.6-2.55,1.27c-1.09-0.34-1.7-1.49-1.36-2.58
					c5.09-16.47,9.59-28.46,13.56-39.04c5.86-15.62,10.5-27.96,13.72-46.38c0.2-1.12,1.27-1.88,2.39-1.68
					c1.12,0.2,1.88,1.27,1.68,2.39c-3.29,18.8-7.98,31.3-13.92,47.12c-3.95,10.52-8.43,22.45-13.48,38.8
					C815.26,543.16,815.25,543.19,815.24,543.22z"/>
			</g>
			<g>
				<path class="st4" d="M853.11,493.32c-1.69,4.66-3.56,9.3-5.58,14.3c-4.32,10.69-9.21,22.81-14.61,40.55
					c-0.32,1.09-1.49,1.71-2.58,1.38s-1.71-1.49-1.38-2.58c5.45-17.91,10.38-30.12,14.73-40.9c6.09-15.08,10.49-25.98,12.74-43.8
					c0.14-1.13,1.18-1.93,2.31-1.79c1.13,0.14,1.93,1.18,1.79,2.31C859,474.95,856.42,484.18,853.11,493.32z"/>
			</g>
			<g>
				<path class="st4" d="M872.56,495.83c-1.81,5.01-3.95,9.95-6.35,15.48c-4.43,10.22-9.94,22.93-15.63,41.91
					c-0.34,1.08-1.48,1.71-2.57,1.39c-1.09-0.33-1.71-1.48-1.39-2.57c5.76-19.22,11.33-32.05,15.8-42.37
					c6.11-14.08,10.52-24.25,11.86-41.6c0.09-1.13,1.08-1.99,2.22-1.9c1.14,0.09,1.99,1.08,1.9,2.22
					C877.54,479.52,875.48,487.76,872.56,495.83z"/>
			</g>
		</g>
	</g>
	<g>
		<path class="st0" d="M524.5,835.64c27.82,15.06,81.13,45.47,108.03,51.77c6.79,1.59,13.73-1.95,16.37-8.41
			c14.78-36.16,61.36-146.94,80.99-184.09c3.59-6.79,1.12-15.2-5.58-18.95c-27.55-15.4-81.49-36.94-107.63-46.62
			c-7.06-2.62-14.94,0.76-17.91,7.68c-16.06,37.42-58.67,141.33-79.88,179.28C515.04,823.19,517.56,831.89,524.5,835.64z"/>
		<g>
			<g>
				<path class="st3" d="M610.27,650.59c-1.17-0.57-1.65-1.99-1.08-3.15c0.57-1.17,1.99-1.65,3.15-1.08
					c12.24,6,25,10.11,38.51,14.45c19.85,6.38,40.39,12.99,60.76,26.28c1.09,0.71,1.4,2.17,0.69,3.26c-0.71,1.09-2.17,1.4-3.26,0.69
					c-19.85-12.95-40.07-19.46-59.63-25.74C635.74,660.9,622.82,656.74,610.27,650.59z"/>
			</g>
			<g>
				<path class="st3" d="M602.35,669.99c-1.16-0.57-1.65-1.97-1.09-3.13c0.56-1.17,1.97-1.67,3.14-1.11
					c13.49,6.46,27.11,11.16,40.29,15.7c18.77,6.47,38.19,13.16,58.18,25.15c1.12,0.67,1.48,2.12,0.81,3.23
					c-0.67,1.12-2.12,1.47-3.23,0.81c-19.56-11.74-38.74-18.34-57.29-24.73c-13.3-4.58-27.06-9.32-40.79-15.9
					C602.36,669.99,602.35,669.99,602.35,669.99z"/>
			</g>
			<g>
				<path class="st3" d="M594.43,689.38c-1.15-0.56-1.64-1.95-1.1-3.12c0.55-1.18,1.96-1.69,3.14-1.13
					c14.91,6.99,28.87,12.14,42.37,17.11c18.42,6.78,35.82,13.19,55.29,23.85c1.14,0.63,1.56,2.06,0.94,3.2
					c-0.62,1.14-2.07,1.55-3.2,0.94c-19.16-10.49-36.4-16.84-54.65-23.56c-13.6-5.01-27.65-10.18-42.75-17.26
					C594.45,689.39,594.44,689.39,594.43,689.38z"/>
			</g>
			<g>
				<path class="st3" d="M586.5,708.78c-1.15-0.56-1.64-1.94-1.1-3.1c0.54-1.18,1.94-1.7,3.13-1.16
					c16.8,7.73,31.34,13.44,45.4,18.96c16.91,6.64,32.88,12.92,51.44,22.11c1.17,0.58,1.64,1.99,1.07,3.16
					c-0.58,1.16-1.99,1.64-3.15,1.07c0,0-0.01,0-0.01,0c-18.37-9.11-34.26-15.34-51.07-21.94c-14.12-5.55-28.73-11.28-45.65-19.07
					C586.54,708.8,586.52,708.79,586.5,708.78z"/>
			</g>
			<g>
				<path class="st3" d="M578.58,728.18c-1.14-0.56-1.63-1.92-1.11-3.09c0.54-1.19,1.93-1.71,3.12-1.18
					c21.44,9.7,38.17,16.67,54.35,23.41c13.55,5.64,26.34,10.97,41.67,17.77c1.21,0.53,1.73,1.92,1.2,3.11
					c-0.53,1.19-1.92,1.73-3.11,1.2c-15.28-6.78-28.05-12.1-41.57-17.73c-16.21-6.75-32.97-13.74-54.48-23.47
					C578.62,728.2,578.6,728.19,578.58,728.18z"/>
			</g>
			<g>
				<path class="st3" d="M570.66,747.57c-1.13-0.56-1.63-1.91-1.11-3.07c0.53-1.19,1.92-1.72,3.11-1.19
					c9.93,4.42,18.78,8.41,26.59,11.92c24.78,11.16,42.69,19.22,68.6,29.37c1.21,0.48,1.81,1.84,1.33,3.06
					c-0.47,1.21-1.84,1.81-3.06,1.33c-26.02-10.2-43.97-18.28-68.81-29.47c-7.81-3.52-16.66-7.5-26.57-11.92
					C570.71,747.6,570.68,747.59,570.66,747.57z"/>
			</g>
			<g>
				<path class="st3" d="M562.73,766.97c-1.13-0.55-1.63-1.9-1.12-3.06c0.52-1.19,1.91-1.73,3.11-1.21
					c15.96,7,28.41,12.93,39.39,18.16c18.69,8.9,33.45,15.93,54.96,23.26c1.24,0.42,1.89,1.76,1.47,2.99
					c-0.42,1.23-1.76,1.89-2.99,1.47c-21.77-7.42-36.64-14.5-55.47-23.46c-10.95-5.22-23.37-11.13-39.26-18.1
					C562.8,767,562.77,766.98,562.73,766.97z"/>
			</g>
			<g>
				<path class="st3" d="M554.81,786.37c-1.12-0.55-1.63-1.89-1.12-3.05c0.52-1.19,1.9-1.74,3.1-1.23
					c18.05,7.82,31.1,14.41,42.6,20.23c16.99,8.59,30.41,15.37,50.91,21.31c1.25,0.36,1.97,1.67,1.61,2.92
					c-0.36,1.25-1.67,1.97-2.92,1.61c-20.92-6.06-34.52-12.93-51.73-21.63c-11.45-5.79-24.42-12.35-42.35-20.11
					C554.88,786.4,554.85,786.38,554.81,786.37z"/>
			</g>
			<g>
				<path class="st3" d="M606.72,835.51c-5.08-2.49-10.11-5.19-15.53-8.1c-11.6-6.22-24.74-13.28-44.19-21.6
					c-1.2-0.51-1.75-1.9-1.24-3.09c0.51-1.2,1.9-1.75,3.09-1.24c19.64,8.4,32.88,15.51,44.56,21.78
					c16.35,8.78,28.17,15.12,48.11,19.88c1.26,0.3,2.05,1.57,1.75,2.84c-0.3,1.27-1.57,2.05-2.84,1.75
					C626.84,844.48,616.68,840.4,606.72,835.51z"/>
			</g>
			<g>
				<path class="st3" d="M601.47,857.27c-5.45-2.68-10.8-5.72-16.77-9.13c-11.04-6.29-24.78-14.13-45.61-22.93
					c-1.18-0.5-1.76-1.89-1.25-3.09c0.51-1.2,1.89-1.76,3.09-1.25c21.09,8.92,34.96,16.82,46.11,23.18
					c15.21,8.67,26.21,14.94,45.72,18.62c1.28,0.24,2.12,1.47,1.88,2.75c-0.24,1.28-1.47,2.12-2.75,1.88
					C619.35,864.94,610.26,861.59,601.47,857.27z"/>
			</g>
		</g>
	</g>
	<g>
		<path class="st3" d="M718.83,622.69c18.62-19.7,55.63-57.12,66.78-78c2.81-5.26,1.42-11.77-3.33-15.38
			c-26.65-20.23-108.09-83.34-134.49-107.81c-4.82-4.46-12.31-4.29-16.89,0.42c-18.84,19.4-48.64,59.31-62.43,78.8
			c-3.72,5.26-2.67,12.51,2.39,16.5c27.41,21.57,104.04,79.87,130.75,105.82C706.45,627.76,714.19,627.6,718.83,622.69z"/>
		<g>
			<g>
				<path class="st2" d="M585.41,511.39c-1.1,1.26-3.01,1.39-4.27,0.29c-1.26-1.1-1.39-3.01-0.29-4.27
					c7.63-8.75,13.83-18.37,20.4-28.56c9.71-15.08,19.76-30.67,35.38-44.68c1.25-1.12,3.16-1.01,4.28,0.23
					c1.12,1.25,1.01,3.16-0.23,4.28c-15.01,13.47-24.83,28.71-34.33,43.45C599.64,492.5,593.33,502.31,585.41,511.39z"/>
			</g>
			<g>
				<path class="st2" d="M599.71,522.24c-1.09,1.25-2.99,1.39-4.25,0.31c-1.27-1.09-1.42-3-0.33-4.27
					c8.3-9.69,15.18-19.91,21.84-29.79c9.54-14.15,19.4-28.79,33.83-42.75c1.2-1.16,3.12-1.13,4.28,0.07s1.13,3.12-0.07,4.28
					c-13.97,13.52-23.65,27.89-33.02,41.79c-6.75,10.02-13.74,20.38-22.26,30.34C599.72,522.23,599.72,522.23,599.71,522.24z"/>
			</g>
			<g>
				<path class="st2" d="M614.01,533.09c-1.08,1.24-2.97,1.39-4.23,0.33c-1.28-1.08-1.44-2.99-0.37-4.27
					c9.06-10.76,16.39-21.16,23.49-31.22c9.71-13.78,18.89-26.79,32.07-40.6c1.16-1.21,3.07-1.25,4.28-0.1
					c1.21,1.16,1.26,3.08,0.1,4.28c-12.87,13.49-21.92,26.32-31.5,39.91c-7.17,10.16-14.57,20.67-23.8,31.63
					C614.04,533.06,614.02,533.08,614.01,533.09z"/>
			</g>
			<g>
				<path class="st2" d="M628.31,543.94c-1.08,1.24-2.95,1.39-4.22,0.34c-1.29-1.07-1.47-2.98-0.4-4.27
					c10.1-12.17,18.03-22.93,25.71-33.34c9.25-12.54,17.98-24.39,29.74-37.76c1.1-1.26,3.02-1.38,4.28-0.28
					c1.25,1.1,1.38,3.01,0.28,4.27c0,0-0.01,0.01-0.01,0.01c-11.59,13.17-20.24,24.92-29.41,37.35
					c-7.73,10.48-15.71,21.31-25.92,33.61C628.35,543.9,628.33,543.92,628.31,543.94z"/>
			</g>
			<g>
				<path class="st2" d="M642.62,554.79c-1.07,1.23-2.93,1.39-4.2,0.35c-1.29-1.06-1.48-2.97-0.42-4.26
					c12.76-15.59,22.23-27.89,31.39-39.79c7.67-9.97,14.92-19.38,23.95-30.58c1.05-1.31,2.96-1.51,4.26-0.46
					c1.3,1.05,1.51,2.96,0.46,4.26c-8.98,11.14-16.21,20.53-23.86,30.47c-9.18,11.93-18.68,24.27-31.5,39.93
					C642.66,554.74,642.64,554.77,642.62,554.79z"/>
			</g>
			<g>
				<path class="st2" d="M656.92,565.64c-1.07,1.22-2.92,1.39-4.19,0.36c-1.3-1.05-1.5-2.96-0.45-4.26
					c5.86-7.24,11.12-13.7,15.77-19.39c14.71-18.03,25.33-31.05,39.45-50.23c0.99-1.34,2.89-1.64,4.24-0.64
					c1.35,0.99,1.64,2.89,0.64,4.24c-14.21,19.3-24.88,32.37-39.64,50.47c-4.64,5.69-9.9,12.13-15.75,19.37
					C656.97,565.58,656.94,565.61,656.92,565.64z"/>
			</g>
			<g>
				<path class="st2" d="M671.22,576.49c-1.06,1.22-2.9,1.39-4.17,0.37c-1.31-1.05-1.52-2.95-0.47-4.26
					c9.34-11.67,17.01-20.67,23.77-28.61c11.48-13.48,20.55-24.12,31.34-40.26c0.93-1.39,2.81-1.76,4.2-0.83
					c1.39,0.93,1.76,2.81,0.83,4.2c-10.99,16.43-20.16,27.19-31.77,40.82c-6.74,7.91-14.37,16.87-23.65,28.47
					C671.28,576.43,671.25,576.46,671.22,576.49z"/>
			</g>
			<g>
				<path class="st2" d="M685.52,587.34c-1.06,1.21-2.89,1.39-4.16,0.38c-1.31-1.04-1.53-2.94-0.49-4.26
					c10.48-13.24,18.84-22.59,26.21-30.83c10.83-12.12,19.39-21.7,28.8-37.28c0.87-1.43,2.73-1.89,4.16-1.03
					c1.43,0.86,1.89,2.73,1.03,4.16c-9.69,16.06-18.42,25.82-29.47,38.18c-7.31,8.19-15.61,17.46-25.98,30.56
					C685.59,587.27,685.56,587.31,685.52,587.34z"/>
			</g>
			<g>
				<path class="st2" d="M737.71,555.24c-3.2,3.67-6.56,7.25-10.18,11.1c-7.7,8.21-16.44,17.51-27.6,31.73
					c-1.03,1.31-2.94,1.55-4.25,0.51c-1.32-1.03-1.55-2.94-0.51-4.25c11.33-14.44,20.16-23.84,27.95-32.14
					c10.83-11.54,18.66-19.88,26.95-35.21c0.8-1.47,2.63-2.02,4.11-1.22c1.47,0.8,2.02,2.63,1.22,4.11
					C749.65,540.48,743.99,548.03,737.71,555.24z"/>
			</g>
			<g>
				<path class="st2" d="M754.4,564.56c-3.46,3.97-7.15,7.71-11.17,11.77c-7.63,7.73-17.13,17.34-29,32.59
					c-1.02,1.31-2.93,1.56-4.25,0.53c-1.32-1.03-1.56-2.93-0.53-4.25c12.08-15.53,21.72-25.29,29.47-33.12
					c10.48-10.6,18.05-18.27,25.33-33.45c0.72-1.51,2.53-2.14,4.04-1.42c1.51,0.72,2.14,2.53,1.42,4.04
					C764.95,551.17,759.98,558.16,754.4,564.56z"/>
			</g>
		</g>
	</g>
	<g>
		<path class="st1" d="M1030.92,762.83c-10-29.82-27.47-85.41-42.44-108.8c-4.21-6.57-12.63-9.01-19.72-5.74
			c-36.25,16.72-142,64.26-182.28,78.5c-8.01,2.83-12.3,11.56-9.63,19.62c9.81,29.73,33.33,79.7,45.83,104.67
			c3.74,7.47,12.69,10.68,20.33,7.3c37.87-16.75,136.19-61.97,177.93-75.69C1029.2,779.98,1033.68,771.08,1030.92,762.83z"/>
		<g>
			<g>
				<path class="st4" d="M842.51,841.21c0.46,1.22-0.14,2.58-1.36,3.04c-1.22,0.46-2.58-0.14-3.04-1.36
					c-4.87-12.74-11.41-24.44-18.33-36.82c-10.18-18.21-20.7-37.03-26.54-60.65c-0.31-1.26,0.46-2.54,1.72-2.85
					c1.26-0.31,2.54,0.46,2.85,1.72c5.69,23,16.06,41.55,26.08,59.48C830.9,816.31,837.52,828.15,842.51,841.21z"/>
			</g>
			<g>
				<path class="st4" d="M861.52,832.42c0.46,1.21-0.14,2.56-1.34,3.04c-1.21,0.48-2.58-0.12-3.06-1.33
					c-5.46-13.92-12.23-26.65-18.78-38.95c-9.33-17.53-18.97-35.66-25.43-58.06c-0.36-1.25,0.36-2.56,1.61-2.92
					c1.25-0.36,2.55,0.37,2.92,1.61c6.31,21.92,15.84,39.83,25.06,57.15c6.61,12.42,13.45,25.27,19.01,39.44
					C861.52,832.4,861.52,832.41,861.52,832.42z"/>
			</g>
			<g>
				<path class="st4" d="M880.54,823.62c0.46,1.2-0.13,2.55-1.32,3.03c-1.21,0.49-2.58-0.1-3.07-1.31
					c-6.14-15.28-12.85-28.56-19.34-41.4c-8.85-17.52-17.22-34.06-24.2-55.13c-0.41-1.24,0.26-2.57,1.5-2.98
					c1.24-0.41,2.56,0.27,2.98,1.5c6.87,20.73,15.16,37.13,23.93,54.49c6.54,12.93,13.29,26.3,19.51,41.77
					C880.53,823.6,880.54,823.61,880.54,823.62z"/>
			</g>
			<g>
				<path class="st4" d="M899.56,814.83c0.46,1.19-0.12,2.53-1.31,3.02c-1.2,0.49-2.58-0.08-3.08-1.29
					c-7.02-17.1-13.77-31.19-20.29-44.82c-7.85-16.38-15.25-31.86-22.57-51.24c-0.46-1.22,0.15-2.58,1.37-3.04
					c1.22-0.46,2.57,0.15,3.03,1.36c0,0,0,0.01,0,0.01c7.24,19.18,14.61,34.58,22.41,50.87c6.55,13.69,13.33,27.84,20.4,45.07
					C899.55,814.79,899.55,814.81,899.56,814.83z"/>
			</g>
			<g>
				<path class="st4" d="M918.58,806.04c0.45,1.18-0.12,2.52-1.29,3.02c-1.2,0.5-2.58-0.06-3.08-1.27
					c-9.08-21.71-16.57-38.21-23.81-54.17c-6.06-13.36-11.79-25.99-18.38-41.41c-0.51-1.2,0.05-2.58,1.24-3.09
					c1.2-0.51,2.58,0.05,3.09,1.24c6.56,15.38,12.28,27.98,18.34,41.32c7.26,15.99,14.76,32.53,23.87,54.3
					C918.56,805.99,918.57,806.02,918.58,806.04z"/>
			</g>
			<g>
				<path class="st4" d="M937.6,797.25c0.45,1.18-0.11,2.51-1.28,3.01c-1.2,0.51-2.58-0.05-3.09-1.25
					c-4.25-10-8.01-18.95-11.33-26.85c-10.53-25.06-18.13-43.16-30.17-68.25c-0.56-1.18-0.07-2.58,1.11-3.15
					c1.17-0.56,2.58-0.07,3.15,1.11c12.09,25.19,19.71,43.34,30.27,68.46c3.32,7.89,7.08,16.84,11.32,26.83
					C937.57,797.19,937.59,797.22,937.6,797.25z"/>
			</g>
			<g>
				<path class="st4" d="M956.61,788.45c0.45,1.17-0.1,2.5-1.27,3c-1.2,0.52-2.58-0.04-3.1-1.23c-6.9-16-11.97-28.82-16.44-40.14
					c-7.61-19.25-13.62-34.46-24.37-54.48c-0.62-1.14-0.18-2.58,0.96-3.19s2.58-0.18,3.19,0.96c10.88,20.27,16.93,35.58,24.6,54.98
					c4.46,11.28,9.51,24.07,16.39,40C956.59,788.39,956.6,788.42,956.61,788.45z"/>
			</g>
			<g>
				<path class="st4" d="M975.63,779.66c0.45,1.17-0.1,2.49-1.26,3c-1.19,0.52-2.58-0.02-3.1-1.22
					c-7.88-18.02-12.93-31.74-17.39-43.84c-6.58-17.87-11.77-31.98-22.73-50.3c-0.67-1.12-0.3-2.57,0.81-3.23
					c1.12-0.67,2.57-0.3,3.23,0.81c11.18,18.7,16.44,32.99,23.11,51.09c4.43,12.04,9.46,25.68,17.28,43.58
					C975.6,779.59,975.62,779.63,975.63,779.66z"/>
			</g>
			<g>
				<path class="st4" d="M971.15,708.32c2.02,5.29,3.86,10.69,5.84,16.51c4.24,12.46,9.05,26.58,17.61,45.93
					c0.53,1.18-0.01,2.58-1.2,3.11s-2.58-0.01-3.11-1.2c-8.65-19.54-13.49-33.76-17.76-46.31c-5.98-17.57-10.31-30.27-21.65-47.34
					c-0.72-1.08-0.43-2.55,0.66-3.27c1.08-0.72,2.55-0.43,3.27,0.66C962.54,688.05,967.19,697.95,971.15,708.32z"/>
			</g>
			<g>
				<path class="st4" d="M989.82,695.97c2.17,5.68,4,11.54,6.05,18.11c3.79,12.13,8.5,27.22,17.74,47.87c0.51,1.18,0,2.58-1.19,3.11
					c-1.19,0.53-2.58,0-3.11-1.19c-9.35-20.9-14.11-36.14-17.94-48.39c-5.22-16.71-8.99-28.79-20.76-44.78
					c-0.77-1.05-0.55-2.52,0.5-3.3c1.05-0.77,2.52-0.55,3.3,0.5C981.96,678.17,986.33,686.82,989.82,695.97z"/>
			</g>
		</g>
	</g>
	<g>
		<path class="st0" d="M826.44,701.02c26.1-11.48,77.21-32.63,96.56-48.3c4.88-3.96,6.2-10.85,3.06-16.3
			c-17.57-30.51-70.69-124.89-86.29-159.4c-2.85-6.3-10.2-9.2-16.57-6.5c-26.18,11.1-71.33,37.6-92.67,50.86
			c-5.77,3.58-7.72,11.05-4.43,16.99c17.76,32.11,68.18,119.88,83.48,155.94C812.35,700.87,819.93,703.88,826.44,701.02z"/>
		<g>
			<g>
				<path class="st3" d="M742.1,537.69c-1.05,0.52-2.33,0.08-2.84-0.98c-0.52-1.05-0.08-2.33,0.98-2.84
					c11.04-5.4,21.01-12.21,31.57-19.43c15.52-10.61,31.56-21.57,52.29-28.73c1.11-0.38,2.32,0.21,2.7,1.31
					c0.38,1.11-0.2,2.32-1.31,2.7c-20.19,6.97-35.99,17.77-51.28,28.22C763.52,525.25,753.42,532.16,742.1,537.69z"/>
			</g>
			<g>
				<path class="st3" d="M751.53,554.05c-1.05,0.51-2.31,0.09-2.83-0.96c-0.53-1.05-0.1-2.33,0.95-2.85
					c12.05-6.03,22.93-13.14,33.44-20.01c14.98-9.79,30.47-19.91,50.06-27.52c1.09-0.42,2.32,0.12,2.75,1.21
					c0.42,1.09-0.12,2.32-1.21,2.75c-19.17,7.44-34.47,17.44-49.27,27.11c-10.62,6.94-21.59,14.11-33.86,20.25
					C751.55,554.04,751.54,554.04,751.53,554.05z"/>
			</g>
			<g>
				<path class="st3" d="M760.96,570.41c-1.04,0.51-2.3,0.09-2.82-0.94c-0.53-1.05-0.12-2.32,0.93-2.86
					c13.22-6.75,24.59-13.85,35.6-20.71c15.01-9.36,29.18-18.21,47.53-26.18c1.08-0.47,2.33,0.03,2.8,1.1
					c0.47,1.08-0.04,2.33-1.1,2.8c-18.06,7.84-32.1,16.61-46.98,25.89c-11.08,6.91-22.53,14.06-35.91,20.89
					C760.99,570.4,760.97,570.4,760.96,570.41z"/>
			</g>
			<g>
				<path class="st3" d="M770.39,586.77c-1.03,0.5-2.28,0.1-2.82-0.93c-0.54-1.04-0.14-2.32,0.91-2.86
					c14.79-7.68,26.89-14.88,38.59-21.84c14.07-8.37,27.37-16.27,44.17-24.4c1.06-0.51,2.33-0.07,2.84,0.99
					c0.51,1.05,0.07,2.32-0.98,2.83c0,0,0,0-0.01,0c-16.63,8.04-29.86,15.91-43.85,24.23c-11.75,6.99-23.91,14.22-38.8,21.96
					C770.43,586.75,770.41,586.76,770.39,586.77z"/>
			</g>
			<g>
				<path class="st3" d="M779.82,603.13c-1.03,0.5-2.27,0.1-2.81-0.92c-0.55-1.04-0.15-2.32,0.89-2.87
					c18.75-9.9,32.96-17.96,46.7-25.75c11.5-6.52,22.37-12.69,35.68-19.84c1.04-0.57,2.32-0.17,2.88,0.87
					c0.56,1.03,0.17,2.32-0.87,2.88c-13.27,7.13-24.12,13.29-35.6,19.8c-13.77,7.81-28,15.88-46.81,25.81
					C779.86,603.11,779.84,603.12,779.82,603.13z"/>
			</g>
			<g>
				<path class="st3" d="M789.25,619.49c-1.02,0.5-2.26,0.1-2.8-0.91c-0.55-1.03-0.16-2.32,0.87-2.88
					c8.63-4.62,16.36-8.72,23.19-12.34c21.64-11.48,37.28-19.77,58.82-32.6c1.01-0.59,2.31-0.27,2.91,0.74
					c0.6,1.01,0.27,2.31-0.74,2.91c-21.64,12.89-37.31,21.2-59.01,32.7c-6.82,3.62-14.55,7.71-23.17,12.33
					C789.3,619.46,789.28,619.47,789.25,619.49z"/>
			</g>
			<g>
				<path class="st3" d="M798.68,635.85c-1.02,0.5-2.25,0.11-2.8-0.9c-0.56-1.03-0.18-2.32,0.85-2.88
					c13.81-7.49,24.91-13.08,34.7-18.01c16.66-8.39,29.83-15.01,46.93-26.28c0.98-0.65,2.3-0.37,2.94,0.61
					c0.65,0.98,0.37,2.3-0.61,2.94c-17.31,11.4-30.57,18.07-47.36,26.52c-9.77,4.91-20.83,10.49-34.58,17.94
					C798.74,635.82,798.71,635.83,798.68,635.85z"/>
			</g>
			<g>
				<path class="st3" d="M808.11,652.2c-1.01,0.5-2.25,0.11-2.79-0.89c-0.56-1.03-0.19-2.32,0.84-2.88
					c15.54-8.53,27.44-14.17,37.94-19.15c15.5-7.35,27.75-13.15,43.31-24.47c0.95-0.69,2.28-0.48,2.97,0.47
					c0.69,0.95,0.48,2.28-0.47,2.97c-15.88,11.55-28.28,17.43-43.99,24.87c-10.45,4.95-22.29,10.56-37.72,19.03
					C808.17,652.17,808.14,652.19,808.11,652.2z"/>
			</g>
			<g>
				<path class="st3" d="M871.79,642.41c-4.58,2.24-9.28,4.33-14.35,6.58c-10.84,4.82-23.13,10.27-39.8,19.52
					c-1.03,0.57-2.32,0.2-2.89-0.83c-0.57-1.03-0.2-2.32,0.83-2.89c16.84-9.34,29.21-14.84,40.13-19.69
					c15.29-6.79,26.33-11.7,40.74-23.26c0.91-0.73,2.25-0.59,2.99,0.33c0.73,0.92,0.59,2.25-0.33,2.99
					C889.29,633.05,880.77,638.02,871.79,642.41z"/>
			</g>
			<g>
				<path class="st3" d="M884.38,658.18c-4.92,2.4-10.04,4.52-15.77,6.9c-10.58,4.38-23.75,9.83-41.53,19.79
					c-1.01,0.56-2.32,0.21-2.89-0.82c-0.57-1.02-0.21-2.32,0.82-2.89c18-10.08,31.3-15.59,41.98-20.01
					c14.58-6.04,25.12-10.4,38.52-22.26c0.88-0.78,2.22-0.7,3,0.18c0.78,0.88,0.7,2.22-0.18,3
					C899.72,649.68,892.31,654.3,884.38,658.18z"/>
			</g>
		</g>
	</g>
	<g>
		<path class="st3" d="M391.49,683.85c17.87,26.11,51.41,77.56,72.46,95.45c5.31,4.51,13.08,4.53,18.37,0
			c29.66-25.4,121.77-102.7,156.2-126.76c6.28-4.39,7.93-12.99,3.69-19.37c-17.47-26.29-55.63-70.13-74.46-90.69
			c-5.08-5.55-13.61-6.14-19.41-1.35c-31.37,25.93-116.82,98.94-153.02,122.99C388.77,668.47,387.04,677.35,391.49,683.85z"/>
		<g>
			<g>
				<path class="st2" d="M551.42,559.17c-1.17-1.57-0.84-3.78,0.72-4.95c1.57-1.17,3.78-0.84,4.95,0.72
					c8.09,10.87,17.54,20.32,27.54,30.32c14.8,14.81,30.1,30.12,42.22,51.39c0.97,1.7,0.37,3.86-1.32,4.82
					c-1.7,0.97-3.86,0.37-4.82-1.32c-11.65-20.45-26.61-35.42-41.08-49.9C569.44,580.07,559.82,570.44,551.42,559.17z"/>
			</g>
			<g>
				<path class="st2" d="M535.51,572.8c-1.16-1.55-0.85-3.75,0.7-4.93c1.56-1.18,3.77-0.88,4.95,0.68
					c9,11.86,18.95,22.24,28.58,32.27c13.79,14.38,28.04,29.24,40.41,49.15c1.03,1.66,0.52,3.84-1.14,4.87
					c-1.66,1.03-3.84,0.52-4.87-1.14c-11.97-19.27-25.97-33.87-39.5-47.99c-9.76-10.18-19.86-20.71-29.11-32.89
					C535.52,572.82,535.51,572.81,535.51,572.8z"/>
			</g>
			<g>
				<path class="st2" d="M519.6,586.43c-1.15-1.54-0.85-3.73,0.68-4.91c1.55-1.19,3.77-0.91,4.96,0.64
					c10.03,12.99,20.09,23.93,29.81,34.5c13.31,14.48,25.89,28.16,38.39,46.61c1.1,1.62,0.67,3.82-0.94,4.91
					c-1.62,1.1-3.83,0.67-4.91-0.94c-12.2-18.01-24.6-31.51-37.74-45.79c-9.82-10.68-19.98-21.73-30.2-34.97
					C519.62,586.46,519.61,586.45,519.6,586.43z"/>
			</g>
			<g>
				<path class="st2" d="M503.69,600.06c-1.14-1.53-0.86-3.71,0.66-4.89c1.54-1.2,3.76-0.94,4.96,0.6
					c11.39,14.53,21.7,26.24,31.67,37.56c12.02,13.65,23.38,26.54,35.72,43.25c1.16,1.57,0.83,3.78-0.74,4.95
					c-1.57,1.16-3.77,0.83-4.94-0.73c0,0-0.01-0.01-0.01-0.01c-12.16-16.47-23.42-29.24-35.34-42.78
					c-10.04-11.4-20.42-23.19-31.93-37.87C503.72,600.11,503.7,600.09,503.69,600.06z"/>
			</g>
			<g>
				<path class="st2" d="M487.78,613.7c-1.14-1.53-0.86-3.69,0.64-4.88c1.53-1.21,3.75-0.96,4.97,0.57
					c14.63,18.41,26.32,32.25,37.62,45.63c9.47,11.21,18.42,21.8,28.96,34.87c1.23,1.53,0.99,3.75-0.53,4.97
					c-1.52,1.23-3.75,0.99-4.97-0.53c-10.49-13-19.41-23.56-28.86-34.75c-11.34-13.42-23.07-27.3-37.76-45.8
					C487.82,613.76,487.8,613.73,487.78,613.7z"/>
			</g>
			<g>
				<path class="st2" d="M471.86,627.33c-1.13-1.52-0.87-3.67,0.62-4.87c1.52-1.22,3.75-0.98,4.97,0.54
					c6.82,8.48,12.87,16.07,18.22,22.78c16.93,21.23,29.16,36.57,47.54,57.42c1.29,1.46,1.15,3.7-0.31,4.99
					c-1.46,1.29-3.7,1.15-4.99-0.31c-18.5-20.98-30.78-36.37-47.77-57.68c-5.34-6.7-11.4-14.29-18.2-22.75
					C471.92,627.4,471.89,627.36,471.86,627.33z"/>
			</g>
			<g>
				<path class="st2" d="M455.95,640.96c-1.13-1.51-0.87-3.65,0.61-4.85c1.52-1.23,3.74-1,4.97,0.51
					c11.01,13.54,19.38,24.51,26.76,34.18c12.53,16.43,22.43,29.4,38.17,45.7c1.36,1.41,1.32,3.64-0.09,5
					c-1.4,1.36-3.64,1.32-5-0.09c-16.03-16.6-26.04-29.71-38.71-46.32c-7.35-9.64-15.69-20.56-26.63-34.01
					C456.01,641.04,455.98,641,455.95,640.96z"/>
			</g>
			<g>
				<path class="st2" d="M440.04,654.59c-1.12-1.5-0.87-3.64,0.59-4.84c1.51-1.24,3.74-1.02,4.98,0.49
					c12.51,15.23,21.11,27.07,28.69,37.51c11.15,15.35,19.96,27.48,35.4,42.06c1.42,1.34,1.48,3.58,0.14,5
					c-1.34,1.42-3.58,1.48-5,0.14c-15.92-15.03-24.9-27.39-36.27-43.04c-7.53-10.37-16.06-22.12-28.44-37.18
					C440.11,654.68,440.08,654.64,440.04,654.59z"/>
			</g>
			<g>
				<path class="st2" d="M463.77,722.05c-3.39-4.56-6.65-9.27-10.15-14.35c-7.46-10.82-15.91-23.08-29.37-39.32
					c-1.24-1.5-1.04-3.73,0.47-4.98c1.5-1.25,3.73-1.04,4.98,0.47c13.67,16.49,22.21,28.89,29.75,39.82
					c10.48,15.21,18.06,26.2,33.5,39.44c1.48,1.27,1.65,3.5,0.38,4.99c-1.27,1.48-3.5,1.65-4.99,0.38
					C477.64,739.32,470.44,731,463.77,722.05z"/>
			</g>
			<g>
				<path class="st2" d="M449.02,738.79c-3.67-4.93-7.02-10.06-10.66-15.65c-6.93-10.62-15.55-23.83-30.01-41.13
					c-1.24-1.49-1.05-3.73,0.45-4.98c1.5-1.25,3.73-1.05,4.98,0.45c14.73,17.62,23.47,31.03,30.5,41.8
					c9.51,14.57,16.38,25.1,31.89,37.16c1.55,1.2,1.82,3.42,0.62,4.96c-1.2,1.54-3.42,1.82-4.96,0.62
					C461.68,754.13,454.93,746.73,449.02,738.79z"/>
			</g>
		</g>
	</g>
	<g>
		<path class="st1" d="M734.16,795.35c26.51-11.62,76-32.23,96.2-47.87c5.68-4.4,7.21-12.32,3.63-18.55
			c-18.31-31.84-70.61-124.83-86.99-160.56c-3.26-7.11-11.61-10.31-18.78-7.21c-26.44,11.45-70.29,37.12-92.14,50.64
			c-6.54,4.05-8.74,12.51-5.02,19.23c18.48,33.33,68.03,119.7,84.05,156.81C718.3,795.18,726.83,798.56,734.16,795.35z"/>
		<g>
			<g>
				<path class="st4" d="M646.78,629.15c-1.08,0.53-2.38,0.08-2.9-1c-0.53-1.08-0.08-2.38,1-2.9c11.27-5.51,21.45-12.47,32.23-19.84
					c15.84-10.83,32.23-22.03,53.39-29.33c1.13-0.39,2.37,0.21,2.76,1.34c0.39,1.13-0.21,2.37-1.34,2.76
					c-20.61,7.12-36.75,18.15-52.36,28.81C668.64,616.46,658.33,623.5,646.78,629.15z"/>
			</g>
			<g>
				<path class="st4" d="M656.41,645.85c-1.07,0.52-2.36,0.09-2.89-0.98c-0.54-1.07-0.1-2.37,0.97-2.91
					c12.31-6.16,23.41-13.41,34.14-20.43c15.3-10,31.11-20.33,51.1-28.09c1.12-0.43,2.37,0.12,2.81,1.24
					c0.43,1.12-0.13,2.37-1.24,2.81c-19.57,7.6-35.19,17.81-50.3,27.68c-10.84,7.08-22.05,14.41-34.58,20.68
					C656.42,645.85,656.41,645.85,656.41,645.85z"/>
			</g>
			<g>
				<path class="st4" d="M666.03,662.56c-1.06,0.52-2.34,0.09-2.88-0.96c-0.54-1.07-0.12-2.37,0.95-2.92
					c13.5-6.89,25.11-14.14,36.34-21.14c15.32-9.56,29.8-18.59,48.53-26.73c1.1-0.48,2.38,0.03,2.85,1.13
					c0.48,1.1-0.04,2.37-1.13,2.85c-18.43,8.01-32.78,16.96-47.96,26.43c-11.31,7.06-23.01,14.35-36.67,21.33
					C666.06,662.54,666.04,662.55,666.03,662.56z"/>
			</g>
			<g>
				<path class="st4" d="M675.66,679.26c-1.05,0.52-2.33,0.1-2.88-0.95c-0.55-1.06-0.14-2.37,0.92-2.92
					c15.1-7.85,27.45-15.19,39.4-22.3c14.36-8.54,27.94-16.61,45.09-24.92c1.08-0.52,2.38-0.07,2.9,1.01c0.52,1.08,0.07,2.37-1,2.89
					c0,0-0.01,0-0.01,0c-16.98,8.22-30.49,16.25-44.77,24.74c-12,7.14-24.41,14.52-39.62,22.42
					C675.69,679.24,675.68,679.25,675.66,679.26z"/>
			</g>
			<g>
				<path class="st4" d="M685.29,695.96c-1.05,0.51-2.32,0.1-2.87-0.94c-0.56-1.06-0.15-2.37,0.91-2.93
					c19.14-10.11,33.65-18.33,47.68-26.29c11.75-6.66,22.84-12.95,36.44-20.26c1.06-0.57,2.37-0.17,2.94,0.88
					c0.57,1.05,0.17,2.37-0.88,2.94c-13.55,7.29-24.63,13.57-36.35,20.21c-14.06,7.97-28.59,16.21-47.79,26.35
					C685.33,695.94,685.31,695.95,685.29,695.96z"/>
			</g>
			<g>
				<path class="st4" d="M694.92,712.66c-1.04,0.51-2.31,0.11-2.86-0.93c-0.57-1.06-0.17-2.37,0.89-2.94
					c8.81-4.72,16.71-8.91,23.67-12.6c22.09-11.72,38.06-20.18,60.06-33.28c1.04-0.61,2.36-0.28,2.97,0.75s0.28,2.36-0.75,2.97
					c-22.09,13.16-38.09,21.64-60.24,33.39c-6.96,3.69-14.85,7.88-23.66,12.59C694.96,712.64,694.94,712.65,694.92,712.66z"/>
			</g>
			<g>
				<path class="st4" d="M704.54,729.37c-1.04,0.51-2.3,0.11-2.86-0.92c-0.57-1.05-0.18-2.37,0.87-2.94
					c14.1-7.65,25.43-13.35,35.43-18.38c17.01-8.56,30.45-15.33,47.92-26.83c1-0.66,2.35-0.38,3,0.62c0.66,1,0.38,2.35-0.62,3
					c-17.67,11.64-31.21,18.45-48.35,27.08c-9.97,5.02-21.27,10.71-35.31,18.32C704.6,729.34,704.57,729.35,704.54,729.37z"/>
			</g>
			<g>
				<path class="st4" d="M714.17,746.07c-1.03,0.51-2.29,0.11-2.85-0.91c-0.58-1.05-0.19-2.37,0.86-2.94
					c15.87-8.71,28.02-14.47,38.74-19.55c15.83-7.5,28.33-13.43,44.22-24.98c0.97-0.7,2.33-0.49,3.03,0.48
					c0.7,0.97,0.49,2.33-0.48,3.03c-16.21,11.79-28.88,17.79-44.91,25.39c-10.67,5.06-22.76,10.79-38.51,19.43
					C714.23,746.04,714.2,746.05,714.17,746.07z"/>
			</g>
			<g>
				<path class="st4" d="M779.18,736.07c-4.68,2.29-9.48,4.42-14.65,6.72c-11.07,4.92-23.61,10.49-40.63,19.93
					c-1.04,0.59-2.37,0.2-2.95-0.84c-0.58-1.05-0.2-2.37,0.84-2.95c17.19-9.54,29.83-15.15,40.98-20.1
					c15.61-6.93,26.89-11.94,41.59-23.74c0.93-0.75,2.3-0.6,3.05,0.33c0.75,0.93,0.6,2.3-0.33,3.05
					C797.05,726.51,788.36,731.59,779.18,736.07z"/>
			</g>
			<g>
				<path class="st4" d="M792.03,752.17c-5.02,2.46-10.25,4.62-16.1,7.04c-10.8,4.47-24.25,10.04-42.4,20.21
					c-1.04,0.57-2.37,0.21-2.95-0.83c-0.59-1.05-0.21-2.37,0.83-2.95c18.38-10.29,31.95-15.92,42.86-20.43
					c14.89-6.16,25.64-10.62,39.33-22.72c0.89-0.79,2.27-0.71,3.06,0.19c0.79,0.9,0.71,2.27-0.19,3.06
					C807.7,743.49,800.13,748.21,792.03,752.17z"/>
			</g>
		</g>
	</g>
	<g>
		<path class="st0" d="M486.18,604.5c25.07,11.81,73.18,35.79,97,39.98c6.02,1.06,11.91-2.38,13.9-8.15
			c11.16-32.35,46.46-131.5,61.81-164.95c2.8-6.11,0.24-13.35-5.81-16.3c-24.84-12.11-73.07-28.31-96.4-35.5
			c-6.3-1.94-13.03,1.39-15.29,7.59c-12.21,33.51-44.39,126.46-61.07,160.69C477.3,594.07,479.93,601.55,486.18,604.5z"/>
		<g>
			<g>
				<path class="st3" d="M552.13,438.47c-1.05-0.44-1.54-1.66-1.1-2.71c0.44-1.05,1.66-1.54,2.71-1.1
					c11,4.65,22.36,7.61,34.38,10.75c17.68,4.61,35.95,9.38,54.42,20.01c0.99,0.57,1.33,1.83,0.76,2.82
					c-0.57,0.99-1.83,1.33-2.82,0.76c-17.99-10.35-35.99-15.05-53.4-19.59C574.9,446.24,563.4,443.24,552.13,438.47z"/>
			</g>
			<g>
				<path class="st3" d="M546.15,455.82c-1.04-0.44-1.54-1.64-1.1-2.69c0.43-1.05,1.64-1.56,2.7-1.12
					c12.11,4.99,24.26,8.43,36,11.75c16.73,4.74,34.04,9.64,52.11,19.14c1.01,0.53,1.4,1.78,0.87,2.79
					c-0.53,1.01-1.78,1.39-2.79,0.87c-17.68-9.31-34.78-14.14-51.31-18.82c-11.86-3.36-24.12-6.83-36.45-11.91
					C546.16,455.83,546.15,455.82,546.15,455.82z"/>
			</g>
			<g>
				<path class="st3" d="M540.17,473.17c-1.03-0.44-1.53-1.63-1.11-2.67c0.43-1.06,1.63-1.57,2.69-1.14
					c13.38,5.39,25.84,9.2,37.89,12.89c16.44,5.03,31.97,9.78,49.51,18.15c1.03,0.49,1.47,1.72,0.97,2.75
					c-0.49,1.03-1.74,1.46-2.75,0.97c-17.27-8.23-32.66-12.94-48.95-17.93c-12.13-3.71-24.68-7.55-38.23-13
					C540.19,473.18,540.18,473.18,540.17,473.17z"/>
			</g>
			<g>
				<path class="st3" d="M534.19,490.52c-1.03-0.43-1.53-1.61-1.12-2.66c0.42-1.06,1.62-1.58,2.68-1.16
					c15.07,5.94,28.06,10.22,40.63,14.36c15.11,4.98,29.39,9.69,46.07,16.81c1.05,0.45,1.54,1.66,1.09,2.71
					c-0.45,1.05-1.66,1.53-2.7,1.09c0,0,0,0-0.01,0c-16.51-7.06-30.71-11.74-45.74-16.69c-12.62-4.16-25.68-8.46-40.85-14.44
					C534.22,490.53,534.21,490.53,534.19,490.52z"/>
			</g>
			<g>
				<path class="st3" d="M528.21,507.87c-1.02-0.43-1.52-1.6-1.12-2.65c0.41-1.06,1.61-1.59,2.67-1.18
					c19.22,7.43,34.19,12.71,48.67,17.81c12.12,4.27,23.57,8.31,37.31,13.5c1.08,0.4,1.6,1.59,1.2,2.66c-0.4,1.07-1.59,1.6-2.66,1.2
					c-13.7-5.18-25.13-9.21-37.22-13.47c-14.51-5.11-29.51-10.4-48.79-17.85C528.25,507.89,528.23,507.88,528.21,507.87z"/>
			</g>
			<g>
				<path class="st3" d="M522.24,525.22c-1.02-0.43-1.52-1.59-1.12-2.63c0.4-1.07,1.6-1.6,2.66-1.2c8.9,3.38,16.83,6.43,23.84,9.12
					c22.22,8.54,38.27,14.72,61.43,22.33c1.08,0.36,1.67,1.52,1.32,2.61c-0.36,1.08-1.52,1.67-2.61,1.32
					c-23.25-7.64-39.34-13.83-61.62-22.4c-7-2.69-14.93-5.74-23.82-9.12C522.28,525.24,522.26,525.23,522.24,525.22z"/>
			</g>
			<g>
				<path class="st3" d="M516.26,542.57c-1.01-0.43-1.52-1.58-1.13-2.62c0.4-1.07,1.59-1.61,2.66-1.21
					c14.3,5.34,25.48,9.92,35.34,13.95c16.78,6.87,30.03,12.29,49.2,17.65c1.1,0.3,1.74,1.45,1.43,2.54
					c-0.31,1.1-1.45,1.74-2.54,1.43c-19.4-5.42-32.75-10.88-49.66-17.8c-9.83-4.02-20.98-8.59-35.22-13.91
					C516.31,542.59,516.28,542.58,516.26,542.57z"/>
			</g>
			<g>
				<path class="st3" d="M510.28,559.92c-1.01-0.43-1.51-1.58-1.13-2.61c0.39-1.07,1.58-1.62,2.65-1.22
					c16.17,5.95,27.9,11.08,38.25,15.6c15.28,6.68,27.35,11.95,45.57,16.14c1.11,0.26,1.8,1.36,1.55,2.47
					c-0.26,1.11-1.36,1.81-2.47,1.55c-18.59-4.27-30.82-9.62-46.29-16.38c-10.29-4.5-21.96-9.6-38.02-15.51
					C510.34,559.94,510.31,559.93,510.28,559.92z"/>
			</g>
			<g>
				<path class="st3" d="M558.08,600.36c-4.57-1.93-9.1-4.05-13.98-6.32c-10.45-4.88-22.28-10.4-39.7-16.72
					c-1.07-0.39-1.62-1.57-1.24-2.65c0.39-1.07,1.57-1.63,2.65-1.24c17.59,6.38,29.51,11.95,40.04,16.86
					c14.73,6.88,25.37,11.84,43.04,15.03c1.12,0.2,1.87,1.28,1.67,2.4c-0.2,1.12-1.28,1.87-2.4,1.67
					C576.11,607.21,567.03,604.14,558.08,600.36z"/>
			</g>
			<g>
				<path class="st3" d="M554.55,619.64c-4.9-2.07-9.72-4.47-15.11-7.16c-9.96-4.96-22.36-11.14-41.01-17.82
					c-1.06-0.38-1.63-1.57-1.25-2.64c0.38-1.07,1.57-1.63,2.64-1.25c18.88,6.76,31.39,13,41.45,18.01
					c13.73,6.84,23.65,11.78,40.89,14.04c1.13,0.15,1.93,1.18,1.78,2.32c-0.15,1.13-1.18,1.93-2.32,1.78
					C570.57,625.47,562.45,622.98,554.55,619.64z"/>
			</g>
		</g>
	</g>
	<g>
		<path class="st3" d="M789.02,1041.86c16.4-30.1,49.53-87.82,56.42-116.94c1.74-7.34-2.07-14.85-9.05-17.73
			c-39.12-16.12-159.09-66.94-199.26-88.31c-7.33-3.9-16.44-1.26-20.51,5.98c-16.77,29.8-40.28,88.23-50.84,116.52
			c-2.85,7.63,0.78,16.16,8.25,19.39c40.48,17.5,153.01,64.01,194.05,87.09C775.52,1052.05,784.93,1049.35,789.02,1041.86z"/>
		<g>
			<g>
				<path class="st2" d="M589.93,948.93c-0.94,1.9-3.23,2.68-5.13,1.74c-1.9-0.94-2.68-3.23-1.74-5.13
					c6.5-13.16,10.97-26.93,15.7-41.51c7-21.57,14.24-43.88,28.8-66.06c1.16-1.77,3.54-2.26,5.31-1.1c1.77,1.16,2.26,3.54,1.1,5.31
					c-14,21.32-21.07,43.13-27.92,64.22C601.22,921.24,596.67,935.27,589.93,948.93z"/>
			</g>
			<g>
				<path class="st2" d="M610.92,957.57c-0.93,1.88-3.2,2.67-5.1,1.75c-1.91-0.92-2.71-3.21-1.79-5.12
					c7.01-14.53,12.12-29.24,17.07-43.47c7.08-20.39,14.41-41.46,27.53-63.2c1.09-1.81,3.45-2.39,5.26-1.3s2.39,3.45,1.3,5.26
					c-12.7,21.05-19.9,41.74-26.85,61.76c-5.02,14.43-10.2,29.36-17.4,44.29C610.93,957.55,610.92,957.56,610.92,957.57z"/>
			</g>
			<g>
				<path class="st2" d="M631.91,966.21c-0.92,1.87-3.18,2.66-5.07,1.77c-1.91-0.9-2.73-3.19-1.83-5.1
					c7.6-16.08,13.2-31.17,18.62-45.76c7.42-19.98,14.43-38.86,26.08-60c1.02-1.85,3.35-2.53,5.2-1.51c1.85,1.02,2.53,3.36,1.51,5.2
					c-11.38,20.65-18.29,39.26-25.61,58.97c-5.47,14.74-11.13,29.98-18.87,46.37C631.93,966.17,631.92,966.19,631.91,966.21z"/>
			</g>
			<g>
				<path class="st2" d="M652.9,974.85c-0.92,1.86-3.15,2.65-5.05,1.78c-1.92-0.89-2.75-3.17-1.86-5.09
					c8.41-18.14,14.63-33.86,20.65-49.07c7.25-18.32,14.1-35.63,24.15-55.77c0.94-1.89,3.24-2.66,5.14-1.72
					c1.89,0.94,2.66,3.23,1.73,5.12c0,0,0,0.01-0.01,0.01c-9.91,19.85-16.69,37-23.88,55.17c-6.06,15.3-12.32,31.13-20.82,49.47
					C652.93,974.8,652.92,974.82,652.9,974.85z"/>
			</g>
			<g>
				<path class="st2" d="M673.89,983.49c-0.91,1.85-3.13,2.65-5.02,1.79c-1.93-0.88-2.78-3.15-1.9-5.07
					c10.56-23.18,18.16-41.28,25.51-58.78c6.16-14.66,11.97-28.52,19.39-45.12c0.87-1.94,3.13-2.8,5.06-1.94
					c1.93,0.86,2.8,3.13,1.94,5.06c-7.38,16.53-13.18,30.34-19.32,44.96c-7.37,17.55-14.99,35.71-25.6,59
					C673.93,983.42,673.91,983.46,673.89,983.49z"/>
			</g>
			<g>
				<path class="st2" d="M694.89,992.13c-0.91,1.84-3.12,2.64-5,1.8c-1.93-0.87-2.79-3.13-1.93-5.06
					c4.82-10.75,9.17-20.34,13.01-28.8c12.15-26.8,20.93-46.15,31.99-74.16c0.77-1.96,3-2.93,4.97-2.16c1.97,0.78,2.93,3,2.16,4.97
					c-11.13,28.18-19.94,47.62-32.14,74.51c-3.83,8.45-8.18,18.03-12.99,28.77C694.93,992.05,694.91,992.09,694.89,992.13z"/>
			</g>
			<g>
				<path class="st2" d="M715.88,1000.77c-0.9,1.83-3.1,2.64-4.98,1.81c-1.94-0.86-2.81-3.12-1.96-5.05
					c7.64-17.29,14.11-30.77,19.81-42.66c9.68-20.19,17.32-36.13,25.3-59.35c0.69-2,2.87-3.07,4.87-2.38c2,0.69,3.07,2.87,2.38,4.87
					c-8.12,23.64-15.85,39.76-25.64,60.17c-5.68,11.84-12.11,25.27-19.71,42.45C715.93,1000.68,715.9,1000.73,715.88,1000.77z"/>
			</g>
			<g>
				<path class="st2" d="M736.87,1009.41c-0.9,1.82-3.08,2.63-4.97,1.81c-1.94-0.85-2.83-3.1-1.98-5.04
					c8.54-19.57,15.73-33.7,22.07-46.17c9.33-18.33,16.69-32.8,23.15-54.88c0.6-2.03,2.72-3.2,4.75-2.6c2.03,0.59,3.2,2.72,2.6,4.75
					c-6.66,22.77-14.17,37.52-23.68,56.2c-6.3,12.37-13.43,26.39-21.88,45.76C736.92,1009.3,736.9,1009.36,736.87,1009.41z"/>
			</g>
			<g>
				<path class="st2" d="M790.28,953.29c-2.73,5.52-5.68,10.98-8.85,16.86c-6.76,12.52-14.43,26.72-23.48,47.71
					c-0.84,1.93-3.09,2.84-5.03,2c-1.94-0.84-2.84-3.09-2-5.03c9.18-21.31,16.94-35.66,23.78-48.32
					c9.51-17.61,16.39-30.33,21.57-51.75c0.5-2.06,2.57-3.32,4.62-2.82c2.06,0.5,3.32,2.57,2.82,4.62
					C800.11,931.4,795.64,942.45,790.28,953.29z"/>
			</g>
			<g>
				<path class="st2" d="M813.7,959.29c-2.95,5.97-6.25,11.73-9.85,18c-6.83,11.91-15.34,26.74-24.91,49.21
					c-0.82,1.93-3.08,2.85-5.03,2.02c-1.95-0.83-2.85-3.08-2.02-5.03c9.75-22.89,18.38-37.93,25.31-50.02
					c9.38-16.35,16.16-28.16,20.15-49.08c0.4-2.08,2.4-3.44,4.48-3.04c2.08,0.4,3.44,2.4,3.04,4.48
					C822.28,939.51,818.45,949.67,813.7,959.29z"/>
			</g>
		</g>
	</g>
	<g>
		<path class="st1" d="M908.73,785.91c7.5-30.55,22.45-86.86,22.31-114.63c-0.04-7.8-5.86-14.37-13.59-15.4
			c-39.58-5.26-154.36-21.62-196.01-31.12c-8.28-1.89-16.57,3.19-18.63,11.43c-7.61,30.37-14.45,85.17-17.23,112.95
			c-0.83,8.31,5.01,15.81,13.27,17.04c40.96,6.1,148.22,20.46,190.83,31.17C898.1,799.47,906.65,794.35,908.73,785.91z"/>
		<g>
			<g>
				<path class="st4" d="M707.6,751.4c-0.26,1.28-1.5,2.1-2.78,1.84c-1.28-0.26-2.1-1.5-1.84-2.78c2.7-13.37,3.43-26.75,4.2-40.92
					c1.13-20.83,2.31-42.36,10-65.44c0.41-1.24,1.75-1.9,2.98-1.49c1.23,0.41,1.9,1.74,1.49,2.98c-7.49,22.48-8.64,43.69-9.76,64.21
					C711.1,724.15,710.37,737.7,707.6,751.4z"/>
			</g>
			<g>
				<path class="st4" d="M728.37,754.14c-0.26,1.27-1.48,2.09-2.76,1.85c-1.28-0.25-2.12-1.48-1.87-2.76
					c2.83-14.69,3.91-29.06,4.95-42.96c1.49-19.8,3.03-40.28,9.55-62.66c0.36-1.25,1.67-1.97,2.92-1.6c1.25,0.36,1.96,1.68,1.6,2.92
					c-6.39,21.9-7.91,42.13-9.38,61.69c-1.06,14.03-2.15,28.54-5.03,43.49C728.38,754.12,728.37,754.13,728.37,754.14z"/>
			</g>
			<g>
				<path class="st4" d="M749.15,756.87c-0.25,1.26-1.47,2.08-2.74,1.85c-1.28-0.24-2.13-1.46-1.89-2.74
					c2.98-16.2,4.41-31.01,5.79-45.33c1.88-19.54,3.67-37.99,9.03-59.53c0.31-1.26,1.59-2.03,2.86-1.72
					c1.26,0.32,2.02,1.6,1.72,2.86c-5.28,21.19-7.05,39.48-8.91,58.84c-1.39,14.42-2.83,29.33-5.85,45.73
					C749.15,756.85,749.15,756.86,749.15,756.87z"/>
			</g>
			<g>
				<path class="st4" d="M769.92,759.61c-0.25,1.25-1.46,2.08-2.72,1.85c-1.28-0.23-2.14-1.45-1.91-2.73
					c3.21-18.21,5.04-33.72,6.82-48.73c2.13-18.04,4.14-35.08,8.32-55.37c0.26-1.28,1.51-2.1,2.78-1.83
					c1.27,0.26,2.09,1.5,1.83,2.78c0,0,0,0.01,0,0.01c-4.14,20.08-6.14,37.04-8.26,54.97c-1.78,15.07-3.62,30.65-6.85,48.99
					C769.93,759.57,769.92,759.59,769.92,759.61z"/>
			</g>
			<g>
				<path class="st4" d="M790.69,762.35c-0.25,1.24-1.45,2.07-2.71,1.86c-1.28-0.22-2.15-1.43-1.93-2.72
					c3.94-23.2,6.43-41.15,8.84-58.51c2.02-14.54,3.93-28.27,6.61-44.82c0.21-1.29,1.42-2.16,2.7-1.95c1.28,0.21,2.16,1.42,1.95,2.7
					c-2.68,16.51-4.58,30.21-6.6,44.72c-2.42,17.39-4.92,35.38-8.87,58.65C790.7,762.3,790.69,762.33,790.69,762.35z"/>
			</g>
			<g>
				<path class="st4" d="M811.46,765.09c-0.25,1.24-1.44,2.06-2.69,1.86c-1.28-0.21-2.16-1.42-1.95-2.71
					c1.75-10.72,3.36-20.3,4.78-28.75c4.5-26.8,7.75-46.17,11-73.81c0.16-1.3,1.32-2.22,2.62-2.07s2.22,1.32,2.07,2.62
					c-3.26,27.75-6.52,47.17-11.03,74.04c-1.42,8.44-3.03,18.02-4.78,28.73C811.47,765.03,811.47,765.06,811.46,765.09z"/>
			</g>
			<g>
				<path class="st4" d="M832.23,767.83c-0.25,1.23-1.43,2.06-2.68,1.86c-1.29-0.2-2.16-1.41-1.96-2.7
					c2.72-17.21,5.29-30.76,7.56-42.71c3.86-20.34,6.91-36.4,8.54-59.07c0.09-1.3,1.22-2.28,2.52-2.18s2.28,1.22,2.18,2.52
					c-1.64,22.94-4.72,39.12-8.61,59.61c-2.26,11.92-4.83,25.43-7.54,42.57C832.25,767.76,832.24,767.8,832.23,767.83z"/>
			</g>
			<g>
				<path class="st4" d="M853.01,770.57c-0.25,1.23-1.42,2.05-2.67,1.86c-1.29-0.2-2.17-1.4-1.97-2.69
					c2.98-19.44,6.04-33.73,8.75-46.34c3.99-18.62,7.15-33.32,7.69-54.66c0.04-1.3,1.11-2.33,2.42-2.3c1.3,0.03,2.33,1.11,2.3,2.42
					c-0.55,21.78-3.74,36.67-7.79,55.53c-2.69,12.54-5.74,26.76-8.7,46.07C853.02,770.49,853.01,770.53,853.01,770.57z"/>
			</g>
			<g>
				<path class="st4" d="M887.37,707.88c-1.12,5.55-2.46,11.1-3.89,17.08c-3.08,12.8-6.56,27.3-9.67,48.23
					c-0.18,1.28-1.39,2.18-2.68,1.99s-2.18-1.39-1.99-2.68c3.14-21.13,6.65-35.74,9.75-48.64c4.34-18.05,7.47-31.09,7.02-51.58
					c-0.03-1.3,1-2.38,2.3-2.41c1.3-0.03,2.38,1,2.41,2.3C890.93,686.15,889.56,697,887.37,707.88z"/>
			</g>
			<g>
				<path class="st4" d="M909.75,707.44c-1.2,5.96-2.79,11.89-4.57,18.54c-3.28,12.28-7.37,27.55-10.6,49.93
					c-0.2,1.27-1.38,2.18-2.67,2c-1.29-0.19-2.18-1.38-2-2.67c3.27-22.66,7.4-38.08,10.71-50.48c4.53-16.92,7.8-29.14,6.4-48.94
					c-0.09-1.3,0.89-2.43,2.19-2.52c1.3-0.09,2.43,0.89,2.52,2.19C912.62,688.19,911.68,697.83,909.75,707.44z"/>
			</g>
		</g>
	</g>
	<g>
		<path class="st0" d="M332.31,881.64c17.89,27.2,51.4,80.73,72.71,99.53c5.38,4.75,13.39,4.91,18.93,0.35
			c31.01-25.58,127.18-103.31,163.06-127.42c6.56-4.41,8.42-13.23,4.17-19.89c-17.47-27.37-55.88-73.17-74.86-94.67
			c-5.13-5.81-13.91-6.59-19.97-1.76c-32.78,26.09-122.01,99.53-159.71,123.6C329.8,865.75,327.85,874.86,332.31,881.64z"/>
		<g>
			<g>
				<path class="st3" d="M500.17,755.67c-0.78-1.09-0.53-2.6,0.56-3.38c1.09-0.78,2.6-0.53,3.38,0.56
					c8.17,11.4,17.74,21.34,27.87,31.85c14.89,15.46,30.28,31.44,42.28,53.41c0.64,1.18,0.21,2.65-0.97,3.29
					c-1.18,0.64-2.65,0.21-3.29-0.97c-11.68-21.41-26.85-37.15-41.51-52.37C518.24,777.42,508.55,767.36,500.17,755.67z"/>
			</g>
			<g>
				<path class="st3" d="M483.55,769.4c-0.77-1.08-0.53-2.59,0.54-3.37c1.08-0.79,2.6-0.55,3.39,0.53
					c9.08,12.43,19.14,23.32,28.88,33.85c13.87,15.01,28.21,30.52,40.49,51.13c0.69,1.15,0.31,2.64-0.84,3.33
					c-1.15,0.69-2.63,0.3-3.33-0.84c-12.02-20.17-26.18-35.5-39.88-50.32c-9.83-10.63-19.99-21.63-29.23-34.28
					C483.56,769.41,483.55,769.4,483.55,769.4z"/>
			</g>
			<g>
				<path class="st3" d="M466.92,783.12c-0.77-1.07-0.54-2.57,0.53-3.36c1.08-0.8,2.59-0.58,3.39,0.5
					c10.11,13.6,20.26,25.06,30.08,36.14c13.39,15.12,26.04,29.4,38.5,48.54c0.73,1.12,0.41,2.63-0.71,3.36
					c-1.12,0.73-2.63,0.4-3.36-0.71c-12.26-18.84-24.79-32.99-38.06-47.97c-9.89-11.16-20.11-22.7-30.34-36.47
					C466.94,783.14,466.93,783.13,466.92,783.12z"/>
			</g>
			<g>
				<path class="st3" d="M450.29,796.84c-0.76-1.07-0.54-2.55,0.51-3.35c1.07-0.81,2.59-0.59,3.4,0.48
					c11.46,15.19,21.86,27.45,31.92,39.3c12.09,14.25,23.51,27.72,35.86,45.09c0.78,1.09,0.52,2.61-0.57,3.38
					c-1.09,0.77-2.6,0.52-3.38-0.56c0,0,0-0.01-0.01-0.01c-12.21-17.2-23.59-30.59-35.61-44.76c-10.1-11.91-20.55-24.22-32.09-39.52
					C450.32,796.88,450.3,796.86,450.29,796.84z"/>
			</g>
			<g>
				<path class="st3" d="M433.66,810.57c-0.76-1.06-0.54-2.54,0.5-3.34c1.06-0.81,2.59-0.61,3.4,0.45
					c14.71,19.23,26.48,33.7,37.86,47.69c9.53,11.71,18.53,22.77,29.12,36.41c0.84,1.07,0.63,2.58-0.43,3.4
					c-1.06,0.82-2.58,0.63-3.4-0.43c-10.55-13.59-19.54-24.63-29.05-36.32c-11.4-14.02-23.2-28.51-37.95-47.8
					C433.69,810.61,433.68,810.59,433.66,810.57z"/>
			</g>
			<g>
				<path class="st3" d="M417.04,824.29c-0.76-1.06-0.55-2.53,0.49-3.33c1.06-0.82,2.58-0.63,3.4,0.43
					c6.85,8.84,12.93,16.77,18.3,23.76c17.03,22.18,29.33,38.21,47.88,60.03c0.86,1.02,0.74,2.55-0.28,3.42
					c-1.02,0.87-2.55,0.74-3.42-0.28c-18.62-21.91-30.95-37.98-48.03-60.22c-5.37-6.99-11.45-14.91-18.28-23.74
					C417.07,824.34,417.05,824.32,417.04,824.29z"/>
			</g>
			<g>
				<path class="st3" d="M400.41,838.01c-0.75-1.05-0.55-2.52,0.48-3.32c1.05-0.83,2.58-0.64,3.4,0.41
					c11.06,14.12,19.45,25.56,26.86,35.64c12.61,17.17,22.56,30.73,38.5,47.85c0.92,0.98,0.86,2.52-0.12,3.43
					c-0.98,0.91-2.52,0.86-3.43-0.12c-16.12-17.32-26.16-30.99-38.86-48.28c-7.39-10.06-15.76-21.46-26.77-35.53
					C400.45,838.07,400.43,838.04,400.41,838.01z"/>
			</g>
			<g>
				<path class="st3" d="M383.78,851.74c-0.75-1.05-0.55-2.51,0.47-3.31c1.05-0.83,2.58-0.65,3.41,0.4
					c12.56,15.88,21.17,28.2,28.77,39.08c11.22,16.06,20.08,28.74,35.77,44.11c0.96,0.94,0.97,2.47,0.04,3.43
					c-0.94,0.96-2.47,0.97-3.43,0.04c-16.02-15.68-24.99-28.53-36.35-44.8c-7.56-10.82-16.13-23.09-28.59-38.85
					C383.83,851.8,383.81,851.77,383.78,851.74z"/>
			</g>
			<g>
				<path class="st3" d="M406.9,921.57c-3.39-4.73-6.64-9.63-10.13-14.9c-7.48-11.29-15.96-24.09-29.54-41.1
					c-0.84-1.05-0.66-2.57,0.38-3.41s2.57-0.66,3.41,0.38c13.71,17.18,22.25,30.07,29.79,41.44c10.55,15.92,18.17,27.43,33.92,41.45
					c1,0.89,1.09,2.42,0.2,3.42c-0.89,1-2.42,1.09-3.42,0.2C420.77,939.49,413.55,930.85,406.9,921.57z"/>
			</g>
			<g>
				<path class="st3" d="M391.54,938.73c-3.64-5.08-7-10.44-10.76-16.44c-6.94-11.08-15.58-24.87-30.17-43
					c-0.83-1.03-0.67-2.57,0.37-3.41c1.04-0.84,2.57-0.68,3.41,0.37c14.77,18.35,23.49,32.27,30.5,43.46
					c9.57,15.27,16.48,26.3,32.37,39.14c1.04,0.84,1.21,2.37,0.36,3.41c-0.84,1.04-2.37,1.2-3.41,0.36
					C404.02,954.39,397.41,946.93,391.54,938.73z"/>
			</g>
		</g>
	</g>
</g>
</svg>
