<?xml version="1.0" encoding="utf-8"?>
<!-- Generator: Adobe Illustrator 25.2.0, SVG Export Plug-In . SVG Version: 6.00 Build 0)  -->
<svg version="1.1" xmlns="http://www.w3.org/2000/svg" xmlns:xlink="http://www.w3.org/1999/xlink" x="0px" y="0px"
	 viewBox="0 0 1080 1080" style="enable-background:new 0 0 1080 1080;" xml:space="preserve">
<style type="text/css">
	.st0{fill:#FF0049;}
	.st1{fill:#FF5072;}
	.st2{fill:#FF85A2;}
	.st3{fill:#A5003F;}
	.st4{fill:#D30046;}
	.st5{fill:none;stroke:#A5003F;stroke-width:20;stroke-linecap:round;stroke-miterlimit:10;}
	.st6{fill:none;stroke:#FFFFFF;stroke-width:15;stroke-linecap:round;stroke-miterlimit:10;}
	.st7{fill:none;stroke:#FF0049;stroke-width:70;stroke-linecap:round;stroke-miterlimit:10;}
	.st8{fill:none;stroke:#FFFFFF;stroke-width:10;stroke-linecap:round;stroke-miterlimit:10;}
	.st9{fill:#FFFFFF;}
</style>
<g id="COULEURS">
</g>
<g id="Jauge__x2B_accueil">
</g>
<g id="images">
</g>
<g id="TEXTE">
</g>
<g id="jauge">
</g>
<g id="picto_accueil">
</g>
<g id="FOND">
</g>
<g id="PICTOS">
</g>
<g id="bulles_Source__x2B_dico">
</g>
<g id="règles">
</g>
<g id="LOGO">
	<path class="st2" d="M286.99,255.34L87.61,508.02c-17.71,36.72-17.02,79.66,1.88,115.79l162.79,261.36
		c17.2,27.61,46.32,45.6,78.71,48.61l520.89,48.48c24.5,2.28,48.66-7,65.33-25.1l72.13-198.55c15.26-42,31.71-83.6,51.08-123.86
		c9.98-20.74,10.57-45.25,0.7-66.91l-252.53-386.3c-1.33-4.48-3.15-8.81-5.54-12.82c-0.11-0.18-0.22-0.36-0.32-0.54
		c-13.8-22.77-41.59-32.92-67.04-25.09l-239.53,42.57L286.99,255.34z"/>
	<path class="st3" d="M884.2,690.92c-0.01-0.01-0.02-0.03-0.02-0.04c-1.33-2.39-1.04-5.35,0.82-7.36l10.76-11.58
		c2.36-2.54,2.22-6.52-0.32-8.88l-17.3-16.08c-2.54-2.36-6.52-2.22-8.88,0.32l-10.19,10.96c-1.91,2.06-4.95,2.58-7.46,1.3
		c-0.81-0.41-1.64-0.81-2.46-1.2c-2.47-1.15-3.93-3.74-3.6-6.44l1.9-15.66c0.42-3.45-2.04-6.58-5.48-6.99l-23.45-2.84
		c-3.45-0.42-6.58,2.04-6.99,5.48l-1.8,14.85c-0.34,2.79-2.49,5-5.27,5.44c-0.9,0.14-1.8,0.3-2.7,0.48c-2.67,0.52-5.38-0.72-6.7-3.1
		l-7.66-13.77c-1.69-3.03-5.51-4.12-8.55-2.44l-20.64,11.48c-3.03,1.69-4.12,5.51-2.44,8.55l7.28,13.08
		c1.37,2.45,0.92,5.5-1.06,7.49c-0.64,0.65-1.28,1.31-1.9,1.97c-1.85,2-4.77,2.59-7.25,1.44l-14.31-6.64
		c-3.15-1.46-6.88-0.1-8.35,3.05l-9.95,21.42c-1.46,3.15-0.1,6.88,3.05,8.35l13.59,6.31c2.55,1.18,3.98,3.91,3.54,6.68
		c-0.14,0.9-0.26,1.8-0.37,2.7c-0.33,2.71-2.34,4.9-5.02,5.42l-15.5,3.04c-3.41,0.67-5.62,3.97-4.96,7.37l4.54,23.18
		c0.67,3.41,3.97,5.62,7.37,4.96l14.68-2.88c2.78-0.55,5.55,0.86,6.84,3.39c0.39,0.76,0.79,1.51,1.21,2.27
		c0.01,0.01,0.02,0.03,0.02,0.04c1.33,2.39,1.04,5.35-0.83,7.36l-10.76,11.58c-2.36,2.54-2.22,6.52,0.32,8.88l17.3,16.08
		c2.54,2.36,6.52,2.22,8.88-0.32l10.19-10.96c1.91-2.06,4.95-2.58,7.46-1.3c0.81,0.41,1.64,0.81,2.46,1.2
		c2.47,1.15,3.93,3.74,3.6,6.44l-1.9,15.66c-0.42,3.45,2.04,6.58,5.48,6.99l23.45,2.84c3.45,0.42,6.58-2.04,6.99-5.48l1.8-14.85
		c0.34-2.79,2.49-5,5.27-5.44c0.9-0.14,1.8-0.3,2.7-0.48c2.67-0.52,5.38,0.72,6.7,3.1l7.66,13.77c1.69,3.03,5.51,4.12,8.55,2.44
		l20.64-11.48c3.03-1.69,4.12-5.51,2.44-8.55l-7.28-13.08c-1.37-2.45-0.92-5.5,1.06-7.49c0.64-0.65,1.28-1.3,1.9-1.97
		c1.85-2,4.77-2.59,7.25-1.44l14.31,6.64c3.15,1.46,6.88,0.1,8.35-3.05l9.95-21.42c1.46-3.15,0.1-6.88-3.05-8.35l-13.59-6.31
		c-2.55-1.18-3.98-3.91-3.54-6.68c0.14-0.9,0.26-1.8,0.37-2.7c0.33-2.71,2.34-4.9,5.02-5.42l15.5-3.04
		c3.41-0.67,5.62-3.97,4.96-7.37l-4.54-23.18c-0.67-3.41-3.97-5.62-7.37-4.96l-14.68,2.88c-2.78,0.55-5.55-0.86-6.84-3.39
		C885.02,692.42,884.62,691.67,884.2,690.92z M836.69,755.41c-17.83,13.09-42.93,5.93-51.18-14.59
		c-5.62-13.98-0.94-30.4,11.21-39.31c17.83-13.08,42.92-5.93,51.17,14.59C853.52,730.08,848.84,746.5,836.69,755.41z"/>
	<path class="st0" d="M764.84,282.99L764.84,282.99c-1.03-3.18-4.45-4.92-7.62-3.88l-51.83,16.84c-2.75,0.89-5.73-0.29-7.15-2.81
		c-7.22-12.83-19.67-22.33-34.45-25.6c-2.77-0.61-4.74-3.07-4.74-5.9v-54.75c0-3.34-2.71-6.05-6.05-6.05
		c-3.34,0-6.05,2.71-6.05,6.05v54.49c0,2.89-2.04,5.37-4.88,5.93c-14.89,2.96-27.51,12.21-34.99,24.86
		c-1.44,2.44-4.38,3.57-7.08,2.69l-52.08-16.92c-3.18-1.03-6.59,0.71-7.62,3.88l0,0c-1.03,3.18,0.71,6.59,3.88,7.62l51.83,16.84
		c2.75,0.89,4.47,3.6,4.13,6.47c-0.23,2.01-0.36,4.06-0.36,6.14c0,13.35,4.97,25.53,13.17,34.8c1.88,2.13,2.06,5.28,0.38,7.58
		l-32.19,44.31c-1.96,2.7-1.36,6.49,1.34,8.45h0c2.7,1.96,6.49,1.36,8.45-1.34l32.03-44.08c1.7-2.34,4.82-3.14,7.45-1.92
		c6.68,3.08,14.12,4.79,21.96,4.79c7.43,0,14.51-1.54,20.91-4.33c2.61-1.13,5.66-0.33,7.34,1.97l32.18,44.29
		c1.96,2.7,5.75,3.3,8.45,1.34l0,0c2.7-1.96,3.3-5.75,1.34-8.45l-32.04-44.09c-1.7-2.34-1.49-5.55,0.47-7.67
		c8.65-9.37,13.93-21.89,13.93-35.65c0-1.7-0.08-3.37-0.24-5.02c-0.27-2.82,1.46-5.44,4.15-6.32l52.08-16.92
		C764.13,289.58,765.87,286.17,764.84,282.99z M652.57,357.08c-21.05,0-38.12-17.07-38.12-38.12c0-21.05,17.07-38.12,38.12-38.12
		c21.06,0,38.12,17.07,38.12,38.12C690.69,340.01,673.62,357.08,652.57,357.08z"/>
	<path class="st4" d="M339.29,603.82l-4.09,5.26c-0.56,0.72-1.57,0.9-2.34,0.42l-0.01-0.01l-0.01-0.01
		c-0.77-0.48-1.06-1.47-0.66-2.29l2.91-5.99c0.42-0.87,0.06-1.91-0.81-2.33l-4.41-2.14c-0.87-0.42-1.91-0.06-2.33,0.81l-2.91,6
		c-0.4,0.82-1.35,1.2-2.2,0.89l-0.07-0.02c-0.84-0.31-1.31-1.19-1.09-2.06l1.61-6.5c0.23-0.93-0.34-1.88-1.27-2.11l-4.76-1.18
		c-0.93-0.23-1.88,0.34-2.11,1.27l-1.6,6.47c-0.22,0.88-1.07,1.45-1.97,1.33l-0.05-0.01c-0.9-0.13-1.55-0.91-1.52-1.82l0.22-6.65
		c0.03-0.96-0.72-1.77-1.68-1.8l-4.9-0.16c-0.96-0.03-1.77,0.72-1.8,1.68l-0.22,6.67c-0.03,0.9-0.74,1.64-1.64,1.71l-0.04,0
		c-0.91,0.07-1.72-0.56-1.88-1.45l-1.17-6.57c-0.17-0.95-1.07-1.58-2.02-1.41l-4.83,0.86c-0.95,0.17-1.58,1.07-1.41,2.02l1.17,6.58
		c0.16,0.89-0.38,1.76-1.25,2.01l-0.04,0.01c-0.87,0.25-1.79-0.2-2.13-1.04l-2.51-6.19c-0.36-0.89-1.38-1.32-2.27-0.96l-4.54,1.85
		c-0.89,0.36-1.32,1.38-0.96,2.27l2.51,6.18c0.34,0.84-0.01,1.81-0.81,2.23l-0.04,0.02c-0.8,0.42-1.79,0.18-2.3-0.57l-3.74-5.52
		c-0.54-0.8-1.62-1.01-2.42-0.47l-4.06,2.75c-0.8,0.54-1.01,1.62-0.47,2.42l3.75,5.54c0.5,0.74,0.36,1.73-0.32,2.31l-0.07,0.06
		c-0.68,0.58-1.69,0.55-2.34-0.07l-4.82-4.64c-0.69-0.67-1.8-0.65-2.47,0.05l-3.4,3.53c-0.67,0.69-0.65,1.8,0.05,2.47l4.83,4.65
		c0.64,0.62,0.71,1.62,0.17,2.32l-0.06,0.07c-0.55,0.71-1.54,0.88-2.3,0.41l-5.69-3.54c-0.82-0.51-1.89-0.26-2.4,0.56l-2.59,4.16
		c-0.51,0.82-0.26,1.89,0.56,2.4l5.69,3.54c0.76,0.47,1.04,1.44,0.65,2.24l-0.03,0.06c-0.4,0.81-1.34,1.2-2.2,0.89l-6.28-2.27
		c-0.91-0.33-1.91,0.14-2.23,1.05l-1.67,4.61c-0.33,0.91,0.14,1.91,1.05,2.23l6.27,2.27c0.85,0.31,1.34,1.21,1.11,2.1l-0.01,0.04
		c-0.22,0.88-1.07,1.45-1.96,1.33l-6.6-0.92c-0.95-0.13-1.83,0.53-1.97,1.49l-0.67,4.86c-0.13,0.95,0.53,1.83,1.49,1.97l6.6,0.92
		c0.9,0.12,1.56,0.9,1.53,1.81l0,0.05c-0.03,0.91-0.74,1.65-1.64,1.71L239.7,657c-0.96,0.07-1.68,0.9-1.61,1.86l0.35,4.89
		c0.07,0.96,0.9,1.68,1.86,1.61l6.69-0.48c0.89-0.06,1.68,0.55,1.84,1.43l0.01,0.07c0.16,0.89-0.38,1.76-1.25,2.01l-6.42,1.85
		c-0.93,0.27-1.46,1.23-1.19,2.16l1.36,4.71c0.27,0.93,1.23,1.46,2.16,1.19l6.42-1.85c0.87-0.25,1.79,0.2,2.13,1.04l0.02,0.04
		c0.34,0.84-0.01,1.8-0.81,2.23l-5.89,3.14c-0.85,0.45-1.17,1.51-0.72,2.36l2.31,4.33c0.45,0.85,1.51,1.17,2.36,0.72l5.87-3.14
		c0.8-0.43,1.79-0.18,2.3,0.56l0.04,0.06c0.5,0.74,0.37,1.74-0.32,2.32l-5.11,4.31c-0.74,0.62-0.83,1.72-0.21,2.46l3.16,3.75
		c0.62,0.74,1.72,0.83,2.46,0.21l5.1-4.3c0.69-0.58,1.71-0.55,2.37,0.08l0.03,0.03c0.66,0.63,0.73,1.65,0.17,2.37l-4.1,5.27
		c-0.59,0.76-0.46,1.86,0.3,2.45l3.87,3.01c0.76,0.59,1.86,0.46,2.45-0.3l4.09-5.26c0.56-0.72,1.57-0.9,2.34-0.42l0.01,0.01
		l0.01,0.01c0.77,0.48,1.06,1.47,0.66,2.29l-2.91,5.99c-0.42,0.87-0.06,1.91,0.81,2.33l4.15,2.02c1.01,0.49,2.22,0.07,2.71-0.94
		l3.1-6.38c0.23-0.47,0.77-0.68,1.26-0.5c0.4,0.15,0.88,0.33,1.32,0.49c0.49,0.17,0.76,0.69,0.63,1.19l-1.5,6.04
		c-0.38,1.55,0.56,3.12,2.11,3.5l3.64,0.9c0.94,0.23,1.89-0.34,2.12-1.28l1.99-8.04c0,0,0,0,0,0c0.54,0.09,1.08,0.18,1.62,0.25
		c0.89,0.13,1.56,0.89,1.53,1.79l-0.22,6.67c-0.03,0.97,0.72,1.77,1.69,1.81l4.89,0.16c0.97,0.03,1.77-0.72,1.81-1.69l0.22-6.69
		c0.03-0.89,0.73-1.62,1.62-1.69l0.06,0c0.91-0.07,1.72,0.56,1.88,1.46l1.17,6.56c0.17,0.95,1.08,1.58,2.03,1.42l4.82-0.86
		c0.95-0.17,1.58-1.08,1.41-2.03l-1.17-6.59c-0.16-0.88,0.38-1.74,1.24-1.99l0.05-0.02c0.87-0.25,1.8,0.2,2.14,1.04l2.51,6.18
		c0.36,0.89,1.38,1.33,2.28,0.96l4.53-1.84c0.89-0.36,1.33-1.38,0.96-2.28l-2.51-6.19c-0.34-0.83,0.01-1.78,0.8-2.2l0.05-0.03
		c0.8-0.43,1.8-0.18,2.31,0.57l3.73,5.51c0.54,0.8,1.63,1.01,2.43,0.47l4.05-2.74c0.8-0.54,1.01-1.63,0.47-2.43l-3.73-5.51
		c-0.51-0.75-0.37-1.77,0.32-2.36l0.03-0.02c0.7-0.59,1.72-0.56,2.38,0.08l4.8,4.62c0.7,0.67,1.8,0.65,2.47-0.05l3.39-3.53
		c0.67-0.7,0.65-1.8-0.05-2.47l-4.83-4.64c-0.64-0.62-0.72-1.63-0.17-2.33l0.05-0.07c0.55-0.71,1.54-0.89,2.31-0.41l5.69,3.54
		c0.82,0.51,1.9,0.26,2.41-0.56l2.59-4.15c0.51-0.82,0.26-1.9-0.56-2.41l-5.69-3.54c-0.76-0.47-1.04-1.45-0.65-2.25l0.03-0.05
		c0.4-0.82,1.35-1.2,2.2-0.89l6.27,2.27c0.91,0.33,1.91-0.14,2.24-1.05l1.67-4.6c0.33-0.91-0.14-1.91-1.05-2.24l-6.26-2.27
		c-0.86-0.31-1.34-1.22-1.12-2.1l0.01-0.03c0.22-0.88,1.07-1.45,1.97-1.33l6.59,0.91c0.96,0.13,1.84-0.54,1.97-1.49l0.67-4.85
		c0.13-0.96-0.53-1.84-1.49-1.97l-6.59-0.91c-0.9-0.12-1.56-0.91-1.53-1.81l0-0.04c0.03-0.91,0.74-1.65,1.65-1.72l6.64-0.48
		c0.96-0.07,1.69-0.91,1.62-1.87l-0.35-4.88c-0.07-0.96-0.91-1.69-1.87-1.62l-6.66,0.48c-0.91,0.07-1.72-0.56-1.88-1.46l-0.01-0.06
		c-0.16-0.88,0.38-1.74,1.24-1.99l6.44-1.86c0.93-0.27,1.46-1.24,1.19-2.17l-1.36-4.7c-0.27-0.93-1.24-1.46-2.17-1.2l-6.41,1.85
		c-0.88,0.25-1.8-0.2-2.14-1.04l-0.01-0.03c-0.34-0.84,0.01-1.8,0.81-2.23l5.88-3.14c0.85-0.45,1.17-1.51,0.72-2.37l-2.31-4.32
		c-0.45-0.85-1.51-1.17-2.37-0.72l-5.86,3.13c-0.8,0.43-1.8,0.18-2.31-0.57l-0.02-0.03c-0.52-0.75-0.38-1.78,0.32-2.36l5.09-4.28
		c0.74-0.62,0.83-1.73,0.21-2.46l-3.15-3.74c-0.62-0.74-1.73-0.83-2.47-0.21l-5.11,4.31c-0.68,0.58-1.69,0.54-2.34-0.07l-0.04-0.04
		c-0.66-0.63-0.73-1.66-0.17-2.38l4.09-5.26c0.59-0.76,0.46-1.86-0.31-2.46l-3.87-3.01C340.98,602.92,339.88,603.06,339.29,603.82z
		 M310.26,660.83c-2.32,3.73-7.23,4.87-10.96,2.55c-3.73-2.32-4.87-7.23-2.55-10.96c2.32-3.73,7.23-4.87,10.96-2.55
		S312.58,657.1,310.26,660.83z"/>
	<g>
		<circle class="st9" cx="564.5" cy="583.57" r="134.85"/>
		<g>
			<path class="st0" d="M564.5,721.93c-18.93,0-37.29-3.71-54.58-11.02c-16.7-7.06-31.69-17.17-44.57-30.05
				c-12.87-12.87-22.98-27.87-30.05-44.56c-7.31-17.29-11.02-35.65-11.02-54.58c0-18.93,3.71-37.29,11.02-54.58
				c7.06-16.7,17.17-31.69,30.05-44.56c12.87-12.87,27.87-22.98,44.57-30.05c17.29-7.31,35.65-11.02,54.58-11.02
				c18.93,0,37.29,3.71,54.58,11.02c16.7,7.06,31.69,17.17,44.57,30.05c12.87,12.87,22.98,27.87,30.05,44.56
				c7.31,17.29,11.02,35.65,11.02,54.58c0,18.93-3.71,37.29-11.02,54.58c-7.06,16.7-17.17,31.69-30.05,44.56
				c-12.87,12.87-27.87,22.98-44.57,30.05C601.79,718.22,583.43,721.93,564.5,721.93z M564.5,455.35
				c-69.68,0-126.37,56.69-126.37,126.37s56.69,126.37,126.37,126.37c69.68,0,126.37-56.69,126.37-126.37
				S634.19,455.35,564.5,455.35z"/>
		</g>
		<circle class="st9" cx="564.5" cy="510.02" r="23.12"/>
		<g>
			<path class="st0" d="M564.5,543.06c-17.62,0-31.95-14.33-31.95-31.95c0-17.62,14.33-31.95,31.95-31.95
				c17.62,0,31.95,14.33,31.95,31.95C596.45,528.73,582.12,543.06,564.5,543.06z M564.5,493c-9.99,0-18.11,8.12-18.11,18.11
				c0,9.99,8.13,18.11,18.11,18.11c9.99,0,18.11-8.12,18.11-18.11C582.62,501.13,574.49,493,564.5,493z"/>
		</g>
		<g>
			<path class="st0" d="M567.75,679.13c-10.48,0-17.02-4.32-20.67-7.94c-4.75-4.73-7.47-11.29-7.47-18c0-6.14,2.63-18.73,6.93-38.78
				c2.33-10.86,4.97-23.16,6.9-33.95c-5.93,3.51-13,5.37-20.89,5.37c-3.82,0-6.92-3.1-6.92-6.92s3.1-6.92,6.92-6.92
				c8.24,0,19.1-2.84,24.09-16.35c1.16-3.14,4.41-5,7.71-4.41c3.3,0.59,5.7,3.46,5.7,6.81c0,12.74-5.3,37.46-9.98,59.27
				c-3.26,15.19-6.63,30.89-6.63,35.87c0,5.83,4.48,12.11,14.3,12.11c14.26,0,15.8-9.31,15.8-13.32c0-3.82,3.1-6.92,6.92-6.92
				c3.82,0,6.92,3.1,6.92,6.92C597.38,665.5,588.22,679.13,567.75,679.13z"/>
		</g>
	</g>
	<path class="st9" d="M399.69,316.29c24.16,0,43.74-19.58,43.74-43.74c0-4.73-0.76-9.28-2.15-13.54l-80.51,33.5
		C368.03,306.63,382.73,316.29,399.69,316.29z"/>
	<path class="st1" d="M501.77,219.22L392.92,83.16c-3.43-4.28-9.36-5.63-14.3-3.23l-94.94,46c-4.33,2.1-6.95,6.63-6.6,11.44
		l1.26,17.09L35.76,444.15c-2.38,2.84-3.28,6.63-2.43,10.24l98.12,416.82c1.49,6.32,7.81,10.23,14.13,8.75l0,0
		c6.32-1.49,10.23-7.81,8.75-14.13L58.9,460.45c-0.85-3.6,0.05-7.4,2.43-10.24l219.49-262.11l8.74,118.92
		c0.59,8,8.83,13.07,16.23,9.99l41.7-17.35l106.89-44.48l42.72-17.78C504.33,234.41,506.65,225.32,501.77,219.22z"/>
	<path class="st4" d="M226.14,444.27c9.3,24.21,26,70.54,39.27,88.93c3.51,4.86,10.07,6.37,15.4,3.63
		c28.79-14.81,115.39-58.29,147.67-71.17c6.14-2.45,9.23-9.34,6.91-15.54c-9.02-24.16-30.63-65.37-41.77-85.38
		c-3.16-5.68-10.21-7.88-16.03-5.01c-30.2,14.91-110.76,56.23-144.34,68.75C226.9,430.85,223.71,437.94,226.14,444.27z"/>
	<g>
		<g>
			<path class="st2" d="M378.03,374.07c-0.42-0.98,0.03-2.12,1.01-2.54c0.98-0.42,2.12,0.03,2.54,1.01
				c4.43,10.27,10.2,19.63,16.31,29.53c8.98,14.56,18.26,29.62,23.87,48.77c0.3,1.02-0.29,2.1-1.31,2.4c-1.02,0.3-2.1-0.29-2.4-1.31
				c-5.47-18.65-14.61-33.48-23.45-47.83C388.41,394.07,382.57,384.59,378.03,374.07z"/>
		</g>
		<g>
			<path class="st2" d="M362.75,381.94c-0.42-0.97,0.02-2.1,0.99-2.53c0.98-0.43,2.12,0.01,2.55,0.99
				c4.96,11.22,10.96,21.41,16.75,31.26c8.26,14.04,16.79,28.55,22.86,46.68c0.34,1.01-0.21,2.11-1.22,2.45
				c-1.01,0.34-2.11-0.21-2.45-1.22c-5.94-17.74-14.37-32.08-22.53-45.95c-5.85-9.95-11.9-20.24-16.95-31.66
				C362.76,381.95,362.76,381.94,362.75,381.94z"/>
		</g>
		<g>
			<path class="st2" d="M347.48,389.81c-0.42-0.97,0.02-2.09,0.98-2.53c0.97-0.44,2.12-0.01,2.56,0.96
				c5.57,12.31,11.53,22.95,17.3,33.25c7.87,14.05,15.3,27.31,21.76,44.33c0.38,1-0.12,2.11-1.12,2.49c-1,0.38-2.11-0.13-2.49-1.12
				c-6.35-16.75-13.72-29.9-21.51-43.82c-5.81-10.37-11.81-21.09-17.45-33.55C347.49,389.83,347.48,389.82,347.48,389.81z"/>
		</g>
		<g>
			<path class="st2" d="M332.2,397.68c-0.41-0.96,0.01-2.08,0.97-2.52c0.97-0.45,2.12-0.02,2.57,0.95
				c6.35,13.77,12.37,25.08,18.2,36.02c7,13.15,13.61,25.57,20.29,41.2c0.42,0.98-0.04,2.12-1.02,2.54
				c-0.98,0.42-2.11-0.03-2.53-1.01c0,0,0,0,0-0.01c-6.6-15.47-13.18-27.83-20.14-40.9c-5.85-10.99-11.9-22.34-18.29-36.22
				C332.21,397.71,332.21,397.69,332.2,397.68z"/>
		</g>
		<g>
			<path class="st2" d="M316.92,405.55c-0.41-0.95,0.01-2.07,0.95-2.52c0.97-0.45,2.12-0.04,2.57,0.93
				c8.2,17.47,14.91,30.73,21.4,43.56c5.44,10.74,10.57,20.88,16.51,33.29c0.46,0.97,0.05,2.12-0.91,2.58
				c-0.96,0.46-2.12,0.05-2.58-0.91c-5.92-12.37-11.04-22.5-16.47-33.22c-6.51-12.85-13.23-26.14-21.45-43.66
				C316.94,405.58,316.93,405.57,316.92,405.55z"/>
		</g>
		<g>
			<path class="st2" d="M301.65,413.42c-0.41-0.95,0-2.06,0.94-2.51c0.96-0.46,2.12-0.05,2.58,0.91
				c3.83,8.05,7.23,15.25,10.22,21.61c9.5,20.17,16.37,34.74,27.11,54.87c0.5,0.95,0.15,2.11-0.8,2.62c-0.94,0.5-2.11,0.15-2.62-0.8
				c-10.79-20.22-17.67-34.83-27.19-55.04c-2.99-6.35-6.39-13.55-10.22-21.59C301.67,413.46,301.66,413.44,301.65,413.42z"/>
		</g>
		<g>
			<path class="st2" d="M286.37,421.29c-0.41-0.95,0-2.05,0.94-2.51c0.96-0.46,2.12-0.06,2.58,0.9
				c6.22,12.87,10.82,23.2,14.88,32.32c6.91,15.51,12.36,27.76,21.87,43.79c0.55,0.92,0.24,2.1-0.68,2.65
				c-0.92,0.54-2.1,0.24-2.65-0.68c-9.62-16.23-15.12-28.57-22.08-44.19c-4.05-9.09-8.64-19.39-14.83-32.21
				C286.39,421.34,286.38,421.31,286.37,421.29z"/>
		</g>
		<g>
			<path class="st2" d="M271.09,429.16c-0.41-0.94,0-2.05,0.93-2.5c0.96-0.47,2.12-0.07,2.59,0.89
				c7.09,14.49,11.7,25.55,15.78,35.32c6.02,14.41,10.77,25.79,20.38,40.42c0.59,0.89,0.34,2.09-0.55,2.68
				c-0.89,0.59-2.09,0.34-2.68-0.55c-9.81-14.93-14.63-26.46-20.72-41.06c-4.05-9.71-8.65-20.71-15.68-35.11
				C271.12,429.21,271.1,429.18,271.09,429.16z"/>
		</g>
		<g>
			<path class="st2" d="M277.26,487.46c-1.84-4.26-3.54-8.63-5.36-13.33c-3.91-10.06-8.34-21.46-16.04-37.02
				c-0.48-0.95-0.08-2.12,0.88-2.59s2.12-0.08,2.59,0.88c7.77,15.71,12.23,27.19,16.17,37.33c5.52,14.19,9.5,24.44,19.39,38.03
				c0.63,0.86,0.44,2.07-0.43,2.7c-0.86,0.63-2.07,0.44-2.7-0.43C285.02,503.77,280.87,495.82,277.26,487.46z"/>
		</g>
		<g>
			<path class="st2" d="M262.39,498.23c-1.97-4.58-3.68-9.32-5.59-14.63c-3.53-9.81-7.92-22.01-16.21-38.6
				c-0.46-0.95-0.09-2.12,0.87-2.59c0.96-0.48,2.12-0.09,2.59,0.87c8.39,16.8,12.83,29.12,16.39,39.02
				c4.86,13.51,8.37,23.28,18.58,35.97c0.67,0.83,0.54,2.05-0.3,2.72c-0.83,0.67-2.05,0.54-2.72-0.3
				C269.45,512.54,265.57,505.6,262.39,498.23z"/>
		</g>
	</g>
	<path class="st1" d="M805.36,402.31c-17.34,15.85-43.18,39.3-56.9,56.53c-6.75,8.47-5.61,20.75,2.53,27.9
		c26.36,23.18,83.86,74.58,109.74,100.62c7.87,7.92,20.65,8.03,28.64,0.23c16.74-16.34,38.71-41.61,52.56-58.24
		c7-8.41,6.09-20.86-2.07-28.16c-26.5-23.73-80.73-71.54-106.12-97.98C826.09,395.26,813.5,394.87,805.36,402.31z"/>
	<g>
		<g>
			<path class="st3" d="M932.56,512.16c0.76-0.76,1.98-0.76,2.73,0s0.76,1.98,0,2.73c-7.91,7.91-14.48,16.72-21.43,26.05
				c-10.22,13.72-20.79,27.9-36.52,40.18c-0.84,0.66-2.06,0.51-2.71-0.33c-0.66-0.84-0.51-2.06,0.33-2.71
				c15.32-11.96,25.73-25.93,35.8-39.44C917.8,529.19,924.45,520.27,932.56,512.16z"/>
		</g>
		<g>
			<path class="st3" d="M919.6,500.86c0.75-0.75,1.96-0.76,2.72-0.01c0.76,0.75,0.77,1.97,0.03,2.73
				c-8.59,8.75-15.85,18.08-22.87,27.1c-10,12.85-20.34,26.15-34.95,38.48c-0.82,0.69-2.04,0.59-2.72-0.23
				c-0.69-0.82-0.58-2.03,0.23-2.72c14.3-12.07,24.52-25.2,34.4-37.9c7.09-9.11,14.42-18.53,23.17-27.44
				C919.6,500.87,919.6,500.87,919.6,500.86z"/>
		</g>
		<g>
			<path class="st3" d="M906.65,489.57c0.74-0.74,1.95-0.76,2.71-0.02c0.77,0.74,0.79,1.97,0.05,2.73
				c-9.38,9.71-17.08,19.19-24.52,28.35c-10.15,12.5-19.74,24.3-33.18,36.58c-0.79,0.72-2.01,0.67-2.73-0.12
				c-0.72-0.79-0.65-2.01,0.12-2.73c13.22-12.09,22.73-23.78,32.78-36.16c7.49-9.22,15.24-18.76,24.74-28.59
				C906.64,489.59,906.64,489.58,906.65,489.57z"/>
		</g>
		<g>
			<path class="st3" d="M893.7,478.27c0.74-0.74,1.94-0.76,2.7-0.03c0.77,0.74,0.8,1.96,0.07,2.73
				c-10.46,10.98-18.75,20.75-26.76,30.2c-9.64,11.36-18.74,22.09-30.81,34.06c-0.76,0.75-1.98,0.75-2.73-0.01
				c-0.75-0.76-0.75-1.98,0.01-2.73c0,0,0,0,0.01-0.01c11.94-11.84,21-22.52,30.58-33.82c8.05-9.49,16.38-19.3,26.91-30.37
				C893.68,478.3,893.69,478.29,893.7,478.27z"/>
		</g>
		<g>
			<path class="st3" d="M880.75,466.98c0.74-0.74,1.93-0.76,2.69-0.04c0.78,0.73,0.82,1.95,0.08,2.73
				c-13.21,14.06-23.06,25.2-32.58,35.96c-7.97,9.02-15.51,17.53-24.85,27.63c-0.73,0.79-1.95,0.83-2.73,0.11
				c-0.78-0.73-0.83-1.95-0.11-2.73c9.32-10.06,16.83-18.56,24.79-27.56c9.54-10.79,19.41-21.94,32.66-36.05
				C880.72,467.01,880.74,466.99,880.75,466.98z"/>
		</g>
		<g>
			<path class="st3" d="M867.8,455.68c0.73-0.73,1.92-0.76,2.68-0.05c0.78,0.73,0.83,1.95,0.1,2.73
				c-6.06,6.53-11.51,12.34-16.31,17.47c-15.24,16.27-26.24,28.03-41,45.44c-0.7,0.81-1.91,0.92-2.73,0.23
				c-0.81-0.69-0.92-1.91-0.23-2.73c14.82-17.49,25.85-29.27,41.13-45.59c4.8-5.13,10.24-10.94,16.3-17.46
				C867.77,455.72,867.78,455.7,867.8,455.68z"/>
		</g>
		<g>
			<path class="st3" d="M854.85,444.39c0.73-0.73,1.91-0.76,2.67-0.06c0.79,0.72,0.84,1.95,0.12,2.73
				c-9.67,10.53-17.57,18.62-24.55,25.75c-11.87,12.14-21.24,21.73-32.63,36.49c-0.65,0.85-1.87,1-2.71,0.35
				c-0.85-0.65-1-1.87-0.35-2.71c11.53-14.93,20.97-24.59,32.93-36.83c6.95-7.12,14.83-15.18,24.46-25.67
				C854.81,444.43,854.83,444.41,854.85,444.39z"/>
		</g>
		<g>
			<path class="st3" d="M841.9,433.09c0.73-0.73,1.9-0.76,2.67-0.06c0.79,0.72,0.85,1.94,0.13,2.73
				c-10.86,11.94-19.43,20.31-27,27.7c-11.17,10.91-20,19.52-30.05,33.86c-0.61,0.87-1.82,1.09-2.69,0.47
				c-0.87-0.61-1.09-1.82-0.47-2.69c10.25-14.63,19.19-23.36,30.51-34.41c7.53-7.35,16.06-15.68,26.84-27.53
				C841.85,433.14,841.87,433.12,841.9,433.09z"/>
		</g>
		<g>
			<path class="st3" d="M789.98,460.34c3.28-3.28,6.71-6.47,10.41-9.9c7.91-7.35,16.87-15.68,28.49-28.56
				c0.71-0.8,1.94-0.86,2.73-0.14c0.79,0.71,0.86,1.94,0.14,2.73c-11.73,13.01-20.76,21.41-28.73,28.81
				c-11.15,10.36-19.21,17.85-28.19,32.06c-0.57,0.9-1.76,1.17-2.67,0.6c-0.9-0.57-1.17-1.77-0.6-2.67
				C777.69,473.57,783.55,466.78,789.98,460.34z"/>
		</g>
		<g>
			<path class="st3" d="M774.49,450.49c3.52-3.52,7.3-6.86,11.53-10.6c7.81-6.9,17.54-15.48,29.9-29.31
				c0.71-0.78,1.93-0.86,2.73-0.15c0.8,0.71,0.86,1.93,0.15,2.73c-12.51,14-22.33,22.67-30.22,29.63
				c-10.77,9.51-18.55,16.37-26.58,30.54c-0.53,0.93-1.71,1.26-2.64,0.73c-0.93-0.53-1.25-1.71-0.73-2.64
				C763.79,462.34,768.81,456.17,774.49,450.49z"/>
		</g>
	</g>
	<path class="st3" d="M505.9,979.14c23.24-10.22,63.74-27.36,82.16-40.83c6.08-4.45,7.78-12.8,4.01-19.32
		c-16.83-29.15-61.02-107.35-76.24-139.73c-3.44-7.32-12.11-10.52-19.49-7.2c-23.03,10.34-59.05,31.48-78.42,43.47
		c-6.75,4.17-9,12.92-5.13,19.84c16.93,30.27,58.81,103,73.61,136.26C489.71,979.07,498.43,982.42,505.9,979.14z"/>
	<g>
		<g>
			<path class="st2" d="M425.85,831.98c-0.96,0.47-2.12,0.08-2.59-0.88c-0.47-0.96-0.08-2.12,0.88-2.59
				c10.03-4.94,19.09-11.16,28.69-17.75c14.1-9.69,28.68-19.71,47.52-26.26c1.01-0.35,2.11,0.18,2.46,1.19
				c0.35,1.01-0.18,2.11-1.19,2.46c-18.36,6.39-32.72,16.26-46.6,25.8C445.3,820.61,436.13,826.92,425.85,831.98z"/>
		</g>
		<g>
			<path class="st2" d="M434.46,846.85c-0.95,0.47-2.1,0.08-2.58-0.87c-0.48-0.95-0.1-2.12,0.86-2.6
				c10.96-5.52,20.84-12.01,30.39-18.28c13.61-8.94,27.68-18.19,45.49-25.16c0.99-0.39,2.12,0.1,2.5,1.1
				c0.39,0.99-0.11,2.11-1.1,2.5c-17.43,6.81-31.33,15.95-44.78,24.79c-9.64,6.34-19.62,12.89-30.77,18.51
				C434.48,846.84,434.47,846.84,434.46,846.85z"/>
		</g>
		<g>
			<path class="st2" d="M443.08,861.71c-0.94,0.46-2.09,0.09-2.57-0.85c-0.49-0.95-0.11-2.12,0.84-2.6
				c12.01-6.17,22.35-12.66,32.35-18.93c13.64-8.56,26.52-16.64,43.2-23.93c0.98-0.43,2.12,0.02,2.55,1c0.43,0.98-0.03,2.11-1,2.55
				c-16.41,7.18-29.18,15.19-42.69,23.66c-10.07,6.32-20.48,12.85-32.64,19.09C443.1,861.7,443.09,861.71,443.08,861.71z"/>
		</g>
		<g>
			<path class="st2" d="M451.7,876.58c-0.94,0.46-2.08,0.09-2.57-0.84c-0.49-0.95-0.13-2.11,0.82-2.61
				c13.44-7.03,24.43-13.6,35.07-19.96c12.79-7.65,24.86-14.86,40.14-22.31c0.96-0.47,2.12-0.07,2.58,0.89
				c0.47,0.96,0.07,2.11-0.88,2.58c0,0,0,0-0.01,0c-15.12,7.36-27.14,14.55-39.85,22.15c-10.68,6.39-21.73,12.99-35.26,20.07
				C451.73,876.57,451.72,876.57,451.7,876.58z"/>
		</g>
		<g>
			<path class="st2" d="M460.32,891.45c-0.93,0.46-2.07,0.1-2.56-0.83c-0.5-0.94-0.14-2.11,0.8-2.61
				c17.04-9.05,29.95-16.42,42.44-23.54c10.46-5.96,20.33-11.6,32.43-18.14c0.94-0.51,2.11-0.16,2.62,0.78
				c0.51,0.94,0.16,2.11-0.78,2.62c-12.06,6.52-21.92,12.15-32.36,18.1c-12.51,7.14-25.45,14.52-42.54,23.6
				C460.36,891.43,460.34,891.44,460.32,891.45z"/>
		</g>
		<g>
			<path class="st2" d="M468.94,906.31c-0.93,0.46-2.06,0.1-2.55-0.82c-0.51-0.94-0.16-2.11,0.78-2.62
				c7.84-4.23,14.87-7.98,21.07-11.28c19.67-10.49,33.88-18.07,53.46-29.8c0.92-0.54,2.1-0.25,2.65,0.67s0.25,2.1-0.67,2.65
				c-19.66,11.78-33.91,19.38-53.63,29.9c-6.2,3.31-13.22,7.05-21.06,11.28C468.98,906.29,468.96,906.3,468.94,906.31z"/>
		</g>
		<g>
			<path class="st2" d="M477.56,921.18c-0.92,0.45-2.05,0.1-2.55-0.81c-0.51-0.94-0.17-2.11,0.77-2.62
				c12.55-6.85,22.64-11.96,31.54-16.47c15.15-7.67,27.11-13.73,42.65-24.02c0.89-0.59,2.09-0.35,2.68,0.54
				c0.59,0.89,0.35,2.09-0.54,2.68c-15.73,10.42-27.78,16.52-43.04,24.25c-8.88,4.49-18.94,9.59-31.43,16.41
				C477.61,921.16,477.58,921.17,477.56,921.18z"/>
		</g>
		<g>
			<path class="st2" d="M486.18,936.05c-0.92,0.45-2.04,0.11-2.54-0.8c-0.52-0.93-0.18-2.11,0.76-2.63
				c14.12-7.8,24.94-12.96,34.49-17.51c14.09-6.72,25.23-12.03,39.36-22.37c0.86-0.63,2.07-0.44,2.7,0.42
				c0.63,0.86,0.44,2.07-0.42,2.7c-14.42,10.54-25.7,15.92-39.98,22.73c-9.5,4.53-20.26,9.66-34.28,17.41
				C486.23,936.02,486.21,936.03,486.18,936.05z"/>
		</g>
		<g>
			<path class="st2" d="M544.11,926.99c-4.16,2.05-8.44,3.96-13.04,6.02c-9.85,4.41-21.02,9.4-36.17,17.86
				c-0.93,0.53-2.11,0.19-2.63-0.75s-0.19-2.11,0.75-2.63c15.3-8.54,26.55-13.57,36.48-18.01c13.9-6.22,23.94-10.7,37.02-21.26
				c0.83-0.67,2.05-0.54,2.72,0.29c0.67,0.83,0.54,2.05-0.29,2.72C560.01,918.43,552.27,922.97,544.11,926.99z"/>
		</g>
		<g>
			<path class="st2" d="M555.6,941.31c-4.47,2.2-9.13,4.14-14.33,6.31c-9.62,4.01-21.59,9-37.75,18.11
				c-0.93,0.51-2.11,0.2-2.63-0.74c-0.52-0.93-0.2-2.11,0.74-2.63c16.36-9.22,28.45-14.26,38.16-18.31
				c13.26-5.53,22.83-9.52,35-20.34c0.8-0.71,2.02-0.64,2.73,0.16c0.71,0.8,0.64,2.02-0.16,2.73
				C569.54,933.54,562.81,937.76,555.6,941.31z"/>
		</g>
	</g>
	<path class="st1" d="M87.77,894.15h612.48c7.84,0,14.2-6.36,14.2-14.2l0,0c0-7.84-6.36-14.2-14.2-14.2H87.77
		c-7.84,0-14.2,6.36-14.2,14.2l0,0C73.57,887.79,79.93,894.15,87.77,894.15z"/>
</g>
</svg>
