<?xml version="1.0" encoding="utf-8"?>
<!-- Generator: Adobe Illustrator 25.2.0, SVG Export Plug-In . SVG Version: 6.00 Build 0)  -->
<svg version="1.1" xmlns="http://www.w3.org/2000/svg" xmlns:xlink="http://www.w3.org/1999/xlink" x="0px" y="0px"
	 viewBox="0 0 1080 1080" style="enable-background:new 0 0 1080 1080;" xml:space="preserve">
<style type="text/css">
	.st0{fill:#FF0049;}
	.st1{fill:#FF5072;}
	.st2{fill:#FF85A2;}
	.st3{fill:#A5003F;}
	.st4{fill:#D30046;}
	.st5{fill:#FFFFFF;}
	.st6{font-family:'suisse';}
	.st7{font-size:70px;}
	.st8{letter-spacing:-2;}
	.st9{fill:none;stroke:#A5003F;stroke-width:20;stroke-linecap:round;stroke-miterlimit:10;}
	.st10{fill:none;stroke:#FFFFFF;stroke-width:15;stroke-linecap:round;stroke-miterlimit:10;}
	.st11{fill:none;stroke:#FF0049;stroke-width:70;stroke-linecap:round;stroke-miterlimit:10;}
	.st12{fill:none;stroke:#FFFFFF;stroke-width:10;stroke-linecap:round;stroke-miterlimit:10;}
</style>
<g id="COULEURS">
</g>
<g id="Jauge__x2B_accueil">
</g>
<g id="images">
</g>
<g id="TEXTE">
</g>
<g id="jauge">
</g>
<g id="picto_accueil">
</g>
<g id="FOND">
</g>
<g id="PICTOS">
</g>
<g id="bulles_Source__x2B_dico">
</g>
<g id="règles">
</g>
<g id="LOGO">
	<path class="st0" d="M941.31,367.51l-89.36,0.03l-69.23-0.01c-15.6-0.02-28.31-12.73-28.33-28.33c-0.01-7.55,2.92-14.64,8.25-19.97
		c5.33-5.33,12.42-8.26,19.98-8.25l39.59,0.01c10.91,0.01,21.17-4.22,28.88-11.93c7.71-7.71,11.95-17.96,11.93-28.88
		c-0.03-22.51-18.37-40.85-40.86-40.88l-6.52-0.03l-69.18-0.09c-0.43,0-0.85,0.04-1.25,0.12h-93.96v-0.12h-286.1H238.62
		c-7.83,1.55-15.02,5.38-20.79,11.15c-7.71,7.71-11.95,17.96-11.93,28.88c0.03,22.51,18.37,40.85,40.88,40.88l4.36,0.01
		c15.6,0.02,28.31,12.73,28.33,28.33c0.01,7.55-2.92,14.64-8.25,19.97c-5.22,5.22-12.13,8.13-19.5,8.24l-74.1-0.16
		c-10.91-0.01-21.17,4.22-28.87,11.93c0,0,0,0,0,0c-7.71,7.71-11.95,17.97-11.93,28.88c0.03,22.51,18.37,40.85,40.89,40.88
		l89.36-0.03l69.23,0.01c15.6,0.02,28.31,12.73,28.33,28.33c0.01,7.55-2.92,14.64-8.25,19.97c-5.33,5.33-12.42,8.26-19.98,8.25
		l-39.6-0.01c-10.91-0.01-21.17,4.22-28.88,11.93c-7.71,7.71-11.95,17.96-11.93,28.88c0.03,22.51,18.37,40.85,40.86,40.88l6.52,0.03
		l69.18,0.09c0.43,0,0.85-0.04,1.25-0.12h93.96v0.12h286.1h126.54c7.83-1.55,15.02-5.38,20.79-11.15
		c7.71-7.71,11.95-17.96,11.93-28.88c-0.03-22.51-18.37-40.85-40.88-40.88l-4.36-0.01c-15.6-0.02-28.31-12.73-28.33-28.33
		c-0.01-7.55,2.92-14.64,8.25-19.97c5.22-5.22,12.13-8.13,19.5-8.24l74.1,0.16c10.91,0.01,21.17-4.22,28.87-11.93c0,0,0,0,0,0
		c7.71-7.71,11.95-17.97,11.93-28.88C982.18,385.88,963.84,367.54,941.31,367.51z"/>
	<path class="st2" d="M925.8,506.39l-89.36,0.03l-69.23-0.01c-15.6-0.02-28.31-12.73-28.33-28.33c-0.01-7.55,2.92-14.64,8.25-19.97
		c5.33-5.33,12.42-8.26,19.98-8.25l39.59,0.01c10.91,0.01,21.17-4.22,28.88-11.93c7.71-7.71,11.95-17.96,11.93-28.88
		c-0.03-22.51-18.37-40.85-40.86-40.88l-6.52-0.03l-69.18-0.09c-0.43,0-0.85,0.04-1.25,0.12h-93.96v-0.12h-286.1H223.1
		c-7.83,1.55-15.02,5.38-20.79,11.15c-7.71,7.71-11.95,17.96-11.93,28.88c0.03,22.51,18.37,40.85,40.88,40.88l4.36,0.01
		c15.6,0.02,28.31,12.73,28.33,28.33c0.01,7.55-2.92,14.64-8.25,19.97c-5.22,5.22-12.13,8.13-19.5,8.24l-74.1-0.16
		c-10.91-0.01-21.17,4.22-28.87,11.93c0,0,0,0,0,0c-7.71,7.71-11.95,17.97-11.93,28.88c0.03,22.51,18.37,40.85,40.89,40.88
		l89.36-0.03l69.23,0.01c15.6,0.02,28.31,12.73,28.33,28.33c0.01,7.55-2.92,14.64-8.25,19.97c-5.33,5.33-12.42,8.26-19.98,8.25
		l-39.6-0.01c-10.91-0.01-21.17,4.22-28.88,11.93c-7.71,7.71-11.95,17.96-11.93,28.88c0.03,22.51,18.37,40.85,40.86,40.88l6.52,0.03
		l69.18,0.09c0.43,0,0.85-0.04,1.25-0.12h93.96v0.12h286.1H864.9c7.83-1.55,15.02-5.38,20.79-11.15
		c7.71-7.71,11.95-17.96,11.93-28.88c-0.03-22.51-18.37-40.85-40.88-40.88l-4.36-0.01c-15.6-0.02-28.31-12.73-28.33-28.33
		c-0.01-7.55,2.92-14.64,8.25-19.97c5.22-5.22,12.13-8.13,19.5-8.24l74.1,0.16c10.91,0.01,21.17-4.22,28.87-11.93c0,0,0,0,0,0
		c7.71-7.71,11.95-17.97,11.93-28.88C966.67,524.76,948.33,506.42,925.8,506.39z"/>
	<text transform="matrix(1 0 0 1 286.1153 287.6524)"><tspan x="0" y="0" class="st5 st6 st7">«</tspan><tspan x="35.98" y="0" class="st5 st6 st7 st8"> </tspan><tspan x="49.98" y="0" class="st5 st6 st7">..............................</tspan><tspan x="564.47" y="0" class="st5 st6 st7 st8"> </tspan><tspan x="578.47" y="0" class="st5 st6 st7">»</tspan></text>
	<path class="st1" d="M846.98,641l-89.36,0.03l-69.23-0.01c-15.6-0.02-28.31-12.73-28.33-28.33c-0.01-7.55,2.92-14.64,8.25-19.97
		c5.33-5.33,12.42-8.26,19.98-8.25l39.59,0.01c10.91,0.01,21.17-4.22,28.88-11.93c7.71-7.71,11.95-17.96,11.93-28.88
		c-0.03-22.51-18.37-40.85-40.86-40.88l-6.52-0.03l-69.18-0.09c-0.43,0-0.85,0.04-1.25,0.12h-93.96v-0.12h-286.1H144.29
		c-7.83,1.55-15.02,5.38-20.79,11.15c-7.71,7.71-11.95,17.96-11.93,28.88c0.03,22.51,18.37,40.85,40.88,40.88l4.36,0.01
		c15.6,0.02,28.31,12.73,28.33,28.33c0.01,7.55-2.92,14.64-8.25,19.97c-5.22,5.22-12.13,8.13-19.5,8.24l-74.1-0.16
		c-10.91-0.01-21.17,4.22-28.87,11.93c0,0,0,0,0,0c-7.71,7.71-11.95,17.97-11.93,28.88c0.03,22.51,18.37,40.85,40.89,40.88
		l89.36-0.03l69.23,0.01c15.6,0.02,28.31,12.73,28.33,28.33c0.01,7.55-2.92,14.64-8.25,19.97c-5.33,5.33-12.42,8.26-19.98,8.25
		l-39.6-0.01c-10.91-0.02-21.17,4.22-28.88,11.93c-7.71,7.71-11.95,17.96-11.93,28.88c0.03,22.51,18.37,40.85,40.86,40.88l6.52,0.03
		l69.18,0.09c0.43,0,0.85-0.04,1.25-0.12h93.96v0.12h286.1h126.54c7.83-1.55,15.02-5.38,20.79-11.15
		c7.71-7.71,11.95-17.96,11.93-28.88c-0.03-22.51-18.37-40.85-40.88-40.88l-4.36-0.01c-15.6-0.02-28.31-12.73-28.33-28.33
		c-0.01-7.55,2.92-14.64,8.25-19.97c5.22-5.22,12.13-8.13,19.5-8.24l74.1,0.16c10.91,0.01,21.17-4.22,28.87-11.93c0,0,0,0,0,0
		c7.71-7.71,11.95-17.97,11.93-28.88C887.85,659.37,869.51,641.03,846.98,641z"/>
	<text transform="matrix(1 0 0 1 136.1153 561.1426)"><tspan x="0" y="0" class="st5 st6 st7">«</tspan><tspan x="35.98" y="0" class="st5 st6 st7 st8"> </tspan><tspan x="49.98" y="0" class="st5 st6 st7">..............................</tspan><tspan x="564.47" y="0" class="st5 st6 st7 st8"> </tspan><tspan x="578.47" y="0" class="st5 st6 st7">»</tspan></text>
	<path class="st0" d="M1013.74,780.51l-89.36,0.03l-69.23-0.01c-15.6-0.02-28.31-12.73-28.33-28.33
		c-0.01-7.55,2.92-14.64,8.25-19.97c5.33-5.33,12.42-8.26,19.98-8.25l39.59,0.01c10.91,0.01,21.17-4.22,28.88-11.93
		c7.71-7.71,11.95-17.96,11.93-28.88c-0.03-22.51-18.37-40.85-40.86-40.88l-6.52-0.03l-69.18-0.09c-0.43,0-0.85,0.04-1.25,0.12
		h-93.96v-0.12h-286.1H311.04c-7.83,1.55-15.02,5.38-20.79,11.15c-7.71,7.71-11.95,17.96-11.93,28.88
		c0.03,22.51,18.37,40.85,40.88,40.88l4.36,0.01c15.6,0.02,28.31,12.73,28.33,28.33c0.01,7.55-2.92,14.64-8.25,19.97
		c-5.22,5.22-12.13,8.13-19.5,8.24l-74.1-0.16c-10.91-0.01-21.17,4.22-28.87,11.93c0,0,0,0,0,0c-7.71,7.71-11.95,17.97-11.93,28.88
		c0.03,22.51,18.37,40.85,40.89,40.88l89.36-0.03l69.23,0.01c15.6,0.02,28.31,12.73,28.33,28.33c0.01,7.55-2.92,14.64-8.25,19.97
		c-5.33,5.33-12.42,8.26-19.98,8.25l-39.6-0.01c-10.91-0.01-21.17,4.22-28.88,11.93c-7.71,7.71-11.95,17.96-11.93,28.88
		c0.03,22.51,18.37,40.85,40.86,40.88l6.52,0.03l69.18,0.09c0.43,0,0.85-0.04,1.25-0.12h93.96v0.12h286.1h126.54
		c7.83-1.55,15.02-5.38,20.79-11.15c7.71-7.71,11.95-17.96,11.93-28.88c-0.03-22.51-18.37-40.85-40.88-40.88l-4.36-0.01
		c-15.6-0.02-28.31-12.73-28.33-28.33c-0.01-7.55,2.92-14.64,8.25-19.97c5.22-5.22,12.13-8.13,19.5-8.24l74.1,0.16
		c10.91,0.01,21.17-4.22,28.87-11.93c0,0,0,0,0,0c7.71-7.71,11.95-17.97,11.93-28.88C1054.6,798.87,1036.26,780.53,1013.74,780.51z"
		/>
	<text transform="matrix(1 0 0 1 302.8663 700.6465)"><tspan x="0" y="0" class="st5 st6 st7">«</tspan><tspan x="35.98" y="0" class="st5 st6 st7 st8"> </tspan><tspan x="49.98" y="0" class="st5 st6 st7">..............................</tspan><tspan x="564.47" y="0" class="st5 st6 st7 st8"> </tspan><tspan x="578.47" y="0" class="st5 st6 st7">»</tspan></text>
	<text transform="matrix(1 0 0 1 224.8663 842.667)"><tspan x="0" y="0" class="st5 st6 st7">«</tspan><tspan x="35.98" y="0" class="st5 st6 st7 st8"> </tspan><tspan x="49.98" y="0" class="st5 st6 st7">!!!!!!!!!!!!!!!!!!!!!!!!!!!!!!!!!!!!!!!!!!</tspan><tspan x="770.27" y="0" class="st5 st6 st7 st8"> </tspan><tspan x="784.27" y="0" class="st5 st6 st7">»</tspan></text>
	<text transform="matrix(1 0 0 1 346.6358 978.0003)"><tspan x="0" y="0" class="st5 st6 st7">«</tspan><tspan x="35.98" y="0" class="st5 st6 st7 st8"> </tspan><tspan x="49.98" y="0" class="st5 st6 st7">???????????????</tspan><tspan x="573.92" y="0" class="st5 st6 st7 st8"> </tspan><tspan x="587.92" y="0" class="st5 st6 st7">»</tspan></text>
	<path class="st1" d="M875.64,230.51l-89.36,0.03l-69.23-0.01c-15.6-0.02-28.31-12.73-28.33-28.33c-0.01-7.55,2.92-14.64,8.25-19.97
		c5.33-5.33,12.42-8.26,19.98-8.25l39.59,0.01c10.91,0.01,21.17-4.22,28.88-11.93c7.71-7.71,11.95-17.96,11.93-28.88
		c-0.03-22.51-18.37-40.85-40.86-40.88l-6.52-0.03l-69.18-0.09c-0.43,0-0.85,0.04-1.25,0.12h-93.96v-0.12h-286.1H172.94
		c-7.83,1.55-15.02,5.38-20.79,11.15c-7.71,7.71-11.95,17.96-11.93,28.88c0.03,22.51,18.37,40.85,40.88,40.88l4.36,0.01
		c15.6,0.02,28.31,12.73,28.33,28.33c0.01,7.55-2.92,14.64-8.25,19.97c-5.22,5.22-12.13,8.13-19.5,8.24l-74.1-0.16
		c-10.91-0.01-21.17,4.22-28.87,11.93c0,0,0,0,0,0c-7.71,7.71-11.95,17.97-11.93,28.88c0.03,22.51,18.37,40.85,40.89,40.88
		l89.36-0.03l69.23,0.01c15.6,0.02,28.31,12.73,28.33,28.33c0.01,7.55-2.92,14.64-8.25,19.97c-5.33,5.33-12.42,8.26-19.98,8.25
		l-39.6-0.01c-10.91-0.01-21.17,4.22-28.88,11.93c-7.71,7.71-11.95,17.96-11.93,28.88c0.03,22.51,18.37,40.85,40.86,40.88l6.52,0.03
		l69.18,0.09c0.43,0,0.85-0.04,1.25-0.12h93.96v0.12h286.1h126.54c7.83-1.55,15.02-5.38,20.79-11.15
		c7.71-7.71,11.95-17.96,11.93-28.88c-0.03-22.51-18.37-40.85-40.88-40.88l-4.36-0.01c-15.6-0.02-28.31-12.73-28.33-28.33
		c-0.01-7.55,2.92-14.64,8.25-19.97c5.22-5.22,12.13-8.13,19.5-8.24l74.1,0.16c10.91,0.01,21.17-4.22,28.87-11.93c0,0,0,0,0,0
		c7.71-7.71,11.95-17.97,11.93-28.88C916.5,248.88,898.16,230.54,875.64,230.51z"/>
	<text transform="matrix(1 0 0 1 164.767 149.6499)"><tspan x="0" y="0" class="st5 st6 st7">«</tspan><tspan x="35.98" y="0" class="st5 st6 st7 st8"> </tspan><tspan x="49.98" y="0" class="st5 st6 st7">..............................</tspan><tspan x="564.47" y="0" class="st5 st6 st7 st8"> </tspan><tspan x="578.47" y="0" class="st5 st6 st7">»</tspan></text>
	<text transform="matrix(1 0 0 1 86.767 291.6704)"><tspan x="0" y="0" class="st5 st6 st7">«</tspan><tspan x="35.98" y="0" class="st5 st6 st7 st8"> </tspan><tspan x="49.98" y="0" class="st5 st6 st7">!!!!!!!!!!!!!!!!!!!!!!!!!!!!!!!!!!!!!!!!!!</tspan><tspan x="770.27" y="0" class="st5 st6 st7 st8"> </tspan><tspan x="784.27" y="0" class="st5 st6 st7">»</tspan></text>
	<text transform="matrix(1 0 0 1 208.5365 429.0037)"><tspan x="0" y="0" class="st5 st6 st7">«</tspan><tspan x="35.98" y="0" class="st5 st6 st7 st8"> </tspan><tspan x="49.98" y="0" class="st5 st6 st7">???????????????</tspan><tspan x="573.92" y="0" class="st5 st6 st7 st8"> </tspan><tspan x="587.92" y="0" class="st5 st6 st7">»</tspan></text>
</g>
</svg>
