<?xml version="1.0" encoding="utf-8"?>
<!-- Generator: Adobe Illustrator 25.2.0, SVG Export Plug-In . SVG Version: 6.00 Build 0)  -->
<svg version="1.1" xmlns="http://www.w3.org/2000/svg" xmlns:xlink="http://www.w3.org/1999/xlink" x="0px" y="0px"
	 viewBox="0 0 1080 1080" style="enable-background:new 0 0 1080 1080;" xml:space="preserve">
<style type="text/css">
	.st0{fill:#FF0049;}
	.st1{fill:#FF5072;}
	.st2{fill:#FF85A2;}
	.st3{fill:#A5003F;}
	.st4{fill:#D30046;}
	.st5{fill:none;stroke:#A5003F;stroke-width:20;stroke-linecap:round;stroke-miterlimit:10;}
	.st6{fill:none;stroke:#FFFFFF;stroke-width:15;stroke-linecap:round;stroke-miterlimit:10;}
	.st7{fill:#FFFFFF;}
	.st8{font-family:'suisse';}
	.st9{font-size:50px;}
	.st10{fill:none;stroke:#FF0049;stroke-width:70;stroke-linecap:round;stroke-miterlimit:10;}
	.st11{fill:none;stroke:#FFFFFF;stroke-width:10;stroke-linecap:round;stroke-miterlimit:10;}
</style>
<g id="COULEURS">
</g>
<g id="Jauge__x2B_accueil">
</g>
<g id="images">
</g>
<g id="TEXTE">
</g>
<g id="jauge">
</g>
<g id="picto_accueil">
</g>
<g id="FOND">
</g>
<g id="PICTOS">
</g>
<g id="bulles_Source__x2B_dico">
</g>
<g id="règles">
</g>
<g id="LOGO">
	<path class="st2" d="M353.44,1000.51c117.33-14.68,394.67-53.79,490.17-65.79c16.67-2.1,29.57-20.84,25.38-37.11
		c-40.89-158.89-26.67-567.78-126.22-779.51c-8.34-17.74-14-39.52-33.52-37.74c-142.92,13.02-346.31,28.05-437.59,37.74
		c-19.09,2.03-36.96,19.1-32.38,37.74c32.38,131.81,69.71,246.88,79.34,805.88C318.99,982.23,333.09,1003.05,353.44,1000.51z"/>
	<line class="st5" x1="332.42" y1="284.64" x2="713.08" y2="242.08"/>
	<line class="st5" x1="365.02" y1="414.43" x2="738.26" y2="371.55"/>
	<path class="st0" d="M716.44,289.75l-42.56,4.85l-32.98,3.74c-8.63,0.97-16.32-6.42-14.96-15.69c0.16-1.11,0.48-2.21,0.95-3.23
		c2.07-4.56,6.16-7.48,10.9-8.01l18.86-2.14c6.33-0.71,11.85-4.37,15.02-10.12c1.33-2.42,2.12-5.12,2.29-7.88
		c0.82-12.56-9.87-22.25-21.76-20.91l-3.11,0.34l-32.96,3.7c-0.2,0.02-0.4,0.07-0.59,0.13l-44.75,5.09l-0.01-0.06l-136.27,15.49
		l-60.27,6.85c-4.42,1.41-8.21,4.36-10.74,8.5c-1.79,2.93-2.76,6.31-2.81,9.74c-0.17,12.04,10.24,21.15,21.82,19.85l1.78-0.2
		c6.93-0.78,13.54,3.64,15.07,10.45c0.92,4.09-0.04,8.23-2.6,11.44c-2.2,2.77-5.34,4.53-8.84,4.98l-35.3,3.93
		c-5.2,0.58-9.85,3.16-13.11,7.24c0,0,0,0,0,0c-3.25,4.09-4.72,9.2-4.12,14.4c1.23,10.72,10.96,18.46,21.69,17.26l42.56-4.85
		l32.98-3.74c8.63-0.97,16.32,6.42,14.96,15.69c-0.16,1.11-0.48,2.21-0.95,3.23c-2.07,4.56-6.16,7.48-10.9,8.01l-18.86,2.14
		c-6.33,0.71-11.85,4.37-15.02,10.12c-1.33,2.42-2.11,5.12-2.29,7.88c-0.81,12.55,9.87,22.25,21.76,20.91l3.11-0.34l32.96-3.7
		c0.2-0.02,0.4-0.07,0.59-0.13l44.75-5.09l0.01,0.06l136.27-15.49l60.27-6.85c4.42-1.41,8.21-4.36,10.74-8.5
		c1.79-2.93,2.76-6.31,2.81-9.74c0.17-12.04-10.24-21.16-21.82-19.86l-1.78,0.2c-6.93,0.78-13.54-3.64-15.07-10.45
		c-0.92-4.09,0.04-8.23,2.6-11.44c2.2-2.77,5.34-4.53,8.84-4.98l35.3-3.93c5.2-0.58,9.85-3.16,13.11-7.24c0,0,0,0,0,0
		c3.25-4.09,4.72-9.2,4.12-14.4C736.9,296.29,727.17,288.54,716.44,289.75z"/>
	<line class="st5" x1="302.33" y1="172.5" x2="540" y2="144.5"/>
	<line class="st5" x1="319.12" y1="223.17" x2="695.12" y2="179.17"/>
	<line class="st6" x1="412.83" y1="275.85" x2="651.98" y2="249.11"/>
	<line class="st6" x1="357" y1="350.28" x2="716.4" y2="308.91"/>
	<line class="st6" x1="418.33" y1="408.5" x2="665.73" y2="380.08"/>
	<line class="st5" x1="353" y1="488.85" x2="729" y2="440.5"/>
	<line class="st5" x1="363.67" y1="551.17" x2="769" y2="496.5"/>
	<line class="st5" x1="377" y1="610.93" x2="686.33" y2="568.5"/>
	<line class="st5" x1="381" y1="691.17" x2="532.13" y2="672.5"/>
	<text transform="matrix(0.9934 -0.1143 0.1143 0.9934 370.8803 296.4546)" class="st7 st8 st9">«</text>
	<text transform="matrix(-0.9935 0.1141 -0.1141 -0.9935 705.8592 362.9818)" class="st7 st8 st9">«</text>
	<line class="st10" x1="377.67" y1="920.06" x2="810.33" y2="859.99"/>
	<line class="st11" x1="419.67" y1="914.23" x2="810.33" y2="859.99"/>
	<circle class="st7" cx="377.67" cy="920.06" r="18.56"/>
</g>
</svg>
