<?xml version="1.0" encoding="utf-8"?>
<!-- Generator: Adobe Illustrator 25.2.3, SVG Export Plug-In . SVG Version: 6.00 Build 0)  -->
<svg version="1.1" id="Calque_1" xmlns="http://www.w3.org/2000/svg" xmlns:xlink="http://www.w3.org/1999/xlink" x="0px" y="0px"
	 viewBox="0 0 1080 1080" style="enable-background:new 0 0 1080 1080;" xml:space="preserve">
<style type="text/css">
	.st0{fill:#FF0049;}
	.st1{fill:#FF85A2;}
	.st2{fill:#FFFFFF;}
	.st3{font-family:'suisse';}
	.st4{font-size:70px;}
	.st5{letter-spacing:-2;}
	.st6{fill:#FF5072;}
</style>
<g id="COULEURS">
</g>
<g id="Jauge__x2B_accueil">
</g>
<g id="images">
</g>
<g id="TEXTE">
</g>
<g id="jauge">
</g>
<g id="picto_accueil">
</g>
<g id="FOND">
</g>
<g id="PICTOS">
</g>
<g id="bulles_Source__x2B_dico">
</g>
<g id="règles">
</g>
<path class="st0" d="M941.3,367.5l-89.4,0l-69.2,0c-15.6,0-28.3-12.7-28.3-28.3c0-7.5,2.9-14.6,8.2-20s12.4-8.3,20-8.2l39.6,0
	c10.9,0,21.2-4.2,28.9-11.9s12-18,11.9-28.9c0-22.5-18.4-40.9-40.9-40.9l-6.5,0l-69.2-0.1c-0.4,0-0.8,0-1.2,0.1h-94v-0.1H365.1
	H238.6c-7.8,1.6-15,5.4-20.8,11.1c-7.7,7.7-11.9,18-11.9,28.9c0,22.5,18.4,40.9,40.9,40.9l4.4,0c15.6,0,28.3,12.7,28.3,28.3
	c0,7.5-2.9,14.6-8.2,20c-5.2,5.2-12.1,8.1-19.5,8.2l-74.1-0.2c-10.9,0-21.2,4.2-28.9,11.9l0,0c-7.7,7.7-11.9,18-11.9,28.9
	c0,22.5,18.4,40.9,40.9,40.9l89.4,0l69.2,0c15.6,0,28.3,12.7,28.3,28.3c0,7.5-2.9,14.6-8.2,20s-12.4,8.3-20,8.2l-39.6,0
	c-10.9,0-21.2,4.2-28.9,11.9c-7.7,7.7-11.9,18-11.9,28.9c0,22.5,18.4,40.8,40.9,40.9l6.5,0l69.2,0.1c0.4,0,0.9,0,1.2-0.1h94v0.1
	h286.1h126.5c7.8-1.5,15-5.4,20.8-11.2c7.7-7.7,12-18,11.9-28.9c0-22.5-18.4-40.9-40.9-40.9l-4.4,0c-15.6,0-28.3-12.7-28.3-28.3
	c0-7.5,2.9-14.6,8.2-20c5.2-5.2,12.1-8.1,19.5-8.2l74.1,0.2c10.9,0,21.2-4.2,28.9-11.9l0,0c7.7-7.7,12-18,11.9-28.9
	C982.2,385.9,963.8,367.5,941.3,367.5z"/>
<path class="st1" d="M925.8,506.4l-89.4,0l-69.2,0c-15.6,0-28.3-12.7-28.3-28.3c0-7.5,2.9-14.6,8.2-20s12.4-8.3,20-8.2l39.6,0
	c10.9,0,21.2-4.2,28.9-11.9s12-18,11.9-28.9c0-22.5-18.4-40.9-40.9-40.9l-6.5,0l-69.2-0.1c-0.4,0-0.8,0-1.2,0.1h-94v-0.1H349.6
	H223.1c-7.8,1.5-15,5.4-20.8,11.1c-7.7,7.7-11.9,18-11.9,28.9c0,22.5,18.4,40.9,40.9,40.9l4.4,0c15.6,0,28.3,12.7,28.3,28.3
	c0,7.5-2.9,14.6-8.2,20c-5.2,5.2-12.1,8.1-19.5,8.2l-74.1-0.2c-10.9,0-21.2,4.2-28.9,11.9l0,0c-7.7,7.7-11.9,18-11.9,28.9
	c0,22.5,18.4,40.8,40.9,40.9l89.4,0l69.2,0c15.6,0,28.3,12.7,28.3,28.3c0,7.5-2.9,14.6-8.2,20c-5.3,5.3-12.4,8.3-20,8.2l-39.6,0
	c-10.9,0-21.2,4.2-28.9,11.9c-7.7,7.7-11.9,18-11.9,28.9c0,22.5,18.4,40.8,40.9,40.9l6.5,0l69.2,0.1c0.4,0,0.9,0,1.2-0.1h94v0.1
	h286.1h126.6c7.8-1.5,15-5.4,20.8-11.2c7.7-7.7,12-18,11.9-28.9c0-22.5-18.4-40.8-40.9-40.9l-4.4,0c-15.6,0-28.3-12.7-28.3-28.3
	c0-7.5,2.9-14.6,8.2-20c5.2-5.2,12.1-8.1,19.5-8.2l74.1,0.2c10.9,0,21.2-4.2,28.9-11.9l0,0c7.7-7.7,12-18,11.9-28.9
	C966.7,524.8,948.3,506.4,925.8,506.4z"/>
<text transform="matrix(1 0 0 1 286.1153 287.6524)" class="st2 st3 st4">«</text>
<text transform="matrix(1 0 0 1 322.0953 287.6524)" class="st2 st3 st4 st5"> </text>
<text transform="matrix(1 0 0 1 336.0953 287.6524)" class="st2 st3 st4">..............................</text>
<text transform="matrix(1 0 0 1 850.5853 287.6524)" class="st2 st3 st4 st5"> </text>
<text transform="matrix(1 0 0 1 864.5853 287.6524)" class="st2 st3 st4">»</text>
<path class="st6" d="M847,641l-89.4,0l-69.2,0c-15.6,0-28.3-12.7-28.3-28.3c0-7.5,2.9-14.6,8.2-20c5.3-5.3,12.4-8.3,20-8.2l39.6,0
	c10.9,0,21.2-4.2,28.9-11.9s12-18,11.9-28.9c0-22.5-18.4-40.9-40.9-40.9l-6.5,0l-69.2-0.1c-0.4,0-0.8,0-1.2,0.1h-94v-0.1H270.8
	H144.3c-7.8,1.5-15,5.4-20.8,11.2c-7.7,7.7-11.9,18-11.9,28.9c0,22.5,18.4,40.8,40.9,40.9l4.4,0c15.6,0,28.3,12.7,28.3,28.3
	c0,7.5-2.9,14.6-8.2,20c-5.2,5.2-12.1,8.1-19.5,8.2L83.3,640c-10.9,0-21.2,4.2-28.9,11.9l0,0c-7.7,7.7-12,18-11.9,28.9
	c0,22.5,18.4,40.8,40.9,40.9l89.4,0l69.2,0c15.6,0,28.3,12.7,28.3,28.3c0,7.5-2.9,14.6-8.2,20c-5.3,5.3-12.4,8.3-20,8.2l-39.6,0
	c-10.9,0-21.2,4.2-28.9,11.9s-11.9,18-11.9,28.9c0,22.5,18.4,40.8,40.9,40.9l6.5,0l69.2,0.1c0.4,0,0.9,0,1.2-0.1h94v0.1h286.1h126.5
	c7.8-1.5,15-5.4,20.8-11.2c7.7-7.7,12-18,11.9-28.9c0-22.5-18.4-40.8-40.9-40.9l-4.4,0c-15.6,0-28.3-12.7-28.3-28.3
	c0-7.5,2.9-14.6,8.2-20c5.2-5.2,12.1-8.1,19.5-8.2l74.1,0.2c10.9,0,21.2-4.2,28.9-11.9l0,0c7.7-7.7,12-18,11.9-28.9
	C887.8,659.4,869.5,641,847,641z"/>
<path class="st0" d="M1013.7,780.5l-89.4,0l-69.2,0c-15.6,0-28.3-12.7-28.3-28.3c0-7.5,2.9-14.6,8.2-20c5.3-5.3,12.4-8.3,20-8.2
	l39.6,0c10.9,0,21.2-4.2,28.9-11.9s12-18,11.9-28.9c0-22.5-18.4-40.8-40.9-40.9l-6.5,0l-69.2-0.1c-0.4,0-0.8,0-1.2,0.1h-94v-0.1
	H437.6H311c-7.8,1.5-15,5.4-20.8,11.2c-7.7,7.7-12,18-11.9,28.9c0,22.5,18.4,40.8,40.9,40.9l4.4,0c15.6,0,28.3,12.7,28.3,28.3
	c0,7.5-2.9,14.6-8.2,20c-5.2,5.2-12.1,8.1-19.5,8.2l-74.1-0.2c-10.9,0-21.2,4.2-28.9,11.9l0,0c-7.7,7.7-11.9,18-11.9,28.9
	c0,22.5,18.4,40.8,40.9,40.9l89.4,0l69.2,0c15.6,0,28.3,12.7,28.3,28.3c0,7.5-2.9,14.6-8.2,20c-5.3,5.3-12.4,8.3-20,8.2l-39.6,0
	c-10.9,0-21.2,4.2-28.9,11.9s-12,18-11.9,28.9c0,22.5,18.4,40.8,40.9,40.9l6.5,0l69.2,0.1c0.4,0,0.9,0,1.2-0.1h94v0.1h286.1h126.5
	c7.8-1.5,15-5.4,20.8-11.2c7.7-7.7,12-18,11.9-28.9c0-22.5-18.4-40.8-40.9-40.9l-4.4,0c-15.6,0-28.3-12.7-28.3-28.3
	c0-7.5,2.9-14.6,8.2-20c5.2-5.2,12.1-8.1,19.5-8.2l74.1,0.2c10.9,0,21.2-4.2,28.9-11.9l0,0c7.7-7.7,11.9-18,11.9-28.9
	C1054.6,798.9,1036.3,780.5,1013.7,780.5z"/>
<path class="st6" d="M875.6,230.5l-89.4,0l-69.2,0c-15.6,0-28.3-12.7-28.3-28.3c0-7.6,2.9-14.6,8.2-20s12.4-8.3,20-8.2l39.6,0
	c10.9,0,21.2-4.2,28.9-11.9c7.7-7.7,12-18,11.9-28.9c0-22.5-18.4-40.8-40.9-40.9l-6.5,0l-69.2-0.1c-0.4,0-0.8,0-1.2,0.1h-94v-0.1
	H299.5H172.9c-7.8,1.6-15,5.4-20.8,11.2c-7.7,7.7-11.9,18-11.9,28.9c0,22.5,18.4,40.9,40.9,40.9l4.4,0c15.6,0,28.3,12.7,28.3,28.3
	c0,7.6-2.9,14.6-8.2,20c-5.2,5.2-12.1,8.1-19.5,8.2l-74.1-0.2c-10.9,0-21.2,4.2-28.9,11.9l0,0c-7.7,7.7-11.9,18-11.9,28.9
	c0,22.5,18.4,40.9,40.9,40.9l89.4,0l69.2,0c15.6,0,28.3,12.7,28.3,28.3c0,7.5-2.9,14.6-8.2,20s-12.4,8.3-20,8.2l-39.6,0
	c-10.9,0-21.2,4.2-28.9,11.9s-11.9,18-11.9,28.9c0,22.5,18.4,40.9,40.9,40.9l6.5,0l69.2,0.1c0.4,0,0.9,0,1.2-0.1h94v0.1h286.1h126.5
	c7.8-1.5,15-5.4,20.8-11.1c7.7-7.7,12-18,11.9-28.9c0-22.5-18.4-40.9-40.9-40.9l-4.4,0c-15.6,0-28.3-12.7-28.3-28.3
	c0-7.5,2.9-14.6,8.2-20c5.2-5.2,12.1-8.1,19.5-8.2l74.1,0.2c10.9,0,21.2-4.2,28.9-11.9l0,0c7.7-7.7,12-18,11.9-28.9
	C916.5,248.9,898.2,230.5,875.6,230.5z"/>
<g>
	<polygon class="st2" points="163.6,525.1 153.5,540.1 153.5,540.3 153.5,540.6 153.5,540.8 163.6,555.7 168.7,555.7 159.3,540.4 
		168.7,525.1 	"/>
	<polygon class="st2" points="156,525.1 150.8,525.1 140.8,540.1 140.8,540.3 140.8,540.6 140.8,540.8 150.8,555.7 156,555.7 
		146.5,540.4 	"/>
	<path class="st2" d="M195.7,552.6c-1.2,0-2.3,0.4-3.2,1.3c-0.9,0.9-1.3,1.9-1.3,3.2c0,1.2,0.4,2.3,1.3,3.2c0.9,0.9,1.9,1.3,3.2,1.3
		c0.8,0,1.6-0.2,2.2-0.6c0.7-0.4,1.2-0.9,1.6-1.6c0.4-0.7,0.6-1.4,0.6-2.2c0-1.2-0.4-2.3-1.3-3.2C198,553,197,552.6,195.7,552.6z"/>
	<path class="st2" d="M215,552.6c-1.2,0-2.3,0.4-3.2,1.3c-0.9,0.9-1.3,1.9-1.3,3.2c0,1.2,0.4,2.3,1.3,3.2c0.9,0.9,1.9,1.3,3.2,1.3
		c0.8,0,1.6-0.2,2.2-0.6c0.7-0.4,1.2-0.9,1.6-1.6c0.4-0.7,0.6-1.4,0.6-2.2c0-1.2-0.4-2.3-1.3-3.2C217.3,553,216.3,552.6,215,552.6z"
		/>
	<path class="st2" d="M231.2,553.9c-0.9,0.9-1.3,1.9-1.3,3.2c0,1.2,0.4,2.3,1.3,3.2c0.9,0.9,1.9,1.3,3.2,1.3c0.8,0,1.6-0.2,2.2-0.6
		c0.7-0.4,1.2-0.9,1.6-1.6c0.4-0.7,0.6-1.4,0.6-2.2c0-1.2-0.4-2.3-1.3-3.2c-0.9-0.9-1.9-1.3-3.2-1.3
		C233.1,552.6,232,553,231.2,553.9z"/>
	<path class="st2" d="M253.6,552.6c-1.2,0-2.3,0.4-3.2,1.3c-0.9,0.9-1.3,1.9-1.3,3.2c0,1.2,0.4,2.3,1.3,3.2c0.9,0.9,1.9,1.3,3.2,1.3
		c0.8,0,1.6-0.2,2.2-0.6c0.7-0.4,1.2-0.9,1.6-1.6c0.4-0.7,0.6-1.4,0.6-2.2c0-1.2-0.4-2.3-1.3-3.2C255.9,553,254.8,552.6,253.6,552.6
		z"/>
	<path class="st2" d="M272.9,552.6c-1.2,0-2.3,0.4-3.2,1.3c-0.9,0.9-1.3,1.9-1.3,3.2c0,1.2,0.4,2.3,1.3,3.2c0.9,0.9,1.9,1.3,3.2,1.3
		c0.8,0,1.6-0.2,2.2-0.6c0.7-0.4,1.2-0.9,1.6-1.6c0.4-0.7,0.6-1.4,0.6-2.2c0-1.2-0.4-2.3-1.3-3.2C275.2,553,274.1,552.6,272.9,552.6
		z"/>
	<path class="st2" d="M292.2,552.6c-1.2,0-2.3,0.4-3.2,1.3c-0.9,0.9-1.3,1.9-1.3,3.2c0,1.2,0.4,2.3,1.3,3.2c0.9,0.9,1.9,1.3,3.2,1.3
		c0.8,0,1.6-0.2,2.2-0.6c0.7-0.4,1.2-0.9,1.6-1.6c0.4-0.7,0.6-1.4,0.6-2.2c0-1.2-0.4-2.3-1.3-3.2C294.5,553,293.4,552.6,292.2,552.6
		z"/>
	<path class="st2" d="M311.5,561.5c0.8,0,1.6-0.2,2.2-0.6c0.7-0.4,1.2-0.9,1.6-1.6c0.4-0.7,0.6-1.4,0.6-2.2c0-1.2-0.4-2.3-1.3-3.2
		c-0.9-0.9-1.9-1.3-3.2-1.3c-1.2,0-2.3,0.4-3.2,1.3c-0.9,0.9-1.3,1.9-1.3,3.2c0,1.2,0.4,2.3,1.3,3.2
		C309.2,561.1,310.2,561.5,311.5,561.5z"/>
	<path class="st2" d="M327.6,560.2c0.9,0.9,1.9,1.3,3.2,1.3c0.8,0,1.6-0.2,2.2-0.6c0.7-0.4,1.2-0.9,1.6-1.6c0.4-0.7,0.6-1.4,0.6-2.2
		c0-1.2-0.4-2.3-1.3-3.2c-0.9-0.9-1.9-1.3-3.2-1.3c-1.2,0-2.3,0.4-3.2,1.3c-0.9,0.9-1.3,1.9-1.3,3.2
		C326.3,558.3,326.7,559.3,327.6,560.2z"/>
	<path class="st2" d="M353.9,559.3c0.4-0.7,0.6-1.4,0.6-2.2c0-1.2-0.4-2.3-1.3-3.2c-0.9-0.9-1.9-1.3-3.2-1.3c-1.2,0-2.3,0.4-3.2,1.3
		c-0.9,0.9-1.3,1.9-1.3,3.2c0,1.2,0.4,2.3,1.3,3.2c0.9,0.9,1.9,1.3,3.2,1.3c0.8,0,1.6-0.2,2.2-0.6C353,560.5,353.5,560,353.9,559.3z
		"/>
	<path class="st2" d="M371.6,560.9c0.7-0.4,1.2-0.9,1.6-1.6c0.4-0.7,0.6-1.4,0.6-2.2c0-1.2-0.4-2.3-1.3-3.2
		c-0.9-0.9-1.9-1.3-3.2-1.3c-1.2,0-2.3,0.4-3.2,1.3c-0.9,0.9-1.3,1.9-1.3,3.2c0,1.2,0.4,2.3,1.3,3.2c0.9,0.9,1.9,1.3,3.2,1.3
		C370.2,561.5,370.9,561.3,371.6,560.9z"/>
	<path class="st2" d="M388.6,552.6c-1.2,0-2.3,0.4-3.2,1.3c-0.9,0.9-1.3,1.9-1.3,3.2c0,1.2,0.4,2.3,1.3,3.2c0.9,0.9,1.9,1.3,3.2,1.3
		c0.8,0,1.6-0.2,2.2-0.6c0.7-0.4,1.2-0.9,1.6-1.6c0.4-0.7,0.6-1.4,0.6-2.2c0-1.2-0.4-2.3-1.3-3.2C390.9,553,389.9,552.6,388.6,552.6
		z"/>
	<path class="st2" d="M407.9,552.6c-1.2,0-2.3,0.4-3.2,1.3c-0.9,0.9-1.3,1.9-1.3,3.2c0,1.2,0.4,2.3,1.3,3.2c0.9,0.9,1.9,1.3,3.2,1.3
		c0.8,0,1.6-0.2,2.2-0.6c0.7-0.4,1.2-0.9,1.6-1.6c0.4-0.7,0.6-1.4,0.6-2.2c0-1.2-0.4-2.3-1.3-3.2C410.2,553,409.1,552.6,407.9,552.6
		z"/>
	<path class="st2" d="M427.2,552.6c-1.2,0-2.3,0.4-3.2,1.3c-0.9,0.9-1.3,1.9-1.3,3.2c0,1.2,0.4,2.3,1.3,3.2c0.9,0.9,1.9,1.3,3.2,1.3
		c0.8,0,1.6-0.2,2.2-0.6c0.7-0.4,1.2-0.9,1.6-1.6c0.4-0.7,0.6-1.4,0.6-2.2c0-1.2-0.4-2.3-1.3-3.2C429.5,553,428.4,552.6,427.2,552.6
		z"/>
	<path class="st2" d="M448.7,560.9c0.7-0.4,1.2-0.9,1.6-1.6c0.4-0.7,0.6-1.4,0.6-2.2c0-1.2-0.4-2.3-1.3-3.2
		c-0.9-0.9-1.9-1.3-3.2-1.3c-1.2,0-2.3,0.4-3.2,1.3c-0.9,0.9-1.3,1.9-1.3,3.2c0,1.2,0.4,2.3,1.3,3.2c0.9,0.9,1.9,1.3,3.2,1.3
		C447.3,561.5,448.1,561.3,448.7,560.9z"/>
	<path class="st2" d="M465.8,552.6c-1.2,0-2.3,0.4-3.2,1.3c-0.9,0.9-1.3,1.9-1.3,3.2c0,1.2,0.4,2.3,1.3,3.2c0.9,0.9,1.9,1.3,3.2,1.3
		c0.8,0,1.6-0.2,2.2-0.6c0.7-0.4,1.2-0.9,1.6-1.6c0.4-0.7,0.6-1.4,0.6-2.2c0-1.2-0.4-2.3-1.3-3.2C468.1,553,467,552.6,465.8,552.6z"
		/>
	<path class="st2" d="M487.3,560.9c0.7-0.4,1.2-0.9,1.6-1.6c0.4-0.7,0.6-1.4,0.6-2.2c0-1.2-0.4-2.3-1.3-3.2
		c-0.9-0.9-1.9-1.3-3.2-1.3c-1.2,0-2.3,0.4-3.2,1.3c-0.9,0.9-1.3,1.9-1.3,3.2c0,1.2,0.4,2.3,1.3,3.2c0.9,0.9,1.9,1.3,3.2,1.3
		C485.9,561.5,486.7,561.3,487.3,560.9z"/>
	<path class="st2" d="M508.2,559.3c0.4-0.7,0.6-1.4,0.6-2.2c0-1.2-0.4-2.3-1.3-3.2c-0.9-0.9-1.9-1.3-3.2-1.3c-1.2,0-2.3,0.4-3.2,1.3
		c-0.9,0.9-1.3,1.9-1.3,3.2c0,1.2,0.4,2.3,1.3,3.2c0.9,0.9,1.9,1.3,3.2,1.3c0.8,0,1.6-0.2,2.2-0.6
		C507.3,560.5,507.8,560,508.2,559.3z"/>
	<path class="st2" d="M525.9,560.9c0.7-0.4,1.2-0.9,1.6-1.6c0.4-0.7,0.6-1.4,0.6-2.2c0-1.2-0.4-2.3-1.3-3.2
		c-0.9-0.9-1.9-1.3-3.2-1.3c-1.2,0-2.3,0.4-3.2,1.3c-0.9,0.9-1.3,1.9-1.3,3.2c0,1.2,0.4,2.3,1.3,3.2c0.9,0.9,1.9,1.3,3.2,1.3
		C524.5,561.5,525.2,561.3,525.9,560.9z"/>
	<path class="st2" d="M538.5,557.1c0,1.2,0.4,2.3,1.3,3.2c0.9,0.9,1.9,1.3,3.2,1.3c0.8,0,1.6-0.2,2.2-0.6c0.7-0.4,1.2-0.9,1.6-1.6
		c0.4-0.7,0.6-1.4,0.6-2.2c0-1.2-0.4-2.3-1.3-3.2c-0.9-0.9-1.9-1.3-3.2-1.3c-1.2,0-2.3,0.4-3.2,1.3
		C538.9,554.8,538.5,555.8,538.5,557.1z"/>
	<path class="st2" d="M564.5,560.9c0.7-0.4,1.2-0.9,1.6-1.6c0.4-0.7,0.6-1.4,0.6-2.2c0-1.2-0.4-2.3-1.3-3.2
		c-0.9-0.9-1.9-1.3-3.2-1.3c-1.2,0-2.3,0.4-3.2,1.3c-0.9,0.9-1.3,1.9-1.3,3.2c0,1.2,0.4,2.3,1.3,3.2c0.9,0.9,1.9,1.3,3.2,1.3
		C563.1,561.5,563.8,561.3,564.5,560.9z"/>
	<path class="st2" d="M577,557.1c0,1.2,0.4,2.3,1.3,3.2c0.9,0.9,1.9,1.3,3.2,1.3c0.8,0,1.6-0.2,2.2-0.6c0.7-0.4,1.2-0.9,1.6-1.6
		c0.4-0.7,0.6-1.4,0.6-2.2c0-1.2-0.4-2.3-1.3-3.2c-0.9-0.9-1.9-1.3-3.2-1.3c-1.2,0-2.3,0.4-3.2,1.3C577.5,554.8,577,555.8,577,557.1
		z"/>
	<path class="st2" d="M604.7,559.3c0.4-0.7,0.6-1.4,0.6-2.2c0-1.2-0.4-2.3-1.3-3.2c-0.9-0.9-1.9-1.3-3.2-1.3c-1.2,0-2.3,0.4-3.2,1.3
		c-0.9,0.9-1.3,1.9-1.3,3.2c0,1.2,0.4,2.3,1.3,3.2c0.9,0.9,1.9,1.3,3.2,1.3c0.8,0,1.6-0.2,2.2-0.6
		C603.7,560.5,604.3,560,604.7,559.3z"/>
	<path class="st2" d="M620.1,561.5c0.8,0,1.6-0.2,2.2-0.6c0.7-0.4,1.2-0.9,1.6-1.6c0.4-0.7,0.6-1.4,0.6-2.2c0-1.2-0.4-2.3-1.3-3.2
		c-0.9-0.9-1.9-1.3-3.2-1.3c-1.2,0-2.3,0.4-3.2,1.3c-0.9,0.9-1.3,1.9-1.3,3.2c0,1.2,0.4,2.3,1.3,3.2
		C617.8,561.1,618.9,561.5,620.1,561.5z"/>
	<path class="st2" d="M639.4,552.6c-1.2,0-2.3,0.4-3.2,1.3c-0.9,0.9-1.3,1.9-1.3,3.2c0,1.2,0.4,2.3,1.3,3.2c0.9,0.9,1.9,1.3,3.2,1.3
		c0.8,0,1.6-0.2,2.2-0.6c0.7-0.4,1.2-0.9,1.6-1.6c0.4-0.7,0.6-1.4,0.6-2.2c0-1.2-0.4-2.3-1.3-3.2C641.7,553,640.6,552.6,639.4,552.6
		z"/>
	<path class="st2" d="M662.5,559.3c0.4-0.7,0.6-1.4,0.6-2.2c0-1.2-0.4-2.3-1.3-3.2c-0.9-0.9-1.9-1.3-3.2-1.3s-2.3,0.4-3.2,1.3
		c-0.9,0.9-1.3,1.9-1.3,3.2c0,1.2,0.4,2.3,1.3,3.2c0.9,0.9,1.9,1.3,3.2,1.3c0.8,0,1.6-0.2,2.2-0.6
		C661.6,560.5,662.1,560,662.5,559.3z"/>
	<path class="st2" d="M678,552.6c-1.2,0-2.3,0.4-3.2,1.3c-0.9,0.9-1.3,1.9-1.3,3.2c0,1.2,0.4,2.3,1.3,3.2c0.9,0.9,1.9,1.3,3.2,1.3
		c0.8,0,1.6-0.2,2.2-0.6c0.7-0.4,1.2-0.9,1.6-1.6c0.4-0.7,0.6-1.4,0.6-2.2c0-1.2-0.4-2.3-1.3-3.2C680.2,553,679.2,552.6,678,552.6z"
		/>
	<path class="st2" d="M701.1,559.3c0.4-0.7,0.6-1.4,0.6-2.2c0-1.2-0.4-2.3-1.3-3.2c-0.9-0.9-1.9-1.3-3.2-1.3s-2.3,0.4-3.2,1.3
		c-0.9,0.9-1.3,1.9-1.3,3.2c0,1.2,0.4,2.3,1.3,3.2c0.9,0.9,1.9,1.3,3.2,1.3c0.8,0,1.6-0.2,2.2-0.6
		C700.2,560.5,700.7,560,701.1,559.3z"/>
	<polygon class="st2" points="724.4,555.7 734.5,540.8 734.5,540.6 734.5,540.3 734.5,540.1 724.4,525.1 719.3,525.1 728.7,540.4 
		719.3,555.7 	"/>
	<polygon class="st2" points="747.2,540.6 747.2,540.3 747.2,540.1 737.2,525.1 732,525.1 741.4,540.4 732,555.7 737.2,555.7 
		747.2,540.8 	"/>
	<polygon class="st2" points="313.3,679.9 322.8,664.7 317.6,664.7 307.5,679.6 307.5,679.8 307.5,680.1 307.5,680.3 317.6,695.2 
		322.8,695.2 	"/>
	<polygon class="st2" points="330.3,664.7 320.3,679.6 320.3,679.8 320.3,680.1 320.3,680.3 330.3,695.2 335.5,695.2 326,679.9 
		335.5,664.7 	"/>
	<path class="st2" d="M367,696.6c0-1.2-0.4-2.3-1.3-3.2c-0.9-0.9-1.9-1.3-3.2-1.3c-1.2,0-2.3,0.4-3.2,1.3c-0.9,0.9-1.3,1.9-1.3,3.2
		c0,1.2,0.4,2.3,1.3,3.2c0.9,0.9,1.9,1.3,3.2,1.3c0.8,0,1.6-0.2,2.2-0.6c0.7-0.4,1.2-0.9,1.6-1.6C366.8,698.1,367,697.4,367,696.6z"
		/>
	<path class="st2" d="M386.3,696.6c0-1.2-0.4-2.3-1.3-3.2c-0.9-0.9-1.9-1.3-3.2-1.3c-1.2,0-2.3,0.4-3.2,1.3
		c-0.9,0.9-1.3,1.9-1.3,3.2c0,1.2,0.4,2.3,1.3,3.2c0.9,0.9,1.9,1.3,3.2,1.3c0.8,0,1.6-0.2,2.2-0.6c0.7-0.4,1.2-0.9,1.6-1.6
		C386.1,698.1,386.3,697.4,386.3,696.6z"/>
	<path class="st2" d="M401.1,701c0.8,0,1.6-0.2,2.2-0.6c0.7-0.4,1.2-0.9,1.6-1.6c0.4-0.7,0.6-1.4,0.6-2.2c0-1.2-0.4-2.3-1.3-3.2
		c-0.9-0.9-1.9-1.3-3.2-1.3c-1.2,0-2.3,0.4-3.2,1.3c-0.9,0.9-1.3,1.9-1.3,3.2c0,1.2,0.4,2.3,1.3,3.2
		C398.8,700.6,399.8,701,401.1,701z"/>
	<path class="st2" d="M420.4,692.1c-1.2,0-2.3,0.4-3.2,1.3c-0.9,0.9-1.3,1.9-1.3,3.2c0,1.2,0.4,2.3,1.3,3.2c0.9,0.9,1.9,1.3,3.2,1.3
		c0.8,0,1.6-0.2,2.2-0.6c0.7-0.4,1.2-0.9,1.6-1.6c0.4-0.7,0.6-1.4,0.6-2.2c0-1.2-0.4-2.3-1.3-3.2
		C422.6,692.5,421.6,692.1,420.4,692.1z"/>
	<path class="st2" d="M442.8,693.4c-0.9-0.9-1.9-1.3-3.2-1.3c-1.2,0-2.3,0.4-3.2,1.3c-0.9,0.9-1.3,1.9-1.3,3.2
		c0,1.2,0.4,2.3,1.3,3.2c0.9,0.9,1.9,1.3,3.2,1.3c0.8,0,1.6-0.2,2.2-0.6c0.7-0.4,1.2-0.9,1.6-1.6c0.4-0.7,0.6-1.4,0.6-2.2
		C444.1,695.3,443.7,694.3,442.8,693.4z"/>
	<path class="st2" d="M462.1,693.4c-0.9-0.9-1.9-1.3-3.2-1.3c-1.2,0-2.3,0.4-3.2,1.3c-0.9,0.9-1.3,1.9-1.3,3.2
		c0,1.2,0.4,2.3,1.3,3.2c0.9,0.9,1.9,1.3,3.2,1.3c0.8,0,1.6-0.2,2.2-0.6c0.7-0.4,1.2-0.9,1.6-1.6c0.4-0.7,0.6-1.4,0.6-2.2
		C463.4,695.3,463,694.3,462.1,693.4z"/>
	<path class="st2" d="M478.2,692.1c-1.2,0-2.3,0.4-3.2,1.3c-0.9,0.9-1.3,1.9-1.3,3.2c0,1.2,0.4,2.3,1.3,3.2c0.9,0.9,1.9,1.3,3.2,1.3
		c0.8,0,1.6-0.2,2.2-0.6c0.7-0.4,1.2-0.9,1.6-1.6c0.4-0.7,0.6-1.4,0.6-2.2c0-1.2-0.4-2.3-1.3-3.2
		C480.5,692.5,479.5,692.1,478.2,692.1z"/>
	<path class="st2" d="M497.5,692.1c-1.2,0-2.3,0.4-3.2,1.3c-0.9,0.9-1.3,1.9-1.3,3.2c0,1.2,0.4,2.3,1.3,3.2c0.9,0.9,1.9,1.3,3.2,1.3
		c0.8,0,1.6-0.2,2.2-0.6c0.7-0.4,1.2-0.9,1.6-1.6c0.4-0.7,0.6-1.4,0.6-2.2c0-1.2-0.4-2.3-1.3-3.2
		C499.8,692.5,498.7,692.1,497.5,692.1z"/>
	<path class="st2" d="M516.8,692.1c-1.2,0-2.3,0.4-3.2,1.3c-0.9,0.9-1.3,1.9-1.3,3.2c0,1.2,0.4,2.3,1.3,3.2c0.9,0.9,1.9,1.3,3.2,1.3
		c0.8,0,1.6-0.2,2.2-0.6c0.7-0.4,1.2-0.9,1.6-1.6c0.4-0.7,0.6-1.4,0.6-2.2c0-1.2-0.4-2.3-1.3-3.2C519.1,692.5,518,692.1,516.8,692.1
		z"/>
	<path class="st2" d="M540,698.8c0.4-0.7,0.6-1.4,0.6-2.2c0-1.2-0.4-2.3-1.3-3.2c-0.9-0.9-1.9-1.3-3.2-1.3c-1.2,0-2.3,0.4-3.2,1.3
		c-0.9,0.9-1.3,1.9-1.3,3.2c0,1.2,0.4,2.3,1.3,3.2c0.9,0.9,1.9,1.3,3.2,1.3c0.8,0,1.6-0.2,2.2-0.6C539,700,539.6,699.5,540,698.8z"
		/>
	<path class="st2" d="M550.9,696.6c0,1.2,0.4,2.3,1.3,3.2c0.9,0.9,1.9,1.3,3.2,1.3c0.8,0,1.6-0.2,2.2-0.6c0.7-0.4,1.2-0.9,1.6-1.6
		c0.4-0.7,0.6-1.4,0.6-2.2c0-1.2-0.4-2.3-1.3-3.2c-0.9-0.9-1.9-1.3-3.2-1.3c-1.2,0-2.3,0.4-3.2,1.3
		C551.3,694.3,550.9,695.3,550.9,696.6z"/>
	<path class="st2" d="M576.9,700.4c0.7-0.4,1.2-0.9,1.6-1.6c0.4-0.7,0.6-1.4,0.6-2.2c0-1.2-0.4-2.3-1.3-3.2
		c-0.9-0.9-1.9-1.3-3.2-1.3c-1.2,0-2.3,0.4-3.2,1.3c-0.9,0.9-1.3,1.9-1.3,3.2c0,1.2,0.4,2.3,1.3,3.2c0.9,0.9,1.9,1.3,3.2,1.3
		C575.5,701,576.2,700.8,576.9,700.4z"/>
	<path class="st2" d="M590.8,699.7c0.9,0.9,1.9,1.3,3.2,1.3c0.8,0,1.6-0.2,2.2-0.6c0.7-0.4,1.2-0.9,1.6-1.6c0.4-0.7,0.6-1.4,0.6-2.2
		c0-1.2-0.4-2.3-1.3-3.2c-0.9-0.9-1.9-1.3-3.2-1.3c-1.2,0-2.3,0.4-3.2,1.3c-0.9,0.9-1.3,1.9-1.3,3.2
		C589.5,697.8,589.9,698.8,590.8,699.7z"/>
	<path class="st2" d="M615.5,700.4c0.7-0.4,1.2-0.9,1.6-1.6c0.4-0.7,0.6-1.4,0.6-2.2c0-1.2-0.4-2.3-1.3-3.2
		c-0.9-0.9-1.9-1.3-3.2-1.3c-1.2,0-2.3,0.4-3.2,1.3c-0.9,0.9-1.3,1.9-1.3,3.2c0,1.2,0.4,2.3,1.3,3.2c0.9,0.9,1.9,1.3,3.2,1.3
		C614.1,701,614.8,700.8,615.5,700.4z"/>
	<path class="st2" d="M632.5,692.1c-1.2,0-2.3,0.4-3.2,1.3c-0.9,0.9-1.3,1.9-1.3,3.2c0,1.2,0.4,2.3,1.3,3.2c0.9,0.9,1.9,1.3,3.2,1.3
		c0.8,0,1.6-0.2,2.2-0.6c0.7-0.4,1.2-0.9,1.6-1.6c0.4-0.7,0.6-1.4,0.6-2.2c0-1.2-0.4-2.3-1.3-3.2
		C634.8,692.5,633.8,692.1,632.5,692.1z"/>
	<path class="st2" d="M651.8,701c0.8,0,1.6-0.2,2.2-0.6c0.7-0.4,1.2-0.9,1.6-1.6c0.4-0.7,0.6-1.4,0.6-2.2c0-1.2-0.4-2.3-1.3-3.2
		c-0.9-0.9-1.9-1.3-3.2-1.3c-1.2,0-2.3,0.4-3.2,1.3c-0.9,0.9-1.3,1.9-1.3,3.2c0,1.2,0.4,2.3,1.3,3.2
		C649.5,700.6,650.6,701,651.8,701z"/>
	<path class="st2" d="M671.1,692.1c-1.2,0-2.3,0.4-3.2,1.3c-0.9,0.9-1.3,1.9-1.3,3.2c0,1.2,0.4,2.3,1.3,3.2c0.9,0.9,1.9,1.3,3.2,1.3
		c0.8,0,1.6-0.2,2.2-0.6c0.7-0.4,1.2-0.9,1.6-1.6c0.4-0.7,0.6-1.4,0.6-2.2c0-1.2-0.4-2.3-1.3-3.2
		C673.4,692.5,672.3,692.1,671.1,692.1z"/>
	<path class="st2" d="M690.4,692.1c-1.2,0-2.3,0.4-3.2,1.3c-0.9,0.9-1.3,1.9-1.3,3.2c0,1.2,0.4,2.3,1.3,3.2c0.9,0.9,1.9,1.3,3.2,1.3
		c0.8,0,1.6-0.2,2.2-0.6c0.7-0.4,1.2-0.9,1.6-1.6c0.4-0.7,0.6-1.4,0.6-2.2c0-1.2-0.4-2.3-1.3-3.2
		C692.7,692.5,691.6,692.1,690.4,692.1z"/>
	<path class="st2" d="M713.6,698.8c0.4-0.7,0.6-1.4,0.6-2.2c0-1.2-0.4-2.3-1.3-3.2c-0.9-0.9-1.9-1.3-3.2-1.3c-1.2,0-2.3,0.4-3.2,1.3
		c-0.9,0.9-1.3,1.9-1.3,3.2c0,1.2,0.4,2.3,1.3,3.2c0.9,0.9,1.9,1.3,3.2,1.3c0.8,0,1.6-0.2,2.2-0.6
		C712.6,700,713.2,699.5,713.6,698.8z"/>
	<path class="st2" d="M729,692.1c-1.2,0-2.3,0.4-3.2,1.3c-0.9,0.9-1.3,1.9-1.3,3.2c0,1.2,0.4,2.3,1.3,3.2c0.9,0.9,1.9,1.3,3.2,1.3
		c0.8,0,1.6-0.2,2.2-0.6c0.7-0.4,1.2-0.9,1.6-1.6c0.4-0.7,0.6-1.4,0.6-2.2c0-1.2-0.4-2.3-1.3-3.2C731.3,692.5,730.2,692.1,729,692.1
		z"/>
	<path class="st2" d="M748.3,701c0.8,0,1.6-0.2,2.2-0.6c0.7-0.4,1.2-0.9,1.6-1.6c0.4-0.7,0.6-1.4,0.6-2.2c0-1.2-0.4-2.3-1.3-3.2
		c-0.9-0.9-1.9-1.3-3.2-1.3c-1.2,0-2.3,0.4-3.2,1.3c-0.9,0.9-1.3,1.9-1.3,3.2c0,1.2,0.4,2.3,1.3,3.2C746,700.6,747,701,748.3,701z"
		/>
	<path class="st2" d="M763.1,696.6c0,1.2,0.4,2.3,1.3,3.2c0.9,0.9,1.9,1.3,3.2,1.3c0.8,0,1.6-0.2,2.2-0.6c0.7-0.4,1.2-0.9,1.6-1.6
		c0.4-0.7,0.6-1.4,0.6-2.2c0-1.2-0.4-2.3-1.3-3.2c-0.9-0.9-1.9-1.3-3.2-1.3c-1.2,0-2.3,0.4-3.2,1.3
		C763.5,694.3,763.1,695.3,763.1,696.6z"/>
	<path class="st2" d="M789.1,700.4c0.7-0.4,1.2-0.9,1.6-1.6c0.4-0.7,0.6-1.4,0.6-2.2c0-1.2-0.4-2.3-1.3-3.2
		c-0.9-0.9-1.9-1.3-3.2-1.3c-1.2,0-2.3,0.4-3.2,1.3c-0.9,0.9-1.3,1.9-1.3,3.2c0,1.2,0.4,2.3,1.3,3.2c0.9,0.9,1.9,1.3,3.2,1.3
		C787.7,701,788.4,700.8,789.1,700.4z"/>
	<path class="st2" d="M806.1,692.1c-1.2,0-2.3,0.4-3.2,1.3c-0.9,0.9-1.3,1.9-1.3,3.2c0,1.2,0.4,2.3,1.3,3.2c0.9,0.9,1.9,1.3,3.2,1.3
		c0.8,0,1.6-0.2,2.2-0.6c0.7-0.4,1.2-0.9,1.6-1.6c0.4-0.7,0.6-1.4,0.6-2.2c0-1.2-0.4-2.3-1.3-3.2
		C808.4,692.5,807.4,692.1,806.1,692.1z"/>
	<path class="st2" d="M827.7,700.4c0.7-0.4,1.2-0.9,1.6-1.6c0.4-0.7,0.6-1.4,0.6-2.2c0-1.2-0.4-2.3-1.3-3.2
		c-0.9-0.9-1.9-1.3-3.2-1.3s-2.3,0.4-3.2,1.3c-0.9,0.9-1.3,1.9-1.3,3.2c0,1.2,0.4,2.3,1.3,3.2c0.9,0.9,1.9,1.3,3.2,1.3
		C826.3,701,827,700.8,827.7,700.4z"/>
	<path class="st2" d="M844.7,701c0.8,0,1.6-0.2,2.2-0.6c0.7-0.4,1.2-0.9,1.6-1.6c0.4-0.7,0.6-1.4,0.6-2.2c0-1.2-0.4-2.3-1.3-3.2
		c-0.9-0.9-1.9-1.3-3.2-1.3s-2.3,0.4-3.2,1.3c-0.9,0.9-1.3,1.9-1.3,3.2c0,1.2,0.4,2.3,1.3,3.2C842.4,700.6,843.5,701,844.7,701z"/>
	<path class="st2" d="M866.3,700.4c0.7-0.4,1.2-0.9,1.6-1.6c0.4-0.7,0.6-1.4,0.6-2.2c0-1.2-0.4-2.3-1.3-3.2
		c-0.9-0.9-1.9-1.3-3.2-1.3s-2.3,0.4-3.2,1.3c-0.9,0.9-1.3,1.9-1.3,3.2c0,1.2,0.4,2.3,1.3,3.2c0.9,0.9,1.9,1.3,3.2,1.3
		C864.8,701,865.6,700.8,866.3,700.4z"/>
	<polygon class="st2" points="908.2,679.9 898.7,695.2 903.9,695.2 914,680.3 914,680.1 914,679.8 914,679.6 903.9,664.7 
		898.7,664.7 	"/>
	<polygon class="st2" points="901.2,680.1 901.2,679.8 901.2,679.6 891.2,664.7 886,664.7 895.5,679.9 886,695.2 891.2,695.2 
		901.2,680.3 	"/>
	<polygon class="st2" points="244.8,806.7 239.6,806.7 229.5,821.6 229.5,821.8 229.5,822.1 229.5,822.3 239.6,837.2 244.8,837.2 
		235.3,821.9 	"/>
	<polygon class="st2" points="252.3,806.7 242.3,821.6 242.3,821.8 242.3,822.1 242.3,822.3 252.3,837.2 257.5,837.2 248,821.9 
		257.5,806.7 	"/>
	<polygon class="st2" points="281.7,828.3 287.5,828.3 288,791.8 281.2,791.8 	"/>
	<path class="st2" d="M284.6,834.1c-1.2,0-2.3,0.4-3.2,1.3c-0.9,0.9-1.3,1.9-1.3,3.2c0,1.2,0.4,2.3,1.3,3.2c0.9,0.9,1.9,1.3,3.2,1.3
		c0.8,0,1.6-0.2,2.2-0.6c0.7-0.4,1.2-0.9,1.6-1.6c0.4-0.7,0.6-1.4,0.6-2.2c0-1.2-0.4-2.3-1.3-3.2
		C286.9,834.6,285.8,834.1,284.6,834.1z"/>
	<path class="st2" d="M304.1,834.1c-1.2,0-2.3,0.4-3.2,1.3c-0.9,0.9-1.3,1.9-1.3,3.2c0,1.2,0.4,2.3,1.3,3.2c0.9,0.9,1.9,1.3,3.2,1.3
		c0.8,0,1.6-0.2,2.2-0.6c0.7-0.4,1.2-0.9,1.6-1.6c0.4-0.7,0.6-1.4,0.6-2.2c0-1.2-0.4-2.3-1.3-3.2
		C306.4,834.6,305.3,834.1,304.1,834.1z"/>
	<polygon class="st2" points="301.2,828.3 307,828.3 307.5,791.8 300.7,791.8 	"/>
	<path class="st2" d="M323.6,834.1c-1.2,0-2.3,0.4-3.2,1.3c-0.9,0.9-1.3,1.9-1.3,3.2c0,1.2,0.4,2.3,1.3,3.2c0.9,0.9,1.9,1.3,3.2,1.3
		c0.8,0,1.6-0.2,2.2-0.6c0.7-0.4,1.2-0.9,1.6-1.6c0.4-0.7,0.6-1.4,0.6-2.2c0-1.2-0.4-2.3-1.3-3.2
		C325.8,834.6,324.8,834.1,323.6,834.1z"/>
	<polygon class="st2" points="326.4,828.3 326.9,791.8 320.2,791.8 320.7,828.3 	"/>
	<path class="st2" d="M343.1,834.1c-1.2,0-2.3,0.4-3.2,1.3c-0.9,0.9-1.3,1.9-1.3,3.2c0,1.2,0.4,2.3,1.3,3.2c0.9,0.9,1.9,1.3,3.2,1.3
		c0.8,0,1.6-0.2,2.2-0.6c0.7-0.4,1.2-0.9,1.6-1.6c0.4-0.7,0.6-1.4,0.6-2.2c0-1.2-0.4-2.3-1.3-3.2
		C345.3,834.6,344.3,834.1,343.1,834.1z"/>
	<polygon class="st2" points="340.2,828.3 345.9,828.3 346.4,791.8 339.7,791.8 	"/>
	<path class="st2" d="M362.5,843.1c0.8,0,1.6-0.2,2.2-0.6c0.7-0.4,1.2-0.9,1.6-1.6c0.4-0.7,0.6-1.4,0.6-2.2c0-1.2-0.4-2.3-1.3-3.2
		c-0.9-0.9-1.9-1.3-3.2-1.3s-2.3,0.4-3.2,1.3c-0.9,0.9-1.3,1.9-1.3,3.2c0,1.2,0.4,2.3,1.3,3.2C360.3,842.6,361.3,843.1,362.5,843.1z
		"/>
	<polygon class="st2" points="359.7,828.3 365.4,828.3 365.9,791.8 359.2,791.8 	"/>
	<polygon class="st2" points="379.1,828.3 384.9,828.3 385.4,791.8 378.6,791.8 	"/>
	<path class="st2" d="M382,834.1c-1.2,0-2.3,0.4-3.2,1.3c-0.9,0.9-1.3,1.9-1.3,3.2c0,1.2,0.4,2.3,1.3,3.2c0.9,0.9,1.9,1.3,3.2,1.3
		c0.8,0,1.6-0.2,2.2-0.6c0.7-0.4,1.2-0.9,1.6-1.6c0.4-0.7,0.6-1.4,0.6-2.2c0-1.2-0.4-2.3-1.3-3.2C384.3,834.6,383.3,834.1,382,834.1
		z"/>
	<path class="st2" d="M403.8,842.5c0.7-0.4,1.2-0.9,1.6-1.6c0.4-0.7,0.6-1.4,0.6-2.2c0-1.2-0.4-2.3-1.3-3.2
		c-0.9-0.9-1.9-1.3-3.2-1.3s-2.3,0.4-3.2,1.3c-0.9,0.9-1.3,1.9-1.3,3.2c0,1.2,0.4,2.3,1.3,3.2c0.9,0.9,1.9,1.3,3.2,1.3
		C402.3,843.1,403.1,842.9,403.8,842.5z"/>
	<polygon class="st2" points="398.6,828.3 404.4,828.3 404.9,791.8 398.1,791.8 	"/>
	<polygon class="st2" points="423.9,828.3 424.4,791.8 417.6,791.8 418.1,828.3 	"/>
	<path class="st2" d="M417.8,841.7c0.9,0.9,1.9,1.3,3.2,1.3c0.8,0,1.6-0.2,2.2-0.6c0.7-0.4,1.2-0.9,1.6-1.6c0.4-0.7,0.6-1.4,0.6-2.2
		c0-1.2-0.4-2.3-1.3-3.2c-0.9-0.9-1.9-1.3-3.2-1.3s-2.3,0.4-3.2,1.3c-0.9,0.9-1.3,1.9-1.3,3.2C416.5,839.8,417,840.9,417.8,841.7z"
		/>
	<path class="st2" d="M440.5,843.1c0.8,0,1.6-0.2,2.2-0.6c0.7-0.4,1.2-0.9,1.6-1.6c0.4-0.7,0.6-1.4,0.6-2.2c0-1.2-0.4-2.3-1.3-3.2
		c-0.9-0.9-1.9-1.3-3.2-1.3s-2.3,0.4-3.2,1.3c-0.9,0.9-1.3,1.9-1.3,3.2c0,1.2,0.4,2.3,1.3,3.2C438.2,842.6,439.3,843.1,440.5,843.1z
		"/>
	<polygon class="st2" points="437.6,828.3 443.4,828.3 443.9,791.8 437.1,791.8 	"/>
	<path class="st2" d="M460,834.1c-1.2,0-2.3,0.4-3.2,1.3c-0.9,0.9-1.3,1.9-1.3,3.2c0,1.2,0.4,2.3,1.3,3.2c0.9,0.9,1.9,1.3,3.2,1.3
		c0.8,0,1.6-0.2,2.2-0.6c0.7-0.4,1.2-0.9,1.6-1.6c0.4-0.7,0.6-1.4,0.6-2.2c0-1.2-0.4-2.3-1.3-3.2C462.3,834.6,461.2,834.1,460,834.1
		z"/>
	<polygon class="st2" points="457.1,828.3 462.9,828.3 463.4,791.8 456.6,791.8 	"/>
	<polygon class="st2" points="476.6,828.3 482.4,828.3 482.8,791.8 476.1,791.8 	"/>
	<path class="st2" d="M479.5,843.1c0.8,0,1.6-0.2,2.2-0.6c0.7-0.4,1.2-0.9,1.6-1.6c0.4-0.7,0.6-1.4,0.6-2.2c0-1.2-0.4-2.3-1.3-3.2
		c-0.9-0.9-1.9-1.3-3.2-1.3s-2.3,0.4-3.2,1.3c-0.9,0.9-1.3,1.9-1.3,3.2c0,1.2,0.4,2.3,1.3,3.2C477.2,842.6,478.2,843.1,479.5,843.1z
		"/>
	<path class="st2" d="M499,834.1c-1.2,0-2.3,0.4-3.2,1.3c-0.9,0.9-1.3,1.9-1.3,3.2c0,1.2,0.4,2.3,1.3,3.2c0.9,0.9,1.9,1.3,3.2,1.3
		c0.8,0,1.6-0.2,2.2-0.6c0.7-0.4,1.2-0.9,1.6-1.6c0.4-0.7,0.6-1.4,0.6-2.2c0-1.2-0.4-2.3-1.3-3.2C501.2,834.6,500.2,834.1,499,834.1
		z"/>
	<polygon class="st2" points="496.1,828.3 501.8,828.3 502.3,791.8 495.6,791.8 	"/>
	<path class="st2" d="M518.4,843.1c0.8,0,1.6-0.2,2.2-0.6c0.7-0.4,1.2-0.9,1.6-1.6c0.4-0.7,0.6-1.4,0.6-2.2c0-1.2-0.4-2.3-1.3-3.2
		c-0.9-0.9-1.9-1.3-3.2-1.3s-2.3,0.4-3.2,1.3c-0.9,0.9-1.3,1.9-1.3,3.2c0,1.2,0.4,2.3,1.3,3.2C516.2,842.6,517.2,843.1,518.4,843.1z
		"/>
	<polygon class="st2" points="515.6,828.3 521.3,828.3 521.8,791.8 515.1,791.8 	"/>
	<path class="st2" d="M542.4,838.6c0-1.2-0.4-2.3-1.3-3.2c-0.9-0.9-1.9-1.3-3.2-1.3s-2.3,0.4-3.2,1.3c-0.9,0.9-1.3,1.9-1.3,3.2
		c0,1.2,0.4,2.3,1.3,3.2c0.9,0.9,1.9,1.3,3.2,1.3c0.8,0,1.6-0.2,2.2-0.6c0.7-0.4,1.2-0.9,1.6-1.6
		C542.2,840.1,542.4,839.4,542.4,838.6z"/>
	<polygon class="st2" points="540.8,828.3 541.3,791.8 534.6,791.8 535,828.3 	"/>
	<polygon class="st2" points="554.5,828.3 560.3,828.3 560.8,791.8 554,791.8 	"/>
	<path class="st2" d="M557.4,843.1c0.8,0,1.6-0.2,2.2-0.6c0.7-0.4,1.2-0.9,1.6-1.6c0.4-0.7,0.6-1.4,0.6-2.2c0-1.2-0.4-2.3-1.3-3.2
		c-0.9-0.9-1.9-1.3-3.2-1.3s-2.3,0.4-3.2,1.3c-0.9,0.9-1.3,1.9-1.3,3.2c0,1.2,0.4,2.3,1.3,3.2C555.1,842.6,556.2,843.1,557.4,843.1z
		"/>
	<polygon class="st2" points="574,828.3 579.8,828.3 580.3,791.8 573.5,791.8 	"/>
	<path class="st2" d="M579.2,842.5c0.7-0.4,1.2-0.9,1.6-1.6c0.4-0.7,0.6-1.4,0.6-2.2c0-1.2-0.4-2.3-1.3-3.2
		c-0.9-0.9-1.9-1.3-3.2-1.3s-2.3,0.4-3.2,1.3c-0.9,0.9-1.3,1.9-1.3,3.2c0,1.2,0.4,2.3,1.3,3.2c0.9,0.9,1.9,1.3,3.2,1.3
		C577.7,843.1,578.5,842.9,579.2,842.5z"/>
	<polygon class="st2" points="599.3,828.3 599.8,791.8 593,791.8 593.5,828.3 	"/>
	<path class="st2" d="M593.2,841.7c0.9,0.9,1.9,1.3,3.2,1.3c0.8,0,1.6-0.2,2.2-0.6c0.7-0.4,1.2-0.9,1.6-1.6c0.4-0.7,0.6-1.4,0.6-2.2
		c0-1.2-0.4-2.3-1.3-3.2c-0.9-0.9-1.9-1.3-3.2-1.3s-2.3,0.4-3.2,1.3c-0.9,0.9-1.3,1.9-1.3,3.2C591.9,839.8,592.4,840.9,593.2,841.7z
		"/>
	<path class="st2" d="M615.9,843.1c0.8,0,1.6-0.2,2.2-0.6c0.7-0.4,1.2-0.9,1.6-1.6c0.4-0.7,0.6-1.4,0.6-2.2c0-1.2-0.4-2.3-1.3-3.2
		c-0.9-0.9-1.9-1.3-3.2-1.3s-2.3,0.4-3.2,1.3c-0.9,0.9-1.3,1.9-1.3,3.2c0,1.2,0.4,2.3,1.3,3.2C613.6,842.6,614.7,843.1,615.9,843.1z
		"/>
	<polygon class="st2" points="613,828.3 618.8,828.3 619.3,791.8 612.5,791.8 	"/>
	<polygon class="st2" points="632.5,828.3 638.3,828.3 638.8,791.8 632,791.8 	"/>
	<path class="st2" d="M632.2,835.4c-0.9,0.9-1.3,1.9-1.3,3.2c0,1.2,0.4,2.3,1.3,3.2c0.9,0.9,1.9,1.3,3.2,1.3c0.8,0,1.6-0.2,2.2-0.6
		c0.7-0.4,1.2-0.9,1.6-1.6c0.4-0.7,0.6-1.4,0.6-2.2c0-1.2-0.4-2.3-1.3-3.2c-0.9-0.9-1.9-1.3-3.2-1.3S633.1,834.6,632.2,835.4z"/>
	<path class="st2" d="M651.7,841.7c0.9,0.9,1.9,1.3,3.2,1.3c0.8,0,1.6-0.2,2.2-0.6c0.7-0.4,1.2-0.9,1.6-1.6c0.4-0.7,0.6-1.4,0.6-2.2
		c0-1.2-0.4-2.3-1.3-3.2c-0.9-0.9-1.9-1.3-3.2-1.3s-2.3,0.4-3.2,1.3c-0.9,0.9-1.3,1.9-1.3,3.2C650.4,839.8,650.8,840.9,651.7,841.7z
		"/>
	<polygon class="st2" points="657.7,828.3 658.2,791.8 651.5,791.8 652,828.3 	"/>
	<polygon class="st2" points="671.5,828.3 677.2,828.3 677.7,791.8 671,791.8 	"/>
	<path class="st2" d="M674.3,834.1c-1.2,0-2.3,0.4-3.2,1.3c-0.9,0.9-1.3,1.9-1.3,3.2c0,1.2,0.4,2.3,1.3,3.2c0.9,0.9,1.9,1.3,3.2,1.3
		c0.8,0,1.6-0.2,2.2-0.6c0.7-0.4,1.2-0.9,1.6-1.6c0.4-0.7,0.6-1.4,0.6-2.2c0-1.2-0.4-2.3-1.3-3.2
		C676.6,834.6,675.6,834.1,674.3,834.1z"/>
	<polygon class="st2" points="691,828.3 696.7,828.3 697.2,791.8 690.5,791.8 	"/>
	<path class="st2" d="M693.8,843.1c0.8,0,1.6-0.2,2.2-0.6c0.7-0.4,1.2-0.9,1.6-1.6c0.4-0.7,0.6-1.4,0.6-2.2c0-1.2-0.4-2.3-1.3-3.2
		c-0.9-0.9-1.9-1.3-3.2-1.3s-2.3,0.4-3.2,1.3c-0.9,0.9-1.3,1.9-1.3,3.2c0,1.2,0.4,2.3,1.3,3.2C691.6,842.6,692.6,843.1,693.8,843.1z
		"/>
	<polygon class="st2" points="716.2,828.3 716.7,791.8 709.9,791.8 710.4,828.3 	"/>
	<path class="st2" d="M713.3,834.1c-1.2,0-2.3,0.4-3.2,1.3c-0.9,0.9-1.3,1.9-1.3,3.2c0,1.2,0.4,2.3,1.3,3.2c0.9,0.9,1.9,1.3,3.2,1.3
		c0.8,0,1.6-0.2,2.2-0.6c0.7-0.4,1.2-0.9,1.6-1.6c0.4-0.7,0.6-1.4,0.6-2.2c0-1.2-0.4-2.3-1.3-3.2
		C715.6,834.6,714.5,834.1,713.3,834.1z"/>
	<path class="st2" d="M732.8,843.1c0.8,0,1.6-0.2,2.2-0.6c0.7-0.4,1.2-0.9,1.6-1.6c0.4-0.7,0.6-1.4,0.6-2.2c0-1.2-0.4-2.3-1.3-3.2
		c-0.9-0.9-1.9-1.3-3.2-1.3s-2.3,0.4-3.2,1.3c-0.9,0.9-1.3,1.9-1.3,3.2c0,1.2,0.4,2.3,1.3,3.2C730.5,842.6,731.6,843.1,732.8,843.1z
		"/>
	<polygon class="st2" points="729.9,828.3 735.7,828.3 736.2,791.8 729.4,791.8 	"/>
	<path class="st2" d="M756.2,840.8c0.4-0.7,0.6-1.4,0.6-2.2c0-1.2-0.4-2.3-1.3-3.2c-0.9-0.9-1.9-1.3-3.2-1.3s-2.3,0.4-3.2,1.3
		c-0.9,0.9-1.3,1.9-1.3,3.2c0,1.2,0.4,2.3,1.3,3.2c0.9,0.9,1.9,1.3,3.2,1.3c0.8,0,1.6-0.2,2.2-0.6
		C755.2,842,755.8,841.5,756.2,840.8z"/>
	<polygon class="st2" points="755.2,828.3 755.7,791.8 748.9,791.8 749.4,828.3 	"/>
	<polygon class="st2" points="768.9,828.3 774.7,828.3 775.2,791.8 768.4,791.8 	"/>
	<path class="st2" d="M771.8,843.1c0.8,0,1.6-0.2,2.2-0.6c0.7-0.4,1.2-0.9,1.6-1.6c0.4-0.7,0.6-1.4,0.6-2.2c0-1.2-0.4-2.3-1.3-3.2
		c-0.9-0.9-1.9-1.3-3.2-1.3s-2.3,0.4-3.2,1.3c-0.9,0.9-1.3,1.9-1.3,3.2c0,1.2,0.4,2.3,1.3,3.2C769.5,842.6,770.6,843.1,771.8,843.1z
		"/>
	<polygon class="st2" points="788.4,828.3 794.2,828.3 794.7,791.8 787.9,791.8 	"/>
	<path class="st2" d="M793.5,842.5c0.7-0.4,1.2-0.9,1.6-1.6c0.4-0.7,0.6-1.4,0.6-2.2c0-1.2-0.4-2.3-1.3-3.2
		c-0.9-0.9-1.9-1.3-3.2-1.3s-2.3,0.4-3.2,1.3c-0.9,0.9-1.3,1.9-1.3,3.2c0,1.2,0.4,2.3,1.3,3.2c0.9,0.9,1.9,1.3,3.2,1.3
		C792.1,843.1,792.9,842.9,793.5,842.5z"/>
	<path class="st2" d="M810.8,843.1c0.8,0,1.6-0.2,2.2-0.6c0.7-0.4,1.2-0.9,1.6-1.6c0.4-0.7,0.6-1.4,0.6-2.2c0-1.2-0.4-2.3-1.3-3.2
		c-0.9-0.9-1.9-1.3-3.2-1.3s-2.3,0.4-3.2,1.3c-0.9,0.9-1.3,1.9-1.3,3.2c0,1.2,0.4,2.3,1.3,3.2C808.5,842.6,809.5,843.1,810.8,843.1z
		"/>
	<polygon class="st2" points="807.9,828.3 813.6,828.3 814.1,791.8 807.4,791.8 	"/>
	<polygon class="st2" points="827.4,828.3 833.1,828.3 833.6,791.8 826.9,791.8 	"/>
	<path class="st2" d="M830.2,834.1c-1.2,0-2.3,0.4-3.2,1.3c-0.9,0.9-1.3,1.9-1.3,3.2c0,1.2,0.4,2.3,1.3,3.2c0.9,0.9,1.9,1.3,3.2,1.3
		c0.8,0,1.6-0.2,2.2-0.6c0.7-0.4,1.2-0.9,1.6-1.6c0.4-0.7,0.6-1.4,0.6-2.2c0-1.2-0.4-2.3-1.3-3.2
		C832.5,834.6,831.5,834.1,830.2,834.1z"/>
	<path class="st2" d="M849.7,834.1c-1.2,0-2.3,0.4-3.2,1.3c-0.9,0.9-1.3,1.9-1.3,3.2c0,1.2,0.4,2.3,1.3,3.2c0.9,0.9,1.9,1.3,3.2,1.3
		c0.8,0,1.6-0.2,2.2-0.6c0.7-0.4,1.2-0.9,1.6-1.6c0.4-0.7,0.6-1.4,0.6-2.2c0-1.2-0.4-2.3-1.3-3.2C852,834.6,851,834.1,849.7,834.1z"
		/>
	<polygon class="st2" points="846.9,828.3 852.6,828.3 853.1,791.8 846.4,791.8 	"/>
	<path class="st2" d="M869.2,834.1c-1.2,0-2.3,0.4-3.2,1.3c-0.9,0.9-1.3,1.9-1.3,3.2c0,1.2,0.4,2.3,1.3,3.2c0.9,0.9,1.9,1.3,3.2,1.3
		c0.8,0,1.6-0.2,2.2-0.6c0.7-0.4,1.2-0.9,1.6-1.6c0.4-0.7,0.6-1.4,0.6-2.2c0-1.2-0.4-2.3-1.3-3.2
		C871.5,834.6,870.5,834.1,869.2,834.1z"/>
	<polygon class="st2" points="866.3,828.3 872.1,828.3 872.6,791.8 865.8,791.8 	"/>
	<polygon class="st2" points="885.8,828.3 891.6,828.3 892.1,791.8 885.3,791.8 	"/>
	<path class="st2" d="M888.7,834.1c-1.2,0-2.3,0.4-3.2,1.3c-0.9,0.9-1.3,1.9-1.3,3.2c0,1.2,0.4,2.3,1.3,3.2c0.9,0.9,1.9,1.3,3.2,1.3
		c0.8,0,1.6-0.2,2.2-0.6c0.7-0.4,1.2-0.9,1.6-1.6c0.4-0.7,0.6-1.4,0.6-2.2c0-1.2-0.4-2.3-1.3-3.2C891,834.6,889.9,834.1,888.7,834.1
		z"/>
	<polygon class="st2" points="911.1,828.3 911.6,791.8 904.8,791.8 905.3,828.3 	"/>
	<path class="st2" d="M905,841.7c0.9,0.9,1.9,1.3,3.2,1.3c0.8,0,1.6-0.2,2.2-0.6c0.7-0.4,1.2-0.9,1.6-1.6c0.4-0.7,0.6-1.4,0.6-2.2
		c0-1.2-0.4-2.3-1.3-3.2c-0.9-0.9-1.9-1.3-3.2-1.3s-2.3,0.4-3.2,1.3c-0.9,0.9-1.3,1.9-1.3,3.2C903.7,839.8,904.2,840.9,905,841.7z"
		/>
	<polygon class="st2" points="930.6,828.3 931.1,791.8 924.3,791.8 924.8,828.3 	"/>
	<path class="st2" d="M927.7,834.1c-1.2,0-2.3,0.4-3.2,1.3c-0.9,0.9-1.3,1.9-1.3,3.2c0,1.2,0.4,2.3,1.3,3.2c0.9,0.9,1.9,1.3,3.2,1.3
		c0.8,0,1.6-0.2,2.2-0.6c0.7-0.4,1.2-0.9,1.6-1.6c0.4-0.7,0.6-1.4,0.6-2.2c0-1.2-0.4-2.3-1.3-3.2C930,834.6,928.9,834.1,927.7,834.1
		z"/>
	<path class="st2" d="M947.2,843.1c0.8,0,1.6-0.2,2.2-0.6c0.7-0.4,1.2-0.9,1.6-1.6c0.4-0.7,0.6-1.4,0.6-2.2c0-1.2-0.4-2.3-1.3-3.2
		c-0.9-0.9-1.9-1.3-3.2-1.3s-2.3,0.4-3.2,1.3c-0.9,0.9-1.3,1.9-1.3,3.2c0,1.2,0.4,2.3,1.3,3.2C944.9,842.6,945.9,843.1,947.2,843.1z
		"/>
	<polygon class="st2" points="950.1,828.3 950.6,791.8 943.8,791.8 944.3,828.3 	"/>
	<path class="st2" d="M966.7,834.1c-1.2,0-2.3,0.4-3.2,1.3c-0.9,0.9-1.3,1.9-1.3,3.2c0,1.2,0.4,2.3,1.3,3.2c0.9,0.9,1.9,1.3,3.2,1.3
		c0.8,0,1.6-0.2,2.2-0.6c0.7-0.4,1.2-0.9,1.6-1.6c0.4-0.7,0.6-1.4,0.6-2.2c0-1.2-0.4-2.3-1.3-3.2
		C968.9,834.6,967.9,834.1,966.7,834.1z"/>
	<polygon class="st2" points="969.5,828.3 970,791.8 963.3,791.8 963.8,828.3 	"/>
	<polygon class="st2" points="989,828.3 989.5,791.8 982.8,791.8 983.3,828.3 	"/>
	<path class="st2" d="M986.2,834.1c-1.2,0-2.3,0.4-3.2,1.3c-0.9,0.9-1.3,1.9-1.3,3.2c0,1.2,0.4,2.3,1.3,3.2c0.9,0.9,1.9,1.3,3.2,1.3
		c0.8,0,1.6-0.2,2.2-0.6c0.7-0.4,1.2-0.9,1.6-1.6c0.4-0.7,0.6-1.4,0.6-2.2c0-1.2-0.4-2.3-1.3-3.2
		C988.4,834.6,987.4,834.1,986.2,834.1z"/>
	<polygon class="st2" points="1031.7,806.7 1026.5,806.7 1036,821.9 1026.5,837.2 1031.7,837.2 1041.8,822.3 1041.8,822.1 
		1041.8,821.8 1041.8,821.6 	"/>
	<polygon class="st2" points="1029,822.1 1029,821.8 1029,821.6 1019,806.7 1013.8,806.7 1023.3,821.9 1013.8,837.2 1019,837.2 
		1029,822.3 	"/>
	<polygon class="st2" points="374.1,942 364,956.9 364,957.1 364,957.4 364,957.6 374.1,972.5 379.2,972.5 369.8,957.3 379.2,942 	
		"/>
	<polygon class="st2" points="366.5,942 361.4,942 351.3,956.9 351.3,957.1 351.3,957.4 351.3,957.6 361.4,972.5 366.5,972.5 
		357.1,957.3 	"/>
	<path class="st2" d="M412.8,969.4c-1.2,0-2.3,0.4-3.2,1.3c-0.9,0.9-1.3,1.9-1.3,3.2c0,1.2,0.4,2.3,1.3,3.2c0.9,0.9,1.9,1.3,3.2,1.3
		c0.8,0,1.6-0.2,2.2-0.6c0.7-0.4,1.2-0.9,1.6-1.6c0.4-0.7,0.6-1.4,0.6-2.2c0-1.2-0.4-2.3-1.3-3.2C415.1,969.9,414,969.4,412.8,969.4
		z"/>
	<path class="st2" d="M421.8,928.1c-2.2-1.2-4.7-1.7-7.6-1.7c-2.7,0-5.1,0.5-7.3,1.6c-2.2,1.1-4,2.6-5.3,4.6c-1.3,2-2.1,4.4-2.2,7.2
		h6.3c0.1-2,0.6-3.5,1.5-4.7c0.8-1.2,1.9-2.1,3.2-2.7c1.3-0.6,2.6-0.8,3.9-0.8c1.6,0,3,0.3,4.3,1c1.3,0.6,2.3,1.6,3.1,2.8
		c0.8,1.2,1.1,2.6,1.1,4.2c0,1.3-0.2,2.5-0.7,3.6c-0.5,1.1-1.1,2-1.9,2.8c-0.8,0.8-1.7,1.5-2.6,2.1c-1.6,1-3,2-4.2,3.2
		c-1.2,1.2-2.1,2.7-2.7,4.5c-0.6,1.9-1,4.4-1,7.6v0.3h6v-0.3c0-2.1,0.2-3.8,0.6-5.1c0.4-1.4,1-2.6,1.9-3.6s2-2,3.5-2.9
		c1.5-0.9,2.7-1.9,3.7-3.1s1.8-2.5,2.4-4c0.6-1.5,0.8-3.1,0.8-4.9c0-2.6-0.6-4.9-1.8-6.9C425.7,930.9,424,929.3,421.8,928.1z"/>
	<path class="st2" d="M448.3,969.4c-1.2,0-2.3,0.4-3.2,1.3c-0.9,0.9-1.3,1.9-1.3,3.2c0,1.2,0.4,2.3,1.3,3.2c0.9,0.9,1.9,1.3,3.2,1.3
		c0.8,0,1.6-0.2,2.2-0.6c0.7-0.4,1.2-0.9,1.6-1.6c0.4-0.7,0.6-1.4,0.6-2.2c0-1.2-0.4-2.3-1.3-3.2
		C450.6,969.9,449.5,969.4,448.3,969.4z"/>
	<path class="st2" d="M457.3,928.1c-2.2-1.2-4.7-1.7-7.6-1.7c-2.7,0-5.1,0.5-7.3,1.6c-2.2,1.1-4,2.6-5.3,4.6c-1.3,2-2.1,4.4-2.2,7.2
		h6.3c0.1-2,0.6-3.5,1.5-4.7c0.8-1.2,1.9-2.1,3.2-2.7c1.3-0.6,2.6-0.8,3.9-0.8c1.6,0,3,0.3,4.3,1c1.3,0.6,2.3,1.6,3.1,2.8
		c0.8,1.2,1.1,2.6,1.1,4.2c0,1.3-0.2,2.5-0.7,3.6c-0.5,1.1-1.1,2-1.9,2.8c-0.8,0.8-1.7,1.5-2.6,2.1c-1.6,1-3,2-4.2,3.2
		c-1.2,1.2-2.1,2.7-2.7,4.5c-0.6,1.9-1,4.4-1,7.6v0.3h6v-0.3c0-2.1,0.2-3.8,0.6-5.1c0.4-1.4,1-2.6,1.9-3.6s2-2,3.5-2.9
		c1.5-0.9,2.7-1.9,3.7-3.1s1.8-2.5,2.4-4c0.6-1.5,0.8-3.1,0.8-4.9c0-2.6-0.6-4.9-1.8-6.9C461.2,930.9,459.5,929.3,457.3,928.1z"/>
	<path class="st2" d="M492.8,928.1c-2.2-1.2-4.7-1.7-7.6-1.7c-2.7,0-5.1,0.5-7.3,1.6c-2.2,1.1-4,2.6-5.3,4.6c-1.3,2-2.1,4.4-2.2,7.2
		h6.3c0.1-2,0.6-3.5,1.5-4.7c0.8-1.2,1.9-2.1,3.2-2.7c1.3-0.6,2.6-0.8,3.9-0.8c1.6,0,3,0.3,4.3,1c1.3,0.6,2.3,1.6,3.1,2.8
		c0.8,1.2,1.1,2.6,1.1,4.2c0,1.3-0.2,2.5-0.7,3.6c-0.5,1.1-1.1,2-1.9,2.8c-0.8,0.8-1.7,1.5-2.6,2.1c-1.6,1-3,2-4.2,3.2
		c-1.2,1.2-2.1,2.7-2.7,4.5c-0.6,1.9-1,4.4-1,7.6v0.3h6v-0.3c0-2.1,0.2-3.8,0.6-5.1c0.4-1.4,1-2.6,1.9-3.6s2-2,3.5-2.9
		c1.5-0.9,2.7-1.9,3.7-3.1s1.8-2.5,2.4-4c0.6-1.5,0.8-3.1,0.8-4.9c0-2.6-0.6-4.9-1.8-6.9C496.7,930.9,495,929.3,492.8,928.1z"/>
	<path class="st2" d="M483.8,969.4c-1.2,0-2.3,0.4-3.2,1.3c-0.9,0.9-1.3,1.9-1.3,3.2c0,1.2,0.4,2.3,1.3,3.2c0.9,0.9,1.9,1.3,3.2,1.3
		c0.8,0,1.6-0.2,2.2-0.6c0.7-0.4,1.2-0.9,1.6-1.6c0.4-0.7,0.6-1.4,0.6-2.2c0-1.2-0.4-2.3-1.3-3.2C486.1,969.9,485,969.4,483.8,969.4
		z"/>
	<path class="st2" d="M528.3,928.1c-2.2-1.2-4.7-1.7-7.6-1.7c-2.7,0-5.1,0.5-7.3,1.6c-2.2,1.1-4,2.6-5.3,4.6c-1.3,2-2.1,4.4-2.2,7.2
		h6.3c0.1-2,0.6-3.5,1.5-4.7c0.8-1.2,1.9-2.1,3.2-2.7c1.3-0.6,2.6-0.8,3.9-0.8c1.6,0,3,0.3,4.3,1c1.3,0.6,2.3,1.6,3.1,2.8
		c0.8,1.2,1.1,2.6,1.1,4.2c0,1.3-0.2,2.5-0.7,3.6c-0.5,1.1-1.1,2-1.9,2.8c-0.8,0.8-1.7,1.5-2.6,2.1c-1.6,1-3,2-4.2,3.2
		c-1.2,1.2-2.1,2.7-2.7,4.5c-0.6,1.9-1,4.4-1,7.6v0.3h6v-0.3c0-2.1,0.2-3.8,0.6-5.1c0.4-1.4,1-2.6,1.9-3.6s2-2,3.5-2.9
		c1.5-0.9,2.7-1.9,3.7-3.1s1.8-2.5,2.4-4c0.6-1.5,0.8-3.1,0.8-4.9c0-2.6-0.6-4.9-1.8-6.9C532.2,930.9,530.5,929.3,528.3,928.1z"/>
	<path class="st2" d="M519.3,969.4c-1.2,0-2.3,0.4-3.2,1.3c-0.9,0.9-1.3,1.9-1.3,3.2c0,1.2,0.4,2.3,1.3,3.2c0.9,0.9,1.9,1.3,3.2,1.3
		c0.8,0,1.6-0.2,2.2-0.6c0.7-0.4,1.2-0.9,1.6-1.6c0.4-0.7,0.6-1.4,0.6-2.2c0-1.2-0.4-2.3-1.3-3.2
		C521.6,969.9,520.5,969.4,519.3,969.4z"/>
	<path class="st2" d="M554.8,969.4c-1.2,0-2.3,0.4-3.2,1.3c-0.9,0.9-1.3,1.9-1.3,3.2c0,1.2,0.4,2.3,1.3,3.2c0.9,0.9,1.9,1.3,3.2,1.3
		c0.8,0,1.6-0.2,2.2-0.6c0.7-0.4,1.2-0.9,1.6-1.6c0.4-0.7,0.6-1.4,0.6-2.2c0-1.2-0.4-2.3-1.3-3.2C557.1,969.9,556,969.4,554.8,969.4
		z"/>
	<path class="st2" d="M563.8,928.1c-2.2-1.2-4.7-1.7-7.6-1.7c-2.7,0-5.1,0.5-7.3,1.6c-2.2,1.1-4,2.6-5.3,4.6c-1.3,2-2.1,4.4-2.2,7.2
		h6.3c0.1-2,0.6-3.5,1.5-4.7c0.8-1.2,1.9-2.1,3.2-2.7c1.3-0.6,2.6-0.8,3.9-0.8c1.6,0,3,0.3,4.3,1c1.3,0.6,2.3,1.6,3.1,2.8
		c0.8,1.2,1.1,2.6,1.1,4.2c0,1.3-0.2,2.5-0.7,3.6c-0.5,1.1-1.1,2-1.9,2.8s-1.7,1.5-2.6,2.1c-1.6,1-3,2-4.2,3.2
		c-1.2,1.2-2.1,2.7-2.7,4.5c-0.6,1.9-1,4.4-1,7.6v0.3h6v-0.3c0-2.1,0.2-3.8,0.6-5.1c0.4-1.4,1-2.6,1.9-3.6c0.9-1,2-2,3.5-2.9
		c1.5-0.9,2.7-1.9,3.7-3.1c1-1.2,1.8-2.5,2.4-4c0.6-1.5,0.8-3.1,0.8-4.9c0-2.6-0.6-4.9-1.8-6.9C567.7,930.9,566,929.3,563.8,928.1z"
		/>
	<path class="st2" d="M590.3,969.4c-1.2,0-2.3,0.4-3.2,1.3c-0.9,0.9-1.3,1.9-1.3,3.2c0,1.2,0.4,2.3,1.3,3.2c0.9,0.9,1.9,1.3,3.2,1.3
		c0.8,0,1.6-0.2,2.2-0.6c0.7-0.4,1.2-0.9,1.6-1.6c0.4-0.7,0.6-1.4,0.6-2.2c0-1.2-0.4-2.3-1.3-3.2
		C592.6,969.9,591.5,969.4,590.3,969.4z"/>
	<path class="st2" d="M599.3,928.1c-2.2-1.2-4.7-1.7-7.6-1.7c-2.7,0-5.1,0.5-7.3,1.6c-2.2,1.1-4,2.6-5.3,4.6c-1.3,2-2.1,4.4-2.2,7.2
		h6.3c0.1-2,0.6-3.5,1.5-4.7s1.9-2.1,3.2-2.7c1.3-0.6,2.6-0.8,3.9-0.8c1.6,0,3,0.3,4.2,1c1.3,0.6,2.3,1.6,3.1,2.8s1.1,2.6,1.1,4.2
		c0,1.3-0.2,2.5-0.7,3.6s-1.1,2-1.9,2.8c-0.8,0.8-1.7,1.5-2.6,2.1c-1.6,1-3,2-4.2,3.2c-1.2,1.2-2.1,2.7-2.7,4.5
		c-0.6,1.9-1,4.4-1,7.6v0.3h6v-0.3c0-2.1,0.2-3.8,0.6-5.1c0.4-1.4,1-2.6,1.9-3.6c0.9-1,2-2,3.5-2.9c1.5-0.9,2.7-1.9,3.7-3.1
		c1-1.2,1.8-2.5,2.4-4c0.6-1.5,0.8-3.1,0.8-4.9c0-2.6-0.6-4.9-1.8-6.9C603.2,930.9,601.5,929.3,599.3,928.1z"/>
	<path class="st2" d="M625.8,969.4c-1.2,0-2.3,0.4-3.2,1.3c-0.9,0.9-1.3,1.9-1.3,3.2c0,1.2,0.4,2.3,1.3,3.2c0.9,0.9,1.9,1.3,3.2,1.3
		c0.8,0,1.6-0.2,2.2-0.6c0.7-0.4,1.2-0.9,1.6-1.6c0.4-0.7,0.6-1.4,0.6-2.2c0-1.2-0.4-2.3-1.3-3.2C628.1,969.9,627,969.4,625.8,969.4
		z"/>
	<path class="st2" d="M634.8,928.1c-2.2-1.2-4.7-1.7-7.6-1.7c-2.7,0-5.1,0.5-7.3,1.6c-2.2,1.1-4,2.6-5.3,4.6c-1.3,2-2.1,4.4-2.2,7.2
		h6.3c0.1-2,0.6-3.5,1.5-4.7c0.8-1.2,1.9-2.1,3.2-2.7c1.3-0.6,2.6-0.8,3.9-0.8c1.6,0,3,0.3,4.3,1c1.3,0.6,2.3,1.6,3.1,2.8
		c0.8,1.2,1.1,2.6,1.1,4.2c0,1.3-0.2,2.5-0.7,3.6c-0.5,1.1-1.1,2-1.9,2.8s-1.7,1.5-2.6,2.1c-1.6,1-3,2-4.2,3.2
		c-1.2,1.2-2.1,2.7-2.7,4.5c-0.6,1.9-1,4.4-1,7.6v0.3h6v-0.3c0-2.1,0.2-3.8,0.6-5.1c0.4-1.4,1-2.6,1.9-3.6c0.9-1,2-2,3.5-2.9
		c1.5-0.9,2.7-1.9,3.7-3.1c1-1.2,1.8-2.5,2.4-4c0.6-1.5,0.8-3.1,0.8-4.9c0-2.6-0.6-4.9-1.8-6.9C638.7,930.9,637,929.3,634.8,928.1z"
		/>
	<path class="st2" d="M661.3,969.4c-1.2,0-2.3,0.4-3.2,1.3c-0.9,0.9-1.3,1.9-1.3,3.2c0,1.2,0.4,2.3,1.3,3.2c0.9,0.9,1.9,1.3,3.2,1.3
		c0.8,0,1.6-0.2,2.2-0.6c0.7-0.4,1.2-0.9,1.6-1.6c0.4-0.7,0.6-1.4,0.6-2.2c0-1.2-0.4-2.3-1.3-3.2
		C663.6,969.9,662.5,969.4,661.3,969.4z"/>
	<path class="st2" d="M670.3,928.1c-2.2-1.2-4.7-1.7-7.6-1.7c-2.7,0-5.1,0.5-7.3,1.6c-2.2,1.1-4,2.6-5.3,4.6c-1.3,2-2.1,4.4-2.2,7.2
		h6.3c0.1-2,0.6-3.5,1.5-4.7s1.9-2.1,3.2-2.7c1.3-0.6,2.6-0.8,3.9-0.8c1.6,0,3,0.3,4.2,1c1.3,0.6,2.3,1.6,3.1,2.8s1.1,2.6,1.1,4.2
		c0,1.3-0.2,2.5-0.7,3.6s-1.1,2-1.9,2.8c-0.8,0.8-1.7,1.5-2.6,2.1c-1.6,1-3,2-4.2,3.2c-1.2,1.2-2.1,2.7-2.7,4.5
		c-0.6,1.9-1,4.4-1,7.6v0.3h6v-0.3c0-2.1,0.2-3.8,0.6-5.1c0.4-1.4,1-2.6,1.9-3.6c0.9-1,2-2,3.5-2.9c1.5-0.9,2.7-1.9,3.7-3.1
		c1-1.2,1.8-2.5,2.4-4c0.6-1.5,0.8-3.1,0.8-4.9c0-2.6-0.6-4.9-1.8-6.9C674.1,930.9,672.5,929.3,670.3,928.1z"/>
	<path class="st2" d="M705.8,928.1c-2.2-1.2-4.7-1.7-7.6-1.7c-2.7,0-5.1,0.5-7.3,1.6c-2.2,1.1-4,2.6-5.3,4.6c-1.3,2-2.1,4.4-2.2,7.2
		h6.3c0.1-2,0.6-3.5,1.5-4.7s1.9-2.1,3.2-2.7c1.3-0.6,2.6-0.8,3.9-0.8c1.6,0,3,0.3,4.2,1c1.3,0.6,2.3,1.6,3.1,2.8s1.1,2.6,1.1,4.2
		c0,1.3-0.2,2.5-0.7,3.6s-1.1,2-1.9,2.8c-0.8,0.8-1.7,1.5-2.6,2.1c-1.6,1-3,2-4.2,3.2c-1.2,1.2-2.1,2.7-2.7,4.5
		c-0.6,1.9-1,4.4-1,7.6v0.3h6v-0.3c0-2.1,0.2-3.8,0.6-5.1c0.4-1.4,1-2.6,1.9-3.6c0.9-1,2-2,3.5-2.9c1.5-0.9,2.7-1.9,3.7-3.1
		c1-1.2,1.8-2.5,2.4-4c0.6-1.5,0.8-3.1,0.8-4.9c0-2.6-0.6-4.9-1.8-6.9C709.6,930.9,708,929.3,705.8,928.1z"/>
	<path class="st2" d="M696.8,969.4c-1.2,0-2.3,0.4-3.2,1.3c-0.9,0.9-1.3,1.9-1.3,3.2c0,1.2,0.4,2.3,1.3,3.2c0.9,0.9,1.9,1.3,3.2,1.3
		c0.8,0,1.6-0.2,2.2-0.6c0.7-0.4,1.2-0.9,1.6-1.6c0.4-0.7,0.6-1.4,0.6-2.2c0-1.2-0.4-2.3-1.3-3.2C699.1,969.9,698,969.4,696.8,969.4
		z"/>
	<path class="st2" d="M732.3,969.4c-1.2,0-2.3,0.4-3.2,1.3c-0.9,0.9-1.3,1.9-1.3,3.2c0,1.2,0.4,2.3,1.3,3.2c0.9,0.9,1.9,1.3,3.2,1.3
		c0.8,0,1.6-0.2,2.2-0.6c0.7-0.4,1.2-0.9,1.6-1.6c0.4-0.7,0.6-1.4,0.6-2.2c0-1.2-0.4-2.3-1.3-3.2
		C734.6,969.9,733.5,969.4,732.3,969.4z"/>
	<path class="st2" d="M741.3,928.1c-2.2-1.2-4.7-1.7-7.6-1.7c-2.7,0-5.1,0.5-7.3,1.6c-2.2,1.1-4,2.6-5.3,4.6c-1.3,2-2.1,4.4-2.2,7.2
		h6.3c0.1-2,0.6-3.5,1.5-4.7c0.8-1.2,1.9-2.1,3.2-2.7c1.3-0.6,2.6-0.8,3.9-0.8c1.6,0,3,0.3,4.3,1c1.3,0.6,2.3,1.6,3.1,2.8
		c0.8,1.2,1.1,2.6,1.1,4.2c0,1.3-0.2,2.5-0.7,3.6c-0.5,1.1-1.1,2-1.9,2.8s-1.7,1.5-2.6,2.1c-1.6,1-3,2-4.2,3.2
		c-1.2,1.2-2.1,2.7-2.7,4.5c-0.6,1.9-1,4.4-1,7.6v0.3h6v-0.3c0-2.1,0.2-3.8,0.6-5.1c0.4-1.4,1-2.6,1.9-3.6c0.9-1,2-2,3.5-2.9
		c1.5-0.9,2.7-1.9,3.7-3.1c1-1.2,1.8-2.5,2.4-4c0.6-1.5,0.8-3.1,0.8-4.9c0-2.6-0.6-4.9-1.8-6.9C745.1,930.9,743.5,929.3,741.3,928.1
		z"/>
	<path class="st2" d="M767.8,969.4c-1.2,0-2.3,0.4-3.2,1.3c-0.9,0.9-1.3,1.9-1.3,3.2c0,1.2,0.4,2.3,1.3,3.2c0.9,0.9,1.9,1.3,3.2,1.3
		c0.8,0,1.6-0.2,2.2-0.6c0.7-0.4,1.2-0.9,1.6-1.6c0.4-0.7,0.6-1.4,0.6-2.2c0-1.2-0.4-2.3-1.3-3.2C770.1,969.9,769,969.4,767.8,969.4
		z"/>
	<path class="st2" d="M776.8,928.1c-2.2-1.2-4.7-1.7-7.6-1.7c-2.7,0-5.1,0.5-7.3,1.6c-2.2,1.1-4,2.6-5.3,4.6c-1.3,2-2.1,4.4-2.2,7.2
		h6.3c0.1-2,0.6-3.5,1.5-4.7s1.9-2.1,3.2-2.7c1.3-0.6,2.6-0.8,3.9-0.8c1.6,0,3,0.3,4.2,1c1.3,0.6,2.3,1.6,3.1,2.8s1.1,2.6,1.1,4.2
		c0,1.3-0.2,2.5-0.7,3.6s-1.1,2-1.9,2.8c-0.8,0.8-1.7,1.5-2.6,2.1c-1.6,1-3,2-4.2,3.2c-1.2,1.2-2.1,2.7-2.7,4.5
		c-0.6,1.9-1,4.4-1,7.6v0.3h6v-0.3c0-2.1,0.2-3.8,0.6-5.1c0.4-1.4,1-2.6,1.9-3.6c0.9-1,2-2,3.5-2.9c1.5-0.9,2.7-1.9,3.7-3.1
		c1-1.2,1.8-2.5,2.4-4c0.6-1.5,0.8-3.1,0.8-4.9c0-2.6-0.6-4.9-1.8-6.9C780.6,930.9,779,929.3,776.8,928.1z"/>
	<path class="st2" d="M812.3,928.1c-2.2-1.2-4.7-1.7-7.6-1.7c-2.7,0-5.1,0.5-7.3,1.6c-2.2,1.1-4,2.6-5.3,4.6c-1.3,2-2.1,4.4-2.2,7.2
		h6.3c0.1-2,0.6-3.5,1.5-4.7c0.8-1.2,1.9-2.1,3.2-2.7c1.3-0.6,2.6-0.8,3.9-0.8c1.6,0,3,0.3,4.3,1c1.3,0.6,2.3,1.6,3.1,2.8
		c0.8,1.2,1.1,2.6,1.1,4.2c0,1.3-0.2,2.5-0.7,3.6c-0.5,1.1-1.1,2-1.9,2.8s-1.7,1.5-2.6,2.1c-1.6,1-3,2-4.2,3.2
		c-1.2,1.2-2.1,2.7-2.7,4.5c-0.6,1.9-1,4.4-1,7.6v0.3h6v-0.3c0-2.1,0.2-3.8,0.6-5.1c0.4-1.4,1-2.6,1.9-3.6c0.9-1,2-2,3.5-2.9
		c1.5-0.9,2.7-1.9,3.7-3.1c1-1.2,1.8-2.5,2.4-4c0.6-1.5,0.8-3.1,0.8-4.9c0-2.6-0.6-4.9-1.8-6.9C816.1,930.9,814.5,929.3,812.3,928.1
		z"/>
	<path class="st2" d="M803.3,969.4c-1.2,0-2.3,0.4-3.2,1.3c-0.9,0.9-1.3,1.9-1.3,3.2c0,1.2,0.4,2.3,1.3,3.2c0.9,0.9,1.9,1.3,3.2,1.3
		c0.8,0,1.6-0.2,2.2-0.6c0.7-0.4,1.2-0.9,1.6-1.6c0.4-0.7,0.6-1.4,0.6-2.2c0-1.2-0.4-2.3-1.3-3.2
		C805.6,969.9,804.5,969.4,803.3,969.4z"/>
	<path class="st2" d="M847.8,928.1c-2.2-1.2-4.7-1.7-7.6-1.7c-2.7,0-5.1,0.5-7.3,1.6c-2.2,1.1-4,2.6-5.3,4.6c-1.3,2-2.1,4.4-2.2,7.2
		h6.3c0.1-2,0.6-3.5,1.5-4.7s1.9-2.1,3.2-2.7c1.3-0.6,2.6-0.8,3.9-0.8c1.6,0,3,0.3,4.2,1c1.3,0.6,2.3,1.6,3.1,2.8s1.1,2.6,1.1,4.2
		c0,1.3-0.2,2.5-0.7,3.6s-1.1,2-1.9,2.8c-0.8,0.8-1.7,1.5-2.6,2.1c-1.6,1-3,2-4.2,3.2c-1.2,1.2-2.1,2.7-2.7,4.5
		c-0.6,1.9-1,4.4-1,7.6v0.3h6v-0.3c0-2.1,0.2-3.8,0.6-5.1c0.4-1.4,1-2.6,1.9-3.6c0.9-1,2-2,3.5-2.9c1.5-0.9,2.7-1.9,3.7-3.1
		c1-1.2,1.8-2.5,2.4-4c0.6-1.5,0.8-3.1,0.8-4.9c0-2.6-0.6-4.9-1.8-6.9C851.6,930.9,850,929.3,847.8,928.1z"/>
	<path class="st2" d="M838.8,969.4c-1.2,0-2.3,0.4-3.2,1.3c-0.9,0.9-1.3,1.9-1.3,3.2c0,1.2,0.4,2.3,1.3,3.2c0.9,0.9,1.9,1.3,3.2,1.3
		c0.8,0,1.6-0.2,2.2-0.6c0.7-0.4,1.2-0.9,1.6-1.6c0.4-0.7,0.6-1.4,0.6-2.2c0-1.2-0.4-2.3-1.3-3.2C841.1,969.9,840,969.4,838.8,969.4
		z"/>
	<path class="st2" d="M883.3,928.1c-2.2-1.2-4.7-1.7-7.6-1.7c-2.7,0-5.1,0.5-7.3,1.6c-2.2,1.1-4,2.6-5.3,4.6c-1.3,2-2.1,4.4-2.2,7.2
		h6.3c0.1-2,0.6-3.5,1.5-4.7c0.8-1.2,1.9-2.1,3.2-2.7c1.3-0.6,2.6-0.8,3.9-0.8c1.6,0,3,0.3,4.3,1c1.3,0.6,2.3,1.6,3.1,2.8
		c0.8,1.2,1.1,2.6,1.1,4.2c0,1.3-0.2,2.5-0.7,3.6c-0.5,1.1-1.1,2-1.9,2.8s-1.7,1.5-2.6,2.1c-1.6,1-3,2-4.2,3.2
		c-1.2,1.2-2.1,2.7-2.7,4.5c-0.6,1.9-1,4.4-1,7.6v0.3h6v-0.3c0-2.1,0.2-3.8,0.6-5.1c0.4-1.4,1-2.6,1.9-3.6c0.9-1,2-2,3.5-2.9
		c1.5-0.9,2.7-1.9,3.7-3.1c1-1.2,1.8-2.5,2.4-4c0.6-1.5,0.8-3.1,0.8-4.9c0-2.6-0.6-4.9-1.8-6.9C887.1,930.9,885.5,929.3,883.3,928.1
		z"/>
	<path class="st2" d="M874.3,969.4c-1.2,0-2.3,0.4-3.2,1.3c-0.9,0.9-1.3,1.9-1.3,3.2c0,1.2,0.4,2.3,1.3,3.2c0.9,0.9,1.9,1.3,3.2,1.3
		c0.8,0,1.6-0.2,2.2-0.6c0.7-0.4,1.2-0.9,1.6-1.6c0.4-0.7,0.6-1.4,0.6-2.2c0-1.2-0.4-2.3-1.3-3.2
		C876.6,969.9,875.5,969.4,874.3,969.4z"/>
	<path class="st2" d="M909.8,969.4c-1.2,0-2.3,0.4-3.2,1.3c-0.9,0.9-1.3,1.9-1.3,3.2c0,1.2,0.4,2.3,1.3,3.2c0.9,0.9,1.9,1.3,3.2,1.3
		c0.8,0,1.6-0.2,2.2-0.6c0.7-0.4,1.2-0.9,1.6-1.6c0.4-0.7,0.6-1.4,0.6-2.2c0-1.2-0.4-2.3-1.3-3.2C912.1,969.9,911,969.4,909.8,969.4
		z"/>
	<path class="st2" d="M918.8,928.1c-2.2-1.2-4.7-1.7-7.6-1.7c-2.7,0-5.1,0.5-7.3,1.6c-2.2,1.1-4,2.6-5.3,4.6c-1.3,2-2.1,4.4-2.2,7.2
		h6.3c0.1-2,0.6-3.5,1.5-4.7c0.8-1.2,1.9-2.1,3.2-2.7c1.3-0.6,2.6-0.8,3.9-0.8c1.6,0,3,0.3,4.3,1c1.3,0.6,2.3,1.6,3.1,2.8
		c0.8,1.2,1.1,2.6,1.1,4.2c0,1.3-0.2,2.5-0.7,3.6c-0.5,1.1-1.1,2-1.9,2.8s-1.7,1.5-2.6,2.1c-1.6,1-3,2-4.2,3.2
		c-1.2,1.2-2.1,2.7-2.7,4.5c-0.6,1.9-1,4.4-1,7.6v0.3h6v-0.3c0-2.1,0.2-3.8,0.6-5.1c0.4-1.4,1-2.6,1.9-3.6c0.9-1,2-2,3.5-2.9
		c1.5-0.9,2.7-1.9,3.7-3.1c1-1.2,1.8-2.5,2.4-4c0.6-1.5,0.8-3.1,0.8-4.9c0-2.6-0.6-4.9-1.8-6.9C922.6,930.9,921,929.3,918.8,928.1z"
		/>
	<polygon class="st2" points="952,942 961.4,957.3 952,972.5 957.1,972.5 967.2,957.6 967.2,957.4 967.2,957.1 967.2,956.9 
		957.1,942 	"/>
	<polygon class="st2" points="954.4,957.4 954.4,957.1 954.4,956.9 944.4,942 939.2,942 948.7,957.3 939.2,972.5 944.4,972.5 
		954.4,957.6 	"/>
	<polygon class="st2" points="175.2,128.9 184.7,113.7 179.5,113.7 169.4,128.6 169.4,128.8 169.4,129.1 169.4,129.3 179.5,144.2 
		184.7,144.2 	"/>
	<polygon class="st2" points="182.2,128.8 182.2,129.1 182.2,129.3 192.2,144.2 197.4,144.2 187.9,128.9 197.4,113.7 192.2,113.7 
		182.2,128.6 	"/>
	<path class="st2" d="M224.4,150c0.8,0,1.6-0.2,2.2-0.6c0.7-0.4,1.2-0.9,1.6-1.6c0.4-0.7,0.6-1.4,0.6-2.2c0-1.2-0.4-2.3-1.3-3.2
		c-0.9-0.9-1.9-1.3-3.2-1.3c-1.2,0-2.3,0.4-3.2,1.3c-0.9,0.9-1.3,1.9-1.3,3.2c0,1.2,0.4,2.3,1.3,3.2
		C222.1,149.6,223.2,150,224.4,150z"/>
	<path class="st2" d="M243.7,150c0.8,0,1.6-0.2,2.2-0.6c0.7-0.4,1.2-0.9,1.6-1.6c0.4-0.7,0.6-1.4,0.6-2.2c0-1.2-0.4-2.3-1.3-3.2
		c-0.9-0.9-1.9-1.3-3.2-1.3c-1.2,0-2.3,0.4-3.2,1.3c-0.9,0.9-1.3,1.9-1.3,3.2c0,1.2,0.4,2.3,1.3,3.2
		C241.4,149.6,242.5,150,243.7,150z"/>
	<path class="st2" d="M263,150c0.8,0,1.6-0.2,2.2-0.6c0.7-0.4,1.2-0.9,1.6-1.6c0.4-0.7,0.6-1.4,0.6-2.2c0-1.2-0.4-2.3-1.3-3.2
		c-0.9-0.9-1.9-1.3-3.2-1.3c-1.2,0-2.3,0.4-3.2,1.3c-0.9,0.9-1.3,1.9-1.3,3.2c0,1.2,0.4,2.3,1.3,3.2C260.7,149.6,261.7,150,263,150z
		"/>
	<path class="st2" d="M282.3,150c0.8,0,1.6-0.2,2.2-0.6c0.7-0.4,1.2-0.9,1.6-1.6c0.4-0.7,0.6-1.4,0.6-2.2c0-1.2-0.4-2.3-1.3-3.2
		c-0.9-0.9-1.9-1.3-3.2-1.3c-1.2,0-2.3,0.4-3.2,1.3c-0.9,0.9-1.3,1.9-1.3,3.2c0,1.2,0.4,2.3,1.3,3.2C280,149.6,281,150,282.3,150z"
		/>
	<path class="st2" d="M301.5,150c0.8,0,1.6-0.2,2.2-0.6c0.7-0.4,1.2-0.9,1.6-1.6c0.4-0.7,0.6-1.4,0.6-2.2c0-1.2-0.4-2.3-1.3-3.2
		c-0.9-0.9-1.9-1.3-3.2-1.3c-1.2,0-2.3,0.4-3.2,1.3c-0.9,0.9-1.3,1.9-1.3,3.2c0,1.2,0.4,2.3,1.3,3.2
		C299.3,149.6,300.3,150,301.5,150z"/>
	<path class="st2" d="M320.8,150c0.8,0,1.6-0.2,2.2-0.6c0.7-0.4,1.2-0.9,1.6-1.6c0.4-0.7,0.6-1.4,0.6-2.2c0-1.2-0.4-2.3-1.3-3.2
		c-0.9-0.9-1.9-1.3-3.2-1.3c-1.2,0-2.3,0.4-3.2,1.3c-0.9,0.9-1.3,1.9-1.3,3.2c0,1.2,0.4,2.3,1.3,3.2
		C318.6,149.6,319.6,150,320.8,150z"/>
	<path class="st2" d="M340.1,150c0.8,0,1.6-0.2,2.2-0.6c0.7-0.4,1.2-0.9,1.6-1.6c0.4-0.7,0.6-1.4,0.6-2.2c0-1.2-0.4-2.3-1.3-3.2
		c-0.9-0.9-1.9-1.3-3.2-1.3c-1.2,0-2.3,0.4-3.2,1.3c-0.9,0.9-1.3,1.9-1.3,3.2c0,1.2,0.4,2.3,1.3,3.2
		C337.8,149.6,338.9,150,340.1,150z"/>
	<path class="st2" d="M359.4,150c0.8,0,1.6-0.2,2.2-0.6c0.7-0.4,1.2-0.9,1.6-1.6c0.4-0.7,0.6-1.4,0.6-2.2c0-1.2-0.4-2.3-1.3-3.2
		c-0.9-0.9-1.9-1.3-3.2-1.3c-1.2,0-2.3,0.4-3.2,1.3c-0.9,0.9-1.3,1.9-1.3,3.2c0,1.2,0.4,2.3,1.3,3.2
		C357.1,149.6,358.2,150,359.4,150z"/>
	<path class="st2" d="M378.7,150c0.8,0,1.6-0.2,2.2-0.6c0.7-0.4,1.2-0.9,1.6-1.6c0.4-0.7,0.6-1.4,0.6-2.2c0-1.2-0.4-2.3-1.3-3.2
		c-0.9-0.9-1.9-1.3-3.2-1.3c-1.2,0-2.3,0.4-3.2,1.3c-0.9,0.9-1.3,1.9-1.3,3.2c0,1.2,0.4,2.3,1.3,3.2
		C376.4,149.6,377.5,150,378.7,150z"/>
	<path class="st2" d="M398,150c0.8,0,1.6-0.2,2.2-0.6c0.7-0.4,1.2-0.9,1.6-1.6c0.4-0.7,0.6-1.4,0.6-2.2c0-1.2-0.4-2.3-1.3-3.2
		c-0.9-0.9-1.9-1.3-3.2-1.3c-1.2,0-2.3,0.4-3.2,1.3c-0.9,0.9-1.3,1.9-1.3,3.2c0,1.2,0.4,2.3,1.3,3.2C395.7,149.6,396.8,150,398,150z
		"/>
	<path class="st2" d="M417.3,150c0.8,0,1.6-0.2,2.2-0.6c0.7-0.4,1.2-0.9,1.6-1.6c0.4-0.7,0.6-1.4,0.6-2.2c0-1.2-0.4-2.3-1.3-3.2
		c-0.9-0.9-1.9-1.3-3.2-1.3c-1.2,0-2.3,0.4-3.2,1.3c-0.9,0.9-1.3,1.9-1.3,3.2c0,1.2,0.4,2.3,1.3,3.2C415,149.6,416.1,150,417.3,150z
		"/>
	<path class="st2" d="M438.8,149.4c0.7-0.4,1.2-0.9,1.6-1.6c0.4-0.7,0.6-1.4,0.6-2.2c0-1.2-0.4-2.3-1.3-3.2
		c-0.9-0.9-1.9-1.3-3.2-1.3c-1.2,0-2.3,0.4-3.2,1.3c-0.9,0.9-1.3,1.9-1.3,3.2c0,1.2,0.4,2.3,1.3,3.2c0.9,0.9,1.9,1.3,3.2,1.3
		C437.4,150,438.2,149.8,438.8,149.4z"/>
	<path class="st2" d="M455.9,150c0.8,0,1.6-0.2,2.2-0.6c0.7-0.4,1.2-0.9,1.6-1.6c0.4-0.7,0.6-1.4,0.6-2.2c0-1.2-0.4-2.3-1.3-3.2
		c-0.9-0.9-1.9-1.3-3.2-1.3c-1.2,0-2.3,0.4-3.2,1.3c-0.9,0.9-1.3,1.9-1.3,3.2c0,1.2,0.4,2.3,1.3,3.2
		C453.6,149.6,454.6,150,455.9,150z"/>
	<path class="st2" d="M475.2,150c0.8,0,1.6-0.2,2.2-0.6c0.7-0.4,1.2-0.9,1.6-1.6c0.4-0.7,0.6-1.4,0.6-2.2c0-1.2-0.4-2.3-1.3-3.2
		c-0.9-0.9-1.9-1.3-3.2-1.3c-1.2,0-2.3,0.4-3.2,1.3c-0.9,0.9-1.3,1.9-1.3,3.2c0,1.2,0.4,2.3,1.3,3.2
		C472.9,149.6,473.9,150,475.2,150z"/>
	<path class="st2" d="M494.4,150c0.8,0,1.6-0.2,2.2-0.6c0.7-0.4,1.2-0.9,1.6-1.6c0.4-0.7,0.6-1.4,0.6-2.2c0-1.2-0.4-2.3-1.3-3.2
		c-0.9-0.9-1.9-1.3-3.2-1.3c-1.2,0-2.3,0.4-3.2,1.3c-0.9,0.9-1.3,1.9-1.3,3.2c0,1.2,0.4,2.3,1.3,3.2
		C492.2,149.6,493.2,150,494.4,150z"/>
	<path class="st2" d="M513.7,150c0.8,0,1.6-0.2,2.2-0.6c0.7-0.4,1.2-0.9,1.6-1.6c0.4-0.7,0.6-1.4,0.6-2.2c0-1.2-0.4-2.3-1.3-3.2
		c-0.9-0.9-1.9-1.3-3.2-1.3c-1.2,0-2.3,0.4-3.2,1.3c-0.9,0.9-1.3,1.9-1.3,3.2c0,1.2,0.4,2.3,1.3,3.2
		C511.4,149.6,512.5,150,513.7,150z"/>
	<path class="st2" d="M533,150c0.8,0,1.6-0.2,2.2-0.6c0.7-0.4,1.2-0.9,1.6-1.6c0.4-0.7,0.6-1.4,0.6-2.2c0-1.2-0.4-2.3-1.3-3.2
		c-0.9-0.9-1.9-1.3-3.2-1.3c-1.2,0-2.3,0.4-3.2,1.3c-0.9,0.9-1.3,1.9-1.3,3.2c0,1.2,0.4,2.3,1.3,3.2C530.7,149.6,531.8,150,533,150z
		"/>
	<path class="st2" d="M552.3,150c0.8,0,1.6-0.2,2.2-0.6c0.7-0.4,1.2-0.9,1.6-1.6c0.4-0.7,0.6-1.4,0.6-2.2c0-1.2-0.4-2.3-1.3-3.2
		c-0.9-0.9-1.9-1.3-3.2-1.3c-1.2,0-2.3,0.4-3.2,1.3c-0.9,0.9-1.3,1.9-1.3,3.2c0,1.2,0.4,2.3,1.3,3.2C550,149.6,551.1,150,552.3,150z
		"/>
	<path class="st2" d="M571.6,150c0.8,0,1.6-0.2,2.2-0.6c0.7-0.4,1.2-0.9,1.6-1.6c0.4-0.7,0.6-1.4,0.6-2.2c0-1.2-0.4-2.3-1.3-3.2
		c-0.9-0.9-1.9-1.3-3.2-1.3c-1.2,0-2.3,0.4-3.2,1.3c-0.9,0.9-1.3,1.9-1.3,3.2c0,1.2,0.4,2.3,1.3,3.2
		C569.3,149.6,570.4,150,571.6,150z"/>
	<path class="st2" d="M590.9,150c0.8,0,1.6-0.2,2.2-0.6c0.7-0.4,1.2-0.9,1.6-1.6c0.4-0.7,0.6-1.4,0.6-2.2c0-1.2-0.4-2.3-1.3-3.2
		c-0.9-0.9-1.9-1.3-3.2-1.3c-1.2,0-2.3,0.4-3.2,1.3c-0.9,0.9-1.3,1.9-1.3,3.2c0,1.2,0.4,2.3,1.3,3.2
		C588.6,149.6,589.7,150,590.9,150z"/>
	<path class="st2" d="M610.2,150c0.8,0,1.6-0.2,2.2-0.6c0.7-0.4,1.2-0.9,1.6-1.6c0.4-0.7,0.6-1.4,0.6-2.2c0-1.2-0.4-2.3-1.3-3.2
		c-0.9-0.9-1.9-1.3-3.2-1.3c-1.2,0-2.3,0.4-3.2,1.3c-0.9,0.9-1.3,1.9-1.3,3.2c0,1.2,0.4,2.3,1.3,3.2
		C607.9,149.6,608.9,150,610.2,150z"/>
	<path class="st2" d="M629.5,150c0.8,0,1.6-0.2,2.2-0.6c0.7-0.4,1.2-0.9,1.6-1.6c0.4-0.7,0.6-1.4,0.6-2.2c0-1.2-0.4-2.3-1.3-3.2
		c-0.9-0.9-1.9-1.3-3.2-1.3c-1.2,0-2.3,0.4-3.2,1.3c-0.9,0.9-1.3,1.9-1.3,3.2c0,1.2,0.4,2.3,1.3,3.2
		C627.2,149.6,628.2,150,629.5,150z"/>
	<path class="st2" d="M651,149.4c0.7-0.4,1.2-0.9,1.6-1.6c0.4-0.7,0.6-1.4,0.6-2.2c0-1.2-0.4-2.3-1.3-3.2c-0.9-0.9-1.9-1.3-3.2-1.3
		c-1.2,0-2.3,0.4-3.2,1.3c-0.9,0.9-1.3,1.9-1.3,3.2c0,1.2,0.4,2.3,1.3,3.2c0.9,0.9,1.9,1.3,3.2,1.3C649.6,150,650.3,149.8,651,149.4
		z"/>
	<path class="st2" d="M668,150c0.8,0,1.6-0.2,2.2-0.6c0.7-0.4,1.2-0.9,1.6-1.6c0.4-0.7,0.6-1.4,0.6-2.2c0-1.2-0.4-2.3-1.3-3.2
		c-0.9-0.9-1.9-1.3-3.2-1.3c-1.2,0-2.3,0.4-3.2,1.3c-0.9,0.9-1.3,1.9-1.3,3.2c0,1.2,0.4,2.3,1.3,3.2C665.8,149.6,666.8,150,668,150z
		"/>
	<path class="st2" d="M687.3,150c0.8,0,1.6-0.2,2.2-0.6c0.7-0.4,1.2-0.9,1.6-1.6c0.4-0.7,0.6-1.4,0.6-2.2c0-1.2-0.4-2.3-1.3-3.2
		c-0.9-0.9-1.9-1.3-3.2-1.3s-2.3,0.4-3.2,1.3c-0.9,0.9-1.3,1.9-1.3,3.2c0,1.2,0.4,2.3,1.3,3.2C685.1,149.6,686.1,150,687.3,150z"/>
	<path class="st2" d="M706.6,150c0.8,0,1.6-0.2,2.2-0.6c0.7-0.4,1.2-0.9,1.6-1.6c0.4-0.7,0.6-1.4,0.6-2.2c0-1.2-0.4-2.3-1.3-3.2
		c-0.9-0.9-1.9-1.3-3.2-1.3s-2.3,0.4-3.2,1.3c-0.9,0.9-1.3,1.9-1.3,3.2c0,1.2,0.4,2.3,1.3,3.2C704.3,149.6,705.4,150,706.6,150z"/>
	<path class="st2" d="M725.9,150c0.8,0,1.6-0.2,2.2-0.6c0.7-0.4,1.2-0.9,1.6-1.6c0.4-0.7,0.6-1.4,0.6-2.2c0-1.2-0.4-2.3-1.3-3.2
		c-0.9-0.9-1.9-1.3-3.2-1.3s-2.3,0.4-3.2,1.3c-0.9,0.9-1.3,1.9-1.3,3.2c0,1.2,0.4,2.3,1.3,3.2C723.6,149.6,724.7,150,725.9,150z"/>
	<polygon class="st2" points="753.1,144.2 763.1,129.3 763.1,129.1 763.1,128.8 763.1,128.6 753.1,113.7 747.9,113.7 757.4,128.9 
		747.9,144.2 	"/>
	<polygon class="st2" points="760.6,144.2 765.8,144.2 775.9,129.3 775.9,129.1 775.9,128.8 775.9,128.6 765.8,113.7 760.6,113.7 
		770.1,128.9 	"/>
	<polygon class="st2" points="106.7,255.7 101.5,255.7 91.4,270.6 91.4,270.8 91.4,271.1 91.4,271.3 101.5,286.2 106.7,286.2 
		97.2,270.9 	"/>
	<polygon class="st2" points="114.2,255.7 104.2,270.6 104.2,270.8 104.2,271.1 104.2,271.3 114.2,286.2 119.4,286.2 109.9,270.9 
		119.4,255.7 	"/>
	<polygon class="st2" points="149.4,277.4 149.9,240.8 143.1,240.8 143.6,277.4 	"/>
	<path class="st2" d="M146.5,292.1c0.8,0,1.6-0.2,2.2-0.6c0.7-0.4,1.2-0.9,1.6-1.6c0.4-0.7,0.6-1.4,0.6-2.2c0-1.2-0.4-2.3-1.3-3.2
		c-0.9-0.9-1.9-1.3-3.2-1.3s-2.3,0.4-3.2,1.3c-0.9,0.9-1.3,1.9-1.3,3.2c0,1.2,0.4,2.3,1.3,3.2C144.2,291.6,145.3,292.1,146.5,292.1z
		"/>
	<path class="st2" d="M166,283.1c-1.2,0-2.3,0.4-3.2,1.3c-0.9,0.9-1.3,1.9-1.3,3.2c0,1.2,0.4,2.3,1.3,3.2c0.9,0.9,1.9,1.3,3.2,1.3
		c0.8,0,1.6-0.2,2.2-0.6c0.7-0.4,1.2-0.9,1.6-1.6c0.4-0.7,0.6-1.4,0.6-2.2c0-1.2-0.4-2.3-1.3-3.2C168.3,283.6,167.2,283.1,166,283.1
		z"/>
	<polygon class="st2" points="168.9,277.4 169.4,240.8 162.6,240.8 163.1,277.4 	"/>
	<path class="st2" d="M185.5,283.1c-1.2,0-2.3,0.4-3.2,1.3c-0.9,0.9-1.3,1.9-1.3,3.2c0,1.2,0.4,2.3,1.3,3.2c0.9,0.9,1.9,1.3,3.2,1.3
		c0.8,0,1.6-0.2,2.2-0.6c0.7-0.4,1.2-0.9,1.6-1.6c0.4-0.7,0.6-1.4,0.6-2.2c0-1.2-0.4-2.3-1.3-3.2
		C187.7,283.6,186.7,283.1,185.5,283.1z"/>
	<polygon class="st2" points="182.6,277.4 188.4,277.4 188.8,240.8 182.1,240.8 	"/>
	<polygon class="st2" points="207.8,277.4 208.3,240.8 201.6,240.8 202.1,277.4 	"/>
	<path class="st2" d="M205,283.1c-1.2,0-2.3,0.4-3.2,1.3c-0.9,0.9-1.3,1.9-1.3,3.2c0,1.2,0.4,2.3,1.3,3.2c0.9,0.9,1.9,1.3,3.2,1.3
		c0.8,0,1.6-0.2,2.2-0.6c0.7-0.4,1.2-0.9,1.6-1.6c0.4-0.7,0.6-1.4,0.6-2.2c0-1.2-0.4-2.3-1.3-3.2C207.2,283.6,206.2,283.1,205,283.1
		z"/>
	<polygon class="st2" points="227.3,277.4 227.8,240.8 221.1,240.8 221.6,277.4 	"/>
	<path class="st2" d="M221.3,290.8c0.9,0.9,1.9,1.3,3.2,1.3c0.8,0,1.6-0.2,2.2-0.6c0.7-0.4,1.2-0.9,1.6-1.6c0.4-0.7,0.6-1.4,0.6-2.2
		c0-1.2-0.4-2.3-1.3-3.2c-0.9-0.9-1.9-1.3-3.2-1.3s-2.3,0.4-3.2,1.3c-0.9,0.9-1.3,1.9-1.3,3.2C220,288.8,220.4,289.9,221.3,290.8z"
		/>
	<path class="st2" d="M240.8,290.8c0.9,0.9,1.9,1.3,3.2,1.3c0.8,0,1.6-0.2,2.2-0.6c0.7-0.4,1.2-0.9,1.6-1.6c0.4-0.7,0.6-1.4,0.6-2.2
		c0-1.2-0.4-2.3-1.3-3.2c-0.9-0.9-1.9-1.3-3.2-1.3s-2.3,0.4-3.2,1.3c-0.9,0.9-1.3,1.9-1.3,3.2C239.5,288.8,239.9,289.9,240.8,290.8z
		"/>
	<polygon class="st2" points="246.8,277.4 247.3,240.8 240.5,240.8 241,277.4 	"/>
	<path class="st2" d="M265.7,291.5c0.7-0.4,1.2-0.9,1.6-1.6c0.4-0.7,0.6-1.4,0.6-2.2c0-1.2-0.4-2.3-1.3-3.2
		c-0.9-0.9-1.9-1.3-3.2-1.3s-2.3,0.4-3.2,1.3c-0.9,0.9-1.3,1.9-1.3,3.2c0,1.2,0.4,2.3,1.3,3.2c0.9,0.9,1.9,1.3,3.2,1.3
		C264.2,292.1,265,291.9,265.7,291.5z"/>
	<polygon class="st2" points="260.5,277.4 266.3,277.4 266.8,240.8 260,240.8 	"/>
	<path class="st2" d="M279.7,290.8c0.9,0.9,1.9,1.3,3.2,1.3c0.8,0,1.6-0.2,2.2-0.6c0.7-0.4,1.2-0.9,1.6-1.6c0.4-0.7,0.6-1.4,0.6-2.2
		c0-1.2-0.4-2.3-1.3-3.2c-0.9-0.9-1.9-1.3-3.2-1.3s-2.3,0.4-3.2,1.3c-0.9,0.9-1.3,1.9-1.3,3.2C278.4,288.8,278.9,289.9,279.7,290.8z
		"/>
	<polygon class="st2" points="285.8,277.4 286.3,240.8 279.5,240.8 280,277.4 	"/>
	<path class="st2" d="M299.2,290.8c0.9,0.9,1.9,1.3,3.2,1.3c0.8,0,1.6-0.2,2.2-0.6c0.7-0.4,1.2-0.9,1.6-1.6c0.4-0.7,0.6-1.4,0.6-2.2
		c0-1.2-0.4-2.3-1.3-3.2c-0.9-0.9-1.9-1.3-3.2-1.3s-2.3,0.4-3.2,1.3c-0.9,0.9-1.3,1.9-1.3,3.2C297.9,288.8,298.4,289.9,299.2,290.8z
		"/>
	<polygon class="st2" points="305.3,277.4 305.8,240.8 299,240.8 299.5,277.4 	"/>
	<polygon class="st2" points="324.8,277.4 325.3,240.8 318.5,240.8 319,277.4 	"/>
	<path class="st2" d="M321.9,283.1c-1.2,0-2.3,0.4-3.2,1.3c-0.9,0.9-1.3,1.9-1.3,3.2c0,1.2,0.4,2.3,1.3,3.2c0.9,0.9,1.9,1.3,3.2,1.3
		c0.8,0,1.6-0.2,2.2-0.6c0.7-0.4,1.2-0.9,1.6-1.6c0.4-0.7,0.6-1.4,0.6-2.2c0-1.2-0.4-2.3-1.3-3.2
		C324.2,283.6,323.1,283.1,321.9,283.1z"/>
	<polygon class="st2" points="338.5,277.4 344.3,277.4 344.7,240.8 338,240.8 	"/>
	<path class="st2" d="M341.4,283.1c-1.2,0-2.3,0.4-3.2,1.3c-0.9,0.9-1.3,1.9-1.3,3.2c0,1.2,0.4,2.3,1.3,3.2c0.9,0.9,1.9,1.3,3.2,1.3
		c0.8,0,1.6-0.2,2.2-0.6c0.7-0.4,1.2-0.9,1.6-1.6c0.4-0.7,0.6-1.4,0.6-2.2c0-1.2-0.4-2.3-1.3-3.2
		C343.6,283.6,342.6,283.1,341.4,283.1z"/>
	<polygon class="st2" points="358,277.4 363.7,277.4 364.2,240.8 357.5,240.8 	"/>
	<path class="st2" d="M360.9,283.1c-1.2,0-2.3,0.4-3.2,1.3c-0.9,0.9-1.3,1.9-1.3,3.2c0,1.2,0.4,2.3,1.3,3.2c0.9,0.9,1.9,1.3,3.2,1.3
		c0.8,0,1.6-0.2,2.2-0.6c0.7-0.4,1.2-0.9,1.6-1.6c0.4-0.7,0.6-1.4,0.6-2.2c0-1.2-0.4-2.3-1.3-3.2
		C363.1,283.6,362.1,283.1,360.9,283.1z"/>
	<polygon class="st2" points="377.5,277.4 383.2,277.4 383.7,240.8 377,240.8 	"/>
	<path class="st2" d="M380.3,283.1c-1.2,0-2.3,0.4-3.2,1.3c-0.9,0.9-1.3,1.9-1.3,3.2c0,1.2,0.4,2.3,1.3,3.2c0.9,0.9,1.9,1.3,3.2,1.3
		c0.8,0,1.6-0.2,2.2-0.6c0.7-0.4,1.2-0.9,1.6-1.6c0.4-0.7,0.6-1.4,0.6-2.2c0-1.2-0.4-2.3-1.3-3.2
		C382.6,283.6,381.6,283.1,380.3,283.1z"/>
	<path class="st2" d="M399.8,283.1c-1.2,0-2.3,0.4-3.2,1.3c-0.9,0.9-1.3,1.9-1.3,3.2c0,1.2,0.4,2.3,1.3,3.2c0.9,0.9,1.9,1.3,3.2,1.3
		c0.8,0,1.6-0.2,2.2-0.6c0.7-0.4,1.2-0.9,1.6-1.6c0.4-0.7,0.6-1.4,0.6-2.2c0-1.2-0.4-2.3-1.3-3.2
		C402.1,283.6,401.1,283.1,399.8,283.1z"/>
	<polygon class="st2" points="396.9,277.4 402.7,277.4 403.2,240.8 396.5,240.8 	"/>
	<path class="st2" d="M419.3,283.1c-1.2,0-2.3,0.4-3.2,1.3c-0.9,0.9-1.3,1.9-1.3,3.2c0,1.2,0.4,2.3,1.3,3.2c0.9,0.9,1.9,1.3,3.2,1.3
		c0.8,0,1.6-0.2,2.2-0.6c0.7-0.4,1.2-0.9,1.6-1.6c0.4-0.7,0.6-1.4,0.6-2.2c0-1.2-0.4-2.3-1.3-3.2
		C421.6,283.6,420.5,283.1,419.3,283.1z"/>
	<polygon class="st2" points="416.4,277.4 422.2,277.4 422.7,240.8 415.9,240.8 	"/>
	<path class="st2" d="M438.8,292.1c0.8,0,1.6-0.2,2.2-0.6c0.7-0.4,1.2-0.9,1.6-1.6c0.4-0.7,0.6-1.4,0.6-2.2c0-1.2-0.4-2.3-1.3-3.2
		c-0.9-0.9-1.9-1.3-3.2-1.3s-2.3,0.4-3.2,1.3c-0.9,0.9-1.3,1.9-1.3,3.2c0,1.2,0.4,2.3,1.3,3.2C436.5,291.6,437.6,292.1,438.8,292.1z
		"/>
	<polygon class="st2" points="435.9,277.4 441.7,277.4 442.2,240.8 435.4,240.8 	"/>
	<path class="st2" d="M458.3,283.1c-1.2,0-2.3,0.4-3.2,1.3c-0.9,0.9-1.3,1.9-1.3,3.2c0,1.2,0.4,2.3,1.3,3.2c0.9,0.9,1.9,1.3,3.2,1.3
		c0.8,0,1.6-0.2,2.2-0.6c0.7-0.4,1.2-0.9,1.6-1.6c0.4-0.7,0.6-1.4,0.6-2.2c0-1.2-0.4-2.3-1.3-3.2
		C460.6,283.6,459.5,283.1,458.3,283.1z"/>
	<polygon class="st2" points="455.4,277.4 461.2,277.4 461.7,240.8 454.9,240.8 	"/>
	<polygon class="st2" points="474.9,277.4 480.7,277.4 481.2,240.8 474.4,240.8 	"/>
	<path class="st2" d="M477.8,283.1c-1.2,0-2.3,0.4-3.2,1.3c-0.9,0.9-1.3,1.9-1.3,3.2c0,1.2,0.4,2.3,1.3,3.2c0.9,0.9,1.9,1.3,3.2,1.3
		c0.8,0,1.6-0.2,2.2-0.6c0.7-0.4,1.2-0.9,1.6-1.6c0.4-0.7,0.6-1.4,0.6-2.2c0-1.2-0.4-2.3-1.3-3.2C480.1,283.6,479,283.1,477.8,283.1
		z"/>
	<path class="st2" d="M497.3,283.1c-1.2,0-2.3,0.4-3.2,1.3c-0.9,0.9-1.3,1.9-1.3,3.2c0,1.2,0.4,2.3,1.3,3.2c0.9,0.9,1.9,1.3,3.2,1.3
		c0.8,0,1.6-0.2,2.2-0.6c0.7-0.4,1.2-0.9,1.6-1.6c0.4-0.7,0.6-1.4,0.6-2.2c0-1.2-0.4-2.3-1.3-3.2
		C499.5,283.6,498.5,283.1,497.3,283.1z"/>
	<polygon class="st2" points="494.4,277.4 500.2,277.4 500.7,240.8 493.9,240.8 	"/>
	<path class="st2" d="M516.8,283.1c-1.2,0-2.3,0.4-3.2,1.3c-0.9,0.9-1.3,1.9-1.3,3.2c0,1.2,0.4,2.3,1.3,3.2c0.9,0.9,1.9,1.3,3.2,1.3
		c0.8,0,1.6-0.2,2.2-0.6c0.7-0.4,1.2-0.9,1.6-1.6c0.4-0.7,0.6-1.4,0.6-2.2c0-1.2-0.4-2.3-1.3-3.2C519,283.6,518,283.1,516.8,283.1z"
		/>
	<polygon class="st2" points="513.9,277.4 519.6,277.4 520.1,240.8 513.4,240.8 	"/>
	<path class="st2" d="M536.2,283.1c-1.2,0-2.3,0.4-3.2,1.3c-0.9,0.9-1.3,1.9-1.3,3.2c0,1.2,0.4,2.3,1.3,3.2c0.9,0.9,1.9,1.3,3.2,1.3
		c0.8,0,1.6-0.2,2.2-0.6c0.7-0.4,1.2-0.9,1.6-1.6c0.4-0.7,0.6-1.4,0.6-2.2c0-1.2-0.4-2.3-1.3-3.2
		C538.5,283.6,537.5,283.1,536.2,283.1z"/>
	<polygon class="st2" points="533.4,277.4 539.1,277.4 539.6,240.8 532.9,240.8 	"/>
	<path class="st2" d="M555.7,283.1c-1.2,0-2.3,0.4-3.2,1.3c-0.9,0.9-1.3,1.9-1.3,3.2c0,1.2,0.4,2.3,1.3,3.2c0.9,0.9,1.9,1.3,3.2,1.3
		c0.8,0,1.6-0.2,2.2-0.6c0.7-0.4,1.2-0.9,1.6-1.6c0.4-0.7,0.6-1.4,0.6-2.2c0-1.2-0.4-2.3-1.3-3.2C558,283.6,557,283.1,555.7,283.1z"
		/>
	<polygon class="st2" points="552.9,277.4 558.6,277.4 559.1,240.8 552.4,240.8 	"/>
	<path class="st2" d="M575.2,283.1c-1.2,0-2.3,0.4-3.2,1.3c-0.9,0.9-1.3,1.9-1.3,3.2c0,1.2,0.4,2.3,1.3,3.2c0.9,0.9,1.9,1.3,3.2,1.3
		c0.8,0,1.6-0.2,2.2-0.6c0.7-0.4,1.2-0.9,1.6-1.6c0.4-0.7,0.6-1.4,0.6-2.2c0-1.2-0.4-2.3-1.3-3.2
		C577.5,283.6,576.4,283.1,575.2,283.1z"/>
	<polygon class="st2" points="572.3,277.4 578.1,277.4 578.6,240.8 571.8,240.8 	"/>
	<polygon class="st2" points="591.8,277.4 597.6,277.4 598.1,240.8 591.3,240.8 	"/>
	<path class="st2" d="M594.7,283.1c-1.2,0-2.3,0.4-3.2,1.3c-0.9,0.9-1.3,1.9-1.3,3.2c0,1.2,0.4,2.3,1.3,3.2c0.9,0.9,1.9,1.3,3.2,1.3
		c0.8,0,1.6-0.2,2.2-0.6c0.7-0.4,1.2-0.9,1.6-1.6c0.4-0.7,0.6-1.4,0.6-2.2c0-1.2-0.4-2.3-1.3-3.2C597,283.6,595.9,283.1,594.7,283.1
		z"/>
	<polygon class="st2" points="611.3,277.4 617.1,277.4 617.6,240.8 610.8,240.8 	"/>
	<path class="st2" d="M614.2,283.1c-1.2,0-2.3,0.4-3.2,1.3c-0.9,0.9-1.3,1.9-1.3,3.2c0,1.2,0.4,2.3,1.3,3.2c0.9,0.9,1.9,1.3,3.2,1.3
		c0.8,0,1.6-0.2,2.2-0.6c0.7-0.4,1.2-0.9,1.6-1.6c0.4-0.7,0.6-1.4,0.6-2.2c0-1.2-0.4-2.3-1.3-3.2
		C616.5,283.6,615.4,283.1,614.2,283.1z"/>
	<path class="st2" d="M633.7,283.1c-1.2,0-2.3,0.4-3.2,1.3c-0.9,0.9-1.3,1.9-1.3,3.2c0,1.2,0.4,2.3,1.3,3.2c0.9,0.9,1.9,1.3,3.2,1.3
		c0.8,0,1.6-0.2,2.2-0.6c0.7-0.4,1.2-0.9,1.6-1.6c0.4-0.7,0.6-1.4,0.6-2.2c0-1.2-0.4-2.3-1.3-3.2C636,283.6,634.9,283.1,633.7,283.1
		z"/>
	<polygon class="st2" points="630.8,277.4 636.6,277.4 637.1,240.8 630.3,240.8 	"/>
	<polygon class="st2" points="650.3,277.4 656.1,277.4 656.6,240.8 649.8,240.8 	"/>
	<path class="st2" d="M653.2,283.1c-1.2,0-2.3,0.4-3.2,1.3c-0.9,0.9-1.3,1.9-1.3,3.2c0,1.2,0.4,2.3,1.3,3.2c0.9,0.9,1.9,1.3,3.2,1.3
		c0.8,0,1.6-0.2,2.2-0.6c0.7-0.4,1.2-0.9,1.6-1.6c0.4-0.7,0.6-1.4,0.6-2.2c0-1.2-0.4-2.3-1.3-3.2
		C655.5,283.6,654.4,283.1,653.2,283.1z"/>
	<polygon class="st2" points="669.8,277.4 675.5,277.4 676,240.8 669.3,240.8 	"/>
	<path class="st2" d="M672.7,283.1c-1.2,0-2.3,0.4-3.2,1.3c-0.9,0.9-1.3,1.9-1.3,3.2c0,1.2,0.4,2.3,1.3,3.2c0.9,0.9,1.9,1.3,3.2,1.3
		c0.8,0,1.6-0.2,2.2-0.6c0.7-0.4,1.2-0.9,1.6-1.6c0.4-0.7,0.6-1.4,0.6-2.2c0-1.2-0.4-2.3-1.3-3.2
		C674.9,283.6,673.9,283.1,672.7,283.1z"/>
	<path class="st2" d="M692.1,283.1c-1.2,0-2.3,0.4-3.2,1.3c-0.9,0.9-1.3,1.9-1.3,3.2c0,1.2,0.4,2.3,1.3,3.2c0.9,0.9,1.9,1.3,3.2,1.3
		c0.8,0,1.6-0.2,2.2-0.6c0.7-0.4,1.2-0.9,1.6-1.6c0.4-0.7,0.6-1.4,0.6-2.2c0-1.2-0.4-2.3-1.3-3.2
		C694.4,283.6,693.4,283.1,692.1,283.1z"/>
	<polygon class="st2" points="689.3,277.4 695,277.4 695.5,240.8 688.8,240.8 	"/>
	<path class="st2" d="M711.6,283.1c-1.2,0-2.3,0.4-3.2,1.3c-0.9,0.9-1.3,1.9-1.3,3.2c0,1.2,0.4,2.3,1.3,3.2c0.9,0.9,1.9,1.3,3.2,1.3
		c0.8,0,1.6-0.2,2.2-0.6c0.7-0.4,1.2-0.9,1.6-1.6c0.4-0.7,0.6-1.4,0.6-2.2c0-1.2-0.4-2.3-1.3-3.2
		C713.9,283.6,712.9,283.1,711.6,283.1z"/>
	<polygon class="st2" points="708.8,277.4 714.5,277.4 715,240.8 708.3,240.8 	"/>
	<polygon class="st2" points="728.2,277.4 734,277.4 734.5,240.8 727.7,240.8 	"/>
	<path class="st2" d="M731.1,283.1c-1.2,0-2.3,0.4-3.2,1.3c-0.9,0.9-1.3,1.9-1.3,3.2c0,1.2,0.4,2.3,1.3,3.2c0.9,0.9,1.9,1.3,3.2,1.3
		c0.8,0,1.6-0.2,2.2-0.6c0.7-0.4,1.2-0.9,1.6-1.6c0.4-0.7,0.6-1.4,0.6-2.2c0-1.2-0.4-2.3-1.3-3.2
		C733.4,283.6,732.4,283.1,731.1,283.1z"/>
	<polygon class="st2" points="753.5,277.4 754,240.8 747.2,240.8 747.7,277.4 	"/>
	<path class="st2" d="M750.6,292.1c0.8,0,1.6-0.2,2.2-0.6c0.7-0.4,1.2-0.9,1.6-1.6c0.4-0.7,0.6-1.4,0.6-2.2c0-1.2-0.4-2.3-1.3-3.2
		c-0.9-0.9-1.9-1.3-3.2-1.3s-2.3,0.4-3.2,1.3c-0.9,0.9-1.3,1.9-1.3,3.2c0,1.2,0.4,2.3,1.3,3.2C748.3,291.6,749.4,292.1,750.6,292.1z
		"/>
	<path class="st2" d="M766.9,290.8c0.9,0.9,1.9,1.3,3.2,1.3c0.8,0,1.6-0.2,2.2-0.6c0.7-0.4,1.2-0.9,1.6-1.6c0.4-0.7,0.6-1.4,0.6-2.2
		c0-1.2-0.4-2.3-1.3-3.2c-0.9-0.9-1.9-1.3-3.2-1.3s-2.3,0.4-3.2,1.3c-0.9,0.9-1.3,1.9-1.3,3.2C765.6,288.8,766.1,289.9,766.9,290.8z
		"/>
	<polygon class="st2" points="773,277.4 773.5,240.8 766.7,240.8 767.2,277.4 	"/>
	<path class="st2" d="M789.6,292.1c0.8,0,1.6-0.2,2.2-0.6c0.7-0.4,1.2-0.9,1.6-1.6c0.4-0.7,0.6-1.4,0.6-2.2c0-1.2-0.4-2.3-1.3-3.2
		c-0.9-0.9-1.9-1.3-3.2-1.3s-2.3,0.4-3.2,1.3c-0.9,0.9-1.3,1.9-1.3,3.2c0,1.2,0.4,2.3,1.3,3.2C787.3,291.6,788.4,292.1,789.6,292.1z
		"/>
	<polygon class="st2" points="792.5,277.4 793,240.8 786.2,240.8 786.7,277.4 	"/>
	<polygon class="st2" points="812,277.4 812.5,240.8 805.7,240.8 806.2,277.4 	"/>
	<path class="st2" d="M809.1,292.1c0.8,0,1.6-0.2,2.2-0.6c0.7-0.4,1.2-0.9,1.6-1.6c0.4-0.7,0.6-1.4,0.6-2.2c0-1.2-0.4-2.3-1.3-3.2
		c-0.9-0.9-1.9-1.3-3.2-1.3s-2.3,0.4-3.2,1.3c-0.9,0.9-1.3,1.9-1.3,3.2c0,1.2,0.4,2.3,1.3,3.2C806.8,291.6,807.8,292.1,809.1,292.1z
		"/>
	<path class="st2" d="M828.6,292.1c0.8,0,1.6-0.2,2.2-0.6c0.7-0.4,1.2-0.9,1.6-1.6c0.4-0.7,0.6-1.4,0.6-2.2c0-1.2-0.4-2.3-1.3-3.2
		c-0.9-0.9-1.9-1.3-3.2-1.3s-2.3,0.4-3.2,1.3c-0.9,0.9-1.3,1.9-1.3,3.2c0,1.2,0.4,2.3,1.3,3.2C826.3,291.6,827.3,292.1,828.6,292.1z
		"/>
	<polygon class="st2" points="831.4,277.4 831.9,240.8 825.2,240.8 825.7,277.4 	"/>
	<path class="st2" d="M848.1,292.1c0.8,0,1.6-0.2,2.2-0.6c0.7-0.4,1.2-0.9,1.6-1.6c0.4-0.7,0.6-1.4,0.6-2.2c0-1.2-0.4-2.3-1.3-3.2
		c-0.9-0.9-1.9-1.3-3.2-1.3s-2.3,0.4-3.2,1.3c-0.9,0.9-1.3,1.9-1.3,3.2c0,1.2,0.4,2.3,1.3,3.2C845.8,291.6,846.8,292.1,848.1,292.1z
		"/>
	<polygon class="st2" points="850.9,277.4 851.4,240.8 844.7,240.8 845.2,277.4 	"/>
	<polygon class="st2" points="880.9,286.2 890.9,271.3 890.9,271.1 890.9,270.8 890.9,270.6 880.9,255.7 875.7,255.7 885.2,270.9 
		875.7,286.2 	"/>
	<polygon class="st2" points="888.4,286.2 893.6,286.2 903.7,271.3 903.7,271.1 903.7,270.8 903.7,270.6 893.6,255.7 888.4,255.7 
		897.9,270.9 	"/>
	<polygon class="st2" points="228.4,393 223.3,393 213.2,407.9 213.2,408.1 213.2,408.4 213.2,408.6 223.3,423.5 228.4,423.5 
		219,408.3 	"/>
	<polygon class="st2" points="225.9,408.1 225.9,408.4 225.9,408.6 236,423.5 241.2,423.5 231.7,408.3 241.2,393 236,393 
		225.9,407.9 	"/>
	<path class="st2" d="M274.7,420.5c-1.2,0-2.3,0.4-3.2,1.3c-0.9,0.9-1.3,1.9-1.3,3.2c0,1.2,0.4,2.3,1.3,3.2c0.9,0.9,1.9,1.3,3.2,1.3
		c0.8,0,1.6-0.2,2.2-0.6c0.7-0.4,1.2-0.9,1.6-1.6c0.4-0.7,0.6-1.4,0.6-2.2c0-1.2-0.4-2.3-1.3-3.2C277,420.9,276,420.5,274.7,420.5z"
		/>
	<path class="st2" d="M283.6,402.8c1.5-0.9,2.7-1.9,3.7-3.1s1.8-2.5,2.4-4c0.6-1.5,0.8-3.1,0.8-4.9c0-2.6-0.6-4.9-1.8-6.9
		c-1.2-2-2.9-3.6-5-4.8c-2.2-1.2-4.7-1.7-7.6-1.7c-2.7,0-5.1,0.5-7.3,1.6c-2.2,1.1-4,2.6-5.3,4.6c-1.3,2-2.1,4.4-2.2,7.2h6.3
		c0.1-2,0.6-3.5,1.5-4.7c0.8-1.2,1.9-2.1,3.2-2.7c1.3-0.6,2.6-0.8,3.9-0.8c1.6,0,3,0.3,4.3,1c1.3,0.6,2.3,1.6,3.1,2.8
		c0.8,1.2,1.1,2.6,1.1,4.2c0,1.3-0.2,2.5-0.7,3.6c-0.5,1.1-1.1,2-1.9,2.8c-0.8,0.8-1.7,1.5-2.6,2.1c-1.6,1-3,2-4.2,3.2
		c-1.2,1.2-2.1,2.7-2.7,4.5c-0.6,1.9-1,4.4-1,7.6v0.3h6v-0.3c0-2.1,0.2-3.8,0.6-5.1c0.4-1.4,1-2.6,1.9-3.6S282.1,403.7,283.6,402.8z
		"/>
	<path class="st2" d="M310.2,429.4c0.8,0,1.6-0.2,2.2-0.6c0.7-0.4,1.2-0.9,1.6-1.6c0.4-0.7,0.6-1.4,0.6-2.2c0-1.2-0.4-2.3-1.3-3.2
		c-0.9-0.9-1.9-1.3-3.2-1.3c-1.2,0-2.3,0.4-3.2,1.3c-0.9,0.9-1.3,1.9-1.3,3.2c0,1.2,0.4,2.3,1.3,3.2
		C307.9,429,309,429.4,310.2,429.4z"/>
	<path class="st2" d="M304.5,386.1c0.8-1.2,1.9-2.1,3.2-2.7c1.3-0.6,2.6-0.8,3.9-0.8c1.6,0,3,0.3,4.3,1c1.3,0.6,2.3,1.6,3.1,2.8
		c0.8,1.2,1.1,2.6,1.1,4.2c0,1.3-0.2,2.5-0.7,3.6c-0.5,1.1-1.1,2-1.9,2.8c-0.8,0.8-1.7,1.5-2.6,2.1c-1.6,1-3,2-4.2,3.2
		c-1.2,1.2-2.1,2.7-2.7,4.5c-0.6,1.9-1,4.4-1,7.6v0.3h6v-0.3c0-2.1,0.2-3.8,0.6-5.1c0.4-1.4,1-2.6,1.9-3.6s2-2,3.5-2.9
		c1.5-0.9,2.7-1.9,3.7-3.1s1.8-2.5,2.4-4c0.6-1.5,0.8-3.1,0.8-4.9c0-2.6-0.6-4.9-1.8-6.9c-1.2-2-2.9-3.6-5-4.8
		c-2.2-1.2-4.7-1.7-7.6-1.7c-2.7,0-5.1,0.5-7.3,1.6c-2.2,1.1-4,2.6-5.3,4.6c-1.3,2-2.1,4.4-2.2,7.2h6.3
		C303.2,388.9,303.7,387.3,304.5,386.1z"/>
	<path class="st2" d="M343.2,383.4c1.3-0.6,2.6-0.8,3.9-0.8c1.6,0,3,0.3,4.3,1c1.3,0.6,2.3,1.6,3.1,2.8c0.8,1.2,1.1,2.6,1.1,4.2
		c0,1.3-0.2,2.5-0.7,3.6c-0.5,1.1-1.1,2-1.9,2.8c-0.8,0.8-1.7,1.5-2.6,2.1c-1.6,1-3,2-4.2,3.2c-1.2,1.2-2.1,2.7-2.7,4.5
		c-0.6,1.9-1,4.4-1,7.6v0.3h6v-0.3c0-2.1,0.2-3.8,0.6-5.1c0.4-1.4,1-2.6,1.9-3.6s2-2,3.5-2.9c1.5-0.9,2.7-1.9,3.7-3.1s1.8-2.5,2.4-4
		c0.6-1.5,0.8-3.1,0.8-4.9c0-2.6-0.6-4.9-1.8-6.9c-1.2-2-2.9-3.6-5-4.8c-2.2-1.2-4.7-1.7-7.6-1.7c-2.7,0-5.1,0.5-7.3,1.6
		c-2.2,1.1-4,2.6-5.3,4.6c-1.3,2-2.1,4.4-2.2,7.2h6.3c0.1-2,0.6-3.5,1.5-4.7C340.9,384.9,341.9,384,343.2,383.4z"/>
	<path class="st2" d="M348,428.8c0.7-0.4,1.2-0.9,1.6-1.6c0.4-0.7,0.6-1.4,0.6-2.2c0-1.2-0.4-2.3-1.3-3.2c-0.9-0.9-1.9-1.3-3.2-1.3
		c-1.2,0-2.3,0.4-3.2,1.3c-0.9,0.9-1.3,1.9-1.3,3.2c0,1.2,0.4,2.3,1.3,3.2c0.9,0.9,1.9,1.3,3.2,1.3
		C346.5,429.4,347.3,429.2,348,428.8z"/>
	<path class="st2" d="M395.2,383.9c-1.2-2-2.9-3.6-5-4.8c-2.2-1.2-4.7-1.7-7.6-1.7c-2.7,0-5.1,0.5-7.3,1.6c-2.2,1.1-4,2.6-5.3,4.6
		c-1.3,2-2.1,4.4-2.2,7.2h6.3c0.1-2,0.6-3.5,1.5-4.7c0.8-1.2,1.9-2.1,3.2-2.7c1.3-0.6,2.6-0.8,3.9-0.8c1.6,0,3,0.3,4.3,1
		c1.3,0.6,2.3,1.6,3.1,2.8c0.8,1.2,1.1,2.6,1.1,4.2c0,1.3-0.2,2.5-0.7,3.6c-0.5,1.1-1.1,2-1.9,2.8c-0.8,0.8-1.7,1.5-2.6,2.1
		c-1.6,1-3,2-4.2,3.2c-1.2,1.2-2.1,2.7-2.7,4.5c-0.6,1.9-1,4.4-1,7.6v0.3h6v-0.3c0-2.1,0.2-3.8,0.6-5.1c0.4-1.4,1-2.6,1.9-3.6
		s2-2,3.5-2.9c1.5-0.9,2.7-1.9,3.7-3.1s1.8-2.5,2.4-4c0.6-1.5,0.8-3.1,0.8-4.9C397,388.2,396.4,385.9,395.2,383.9z"/>
	<path class="st2" d="M385.1,427.2c0.4-0.7,0.6-1.4,0.6-2.2c0-1.2-0.4-2.3-1.3-3.2c-0.9-0.9-1.9-1.3-3.2-1.3c-1.2,0-2.3,0.4-3.2,1.3
		c-0.9,0.9-1.3,1.9-1.3,3.2c0,1.2,0.4,2.3,1.3,3.2c0.9,0.9,1.9,1.3,3.2,1.3c0.8,0,1.6-0.2,2.2-0.6
		C384.1,428.4,384.7,427.8,385.1,427.2z"/>
	<path class="st2" d="M416.7,420.5c-1.2,0-2.3,0.4-3.2,1.3c-0.9,0.9-1.3,1.9-1.3,3.2c0,1.2,0.4,2.3,1.3,3.2c0.9,0.9,1.9,1.3,3.2,1.3
		c0.8,0,1.6-0.2,2.2-0.6c0.7-0.4,1.2-0.9,1.6-1.6c0.4-0.7,0.6-1.4,0.6-2.2c0-1.2-0.4-2.3-1.3-3.2C419,420.9,417.9,420.5,416.7,420.5
		z"/>
	<path class="st2" d="M425.7,379.1c-2.2-1.2-4.7-1.7-7.6-1.7c-2.7,0-5.1,0.5-7.3,1.6c-2.2,1.1-4,2.6-5.3,4.6c-1.3,2-2.1,4.4-2.2,7.2
		h6.3c0.1-2,0.6-3.5,1.5-4.7c0.8-1.2,1.9-2.1,3.2-2.7c1.3-0.6,2.6-0.8,3.9-0.8c1.6,0,3,0.3,4.3,1c1.3,0.6,2.3,1.6,3.1,2.8
		c0.8,1.2,1.1,2.6,1.1,4.2c0,1.3-0.2,2.5-0.7,3.6c-0.5,1.1-1.1,2-1.9,2.8c-0.8,0.8-1.7,1.5-2.6,2.1c-1.6,1-3,2-4.2,3.2
		c-1.2,1.2-2.1,2.7-2.7,4.5c-0.6,1.9-1,4.4-1,7.6v0.3h6v-0.3c0-2.1,0.2-3.8,0.6-5.1c0.4-1.4,1-2.6,1.9-3.6s2-2,3.5-2.9
		c1.5-0.9,2.7-1.9,3.7-3.1s1.8-2.5,2.4-4c0.6-1.5,0.8-3.1,0.8-4.9c0-2.6-0.6-4.9-1.8-6.9C429.6,381.9,427.9,380.3,425.7,379.1z"/>
	<path class="st2" d="M441,383.6c-1.3,2-2.1,4.4-2.2,7.2h6.3c0.1-2,0.6-3.5,1.5-4.7c0.8-1.2,1.9-2.1,3.2-2.7
		c1.3-0.6,2.6-0.8,3.9-0.8c1.6,0,3,0.3,4.3,1c1.3,0.6,2.3,1.6,3.1,2.8c0.8,1.2,1.1,2.6,1.1,4.2c0,1.3-0.2,2.5-0.7,3.6
		c-0.5,1.1-1.1,2-1.9,2.8c-0.8,0.8-1.7,1.5-2.6,2.1c-1.6,1-3,2-4.2,3.2c-1.2,1.2-2.1,2.7-2.7,4.5c-0.6,1.9-1,4.4-1,7.6v0.3h6v-0.3
		c0-2.1,0.2-3.8,0.6-5.1c0.4-1.4,1-2.6,1.9-3.6s2-2,3.5-2.9c1.5-0.9,2.7-1.9,3.7-3.1s1.8-2.5,2.4-4c0.6-1.5,0.8-3.1,0.8-4.9
		c0-2.6-0.6-4.9-1.8-6.9c-1.2-2-2.9-3.6-5-4.8c-2.2-1.2-4.7-1.7-7.6-1.7c-2.7,0-5.1,0.5-7.3,1.6C444.1,380.1,442.3,381.6,441,383.6z
		"/>
	<path class="st2" d="M454.5,428.8c0.7-0.4,1.2-0.9,1.6-1.6c0.4-0.7,0.6-1.4,0.6-2.2c0-1.2-0.4-2.3-1.3-3.2
		c-0.9-0.9-1.9-1.3-3.2-1.3c-1.2,0-2.3,0.4-3.2,1.3c-0.9,0.9-1.3,1.9-1.3,3.2c0,1.2,0.4,2.3,1.3,3.2c0.9,0.9,1.9,1.3,3.2,1.3
		C453,429.4,453.8,429.2,454.5,428.8z"/>
	<path class="st2" d="M476.5,383.6c-1.3,2-2.1,4.4-2.2,7.2h6.3c0.1-2,0.6-3.5,1.5-4.7c0.8-1.2,1.9-2.1,3.2-2.7
		c1.3-0.6,2.6-0.8,3.9-0.8c1.6,0,3,0.3,4.3,1c1.3,0.6,2.3,1.6,3.1,2.8c0.8,1.2,1.1,2.6,1.1,4.2c0,1.3-0.2,2.5-0.7,3.6
		c-0.5,1.1-1.1,2-1.9,2.8c-0.8,0.8-1.7,1.5-2.6,2.1c-1.6,1-3,2-4.2,3.2c-1.2,1.2-2.1,2.7-2.7,4.5c-0.6,1.9-1,4.4-1,7.6v0.3h6v-0.3
		c0-2.1,0.2-3.8,0.6-5.1c0.4-1.4,1-2.6,1.9-3.6s2-2,3.5-2.9c1.5-0.9,2.7-1.9,3.7-3.1s1.8-2.5,2.4-4c0.6-1.5,0.8-3.1,0.8-4.9
		c0-2.6-0.6-4.9-1.8-6.9c-1.2-2-2.9-3.6-5-4.8c-2.2-1.2-4.7-1.7-7.6-1.7c-2.7,0-5.1,0.5-7.3,1.6
		C479.6,380.1,477.8,381.6,476.5,383.6z"/>
	<path class="st2" d="M491.6,427.2c0.4-0.7,0.6-1.4,0.6-2.2c0-1.2-0.4-2.3-1.3-3.2c-0.9-0.9-1.9-1.3-3.2-1.3c-1.2,0-2.3,0.4-3.2,1.3
		c-0.9,0.9-1.3,1.9-1.3,3.2c0,1.2,0.4,2.3,1.3,3.2c0.9,0.9,1.9,1.3,3.2,1.3c0.8,0,1.6-0.2,2.2-0.6
		C490.6,428.4,491.2,427.8,491.6,427.2z"/>
	<path class="st2" d="M523.2,429.4c0.8,0,1.6-0.2,2.2-0.6c0.7-0.4,1.2-0.9,1.6-1.6c0.4-0.7,0.6-1.4,0.6-2.2c0-1.2-0.4-2.3-1.3-3.2
		c-0.9-0.9-1.9-1.3-3.2-1.3c-1.2,0-2.3,0.4-3.2,1.3c-0.9,0.9-1.3,1.9-1.3,3.2c0,1.2,0.4,2.3,1.3,3.2
		C520.9,429,522,429.4,523.2,429.4z"/>
	<path class="st2" d="M512,383.6c-1.3,2-2.1,4.4-2.2,7.2h6.3c0.1-2,0.6-3.5,1.5-4.7c0.8-1.2,1.9-2.1,3.2-2.7
		c1.3-0.6,2.6-0.8,3.9-0.8c1.6,0,3,0.3,4.3,1c1.3,0.6,2.3,1.6,3.1,2.8c0.8,1.2,1.1,2.6,1.1,4.2c0,1.3-0.2,2.5-0.7,3.6
		c-0.5,1.1-1.1,2-1.9,2.8c-0.8,0.8-1.7,1.5-2.6,2.1c-1.6,1-3,2-4.2,3.2c-1.2,1.2-2.1,2.7-2.7,4.5c-0.6,1.9-1,4.4-1,7.6v0.3h6v-0.3
		c0-2.1,0.2-3.8,0.6-5.1c0.4-1.4,1-2.6,1.9-3.6s2-2,3.5-2.9c1.5-0.9,2.7-1.9,3.7-3.1s1.8-2.5,2.4-4c0.6-1.5,0.8-3.1,0.8-4.9
		c0-2.6-0.6-4.9-1.8-6.9c-1.2-2-2.9-3.6-5-4.8c-2.2-1.2-4.7-1.7-7.6-1.7c-2.7,0-5.1,0.5-7.3,1.6C515.1,380.1,513.3,381.6,512,383.6z
		"/>
	<path class="st2" d="M558.7,429.4c0.8,0,1.6-0.2,2.2-0.6c0.7-0.4,1.2-0.9,1.6-1.6c0.4-0.7,0.6-1.4,0.6-2.2c0-1.2-0.4-2.3-1.3-3.2
		c-0.9-0.9-1.9-1.3-3.2-1.3s-2.3,0.4-3.2,1.3c-0.9,0.9-1.3,1.9-1.3,3.2c0,1.2,0.4,2.3,1.3,3.2C556.4,429,557.5,429.4,558.7,429.4z"
		/>
	<path class="st2" d="M553,386.1c0.8-1.2,1.9-2.1,3.2-2.7c1.3-0.6,2.6-0.8,3.9-0.8c1.6,0,3,0.3,4.2,1c1.3,0.6,2.3,1.6,3.1,2.8
		s1.1,2.6,1.1,4.2c0,1.3-0.2,2.5-0.7,3.6s-1.1,2-1.9,2.8c-0.8,0.8-1.7,1.5-2.6,2.1c-1.6,1-3,2-4.2,3.2c-1.2,1.2-2.1,2.7-2.7,4.5
		c-0.6,1.9-1,4.4-1,7.6v0.3h6v-0.3c0-2.1,0.2-3.8,0.6-5.1c0.4-1.4,1-2.6,1.9-3.6c0.9-1,2-2,3.5-2.9c1.5-0.9,2.7-1.9,3.7-3.1
		c1-1.2,1.8-2.5,2.4-4c0.6-1.5,0.8-3.1,0.8-4.9c0-2.6-0.6-4.9-1.8-6.9c-1.2-2-2.9-3.6-5-4.8c-2.2-1.2-4.7-1.7-7.6-1.7
		c-2.7,0-5.1,0.5-7.3,1.6c-2.2,1.1-4,2.6-5.3,4.6c-1.3,2-2.1,4.4-2.2,7.2h6.3C551.7,388.9,552.2,387.3,553,386.1z"/>
	<path class="st2" d="M594.2,420.5c-1.2,0-2.3,0.4-3.2,1.3c-0.9,0.9-1.3,1.9-1.3,3.2c0,1.2,0.4,2.3,1.3,3.2c0.9,0.9,1.9,1.3,3.2,1.3
		c0.8,0,1.6-0.2,2.2-0.6c0.7-0.4,1.2-0.9,1.6-1.6c0.4-0.7,0.6-1.4,0.6-2.2c0-1.2-0.4-2.3-1.3-3.2
		C596.5,420.9,595.4,420.5,594.2,420.5z"/>
	<path class="st2" d="M610,390.8c0-2.6-0.6-4.9-1.8-6.9c-1.2-2-2.9-3.6-5-4.8c-2.2-1.2-4.7-1.7-7.6-1.7c-2.7,0-5.1,0.5-7.3,1.6
		c-2.2,1.1-4,2.6-5.3,4.6c-1.3,2-2.1,4.4-2.2,7.2h6.3c0.1-2,0.6-3.5,1.5-4.7c0.8-1.2,1.9-2.1,3.2-2.7c1.3-0.6,2.6-0.8,3.9-0.8
		c1.6,0,3,0.3,4.3,1c1.3,0.6,2.3,1.6,3.1,2.8c0.8,1.2,1.1,2.6,1.1,4.2c0,1.3-0.2,2.5-0.7,3.6c-0.5,1.1-1.1,2-1.9,2.8
		s-1.7,1.5-2.6,2.1c-1.6,1-3,2-4.2,3.2c-1.2,1.2-2.1,2.7-2.7,4.5c-0.6,1.9-1,4.4-1,7.6v0.3h6v-0.3c0-2.1,0.2-3.8,0.6-5.1
		c0.4-1.4,1-2.6,1.9-3.6c0.9-1,2-2,3.5-2.9c1.5-0.9,2.7-1.9,3.7-3.1c1-1.2,1.8-2.5,2.4-4C609.7,394.3,610,392.6,610,390.8z"/>
	<path class="st2" d="M638.7,379.1c-2.2-1.2-4.7-1.7-7.6-1.7c-2.7,0-5.1,0.5-7.3,1.6c-2.2,1.1-4,2.6-5.3,4.6c-1.3,2-2.1,4.4-2.2,7.2
		h6.3c0.1-2,0.6-3.5,1.5-4.7s1.9-2.1,3.2-2.7c1.3-0.6,2.6-0.8,3.9-0.8c1.6,0,3,0.3,4.2,1c1.3,0.6,2.3,1.6,3.1,2.8s1.1,2.6,1.1,4.2
		c0,1.3-0.2,2.5-0.7,3.6s-1.1,2-1.9,2.8c-0.8,0.8-1.7,1.5-2.6,2.1c-1.6,1-3,2-4.2,3.2c-1.2,1.2-2.1,2.7-2.7,4.5
		c-0.6,1.9-1,4.4-1,7.6v0.3h6v-0.3c0-2.1,0.2-3.8,0.6-5.1c0.4-1.4,1-2.6,1.9-3.6c0.9-1,2-2,3.5-2.9c1.5-0.9,2.7-1.9,3.7-3.1
		c1-1.2,1.8-2.5,2.4-4c0.6-1.5,0.8-3.1,0.8-4.9c0-2.6-0.6-4.9-1.8-6.9C642.5,381.9,640.9,380.3,638.7,379.1z"/>
	<path class="st2" d="M629.7,420.5c-1.2,0-2.3,0.4-3.2,1.3c-0.9,0.9-1.3,1.9-1.3,3.2c0,1.2,0.4,2.3,1.3,3.2c0.9,0.9,1.9,1.3,3.2,1.3
		c0.8,0,1.6-0.2,2.2-0.6c0.7-0.4,1.2-0.9,1.6-1.6c0.4-0.7,0.6-1.4,0.6-2.2c0-1.2-0.4-2.3-1.3-3.2C632,420.9,630.9,420.5,629.7,420.5
		z"/>
	<path class="st2" d="M667.4,428.8c0.7-0.4,1.2-0.9,1.6-1.6c0.4-0.7,0.6-1.4,0.6-2.2c0-1.2-0.4-2.3-1.3-3.2
		c-0.9-0.9-1.9-1.3-3.2-1.3c-1.2,0-2.3,0.4-3.2,1.3c-0.9,0.9-1.3,1.9-1.3,3.2c0,1.2,0.4,2.3,1.3,3.2c0.9,0.9,1.9,1.3,3.2,1.3
		C666,429.4,666.8,429.2,667.4,428.8z"/>
	<path class="st2" d="M654,383.6c-1.3,2-2.1,4.4-2.2,7.2h6.3c0.1-2,0.6-3.5,1.5-4.7c0.8-1.2,1.9-2.1,3.2-2.7
		c1.3-0.6,2.6-0.8,3.9-0.8c1.6,0,3,0.3,4.3,1c1.3,0.6,2.3,1.6,3.1,2.8c0.8,1.2,1.1,2.6,1.1,4.2c0,1.3-0.2,2.5-0.7,3.6
		c-0.5,1.1-1.1,2-1.9,2.8s-1.7,1.5-2.6,2.1c-1.6,1-3,2-4.2,3.2c-1.2,1.2-2.1,2.7-2.7,4.5c-0.6,1.9-1,4.4-1,7.6v0.3h6v-0.3
		c0-2.1,0.2-3.8,0.6-5.1c0.4-1.4,1-2.6,1.9-3.6c0.9-1,2-2,3.5-2.9c1.5-0.9,2.7-1.9,3.7-3.1c1-1.2,1.8-2.5,2.4-4
		c0.6-1.5,0.8-3.1,0.8-4.9c0-2.6-0.6-4.9-1.8-6.9c-1.2-2-2.9-3.6-5-4.8c-2.2-1.2-4.7-1.7-7.6-1.7c-2.7,0-5.1,0.5-7.3,1.6
		C657.1,380.1,655.3,381.6,654,383.6z"/>
	<path class="st2" d="M689.5,383.6c-1.3,2-2.1,4.4-2.2,7.2h6.3c0.1-2,0.6-3.5,1.5-4.7s1.9-2.1,3.2-2.7c1.3-0.6,2.6-0.8,3.9-0.8
		c1.6,0,3,0.3,4.2,1c1.3,0.6,2.3,1.6,3.1,2.8s1.1,2.6,1.1,4.2c0,1.3-0.2,2.5-0.7,3.6s-1.1,2-1.9,2.8c-0.8,0.8-1.7,1.5-2.6,2.1
		c-1.6,1-3,2-4.2,3.2c-1.2,1.2-2.1,2.7-2.7,4.5c-0.6,1.9-1,4.4-1,7.6v0.3h6v-0.3c0-2.1,0.2-3.8,0.6-5.1c0.4-1.4,1-2.6,1.9-3.6
		c0.9-1,2-2,3.5-2.9c1.5-0.9,2.7-1.9,3.7-3.1c1-1.2,1.8-2.5,2.4-4c0.6-1.5,0.8-3.1,0.8-4.9c0-2.6-0.6-4.9-1.8-6.9
		c-1.2-2-2.9-3.6-5-4.8c-2.2-1.2-4.7-1.7-7.6-1.7c-2.7,0-5.1,0.5-7.3,1.6C692.6,380.1,690.8,381.6,689.5,383.6z"/>
	<path class="st2" d="M704.5,427.2c0.4-0.7,0.6-1.4,0.6-2.2c0-1.2-0.4-2.3-1.3-3.2c-0.9-0.9-1.9-1.3-3.2-1.3s-2.3,0.4-3.2,1.3
		c-0.9,0.9-1.3,1.9-1.3,3.2c0,1.2,0.4,2.3,1.3,3.2c0.9,0.9,1.9,1.3,3.2,1.3c0.8,0,1.6-0.2,2.2-0.6
		C703.6,428.4,704.1,427.8,704.5,427.2z"/>
	<path class="st2" d="M725,383.6c-1.3,2-2.1,4.4-2.2,7.2h6.3c0.1-2,0.6-3.5,1.5-4.7c0.8-1.2,1.9-2.1,3.2-2.7
		c1.3-0.6,2.6-0.8,3.9-0.8c1.6,0,3,0.3,4.3,1c1.3,0.6,2.3,1.6,3.1,2.8c0.8,1.2,1.1,2.6,1.1,4.2c0,1.3-0.2,2.5-0.7,3.6
		c-0.5,1.1-1.1,2-1.9,2.8s-1.7,1.5-2.6,2.1c-1.6,1-3,2-4.2,3.2c-1.2,1.2-2.1,2.7-2.7,4.5c-0.6,1.9-1,4.4-1,7.6v0.3h6v-0.3
		c0-2.1,0.2-3.8,0.6-5.1c0.4-1.4,1-2.6,1.9-3.6c0.9-1,2-2,3.5-2.9c1.5-0.9,2.7-1.9,3.7-3.1c1-1.2,1.8-2.5,2.4-4
		c0.6-1.5,0.8-3.1,0.8-4.9c0-2.6-0.6-4.9-1.8-6.9c-1.2-2-2.9-3.6-5-4.8c-2.2-1.2-4.7-1.7-7.6-1.7c-2.7,0-5.1,0.5-7.3,1.6
		C728.1,380.1,726.3,381.6,725,383.6z"/>
	<path class="st2" d="M738.4,428.8c0.7-0.4,1.2-0.9,1.6-1.6c0.4-0.7,0.6-1.4,0.6-2.2c0-1.2-0.4-2.3-1.3-3.2
		c-0.9-0.9-1.9-1.3-3.2-1.3c-1.2,0-2.3,0.4-3.2,1.3c-0.9,0.9-1.3,1.9-1.3,3.2c0,1.2,0.4,2.3,1.3,3.2c0.9,0.9,1.9,1.3,3.2,1.3
		C737,429.4,737.8,429.2,738.4,428.8z"/>
	<path class="st2" d="M765.7,379c-2.2,1.1-4,2.6-5.3,4.6c-1.3,2-2.1,4.4-2.2,7.2h6.3c0.1-2,0.6-3.5,1.5-4.7c0.8-1.2,1.9-2.1,3.2-2.7
		c1.3-0.6,2.6-0.8,3.9-0.8c1.6,0,3,0.3,4.3,1c1.3,0.6,2.3,1.6,3.1,2.8c0.8,1.2,1.1,2.6,1.1,4.2c0,1.3-0.2,2.5-0.7,3.6
		c-0.5,1.1-1.1,2-1.9,2.8s-1.7,1.5-2.6,2.1c-1.6,1-3,2-4.2,3.2c-1.2,1.2-2.1,2.7-2.7,4.5c-0.6,1.9-1,4.4-1,7.6v0.3h6v-0.3
		c0-2.1,0.2-3.8,0.6-5.1c0.4-1.4,1-2.6,1.9-3.6c0.9-1,2-2,3.5-2.9c1.5-0.9,2.7-1.9,3.7-3.1c1-1.2,1.8-2.5,2.4-4
		c0.6-1.5,0.8-3.1,0.8-4.9c0-2.6-0.6-4.9-1.8-6.9c-1.2-2-2.9-3.6-5-4.8c-2.2-1.2-4.7-1.7-7.6-1.7C770.4,377.4,767.9,377.9,765.7,379
		z"/>
	<path class="st2" d="M776.2,424.9c0-1.2-0.4-2.3-1.3-3.2c-0.9-0.9-1.9-1.3-3.2-1.3c-1.2,0-2.3,0.4-3.2,1.3
		c-0.9,0.9-1.3,1.9-1.3,3.2c0,1.2,0.4,2.3,1.3,3.2c0.9,0.9,1.9,1.3,3.2,1.3c0.8,0,1.6-0.2,2.2-0.6c0.7-0.4,1.2-0.9,1.6-1.6
		C775.9,426.5,776.2,425.7,776.2,424.9z"/>
	<polygon class="st2" points="806.3,423.5 816.3,408.6 816.3,408.4 816.3,408.1 816.3,407.9 806.3,393 801.1,393 810.6,408.3 
		801.1,423.5 	"/>
	<polygon class="st2" points="813.9,423.5 819,423.5 829.1,408.6 829.1,408.4 829.1,408.1 829.1,407.9 819,393 813.9,393 
		823.3,408.3 	"/>
</g>
</svg>
