<?xml version="1.0" encoding="utf-8"?>
<!-- Generator: Adobe Illustrator 25.2.0, SVG Export Plug-In . SVG Version: 6.00 Build 0)  -->
<svg version="1.1" xmlns="http://www.w3.org/2000/svg" xmlns:xlink="http://www.w3.org/1999/xlink" x="0px" y="0px"
	 viewBox="0 0 1080 1080" style="enable-background:new 0 0 1080 1080;" xml:space="preserve">
<style type="text/css">
	.st0{fill:#FF0049;}
	.st1{fill:#FF5072;}
	.st2{fill:#FF85A2;}
	.st3{fill:#A5003F;}
	.st4{fill:#D30046;}
	.st5{fill:none;stroke:#A5003F;stroke-width:20;stroke-linecap:round;stroke-miterlimit:10;}
	.st6{fill:none;stroke:#FFFFFF;stroke-width:15;stroke-linecap:round;stroke-miterlimit:10;}
	.st7{fill:none;stroke:#FF0049;stroke-width:70;stroke-linecap:round;stroke-miterlimit:10;}
	.st8{fill:none;stroke:#FFFFFF;stroke-width:10;stroke-linecap:round;stroke-miterlimit:10;}
	.st9{fill:#FFFFFF;}
</style>
<g id="COULEURS">
</g>
<g id="Jauge__x2B_accueil">
</g>
<g id="images">
</g>
<g id="TEXTE">
</g>
<g id="jauge">
</g>
<g id="picto_accueil">
</g>
<g id="FOND">
</g>
<g id="PICTOS">
</g>
<g id="bulles_Source__x2B_dico">
</g>
<g id="règles">
</g>
<g id="LOGO">
	<g>
		<path class="st4" d="M349.09,411.5h-66.67c-35.66,0-64.67-29.01-64.67-64.67v-66.67c0-35.66,29.01-64.67,64.67-64.67h66.67
			c35.66,0,64.67,29.01,64.67,64.67v66.67C413.76,382.49,384.75,411.5,349.09,411.5z M282.42,235.5
			c-24.63,0-44.67,20.04-44.67,44.67v66.67c0,24.63,20.04,44.67,44.67,44.67h66.67c24.63,0,44.67-20.04,44.67-44.67v-66.67
			c0-24.63-20.04-44.67-44.67-44.67H282.42z"/>
	</g>
	<g>
		<path class="st4" d="M349.09,638h-66.67c-35.66,0-64.67-29.01-64.67-64.67v-66.67c0-35.66,29.01-64.67,64.67-64.67h66.67
			c35.66,0,64.67,29.01,64.67,64.67v66.67C413.76,608.99,384.75,638,349.09,638z M282.42,462c-24.63,0-44.67,20.04-44.67,44.67
			v66.67c0,24.63,20.04,44.67,44.67,44.67h66.67c24.63,0,44.67-20.04,44.67-44.67v-66.67c0-24.63-20.04-44.67-44.67-44.67H282.42z"
			/>
	</g>
	<g>
		<path class="st4" d="M349.09,864.5h-66.67c-35.66,0-64.67-29.01-64.67-64.67v-66.67c0-35.66,29.01-64.67,64.67-64.67h66.67
			c35.66,0,64.67,29.01,64.67,64.67v66.67C413.76,835.49,384.75,864.5,349.09,864.5z M282.42,688.5
			c-24.63,0-44.67,20.04-44.67,44.67v66.67c0,24.63,20.04,44.67,44.67,44.67h66.67c24.63,0,44.67-20.04,44.67-44.67v-66.67
			c0-24.63-20.04-44.67-44.67-44.67H282.42z"/>
	</g>
	<g>
		<path class="st3" d="M367.11,374.38c-2.56,0-5.12-0.98-7.07-2.93L258.45,269.86c-3.91-3.91-3.91-10.24,0-14.14
			c3.91-3.91,10.24-3.9,14.14,0L374.18,357.3c3.91,3.91,3.91,10.24,0,14.14C372.22,373.4,369.66,374.38,367.11,374.38z"/>
	</g>
	<g>
		<path class="st3" d="M265.52,374.38c-2.56,0-5.12-0.98-7.07-2.93c-3.91-3.91-3.91-10.24,0-14.14L409.16,206.6
			c3.91-3.9,10.24-3.9,14.14,0c3.91,3.91,3.91,10.24,0,14.14L272.59,371.45C270.64,373.4,268.08,374.38,265.52,374.38z"/>
	</g>
	<g>
		<path class="st3" d="M367.11,601.04c-2.56,0-5.12-0.98-7.07-2.93L258.45,496.53c-3.91-3.91-3.91-10.24,0-14.14
			c3.91-3.91,10.24-3.9,14.14,0l101.58,101.58c3.91,3.91,3.91,10.24,0,14.14C372.22,600.06,369.66,601.04,367.11,601.04z"/>
	</g>
	<g>
		<path class="st3" d="M265.52,601.04c-2.56,0-5.12-0.98-7.07-2.93c-3.91-3.91-3.91-10.24,0-14.14l150.71-150.71
			c3.91-3.9,10.24-3.9,14.14,0c3.91,3.91,3.91,10.24,0,14.14L272.59,598.11C270.64,600.06,268.08,601.04,265.52,601.04z"/>
	</g>
	<g>
		<path class="st0" d="M882.24,333.5H483.12c-11.05,0-20-8.95-20-20s8.95-20,20-20h399.12c11.05,0,20,8.95,20,20
			S893.29,333.5,882.24,333.5z"/>
	</g>
	<g>
		<path class="st0" d="M882.24,560.25H483.12c-11.05,0-20-8.95-20-20s8.95-20,20-20h399.12c11.05,0,20,8.95,20,20
			S893.29,560.25,882.24,560.25z"/>
	</g>
	<g>
		<path class="st0" d="M882.24,786.5H483.12c-11.05,0-20-8.95-20-20s8.95-20,20-20h399.12c11.05,0,20,8.95,20,20
			S893.29,786.5,882.24,786.5z"/>
	</g>
</g>
</svg>
