<?xml version="1.0" encoding="utf-8"?>
<!-- Generator: Adobe Illustrator 25.2.0, SVG Export Plug-In . SVG Version: 6.00 Build 0)  -->
<svg version="1.1" xmlns="http://www.w3.org/2000/svg" xmlns:xlink="http://www.w3.org/1999/xlink" x="0px" y="0px"
	 viewBox="0 0 1080 1080" style="enable-background:new 0 0 1080 1080;" xml:space="preserve">
<style type="text/css">
	.st0{fill:#FF0049;}
	.st1{fill:#FF5072;}
	.st2{fill:#FF85A2;}
	.st3{fill:#A5003F;}
	.st4{fill:#D30046;}
	.st5{fill:none;stroke:#A5003F;stroke-width:20;stroke-linecap:round;stroke-miterlimit:10;}
	.st6{fill:none;stroke:#FFFFFF;stroke-width:15;stroke-linecap:round;stroke-miterlimit:10;}
	.st7{fill:none;stroke:#FF0049;stroke-width:70;stroke-linecap:round;stroke-miterlimit:10;}
	.st8{fill:none;stroke:#FFFFFF;stroke-width:10;stroke-linecap:round;stroke-miterlimit:10;}
	.st9{fill:#FFFFFF;}
	.st10{font-family:'suisse';}
	.st11{font-size:79.8541px;}
	.st12{font-size:38.8829px;}
</style>
<g id="COULEURS">
</g>
<g id="Jauge__x2B_accueil">
</g>
<g id="images">
</g>
<g id="TEXTE">
</g>
<g id="jauge">
</g>
<g id="picto_accueil">
</g>
<g id="FOND">
</g>
<g id="PICTOS">
</g>
<g id="bulles_Source__x2B_dico">
</g>
<g id="règles">
</g>
<g id="LOGO">
	<path class="st2" d="M830.45,799.4l55.92-9.56c3.13-0.54,44.88-9.27,44.88-9.27c19.4-3.42,29.21-21.48,29.56-41.18
		c5.1-288.02-48.16-409.79-78.95-517.52c-5.11-17.87-19.23-31.52-37.76-30.23L690.73,202.3c-11.53-1.86-20.3-12.9-17.85-25.8
		c0.33-1.73,0.89-3.41,1.68-4.99c3.6-7.2,10.34-11.63,17.98-12.17l119.94-7.93c10.14-0.71,19.2-6.19,24.64-15.15
		c2.27-3.74,3.69-7.95,4.17-12.3c2.21-20.03-14.22-36.27-33.33-34.93l-94.69,6.1l-52.83,3.72c-0.33,0.02-0.64,0.08-0.95,0.16
		l-71.75,5.15l-0.01-0.09l-218.47,15.67l-166.23,12.05c-7.15,1.96-13.4,6.42-17.71,12.85c-3.05,4.56-4.82,9.89-5.12,15.37
		c-1.06,19.19,14.95,34.43,33.5,33.12l72.49-5.32c11.12-0.78,21.36,6.74,23.33,17.7c1.18,6.58-0.62,13.1-4.91,18.05
		c-2.48,2.86-5.59,4.97-9.07,6.2l-83.24,5.79c-18.76,1.3-37.29,18.09-32.09,36.17c26.22,91.26,73.2,410.12,29.71,594.14
		c-5.07,21.44,21.23,38.06,42.93,34.23l182.69-32.18c11.31,1.09,20.68,11.04,19.56,23.82c-0.16,1.77-0.55,3.52-1.19,5.18
		c-2.87,7.5-9.12,12.56-16.66,13.85l-148.9,28.57c-10.02,1.72-18.49,8.07-23.01,17.53c-1.89,3.95-2.88,8.28-2.92,12.66
		c-0.2,20.15,17.77,34.67,36.64,31.43l4.93-0.83l171.23-32.37c0.32-0.06,0.63-0.14,0.93-0.26L547,955.21l0.02,0.09l215.82-37.39
		l183.14-33.79c6.91-2.66,12.69-7.72,16.33-14.55c2.58-4.84,3.81-10.32,3.57-15.8c-0.85-19.21-18.3-32.77-36.63-29.62l-90.53,17.74
		c-10.98,1.89-21.92-4.57-24.98-15.29c-1.83-6.43-0.69-13.1,3.09-18.45C820.07,803.55,824.9,800.45,830.45,799.4z"/>
	<path class="st0" d="M835.08,355.19l-67.98,7.75l-52.67,5.98c-13.78,1.55-26.07-10.25-23.89-25.05c0.26-1.78,0.77-3.52,1.52-5.16
		c3.31-7.28,9.83-11.94,17.41-12.79l30.12-3.42c10.11-1.13,18.93-6.98,23.99-16.16c2.13-3.86,3.38-8.18,3.66-12.58
		c1.3-20.05-15.76-35.53-34.76-33.4l-4.96,0.54l-52.63,5.91c-0.33,0.04-0.64,0.11-0.94,0.2l-71.48,8.12l-0.01-0.09l-217.64,24.73
		l-96.26,10.94c-7.06,2.25-13.12,6.97-17.16,13.57c-2.86,4.67-4.4,10.08-4.48,15.56c-0.27,19.22,16.36,33.78,34.84,31.71l2.85-0.32
		c11.07-1.24,21.63,5.82,24.06,16.68c1.47,6.54-0.06,13.14-4.15,18.27c-3.52,4.42-8.52,7.24-14.12,7.96l-56.38,6.28
		c-8.3,0.93-15.74,5.04-20.93,11.57c0,0,0,0,0,0c-5.2,6.53-7.53,14.7-6.58,23c1.97,17.12,17.51,29.49,34.64,27.57l67.98-7.75
		l52.67-5.98c13.78-1.55,26.07,10.25,23.89,25.05c-0.26,1.78-0.77,3.52-1.52,5.16c-3.31,7.28-9.84,11.95-17.41,12.8l-30.12,3.42
		c-10.11,1.13-18.93,6.98-23.99,16.16c-2.13,3.86-3.38,8.18-3.66,12.58c-1.3,20.05,15.76,35.53,34.76,33.39l4.96-0.54l52.63-5.91
		c0.33-0.04,0.64-0.11,0.94-0.2l71.48-8.12l0.01,0.09l217.64-24.73l96.26-10.94c7.06-2.25,13.12-6.96,17.15-13.57
		c2.86-4.67,4.41-10.08,4.48-15.56c0.27-19.23-16.36-33.79-34.84-31.71l-2.85,0.32c-11.07,1.24-21.63-5.82-24.07-16.68
		c-1.47-6.54,0.06-13.14,4.15-18.27c3.52-4.42,8.52-7.24,14.12-7.96l56.38-6.28c8.3-0.93,15.74-5.04,20.93-11.57c0,0,0,0,0,0
		c5.2-6.53,7.53-14.7,6.58-23C867.75,365.63,852.22,353.26,835.08,355.19z"/>
	<line class="st6" x1="350.19" y1="333" x2="732.14" y2="290.29"/>
	<line class="st6" x1="261.03" y1="451.86" x2="835.02" y2="385.8"/>
	<line class="st6" x1="358.98" y1="544.84" x2="754.09" y2="499.45"/>
	<text transform="matrix(0.9934 -0.1143 0.1143 0.9934 283.1887 365.9145)" class="st9 st10 st11">«</text>
	<text transform="matrix(-0.9935 0.1141 -0.1141 -0.9935 818.3983 472.2124)" class="st9 st10 st11">«</text>
	<text transform="matrix(0.9934 -0.1143 0.1143 0.9934 305.8126 656.6273)" class="st9 st10 st12">( NEWTON, E, 21.01.2021, p.62 )</text>
</g>
</svg>
