<?xml version="1.0" encoding="utf-8"?>
<!-- Generator: Adobe Illustrator 25.2.3, SVG Export Plug-In . SVG Version: 6.00 Build 0)  -->
<svg version="1.1" id="Calque_1" xmlns="http://www.w3.org/2000/svg" xmlns:xlink="http://www.w3.org/1999/xlink" x="0px" y="0px"
	 viewBox="0 0 1080 1080" style="enable-background:new 0 0 1080 1080;" xml:space="preserve">
<style type="text/css">
	.st0{fill:#FF85A2;}
	.st1{fill:#FF0049;}
	.st2{fill:none;stroke:#FFFFFF;stroke-width:15;stroke-linecap:round;stroke-miterlimit:10;}
	.st3{fill:#FFFFFF;}
	.st4{font-family:'suisse';}
	.st5{font-size:79.8504px;}
	.st6{font-size:79.8565px;}
	.st7{enable-background:new    ;}
</style>
<g id="COULEURS">
</g>
<g id="Jauge__x2B_accueil">
</g>
<g id="images">
</g>
<g id="TEXTE">
</g>
<g id="jauge">
</g>
<g id="picto_accueil">
</g>
<g id="FOND">
</g>
<g id="PICTOS">
</g>
<g id="bulles_Source__x2B_dico">
</g>
<g id="règles">
</g>
<g id="LOGO">
	<path class="st0" d="M830.5,799.4l55.9-9.6c3.1-0.5,44.9-9.3,44.9-9.3c19.4-3.4,29.2-21.5,29.6-41.2c5.1-288-48.2-409.8-79-517.5
		c-5.1-17.9-19.2-31.5-37.8-30.2l-153.4,10.7c-11.5-1.9-20.3-12.9-17.8-25.8c0.3-1.7,0.9-3.4,1.7-5c3.6-7.2,10.3-11.6,18-12.2
		l119.9-7.9c10.1-0.7,19.2-6.2,24.6-15.1c2.3-3.7,3.7-7.9,4.2-12.3c2.2-20-14.2-36.3-33.3-34.9l-94.7,6.1l-52.8,3.7
		c-0.3,0-0.6,0.1-1,0.2l-71.8,5.2l0-0.1l-218.5,15.7l-166.2,12c-7.1,2-13.4,6.4-17.7,12.9c-3.1,4.6-4.8,9.9-5.1,15.4
		c-1.1,19.2,14.9,34.4,33.5,33.1l72.5-5.3c11.1-0.8,21.4,6.7,23.3,17.7c1.2,6.6-0.6,13.1-4.9,18.1c-2.5,2.9-5.6,5-9.1,6.2l-83.2,5.8
		c-18.8,1.3-37.3,18.1-32.1,36.2c26.2,91.3,73.2,410.1,29.7,594.1c-5.1,21.4,21.2,38.1,42.9,34.2l182.7-32.2
		c11.3,1.1,20.7,11,19.6,23.8c-0.2,1.8-0.5,3.5-1.2,5.2c-2.9,7.5-9.1,12.6-16.7,13.8l-148.9,28.6c-10,1.7-18.5,8.1-23,17.5
		c-1.9,4-2.9,8.3-2.9,12.7c-0.2,20.2,17.8,34.7,36.6,31.4l4.9-0.8l171.2-32.4c0.3-0.1,0.6-0.1,0.9-0.3l70.9-12.3l0,0.1l215.8-37.4
		L946,884.1c6.9-2.7,12.7-7.7,16.3-14.5c2.6-4.8,3.8-10.3,3.6-15.8c-0.8-19.2-18.3-32.8-36.6-29.6l-90.5,17.7
		c-11,1.9-21.9-4.6-25-15.3c-1.8-6.4-0.7-13.1,3.1-18.5C820.1,803.5,824.9,800.5,830.5,799.4z"/>
	<path class="st1" d="M835.1,355.2l-68,7.8l-52.7,6c-13.8,1.5-26.1-10.2-23.9-25c0.3-1.8,0.8-3.5,1.5-5.2
		c3.3-7.3,9.8-11.9,17.4-12.8l30.1-3.4c10.1-1.1,18.9-7,24-16.2c2.1-3.9,3.4-8.2,3.7-12.6c1.3-20-15.8-35.5-34.8-33.4l-5,0.5
		l-52.6,5.9c-0.3,0-0.6,0.1-0.9,0.2l-71.5,8.1l0-0.1l-217.6,24.7l-96.3,10.9c-7.1,2.2-13.1,7-17.2,13.6c-2.9,4.7-4.4,10.1-4.5,15.6
		c-0.3,19.2,16.4,33.8,34.8,31.7l2.9-0.3c11.1-1.2,21.6,5.8,24.1,16.7c1.5,6.5-0.1,13.1-4.1,18.3c-3.5,4.4-8.5,7.2-14.1,8l-56.4,6.3
		c-8.3,0.9-15.7,5-20.9,11.6l0,0c-5.2,6.5-7.5,14.7-6.6,23c2,17.1,17.5,29.5,34.6,27.6l68-7.8l52.7-6c13.8-1.5,26.1,10.2,23.9,25
		c-0.3,1.8-0.8,3.5-1.5,5.2c-3.3,7.3-9.8,12-17.4,12.8l-30.1,3.4c-10.1,1.1-18.9,7-24,16.2c-2.1,3.9-3.4,8.2-3.7,12.6
		c-1.3,20,15.8,35.5,34.8,33.4l5-0.5l52.6-5.9c0.3,0,0.6-0.1,0.9-0.2l71.5-8.1l0,0.1L711.4,538l96.3-10.9c7.1-2.2,13.1-7,17.2-13.6
		c2.9-4.7,4.4-10.1,4.5-15.6c0.3-19.2-16.4-33.8-34.8-31.7l-2.8,0.3c-11.1,1.2-21.6-5.8-24.1-16.7c-1.5-6.5,0.1-13.1,4.2-18.3
		c3.5-4.4,8.5-7.2,14.1-8l56.4-6.3c8.3-0.9,15.7-5,20.9-11.6l0,0c5.2-6.5,7.5-14.7,6.6-23C867.8,365.6,852.2,353.3,835.1,355.2z"/>
	<line class="st2" x1="350.2" y1="333" x2="732.1" y2="290.3"/>
	<line class="st2" x1="261" y1="451.9" x2="835" y2="385.8"/>
	<line class="st2" x1="359" y1="544.8" x2="754.1" y2="499.5"/>
	<text transform="matrix(0.9934 -0.1143 0.1143 0.9934 283.1885 365.9149)" class="st3 st4 st5">«</text>
	<text transform="matrix(-0.9935 0.1141 -0.1141 -0.9935 818.398 472.2128)" class="st3 st4 st6">«</text>
	<g class="st7">
		<path class="st3" d="M308.6,644.3c-0.4-3.5-0.3-6.7,0.3-9.7c0.6-3,1.5-5.8,2.9-8.5l2.9-0.3c-0.6,1-1,2.2-1.5,3.6
			c-0.4,1.4-0.8,2.9-1,4.5c-0.2,1.6-0.4,3.3-0.4,5c0,1.7,0,3.4,0.2,5c0.3,2.2,0.7,4.4,1.4,6.6c0.7,2.2,1.5,4.2,2.4,6
			c0.9,1.8,1.9,3.3,2.9,4.4l-2.9,0.3c-2-2.2-3.5-4.8-4.8-7.6C309.8,650.9,309,647.8,308.6,644.3z"/>
		<path class="st3" d="M353.1,622.7l3.2,28.1l-3.3,0.4l-17.8-20.3l-0.3,0l2.5,22.1l-3.4,0.4l-3.2-28.1l3.3-0.4l17.9,20.3l0.3,0
			l-2.5-22.1L353.1,622.7z"/>
		<path class="st3" d="M363.1,650l-3.2-28.1l17-2l0.3,3l-13.6,1.6l1.1,9.5l12.7-1.5l0.3,3l-12.7,1.5l1.1,9.5L380,645l0.3,3
			L363.1,650z"/>
		<path class="st3" d="M391.3,646.8l-10.9-27.2l3.5-0.4l8.5,22.2l0.3,0l3.3-23.6l3.8-0.4l8.6,22.2l0.3,0l3.2-23.6l3.5-0.4l-4.4,29
			l-3.5,0.4l-8.8-21.7l-0.2,0l-3.6,23.1L391.3,646.8z"/>
		<path class="st3" d="M418.5,618.3l-0.3-3l21.1-2.4l0.3,3l-8.8,1l2.9,25.1l-3.4,0.4l-2.9-25.1L418.5,618.3z"/>
		<path class="st3" d="M468.6,623.7c0.3,3,0.1,5.6-0.7,7.9c-0.8,2.3-2.1,4.1-3.8,5.5c-1.7,1.4-3.8,2.2-6.2,2.5s-4.6-0.1-6.6-1
			c-2-1-3.7-2.5-5-4.5c-1.3-2-2.1-4.5-2.5-7.5c-0.3-3-0.1-5.6,0.7-7.9c0.8-2.3,2.1-4.1,3.8-5.5c1.7-1.4,3.8-2.2,6.2-2.5
			c2.4-0.3,4.6,0.1,6.6,1c2,1,3.7,2.5,5,4.5C467.5,618.2,468.3,620.7,468.6,623.7z M465.3,624c-0.3-2.4-0.9-4.4-1.9-6
			c-1-1.6-2.2-2.7-3.7-3.4c-1.5-0.7-3.1-1-4.8-0.8c-1.7,0.2-3.2,0.8-4.5,1.8c-1.3,1-2.2,2.4-2.8,4.2c-0.6,1.8-0.8,3.9-0.5,6.3
			c0.3,2.4,0.9,4.4,1.9,6c1,1.6,2.2,2.7,3.7,3.4c1.5,0.7,3.1,1,4.8,0.8c1.7-0.2,3.2-0.8,4.5-1.8c1.3-1,2.2-2.4,2.8-4.2
			C465.5,628.6,465.6,626.5,465.3,624z"/>
		<path class="st3" d="M495,606.4l3.2,28.1l-3.3,0.4l-17.8-20.3l-0.3,0l2.5,22.1l-3.4,0.4l-3.2-28.1l3.3-0.4l17.9,20.3l0.3,0
			l-2.5-22.1L495,606.4z"/>
		<path class="st3" d="M509,629.4l0,1.5c0,1.1-0.1,2.2-0.3,3.4c-0.2,1.2-0.4,2.4-0.6,3.5c-0.2,1.1-0.4,2-0.5,2.6l-2.5,0.3
			c0.1-0.6,0.1-1.4,0.2-2.4c0.1-1,0.2-2.1,0.2-3.3c0.1-1.2,0.1-2.4,0.1-3.7l0-1.6L509,629.4z"/>
		<path class="st3" d="M526.7,631.2l-3.2-28.1l17-2l0.3,3l-13.6,1.6l1.1,9.5l12.7-1.5l0.3,3l-12.7,1.5l1.1,9.5l13.8-1.6l0.3,3
			L526.7,631.2z"/>
		<path class="st3" d="M553.8,624.2l0,1.5c0,1.1-0.1,2.2-0.3,3.4c-0.2,1.2-0.4,2.4-0.6,3.5c-0.2,1.1-0.4,2-0.5,2.6l-2.5,0.3
			c0.1-0.6,0.1-1.4,0.2-2.4c0.1-1,0.2-2.1,0.2-3.3c0.1-1.2,0.1-2.4,0.1-3.7l0-1.6L553.8,624.2z"/>
		<path class="st3" d="M571,626.1l-0.3-2.5l8.1-11.2c1-1.3,1.7-2.5,2.3-3.4c0.6-1,1-1.9,1.3-2.7c0.3-0.8,0.3-1.7,0.2-2.5
			c-0.1-1-0.4-1.8-1-2.5c-0.6-0.7-1.3-1.2-2.1-1.5c-0.9-0.3-1.8-0.4-2.8-0.3c-1.1,0.1-2,0.5-2.7,1c-0.7,0.5-1.3,1.2-1.6,2.1
			c-0.3,0.8-0.5,1.8-0.3,2.9l-3.2,0.4c-0.2-1.6,0-3.1,0.6-4.5c0.6-1.3,1.5-2.4,2.8-3.3c1.2-0.8,2.7-1.4,4.3-1.6
			c1.6-0.2,3.1,0,4.5,0.5c1.3,0.5,2.5,1.4,3.3,2.5c0.9,1.1,1.4,2.4,1.5,3.8c0.1,1,0,2.1-0.2,3.1c-0.3,1-0.8,2.2-1.5,3.5
			c-0.8,1.3-1.9,2.9-3.3,4.8l-5.5,7.5l0,0.2l13.1-1.5l0.3,3L571,626.1z"/>
		<path class="st3" d="M601,594.2l3.2,28.1l-3.4,0.4l-2.8-24.5l-0.2,0l-6.3,5.3l-0.4-3.5l6.5-5.5L601,594.2z"/>
		<path class="st3" d="M613.1,621.5c-0.7,0.1-1.3-0.1-1.8-0.5c-0.5-0.4-0.8-1-0.9-1.7c-0.1-0.7,0.1-1.3,0.5-1.8
			c0.4-0.5,1-0.9,1.7-0.9c0.7-0.1,1.3,0.1,1.8,0.5c0.5,0.4,0.8,1,0.9,1.7c0.1,0.4,0,0.9-0.2,1.3c-0.2,0.4-0.4,0.7-0.8,1
			C613.9,621.3,613.5,621.4,613.1,621.5z"/>
		<path class="st3" d="M629.5,619.8c-2.1,0.2-3.9-0.1-5.5-1.1c-1.6-1-2.9-2.5-3.9-4.5c-1-2.1-1.7-4.6-2-7.7c-0.3-3-0.3-5.7,0.3-7.9
			c0.5-2.2,1.5-4,2.8-5.3c1.3-1.3,3-2.1,5.1-2.3c2-0.2,3.9,0.1,5.5,1.1c1.6,1,2.9,2.5,3.9,4.6c1,2.1,1.7,4.6,2.1,7.7
			c0.4,3.1,0.3,5.7-0.3,7.9c-0.5,2.2-1.4,4-2.8,5.3S631.6,619.5,629.5,619.8z M629.2,616.8c2-0.2,3.5-1.4,4.4-3.5
			c0.9-2.1,1.1-5,0.7-8.6c-0.3-2.4-0.8-4.5-1.5-6.1s-1.6-2.9-2.7-3.7s-2.3-1.1-3.6-0.9c-2,0.2-3.5,1.4-4.4,3.5
			c-0.9,2.1-1.2,5-0.7,8.7c0.3,2.4,0.8,4.5,1.5,6.1c0.7,1.6,1.6,2.9,2.7,3.6C626.6,616.6,627.8,616.9,629.2,616.8z"/>
		<path class="st3" d="M651.1,588.4l3.2,28.1l-3.4,0.4l-2.8-24.5l-0.2,0l-6.3,5.3l-0.4-3.5l6.5-5.5L651.1,588.4z"/>
		<path class="st3" d="M663.2,615.7c-0.7,0.1-1.3-0.1-1.8-0.5c-0.5-0.4-0.8-1-0.9-1.7c-0.1-0.7,0.1-1.3,0.5-1.8
			c0.4-0.5,1-0.9,1.7-0.9c0.7-0.1,1.3,0.1,1.8,0.5c0.5,0.4,0.8,1,0.9,1.7c0.1,0.4,0,0.9-0.2,1.3c-0.2,0.4-0.4,0.7-0.8,1
			S663.6,615.7,663.2,615.7z"/>
		<path class="st3" d="M671.4,614.6l-0.3-2.5l8.1-11.2c1-1.3,1.7-2.5,2.3-3.4s1-1.9,1.3-2.7c0.3-0.8,0.3-1.7,0.2-2.5
			c-0.1-1-0.4-1.8-1-2.5c-0.6-0.7-1.3-1.2-2.1-1.5c-0.9-0.3-1.8-0.4-2.8-0.3c-1.1,0.1-2,0.5-2.7,1c-0.8,0.5-1.3,1.2-1.6,2.1
			s-0.5,1.8-0.3,2.9l-3.2,0.4c-0.2-1.6,0-3.1,0.6-4.5s1.5-2.4,2.8-3.3c1.2-0.8,2.7-1.4,4.3-1.6c1.6-0.2,3.1,0,4.5,0.5
			c1.4,0.5,2.5,1.4,3.3,2.5c0.9,1.1,1.4,2.4,1.5,3.8c0.1,1,0,2.1-0.2,3.1c-0.3,1-0.8,2.2-1.5,3.5c-0.8,1.3-1.9,2.9-3.3,4.8l-5.5,7.5
			l0,0.2l13.1-1.5l0.3,3L671.4,614.6z"/>
		<path class="st3" d="M704,611.2c-2.1,0.2-3.9-0.1-5.5-1.1c-1.6-1-2.9-2.5-3.9-4.5s-1.7-4.6-2.1-7.7c-0.3-3-0.3-5.7,0.3-7.9
			c0.5-2.2,1.5-4,2.8-5.3c1.3-1.3,3-2.1,5.1-2.3c2-0.2,3.9,0.1,5.5,1.1c1.6,1,2.9,2.5,3.9,4.6c1,2.1,1.7,4.6,2.1,7.7
			c0.4,3.1,0.3,5.7-0.3,7.9c-0.5,2.2-1.4,4-2.8,5.3C707.7,610.2,706,611,704,611.2z M703.6,608.2c2-0.2,3.5-1.4,4.4-3.5
			s1.1-5,0.7-8.6c-0.3-2.4-0.8-4.5-1.5-6.1c-0.7-1.7-1.6-2.9-2.7-3.7c-1.1-0.8-2.3-1.1-3.6-0.9c-2,0.2-3.5,1.4-4.4,3.5
			c-0.9,2.1-1.2,5-0.7,8.7c0.3,2.4,0.8,4.5,1.5,6.1c0.7,1.6,1.6,2.9,2.7,3.6C701,608,702.3,608.3,703.6,608.2z"/>
		<path class="st3" d="M718.9,609.1l-0.3-2.5l8.1-11.2c1-1.3,1.7-2.5,2.3-3.4c0.6-1,1-1.9,1.3-2.7c0.3-0.8,0.3-1.7,0.2-2.5
			c-0.1-1-0.4-1.8-1-2.5c-0.6-0.7-1.3-1.2-2.1-1.5c-0.9-0.3-1.8-0.4-2.8-0.3c-1.1,0.1-2,0.5-2.7,1c-0.8,0.5-1.3,1.2-1.6,2.1
			c-0.3,0.8-0.5,1.8-0.3,2.9l-3.2,0.4c-0.2-1.6,0-3.1,0.6-4.5s1.5-2.4,2.8-3.3c1.2-0.8,2.7-1.4,4.3-1.6c1.6-0.2,3.1,0,4.5,0.5
			c1.4,0.5,2.5,1.4,3.3,2.5c0.9,1.1,1.4,2.4,1.5,3.8c0.1,1,0,2.1-0.2,3.1c-0.3,1-0.8,2.2-1.5,3.5c-0.8,1.3-1.9,2.9-3.3,4.8l-5.5,7.5
			l0,0.2l13.1-1.5l0.3,3L718.9,609.1z"/>
		<path class="st3" d="M748.9,577.2l3.2,28.1l-3.4,0.4l-2.8-24.5l-0.2,0l-6.3,5.3L739,583l6.5-5.5L748.9,577.2z"/>
		<path class="st3" d="M763,600.1l0,1.5c0,1.1-0.1,2.2-0.3,3.4s-0.4,2.4-0.6,3.5c-0.2,1.1-0.4,2-0.5,2.6l-2.5,0.3
			c0.1-0.6,0.1-1.4,0.2-2.4c0.1-1,0.2-2.1,0.2-3.3c0.1-1.2,0.1-2.4,0.1-3.7l0-1.6L763,600.1z"/>
		<path class="st3" d="M781.2,609.9l-3.3-29l3.1-0.4l0.4,3.3l0.4,0c0.2-0.4,0.5-0.9,0.8-1.5c0.4-0.6,0.9-1.2,1.7-1.7
			s1.8-0.9,3.2-1.1c1.8-0.2,3.4,0.1,4.8,0.8s2.7,1.9,3.6,3.4c0.9,1.5,1.5,3.4,1.8,5.6c0.3,2.2,0.1,4.2-0.5,5.9
			c-0.6,1.7-1.5,3.1-2.7,4.1c-1.2,1-2.7,1.7-4.5,1.9c-1.4,0.2-2.5,0.1-3.3-0.3c-0.9-0.4-1.6-0.8-2.1-1.3c-0.5-0.5-0.9-1-1.2-1.3
			l-0.3,0l1.3,11.1L781.2,609.9z M782.3,591.1c0.2,1.6,0.6,3,1.2,4.1c0.6,1.2,1.4,2,2.4,2.6s2.1,0.8,3.4,0.6
			c1.4-0.2,2.4-0.6,3.3-1.5c0.8-0.8,1.4-1.9,1.7-3.1c0.3-1.3,0.4-2.7,0.2-4.2c-0.2-1.5-0.6-2.8-1.1-3.9s-1.4-2-2.4-2.6
			c-1-0.6-2.2-0.8-3.5-0.7c-1.3,0.2-2.4,0.6-3.2,1.4c-0.8,0.8-1.4,1.8-1.7,3C782.2,588.2,782.1,589.6,782.3,591.1z"/>
		<path class="st3" d="M806.2,599.3c-0.7,0.1-1.3-0.1-1.8-0.5c-0.5-0.4-0.8-1-0.9-1.7c-0.1-0.7,0.1-1.3,0.5-1.8
			c0.4-0.5,1-0.8,1.7-0.9c0.7-0.1,1.3,0.1,1.8,0.5c0.5,0.4,0.8,1,0.9,1.7c0.1,0.4,0,0.9-0.2,1.3c-0.2,0.4-0.4,0.7-0.8,1
			S806.7,599.2,806.2,599.3z"/>
		<path class="st3" d="M822.8,597.5c-1.2,0.1-2.3,0-3.5-0.3c-1.2-0.3-2.3-0.9-3.4-1.8c-1.1-0.9-2-2.2-2.8-3.8
			c-0.8-1.6-1.3-3.8-1.6-6.4c-0.3-2.5-0.3-4.7-0.1-6.7c0.2-2,0.7-3.7,1.5-5.1c0.7-1.4,1.7-2.5,2.9-3.4c1.2-0.8,2.6-1.3,4.1-1.5
			c1.6-0.2,3,0,4.3,0.5c1.3,0.5,2.4,1.2,3.3,2.3c0.9,1,1.6,2.3,2,3.7l-3.3,0.4c-0.5-1.2-1.2-2.2-2.2-2.9c-1-0.7-2.2-1-3.7-0.8
			c-2.2,0.2-3.8,1.4-4.8,3.4c-1,2-1.4,4.8-1,8.2l0.2,0c0.4-0.8,1-1.6,1.6-2.2c0.6-0.6,1.4-1.2,2.2-1.6c0.8-0.4,1.7-0.7,2.7-0.8
			c1.6-0.2,3.1,0,4.6,0.7c1.4,0.6,2.6,1.6,3.6,2.9c1,1.3,1.6,2.9,1.8,4.7c0.2,1.7,0,3.4-0.6,4.9c-0.6,1.5-1.6,2.8-2.9,3.8
			C826.3,596.7,824.7,597.3,822.8,597.5z M822.5,594.5c1.2-0.1,2.2-0.5,3-1.2c0.9-0.7,1.5-1.5,1.9-2.6c0.4-1,0.6-2.1,0.4-3.3
			c-0.1-1.2-0.5-2.2-1.1-3.1c-0.6-0.9-1.4-1.6-2.4-2c-1-0.5-2-0.6-3.2-0.5c-0.9,0.1-1.7,0.4-2.4,0.8c-0.7,0.4-1.3,1-1.8,1.6
			s-0.9,1.4-1.1,2.2c-0.2,0.8-0.3,1.6-0.2,2.5c0.1,1.1,0.5,2.1,1.1,3c0.6,0.9,1.4,1.6,2.4,2.1C820.2,594.5,821.3,594.6,822.5,594.5z
			"/>
		<path class="st3" d="M837.5,595.5l-0.3-2.5l8.1-11.2c1-1.3,1.7-2.5,2.3-3.4c0.6-1,1-1.9,1.3-2.7c0.3-0.8,0.3-1.7,0.2-2.5
			c-0.1-1-0.4-1.8-1-2.5c-0.6-0.7-1.3-1.2-2.1-1.5c-0.9-0.3-1.8-0.4-2.8-0.3c-1.1,0.1-2,0.5-2.7,1c-0.8,0.5-1.3,1.2-1.6,2.1
			c-0.3,0.8-0.5,1.8-0.3,2.9l-3.2,0.4c-0.2-1.6,0-3.1,0.6-4.5s1.5-2.4,2.8-3.3c1.2-0.8,2.7-1.4,4.3-1.6c1.6-0.2,3.1,0,4.5,0.5
			c1.4,0.5,2.5,1.4,3.3,2.5c0.9,1.1,1.4,2.4,1.5,3.8c0.1,1,0,2.1-0.2,3.1c-0.3,1-0.8,2.2-1.5,3.5c-0.8,1.3-1.9,2.9-3.3,4.8l-5.5,7.5
			l0,0.2l13.1-1.5l0.3,3L837.5,595.5z"/>
		<path class="st3" d="M877.4,578.9c0.4,3.5,0.3,6.7-0.3,9.7s-1.5,5.8-2.9,8.5l-2.9,0.3c0.6-1,1-2.2,1.5-3.6c0.4-1.4,0.8-2.9,1-4.5
			s0.4-3.3,0.4-5c0-1.7,0-3.4-0.2-5c-0.2-2.2-0.7-4.4-1.4-6.6c-0.7-2.2-1.5-4.2-2.4-6c-0.9-1.8-1.9-3.3-2.9-4.4l2.9-0.3
			c2,2.2,3.5,4.8,4.8,7.6C876.1,572.3,877,575.4,877.4,578.9z"/>
	</g>
</g>
</svg>
