<?xml version="1.0" encoding="utf-8"?>
<!-- Generator: Adobe Illustrator 25.2.1, SVG Export Plug-In . SVG Version: 6.00 Build 0)  -->
<svg version="1.1" xmlns="http://www.w3.org/2000/svg" xmlns:xlink="http://www.w3.org/1999/xlink" x="0px" y="0px"
	 viewBox="0 0 1080 1080" style="enable-background:new 0 0 1080 1080;" xml:space="preserve">
<style type="text/css">
	.st0{fill:#6900FF;}
	.st1{fill:#8761FF;}
	.st2{fill:#BBB8FF;}
	.st3{fill:#260063;}
	.st4{fill:#4700B7;}
	.st5{fill:none;stroke:#BBB8FF;stroke-width:15;stroke-linecap:round;stroke-miterlimit:10;}
	.st6{fill:none;stroke:#6900FF;stroke-width:10;stroke-linecap:round;stroke-miterlimit:10;}
	.st7{fill:none;stroke:#8761FF;stroke-width:10;stroke-linecap:round;stroke-miterlimit:10;}
	.st8{fill:#BBB8FF;stroke:#4700B7;stroke-width:40;stroke-miterlimit:10;}
	.st9{fill:none;stroke:#8761FF;stroke-width:20;stroke-linecap:round;stroke-miterlimit:10;}
	.st10{fill:none;stroke:#6900FF;stroke-width:20;stroke-linecap:round;stroke-miterlimit:10;}
	.st11{fill:none;stroke:#BBB8FF;stroke-width:40;stroke-linecap:round;stroke-miterlimit:10;}
	.st12{fill:#FFFFFF;}
	.st13{fill:none;stroke:#6900FF;stroke-width:40;stroke-linecap:round;stroke-linejoin:round;stroke-miterlimit:10;}
	.st14{fill:none;stroke:#6900FF;stroke-width:20;stroke-miterlimit:10;}
	.st15{fill:#808080;}
	.st16{fill:none;stroke:#8761FF;stroke-width:10;stroke-linecap:round;stroke-linejoin:round;stroke-miterlimit:10;}
	.st17{fill:none;stroke:#BBB8FF;stroke-width:10;stroke-linecap:round;stroke-linejoin:round;stroke-miterlimit:10;}
	.st18{fill:none;stroke:#4700B7;stroke-width:10;stroke-linecap:round;stroke-linejoin:round;stroke-miterlimit:10;}
	.st19{fill:none;stroke:#260063;stroke-width:10;stroke-linecap:round;stroke-miterlimit:10;}
</style>
<g id="COULEURS">
</g>
<g id="Jauge__x2B_accueil">
</g>
<g id="images">
</g>
<g id="TEXTE">
</g>
<g id="jauge">
</g>
<g id="picto_accueil">
</g>
<g id="FOND">
</g>
<g id="PICTOS">
</g>
<g id="bulles_Source__x2B_dico">
</g>
<g id="règles">
</g>
<g id="LOGO">
	<path class="st3" d="M887.5,772.6H228.9c-42.3,0-76.7-34.3-76.7-76.7v-397c0-42.3,34.3-76.7,76.7-76.7h658.6
		c42.3,0,76.7,34.3,76.7,76.7v397C964.2,738.3,929.9,772.6,887.5,772.6z"/>
	<path class="st2" d="M857.8,731.1H258.6c-34,0-61.6-27.6-61.6-61.6V325.4c0-34,27.6-61.6,61.6-61.6h599.2c34,0,61.6,27.6,61.6,61.6
		v344.1C919.4,703.5,891.8,731.1,857.8,731.1z"/>
	<path class="st3" d="M505.7,772.6v62.7c0,3.3-1.5,6.5-4.1,8.6l-51.3,32.2c-8,6.6-3.4,19.6,7,19.7l184.5,1
		c10.4,0.1,15.2-13,7.1-19.7l-53.6-34.4c-2.6-2.1-4-5.3-4-8.6v-61.6H505.7z"/>
	<g>
		<path class="st3" d="M767.5,321.3l63.1,44.5c2.6,1.9,4.2,4.9,4.2,8.2v265.4c0,3.6-1.9,6.9-4.9,8.6l-63.1,37.1
			c-6.6,3.9-14.8-1-14.8-8.6v-347C752.1,321.4,761,316.7,767.5,321.3z"/>
		<path class="st4" d="M539.8,397L752,315.5c6.3-2.4,13.1,2.2,13.1,9v352.2c0,5.9-5.3,10.5-11.2,9.5l-212.2-33.5
			c-4.7-0.7-8.2-0.8-8.2-5c0-16.6,0-232.8,0-232.8C533.6,402,536.1,398.5,539.8,397z"/>
		<path class="st2" d="M547.1,411.2v41.4c0,5.3,5.1,9.2,10.2,7.8l184.4-51.7c3.5-1,5.9-4.1,5.9-7.8v-59.1c0-5.6-5.6-9.5-10.9-7.5
			l-184.4,69.4C549.1,404.8,547.1,407.8,547.1,411.2z"/>
		<path class="st2" d="M547.1,487v29.4c0,4.9,4.3,8.6,9.1,8l184.4-24.1c4-0.5,7-3.9,7-8v-52.2c0-5.3-4.9-9.1-10-7.8l-184.4,46.9
			C549.6,480.1,547.1,483.3,547.1,487z"/>
		<path class="st2" d="M554.4,539.6l184.4-15.2c4.7-0.4,8.7,3.3,8.7,8v42.3c0,4.5-3.7,8.2-8.2,8l-184.4-4.4c-4.4-0.1-7.9-3.7-7.9-8
			v-22.6C547.1,543.5,550.3,540,554.4,539.6z"/>
		<path class="st2" d="M555.5,596.9l184.4,9.5c4.3,0.2,7.6,3.8,7.6,8v46.5c0,4.9-4.3,8.7-9.2,8L554,642.3c-4-0.6-6.9-4-6.9-8v-29.3
			C547.1,600.3,550.9,596.7,555.5,596.9z"/>
		<path class="st4" d="M557.8,577.1L557.8,577.1c-4.7,0-8.5-3.3-8.5-7.5v-17.1c0-4.1,3.8-7.5,8.5-7.5l0,0c4.7,0,8.5,3.3,8.5,7.5
			v17.1C566.3,573.8,562.5,577.1,557.8,577.1z"/>
		<path class="st3" d="M574,577.5L574,577.5c-4.7,0-8.5-3.8-8.5-8.5v-21.1c0-4.7,3.8-8.5,8.5-8.5l0,0c4.7,0,8.5,3.8,8.5,8.5V569
			C582.6,573.7,578.8,577.5,574,577.5z"/>
		<path class="st1" d="M590.3,577.9L590.3,577.9c-4.7,0-8.5-2.3-8.5-5.2v-13.9c0-2.9,3.8-5.2,8.5-5.2h0c4.7,0,8.5,2.3,8.5,5.2v13.9
			C598.9,575.6,595,577.9,590.3,577.9z"/>
		<path class="st4" d="M606.6,578.3L606.6,578.3c-4.7,0-8.5-3.8-8.5-8.5v-24.5c0-4.7,3.8-8.5,8.5-8.5l0,0c4.7,0,8.5,3.8,8.5,8.5
			v24.5C615.1,574.5,611.3,578.3,606.6,578.3z"/>
		<path class="st4" d="M639.2,579.1L639.2,579.1c-4.7,0-8.5-3.1-8.5-7v-22.7c0-3.9,3.8-7,8.5-7l0,0c4.7,0,8.5,3.1,8.5,7v22.7
			C647.7,576,643.9,579.1,639.2,579.1z"/>
		<path class="st1" d="M655.5,579.5L655.5,579.5c-4.7,0-8.5-3.8-8.5-8.5v-29.5c0-4.7,3.8-8.5,8.5-8.5h0c4.7,0,8.5,3.8,8.5,8.5V571
			C664,575.7,660.2,579.5,655.5,579.5z"/>
		<path class="st3" d="M671.8,579.9L671.8,579.9c-4.7,0-8.5-3.3-8.5-7.4v-27c0-4.1,3.8-7.4,8.5-7.4l0,0c4.7,0,8.5,3.3,8.5,7.4v27
			C680.3,576.6,676.5,579.9,671.8,579.9z"/>
		<path class="st4" d="M688.1,580.2L688.1,580.2c-4.7,0-8.5-3.6-8.5-8.1V541c0-4.5,3.8-8.1,8.5-8.1l0,0c4.7,0,8.5,3.6,8.5,8.1v31.1
			C696.6,576.6,692.8,580.2,688.1,580.2z"/>
		<path class="st1" d="M704.3,580.6L704.3,580.6c-4.7,0-8.5-3.5-8.5-7.9v-31.9c0-4.4,3.8-7.9,8.5-7.9l0,0c4.7,0,8.5,3.5,8.5,7.9
			v31.9C712.9,577.1,709.1,580.6,704.3,580.6z"/>
		<path class="st0" d="M720.6,581L720.6,581c-4.7,0-8.5-2.3-8.5-5v-21.3c0-2.8,3.8-5,8.5-5l0,0c4.7,0,8.5,2.3,8.5,5V576
			C729.2,578.8,725.3,581,720.6,581z"/>
		<path class="st1" d="M575.7,454.4L575.7,454.4c-4.7,0-8.5-3.8-8.5-8.5V408c0-4.7,3.8-8.5,8.5-8.5l0,0c4.7,0,8.5,3.8,8.5,8.5v37.9
			C584.3,450.6,580.5,454.4,575.7,454.4z"/>
		<path class="st1" d="M557.8,641.9L557.8,641.9c-4.7,0-8.5-3.6-8.5-8v-27.2c0-4.4,3.8-8,8.5-8l0,0c4.7,0,8.5,3.6,8.5,8v27.2
			C566.3,638.3,562.5,641.9,557.8,641.9z"/>
		<path class="st3" d="M590.3,646.7L590.3,646.7c-4.7,0-8.5-3.8-8.5-8.6v-29.2c0-4.7,3.8-8.6,8.5-8.6h0c4.7,0,8.5,3.8,8.5,8.6v29.2
			C598.9,642.9,595,646.7,590.3,646.7z"/>
		<path class="st4" d="M606.6,649.1L606.6,649.1c-4.7,0-8.5-4-8.5-8.9V610c0-4.9,3.8-8.9,8.5-8.9l0,0c4.7,0,8.5,4,8.5,8.9v30.2
			C615.1,645.1,611.3,649.1,606.6,649.1z"/>
		<path class="st1" d="M622.9,651.5L622.9,651.5c-4.7,0-8.5-4.1-8.5-9.2v-31.2c0-5.1,3.8-9.2,8.5-9.2h0c4.7,0,8.5,4.1,8.5,9.2v31.2
			C631.4,647.4,627.6,651.5,622.9,651.5z"/>
		<path class="st4" d="M655.5,656.3L655.5,656.3c-4.7,0-8.5-4.4-8.5-9.8v-33.2c0-5.4,3.8-9.8,8.5-9.8h0c4.7,0,8.5,4.4,8.5,9.8v33.2
			C664,651.9,660.2,656.3,655.5,656.3z"/>
		<path class="st0" d="M671.8,658.7L671.8,658.7c-4.7,0-8.5-4.5-8.5-10.1v-34.2c0-5.6,3.8-10.1,8.5-10.1l0,0c4.7,0,8.5,4.5,8.5,10.1
			v34.2C680.3,654.2,676.5,658.7,671.8,658.7z"/>
		<path class="st4" d="M688.1,661.1L688.1,661.1c-4.7,0-8.5-4.6-8.5-10.4v-35.2c0-5.7,3.8-10.4,8.5-10.4l0,0c4.7,0,8.5,4.6,8.5,10.4
			v35.2C696.6,656.4,692.8,661.1,688.1,661.1z"/>
		<path class="st3" d="M704.3,663.5L704.3,663.5c-4.7,0-8.5-4.8-8.5-10.6v-36.1c0-5.9,3.8-10.6,8.5-10.6l0,0c4.7,0,8.5,4.8,8.5,10.6
			v36.1C712.9,658.7,709.1,663.5,704.3,663.5z"/>
		<path class="st4" d="M720.6,665.9L720.6,665.9c-4.7,0-8.5-4.9-8.5-10.9v-37.1c0-6,3.8-10.9,8.5-10.9l0,0c4.7,0,8.5,4.9,8.5,10.9
			v37.1C729.2,661,725.3,665.9,720.6,665.9z"/>
		<path class="st0" d="M736.9,668.2L736.9,668.2c-4.7,0-8.5-5-8.5-11.2v-38.1c0-6.2,3.8-11.2,8.5-11.2h0c4.7,0,8.5,5,8.5,11.2V657
			C745.4,663.2,741.6,668.2,736.9,668.2z"/>
		<path class="st3" d="M591.3,450L591.3,450c-4.7,0-8.5-3.8-8.5-8.5v-39.3c0-4.7,3.8-8.5,8.5-8.5l0,0c4.7,0,8.5,3.8,8.5,8.5v39.3
			C599.8,446.2,596,450,591.3,450z"/>
		<path class="st1" d="M622.5,441.3L622.5,441.3c-4.7,0-8.5-3.8-8.5-8.5v-42.1c0-4.7,3.8-8.5,8.5-8.5l0,0c4.7,0,8.5,3.8,8.5,8.5
			v42.1C631,437.4,627.2,441.3,622.5,441.3z"/>
		<path class="st0" d="M638.1,436.9L638.1,436.9c-4.7,0-8.5-3.8-8.5-8.5v-43.5c0-4.7,3.8-8.5,8.5-8.5l0,0c4.7,0,8.5,3.8,8.5,8.5
			v43.5C646.6,433.1,642.8,436.9,638.1,436.9z"/>
		<path class="st0" d="M669.2,428.1L669.2,428.1c-4.7,0-8.5-3.8-8.5-8.5v-46.3c0-4.7,3.8-8.5,8.5-8.5l0,0c4.7,0,8.5,3.8,8.5,8.5
			v46.3C677.7,424.3,673.9,428.1,669.2,428.1z"/>
		<path class="st4" d="M684.8,423.7L684.8,423.7c-4.7,0-8.5-3.8-8.5-8.5v-47.7c0-4.7,3.8-8.5,8.5-8.5l0,0c4.7,0,8.5,3.8,8.5,8.5
			v47.7C693.3,419.9,689.5,423.7,684.8,423.7z"/>
		<path class="st3" d="M700.4,419.3L700.4,419.3c-4.7,0-8.5-3.8-8.5-8.5v-49.1c0-4.7,3.8-8.5,8.5-8.5l0,0c4.7,0,8.5,3.8,8.5,8.5
			v49.1C708.9,415.5,705.1,419.3,700.4,419.3z"/>
		<path class="st1" d="M715.9,414.9L715.9,414.9c-4.7,0-8.5-3.8-8.5-8.5v-50.5c0-4.7,3.8-8.5,8.5-8.5l0,0c4.7,0,8.5,3.8,8.5,8.5
			v50.5C724.5,411.1,720.7,414.9,715.9,414.9z"/>
		<path class="st0" d="M731.5,410.6L731.5,410.6c-4.7,0-8.5-3.8-8.5-8.5v-51.9c0-4.7,3.8-8.5,8.5-8.5l0,0c4.7,0,8.5,3.8,8.5,8.5V402
			C740,406.7,736.2,410.6,731.5,410.6z"/>
		<path class="st0" d="M560.2,520.9L560.2,520.9c-4.7,0-8.5-1.9-8.5-4.2v-17.8c0-2.3,3.8-4.2,8.5-4.2h0c4.7,0,8.5,1.9,8.5,4.2v17.8
			C568.7,519.1,564.9,520.9,560.2,520.9z"/>
		<path class="st1" d="M575.7,518.8L575.7,518.8c-4.7,0-8.5-3-8.5-6.7v-29.6c0-3.7,3.8-6.7,8.5-6.7l0,0c4.7,0,8.5,3,8.5,6.7v29.6
			C584.3,515.8,580.5,518.8,575.7,518.8z"/>
		<path class="st3" d="M591.3,516.6L591.3,516.6c-4.7,0-8.5-1.9-8.5-4.2v-19.2c0-2.3,3.8-4.2,8.5-4.2l0,0c4.7,0,8.5,1.9,8.5,4.2
			v19.2C599.8,514.8,596,516.6,591.3,516.6z"/>
		<path class="st1" d="M622.5,512.4L622.5,512.4c-4.7,0-8.5-2.6-8.5-5.8V478c0-3.2,3.8-5.8,8.5-5.8l0,0c4.7,0,8.5,2.6,8.5,5.8v28.6
			C631,509.8,627.2,512.4,622.5,512.4z"/>
		<path class="st0" d="M638.1,510.2L638.1,510.2c-4.7,0-8.5-2.8-8.5-6.1v-31.4c0-3.4,3.8-6.1,8.5-6.1l0,0c4.7,0,8.5,2.8,8.5,6.1
			v31.4C646.6,507.5,642.8,510.2,638.1,510.2z"/>
		<path class="st0" d="M669.2,505.9L669.2,505.9c-4.7,0-8.5-2.8-8.5-6.3v-34.5c0-3.5,3.8-6.3,8.5-6.3l0,0c4.7,0,8.5,2.8,8.5,6.3
			v34.5C677.7,503.1,673.9,505.9,669.2,505.9z"/>
		<path class="st4" d="M684.8,503.8L684.8,503.8c-4.7,0-8.5-1.9-8.5-4.2v-23.3c0-2.3,3.8-4.2,8.5-4.2l0,0c4.7,0,8.5,1.9,8.5,4.2
			v23.3C693.3,501.9,689.5,503.8,684.8,503.8z"/>
		<path class="st3" d="M700.4,501.7L700.4,501.7c-4.7,0-8.5-3-8.5-6.7v-38.3c0-3.7,3.8-6.7,8.5-6.7l0,0c4.7,0,8.5,3,8.5,6.7V495
			C708.9,498.7,705.1,501.7,700.4,501.7z"/>
		<path class="st1" d="M715.9,499.5L715.9,499.5c-4.7,0-8.5-3-8.5-6.8v-40.3c0-3.8,3.8-6.8,8.5-6.8l0,0c4.7,0,8.5,3,8.5,6.8v40.3
			C724.5,496.5,720.7,499.5,715.9,499.5z"/>
		<path class="st0" d="M731.5,497.4L731.5,497.4c-4.7,0-8.5-2.6-8.5-5.9v-35.6c0-3.2,3.8-5.9,8.5-5.9l0,0c4.7,0,8.5,2.6,8.5,5.9
			v35.6C740,494.8,736.2,497.4,731.5,497.4z"/>
	</g>
	<g>
		<g>
			<circle class="st2" cx="476.7" cy="476.3" r="77.7"/>
			<path class="st4" d="M476.7,565.9c-49.4,0-89.6-40.2-89.6-89.6c0-49.4,40.2-89.6,89.6-89.6c49.4,0,89.6,40.2,89.6,89.6
				C566.3,525.7,526.1,565.9,476.7,565.9z M476.7,410.5c-36.3,0-65.8,29.5-65.8,65.8c0,36.3,29.5,65.8,65.8,65.8
				c36.3,0,65.8-29.5,65.8-65.8C542.5,440,513,410.5,476.7,410.5z"/>
		</g>
		<g>
			<path class="st4" d="M322.5,634.6l3.2,3.9c9,11.2,26.2,10.7,34.5-1.1l61.5-87.8c2.2-3.1,1.7-7.4-1.1-9.9c0,0-6-16.9-8.9-14.7
				l-85.4,79C316.6,611.3,315,625.1,322.5,634.6z"/>
		</g>
		<g>
			<path class="st1" d="M526.3,482.2c-3.3,0-5.9-2.7-5.9-5.9c0-24-19.6-43.6-43.6-43.6c-3.3,0-5.9-2.7-5.9-5.9
				c0-3.3,2.7-5.9,5.9-5.9c30.6,0,55.5,24.9,55.5,55.5C532.2,479.6,529.5,482.2,526.3,482.2z"/>
		</g>
		<g>
			<path class="st1" d="M477.8,530.7c-30.6,0-55.5-24.9-55.5-55.5c0-3.3,2.7-5.9,5.9-5.9c3.3,0,5.9,2.7,5.9,5.9
				c0,24,19.6,43.6,43.6,43.6c3.3,0,5.9,2.7,5.9,5.9S481.1,530.7,477.8,530.7z"/>
		</g>
	</g>
</g>
</svg>
