<?xml version="1.0" encoding="utf-8"?>
<!-- Generator: Adobe Illustrator 25.2.1, SVG Export Plug-In . SVG Version: 6.00 Build 0)  -->
<svg version="1.1" xmlns="http://www.w3.org/2000/svg" xmlns:xlink="http://www.w3.org/1999/xlink" x="0px" y="0px"
	 viewBox="0 0 1080 1080" style="enable-background:new 0 0 1080 1080;" xml:space="preserve">
<style type="text/css">
	.st0{fill:#6900FF;}
	.st1{fill:#8761FF;}
	.st2{fill:#BBB8FF;}
	.st3{fill:#260063;}
	.st4{fill:#4700B7;}
	.st5{fill:none;stroke:#BBB8FF;stroke-width:15;stroke-linecap:round;stroke-miterlimit:10;}
	.st6{fill:none;stroke:#6900FF;stroke-width:10;stroke-linecap:round;stroke-miterlimit:10;}
	.st7{fill:none;stroke:#8761FF;stroke-width:10;stroke-linecap:round;stroke-miterlimit:10;}
	.st8{fill:#BBB8FF;stroke:#4700B7;stroke-width:40;stroke-miterlimit:10;}
	.st9{fill:none;stroke:#8761FF;stroke-width:20;stroke-linecap:round;stroke-miterlimit:10;}
	.st10{fill:none;stroke:#6900FF;stroke-width:20;stroke-linecap:round;stroke-miterlimit:10;}
	.st11{fill:none;stroke:#BBB8FF;stroke-width:40;stroke-linecap:round;stroke-miterlimit:10;}
	.st12{fill:#FFFFFF;}
	.st13{fill:none;stroke:#6900FF;stroke-width:40;stroke-linecap:round;stroke-linejoin:round;stroke-miterlimit:10;}
	.st14{fill:none;stroke:#6900FF;stroke-width:20;stroke-miterlimit:10;}
	.st15{fill:#808080;}
	.st16{fill:none;stroke:#8761FF;stroke-width:10;stroke-linecap:round;stroke-linejoin:round;stroke-miterlimit:10;}
	.st17{fill:none;stroke:#BBB8FF;stroke-width:10;stroke-linecap:round;stroke-linejoin:round;stroke-miterlimit:10;}
	.st18{fill:none;stroke:#4700B7;stroke-width:10;stroke-linecap:round;stroke-linejoin:round;stroke-miterlimit:10;}
	.st19{fill:none;stroke:#260063;stroke-width:10;stroke-linecap:round;stroke-miterlimit:10;}
</style>
<g id="COULEURS">
</g>
<g id="Jauge__x2B_accueil">
</g>
<g id="images">
</g>
<g id="TEXTE">
</g>
<g id="jauge">
</g>
<g id="picto_accueil">
</g>
<g id="FOND">
</g>
<g id="PICTOS">
</g>
<g id="bulles_Source__x2B_dico">
</g>
<g id="règles">
</g>
<g id="LOGO">
	<path class="st2" d="M637.5,140.3c-126.5,64.2-147.3,22-191.4,0c-184.9-92.2-131.2,146.4-231,133.4
		c-152.8-20-61.9,131.9-95.7,165.8c-70.7,70.7,80.7,186,0,266.7c-95.2,95.2,50.9,182.7,95.7,165.8c136-51.3,160.8,68.9,231,133.4
		c68.8,63.1,163.2,90.7,191.4,0c28.3-91,135.8-129.4,231-133.4c171-7.2,135.2-77.1,95.7-165.8c-38.7-87.1,73.5-206.1,0-266.7
		c-102-84.2-97.4-118-95.7-165.8C876.6,42,722.5,97.2,637.5,140.3z"/>
	<g>
		<path class="st3" d="M829.1,172.5l50,19.3c2.1,0.8,3.7,2.6,4.2,4.8l45,178.5c0.6,2.4-0.1,4.9-1.8,6.6l-36.1,35.6
			c-3.8,3.7-10.1,1.9-11.4-3.3l-58.8-233.3C818.8,175.2,824,170.5,829.1,172.5z"/>
		<path class="st4" d="M688.9,262l128.9-90.7c3.8-2.7,9.2-0.7,10.4,3.8L887.8,412c1,4-1.8,7.9-5.9,8.3l-148.4,13.4
			c-3.3,0.3-5.6,0.8-6.3-2c-2.8-11.1-39.4-156.5-39.4-156.5C685.5,266.4,686.6,263.6,688.9,262z"/>
		<path class="st2" d="M696.1,270.3l7,27.8c0.9,3.6,5,5.3,8.2,3.5l115.3-66c2.2-1.2,3.3-3.8,2.6-6.2l-10-39.7
			c-1-3.8-5.4-5.4-8.6-3.2l-112.3,77.9C696.4,265.6,695.6,268,696.1,270.3z"/>
		<path class="st2" d="M709,321.2l5,19.7c0.8,3.3,4.3,5.1,7.5,3.8l119.9-47.4c2.6-1,4-3.8,3.4-6.6l-8.8-35.1
			c-0.9-3.5-4.9-5.3-8.1-3.5L711.7,315C709.5,316.2,708.3,318.8,709,321.2z"/>
		<path class="st2" d="M722.9,355.4l121.4-41.5c3.1-1.1,6.4,0.8,7.2,3.9l7.2,28.4c0.8,3-1.1,6.1-4.2,6.8l-124.8,28.3
			c-3,0.7-5.9-1.1-6.6-4.1l-3.8-15.2C718.5,359.2,720.1,356.3,722.9,355.4z"/>
		<path class="st2" d="M733.3,393.7l125.6-24.9c2.9-0.6,5.8,1.2,6.5,4.1l7.9,31.2c0.8,3.3-1.5,6.6-4.8,6.9l-128.5,13.3
			c-2.8,0.3-5.3-1.5-6-4.2l-5-19.7C728.2,397.5,730.1,394.4,733.3,393.7z"/>
		<path class="st4" d="M731.4,380.1L731.4,380.1c-3.2,0.8-6.3-0.8-7-3.6l-2.9-11.5c-0.7-2.8,1.3-5.7,4.5-6.5v0
			c3.2-0.8,6.3,0.8,7,3.6l2.9,11.5C736.6,376.4,734.6,379.3,731.4,380.1z"/>
		<path class="st3" d="M742.5,377.6L742.5,377.6c-3.2,0.8-6.4-1.1-7.2-4.3l-3.6-14.2c-0.8-3.2,1.1-6.4,4.3-7.2v0
			c3.2-0.8,6.4,1.1,7.2,4.3l3.6,14.2C747.5,373.6,745.6,376.8,742.5,377.6z"/>
		<path class="st1" d="M753.5,375.1L753.5,375.1c-3.2,0.8-6.1-0.1-6.6-2.1l-2.4-9.4c-0.5-1.9,1.7-4.1,4.8-4.9l0,0
			c3.2-0.8,6.1,0.1,6.6,2.1l2.4,9.4C758.8,372.1,756.6,374.3,753.5,375.1z"/>
		<path class="st4" d="M764.5,372.6L764.5,372.6c-3.2,0.8-6.4-1.1-7.2-4.3l-4.1-16.4c-0.8-3.2,1.1-6.4,4.3-7.2l0,0
			c3.2-0.8,6.4,1.1,7.2,4.3l4.1,16.4C769.6,368.6,767.7,371.8,764.5,372.6z"/>
		<path class="st4" d="M786.5,367.6L786.5,367.6c-3.2,0.8-6.3-0.7-6.9-3.2l-3.9-15.3c-0.7-2.6,1.4-5.3,4.5-6.1l0,0
			c3.2-0.8,6.3,0.7,6.9,3.2l3.9,15.3C791.7,364,789.7,366.8,786.5,367.6z"/>
		<path class="st1" d="M797.5,365.1L797.5,365.1c-3.2,0.8-6.4-1.1-7.2-4.3l-5-19.8c-0.8-3.2,1.1-6.4,4.3-7.2l0,0
			c3.2-0.8,6.4,1.1,7.2,4.3l5,19.8C802.6,361.1,800.7,364.3,797.5,365.1z"/>
		<path class="st3" d="M808.6,362.6L808.6,362.6c-3.2,0.8-6.3-0.8-7-3.5l-4.6-18.1c-0.7-2.7,1.3-5.6,4.5-6.4l0,0
			c3.2-0.8,6.3,0.8,7,3.5l4.6,18.1C813.7,358.9,811.7,361.8,808.6,362.6z"/>
		<path class="st4" d="M819.6,360.1L819.6,360.1c-3.2,0.8-6.3-1-7.1-4l-5.3-20.9c-0.8-3,1.2-6.1,4.4-6.9h0c3.2-0.8,6.3,1,7.1,4
			l5.3,20.9C824.7,356.2,822.7,359.3,819.6,360.1z"/>
		<path class="st1" d="M830.6,357.6L830.6,357.6c-3.2,0.8-6.3-0.9-7.1-3.9l-5.4-21.5c-0.7-2.9,1.2-5.9,4.4-6.7l0,0
			c3.2-0.8,6.3,0.9,7.1,3.9l5.4,21.5C835.7,353.8,833.8,356.8,830.6,357.6z"/>
		<path class="st0" d="M841.6,355.1L841.6,355.1c-3.2,0.8-6.1-0.1-6.6-1.9l-3.6-14.3c-0.5-1.9,1.7-4,4.9-4.8l0,0
			c3.2-0.8,6.1,0.1,6.6,1.9l3.6,14.3C847,352.1,844.8,354.3,841.6,355.1z"/>
		<path class="st1" d="M722.7,294.5L722.7,294.5c-3.2,0.8-6.4-1.1-7.2-4.3l-6.4-25.5c-0.8-3.2,1.1-6.4,4.3-7.2l0,0
			c3.2-0.8,6.4,1.1,7.2,4.3l6.4,25.5C727.8,290.5,725.9,293.7,722.7,294.5z"/>
		<path class="st1" d="M742.4,423.6L742.4,423.6c-3.2,0.8-6.3-1-7.1-3.9l-4.6-18.3c-0.7-3,1.2-6,4.4-6.8l0,0c3.2-0.8,6.3,1,7.1,3.9
			l4.6,18.3C747.5,419.8,745.6,422.8,742.4,423.6z"/>
		<path class="st3" d="M765.1,421.3L765.1,421.3c-3.2,0.8-6.4-1.1-7.2-4.3l-4.9-19.6c-0.8-3.2,1.1-6.4,4.3-7.2h0
			c3.2-0.8,6.4,1.1,7.2,4.3l4.9,19.6C770.2,417.3,768.3,420.5,765.1,421.3z"/>
		<path class="st4" d="M776.5,420.2L776.5,420.2c-3.2,0.8-6.4-1.2-7.2-4.5l-5.1-20.3c-0.8-3.3,1.1-6.6,4.2-7.4l0,0
			c3.2-0.8,6.4,1.2,7.2,4.5l5.1,20.3C781.5,416.1,779.6,419.4,776.5,420.2z"/>
		<path class="st1" d="M787.8,419L787.8,419c-3.2,0.8-6.4-1.3-7.3-4.7l-5.3-21c-0.9-3.4,1-6.8,4.2-7.6v0c3.2-0.8,6.4,1.3,7.3,4.7
			l5.3,21C792.9,414.8,791,418.2,787.8,419z"/>
		<path class="st4" d="M810.6,416.7L810.6,416.7c-3.2,0.8-6.5-1.5-7.4-5.1l-5.6-22.3c-0.9-3.6,0.9-7.2,4.1-8l0,0
			c3.2-0.8,6.5,1.5,7.4,5.1l5.6,22.3C815.5,412.3,813.7,415.9,810.6,416.7z"/>
		<path class="st0" d="M821.9,415.6L821.9,415.6c-3.2,0.8-6.5-1.6-7.4-5.3l-5.8-23c-0.9-3.7,0.9-7.4,4-8.2h0
			c3.2-0.8,6.5,1.6,7.4,5.3l5.8,23C826.9,411.1,825.1,414.8,821.9,415.6z"/>
		<path class="st4" d="M833.3,414.4L833.3,414.4c-3.2,0.8-6.5-1.7-7.5-5.5l-6-23.6c-1-3.8,0.8-7.6,4-8.4l0,0
			c3.2-0.8,6.5,1.7,7.5,5.5l6,23.6C838.2,409.9,836.4,413.6,833.3,414.4z"/>
		<path class="st3" d="M844.6,413.3L844.6,413.3c-3.2,0.8-6.5-1.8-7.5-5.7l-6.1-24.3c-1-4,0.8-7.8,3.9-8.6v0
			c3.2-0.8,6.5,1.8,7.5,5.7l6.1,24.3C849.5,408.6,847.8,412.5,844.6,413.3z"/>
		<path class="st4" d="M856,412.1L856,412.1c-3.2,0.8-6.6-1.9-7.6-5.9l-6.3-25c-1-4.1,0.7-8,3.9-8.8l0,0c3.2-0.8,6.6,1.9,7.6,5.9
			l6.3,25C860.9,407.4,859.2,411.3,856,412.1z"/>
		<path class="st0" d="M867.3,411L867.3,411c-3.2,0.8-6.6-1.9-7.6-6.1l-6.5-25.6c-1.1-4.2,0.7-8.2,3.8-9l0,0
			c3.2-0.8,6.6,1.9,7.6,6.1l6.5,25.6C872.2,406.1,870.5,410.2,867.3,411z"/>
		<path class="st3" d="M732.5,288.9L732.5,288.9c-3.2,0.8-6.4-1.1-7.2-4.3l-6.7-26.4c-0.8-3.2,1.1-6.4,4.3-7.2l0,0
			c3.2-0.8,6.4,1.1,7.2,4.3l6.7,26.4C737.6,284.9,735.6,288.1,732.5,288.9z"/>
		<path class="st1" d="M751.9,277.7L751.9,277.7c-3.2,0.8-6.4-1.1-7.2-4.3l-7.1-28.3c-0.8-3.2,1.1-6.4,4.3-7.2l0,0
			c3.2-0.8,6.4,1.1,7.2,4.3l7.1,28.3C757,273.7,755.1,276.9,751.9,277.7z"/>
		<path class="st0" d="M761.7,272.1L761.7,272.1c-3.2,0.8-6.4-1.1-7.2-4.3l-7.4-29.3c-0.8-3.2,1.1-6.4,4.3-7.2l0,0
			c3.2-0.8,6.4,1.1,7.2,4.3L766,265C766.7,268.1,764.8,271.3,761.7,272.1z"/>
		<path class="st0" d="M781.1,261L781.1,261c-3.2,0.8-6.4-1.1-7.2-4.3l-7.8-31.1c-0.8-3.2,1.1-6.4,4.3-7.2l0,0
			c3.2-0.8,6.4,1.1,7.2,4.3l7.8,31.1C786.2,256.9,784.3,260.2,781.1,261z"/>
		<path class="st4" d="M790.9,255.4L790.9,255.4c-3.2,0.8-6.4-1.1-7.2-4.3l-8.1-32.1c-0.8-3.2,1.1-6.4,4.3-7.2l0,0
			c3.2-0.8,6.4,1.1,7.2,4.3l8.1,32.1C795.9,251.4,794,254.6,790.9,255.4z"/>
		<path class="st3" d="M800.6,249.8L800.6,249.8c-3.2,0.8-6.4-1.1-7.2-4.3l-8.3-33c-0.8-3.2,1.1-6.4,4.3-7.2h0
			c3.2-0.8,6.4,1.1,7.2,4.3l8.3,33C805.7,245.8,803.8,249,800.6,249.8z"/>
		<path class="st1" d="M810.3,244.2L810.3,244.2c-3.2,0.8-6.4-1.1-7.2-4.3l-8.6-34c-0.8-3.2,1.1-6.4,4.3-7.2l0,0
			c3.2-0.8,6.4,1.1,7.2,4.3l8.6,34C815.4,240.2,813.5,243.4,810.3,244.2z"/>
		<path class="st0" d="M820.1,238.6L820.1,238.6c-3.2,0.8-6.4-1.1-7.2-4.3l-8.8-34.9c-0.8-3.2,1.1-6.4,4.3-7.2l0,0
			c3.2-0.8,6.4,1.1,7.2,4.3l8.8,34.9C825.1,234.6,823.2,237.8,820.1,238.6z"/>
		<path class="st0" d="M723.5,341.8L723.5,341.8c-3.2,0.8-6,0.2-6.4-1.4l-3-12c-0.4-1.5,1.9-3.4,5-4.2l0,0c3.2-0.8,6-0.2,6.4,1.4
			l3,12C728.9,339.1,726.7,341,723.5,341.8z"/>
		<path class="st1" d="M733.6,337.8L733.6,337.8c-3.2,0.8-6.2-0.6-6.9-3l-5-19.9c-0.6-2.5,1.4-5.1,4.6-5.9l0,0
			c3.2-0.8,6.2,0.6,6.9,3l5,19.9C738.9,334.3,736.8,337,733.6,337.8z"/>
		<path class="st3" d="M743.8,333.7L743.8,333.7c-3.2,0.8-6,0.2-6.4-1.4l-3.3-12.9c-0.4-1.5,1.9-3.4,5-4.2h0c3.2-0.8,6-0.2,6.4,1.4
			l3.3,12.9C749.2,331,746.9,332.9,743.8,333.7z"/>
		<path class="st1" d="M764,325.5L764,325.5c-3.2,0.8-6.2-0.3-6.7-2.4l-4.8-19.2c-0.5-2.1,1.6-4.5,4.7-5.3l0,0
			c3.2-0.8,6.2,0.3,6.7,2.4l4.8,19.2C769.3,322.3,767.1,324.7,764,325.5z"/>
		<path class="st0" d="M774.1,321.5L774.1,321.5c-3.2,0.8-6.2-0.4-6.8-2.7l-5.3-21.1c-0.6-2.3,1.5-4.8,4.7-5.6l0,0
			c3.2-0.8,6.2,0.4,6.8,2.7l5.3,21.1C779.4,318.2,777.3,320.7,774.1,321.5z"/>
		<path class="st0" d="M794.3,313.3L794.3,313.3c-3.2,0.8-6.2-0.5-6.8-2.8l-5.8-23.2c-0.6-2.4,1.5-4.9,4.7-5.7l0,0
			c3.2-0.8,6.2,0.5,6.8,2.8l5.8,23.2C799.6,309.9,797.5,312.5,794.3,313.3z"/>
		<path class="st4" d="M804.4,309.2L804.4,309.2c-3.2,0.8-6,0.2-6.4-1.4l-3.9-15.7c-0.4-1.5,1.9-3.4,5-4.2l0,0
			c3.2-0.8,6-0.2,6.4,1.4l3.9,15.7C809.8,306.5,807.6,308.4,804.4,309.2z"/>
		<path class="st3" d="M814.5,305.1L814.5,305.1c-3.2,0.8-6.2-0.6-6.9-3l-6.5-25.8c-0.6-2.5,1.4-5.1,4.6-5.9l0,0
			c3.2-0.8,6.2,0.6,6.9,3l6.5,25.8C819.8,301.7,817.7,304.3,814.5,305.1z"/>
		<path class="st1" d="M824.7,301.1L824.7,301.1c-3.2,0.8-6.2-0.6-6.9-3.1l-6.8-27.1c-0.6-2.5,1.4-5.2,4.6-6l0,0
			c3.2-0.8,6.2,0.6,6.9,3.1l6.8,27.1C829.9,297.6,827.8,300.3,824.7,301.1z"/>
		<path class="st0" d="M834.8,297L834.8,297c-3.2,0.8-6.2-0.3-6.7-2.5l-6-24c-0.5-2.2,1.6-4.6,4.7-5.4l0,0c3.2-0.8,6.2,0.3,6.7,2.5
			l6,24C840.1,293.8,837.9,296.2,834.8,297z"/>
	</g>
	<g>
		<path class="st3" d="M353.6,120.4l41.7-33.6c1.7-1.4,4.1-1.9,6.3-1.3l177,50.3c2.4,0.7,4.2,2.5,4.8,4.9l12.8,49.1
			c1.3,5.1-3.4,9.7-8.6,8.2l-231.5-65.8C350.8,130.7,349.3,123.9,353.6,120.4z"/>
		<path class="st4" d="M361,286.6l-14.1-157c-0.4-4.7,4-8.3,8.5-7l235,66.8c4,1.1,6,5.5,4.3,9.3L532,333.8c-1.4,3-2.1,5.3-4.9,4.5
			c-11.1-3.1-155.3-44.1-155.3-44.1C363.2,291.7,361.2,289.4,361,286.6z"/>
		<path class="st2" d="M371.8,284.5l27.6,7.8c3.6,1,7.1-1.7,7.1-5.3l0.5-132.8c0-2.5-1.6-4.7-4.1-5.4l-39.4-11.2
			c-3.8-1.1-7.4,1.9-7.1,5.8l11.3,136.2C367.9,281.9,369.6,283.9,371.8,284.5z"/>
		<path class="st2" d="M422.4,298.9l19.6,5.6c3.2,0.9,6.6-1.2,7-4.6l18.9-127.6c0.4-2.8-1.3-5.4-4-6.2l-34.8-9.9
			c-3.5-1-7,1.6-7.1,5.2l-3.7,131.9C418.2,295.9,419.9,298.2,422.4,298.9z"/>
		<path class="st2" d="M458.9,303.9L483.7,178c0.6-3.2,3.9-5.2,7-4.3l28.2,8c3,0.9,4.7,4,3.8,7l-37.9,122.2
			c-0.9,2.9-3.9,4.5-6.9,3.7l-15.1-4.3C460,309.6,458.3,306.8,458.9,303.9z"/>
		<path class="st2" d="M497.3,314l41.3-121.2c1-2.8,4-4.4,6.8-3.6l31,8.8c3.3,0.9,5,4.5,3.6,7.6l-52.7,118c-1.1,2.5-4,3.9-6.6,3.1
			l-19.6-5.6C498,320.3,496.3,317.1,497.3,314z"/>
		<path class="st4" d="M484.5,308.8L484.5,308.8c-0.9,3.1-3.8,5-6.6,4.3l-11.4-3.2c-2.8-0.8-4.3-4-3.4-7.1v0c0.9-3.1,3.8-5,6.6-4.3
			l11.4,3.2C483.9,302.5,485.4,305.7,484.5,308.8z"/>
		<path class="st3" d="M487.9,298L487.9,298c-0.9,3.1-4.2,5-7.3,4.1l-14.1-4c-3.1-0.9-5-4.2-4.1-7.3h0c0.9-3.1,4.2-5,7.3-4.1l14.1,4
			C486.9,291.6,488.8,294.9,487.9,298z"/>
		<path class="st1" d="M491.2,287.2L491.2,287.2c-0.9,3.1-3.2,5.2-5.1,4.7l-9.3-2.6c-1.9-0.5-2.8-3.5-1.9-6.7l0,0
			c0.9-3.1,3.2-5.2,5.1-4.7l9.3,2.6C491.3,281.1,492.1,284.1,491.2,287.2z"/>
		<path class="st4" d="M494.6,276.4L494.6,276.4c-0.9,3.1-4.2,5-7.3,4.1l-16.3-4.6c-3.1-0.9-5-4.2-4.1-7.3l0,0
			c0.9-3.1,4.2-5,7.3-4.1l16.3,4.6C493.6,270,495.5,273.3,494.6,276.4z"/>
		<path class="st4" d="M501.3,254.9L501.3,254.9c-0.9,3.1-3.7,5.1-6.3,4.4l-15.2-4.3c-2.6-0.7-3.9-3.9-3-7v0
			c0.9-3.1,3.7-5.1,6.3-4.4l15.2,4.3C500.8,248.6,502.1,251.7,501.3,254.9z"/>
		<path class="st1" d="M504.6,244.1L504.6,244.1c-0.9,3.1-4.2,5-7.3,4.1l-19.7-5.6c-3.1-0.9-5-4.2-4.1-7.3l0,0
			c0.9-3.1,4.2-5,7.3-4.1l19.7,5.6C503.7,237.7,505.5,240.9,504.6,244.1z"/>
		<path class="st3" d="M507.9,233.3L507.9,233.3c-0.9,3.1-3.8,5.1-6.5,4.3l-18-5.1c-2.7-0.8-4.2-3.9-3.3-7.1l0,0
			c0.9-3.1,3.8-5.1,6.5-4.3l18,5.1C507.4,227,508.8,230.1,507.9,233.3z"/>
		<path class="st4" d="M511.3,222.5L511.3,222.5c-0.9,3.1-4,5-7,4.2l-20.8-5.9c-3-0.8-4.7-4.1-3.8-7.2v0c0.9-3.1,4-5,7-4.2l20.8,5.9
			C510.5,216.1,512.2,219.3,511.3,222.5z"/>
		<path class="st1" d="M514.6,211.7L514.6,211.7c-0.9,3.1-4,5-6.9,4.2l-21.3-6c-2.9-0.8-4.5-4-3.6-7.2v0c0.9-3.1,4-5,6.9-4.2l21.3,6
			C513.9,205.3,515.5,208.5,514.6,211.7z"/>
		<path class="st0" d="M518,200.9L518,200.9c-0.9,3.1-3.1,5.3-5,4.7l-14.2-4c-1.9-0.5-2.6-3.5-1.7-6.6v0c0.9-3.1,3.1-5.3,5-4.7
			l14.2,4C518.1,194.8,518.9,197.8,518,200.9z"/>
		<path class="st1" d="M406.1,273.5L406.1,273.5c-0.9,3.1-4.2,5-7.3,4.1l-25.3-7.2c-3.1-0.9-5-4.2-4.1-7.3v0c0.9-3.1,4.2-5,7.3-4.1
			l25.3,7.2C405.1,267.1,407,270.4,406.1,273.5z"/>
		<path class="st1" d="M527.7,321.1L527.7,321.1c-0.9,3.1-4,5-7,4.2l-18.1-5.2c-3-0.8-4.6-4.1-3.7-7.2l0,0c0.9-3.1,4-5,7-4.2
			l18.1,5.2C527,314.7,528.6,317.9,527.7,321.1z"/>
		<path class="st3" d="M537.1,300.3L537.1,300.3c-0.9,3.1-4.2,5-7.3,4.1l-19.5-5.5c-3.2-0.9-5-4.2-4.1-7.3l0,0
			c0.9-3.1,4.2-5,7.3-4.1L533,293C536.2,293.9,538,297.1,537.1,300.3z"/>
		<path class="st4" d="M541.8,289.9L541.8,289.9c-0.9,3.1-4.3,4.9-7.5,4l-20.1-5.7c-3.3-0.9-5.2-4.2-4.3-7.4l0,0
			c0.9-3.1,4.3-4.9,7.5-4l20.1,5.7C540.8,283.4,542.7,286.7,541.8,289.9z"/>
		<path class="st1" d="M546.5,279.4L546.5,279.4c-0.9,3.1-4.4,4.9-7.7,3.9l-20.8-5.9c-3.4-1-5.4-4.3-4.5-7.4l0,0
			c0.9-3.1,4.4-4.9,7.7-3.9L542,272C545.3,273,547.4,276.3,546.5,279.4z"/>
		<path class="st4" d="M555.8,258.6L555.8,258.6c-0.9,3.1-4.5,4.9-8.1,3.8l-22.1-6.3c-3.6-1-5.8-4.4-4.9-7.5v0
			c0.9-3.1,4.5-4.9,8.1-3.8l22.1,6.3C554.5,252.1,556.7,255.5,555.8,258.6z"/>
		<path class="st0" d="M560.5,248.2L560.5,248.2c-0.9,3.1-4.6,4.8-8.3,3.8l-22.8-6.5c-3.7-1.1-6-4.5-5.1-7.6v0
			c0.9-3.1,4.6-4.8,8.3-3.8l22.8,6.5C559.1,241.7,561.4,245.1,560.5,248.2z"/>
		<path class="st4" d="M565.2,237.8L565.2,237.8c-0.9,3.1-4.7,4.8-8.5,3.7l-23.4-6.7c-3.8-1.1-6.2-4.5-5.3-7.6v0
			c0.9-3.1,4.7-4.8,8.5-3.7l23.4,6.7C563.7,231.2,566.1,234.7,565.2,237.8z"/>
		<path class="st3" d="M569.9,227.4L569.9,227.4c-0.9,3.1-4.8,4.8-8.7,3.7l-24.1-6.9c-3.9-1.1-6.4-4.6-5.5-7.7v0
			c0.9-3.1,4.8-4.8,8.7-3.7l24.1,6.9C568.3,220.8,570.8,224.2,569.9,227.4z"/>
		<path class="st4" d="M574.6,217L574.6,217c-0.9,3.1-4.9,4.8-8.9,3.6l-24.8-7c-4-1.1-6.6-4.6-5.7-7.8v0c0.9-3.1,4.9-4.8,8.9-3.6
			l24.8,7C572.9,210.4,575.5,213.8,574.6,217z"/>
		<path class="st0" d="M579.3,206.6L579.3,206.6c-0.9,3.1-5,4.7-9.1,3.6l-25.4-7.2c-4.1-1.2-6.8-4.7-5.9-7.8v0
			c0.9-3.1,5-4.7,9.1-3.6l25.4,7.2C577.5,199.9,580.1,203.4,579.3,206.6z"/>
		<path class="st3" d="M406.1,262.3L406.1,262.3c-0.9,3.1-4.2,5-7.3,4.1l-26.2-7.4c-3.1-0.9-5-4.2-4.1-7.3l0,0
			c0.9-3.1,4.2-5,7.3-4.1L402,255C405.2,255.9,407,259.2,406.1,262.3z"/>
		<path class="st1" d="M406.1,239.9L406.1,239.9c-0.9,3.1-4.2,5-7.3,4.1l-28.1-8c-3.1-0.9-5-4.2-4.1-7.3v0c0.9-3.1,4.2-5,7.3-4.1
			l28.1,8C405.2,233.5,407,236.7,406.1,239.9z"/>
		<path class="st0" d="M406.2,228.7L406.2,228.7c-0.9,3.1-4.2,5-7.3,4.1l-29-8.2c-3.1-0.9-5-4.2-4.1-7.3l0,0c0.9-3.1,4.2-5,7.3-4.1
			l29,8.2C405.2,222.3,407.1,225.5,406.2,228.7z"/>
		<path class="st0" d="M406.2,206.2L406.2,206.2c-0.9,3.1-4.2,5-7.3,4.1l-30.9-8.8c-3.1-0.9-5-4.2-4.1-7.3v0c0.9-3.1,4.2-5,7.3-4.1
			l30.9,8.8C405.3,199.8,407.1,203.1,406.2,206.2z"/>
		<path class="st4" d="M406.3,195L406.3,195c-0.9,3.1-4.2,5-7.3,4.1l-31.8-9c-3.1-0.9-5-4.2-4.1-7.3l0,0c0.9-3.1,4.2-5,7.3-4.1
			l31.8,9C405.3,188.6,407.1,191.9,406.3,195z"/>
		<path class="st3" d="M406.3,183.8L406.3,183.8c-0.9,3.1-4.2,5-7.3,4.1l-32.7-9.3c-3.1-0.9-5-4.2-4.1-7.3v0c0.9-3.1,4.2-5,7.3-4.1
			l32.7,9.3C405.4,177.4,407.2,180.6,406.3,183.8z"/>
		<path class="st1" d="M406.3,172.5L406.3,172.5c-0.9,3.1-4.2,5-7.3,4.1l-33.7-9.6c-3.1-0.9-5-4.2-4.1-7.3l0,0
			c0.9-3.1,4.2-5,7.3-4.1l33.7,9.6C405.4,166.1,407.2,169.4,406.3,172.5z"/>
		<path class="st0" d="M406.3,161.3L406.3,161.3c-0.9,3.1-4.2,5-7.3,4.1l-34.6-9.8c-3.1-0.9-5-4.2-4.1-7.3l0,0
			c0.9-3.1,4.2-5,7.3-4.1l34.6,9.8C405.4,154.9,407.2,158.2,406.3,161.3z"/>
		<path class="st0" d="M447.5,296.5L447.5,296.5c-0.9,3.1-2.9,5.3-4.4,4.9l-11.9-3.4c-1.5-0.4-2.1-3.3-1.2-6.5v0
			c0.9-3.1,2.9-5.3,4.4-4.9l11.9,3.4C447.9,290.5,448.4,293.4,447.5,296.5z"/>
		<path class="st1" d="M449,285.7L449,285.7c-0.9,3.1-3.6,5.1-6.1,4.4l-19.8-5.6c-2.5-0.7-3.7-3.8-2.8-6.9v0
			c0.9-3.1,3.6-5.1,6.1-4.4l19.8,5.6C448.6,279.5,449.9,282.6,449,285.7z"/>
		<path class="st3" d="M450.5,275L450.5,275c-0.9,3.1-2.9,5.3-4.4,4.9l-12.8-3.6c-1.5-0.4-2.1-3.3-1.2-6.5l0,0
			c0.9-3.1,2.9-5.3,4.4-4.9l12.8,3.6C450.9,268.9,451.4,271.8,450.5,275z"/>
		<path class="st1" d="M453.6,253.4L453.6,253.4c-0.9,3.1-3.3,5.2-5.5,4.6l-19.1-5.4c-2.1-0.6-3.1-3.6-2.2-6.8v0
			c0.9-3.1,3.3-5.2,5.5-4.6l19.1,5.4C453.5,247.2,454.5,250.2,453.6,253.4z"/>
		<path class="st0" d="M455.1,242.6L455.1,242.6c-0.9,3.1-3.4,5.2-5.7,4.5l-20.9-5.9c-2.3-0.6-3.4-3.7-2.5-6.8l0,0
			c0.9-3.1,3.4-5.2,5.7-4.5l20.9,5.9C454.9,236.4,456,239.4,455.1,242.6z"/>
		<path class="st0" d="M458.2,221L458.2,221c-0.9,3.1-3.5,5.1-5.8,4.5l-23-6.5c-2.3-0.7-3.5-3.7-2.6-6.9l0,0
			c0.9-3.1,3.5-5.1,5.8-4.5l23,6.5C457.9,214.7,459,217.8,458.2,221z"/>
		<path class="st4" d="M459.7,210.2L459.7,210.2c-0.9,3.1-2.9,5.3-4.4,4.9l-15.5-4.4c-1.5-0.4-2.1-3.3-1.2-6.5v0
			c0.9-3.1,2.9-5.3,4.4-4.9l15.5,4.4C460,204.1,460.6,207,459.7,210.2z"/>
		<path class="st3" d="M461.2,199.4L461.2,199.4c-0.9,3.1-3.6,5.1-6.1,4.4l-25.6-7.3c-2.5-0.7-3.7-3.8-2.8-6.9l0,0
			c0.9-3.1,3.6-5.1,6.1-4.4l25.6,7.3C460.8,193.1,462.1,196.2,461.2,199.4z"/>
		<path class="st1" d="M462.7,188.6L462.7,188.6c-0.9,3.1-3.6,5.1-6.1,4.4l-26.9-7.6c-2.5-0.7-3.8-3.8-2.9-7l0,0
			c0.9-3.1,3.6-5.1,6.1-4.4l26.9,7.6C462.3,182.3,463.6,185.4,462.7,188.6z"/>
		<path class="st0" d="M464.2,177.8L464.2,177.8c-0.9,3.1-3.4,5.2-5.5,4.6l-23.8-6.8c-2.2-0.6-3.2-3.7-2.3-6.8l0,0
			c0.9-3.1,3.4-5.2,5.5-4.6L462,171C464.1,171.6,465.1,174.6,464.2,177.8z"/>
	</g>
	<g>
		<path class="st3" d="M70.7,506.2l-8.3-52.9c-0.3-2.2,0.4-4.5,2-6.1l132.1-128.2c1.8-1.7,4.3-2.4,6.7-1.7l48.9,13.5
			c5.1,1.4,6.7,7.8,2.8,11.5L82.3,509.9C78.3,513.8,71.6,511.7,70.7,506.2z"/>
		<path class="st4" d="M218.4,582.9l-143-66.3c-4.3-2-5.2-7.6-1.9-10.9l175.3-170.1c3-2.9,7.8-2.4,10.1,0.9l85.8,121.8
			c1.9,2.7,3.5,4.5,1.4,6.5c-8.2,8-115.9,112.4-115.9,112.4C223.9,583.6,220.9,584.1,218.4,582.9z"/>
		<path class="st2" d="M221.9,572.5l20.6-20c2.7-2.6,2.1-7-1.1-8.8l-114.8-66.8c-2.2-1.3-4.9-0.9-6.7,0.8l-29.4,28.5
			c-2.8,2.7-2,7.4,1.5,9.1l123.6,58.3C217.8,574.5,220.3,574.1,221.9,572.5z"/>
		<path class="st2" d="M259.7,535.9l14.6-14.2c2.4-2.3,2.2-6.3-0.4-8.4l-101.1-80.1c-2.2-1.7-5.3-1.6-7.4,0.4l-26,25.2
			c-2.6,2.5-2.1,6.9,1,8.8l112.4,69.1C255,538,257.8,537.7,259.7,535.9z"/>
		<path class="st2" d="M282.3,506.8l-96.6-84.4c-2.5-2.1-2.6-5.9-0.2-8.2l21-20.4c2.3-2.2,5.9-2.1,8,0.2l86.9,93.9
			c2.1,2.2,2,5.7-0.2,7.8l-11.3,10.9C287.8,508.6,284.5,508.7,282.3,506.8z"/>
		<path class="st2" d="M310.3,478.6L226,382.2c-2-2.2-1.8-5.6,0.3-7.7l23.1-22.4c2.4-2.4,6.4-2,8.4,0.7l75.8,104.6
			c1.6,2.2,1.4,5.3-0.6,7.3l-14.6,14.2C316.1,481.1,312.4,481,310.3,478.6z"/>
		<path class="st4" d="M299.4,487L299.4,487c2.3,2.3,2.4,5.9,0.4,7.8l-8.5,8.2c-2.1,2-5.6,1.7-7.8-0.6v0c-2.3-2.3-2.4-5.9-0.4-7.8
			l8.5-8.2C293.6,484.4,297.1,484.7,299.4,487z"/>
		<path class="st3" d="M291.7,478.7L291.7,478.7c2.3,2.3,2.2,6.1-0.1,8.4l-10.5,10.2c-2.3,2.3-6.1,2.2-8.4-0.1l0,0
			c-2.3-2.3-2.2-6.1,0.1-8.4l10.5-10.2C285.7,476.3,289.4,476.4,291.7,478.7z"/>
		<path class="st1" d="M284,470.4L284,470.4c2.3,2.3,3,5.4,1.5,6.8l-6.9,6.7c-1.4,1.4-4.4,0.6-6.7-1.7l0,0c-2.3-2.3-3-5.4-1.5-6.8
			l6.9-6.7C278.8,467.3,281.8,468.1,284,470.4z"/>
		<path class="st4" d="M276.4,462.1L276.4,462.1c2.3,2.3,2.2,6.1-0.1,8.4l-12.2,11.8c-2.3,2.3-6.1,2.2-8.4-0.1h0
			c-2.3-2.3-2.2-6.1,0.1-8.4L268,462C270.3,459.7,274.1,459.8,276.4,462.1z"/>
		<path class="st4" d="M261,445.5L261,445.5c2.3,2.3,2.6,5.7,0.6,7.6l-11.3,11c-1.9,1.9-5.3,1.5-7.6-0.9v0c-2.3-2.3-2.6-5.7-0.6-7.6
			l11.3-11C255.3,442.8,258.7,443.2,261,445.5z"/>
		<path class="st1" d="M253.3,437.3L253.3,437.3c2.3,2.3,2.2,6.1-0.1,8.4l-14.7,14.2c-2.3,2.3-6.1,2.2-8.4-0.1h0
			c-2.3-2.3-2.2-6.1,0.1-8.4l14.7-14.2C247.3,434.9,251.1,434.9,253.3,437.3z"/>
		<path class="st3" d="M245.7,429L245.7,429c2.3,2.3,2.5,5.8,0.4,7.8l-13.4,13c-2,2-5.5,1.7-7.8-0.7h0c-2.3-2.3-2.5-5.8-0.4-7.8
			l13.4-13C239.9,426.3,243.4,426.6,245.7,429z"/>
		<path class="st4" d="M238,420.7L238,420.7c2.3,2.3,2.3,6,0.1,8.1l-15.5,15c-2.2,2.2-5.9,2-8.1-0.3l0,0c-2.3-2.3-2.3-6-0.1-8.1
			l15.5-15C232.1,418.2,235.7,418.3,238,420.7z"/>
		<path class="st1" d="M230.3,412.4L230.3,412.4c2.3,2.3,2.4,5.9,0.2,8l-15.9,15.4c-2.2,2.1-5.8,1.9-8-0.4v0c-2.3-2.3-2.4-5.9-0.2-8
			l15.9-15.4C224.4,409.8,228,410,230.3,412.4z"/>
		<path class="st0" d="M222.6,404.1L222.6,404.1c2.3,2.3,3,5.3,1.6,6.7l-10.6,10.3c-1.4,1.3-4.3,0.5-6.6-1.8l0,0
			c-2.3-2.3-3-5.3-1.6-6.7l10.6-10.3C217.4,400.9,220.4,401.7,222.6,404.1z"/>
		<path class="st1" d="M229.6,537.3L229.6,537.3c2.3,2.3,2.2,6.1-0.1,8.4L210.6,564c-2.3,2.3-6.1,2.2-8.4-0.1l0,0
			c-2.3-2.3-2.2-6.1,0.1-8.4l18.9-18.3C223.6,534.9,227.3,535,229.6,537.3z"/>
		<path class="st1" d="M331.6,455.7L331.6,455.7c2.3,2.3,2.3,6,0.1,8.1L318.2,477c-2.2,2.1-5.8,2-8.1-0.4h0c-2.3-2.3-2.3-6-0.1-8.1
			l13.5-13.1C325.7,453.2,329.3,453.4,331.6,455.7z"/>
		<path class="st3" d="M318.3,437.2L318.3,437.2c2.3,2.3,2.2,6.1-0.2,8.4l-14.5,14.1c-2.4,2.3-6.1,2.3-8.4-0.1l0,0
			c-2.3-2.3-2.2-6.1,0.2-8.4l14.5-14.1C312.2,434.8,316,434.9,318.3,437.2z"/>
		<path class="st4" d="M311.6,427.9L311.6,427.9c2.3,2.3,2.1,6.2-0.3,8.5l-15,14.6c-2.4,2.4-6.3,2.4-8.5,0.1l0,0
			c-2.3-2.3-2.1-6.2,0.3-8.5l15-14.6C305.5,425.6,309.3,425.6,311.6,427.9z"/>
		<path class="st1" d="M304.9,418.7L304.9,418.7c2.3,2.3,2.1,6.2-0.5,8.7l-15.5,15.1c-2.5,2.4-6.4,2.5-8.7,0.2l0,0
			c-2.3-2.3-2.1-6.2,0.5-8.7l15.5-15.1C298.8,416.4,302.6,416.3,304.9,418.7z"/>
		<path class="st4" d="M291.6,400.2L291.6,400.2c2.3,2.3,1.9,6.4-0.7,9l-16.5,16c-2.7,2.6-6.7,2.8-9,0.5v0c-2.3-2.3-1.9-6.4,0.7-9
			l16.5-16C285.3,398,289.3,397.8,291.6,400.2z"/>
		<path class="st0" d="M284.9,390.9L284.9,390.9c2.3,2.3,1.9,6.4-0.9,9.1l-17,16.5c-2.8,2.7-6.8,3-9.1,0.6l0,0
			c-2.3-2.3-1.9-6.4,0.9-9.1l17-16.5C278.5,388.8,282.6,388.6,284.9,390.9z"/>
		<path class="st4" d="M278.2,381.6L278.2,381.6c2.3,2.3,1.8,6.5-1,9.2l-17.5,17c-2.8,2.8-7,3.1-9.3,0.8h0c-2.3-2.3-1.8-6.5,1-9.2
			l17.5-17C271.8,379.6,275.9,379.3,278.2,381.6z"/>
		<path class="st3" d="M271.5,372.4L271.5,372.4c2.3,2.3,1.7,6.5-1.2,9.4l-18,17.5c-2.9,2.8-7.1,3.2-9.4,0.9h0
			c-2.3-2.3-1.7-6.5,1.2-9.4l18-17.5C265,370.4,269.3,370,271.5,372.4z"/>
		<path class="st4" d="M264.9,363.1L264.9,363.1c2.3,2.3,1.7,6.6-1.3,9.5L245,390.6c-3,2.9-7.3,3.4-9.6,1h0
			c-2.3-2.3-1.7-6.6,1.3-9.5l18.5-17.9C258.3,361.2,262.6,360.8,264.9,363.1z"/>
		<path class="st0" d="M258.2,353.9L258.2,353.9c2.3,2.3,1.6,6.7-1.5,9.7l-19,18.4c-3.1,3-7.4,3.5-9.7,1.2h0
			c-2.3-2.3-1.6-6.7,1.5-9.7l19-18.4C251.6,352,255.9,351.5,258.2,353.9z"/>
		<path class="st3" d="M219.9,531.7L219.9,531.7c2.3,2.3,2.2,6.1-0.1,8.4l-19.6,19c-2.3,2.3-6.1,2.2-8.4-0.1h0
			c-2.3-2.3-2.2-6.1,0.1-8.4l19.6-19C213.9,529.3,217.6,529.4,219.9,531.7z"/>
		<path class="st1" d="M200.5,520.4L200.5,520.4c2.3,2.3,2.2,6.1-0.1,8.4l-21,20.3c-2.3,2.3-6.1,2.2-8.4-0.1l0,0
			c-2.3-2.3-2.2-6.1,0.1-8.4l21-20.3C194.5,518,198.2,518.1,200.5,520.4z"/>
		<path class="st0" d="M190.8,514.8L190.8,514.8c2.3,2.3,2.2,6.1-0.1,8.4l-21.6,21c-2.3,2.3-6.1,2.2-8.4-0.1l0,0
			c-2.3-2.3-2.2-6.1,0.1-8.4l21.6-21C184.8,512.4,188.5,512.4,190.8,514.8z"/>
		<path class="st0" d="M171.4,503.5L171.4,503.5c2.3,2.3,2.2,6.1-0.1,8.4l-23,22.4c-2.3,2.3-6.1,2.2-8.4-0.1h0
			c-2.3-2.3-2.2-6.1,0.1-8.4l23-22.4C165.4,501.1,169.1,501.2,171.4,503.5z"/>
		<path class="st4" d="M161.7,497.9L161.7,497.9c2.3,2.3,2.2,6.1-0.1,8.4l-23.7,23c-2.3,2.3-6.1,2.2-8.4-0.1l0,0
			c-2.3-2.3-2.2-6.1,0.1-8.4l23.7-23C155.7,495.5,159.4,495.5,161.7,497.9z"/>
		<path class="st3" d="M152,492.3L152,492.3c2.3,2.3,2.2,6.1-0.1,8.4l-24.4,23.7c-2.3,2.3-6.1,2.2-8.4-0.1l0,0
			c-2.3-2.3-2.2-6.1,0.1-8.4l24.4-23.7C146,489.9,149.7,489.9,152,492.3z"/>
		<path class="st1" d="M142.3,486.6L142.3,486.6c2.3,2.3,2.2,6.1-0.1,8.4L117,519.4c-2.3,2.3-6.1,2.2-8.4-0.1h0
			c-2.3-2.3-2.2-6.1,0.1-8.4l25.1-24.4C136.2,484.2,140,484.3,142.3,486.6z"/>
		<path class="st0" d="M132.6,481L132.6,481c2.3,2.3,2.2,6.1-0.1,8.4l-25.8,25.1c-2.3,2.3-6.1,2.2-8.4-0.1h0
			c-2.3-2.3-2.2-6.1,0.1-8.4l25.8-25.1C126.5,478.6,130.3,478.6,132.6,481z"/>
		<path class="st0" d="M270.2,513L270.2,513c2.3,2.3,3.2,5.1,2,6.2l-8.9,8.6c-1.1,1.1-3.9,0.1-6.2-2.2h0c-2.3-2.3-3.2-5.1-2-6.2
			l8.9-8.6C265.2,509.6,268,510.6,270.2,513z"/>
		<path class="st1" d="M261.6,506.2L261.6,506.2c2.3,2.3,2.6,5.7,0.8,7.5L247.7,528c-1.8,1.8-5.2,1.3-7.4-1h0
			c-2.3-2.3-2.6-5.7-0.8-7.5l14.7-14.3C256,503.4,259.4,503.9,261.6,506.2z"/>
		<path class="st3" d="M253.1,499.5L253.1,499.5c2.3,2.3,3.2,5.1,2,6.2l-9.5,9.3c-1.1,1.1-3.9,0.1-6.2-2.2l0,0
			c-2.3-2.3-3.2-5.1-2-6.2l9.5-9.3C248,496.2,250.8,497.2,253.1,499.5z"/>
		<path class="st1" d="M235.9,486.1L235.9,486.1c2.3,2.3,2.8,5.5,1.2,7l-14.2,13.8c-1.6,1.5-4.7,0.9-7-1.4v0c-2.3-2.3-2.8-5.5-1.2-7
			l14.2-13.8C230.5,483.1,233.6,483.7,235.9,486.1z"/>
		<path class="st0" d="M227.3,479.4L227.3,479.4c2.3,2.3,2.7,5.6,1.1,7.2l-15.6,15.2c-1.7,1.6-4.9,1.1-7.2-1.3v0
			c-2.3-2.3-2.7-5.6-1.1-7.2l15.6-15.2C221.8,476.5,225,477,227.3,479.4z"/>
		<path class="st0" d="M210.1,465.9L210.1,465.9c2.3,2.3,2.7,5.6,1,7.3l-17.1,16.6c-1.7,1.7-5,1.2-7.3-1.2l0,0
			c-2.3-2.3-2.7-5.6-1-7.3l17.1-16.6C204.6,463.1,207.8,463.6,210.1,465.9z"/>
		<path class="st4" d="M201.5,459.2L201.5,459.2c2.3,2.3,3.2,5.1,2,6.2L192,476.7c-1.1,1.1-3.9,0.1-6.2-2.2h0
			c-2.3-2.3-3.2-5.1-2-6.2l11.6-11.2C196.5,455.9,199.2,456.9,201.5,459.2z"/>
		<path class="st3" d="M192.9,452.5L192.9,452.5c2.3,2.3,2.6,5.7,0.8,7.5l-19.1,18.5c-1.8,1.8-5.2,1.3-7.4-1l0,0
			c-2.3-2.3-2.6-5.7-0.8-7.5l19.1-18.5C187.3,449.7,190.7,450.2,192.9,452.5z"/>
		<path class="st1" d="M184.3,445.8L184.3,445.8c2.3,2.3,2.6,5.7,0.7,7.5l-20,19.5c-1.9,1.8-5.2,1.4-7.5-1v0
			c-2.3-2.3-2.6-5.7-0.7-7.5l20-19.5C178.7,443,182.1,443.4,184.3,445.8z"/>
		<path class="st0" d="M175.8,439.1L175.8,439.1c2.3,2.3,2.8,5.5,1.2,7.1l-17.7,17.2c-1.6,1.6-4.8,0.9-7-1.4h0
			c-2.3-2.3-2.8-5.5-1.2-7.1l17.7-17.2C170.3,436.1,173.5,436.7,175.8,439.1z"/>
	</g>
	<g>
		<path class="st3" d="M263.4,944l-50-19.3c-2.1-0.8-3.7-2.6-4.2-4.8l-45-178.5c-0.6-2.4,0.1-4.9,1.8-6.6l36.1-35.6
			c3.8-3.7,10.1-1.9,11.4,3.3l58.8,233.3C273.8,941.3,268.6,946,263.4,944z"/>
		<path class="st4" d="M403.7,854.5l-128.9,90.7c-3.8,2.7-9.2,0.7-10.4-3.8l-59.7-236.9c-1-4,1.8-7.9,5.9-8.3L359,682.8
			c3.3-0.3,5.6-0.8,6.3,2c2.8,11.1,39.4,156.5,39.4,156.5C407,850.1,406,852.9,403.7,854.5z"/>
		<path class="st2" d="M396.4,846.2l-7-27.8c-0.9-3.6-5-5.3-8.2-3.5l-115.3,66c-2.2,1.2-3.3,3.8-2.6,6.2l10,39.7
			c1,3.8,5.4,5.4,8.6,3.2l112.3-77.9C396.1,850.9,397,848.5,396.4,846.2z"/>
		<path class="st2" d="M383.6,795.3l-5-19.7c-0.8-3.3-4.3-5.1-7.5-3.8l-119.9,47.4c-2.6,1-4,3.8-3.4,6.6l8.8,35.1
			c0.9,3.5,4.9,5.3,8.1,3.5l116.1-62.8C383.1,800.3,384.2,797.8,383.6,795.3z"/>
		<path class="st2" d="M369.7,761.1l-121.4,41.5c-3.1,1.1-6.4-0.8-7.2-3.9l-7.2-28.4c-0.8-3,1.1-6.1,4.2-6.8l124.8-28.3
			c3-0.7,5.9,1.1,6.6,4.1l3.8,15.2C374,757.3,372.5,760.2,369.7,761.1z"/>
		<path class="st2" d="M359.3,722.8l-125.6,24.9c-2.9,0.6-5.8-1.2-6.5-4.1l-7.9-31.2c-0.8-3.3,1.5-6.6,4.8-6.9L352.6,692
			c2.8-0.3,5.3,1.5,6,4.2l5,19.7C364.4,719,362.4,722.2,359.3,722.8z"/>
		<path class="st4" d="M361.1,736.5L361.1,736.5c3.2-0.8,6.3,0.8,7,3.6l2.9,11.5c0.7,2.8-1.3,5.7-4.5,6.5h0c-3.2,0.8-6.3-0.8-7-3.6
			l-2.9-11.5C356,740.1,358,737.3,361.1,736.5z"/>
		<path class="st3" d="M350.1,739L350.1,739c3.2-0.8,6.4,1.1,7.2,4.3l3.6,14.2c0.8,3.2-1.1,6.4-4.3,7.2h0c-3.2,0.8-6.4-1.1-7.2-4.3
			l-3.6-14.2C345,743,346.9,739.8,350.1,739z"/>
		<path class="st1" d="M339.1,741.5L339.1,741.5c3.2-0.8,6.1,0.1,6.6,2.1l2.4,9.4c0.5,1.9-1.7,4.1-4.8,4.9l0,0
			c-3.2,0.8-6.1-0.1-6.6-2.1l-2.4-9.4C333.7,744.5,335.9,742.3,339.1,741.5z"/>
		<path class="st4" d="M328.1,744L328.1,744c3.2-0.8,6.4,1.1,7.2,4.3l4.1,16.4c0.8,3.2-1.1,6.4-4.3,7.2h0c-3.2,0.8-6.4-1.1-7.2-4.3
			l-4.1-16.4C323,748,324.9,744.8,328.1,744z"/>
		<path class="st4" d="M306,749L306,749c3.2-0.8,6.3,0.7,6.9,3.2l3.9,15.3c0.7,2.6-1.4,5.3-4.5,6.1l0,0c-3.2,0.8-6.3-0.7-6.9-3.2
			l-3.9-15.3C300.8,752.5,302.9,749.7,306,749z"/>
		<path class="st1" d="M295,751.5L295,751.5c3.2-0.8,6.4,1.1,7.2,4.3l5,19.8c0.8,3.2-1.1,6.4-4.3,7.2h0c-3.2,0.8-6.4-1.1-7.2-4.3
			l-5-19.8C289.9,755.5,291.8,752.2,295,751.5z"/>
		<path class="st3" d="M284,753.9L284,753.9c3.2-0.8,6.3,0.8,7,3.5l4.6,18.1c0.7,2.7-1.3,5.6-4.5,6.4l0,0c-3.2,0.8-6.3-0.8-7-3.5
			l-4.6-18.1C278.8,757.6,280.8,754.7,284,753.9z"/>
		<path class="st4" d="M273,756.4L273,756.4c3.2-0.8,6.3,1,7.1,4l5.3,20.9c0.8,3-1.2,6.1-4.4,6.9h0c-3.2,0.8-6.3-1-7.1-4l-5.3-20.9
			C267.9,760.3,269.8,757.2,273,756.4z"/>
		<path class="st1" d="M262,758.9L262,758.9c3.2-0.8,6.3,0.9,7.1,3.9l5.4,21.5c0.7,2.9-1.2,5.9-4.4,6.7h0c-3.2,0.8-6.3-0.9-7.1-3.9
			l-5.4-21.5C256.8,762.8,258.8,759.7,262,758.9z"/>
		<path class="st0" d="M250.9,761.4L250.9,761.4c3.2-0.8,6.1,0.1,6.6,1.9l3.6,14.3c0.5,1.9-1.7,4-4.9,4.8l0,0
			c-3.2,0.8-6.1-0.1-6.6-1.9l-3.6-14.3C245.6,764.4,247.8,762.2,250.9,761.4z"/>
		<path class="st1" d="M369.8,822L369.8,822c3.2-0.8,6.4,1.1,7.2,4.3l6.4,25.5c0.8,3.2-1.1,6.4-4.3,7.2l0,0
			c-3.2,0.8-6.4-1.1-7.2-4.3l-6.4-25.5C364.7,826,366.7,822.8,369.8,822z"/>
		<path class="st1" d="M350.1,692.9L350.1,692.9c3.2-0.8,6.3,1,7.1,3.9l4.6,18.3c0.7,3-1.2,6-4.4,6.8l0,0c-3.2,0.8-6.3-1-7.1-3.9
			l-4.6-18.3C345,696.7,347,693.7,350.1,692.9z"/>
		<path class="st3" d="M327.4,695.2L327.4,695.2c3.2-0.8,6.4,1.1,7.2,4.3l4.9,19.6c0.8,3.2-1.1,6.4-4.3,7.2l0,0
			c-3.2,0.8-6.4-1.1-7.2-4.3l-4.9-19.6C322.4,699.2,324.3,696,327.4,695.2z"/>
		<path class="st4" d="M316.1,696.3L316.1,696.3c3.2-0.8,6.4,1.2,7.2,4.5l5.1,20.3c0.8,3.3-1.1,6.6-4.2,7.4l0,0
			c-3.2,0.8-6.4-1.2-7.2-4.5l-5.1-20.3C311,700.5,312.9,697.1,316.1,696.3z"/>
		<path class="st1" d="M304.7,697.5L304.7,697.5c3.2-0.8,6.4,1.3,7.3,4.7l5.3,21c0.9,3.4-1,6.8-4.2,7.6h0c-3.2,0.8-6.4-1.3-7.3-4.7
			l-5.3-21C299.7,701.7,301.5,698.3,304.7,697.5z"/>
		<path class="st4" d="M282,699.8L282,699.8c3.2-0.8,6.5,1.5,7.4,5.1l5.6,22.3c0.9,3.6-0.9,7.2-4.1,8h0c-3.2,0.8-6.5-1.5-7.4-5.1
			l-5.6-22.3C277,704.2,278.8,700.6,282,699.8z"/>
		<path class="st0" d="M270.6,700.9L270.6,700.9c3.2-0.8,6.5,1.6,7.4,5.3l5.8,23c0.9,3.7-0.9,7.4-4,8.2l0,0
			c-3.2,0.8-6.5-1.6-7.4-5.3l-5.8-23C265.7,705.4,267.5,701.7,270.6,700.9z"/>
		<path class="st4" d="M259.3,702.1L259.3,702.1c3.2-0.8,6.5,1.7,7.5,5.5l6,23.6c1,3.8-0.8,7.6-4,8.4l0,0c-3.2,0.8-6.5-1.7-7.5-5.5
			l-6-23.6C254.3,706.7,256.1,702.9,259.3,702.1z"/>
		<path class="st3" d="M247.9,703.2L247.9,703.2c3.2-0.8,6.5,1.8,7.5,5.7l6.1,24.3c1,4-0.8,7.8-3.9,8.6h0c-3.2,0.8-6.5-1.8-7.5-5.7
			l-6.1-24.3C243,707.9,244.8,704,247.9,703.2z"/>
		<path class="st4" d="M236.6,704.4L236.6,704.4c3.2-0.8,6.6,1.9,7.6,5.9l6.3,25c1,4.1-0.7,8-3.9,8.8h0c-3.2,0.8-6.6-1.9-7.6-5.9
			l-6.3-25C231.7,709.1,233.4,705.2,236.6,704.4z"/>
		<path class="st0" d="M225.2,705.6L225.2,705.6c3.2-0.8,6.6,1.9,7.6,6.1l6.5,25.6c1.1,4.2-0.7,8.2-3.8,9l0,0
			c-3.2,0.8-6.6-1.9-7.6-6.1l-6.5-25.6C220.3,710.4,222,706.3,225.2,705.6z"/>
		<path class="st3" d="M360.1,827.6L360.1,827.6c3.2-0.8,6.4,1.1,7.2,4.3l6.7,26.4c0.8,3.2-1.1,6.4-4.3,7.2l0,0
			c-3.2,0.8-6.4-1.1-7.2-4.3l-6.7-26.4C355,831.6,356.9,828.4,360.1,827.6z"/>
		<path class="st1" d="M340.6,838.8L340.6,838.8c3.2-0.8,6.4,1.1,7.2,4.3l7.1,28.3c0.8,3.2-1.1,6.4-4.3,7.2h0
			c-3.2,0.8-6.4-1.1-7.2-4.3l-7.1-28.3C335.5,842.8,337.5,839.6,340.6,838.8z"/>
		<path class="st0" d="M330.9,844.4L330.9,844.4c3.2-0.8,6.4,1.1,7.2,4.3l7.4,29.3c0.8,3.2-1.1,6.4-4.3,7.2h0
			c-3.2,0.8-6.4-1.1-7.2-4.3l-7.4-29.3C325.8,848.4,327.7,845.2,330.9,844.4z"/>
		<path class="st0" d="M311.4,855.6L311.4,855.6c3.2-0.8,6.4,1.1,7.2,4.3l7.8,31.1c0.8,3.2-1.1,6.4-4.3,7.2l0,0
			c-3.2,0.8-6.4-1.1-7.2-4.3l-7.8-31.1C306.3,859.6,308.3,856.4,311.4,855.6z"/>
		<path class="st4" d="M301.7,861.2L301.7,861.2c3.2-0.8,6.4,1.1,7.2,4.3l8.1,32.1c0.8,3.2-1.1,6.4-4.3,7.2l0,0
			c-3.2,0.8-6.4-1.1-7.2-4.3l-8.1-32.1C296.6,865.2,298.5,861.9,301.7,861.2z"/>
		<path class="st3" d="M292,866.7L292,866.7c3.2-0.8,6.4,1.1,7.2,4.3l8.3,33c0.8,3.2-1.1,6.4-4.3,7.2l0,0c-3.2,0.8-6.4-1.1-7.2-4.3
			l-8.3-33C286.9,870.7,288.8,867.5,292,866.7z"/>
		<path class="st1" d="M282.2,872.3L282.2,872.3c3.2-0.8,6.4,1.1,7.2,4.3l8.6,34c0.8,3.2-1.1,6.4-4.3,7.2l0,0
			c-3.2,0.8-6.4-1.1-7.2-4.3l-8.6-34C277.1,876.3,279.1,873.1,282.2,872.3z"/>
		<path class="st0" d="M272.5,877.9L272.5,877.9c3.2-0.8,6.4,1.1,7.2,4.3l8.8,34.9c0.8,3.2-1.1,6.4-4.3,7.2h0
			c-3.2,0.8-6.4-1.1-7.2-4.3l-8.8-34.9C267.4,881.9,269.3,878.7,272.5,877.9z"/>
		<path class="st0" d="M369,774.7L369,774.7c3.2-0.8,6-0.2,6.4,1.4l3,12c0.4,1.5-1.9,3.4-5,4.2h0c-3.2,0.8-6,0.2-6.4-1.4l-3-12
			C363.6,777.4,365.9,775.5,369,774.7z"/>
		<path class="st1" d="M358.9,778.8L358.9,778.8c3.2-0.8,6.2,0.6,6.9,3l5,19.9c0.6,2.5-1.4,5.1-4.6,5.9h0c-3.2,0.8-6.2-0.6-6.9-3
			l-5-19.9C353.7,782.2,355.7,779.5,358.9,778.8z"/>
		<path class="st3" d="M348.8,782.8L348.8,782.8c3.2-0.8,6-0.2,6.4,1.4l3.3,12.9c0.4,1.5-1.9,3.4-5,4.2l0,0c-3.2,0.8-6,0.2-6.4-1.4
			l-3.3-12.9C343.4,785.5,345.6,783.6,348.8,782.8z"/>
		<path class="st1" d="M328.6,791L328.6,791c3.2-0.8,6.2,0.3,6.7,2.4l4.8,19.2c0.5,2.1-1.6,4.5-4.7,5.3h0c-3.2,0.8-6.2-0.3-6.7-2.4
			l-4.8-19.2C323.3,794.2,325.4,791.8,328.6,791z"/>
		<path class="st0" d="M318.5,795.1L318.5,795.1c3.2-0.8,6.2,0.4,6.8,2.7l5.3,21.1c0.6,2.3-1.5,4.8-4.7,5.6h0
			c-3.2,0.8-6.2-0.4-6.8-2.7l-5.3-21.1C313.2,798.4,315.3,795.9,318.5,795.1z"/>
		<path class="st0" d="M298.2,803.2L298.2,803.2c3.2-0.8,6.2,0.5,6.8,2.8l5.8,23.2c0.6,2.4-1.5,4.9-4.7,5.7l0,0
			c-3.2,0.8-6.2-0.5-6.8-2.8l-5.8-23.2C293,806.6,295.1,804,298.2,803.2z"/>
		<path class="st4" d="M288.1,807.3L288.1,807.3c3.2-0.8,6-0.2,6.4,1.4l3.9,15.7c0.4,1.5-1.9,3.4-5,4.2l0,0c-3.2,0.8-6,0.2-6.4-1.4
			l-3.9-15.7C282.7,810,285,808.1,288.1,807.3z"/>
		<path class="st3" d="M278,811.4L278,811.4c3.2-0.8,6.2,0.6,6.9,3l6.5,25.8c0.6,2.5-1.4,5.1-4.6,5.9h0c-3.2,0.8-6.2-0.6-6.9-3
			l-6.5-25.8C272.8,814.8,274.8,812.2,278,811.4z"/>
		<path class="st1" d="M267.9,815.5L267.9,815.5c3.2-0.8,6.2,0.6,6.9,3.1l6.8,27.1c0.6,2.5-1.4,5.2-4.6,6l0,0
			c-3.2,0.8-6.2-0.6-6.9-3.1l-6.8-27.1C262.7,818.9,264.7,816.3,267.9,815.5z"/>
		<path class="st0" d="M257.8,819.5L257.8,819.5c3.2-0.8,6.2,0.3,6.7,2.5l6,24c0.5,2.2-1.6,4.6-4.7,5.4l0,0
			c-3.2,0.8-6.2-0.3-6.7-2.5l-6-24C252.5,822.7,254.6,820.3,257.8,819.5z"/>
	</g>
	<g>
		<path class="st3" d="M738.9,996.1l-41.7,33.6c-1.7,1.4-4.1,1.9-6.3,1.3l-177-50.3c-2.4-0.7-4.2-2.5-4.8-4.9l-12.8-49.1
			c-1.3-5.1,3.4-9.7,8.6-8.2l231.5,65.8C741.8,985.8,743.3,992.6,738.9,996.1z"/>
		<path class="st4" d="M731.6,829.9l14.1,157c0.4,4.7-4,8.3-8.5,7l-235-66.8c-4-1.1-6-5.5-4.3-9.3l62.5-135.2c1.4-3,2.1-5.3,4.9-4.5
			c11.1,3.1,155.3,44.1,155.3,44.1C729.4,824.8,731.3,827.1,731.6,829.9z"/>
		<path class="st2" d="M720.8,832l-27.6-7.8c-3.6-1-7.1,1.7-7.1,5.3l-0.5,132.8c0,2.5,1.6,4.7,4.1,5.4l39.4,11.2
			c3.8,1.1,7.4-1.9,7.1-5.8l-11.3-136.2C724.6,834.6,723,832.7,720.8,832z"/>
		<path class="st2" d="M670.2,817.7l-19.6-5.6c-3.2-0.9-6.6,1.2-7,4.6l-18.9,127.6c-0.4,2.8,1.3,5.4,4,6.2l34.8,9.9
			c3.5,1,7-1.6,7.1-5.2l3.7-131.9C674.3,820.6,672.7,818.4,670.2,817.7z"/>
		<path class="st2" d="M633.7,812.6l-24.8,125.9c-0.6,3.2-3.9,5.2-7,4.3l-28.2-8c-3-0.9-4.7-4-3.8-7l37.9-122.2
			c0.9-2.9,3.9-4.5,6.9-3.7l15.1,4.3C632.5,807,634.2,809.8,633.7,812.6z"/>
		<path class="st2" d="M595.3,802.5L554,923.7c-1,2.8-4,4.4-6.8,3.6l-31-8.8c-3.3-0.9-5-4.5-3.6-7.6l52.7-118c1.1-2.5,4-3.9,6.6-3.1
			l19.6,5.6C594.6,796.2,596.3,799.4,595.3,802.5z"/>
		<path class="st4" d="M608,807.7L608,807.7c0.9-3.1,3.8-5,6.6-4.3l11.4,3.2c2.8,0.8,4.3,4,3.4,7.1l0,0c-0.9,3.1-3.8,5-6.6,4.3
			l-11.4-3.2C608.6,814,607.1,810.8,608,807.7z"/>
		<path class="st3" d="M604.7,818.5L604.7,818.5c0.9-3.1,4.2-5,7.3-4.1l14.1,4c3.1,0.9,5,4.2,4.1,7.3v0c-0.9,3.1-4.2,5-7.3,4.1
			l-14.1-4C605.6,824.9,603.8,821.6,604.7,818.5z"/>
		<path class="st1" d="M601.3,829.3L601.3,829.3c0.9-3.1,3.2-5.2,5.1-4.7l9.3,2.6c1.9,0.5,2.8,3.5,1.9,6.7l0,0
			c-0.9,3.1-3.2,5.2-5.1,4.7l-9.3-2.6C601.3,835.4,600.4,832.4,601.3,829.3z"/>
		<path class="st4" d="M598,840.1L598,840.1c0.9-3.1,4.2-5,7.3-4.1l16.3,4.6c3.1,0.9,5,4.2,4.1,7.3l0,0c-0.9,3.1-4.2,5-7.3,4.1
			l-16.3-4.6C598.9,846.5,597.1,843.2,598,840.1z"/>
		<path class="st4" d="M591.3,861.7L591.3,861.7c0.9-3.1,3.7-5.1,6.3-4.4l15.2,4.3c2.6,0.7,3.9,3.9,3,7l0,0
			c-0.9,3.1-3.7,5.1-6.3,4.4l-15.2-4.3C591.8,867.9,590.4,864.8,591.3,861.7z"/>
		<path class="st1" d="M588,872.5L588,872.5c0.9-3.1,4.2-5,7.3-4.1l19.7,5.6c3.1,0.9,5,4.2,4.1,7.3v0c-0.9,3.1-4.2,5-7.3,4.1
			l-19.7-5.6C588.9,878.9,587.1,875.6,588,872.5z"/>
		<path class="st3" d="M584.6,883.2L584.6,883.2c0.9-3.1,3.8-5.1,6.5-4.3l18,5.1c2.7,0.8,4.2,3.9,3.3,7.1v0
			c-0.9,3.1-3.8,5.1-6.5,4.3l-18-5.1C585.2,889.6,583.7,886.4,584.6,883.2z"/>
		<path class="st4" d="M581.3,894L581.3,894c0.9-3.1,4-5,7-4.2l20.8,5.9c3,0.8,4.7,4.1,3.8,7.2l0,0c-0.9,3.1-4,5-7,4.2l-20.8-5.9
			C582.1,900.4,580.4,897.2,581.3,894z"/>
		<path class="st1" d="M577.9,904.8L577.9,904.8c0.9-3.1,4-5,6.9-4.2l21.3,6c2.9,0.8,4.5,4,3.6,7.2l0,0c-0.9,3.1-4,5-6.9,4.2
			l-21.3-6C578.7,911.2,577,908,577.9,904.8z"/>
		<path class="st0" d="M574.6,915.6L574.6,915.6c0.9-3.1,3.1-5.3,5-4.7l14.2,4c1.9,0.5,2.6,3.5,1.7,6.6l0,0c-0.9,3.1-3.1,5.3-5,4.7
			l-14.2-4C574.5,921.7,573.7,918.8,574.6,915.6z"/>
		<path class="st1" d="M686.5,843L686.5,843c0.9-3.1,4.2-5,7.3-4.1l25.3,7.2c3.1,0.9,5,4.2,4.1,7.3h0c-0.9,3.1-4.2,5-7.3,4.1
			l-25.3-7.2C687.4,849.4,685.6,846.1,686.5,843z"/>
		<path class="st1" d="M564.8,795.4L564.8,795.4c0.9-3.1,4-5,7-4.2l18.1,5.2c3,0.8,4.6,4.1,3.7,7.2l0,0c-0.9,3.1-4,5-7,4.2
			l-18.1-5.2C565.6,801.8,563.9,798.6,564.8,795.4z"/>
		<path class="st3" d="M555.4,816.3L555.4,816.3c0.9-3.1,4.2-5,7.3-4.1l19.5,5.5c3.2,0.9,5,4.2,4.1,7.3l0,0c-0.9,3.1-4.2,5-7.3,4.1
			l-19.5-5.5C556.4,822.7,554.5,819.4,555.4,816.3z"/>
		<path class="st4" d="M550.8,826.7L550.8,826.7c0.9-3.1,4.3-4.9,7.5-4l20.1,5.7c3.3,0.9,5.2,4.2,4.3,7.4l0,0
			c-0.9,3.1-4.3,4.9-7.5,4l-20.1-5.7C551.8,833.1,549.9,829.8,550.8,826.7z"/>
		<path class="st1" d="M546.1,837.1L546.1,837.1c0.9-3.1,4.4-4.9,7.7-3.9l20.8,5.9c3.4,1,5.4,4.3,4.5,7.4l0,0
			c-0.9,3.1-4.4,4.9-7.7,3.9l-20.8-5.9C547.2,843.5,545.2,840.2,546.1,837.1z"/>
		<path class="st4" d="M536.7,857.9L536.7,857.9c0.9-3.1,4.5-4.9,8.1-3.8l22.1,6.3c3.6,1,5.8,4.4,4.9,7.5l0,0
			c-0.9,3.1-4.5,4.9-8.1,3.8l-22.1-6.3C538,864.4,535.8,861,536.7,857.9z"/>
		<path class="st0" d="M532,868.3L532,868.3c0.9-3.1,4.6-4.8,8.3-3.8l22.8,6.5c3.7,1.1,6,4.5,5.1,7.6l0,0c-0.9,3.1-4.6,4.8-8.3,3.8
			l-22.8-6.5C533.4,874.8,531.1,871.4,532,868.3z"/>
		<path class="st4" d="M527.3,878.7L527.3,878.7c0.9-3.1,4.7-4.8,8.5-3.7l23.4,6.7c3.8,1.1,6.2,4.5,5.3,7.6h0
			c-0.9,3.1-4.7,4.8-8.5,3.7l-23.4-6.7C528.8,885.3,526.5,881.9,527.3,878.7z"/>
		<path class="st3" d="M522.7,889.1L522.7,889.1c0.9-3.1,4.8-4.8,8.7-3.7l24.1,6.9c3.9,1.1,6.4,4.6,5.5,7.7l0,0
			c-0.9,3.1-4.8,4.8-8.7,3.7l-24.1-6.9C524.2,895.7,521.8,892.3,522.7,889.1z"/>
		<path class="st4" d="M518,899.5L518,899.5c0.9-3.1,4.9-4.8,8.9-3.6l24.8,7c4,1.1,6.6,4.6,5.7,7.8l0,0c-0.9,3.1-4.9,4.8-8.9,3.6
			l-24.8-7C519.6,906.2,517.1,902.7,518,899.5z"/>
		<path class="st0" d="M513.3,910L513.3,910c0.9-3.1,5-4.7,9.1-3.6l25.4,7.2c4.1,1.2,6.8,4.7,5.9,7.8l0,0c-0.9,3.1-5,4.7-9.1,3.6
			l-25.4-7.2C515,916.6,512.4,913.1,513.3,910z"/>
		<path class="st3" d="M686.5,854.2L686.5,854.2c0.9-3.1,4.2-5,7.3-4.1l26.2,7.4c3.1,0.9,5,4.2,4.1,7.3l0,0c-0.9,3.1-4.2,5-7.3,4.1
			l-26.2-7.4C687.4,860.6,685.6,857.3,686.5,854.2z"/>
		<path class="st1" d="M686.4,876.6L686.4,876.6c0.9-3.1,4.2-5,7.3-4.1l28.1,8c3.1,0.9,5,4.2,4.1,7.3v0c-0.9,3.1-4.2,5-7.3,4.1
			l-28.1-8C687.3,883,685.5,879.8,686.4,876.6z"/>
		<path class="st0" d="M686.4,887.9L686.4,887.9c0.9-3.1,4.2-5,7.3-4.1l29,8.2c3.1,0.9,5,4.2,4.1,7.3l0,0c-0.9,3.1-4.2,5-7.3,4.1
			l-29-8.2C687.3,894.3,685.5,891,686.4,887.9z"/>
		<path class="st0" d="M686.3,910.3L686.3,910.3c0.9-3.1,4.2-5,7.3-4.1l30.9,8.8c3.1,0.9,5,4.2,4.1,7.3l0,0c-0.9,3.1-4.2,5-7.3,4.1
			l-30.9-8.8C687.3,916.7,685.4,913.4,686.3,910.3z"/>
		<path class="st4" d="M686.3,921.5L686.3,921.5c0.9-3.1,4.2-5,7.3-4.1l31.8,9c3.1,0.9,5,4.2,4.1,7.3l0,0c-0.9,3.1-4.2,5-7.3,4.1
			l-31.8-9C687.2,927.9,685.4,924.7,686.3,921.5z"/>
		<path class="st3" d="M686.3,932.7L686.3,932.7c0.9-3.1,4.2-5,7.3-4.1l32.7,9.3c3.1,0.9,5,4.2,4.1,7.3l0,0c-0.9,3.1-4.2,5-7.3,4.1
			l-32.7-9.3C687.2,939.2,685.4,935.9,686.3,932.7z"/>
		<path class="st1" d="M686.2,944L686.2,944c0.9-3.1,4.2-5,7.3-4.1l33.7,9.6c3.1,0.9,5,4.2,4.1,7.3l0,0c-0.9,3.1-4.2,5-7.3,4.1
			l-33.7-9.6C687.2,950.4,685.4,947.1,686.2,944z"/>
		<path class="st0" d="M686.2,955.2L686.2,955.2c0.9-3.1,4.2-5,7.3-4.1l34.6,9.8c3.1,0.9,5,4.2,4.1,7.3v0c-0.9,3.1-4.2,5-7.3,4.1
			l-34.6-9.8C687.1,961.6,685.3,958.3,686.2,955.2z"/>
		<path class="st0" d="M645.1,820L645.1,820c0.9-3.1,2.9-5.3,4.4-4.9l11.9,3.4c1.5,0.4,2.1,3.3,1.2,6.5l0,0
			c-0.9,3.1-2.9,5.3-4.4,4.9l-11.9-3.4C644.7,826,644.2,823.1,645.1,820z"/>
		<path class="st1" d="M643.5,830.8L643.5,830.8c0.9-3.1,3.6-5.1,6.1-4.4l19.8,5.6c2.5,0.7,3.7,3.8,2.8,6.9l0,0
			c-0.9,3.1-3.6,5.1-6.1,4.4l-19.8-5.6C643.9,837,642.7,833.9,643.5,830.8z"/>
		<path class="st3" d="M642,841.6L642,841.6c0.9-3.1,2.9-5.3,4.4-4.9l12.8,3.6c1.5,0.4,2.1,3.3,1.2,6.5h0c-0.9,3.1-2.9,5.3-4.4,4.9
			l-12.8-3.6C641.6,847.6,641.1,844.7,642,841.6z"/>
		<path class="st1" d="M639,863.2L639,863.2c0.9-3.1,3.3-5.2,5.5-4.6l19.1,5.4c2.1,0.6,3.1,3.6,2.2,6.8l0,0
			c-0.9,3.1-3.3,5.2-5.5,4.6l-19.1-5.4C639.1,869.3,638.1,866.3,639,863.2z"/>
		<path class="st0" d="M637.4,874L637.4,874c0.9-3.1,3.4-5.2,5.7-4.5l20.9,5.9c2.3,0.6,3.4,3.7,2.5,6.8l0,0
			c-0.9,3.1-3.4,5.2-5.7,4.5l-20.9-5.9C637.7,880.2,636.6,877.1,637.4,874z"/>
		<path class="st0" d="M634.4,895.6L634.4,895.6c0.9-3.1,3.5-5.1,5.8-4.5l23,6.5c2.3,0.7,3.5,3.7,2.6,6.9l0,0
			c-0.9,3.1-3.5,5.1-5.8,4.5l-23-6.5C634.7,901.8,633.5,898.7,634.4,895.6z"/>
		<path class="st4" d="M632.9,906.3L632.9,906.3c0.9-3.1,2.9-5.3,4.4-4.9l15.5,4.4c1.5,0.4,2.1,3.3,1.2,6.5l0,0
			c-0.9,3.1-2.9,5.3-4.4,4.9l-15.5-4.4C632.5,912.4,632,909.5,632.9,906.3z"/>
		<path class="st3" d="M631.4,917.1L631.4,917.1c0.9-3.1,3.6-5.1,6.1-4.4L663,920c2.5,0.7,3.7,3.8,2.8,6.9l0,0
			c-0.9,3.1-3.6,5.1-6.1,4.4l-25.6-7.3C631.7,923.4,630.5,920.3,631.4,917.1z"/>
		<path class="st1" d="M629.8,927.9L629.8,927.9c0.9-3.1,3.6-5.1,6.1-4.4l26.9,7.6c2.5,0.7,3.8,3.8,2.9,7l0,0
			c-0.9,3.1-3.6,5.1-6.1,4.4l-26.9-7.6C630.2,934.2,628.9,931.1,629.8,927.9z"/>
		<path class="st0" d="M628.3,938.7L628.3,938.7c0.9-3.1,3.4-5.2,5.5-4.6l23.8,6.8c2.2,0.6,3.2,3.7,2.3,6.8l0,0
			c-0.9,3.1-3.4,5.2-5.5,4.6l-23.8-6.8C628.4,944.9,627.4,941.9,628.3,938.7z"/>
	</g>
	<g>
		<path class="st3" d="M1021.8,610.3l8.3,52.9c0.3,2.2-0.4,4.5-2,6.1L896,797.5c-1.8,1.7-4.3,2.4-6.7,1.7l-48.9-13.5
			c-5.1-1.4-6.7-7.8-2.8-11.5l172.7-167.6C1014.3,602.7,1021,604.9,1021.8,610.3z"/>
		<path class="st4" d="M874.2,533.6l143,66.3c4.3,2,5.2,7.6,1.9,10.9L843.7,780.9c-3,2.9-7.8,2.4-10.1-0.9l-85.8-121.8
			c-1.9-2.7-3.5-4.5-1.4-6.5c8.2-8,115.9-112.4,115.9-112.4C868.7,532.9,871.6,532.4,874.2,533.6z"/>
		<path class="st2" d="M870.6,544L850,564c-2.7,2.6-2.1,7,1.1,8.8l114.8,66.8c2.2,1.3,4.9,0.9,6.7-0.8l29.4-28.5
			c2.8-2.7,2-7.4-1.5-9.1L876.9,543C874.8,542,872.3,542.4,870.6,544z"/>
		<path class="st2" d="M832.9,580.6l-14.6,14.2c-2.4,2.3-2.2,6.3,0.4,8.4l101.1,80.1c2.2,1.7,5.3,1.6,7.4-0.4l26-25.2
			c2.6-2.5,2.1-6.9-1-8.8l-112.4-69.1C837.5,578.6,834.7,578.9,832.9,580.6z"/>
		<path class="st2" d="M810.3,609.7l96.6,84.4c2.5,2.1,2.6,5.9,0.2,8.2l-21,20.4c-2.3,2.2-5.9,2.1-8-0.2l-86.9-93.9
			c-2.1-2.2-2-5.7,0.2-7.8l11.3-10.9C804.8,607.9,808.1,607.8,810.3,609.7z"/>
		<path class="st2" d="M782.3,637.9l84.3,96.4c2,2.2,1.8,5.6-0.3,7.7l-23.1,22.4c-2.4,2.4-6.4,2-8.4-0.7l-75.8-104.6
			c-1.6-2.2-1.4-5.3,0.6-7.3l14.6-14.2C776.5,635.4,780.2,635.5,782.3,637.9z"/>
		<path class="st4" d="M793.2,629.5L793.2,629.5c-2.3-2.3-2.4-5.9-0.4-7.8l8.5-8.2c2.1-2,5.6-1.7,7.8,0.6l0,0
			c2.3,2.3,2.4,5.9,0.4,7.8l-8.5,8.2C799,632.1,795.5,631.9,793.2,629.5z"/>
		<path class="st3" d="M800.9,637.8L800.9,637.8c-2.3-2.3-2.2-6.1,0.1-8.4l10.5-10.2c2.3-2.3,6.1-2.2,8.4,0.1v0
			c2.3,2.3,2.2,6.1-0.1,8.4l-10.5,10.2C806.9,640.2,803.1,640.1,800.9,637.8z"/>
		<path class="st1" d="M808.5,646.1L808.5,646.1c-2.3-2.3-3-5.4-1.5-6.8l6.9-6.7c1.4-1.4,4.4-0.6,6.7,1.7l0,0c2.3,2.3,3,5.4,1.5,6.8
			l-6.9,6.7C813.8,649.2,810.8,648.4,808.5,646.1z"/>
		<path class="st4" d="M816.2,654.4L816.2,654.4c-2.3-2.3-2.2-6.1,0.1-8.4l12.2-11.8c2.3-2.3,6.1-2.2,8.4,0.1l0,0
			c2.3,2.3,2.2,6.1-0.1,8.4l-12.2,11.8C822.2,656.8,818.5,656.7,816.2,654.4z"/>
		<path class="st4" d="M831.5,671L831.5,671c-2.3-2.3-2.6-5.7-0.6-7.6l11.3-11c1.9-1.9,5.3-1.5,7.6,0.9l0,0c2.3,2.3,2.6,5.7,0.6,7.6
			l-11.3,11C837.2,673.7,833.8,673.3,831.5,671z"/>
		<path class="st1" d="M839.2,679.3L839.2,679.3c-2.3-2.3-2.2-6.1,0.1-8.4l14.7-14.2c2.3-2.3,6.1-2.2,8.4,0.1v0
			c2.3,2.3,2.2,6.1-0.1,8.4l-14.7,14.2C845.2,681.7,841.5,681.6,839.2,679.3z"/>
		<path class="st3" d="M846.9,687.6L846.9,687.6c-2.3-2.3-2.5-5.8-0.4-7.8l13.4-13c2-2,5.5-1.7,7.8,0.7v0c2.3,2.3,2.5,5.8,0.4,7.8
			l-13.4,13C852.6,690.2,849.2,689.9,846.9,687.6z"/>
		<path class="st4" d="M854.6,695.9L854.6,695.9c-2.3-2.3-2.3-6-0.1-8.1l15.5-15c2.2-2.2,5.9-2,8.1,0.3l0,0c2.3,2.3,2.3,6,0.1,8.1
			l-15.5,15C860.5,698.3,856.8,698.2,854.6,695.9z"/>
		<path class="st1" d="M862.2,704.1L862.2,704.1c-2.3-2.3-2.4-5.9-0.2-8l15.9-15.4c2.2-2.1,5.8-1.9,8,0.4l0,0c2.3,2.3,2.4,5.9,0.2,8
			l-15.9,15.4C868.1,706.7,864.5,706.5,862.2,704.1z"/>
		<path class="st0" d="M869.9,712.4L869.9,712.4c-2.3-2.3-3-5.3-1.6-6.7l10.6-10.3c1.4-1.3,4.3-0.5,6.6,1.8v0c2.3,2.3,3,5.3,1.6,6.7
			l-10.6,10.3C875.1,715.6,872.2,714.8,869.9,712.4z"/>
		<path class="st1" d="M862.9,579.2L862.9,579.2c-2.3-2.3-2.2-6.1,0.1-8.4l18.9-18.3c2.3-2.3,6.1-2.2,8.4,0.1l0,0
			c2.3,2.3,2.2,6.1-0.1,8.4l-18.9,18.3C869,581.6,865.2,581.5,862.9,579.2z"/>
		<path class="st1" d="M760.9,660.8L760.9,660.8c-2.3-2.3-2.3-6-0.1-8.1l13.5-13.1c2.2-2.1,5.8-2,8.1,0.4v0c2.3,2.3,2.3,6,0.1,8.1
			L769,661.2C766.8,663.3,763.2,663.1,760.9,660.8z"/>
		<path class="st3" d="M774.3,679.3L774.3,679.3c-2.3-2.3-2.2-6.1,0.2-8.4l14.5-14.1c2.4-2.3,6.1-2.3,8.4,0.1v0
			c2.3,2.3,2.2,6.1-0.2,8.4l-14.5,14.1C780.3,681.7,776.6,681.7,774.3,679.3z"/>
		<path class="st4" d="M781,688.6L781,688.6c-2.3-2.3-2.1-6.2,0.3-8.5l15-14.6c2.4-2.4,6.3-2.4,8.5-0.1l0,0c2.3,2.3,2.1,6.2-0.3,8.5
			l-15,14.6C787.1,690.9,783.2,690.9,781,688.6z"/>
		<path class="st1" d="M787.6,697.8L787.6,697.8c-2.3-2.3-2.1-6.2,0.5-8.7l15.5-15.1c2.5-2.4,6.4-2.5,8.7-0.2h0
			c2.3,2.3,2.1,6.2-0.5,8.7l-15.5,15.1C793.8,700.1,789.9,700.2,787.6,697.8z"/>
		<path class="st4" d="M801,716.4L801,716.4c-2.3-2.3-1.9-6.4,0.7-9l16.5-16c2.7-2.6,6.7-2.8,9-0.5l0,0c2.3,2.3,1.9,6.4-0.7,9
			l-16.5,16C807.3,718.5,803.3,718.7,801,716.4z"/>
		<path class="st0" d="M807.7,725.6L807.7,725.6c-2.3-2.3-1.9-6.4,0.9-9.1l17-16.5c2.8-2.7,6.8-3,9.1-0.6l0,0
			c2.3,2.3,1.9,6.4-0.9,9.1l-17,16.5C814,727.7,809.9,728,807.7,725.6z"/>
		<path class="st4" d="M814.3,734.9L814.3,734.9c-2.3-2.3-1.8-6.5,1-9.2l17.5-17c2.8-2.8,7-3.1,9.3-0.8l0,0c2.3,2.3,1.8,6.5-1,9.2
			l-17.5,17C820.8,736.9,816.6,737.2,814.3,734.9z"/>
		<path class="st3" d="M821,744.1L821,744.1c-2.3-2.3-1.7-6.5,1.2-9.4l18-17.5c2.9-2.8,7.1-3.2,9.4-0.9l0,0c2.3,2.3,1.7,6.5-1.2,9.4
			l-18,17.5C827.5,746.1,823.3,746.5,821,744.1z"/>
		<path class="st4" d="M827.7,753.4L827.7,753.4c-2.3-2.3-1.7-6.6,1.3-9.5l18.5-17.9c3-2.9,7.3-3.4,9.6-1l0,0
			c2.3,2.3,1.7,6.6-1.3,9.5l-18.5,17.9C834.2,755.3,830,755.7,827.7,753.4z"/>
		<path class="st0" d="M834.4,762.7L834.4,762.7c-2.3-2.3-1.6-6.7,1.5-9.7l19-18.4c3.1-3,7.4-3.5,9.7-1.2l0,0
			c2.3,2.3,1.6,6.7-1.5,9.7l-19,18.4C841,764.5,836.6,765,834.4,762.7z"/>
		<path class="st3" d="M872.7,584.8L872.7,584.8c-2.3-2.3-2.2-6.1,0.1-8.4l19.6-19c2.3-2.3,6.1-2.2,8.4,0.1l0,0
			c2.3,2.3,2.2,6.1-0.1,8.4l-19.6,19C878.7,587.2,874.9,587.2,872.7,584.8z"/>
		<path class="st1" d="M892.1,596.1L892.1,596.1c-2.3-2.3-2.2-6.1,0.1-8.4l21-20.3c2.3-2.3,6.1-2.2,8.4,0.1l0,0
			c2.3,2.3,2.2,6.1-0.1,8.4l-21,20.3C898.1,598.5,894.3,598.4,892.1,596.1z"/>
		<path class="st0" d="M901.8,601.7L901.8,601.7c-2.3-2.3-2.2-6.1,0.1-8.4l21.6-21c2.3-2.3,6.1-2.2,8.4,0.1v0
			c2.3,2.3,2.2,6.1-0.1,8.4l-21.6,21C907.8,604.1,904,604.1,901.8,601.7z"/>
		<path class="st0" d="M921.2,613L921.2,613c-2.3-2.3-2.2-6.1,0.1-8.4l23-22.4c2.3-2.3,6.1-2.2,8.4,0.1l0,0c2.3,2.3,2.2,6.1-0.1,8.4
			l-23,22.4C927.2,615.4,923.4,615.3,921.2,613z"/>
		<path class="st4" d="M930.9,618.6L930.9,618.6c-2.3-2.3-2.2-6.1,0.1-8.4l23.7-23c2.3-2.3,6.1-2.2,8.4,0.1l0,0
			c2.3,2.3,2.2,6.1-0.1,8.4l-23.7,23C936.9,621,933.2,621,930.9,618.6z"/>
		<path class="st3" d="M940.6,624.3L940.6,624.3c-2.3-2.3-2.2-6.1,0.1-8.4l24.4-23.7c2.3-2.3,6.1-2.2,8.4,0.1l0,0
			c2.3,2.3,2.2,6.1-0.1,8.4l-24.4,23.7C946.6,626.7,942.9,626.6,940.6,624.3z"/>
		<path class="st1" d="M950.3,629.9L950.3,629.9c-2.3-2.3-2.2-6.1,0.1-8.4l25.1-24.4c2.3-2.3,6.1-2.2,8.4,0.1l0,0
			c2.3,2.3,2.2,6.1-0.1,8.4L958.6,630C956.3,632.3,952.6,632.2,950.3,629.9z"/>
		<path class="st0" d="M960,635.5L960,635.5c-2.3-2.3-2.2-6.1,0.1-8.4l25.8-25.1c2.3-2.3,6.1-2.2,8.4,0.1l0,0
			c2.3,2.3,2.2,6.1-0.1,8.4l-25.8,25.1C966,637.9,962.3,637.9,960,635.5z"/>
		<path class="st0" d="M822.3,603.6L822.3,603.6c-2.3-2.3-3.2-5.1-2-6.2l8.9-8.6c1.1-1.1,3.9-0.1,6.2,2.2l0,0c2.3,2.3,3.2,5.1,2,6.2
			l-8.9,8.6C827.4,606.9,824.6,605.9,822.3,603.6z"/>
		<path class="st1" d="M830.9,610.3L830.9,610.3c-2.3-2.3-2.6-5.7-0.8-7.5l14.7-14.3c1.8-1.8,5.2-1.3,7.4,1h0
			c2.3,2.3,2.6,5.7,0.8,7.5l-14.7,14.3C836.5,613.1,833.2,612.6,830.9,610.3z"/>
		<path class="st3" d="M839.5,617L839.5,617c-2.3-2.3-3.2-5.1-2-6.2l9.5-9.3c1.1-1.1,3.9-0.1,6.2,2.2h0c2.3,2.3,3.2,5.1,2,6.2
			l-9.5,9.3C844.5,620.3,841.8,619.3,839.5,617z"/>
		<path class="st1" d="M856.7,630.4L856.7,630.4c-2.3-2.3-2.8-5.5-1.2-7l14.2-13.8c1.6-1.5,4.7-0.9,7,1.4l0,0c2.3,2.3,2.8,5.5,1.2,7
			l-14.2,13.8C862.1,633.4,858.9,632.8,856.7,630.4z"/>
		<path class="st0" d="M865.3,637.1L865.3,637.1c-2.3-2.3-2.7-5.6-1.1-7.2l15.6-15.2c1.7-1.6,4.9-1.1,7.2,1.3l0,0
			c2.3,2.3,2.7,5.6,1.1,7.2l-15.6,15.2C870.7,640.1,867.5,639.5,865.3,637.1z"/>
		<path class="st0" d="M882.4,650.6L882.4,650.6c-2.3-2.3-2.7-5.6-1-7.3l17.1-16.6c1.7-1.7,5-1.2,7.3,1.2v0c2.3,2.3,2.7,5.6,1,7.3
			l-17.1,16.6C888,653.5,884.7,652.9,882.4,650.6z"/>
		<path class="st4" d="M891,657.3L891,657.3c-2.3-2.3-3.2-5.1-2-6.2l11.6-11.2c1.1-1.1,3.9-0.1,6.2,2.2l0,0c2.3,2.3,3.2,5.1,2,6.2
			l-11.6,11.2C896.1,660.6,893.3,659.6,891,657.3z"/>
		<path class="st3" d="M899.6,664L899.6,664c-2.3-2.3-2.6-5.7-0.8-7.5l19.1-18.5c1.8-1.8,5.2-1.3,7.4,1l0,0c2.3,2.3,2.6,5.7,0.8,7.5
			L907,665.1C905.2,666.8,901.9,666.4,899.6,664z"/>
		<path class="st1" d="M908.2,670.7L908.2,670.7c-2.3-2.3-2.6-5.7-0.7-7.5l20-19.5c1.9-1.8,5.2-1.4,7.5,1l0,0
			c2.3,2.3,2.6,5.7,0.7,7.5l-20,19.5C913.8,673.5,910.5,673.1,908.2,670.7z"/>
		<path class="st0" d="M916.8,677.5L916.8,677.5c-2.3-2.3-2.8-5.5-1.2-7.1l17.7-17.2c1.6-1.6,4.8-0.9,7,1.4l0,0
			c2.3,2.3,2.8,5.5,1.2,7.1l-17.7,17.2C922.2,680.4,919.1,679.8,916.8,677.5z"/>
	</g>
	
		<ellipse transform="matrix(0.1701 -0.9854 0.9854 0.1701 -102.4697 1014.1292)" class="st1" cx="550.9" cy="567.9" rx="108.9" ry="95.5"/>
	<circle class="st3" cx="497.9" cy="540" r="11.7"/>
	<circle class="st3" cx="591.1" cy="536.3" r="11.7"/>
	<path class="st19" d="M507.2,577.7c14.5-10.8,50.7-15,63.9,0"/>
	<path class="st19" d="M509.6,544.9c-5.9,3.5-20.8,4.8-26.2,0"/>
	<path class="st19" d="M609.3,543.3c-5.9,3.5-20.8,4.8-26.2,0"/>
</g>
</svg>
