<?xml version="1.0" encoding="utf-8"?>
<!-- Generator: Adobe Illustrator 25.2.1, SVG Export Plug-In . SVG Version: 6.00 Build 0)  -->
<svg version="1.1" xmlns="http://www.w3.org/2000/svg" xmlns:xlink="http://www.w3.org/1999/xlink" x="0px" y="0px"
	 viewBox="0 0 1080 1080" style="enable-background:new 0 0 1080 1080;" xml:space="preserve">
<style type="text/css">
	.st0{fill:#6900FF;}
	.st1{fill:#8761FF;}
	.st2{fill:#BBB8FF;}
	.st3{fill:#260063;}
	.st4{fill:#4700B7;}
	.st5{fill:none;stroke:#BBB8FF;stroke-width:15;stroke-linecap:round;stroke-miterlimit:10;}
	.st6{fill:none;stroke:#6900FF;stroke-width:10;stroke-linecap:round;stroke-miterlimit:10;}
	.st7{fill:none;stroke:#8761FF;stroke-width:10;stroke-linecap:round;stroke-miterlimit:10;}
	.st8{fill:#BBB8FF;stroke:#4700B7;stroke-width:40;stroke-miterlimit:10;}
	.st9{fill:none;stroke:#8761FF;stroke-width:20;stroke-linecap:round;stroke-miterlimit:10;}
	.st10{fill:none;stroke:#6900FF;stroke-width:20;stroke-linecap:round;stroke-miterlimit:10;}
	.st11{fill:none;stroke:#BBB8FF;stroke-width:40;stroke-linecap:round;stroke-miterlimit:10;}
	.st12{fill:#FFFFFF;}
	.st13{fill:none;stroke:#6900FF;stroke-width:40;stroke-linecap:round;stroke-linejoin:round;stroke-miterlimit:10;}
	.st14{fill:none;stroke:#6900FF;stroke-width:20;stroke-miterlimit:10;}
	.st15{fill:#808080;}
	.st16{fill:none;stroke:#8761FF;stroke-width:10;stroke-linecap:round;stroke-linejoin:round;stroke-miterlimit:10;}
	.st17{fill:none;stroke:#BBB8FF;stroke-width:10;stroke-linecap:round;stroke-linejoin:round;stroke-miterlimit:10;}
	.st18{fill:none;stroke:#4700B7;stroke-width:10;stroke-linecap:round;stroke-linejoin:round;stroke-miterlimit:10;}
	.st19{fill:none;stroke:#260063;stroke-width:10;stroke-linecap:round;stroke-miterlimit:10;}
</style>
<g id="COULEURS">
</g>
<g id="Jauge__x2B_accueil">
</g>
<g id="images">
</g>
<g id="TEXTE">
</g>
<g id="jauge">
</g>
<g id="picto_accueil">
</g>
<g id="FOND">
</g>
<g id="PICTOS">
</g>
<g id="bulles_Source__x2B_dico">
</g>
<g id="règles">
</g>
<g id="LOGO">
	<path class="st1" d="M295.2,764.2c-323.3,0-335.2,191.4-185.1,191.4c187.3,0,157.5,39.7,232.2,25c218.3-42.9,209.9,73.4,333.9-6.1
		c95.5-61.3,245.6-47.5,280.3-47.5c126.9,0,169.9-151-39.8-151C788.2,775.9,537.8,764.2,295.2,764.2z"/>
	<g>
		<path class="st3" d="M725.2,115.7l140.2,99c5.9,4.2,9.4,11,9.4,18.2v590c0,7.9-4.2,15.3-10.9,19.2l-140.2,82.4
			c-14.6,8.6-32.8-2.1-32.8-19.2V134C690.8,116,710.7,105.5,725.2,115.7z"/>
		<path class="st4" d="M219,284.1L690.7,103c14.1-5.4,29.2,5,29.2,20.1v783.1c0,13.2-11.8,23.3-24.8,21.2L223.3,853
			c-10.4-1.6-18.1-1.8-18.1-11.2c0-36.8,0-517.5,0-517.5C205.2,295.3,210.7,287.3,219,284.1z"/>
		<path class="st2" d="M235.1,315.6v91.9c0,11.9,11.3,20.4,22.7,17.2l410-114.8c7.7-2.2,13.1-9.2,13.1-17.2V161.3
			c0-12.5-12.5-21.2-24.2-16.8l-410,154.3C239.7,301.5,235.1,308.1,235.1,315.6z"/>
		<path class="st2" d="M235.1,484.1v65.3c0,10.8,9.5,19.1,20.2,17.7l410-53.5c8.9-1.2,15.6-8.8,15.6-17.7v-116
			c0-11.7-11-20.2-22.3-17.3l-410,104.3C240.6,468.8,235.1,475.9,235.1,484.1z"/>
		<path class="st2" d="M251.5,601.1l410-33.8c10.4-0.9,19.4,7.4,19.4,17.8v94c0,10.1-8.3,18.1-18.3,17.9l-410-9.9
			c-9.7-0.2-17.5-8.2-17.5-17.9V619C235.1,609.7,242.2,601.9,251.5,601.1z"/>
		<path class="st2" d="M253.9,728.5l410,21.1c9.5,0.5,17,8.3,17,17.9v103.3c0,10.9-9.7,19.3-20.5,17.7l-410-59.2
			c-8.8-1.3-15.3-8.8-15.3-17.7v-65.2C235.1,736.1,243.7,728,253.9,728.5z"/>
		<path class="st4" d="M258.9,684.5L258.9,684.5c-10.5,0-18.9-7.4-18.9-16.6V630c0-9.2,8.5-16.6,18.9-16.6h0
			c10.5,0,18.9,7.4,18.9,16.6v37.9C277.8,677.1,269.3,684.5,258.9,684.5z"/>
		<path class="st3" d="M295.1,685.4L295.1,685.4c-10.5,0-18.9-8.5-18.9-18.9v-46.9c0-10.5,8.5-18.9,18.9-18.9h0
			c10.5,0,18.9,8.5,18.9,18.9v46.9C314,676.9,305.5,685.4,295.1,685.4z"/>
		<path class="st1" d="M331.3,686.3L331.3,686.3c-10.5,0-18.9-5.2-18.9-11.6v-31c0-6.4,8.5-11.6,18.9-11.6h0
			c10.5,0,18.9,5.2,18.9,11.6v31C350.2,681.1,341.7,686.3,331.3,686.3z"/>
		<path class="st4" d="M367.5,687.1L367.5,687.1c-10.5,0-18.9-8.5-18.9-18.9v-54.4c0-10.5,8.5-18.9,18.9-18.9h0
			c10.5,0,18.9,8.5,18.9,18.9v54.4C386.4,678.7,377.9,687.1,367.5,687.1z"/>
		<path class="st4" d="M439.9,688.9L439.9,688.9c-10.5,0-18.9-6.9-18.9-15.5v-50.6c0-8.6,8.5-15.5,18.9-15.5h0
			c10.5,0,18.9,6.9,18.9,15.5v50.6C458.8,681.9,450.4,688.9,439.9,688.9z"/>
		<path class="st1" d="M476.1,689.7L476.1,689.7c-10.5,0-18.9-8.5-18.9-18.9v-65.5c0-10.5,8.5-18.9,18.9-18.9h0
			c10.5,0,18.9,8.5,18.9,18.9v65.5C495,681.2,486.6,689.7,476.1,689.7z"/>
		<path class="st3" d="M512.3,690.6L512.3,690.6c-10.5,0-18.9-7.3-18.9-16.4v-60c0-9.1,8.5-16.4,18.9-16.4h0
			c10.5,0,18.9,7.3,18.9,16.4v60C531.3,683.2,522.8,690.6,512.3,690.6z"/>
		<path class="st4" d="M548.5,691.4L548.5,691.4c-10.5,0-18.9-8-18.9-18v-69.2c0-9.9,8.5-18,18.9-18l0,0c10.5,0,18.9,8,18.9,18v69.2
			C567.5,683.4,559,691.4,548.5,691.4z"/>
		<path class="st1" d="M584.7,692.3L584.7,692.3c-10.5,0-18.9-7.8-18.9-17.5v-70.9c0-9.7,8.5-17.5,18.9-17.5h0
			c10.5,0,18.9,7.8,18.9,17.5v70.9C603.7,684.5,595.2,692.3,584.7,692.3z"/>
		<path class="st0" d="M620.9,693.2L620.9,693.2c-10.5,0-18.9-5-18.9-11.2v-47.4c0-6.2,8.5-11.2,18.9-11.2l0,0
			c10.5,0,18.9,5,18.9,11.2V682C639.9,688.2,631.4,693.2,620.9,693.2z"/>
		<path class="st1" d="M298.9,411.7L298.9,411.7c-10.5,0-18.9-8.5-18.9-18.9v-84.3c0-10.5,8.5-18.9,18.9-18.9h0
			c10.5,0,18.9,8.5,18.9,18.9v84.3C317.8,403.2,309.3,411.7,298.9,411.7z"/>
		<path class="st1" d="M258.9,828.6L258.9,828.6c-10.5,0-18.9-8-18.9-17.8v-60.5c0-9.8,8.5-17.8,18.9-17.8h0
			c10.5,0,18.9,8,18.9,17.8v60.5C277.8,820.6,269.3,828.6,258.9,828.6z"/>
		<path class="st3" d="M331.3,839.2L331.3,839.2c-10.5,0-18.9-8.6-18.9-19.1v-64.9c0-10.6,8.5-19.1,18.9-19.1h0
			c10.5,0,18.9,8.6,18.9,19.1v64.9C350.2,830.7,341.7,839.2,331.3,839.2z"/>
		<path class="st4" d="M367.5,844.5L367.5,844.5c-10.5,0-18.9-8.8-18.9-19.8v-67.1c0-10.9,8.5-19.8,18.9-19.8h0
			c10.5,0,18.9,8.8,18.9,19.8v67.1C386.4,835.7,377.9,844.5,367.5,844.5z"/>
		<path class="st1" d="M403.7,849.8L403.7,849.8c-10.5,0-18.9-9.1-18.9-20.4v-69.3c0-11.3,8.5-20.4,18.9-20.4h0
			c10.5,0,18.9,9.1,18.9,20.4v69.3C422.6,840.7,414.2,849.8,403.7,849.8z"/>
		<path class="st4" d="M476.1,860.5L476.1,860.5c-10.5,0-18.9-9.7-18.9-21.7V765c0-12,8.5-21.7,18.9-21.7h0
			c10.5,0,18.9,9.7,18.9,21.7v73.7C495,850.8,486.6,860.5,476.1,860.5z"/>
		<path class="st0" d="M512.3,865.8L512.3,865.8c-10.5,0-18.9-10-18.9-22.4v-75.9c0-12.4,8.5-22.4,18.9-22.4h0
			c10.5,0,18.9,10,18.9,22.4v75.9C531.3,855.8,522.8,865.8,512.3,865.8z"/>
		<path class="st4" d="M548.5,871.1L548.5,871.1c-10.5,0-18.9-10.3-18.9-23v-78.1c0-12.7,8.5-23,18.9-23l0,0
			c10.5,0,18.9,10.3,18.9,23v78.1C567.5,860.8,559,871.1,548.5,871.1z"/>
		<path class="st3" d="M584.7,876.4L584.7,876.4c-10.5,0-18.9-10.6-18.9-23.7v-80.4c0-13.1,8.5-23.7,18.9-23.7h0
			c10.5,0,18.9,10.6,18.9,23.7v80.4C603.7,865.8,595.2,876.4,584.7,876.4z"/>
		<path class="st4" d="M620.9,881.8L620.9,881.8c-10.5,0-18.9-10.9-18.9-24.3v-82.6c0-13.4,8.5-24.3,18.9-24.3l0,0
			c10.5,0,18.9,10.9,18.9,24.3v82.6C639.9,870.9,631.4,881.8,620.9,881.8z"/>
		<path class="st0" d="M657.2,887.1L657.2,887.1c-10.5,0-18.9-11.2-18.9-25v-84.8c0-13.8,8.5-25,18.9-25h0c10.5,0,18.9,11.2,18.9,25
			v84.8C676.1,875.9,667.6,887.1,657.2,887.1z"/>
		<path class="st3" d="M333.5,401.9L333.5,401.9c-10.5,0-18.9-8.5-18.9-18.9v-87.4c0-10.5,8.5-18.9,18.9-18.9h0
			c10.5,0,18.9,8.5,18.9,18.9V383C352.4,393.5,343.9,401.9,333.5,401.9z"/>
		<path class="st1" d="M402.7,382.5L402.7,382.5c-10.5,0-18.9-8.5-18.9-18.9v-93.6c0-10.5,8.5-18.9,18.9-18.9h0
			c10.5,0,18.9,8.5,18.9,18.9v93.6C421.7,374,413.2,382.5,402.7,382.5z"/>
		<path class="st0" d="M437.4,372.7L437.4,372.7c-10.5,0-18.9-8.5-18.9-18.9v-96.7c0-10.5,8.5-18.9,18.9-18.9h0
			c10.5,0,18.9,8.5,18.9,18.9v96.7C456.3,364.2,447.8,372.7,437.4,372.7z"/>
		<path class="st0" d="M506.6,353.2L506.6,353.2c-10.5,0-18.9-8.5-18.9-18.9V231.3c0-10.5,8.5-18.9,18.9-18.9h0
			c10.5,0,18.9,8.5,18.9,18.9v102.9C525.6,344.7,517.1,353.2,506.6,353.2z"/>
		<path class="st4" d="M541.3,343.5L541.3,343.5c-10.5,0-18.9-8.5-18.9-18.9v-106c0-10.5,8.5-18.9,18.9-18.9h0
			c10.5,0,18.9,8.5,18.9,18.9v106C560.2,335,551.7,343.5,541.3,343.5z"/>
		<path class="st3" d="M575.9,333.7L575.9,333.7c-10.5,0-18.9-8.5-18.9-18.9V205.6c0-10.5,8.5-18.9,18.9-18.9h0
			c10.5,0,18.9,8.5,18.9,18.9v109.1C594.8,325.2,586.4,333.7,575.9,333.7z"/>
		<path class="st1" d="M610.5,324L610.5,324c-10.5,0-18.9-8.5-18.9-18.9V192.8c0-10.5,8.5-18.9,18.9-18.9h0
			c10.5,0,18.9,8.5,18.9,18.9V305C629.5,315.5,621,324,610.5,324z"/>
		<path class="st0" d="M645.2,314.2L645.2,314.2c-10.5,0-18.9-8.5-18.9-18.9V179.9c0-10.5,8.5-18.9,18.9-18.9h0
			c10.5,0,18.9,8.5,18.9,18.9v115.4C664.1,305.7,655.6,314.2,645.2,314.2z"/>
		<path class="st0" d="M264.2,559.6L264.2,559.6c-10.5,0-18.9-4.1-18.9-9.2v-39.6c0-5.1,8.5-9.2,18.9-9.2h0
			c10.5,0,18.9,4.1,18.9,9.2v39.6C283.2,555.4,274.7,559.6,264.2,559.6z"/>
		<path class="st1" d="M298.9,554.8L298.9,554.8c-10.5,0-18.9-6.6-18.9-14.8v-65.9c0-8.2,8.5-14.8,18.9-14.8h0
			c10.5,0,18.9,6.6,18.9,14.8V540C317.8,548.2,309.3,554.8,298.9,554.8z"/>
		<path class="st3" d="M333.5,550L333.5,550c-10.5,0-18.9-4.1-18.9-9.2v-42.7c0-5.1,8.5-9.2,18.9-9.2h0c10.5,0,18.9,4.1,18.9,9.2
			v42.7C352.4,545.9,343.9,550,333.5,550z"/>
		<path class="st1" d="M402.7,540.5L402.7,540.5c-10.5,0-18.9-5.8-18.9-12.9v-63.6c0-7.1,8.5-12.9,18.9-12.9h0
			c10.5,0,18.9,5.8,18.9,12.9v63.6C421.7,534.8,413.2,540.5,402.7,540.5z"/>
		<path class="st0" d="M437.4,535.8L437.4,535.8c-10.5,0-18.9-6.1-18.9-13.7v-69.8c0-7.5,8.5-13.7,18.9-13.7h0
			c10.5,0,18.9,6.1,18.9,13.7v69.8C456.3,529.6,447.8,535.8,437.4,535.8z"/>
		<path class="st0" d="M506.6,526.2L506.6,526.2c-10.5,0-18.9-6.3-18.9-14.1v-76.6c0-7.8,8.5-14.1,18.9-14.1h0
			c10.5,0,18.9,6.3,18.9,14.1v76.6C525.6,519.9,517.1,526.2,506.6,526.2z"/>
		<path class="st4" d="M541.3,521.5L541.3,521.5c-10.5,0-18.9-4.1-18.9-9.2v-51.8c0-5.1,8.5-9.2,18.9-9.2h0
			c10.5,0,18.9,4.1,18.9,9.2v51.8C560.2,517.3,551.7,521.5,541.3,521.5z"/>
		<path class="st3" d="M575.9,516.7L575.9,516.7c-10.5,0-18.9-6.6-18.9-14.8v-85.2c0-8.2,8.5-14.8,18.9-14.8h0
			c10.5,0,18.9,6.6,18.9,14.8v85.2C594.8,510.1,586.4,516.7,575.9,516.7z"/>
		<path class="st1" d="M610.5,512L610.5,512c-10.5,0-18.9-6.8-18.9-15.1v-89.5c0-8.3,8.5-15.1,18.9-15.1h0
			c10.5,0,18.9,6.8,18.9,15.1v89.5C629.5,505.2,621,512,610.5,512z"/>
		<path class="st0" d="M645.2,507.2L645.2,507.2c-10.5,0-18.9-5.8-18.9-13V415c0-7.2,8.5-13,18.9-13h0c10.5,0,18.9,5.8,18.9,13v79.2
			C664.1,501.4,655.6,507.2,645.2,507.2z"/>
	</g>
</g>
</svg>
