<?xml version="1.0" encoding="utf-8"?>
<!-- Generator: Adobe Illustrator 25.2.1, SVG Export Plug-In . SVG Version: 6.00 Build 0)  -->
<svg version="1.1" xmlns="http://www.w3.org/2000/svg" xmlns:xlink="http://www.w3.org/1999/xlink" x="0px" y="0px"
	 viewBox="0 0 1080 1080" style="enable-background:new 0 0 1080 1080;" xml:space="preserve">
<style type="text/css">
	.st0{fill:#6900FF;}
	.st1{fill:#8761FF;}
	.st2{fill:#BBB8FF;}
	.st3{fill:#260063;}
	.st4{fill:#4700B7;}
	.st5{fill:none;stroke:#BBB8FF;stroke-width:15;stroke-linecap:round;stroke-miterlimit:10;}
	.st6{fill:none;stroke:#6900FF;stroke-width:10;stroke-linecap:round;stroke-miterlimit:10;}
	.st7{fill:none;stroke:#8761FF;stroke-width:10;stroke-linecap:round;stroke-miterlimit:10;}
	.st8{fill:#BBB8FF;stroke:#4700B7;stroke-width:40;stroke-miterlimit:10;}
	.st9{fill:none;stroke:#8761FF;stroke-width:20;stroke-linecap:round;stroke-miterlimit:10;}
	.st10{fill:none;stroke:#6900FF;stroke-width:20;stroke-linecap:round;stroke-miterlimit:10;}
	.st11{fill:none;stroke:#BBB8FF;stroke-width:40;stroke-linecap:round;stroke-miterlimit:10;}
	.st12{fill:#FFFFFF;}
	.st13{fill:none;stroke:#6900FF;stroke-width:40;stroke-linecap:round;stroke-linejoin:round;stroke-miterlimit:10;}
	.st14{fill:none;stroke:#6900FF;stroke-width:20;stroke-miterlimit:10;}
	.st15{fill:#808080;}
	.st16{fill:none;stroke:#8761FF;stroke-width:10;stroke-linecap:round;stroke-linejoin:round;stroke-miterlimit:10;}
	.st17{fill:none;stroke:#BBB8FF;stroke-width:10;stroke-linecap:round;stroke-linejoin:round;stroke-miterlimit:10;}
	.st18{fill:none;stroke:#4700B7;stroke-width:10;stroke-linecap:round;stroke-linejoin:round;stroke-miterlimit:10;}
	.st19{fill:none;stroke:#260063;stroke-width:10;stroke-linecap:round;stroke-miterlimit:10;}
</style>
<g id="COULEURS">
</g>
<g id="Jauge__x2B_accueil">
</g>
<g id="images">
</g>
<g id="TEXTE">
</g>
<g id="jauge">
</g>
<g id="picto_accueil">
</g>
<g id="FOND">
</g>
<g id="PICTOS">
</g>
<g id="bulles_Source__x2B_dico">
</g>
<g id="règles">
</g>
<g id="LOGO">
	<g>
		<path class="st3" d="M633.1,247.8l44,31c1.8,1.3,2.9,3.4,2.9,5.7v185c0,2.5-1.3,4.8-3.4,6l-44,25.8c-4.6,2.7-10.3-0.7-10.3-6
			V253.5C622.3,247.9,628.5,244.6,633.1,247.8z"/>
		<path class="st4" d="M474.3,300.6l147.9-56.8c4.4-1.7,9.2,1.6,9.2,6.3v245.5c0,4.1-3.7,7.3-7.8,6.7l-147.9-23.3
			c-3.3-0.5-5.7-0.6-5.7-3.5c0-11.5,0-162.3,0-162.3C470,304.1,471.7,301.6,474.3,300.6z"/>
		<path class="st2" d="M479.4,310.4v28.8c0,3.7,3.5,6.4,7.1,5.4l128.5-36c2.4-0.7,4.1-2.9,4.1-5.4v-41.2c0-3.9-3.9-6.6-7.6-5.3
			L483,305.2C480.8,306,479.4,308.1,479.4,310.4z"/>
		<path class="st2" d="M479.4,363.3v20.5c0,3.4,3,6,6.3,5.6l128.5-16.8c2.8-0.4,4.9-2.7,4.9-5.6v-36.4c0-3.7-3.4-6.3-7-5.4
			l-128.5,32.7C481.1,358.5,479.4,360.7,479.4,363.3z"/>
		<path class="st2" d="M484.5,400l128.5-10.6c3.3-0.3,6.1,2.3,6.1,5.6v29.5c0,3.2-2.6,5.7-5.7,5.6l-128.5-3.1
			c-3-0.1-5.5-2.6-5.5-5.6v-15.8C479.4,402.6,481.6,400.2,484.5,400z"/>
		<path class="st2" d="M485.3,439.9l128.5,6.6c3,0.2,5.3,2.6,5.3,5.6v32.4c0,3.4-3,6-6.4,5.6l-128.5-18.6c-2.8-0.4-4.8-2.8-4.8-5.6
			v-20.5C479.4,442.3,482.1,439.7,485.3,439.9z"/>
		<path class="st4" d="M486.8,426.1L486.8,426.1c-3.3,0-5.9-2.3-5.9-5.2V409c0-2.9,2.7-5.2,5.9-5.2l0,0c3.3,0,5.9,2.3,5.9,5.2v11.9
			C492.8,423.8,490.1,426.1,486.8,426.1z"/>
		<path class="st3" d="M498.2,426.4L498.2,426.4c-3.3,0-5.9-2.7-5.9-5.9v-14.7c0-3.3,2.7-5.9,5.9-5.9h0c3.3,0,5.9,2.7,5.9,5.9v14.7
			C504.1,423.7,501.5,426.4,498.2,426.4z"/>
		<path class="st1" d="M509.6,426.7L509.6,426.7c-3.3,0-5.9-1.6-5.9-3.6v-9.7c0-2,2.7-3.6,5.9-3.6l0,0c3.3,0,5.9,1.6,5.9,3.6v9.7
			C515.5,425,512.8,426.7,509.6,426.7z"/>
		<path class="st4" d="M520.9,426.9L520.9,426.9c-3.3,0-5.9-2.7-5.9-5.9v-17c0-3.3,2.7-5.9,5.9-5.9l0,0c3.3,0,5.9,2.7,5.9,5.9v17
			C526.8,424.3,524.2,426.9,520.9,426.9z"/>
		<path class="st4" d="M543.6,427.5L543.6,427.5c-3.3,0-5.9-2.2-5.9-4.9v-15.9c0-2.7,2.7-4.9,5.9-4.9l0,0c3.3,0,5.9,2.2,5.9,4.9
			v15.9C549.5,425.3,546.9,427.5,543.6,427.5z"/>
		<path class="st1" d="M555,427.7L555,427.7c-3.3,0-5.9-2.7-5.9-5.9v-20.5c0-3.3,2.7-5.9,5.9-5.9l0,0c3.3,0,5.9,2.7,5.9,5.9v20.5
			C560.9,425.1,558.2,427.7,555,427.7z"/>
		<path class="st3" d="M566.3,428L566.3,428c-3.3,0-5.9-2.3-5.9-5.1v-18.8c0-2.8,2.7-5.1,5.9-5.1l0,0c3.3,0,5.9,2.3,5.9,5.1v18.8
			C572.3,425.7,569.6,428,566.3,428z"/>
		<path class="st4" d="M577.7,428.3L577.7,428.3c-3.3,0-5.9-2.5-5.9-5.6V401c0-3.1,2.7-5.6,5.9-5.6l0,0c3.3,0,5.9,2.5,5.9,5.6v21.7
			C583.6,425.8,580.9,428.3,577.7,428.3z"/>
		<path class="st1" d="M589,428.6L589,428.6c-3.3,0-5.9-2.5-5.9-5.5v-22.2c0-3,2.7-5.5,5.9-5.5l0,0c3.3,0,5.9,2.5,5.9,5.5v22.2
			C595,426.1,592.3,428.6,589,428.6z"/>
		<path class="st0" d="M600.4,428.8L600.4,428.8c-3.3,0-5.9-1.6-5.9-3.5v-14.9c0-1.9,2.7-3.5,5.9-3.5l0,0c3.3,0,5.9,1.6,5.9,3.5
			v14.9C606.3,427.3,603.7,428.8,600.4,428.8z"/>
		<path class="st1" d="M499.4,340.6L499.4,340.6c-3.3,0-5.9-2.7-5.9-5.9v-26.4c0-3.3,2.7-5.9,5.9-5.9l0,0c3.3,0,5.9,2.7,5.9,5.9
			v26.4C505.3,337.9,502.7,340.6,499.4,340.6z"/>
		<path class="st1" d="M486.8,471.3L486.8,471.3c-3.3,0-5.9-2.5-5.9-5.6v-19c0-3.1,2.7-5.6,5.9-5.6l0,0c3.3,0,5.9,2.5,5.9,5.6v19
			C492.8,468.8,490.1,471.3,486.8,471.3z"/>
		<path class="st3" d="M509.6,474.6L509.6,474.6c-3.3,0-5.9-2.7-5.9-6v-20.3c0-3.3,2.7-6,5.9-6l0,0c3.3,0,5.9,2.7,5.9,6v20.3
			C515.5,471.9,512.8,474.6,509.6,474.6z"/>
		<path class="st4" d="M520.9,476.3L520.9,476.3c-3.3,0-5.9-2.8-5.9-6.2v-21c0-3.4,2.7-6.2,5.9-6.2l0,0c3.3,0,5.9,2.8,5.9,6.2v21
			C526.8,473.5,524.2,476.3,520.9,476.3z"/>
		<path class="st1" d="M532.3,477.9L532.3,477.9c-3.3,0-5.9-2.9-5.9-6.4v-21.7c0-3.5,2.7-6.4,5.9-6.4l0,0c3.3,0,5.9,2.9,5.9,6.4
			v21.7C538.2,475.1,535.5,477.9,532.3,477.9z"/>
		<path class="st4" d="M555,481.3L555,481.3c-3.3,0-5.9-3-5.9-6.8v-23.1c0-3.8,2.7-6.8,5.9-6.8l0,0c3.3,0,5.9,3,5.9,6.8v23.1
			C560.9,478.2,558.2,481.3,555,481.3z"/>
		<path class="st0" d="M566.3,482.9L566.3,482.9c-3.3,0-5.9-3.1-5.9-7v-23.8c0-3.9,2.7-7,5.9-7l0,0c3.3,0,5.9,3.1,5.9,7v23.8
			C572.3,479.8,569.6,482.9,566.3,482.9z"/>
		<path class="st4" d="M577.7,484.6L577.7,484.6c-3.3,0-5.9-3.2-5.9-7.2v-24.5c0-4,2.7-7.2,5.9-7.2l0,0c3.3,0,5.9,3.2,5.9,7.2v24.5
			C583.6,481.4,580.9,484.6,577.7,484.6z"/>
		<path class="st3" d="M589,486.3L589,486.3c-3.3,0-5.9-3.3-5.9-7.4v-25.2c0-4.1,2.7-7.4,5.9-7.4l0,0c3.3,0,5.9,3.3,5.9,7.4v25.2
			C595,483,592.3,486.3,589,486.3z"/>
		<path class="st4" d="M600.4,488L600.4,488c-3.3,0-5.9-3.4-5.9-7.6v-25.9c0-4.2,2.7-7.6,5.9-7.6l0,0c3.3,0,5.9,3.4,5.9,7.6v25.9
			C606.3,484.5,603.7,488,600.4,488z"/>
		<path class="st0" d="M611.7,489.6L611.7,489.6c-3.3,0-5.9-3.5-5.9-7.8v-26.6c0-4.3,2.7-7.8,5.9-7.8l0,0c3.3,0,5.9,3.5,5.9,7.8
			v26.6C617.7,486.1,615,489.6,611.7,489.6z"/>
		<path class="st3" d="M510.2,337.5L510.2,337.5c-3.3,0-5.9-2.7-5.9-5.9v-27.4c0-3.3,2.7-5.9,5.9-5.9h0c3.3,0,5.9,2.7,5.9,5.9v27.4
			C516.2,334.9,513.5,337.5,510.2,337.5z"/>
		<path class="st1" d="M532,331.4L532,331.4c-3.3,0-5.9-2.7-5.9-5.9v-29.3c0-3.3,2.7-5.9,5.9-5.9l0,0c3.3,0,5.9,2.7,5.9,5.9v29.3
			C537.9,328.7,535.2,331.4,532,331.4z"/>
		<path class="st0" d="M542.8,328.3L542.8,328.3c-3.3,0-5.9-2.7-5.9-5.9v-30.3c0-3.3,2.7-5.9,5.9-5.9l0,0c3.3,0,5.9,2.7,5.9,5.9
			v30.3C548.8,325.7,546.1,328.3,542.8,328.3z"/>
		<path class="st0" d="M564.5,322.2L564.5,322.2c-3.3,0-5.9-2.7-5.9-5.9V284c0-3.3,2.7-5.9,5.9-5.9l0,0c3.3,0,5.9,2.7,5.9,5.9v32.3
			C570.5,319.6,567.8,322.2,564.5,322.2z"/>
		<path class="st4" d="M575.4,319.2L575.4,319.2c-3.3,0-5.9-2.7-5.9-5.9V280c0-3.3,2.7-5.9,5.9-5.9l0,0c3.3,0,5.9,2.7,5.9,5.9v33.2
			C581.3,316.5,578.7,319.2,575.4,319.2z"/>
		<path class="st3" d="M586.2,316.1L586.2,316.1c-3.3,0-5.9-2.7-5.9-5.9V276c0-3.3,2.7-5.9,5.9-5.9h0c3.3,0,5.9,2.7,5.9,5.9v34.2
			C592.2,313.5,589.5,316.1,586.2,316.1z"/>
		<path class="st1" d="M597.1,313.1L597.1,313.1c-3.3,0-5.9-2.7-5.9-5.9v-35.2c0-3.3,2.7-5.9,5.9-5.9l0,0c3.3,0,5.9,2.7,5.9,5.9
			v35.2C603,310.4,600.4,313.1,597.1,313.1z"/>
		<path class="st0" d="M608,310L608,310c-3.3,0-5.9-2.7-5.9-5.9v-36.2c0-3.3,2.7-5.9,5.9-5.9h0c3.3,0,5.9,2.7,5.9,5.9v36.2
			C613.9,307.4,611.2,310,608,310z"/>
		<path class="st0" d="M488.5,386.9L488.5,386.9c-3.3,0-5.9-1.3-5.9-2.9v-12.4c0-1.6,2.7-2.9,5.9-2.9l0,0c3.3,0,5.9,1.3,5.9,2.9V384
			C494.5,385.6,491.8,386.9,488.5,386.9z"/>
		<path class="st1" d="M499.4,385.4L499.4,385.4c-3.3,0-5.9-2.1-5.9-4.6v-20.6c0-2.6,2.7-4.6,5.9-4.6l0,0c3.3,0,5.9,2.1,5.9,4.6
			v20.6C505.3,383.4,502.7,385.4,499.4,385.4z"/>
		<path class="st3" d="M510.2,383.9L510.2,383.9c-3.3,0-5.9-1.3-5.9-2.9v-13.4c0-1.6,2.7-2.9,5.9-2.9h0c3.3,0,5.9,1.3,5.9,2.9V381
			C516.2,382.6,513.5,383.9,510.2,383.9z"/>
		<path class="st1" d="M532,381L532,381c-3.3,0-5.9-1.8-5.9-4V357c0-2.2,2.7-4,5.9-4l0,0c3.3,0,5.9,1.8,5.9,4v19.9
			C537.9,379.2,535.2,381,532,381z"/>
		<path class="st0" d="M542.8,379.5L542.8,379.5c-3.3,0-5.9-1.9-5.9-4.3v-21.9c0-2.4,2.7-4.3,5.9-4.3l0,0c3.3,0,5.9,1.9,5.9,4.3
			v21.9C548.8,377.6,546.1,379.5,542.8,379.5z"/>
		<path class="st0" d="M564.5,376.5L564.5,376.5c-3.3,0-5.9-2-5.9-4.4v-24c0-2.4,2.7-4.4,5.9-4.4l0,0c3.3,0,5.9,2,5.9,4.4v24
			C570.5,374.5,567.8,376.5,564.5,376.5z"/>
		<path class="st4" d="M575.4,375L575.4,375c-3.3,0-5.9-1.3-5.9-2.9v-16.2c0-1.6,2.7-2.9,5.9-2.9l0,0c3.3,0,5.9,1.3,5.9,2.9v16.2
			C581.3,373.7,578.7,375,575.4,375z"/>
		<path class="st3" d="M586.2,373.5L586.2,373.5c-3.3,0-5.9-2.1-5.9-4.6v-26.7c0-2.6,2.7-4.6,5.9-4.6h0c3.3,0,5.9,2.1,5.9,4.6v26.7
			C592.2,371.4,589.5,373.5,586.2,373.5z"/>
		<path class="st1" d="M597.1,372L597.1,372c-3.3,0-5.9-2.1-5.9-4.7v-28.1c0-2.6,2.7-4.7,5.9-4.7l0,0c3.3,0,5.9,2.1,5.9,4.7v28.1
			C603,369.9,600.4,372,597.1,372z"/>
		<path class="st0" d="M608,370.5L608,370.5c-3.3,0-5.9-1.8-5.9-4.1v-24.8c0-2.3,2.7-4.1,5.9-4.1h0c3.3,0,5.9,1.8,5.9,4.1v24.8
			C613.9,368.7,611.2,370.5,608,370.5z"/>
	</g>
	<path class="st1" d="M28.3,1063.4c337-155.9,413.4,5,644.9,0c190.7-4.1,360.7-80.9,360.7-231.8c0-324.9-671.7-42.5-671.7-205
		c0-123,261.4-124.4,261.4-124.4l-147.9-23.3c0,0-177.8,28.2-177.8,152.8c0,228.8,409,77.5,409,188
		C706.9,951.5,28.3,673,28.3,1063.4L28.3,1063.4z"/>
	<path class="st2" d="M427.9,278.6l-52.2-16.8c-3.1-1-5.5-3.4-6.6-6.4L356.7,221c-3.6-9.9,8.1-18.3,16.4-11.7l64.6,51.2
		C446.7,267.7,439,282.2,427.9,278.6z"/>
	<path class="st2" d="M487.7,197.8l-11.5-53.6c-0.7-3.2,0.1-6.5,2.2-9l23.6-27.9c6.8-8,19.9-2.1,18.3,8.3l-12.1,81.5
		C506.6,208.6,490.1,209.2,487.7,197.8z"/>
	<path class="st2" d="M615.2,171.6l40.7-36.8c2.4-2.2,5.7-3.1,8.9-2.5l35.9,6.5c10.4,1.9,11.8,16.2,2,20l-76.6,30.3
		C615.3,193.4,606.6,179.4,615.2,171.6z"/>
	<path class="st2" d="M708.3,240.7l49.9-22.7c3-1.3,6.4-1.2,9.2,0.3l32.3,17.1c9.3,4.9,6.3,19-4.2,19.7l-82.2,5.7
		C701.7,261.5,697.7,245.6,708.3,240.7z"/>
</g>
</svg>
