<?xml version="1.0" encoding="utf-8"?>
<!-- Generator: Adobe Illustrator 25.2.0, SVG Export Plug-In . SVG Version: 6.00 Build 0)  -->
<svg version="1.1" id="Calque_1" xmlns="http://www.w3.org/2000/svg" xmlns:xlink="http://www.w3.org/1999/xlink" x="0px" y="0px"
	 viewBox="0 0 200 200" style="enable-background:new 0 0 200 200;" xml:space="preserve">
<style type="text/css">
	.st0{fill:#BBB8FF;}
	.st1{fill:#6900FF;}
	.st2{fill:#FFFFFF;}
</style>
<g id="LOGO">
	<g>
		<circle class="st0" cx="99.9" cy="100.83" r="78.74"/>
	</g>
	<g>
		<path class="st1" d="M99.9,181.62c-45.08-0.06-81.57-36.64-81.51-81.72s36.64-81.57,81.72-81.51
			c45.08,0.06,81.57,36.64,81.51,81.72c-0.04,32.76-19.67,62.33-49.85,75.08C121.68,179.45,110.84,181.64,99.9,181.62z M99.9,25.96
			c-40.69,0-73.79,33.1-73.79,73.79s33.1,73.79,73.79,73.79s73.79-33.1,73.79-73.79S140.59,25.96,99.9,25.96z"/>
	</g>
	<g>
		<circle class="st2" cx="99.9" cy="57.88" r="13.5"/>
	</g>
	<g>
		<path class="st1" d="M99.9,77.18c-10.3,0-18.65-8.35-18.65-18.65s8.35-18.65,18.65-18.65c10.3,0,18.65,8.35,18.65,18.65l0,0
			C118.54,68.82,110.19,77.16,99.9,77.18z M99.9,47.95c-5.84,0-10.58,4.73-10.58,10.58S94.06,69.1,99.9,69.1
			c5.84,0,10.58-4.73,10.58-10.58v0C110.47,52.68,105.74,47.95,99.9,47.95z"/>
	</g>
	<g>
		<path class="st1" d="M101.8,156.63c-6.12,0-9.94-2.52-12.07-4.64c-2.77-2.76-4.36-6.59-4.36-10.51c0-3.59,1.54-10.94,4.05-22.64
			c1.36-6.34,2.9-13.52,4.03-19.82c-3.47,2.05-7.59,3.13-12.2,3.13c-2.23,0-4.04-1.81-4.04-4.04c0-2.23,1.81-4.04,4.04-4.04
			c4.81,0,11.15-1.66,14.07-9.55c0.68-1.84,2.58-2.92,4.5-2.58c1.93,0.34,3.33,2.02,3.33,3.98c0,7.44-3.1,21.87-5.83,34.61
			c-1.9,8.87-3.87,18.04-3.87,20.95c0,3.4,2.61,7.07,8.35,7.07c8.33,0,9.22-5.44,9.22-7.78c0-2.23,1.81-4.04,4.04-4.04
			c2.23,0,4.04,1.81,4.04,4.04C119.1,148.66,113.75,156.63,101.8,156.63z"/>
	</g>
</g>
</svg>
