<?xml version="1.0" encoding="utf-8"?>
<!-- Generator: Adobe Illustrator 25.2.1, SVG Export Plug-In . SVG Version: 6.00 Build 0)  -->
<svg version="1.1" id="Calque_1" xmlns="http://www.w3.org/2000/svg" xmlns:xlink="http://www.w3.org/1999/xlink" x="0px" y="0px"
	 viewBox="0 0 200 200" style="enable-background:new 0 0 200 200;" xml:space="preserve">
<style type="text/css">
	.st0{fill:#BBB8FF;}
	.st1{fill:#FFFFFF;}
	.st2{fill:#6900FF;}
</style>
<path class="st0" d="M187.5,133l-0.8-0.8c-0.5-0.5-14.8-15-14.8-15l-10.6-10.6c-2.4-2.4-2.4-6.3,0-8.6c1.1-1.2,2.7-1.8,4.3-1.8
	c1.6,0,3.2,0.6,4.3,1.8l6,6c1.7,1.7,3.9,2.6,6.2,2.6c2.3,0,4.6-0.9,6.2-2.6c3.4-3.4,3.4-9,0-12.5l-1-1L177,80
	c-0.1-0.1-0.1-0.1-0.2-0.2l-14.3-14.3l0,0l-43.6-43.6L99.5,2.6c-1.4-1-3.1-1.5-4.9-1.5c-2.3,0-4.6,0.9-6.2,2.6
	c-3.4,3.4-3.4,9,0,12.5l0.7,0.7c2.4,2.4,2.4,6.3,0,8.6c-1.1,1.2-2.7,1.8-4.3,1.8c-1.6,0-3.1-0.6-4.2-1.7c0,0-12.7-12.2-13.4-12.9
	L57.1,2.6c-1.4-1-3.1-1.5-4.9-1.5c-2.3,0-4.6,0.9-6.2,2.6c-3.4,3.4-3.4,9,0,12.5l0.7,0.7c2.4,2.4,2.4,6.3,0,8.6
	c-1.1,1.2-2.7,1.8-4.3,1.8c-1.6,0-3.1-0.6-4.2-1.7L26.9,14.3c-1.7-1.7-3.9-2.6-6.2-2.6l0,0c-2.3,0-4.6,0.9-6.2,2.6
	c-3.4,3.4-3.4,9,0,12.5L28,40.3l10.6,10.6c2.4,2.4,2.4,6.3,0,8.6c-1.1,1.2-2.7,1.8-4.3,1.8s-3.2-0.6-4.3-1.8l-6.1-6
	c-1.7-1.7-3.9-2.6-6.2-2.6c-2.3,0-4.6,0.9-6.2,2.6c-3.4,3.4-3.4,9,0,12.5l1,1l0.8,0.8c0.3,0.5,0.7,1,1.1,1.4L28,82.8l10.6,10.6
	c2.4,2.4,2.4,6.3,0,8.6c-1.1,1.2-2.7,1.8-4.3,1.8s-3.2-0.6-4.3-1.8l-6-6c-1.7-1.7-3.9-2.6-6.2-2.6c-2.3,0-4.6,0.9-6.2,2.6
	c-3.4,3.4-3.4,9,0,12.5l1,1L23,120c0.1,0.1,0.1,0.1,0.2,0.2l14.3,14.3l0,0l43.6,43.6l19.3,19.3c1.4,1,3.1,1.5,4.9,1.5
	c2.3,0,4.6-0.9,6.2-2.6c3.4-3.4,3.4-9,0-12.5l-0.7-0.7c-2.4-2.4-2.4-6.3,0-8.6c1.1-1.2,2.7-1.8,4.3-1.8c1.6,0,3.1,0.6,4.2,1.7
	c0,0,12.6,12.1,13.4,12.9l10.1,10.1c1.4,1,3.1,1.5,4.9,1.5c2.3,0,4.6-0.9,6.2-2.6c3.4-3.4,3.4-9,0-12.5l-0.7-0.7
	c-2.4-2.4-2.4-6.3,0-8.6c1.1-1.2,2.7-1.8,4.3-1.8c1.6,0,3.1,0.6,4.2,1.7l11.3,11.3c1.7,1.7,3.9,2.6,6.2,2.6l0,0
	c2.3,0,4.6-0.9,6.2-2.6c3.4-3.4,3.4-9,0-12.5l-13.6-13.6l-10.6-10.6c-2.4-2.4-2.4-6.3,0-8.6c1.1-1.2,2.7-1.8,4.3-1.8
	c1.6,0,3.2,0.6,4.3,1.8l6,6c1.7,1.7,3.9,2.6,6.2,2.6c2.3,0,4.6-0.9,6.2-2.6c3.4-3.4,3.4-9,0-12.5L187.5,133z"/>
<g>
	<circle class="st1" cx="100.6" cy="99.4" r="47.3"/>
</g>
<g>
	<path class="st2" d="M66,78.3c4.2,0,7.6,1.5,7.6,6.4c0,4.9-3.3,6.5-7.6,6.5h-4.3V78.3H66z M66.1,80.9h-1.3v7.8h1.3
		c2.2,0,4.3-0.5,4.3-3.9C70.3,81.3,68.3,80.9,66.1,80.9z"/>
	<path class="st2" d="M84.7,86.4c0,3.5-2.4,5.1-5.1,5.1s-5.1-1.6-5.1-5.1s2.4-5,5.1-5S84.7,82.9,84.7,86.4z M77.6,86.4
		c0,2,0.9,2.8,2.1,2.8s2.1-0.8,2.1-2.8c0-2-0.9-2.8-2.1-2.8S77.6,84.3,77.6,86.4z"/>
	<path class="st2" d="M89.2,82.9c0.4-0.7,1.5-1.5,3-1.5c2.5,0,3.2,1.4,3.2,4v5.7h-2.9v-5c0-1.4-0.1-2.5-1.5-2.5
		c-1.2,0-1.8,0.8-1.8,2.6v4.9h-2.9v-9.6h2.9V82.9z"/>
	<path class="st2" d="M100.3,82.9c0.4-0.7,1.5-1.5,3-1.5c2.5,0,3.2,1.4,3.2,4v5.7h-2.9v-5c0-1.4,0-2.5-1.5-2.5
		c-1.2,0-1.8,0.8-1.8,2.6v4.9h-2.9v-9.6h2.9V82.9z"/>
	<path class="st2" d="M117.8,88.2c-0.9,2.3-2.8,3.2-4.8,3.2c-3.1,0-5.3-1.9-5.3-5.1c0-3.1,2.3-5,5.1-5c3.2,0,5.1,2.4,4.9,5.8h-7.1
		c0.1,1.4,1.1,2,2.2,2c1.1,0,1.8-0.4,2.1-1C115.1,88.2,117.8,88.2,117.8,88.2z M110.8,85.4h4.1c0-1.2-0.9-1.8-2-1.8
		C111.9,83.6,111,84.1,110.8,85.4z M113.9,80.4h-2.2l1.7-2.1h3.3L113.9,80.4z"/>
	<path class="st2" d="M129,88.2c-0.9,2.3-2.8,3.2-4.8,3.2c-3.1,0-5.3-1.9-5.3-5.1c0-3.1,2.3-5,5.1-5c3.2,0,5.1,2.4,4.9,5.8H122
		c0.1,1.4,1.1,2,2.2,2c1.1,0,1.8-0.4,2.1-1C126.3,88.2,129,88.2,129,88.2z M122,85.4h4.1c0-1.2-0.9-1.8-2-1.8
		C123.1,83.6,122.2,84.1,122,85.4z"/>
	<path class="st2" d="M136.5,84.4c-0.2-0.7-0.9-0.9-1.9-0.9c-1,0-1.5,0.3-1.5,0.7s0.3,0.7,1.2,0.9l1.8,0.3c2.3,0.4,3.4,1.1,3.4,2.8
		c0,2.1-2,3.2-4.6,3.2c-2.5,0-4.4-1.1-4.7-3.4h2.7c0.2,0.9,1,1.2,2,1.2c1,0,1.8-0.3,1.8-0.9c0-0.4-0.4-0.7-1.5-0.9l-1.7-0.3
		c-1.9-0.3-3.1-1.2-3.1-2.9c0-1.9,2-3,4.4-3c2.2,0,4.2,0.9,4.5,3.1L136.5,84.4L136.5,84.4z"/>
	<path class="st2" d="M96.2,112.6l5.2-12.9h2.9l-5.2,12.9H96.2z"/>
	<path class="st2" d="M90.8,121v12.9h-2.9v-1.3c-0.6,1.1-1.9,1.5-2.9,1.5c-2.5,0-4.2-1.9-4.2-5s1.8-5,4.2-5c1.1,0,2.3,0.5,2.9,1.5
		V121L90.8,121L90.8,121z M83.8,129.1c0,1.8,1,2.7,2.1,2.7c1.2,0,2.1-0.8,2.1-2.7c0-2-1-2.7-2.1-2.7
		C84.8,126.4,83.8,127.3,83.8,129.1z"/>
	<path class="st2" d="M98.8,127.6c0-1.1-0.6-1.5-1.6-1.5c-0.9,0-1.6,0.5-1.7,1.4h-2.7c0.1-1.8,1.9-3.4,4.7-3.4c2.7,0,4.3,1.1,4.3,4
		l0,2.1c0,1.2,0,3,0.2,3.8H99l0-1.2c-0.7,1-1.9,1.4-3.2,1.4c-1.8,0-3.3-1.1-3.3-2.8c0-2.3,2.7-3.1,6.4-3.4L98.8,127.6L98.8,127.6z
		 M95.4,131.1c0,0.6,0.6,1,1.4,1c1.2,0,2.1-0.5,2.1-2.3v-0.2C96.8,129.8,95.4,130.1,95.4,131.1z"/>
	<path class="st2" d="M104,121.7h2.9v2.6h2.1v2.1H107v4.3c0,0.9,0.3,1.1,1.3,1.1h0.8v2.1h-1.9c-2.3,0-3.2-0.4-3.2-2.7v-4.8h-1.5
		v-2.1h1.5V121.7z"/>
	<path class="st2" d="M116.5,127.6c0-1.1-0.6-1.5-1.6-1.5c-0.9,0-1.6,0.5-1.7,1.4h-2.7c0.1-1.8,1.9-3.4,4.7-3.4c2.7,0,4.3,1.1,4.3,4
		l0,2.1c0,1.2,0,3,0.2,3.8h-2.9l0-1.2c-0.7,1-1.9,1.4-3.2,1.4c-1.8,0-3.3-1.1-3.3-2.8c0-2.3,2.7-3.1,6.4-3.4L116.5,127.6
		L116.5,127.6z M113.1,131.1c0,0.6,0.6,1,1.4,1c1.2,0,2.1-0.5,2.1-2.3v-0.2C114.5,129.8,113.1,130.1,113.1,131.1z"/>
</g>
</svg>
