<?xml version="1.0" encoding="utf-8"?>
<!-- Generator: Adobe Illustrator 25.2.0, SVG Export Plug-In . SVG Version: 6.00 Build 0)  -->
<svg version="1.1" id="Calque_1" xmlns="http://www.w3.org/2000/svg" xmlns:xlink="http://www.w3.org/1999/xlink" x="0px" y="0px"
	 viewBox="0 0 200 200" style="enable-background:new 0 0 200 200;" xml:space="preserve">
<style type="text/css">
	.st0{fill:#BBB8FF;}
	.st1{fill:#FFFFFF;}
	.st2{fill:#6900FF;}
</style>
<path class="st0" d="M177.14,129.13l-0.69-0.7c-0.43-0.43-13.01-13.23-13.01-13.23l-9.31-9.31c-2.09-2.1-2.09-5.52,0-7.62
	c1.01-1.02,2.36-1.58,3.79-1.58c1.43,0,2.78,0.56,3.79,1.58l5.32,5.32c1.47,1.47,3.41,2.28,5.49,2.28c2.07,0,4.02-0.81,5.49-2.28
	c3.02-3.03,3.02-7.96,0-10.99l-0.87-0.88l-9.29-9.31c-0.06-0.06-0.12-0.11-0.18-0.15l-12.63-12.63l0.02-0.02l-38.46-38.46
	L99.58,14.14c-1.26-0.84-2.74-1.3-4.29-1.3c-2.07,0-4.02,0.81-5.49,2.28c-3.02,3.03-3.02,7.96,0,10.99l0.59,0.59
	c2.09,2.1,2.09,5.52,0,7.62c-1.01,1.02-2.36,1.58-3.79,1.58c-1.4,0-2.72-0.54-3.73-1.51c0,0-11.19-10.74-11.81-11.37l-8.87-8.87
	c-1.26-0.84-2.74-1.3-4.29-1.3c-2.07,0-4.02,0.81-5.49,2.28c-3.02,3.03-3.02,7.96,0,10.99l0.59,0.59c2.09,2.1,2.09,5.52,0,7.62
	c-1.01,1.02-2.36,1.58-3.79,1.58c-1.4,0-2.72-0.54-3.73-1.51l-9.94-9.98c-1.47-1.47-3.41-2.28-5.48-2.28c0,0,0,0,0,0
	c-2.07,0-4.02,0.81-5.49,2.28c-3.02,3.03-3.02,7.96,0,10.99L36.57,47.4l9.31,9.31c2.09,2.1,2.09,5.52,0,7.62
	c-1.01,1.02-2.36,1.58-3.79,1.58c-1.43,0-2.78-0.56-3.79-1.58L32.96,59c-1.47-1.47-3.41-2.28-5.49-2.28c-2.07,0-4.02,0.81-5.49,2.28
	c-3.02,3.03-3.02,7.96,0,10.99l0.87,0.88l0.69,0.7c0.28,0.43,0.62,0.84,1,1.22L36.57,84.8l9.31,9.31c2.09,2.1,2.09,5.52,0,7.62
	c-1.01,1.02-2.36,1.58-3.79,1.58c-1.43,0-2.78-0.56-3.79-1.58l-5.32-5.32c-1.47-1.47-3.41-2.28-5.49-2.28
	c-2.07,0-4.02,0.81-5.49,2.28c-3.02,3.03-3.02,7.96,0,10.99l0.87,0.88l9.29,9.31c0.06,0.06,0.12,0.11,0.18,0.15l12.63,12.63
	l-0.02,0.02l38.46,38.46l17.01,17.01c1.26,0.84,2.74,1.3,4.29,1.3c2.07,0,4.02-0.81,5.49-2.28c3.02-3.03,3.02-7.96,0-10.99
	l-0.59-0.59c-2.09-2.1-2.09-5.52,0-7.62c1.01-1.02,2.36-1.58,3.79-1.58c1.4,0,2.72,0.54,3.73,1.51c0,0,11.1,10.66,11.81,11.37
	l8.87,8.87c1.26,0.84,2.74,1.3,4.29,1.3c2.07,0,4.02-0.81,5.49-2.28c3.02-3.03,3.02-7.96,0-10.99l-0.59-0.59
	c-2.09-2.1-2.09-5.52,0-7.62c1.01-1.02,2.36-1.58,3.79-1.58c1.4,0,2.72,0.54,3.73,1.51l9.94,9.98c1.46,1.47,3.41,2.28,5.48,2.28
	c0,0,0,0,0,0c2.07,0,4.02-0.81,5.49-2.28c3.02-3.03,3.02-7.96,0-10.99l-12.02-12.01l-9.31-9.31c-2.09-2.1-2.09-5.52,0-7.62
	c1.01-1.02,2.36-1.58,3.79-1.58c1.43,0,2.78,0.56,3.79,1.58l5.32,5.32c1.47,1.47,3.41,2.28,5.49,2.28c2.07,0,4.02-0.81,5.49-2.28
	c3.02-3.03,3.02-7.96,0-10.99L177.14,129.13z"/>
<g>
	<circle class="st1" cx="100.54" cy="99.46" r="41.69"/>
</g>
<g>
	<path class="st2" d="M77.83,81.12c2.77,0,4.96,1,4.96,4.23c0,3.24-2.19,4.24-4.96,4.24h-2.79v-8.47H77.83z M77.86,82.81h-0.83v5.11
		h0.83c1.47,0,2.8-0.32,2.8-2.56C80.67,83.12,79.34,82.81,77.86,82.81z"/>
	<path class="st2" d="M90.12,86.43c0,2.28-1.59,3.32-3.33,3.32s-3.33-1.04-3.33-3.32c0-2.28,1.59-3.31,3.33-3.31
		S90.12,84.15,90.12,86.43z M85.43,86.43c0,1.32,0.58,1.82,1.37,1.82s1.37-0.5,1.37-1.82c0-1.33-0.61-1.81-1.37-1.81
		S85.43,85.1,85.43,86.43z"/>
	<path class="st2" d="M93.06,84.14c0.28-0.47,0.97-0.97,1.95-0.97c1.61,0,2.12,0.95,2.12,2.65v3.77H95.2v-3.3
		c0-0.9-0.04-1.64-0.97-1.64c-0.82,0-1.17,0.55-1.17,1.71v3.23h-1.93v-6.29h1.93V84.14z"/>
	<path class="st2" d="M100.32,84.14c0.28-0.47,0.97-0.97,1.95-0.97c1.61,0,2.12,0.95,2.12,2.65v3.77h-1.93v-3.3
		c0-0.9-0.03-1.64-0.97-1.64c-0.82,0-1.17,0.55-1.17,1.71v3.23h-1.93v-6.29h1.93V84.14z"/>
	<path class="st2" d="M111.85,87.62c-0.56,1.48-1.87,2.13-3.13,2.13c-2.05,0-3.45-1.25-3.45-3.33c0-2.01,1.53-3.3,3.37-3.3
		c2.08,0,3.37,1.59,3.24,3.82h-4.66c0.06,0.89,0.75,1.31,1.45,1.31c0.72,0,1.19-0.26,1.41-0.63H111.85z M107.23,85.78h2.72
		c-0.02-0.78-0.6-1.18-1.32-1.18C107.96,84.59,107.34,84.95,107.23,85.78z M109.29,82.48h-1.45l1.11-1.36h2.19L109.29,82.48z"/>
	<path class="st2" d="M119.2,87.62c-0.56,1.48-1.87,2.13-3.13,2.13c-2.05,0-3.45-1.25-3.45-3.33c0-2.01,1.53-3.3,3.37-3.3
		c2.08,0,3.37,1.59,3.24,3.82h-4.66c0.06,0.89,0.75,1.31,1.45,1.31c0.72,0,1.19-0.26,1.41-0.63H119.2z M114.59,85.78h2.72
		c-0.02-0.78-0.6-1.18-1.32-1.18C115.31,84.59,114.69,84.95,114.59,85.78z"/>
	<path class="st2" d="M124.11,85.16c-0.12-0.47-0.62-0.61-1.23-0.61c-0.65,0-1.01,0.18-1.01,0.47c0,0.29,0.22,0.46,0.77,0.56
		l1.17,0.21c1.52,0.28,2.23,0.72,2.23,1.83c0,1.41-1.3,2.13-3.04,2.13c-1.66,0-2.86-0.72-3.09-2.2h1.79
		c0.16,0.61,0.65,0.79,1.32,0.79c0.68,0,1.17-0.19,1.17-0.56c0-0.28-0.26-0.46-0.98-0.58l-1.12-0.19c-1.22-0.2-2.05-0.82-2.05-1.93
		c0-1.26,1.32-1.94,2.88-1.94c1.44,0,2.73,0.58,2.98,2.01H124.11z"/>
	<path class="st2" d="M97.63,103.62l3.42-8.47h1.93l-3.42,8.47H97.63z"/>
	<path class="st2" d="M94.13,109.17v8.47H92.2v-0.84c-0.41,0.69-1.24,0.99-1.93,0.99c-1.61,0-2.77-1.24-2.77-3.3
		c0-2.06,1.16-3.28,2.77-3.28c0.69,0,1.52,0.3,1.93,0.99v-3.04H94.13z M89.5,114.5c0,1.17,0.63,1.8,1.4,1.8
		c0.76,0,1.39-0.5,1.39-1.8c0-1.3-0.63-1.79-1.39-1.79C90.13,112.71,89.5,113.33,89.5,114.5z"/>
	<path class="st2" d="M99.35,113.47c0-0.74-0.37-1.01-1.06-1.01c-0.62,0-1.05,0.32-1.12,0.92h-1.8c0.08-1.18,1.23-2.23,3.09-2.23
		c1.8,0,2.84,0.72,2.8,2.64l-0.02,1.37c-0.01,0.82,0.02,1.94,0.14,2.48h-1.89l-0.02-0.76c-0.47,0.67-1.22,0.91-2.12,0.91
		c-1.19,0-2.17-0.7-2.17-1.85c0-1.54,1.74-2.06,4.18-2.23V113.47z M97.15,115.81c0,0.41,0.39,0.68,0.89,0.68
		c0.77,0,1.36-0.33,1.36-1.48v-0.15C98.05,114.97,97.15,115.15,97.15,115.81z"/>
	<path class="st2" d="M102.79,109.64h1.93v1.72h1.38v1.37h-1.38v2.82c0,0.6,0.19,0.71,0.83,0.71h0.55v1.39h-1.23
		c-1.54,0-2.08-0.29-2.08-1.76v-3.16h-0.99v-1.37h0.99V109.64z"/>
	<path class="st2" d="M110.96,113.47c0-0.74-0.37-1.01-1.06-1.01c-0.62,0-1.05,0.32-1.12,0.92h-1.8c0.08-1.18,1.23-2.23,3.09-2.23
		c1.8,0,2.84,0.72,2.8,2.64l-0.02,1.37c-0.01,0.82,0.02,1.94,0.14,2.48h-1.89l-0.02-0.76c-0.47,0.67-1.22,0.91-2.12,0.91
		c-1.19,0-2.17-0.7-2.17-1.85c0-1.54,1.74-2.06,4.18-2.23V113.47z M108.76,115.81c0,0.41,0.39,0.68,0.89,0.68
		c0.77,0,1.36-0.33,1.36-1.48v-0.15C109.66,114.97,108.76,115.15,108.76,115.81z"/>
</g>
</svg>
