<?xml version="1.0" encoding="utf-8"?>
<!-- Generator: Adobe Illustrator 25.2.1, SVG Export Plug-In . SVG Version: 6.00 Build 0)  -->
<svg version="1.1" id="Calque_1" xmlns="http://www.w3.org/2000/svg" xmlns:xlink="http://www.w3.org/1999/xlink" x="0px" y="0px"
	 viewBox="0 0 200 200" style="enable-background:new 0 0 200 200;" xml:space="preserve">
<style type="text/css">
	.st0{fill:#BBB8FF;}
	.st1{fill:#FFFFFF;}
	.st2{fill:#6900FF;}
</style>
<path class="st0" d="M187.5,133l-0.8-0.8c-0.5-0.5-14.8-15-14.8-15l-10.6-10.6c-2.4-2.4-2.4-6.3,0-8.6c1.1-1.2,2.7-1.8,4.3-1.8
	s3.2,0.6,4.3,1.8l6,6c1.7,1.7,3.9,2.6,6.2,2.6s4.6-0.9,6.2-2.6c3.4-3.4,3.4-9,0-12.5l-1-1L177,80c-0.1-0.1-0.1-0.1-0.2-0.2
	l-14.3-14.3l0,0l-43.6-43.6L99.5,2.6c-1.4-1-3.1-1.5-4.9-1.5c-2.3,0-4.6,0.9-6.2,2.6c-3.4,3.4-3.4,9,0,12.5l0.7,0.7
	c2.4,2.4,2.4,6.3,0,8.6c-1.1,1.2-2.7,1.8-4.3,1.8c-1.6,0-3.1-0.6-4.2-1.7c0,0-12.7-12.2-13.4-12.9L57.1,2.6c-1.4-1-3.1-1.5-4.9-1.5
	c-2.3,0-4.6,0.9-6.2,2.6c-3.4,3.4-3.4,9,0,12.5l0.7,0.7c2.4,2.4,2.4,6.3,0,8.6c-1.1,1.2-2.7,1.8-4.3,1.8s-3.1-0.6-4.2-1.7L26.9,14.3
	c-1.7-1.7-3.9-2.6-6.2-2.6l0,0c-2.3,0-4.6,0.9-6.2,2.6c-3.4,3.4-3.4,9,0,12.5L28,40.3l10.6,10.6c2.4,2.4,2.4,6.3,0,8.6
	c-1.1,1.2-2.7,1.8-4.3,1.8s-3.2-0.6-4.3-1.8l-6.1-6c-1.7-1.7-3.9-2.6-6.2-2.6s-4.6,0.9-6.2,2.6c-3.4,3.4-3.4,9,0,12.5l1,1l0.8,0.8
	c0.3,0.5,0.7,1,1.1,1.4L28,82.8l10.6,10.6c2.4,2.4,2.4,6.3,0,8.6c-1.1,1.2-2.7,1.8-4.3,1.8s-3.2-0.6-4.3-1.8l-6-6
	c-1.7-1.7-3.9-2.6-6.2-2.6s-4.6,0.9-6.2,2.6c-3.4,3.4-3.4,9,0,12.5l1,1L23,120c0.1,0.1,0.1,0.1,0.2,0.2l14.3,14.3l0,0l43.6,43.6
	l19.3,19.3c1.4,1,3.1,1.5,4.9,1.5c2.3,0,4.6-0.9,6.2-2.6c3.4-3.4,3.4-9,0-12.5l-0.7-0.7c-2.4-2.4-2.4-6.3,0-8.6
	c1.1-1.2,2.7-1.8,4.3-1.8c1.6,0,3.1,0.6,4.2,1.7c0,0,12.6,12.1,13.4,12.9l10.1,10.1c1.4,1,3.1,1.5,4.9,1.5c2.3,0,4.6-0.9,6.2-2.6
	c3.4-3.4,3.4-9,0-12.5l-0.7-0.7c-2.4-2.4-2.4-6.3,0-8.6c1.1-1.2,2.7-1.8,4.3-1.8s3.1,0.6,4.2,1.7l11.3,11.3c1.7,1.7,3.9,2.6,6.2,2.6
	l0,0c2.3,0,4.6-0.9,6.2-2.6c3.4-3.4,3.4-9,0-12.5l-13.6-13.6L161.2,149c-2.4-2.4-2.4-6.3,0-8.6c1.1-1.2,2.7-1.8,4.3-1.8
	s3.2,0.6,4.3,1.8l6,6c1.7,1.7,3.9,2.6,6.2,2.6s4.6-0.9,6.2-2.6c3.4-3.4,3.4-9,0-12.5L187.5,133z"/>
<g>
	<circle class="st1" cx="100.6" cy="99.4" r="47.3"/>
</g>
<g>
	<path class="st2" d="M70.1,76.1c-0.9-0.5-2.1-0.8-3.4-0.8h-4.6v13h4.6c1.3,0,2.4-0.3,3.4-0.8c0.9-0.5,1.7-1.3,2.2-2.2
		c0.5-1,0.8-2.1,0.8-3.5c0-1.3-0.3-2.5-0.8-3.5C71.7,77.4,71,76.6,70.1,76.1z M69.8,84.2c-0.3,0.6-0.7,1.1-1.3,1.3
		c-0.6,0.3-1.2,0.4-2,0.4h-1.7v-8.3h1.7c0.8,0,1.5,0.1,2,0.4c0.6,0.3,1,0.7,1.3,1.3c0.3,0.6,0.4,1.4,0.4,2.3
		C70.3,82.8,70.1,83.6,69.8,84.2z"/>
	<path class="st2" d="M83.6,86.1c0.4-0.8,0.6-1.6,0.6-2.6c0-1-0.2-1.9-0.6-2.6c-0.4-0.8-0.9-1.3-1.7-1.8c-0.7-0.4-1.6-0.6-2.6-0.6
		s-1.8,0.2-2.5,0.6s-1.3,1-1.7,1.8c-0.4,0.8-0.6,1.6-0.6,2.6c0,1,0.2,1.9,0.6,2.6c0.4,0.8,0.9,1.3,1.7,1.8c0.7,0.4,1.6,0.6,2.5,0.6
		s1.8-0.2,2.6-0.6C82.6,87.5,83.2,86.9,83.6,86.1z M81.2,85c-0.2,0.4-0.4,0.8-0.7,1c-0.3,0.3-0.7,0.4-1.1,0.4
		c-0.5,0-0.8-0.1-1.1-0.4c-0.3-0.3-0.5-0.6-0.7-1c-0.2-0.4-0.2-0.9-0.2-1.5c0-0.6,0.1-1.1,0.2-1.5c0.2-0.4,0.4-0.8,0.7-1.1
		c0.3-0.3,0.7-0.4,1.1-0.4c0.4,0,0.8,0.1,1.1,0.4c0.3,0.3,0.5,0.6,0.7,1.1c0.2,0.4,0.2,0.9,0.2,1.5C81.4,84,81.3,84.5,81.2,85z"/>
	<path class="st2" d="M92.2,88.3h2.7v-6.2c0-0.8-0.1-1.4-0.4-2c-0.3-0.5-0.7-1-1.2-1.3c-0.5-0.3-1.1-0.4-1.8-0.4
		c-0.7,0-1.3,0.2-1.8,0.5c-0.5,0.3-0.9,0.8-1.1,1.3h-0.1v-1.7h-2.6v9.7h2.7v-5.6c0-0.4,0.1-0.8,0.2-1.1c0.2-0.3,0.4-0.5,0.6-0.7
		c0.3-0.2,0.6-0.2,1-0.2c0.5,0,1,0.2,1.3,0.5c0.3,0.3,0.5,0.8,0.5,1.4V88.3z"/>
	<path class="st2" d="M99.7,82.7c0-0.4,0.1-0.8,0.2-1.1c0.2-0.3,0.4-0.5,0.6-0.7c0.3-0.2,0.6-0.2,1-0.2c0.5,0,1,0.2,1.3,0.5
		c0.3,0.3,0.5,0.8,0.5,1.4v5.7h2.7v-6.2c0-0.8-0.1-1.4-0.4-2c-0.3-0.5-0.7-1-1.2-1.3c-0.5-0.3-1.1-0.4-1.8-0.4
		c-0.7,0-1.3,0.2-1.8,0.5c-0.5,0.3-0.9,0.8-1.1,1.3h-0.1v-1.7H97v9.7h2.7V82.7z"/>
	<polygon class="st2" points="115.2,74.4 112.7,74.4 111.4,77.3 113.3,77.3 	"/>
	<path class="st2" d="M112.5,88.5c0.8,0,1.5-0.1,2.1-0.4c0.6-0.2,1.1-0.6,1.5-1c0.4-0.4,0.6-1,0.8-1.6l-2.5-0.2
		c-0.1,0.2-0.2,0.5-0.4,0.6c-0.2,0.2-0.4,0.3-0.6,0.4c-0.2,0.1-0.5,0.1-0.8,0.1c-0.5,0-0.8-0.1-1.2-0.3c-0.3-0.2-0.6-0.5-0.8-0.8
		c-0.2-0.4-0.3-0.8-0.3-1.2v0h6.6v-0.7c0-0.8-0.1-1.6-0.3-2.2c-0.2-0.6-0.6-1.1-1-1.5c-0.4-0.4-0.9-0.7-1.5-0.9
		c-0.6-0.2-1.2-0.3-1.8-0.3c-1,0-1.8,0.2-2.5,0.6s-1.3,1-1.6,1.8c-0.4,0.8-0.6,1.6-0.6,2.6c0,1,0.2,1.9,0.6,2.7
		c0.4,0.7,0.9,1.3,1.7,1.7C110.7,88.3,111.5,88.5,112.5,88.5z M111.4,80.8c0.3-0.2,0.7-0.3,1.1-0.3c0.4,0,0.7,0.1,1,0.3
		c0.3,0.2,0.5,0.4,0.7,0.7c0.2,0.3,0.3,0.6,0.3,1h-4.1c0-0.3,0.1-0.7,0.3-1C110.8,81.2,111.1,80.9,111.4,80.8z"/>
	<path class="st2" d="M126.3,79.7c-0.4-0.4-0.9-0.7-1.5-0.9c-0.6-0.2-1.2-0.3-1.8-0.3c-1,0-1.8,0.2-2.5,0.6s-1.3,1-1.6,1.8
		c-0.4,0.8-0.6,1.6-0.6,2.6c0,1,0.2,1.9,0.6,2.7c0.4,0.7,0.9,1.3,1.7,1.7c0.7,0.4,1.6,0.6,2.6,0.6c0.8,0,1.5-0.1,2.1-0.4
		c0.6-0.2,1.1-0.6,1.5-1c0.4-0.4,0.6-1,0.8-1.6l-2.5-0.2c-0.1,0.2-0.2,0.5-0.4,0.6c-0.2,0.2-0.4,0.3-0.6,0.4
		c-0.2,0.1-0.5,0.1-0.8,0.1c-0.5,0-0.8-0.1-1.2-0.3c-0.3-0.2-0.6-0.5-0.8-0.8c-0.2-0.4-0.3-0.8-0.3-1.2v0h6.6v-0.7
		c0-0.8-0.1-1.6-0.3-2.2C127.1,80.6,126.8,80.1,126.3,79.7z M121,82.5c0-0.3,0.1-0.7,0.3-1c0.2-0.3,0.4-0.6,0.7-0.8
		c0.3-0.2,0.7-0.3,1.1-0.3c0.4,0,0.7,0.1,1,0.3s0.5,0.4,0.7,0.7c0.2,0.3,0.3,0.6,0.3,1H121z"/>
	<path class="st2" d="M137,83.6c-0.5-0.4-1.2-0.7-2.1-0.9l-1.8-0.4c-0.5-0.1-0.8-0.2-1-0.4c-0.2-0.2-0.3-0.4-0.3-0.6
		c0-0.3,0.1-0.5,0.4-0.7c0.3-0.2,0.6-0.3,1.1-0.3c0.3,0,0.6,0.1,0.8,0.2c0.2,0.1,0.4,0.2,0.5,0.4s0.2,0.4,0.3,0.6l2.5-0.2
		c-0.1-0.9-0.5-1.6-1.2-2.1c-0.7-0.5-1.7-0.8-2.9-0.8c-0.8,0-1.6,0.1-2.2,0.4c-0.6,0.2-1.1,0.6-1.4,1c-0.3,0.5-0.5,1-0.5,1.6
		c0,0.7,0.2,1.3,0.7,1.8c0.5,0.5,1.2,0.8,2.1,1l1.7,0.3c0.4,0.1,0.7,0.2,0.9,0.4c0.2,0.2,0.3,0.4,0.3,0.6c0,0.3-0.2,0.5-0.4,0.7
		c-0.3,0.2-0.7,0.3-1.1,0.3c-0.5,0-0.9-0.1-1.2-0.3c-0.3-0.2-0.5-0.5-0.6-0.9l-2.7,0.1c0.1,0.9,0.6,1.7,1.3,2.2s1.8,0.8,3.1,0.8
		c0.8,0,1.6-0.1,2.2-0.4c0.6-0.3,1.2-0.6,1.5-1.1c0.4-0.5,0.6-1,0.6-1.7C137.7,84.6,137.5,84,137,83.6z"/>
	<polygon class="st2" points="102.9,96.1 100.6,96.1 96.4,111.7 98.7,111.7 	"/>
	<path class="st2" d="M87.7,123L87.7,123c-0.2-0.3-0.4-0.5-0.6-0.8c-0.2-0.3-0.5-0.5-0.9-0.7c-0.4-0.2-0.8-0.3-1.4-0.3
		c-0.7,0-1.4,0.2-2,0.6c-0.6,0.4-1.1,0.9-1.4,1.7s-0.5,1.7-0.5,2.8c0,1.1,0.2,2,0.5,2.7c0.3,0.7,0.8,1.3,1.4,1.7
		c0.6,0.4,1.3,0.6,2,0.6c0.5,0,1-0.1,1.3-0.3c0.4-0.2,0.7-0.4,0.9-0.7c0.2-0.3,0.4-0.5,0.5-0.8h0.1v1.6h2.7v-13h-2.7V123z
		 M87.5,127.8c-0.2,0.4-0.4,0.8-0.7,1c-0.3,0.2-0.7,0.4-1.1,0.4c-0.4,0-0.8-0.1-1.1-0.4c-0.3-0.2-0.5-0.6-0.7-1
		c-0.2-0.4-0.2-0.9-0.2-1.5c0-0.6,0.1-1.1,0.2-1.5c0.2-0.4,0.4-0.8,0.7-1c0.3-0.2,0.7-0.4,1.1-0.4c0.4,0,0.8,0.1,1.1,0.3
		c0.3,0.2,0.5,0.6,0.7,1c0.2,0.4,0.2,0.9,0.2,1.5C87.7,126.8,87.7,127.3,87.5,127.8z"/>
	<path class="st2" d="M99.6,122c-0.4-0.3-0.8-0.5-1.3-0.6c-0.5-0.1-1-0.2-1.6-0.2c-0.8,0-1.5,0.1-2,0.4c-0.6,0.2-1.1,0.6-1.4,1
		c-0.4,0.4-0.6,0.9-0.7,1.5l2.5,0.2c0.1-0.3,0.3-0.6,0.6-0.8c0.3-0.2,0.7-0.3,1.2-0.3c0.5,0,0.8,0.1,1.1,0.3
		c0.3,0.2,0.4,0.5,0.4,0.9v0c0,0.2-0.1,0.4-0.2,0.5c-0.2,0.1-0.4,0.2-0.8,0.2c-0.3,0.1-0.8,0.1-1.4,0.2c-0.5,0-0.9,0.1-1.4,0.2
		c-0.4,0.1-0.8,0.3-1.2,0.5c-0.3,0.2-0.6,0.5-0.8,0.9c-0.2,0.4-0.3,0.8-0.3,1.4c0,0.6,0.1,1.2,0.4,1.6c0.3,0.4,0.7,0.8,1.1,1
		c0.5,0.2,1,0.3,1.7,0.3c0.5,0,0.9-0.1,1.3-0.2c0.4-0.1,0.7-0.3,0.9-0.5c0.3-0.2,0.5-0.5,0.6-0.8h0.1v1.3h2.6v-6.6
		c0-0.6-0.1-1.1-0.3-1.5C100.3,122.6,100,122.3,99.6,122z M98.2,127.6c0,0.3-0.1,0.6-0.3,0.9c-0.2,0.3-0.4,0.5-0.7,0.6
		c-0.3,0.2-0.7,0.2-1.1,0.2c-0.4,0-0.8-0.1-1-0.3c-0.3-0.2-0.4-0.5-0.4-0.8c0-0.3,0.1-0.5,0.2-0.6c0.1-0.2,0.3-0.3,0.6-0.4
		c0.2-0.1,0.5-0.2,0.8-0.2c0.1,0,0.3,0,0.5-0.1c0.2,0,0.4-0.1,0.5-0.1c0.2,0,0.3-0.1,0.5-0.1c0.1,0,0.3-0.1,0.3-0.1V127.6z"/>
	<path class="st2" d="M107.6,129c-0.1,0-0.3,0-0.4,0c-0.2,0-0.3,0-0.5-0.1c-0.1-0.1-0.2-0.2-0.3-0.3c-0.1-0.1-0.1-0.3-0.1-0.6v-4.7
		h1.8v-2h-1.8v-2.3h-2.7v2.3h-1.3v2h1.3v5.1c0,0.6,0.1,1.2,0.4,1.6s0.6,0.7,1.1,0.9c0.5,0.2,1.1,0.3,1.7,0.3c0.4,0,0.6,0,0.9-0.1
		c0.2-0.1,0.4-0.1,0.6-0.1l-0.4-2C107.8,129,107.7,129,107.6,129z"/>
	<path class="st2" d="M116.9,122c-0.4-0.3-0.8-0.5-1.3-0.6c-0.5-0.1-1-0.2-1.6-0.2c-0.8,0-1.5,0.1-2,0.4c-0.6,0.2-1.1,0.6-1.4,1
		c-0.4,0.4-0.6,0.9-0.7,1.5l2.5,0.2c0.1-0.3,0.3-0.6,0.6-0.8c0.3-0.2,0.7-0.3,1.2-0.3c0.5,0,0.8,0.1,1.1,0.3
		c0.3,0.2,0.4,0.5,0.4,0.9v0c0,0.2-0.1,0.4-0.2,0.5c-0.2,0.1-0.4,0.2-0.8,0.2c-0.3,0.1-0.8,0.1-1.4,0.2c-0.5,0-0.9,0.1-1.4,0.2
		c-0.4,0.1-0.8,0.3-1.2,0.5c-0.3,0.2-0.6,0.5-0.8,0.9c-0.2,0.4-0.3,0.8-0.3,1.4c0,0.6,0.1,1.2,0.4,1.6c0.3,0.4,0.7,0.8,1.1,1
		c0.5,0.2,1,0.3,1.7,0.3c0.5,0,0.9-0.1,1.3-0.2c0.4-0.1,0.7-0.3,0.9-0.5c0.3-0.2,0.5-0.5,0.6-0.8h0.1v1.3h2.6v-6.6
		c0-0.6-0.1-1.1-0.3-1.5C117.5,122.6,117.2,122.3,116.9,122z M115.4,127.6c0,0.3-0.1,0.6-0.3,0.9c-0.2,0.3-0.4,0.5-0.7,0.6
		c-0.3,0.2-0.7,0.2-1.1,0.2c-0.4,0-0.8-0.1-1-0.3c-0.3-0.2-0.4-0.5-0.4-0.8c0-0.3,0.1-0.5,0.2-0.6c0.1-0.2,0.3-0.3,0.6-0.4
		c0.2-0.1,0.5-0.2,0.8-0.2c0.1,0,0.3,0,0.5-0.1c0.2,0,0.4-0.1,0.5-0.1c0.2,0,0.3-0.1,0.5-0.1s0.3-0.1,0.3-0.1V127.6z"/>
</g>
</svg>
