<?xml version="1.0" encoding="utf-8"?>
<!-- Generator: Adobe Illustrator 25.2.0, SVG Export Plug-In . SVG Version: 6.00 Build 0)  -->
<svg version="1.1" id="Calque_1" xmlns="http://www.w3.org/2000/svg" xmlns:xlink="http://www.w3.org/1999/xlink" x="0px" y="0px"
	 viewBox="0 0 200 200" style="enable-background:new 0 0 200 200;" xml:space="preserve">
<style type="text/css">
	.st0{fill:#BBB8FF;}
	.st1{fill:#6900FF;}
	.st2{fill:#260063;}
	.st3{fill:#4700B7;}
	.st4{fill:#8761FF;}
</style>
<g>
	<circle class="st0" cx="99.76" cy="99.81" r="81.36"/>
	<g>
		<path class="st1" d="M99.76,184.4c-11.42,0-22.5-2.24-32.93-6.65c-10.07-4.26-19.12-10.36-26.89-18.13
			c-7.77-7.77-13.87-16.81-18.13-26.89c-4.41-10.43-6.65-21.51-6.65-32.93s2.24-22.5,6.65-32.93c4.26-10.07,10.36-19.12,18.13-26.89
			c7.77-7.77,16.81-13.87,26.89-18.13c10.43-4.41,21.51-6.65,32.93-6.65s22.5,2.24,32.93,6.65c10.07,4.26,19.12,10.36,26.89,18.13
			c7.77,7.77,13.87,16.81,18.13,26.89c4.41,10.43,6.65,21.51,6.65,32.93s-2.24,22.5-6.65,32.93c-4.26,10.07-10.36,19.12-18.13,26.89
			c-7.77,7.77-16.81,13.87-26.89,18.13C122.26,182.17,111.18,184.4,99.76,184.4z M99.76,23.56c-42.04,0-76.25,34.2-76.25,76.25
			s34.2,76.25,76.25,76.25s76.25-34.2,76.25-76.25S141.8,23.56,99.76,23.56z"/>
	</g>
	<g>
		<path class="st2" d="M47.75,99.24c0,0-0.02,4.4-0.03,5.86c0,1.69,3.72,6.87,5.32,7.41l48.8,16.48c1.36,0.46,2.87,0.14,3.93-0.83
			l44.75-41.12c1.07-0.98,1.51-2.47,1.15-3.88v0c-0.69-2.71-3.9-3.86-6.15-2.2l-40.21,29.59c-0.95,0.7-2.17,0.94-3.32,0.64
			l-41.7-10.72C55.26,99.19,47.75,94.05,47.75,99.24z"/>
		<path class="st0" d="M50.37,104.74v0.6c0,1.69,1.08,3.19,2.68,3.73l48.8,16.48c1.36,0.46,2.87,0.14,3.93-0.83l44.75-41.12
			c1.07-0.98,1.51-2.47,1.15-3.88v0c-0.69-2.71-3.9-3.86-6.15-2.2l-40.21,29.59c-0.95,0.7-2.17,0.94-3.32,0.64l-41.7-10.72
			C55.26,95.76,50.37,99.55,50.37,104.74z"/>
		<path class="st1" d="M51.24,103.63l49.52,16.88c1.82,0.62,3.83,0.18,5.23-1.14l44.17-41.63c3.06-2.89,1.59-8.03-2.54-8.86
			l-45.91-9.23c-1.4-0.28-2.86,0.03-4.03,0.86L49.91,94.5C46.46,96.95,47.24,102.27,51.24,103.63z"/>
		<path class="st3" d="M94.53,73.97c-0.51,0.35-0.38,1.14,0.22,1.31v0l23.4,6.64c0.21,0.06,0.44,0.02,0.62-0.11l11.47-8.14
			c0.52-0.37,0.35-1.18-0.27-1.32l-25.05-5.31c-0.2-0.04-0.4,0-0.57,0.11L94.53,73.97z"/>
		<path class="st4" d="M106.81,71.28l12.9,3.13c0.6,0.15,0.68,0.97,0.13,1.23l-2.14,1.02c-0.14,0.07-0.3,0.08-0.45,0.04l-13.33-3.64
			c-0.53-0.14-0.66-0.84-0.21-1.16l0,0C104.59,71.24,105.73,71.02,106.81,71.28z"/>
		<path class="st3" d="M82.63,114.33c-0.16-0.06-0.34-0.03-0.49,0.06c-1,0.64-4.78,3.5-4.78,10.16c0,7.67-1.39,4.02-4.29,6.92
			c-1.69,1.69-3.39,3.45-4.5,4.62c-0.39,0.41-0.01,1.07,0.54,0.94l5.03-1.16c0.35-0.08,0.69,0.19,0.69,0.55v3.08
			c0,0.56,0.72,0.78,1.03,0.32c1.42-2.07,3.97-5.63,5.54-6.85c2.27-1.75,2.52-4.73,2.52-8.41c0-3.4,1.38-5.08,3.88-7.6
			c0.29-0.3,0.18-0.8-0.22-0.93L82.63,114.33z"/>
	</g>
</g>
</svg>
