<?xml version="1.0" encoding="utf-8"?>
<!-- Generator: Adobe Illustrator 25.2.0, SVG Export Plug-In . SVG Version: 6.00 Build 0)  -->
<svg version="1.1" id="Calque_1" xmlns="http://www.w3.org/2000/svg" xmlns:xlink="http://www.w3.org/1999/xlink" x="0px" y="0px"
	 viewBox="0 0 1080 1080" style="enable-background:new 0 0 1080 1080;" xml:space="preserve">
<style type="text/css">
	.st0{fill:#FFF9C5;}
	.st1{fill:#FFE000;}
	.st2{fill:#FFBC00;}
</style>
<g>
	<path class="st0" d="M124,829c3.6,146.8,65.8,273.6,197.3,182.2c138.8-96.5,254.2-1.7,302.5-26.9c65.5-34.1,134-31.2,196.2-17
		c62.2,14.2,169-5.4,195.6-101.1c26.3-94.6-50.7-181.2-32.9-259.5s101.3-256.8,44.4-323.3c-56.9-66.6-32-110.8-58.7-194.3
		c-26.6-83.6-354.3-12.6-408.7,35.4c-54.4,48-264.2-89.3-350.5-86.5c-272,8.9-45.3,206.2-48.8,345.9
		c-1.4,55.9-97.8,111.6-99.6,207.9S120.9,699.5,124,829z"/>
</g>
<g>
	<path class="st1" d="M553.8,202.7H425.3c-5.5,0-10-4.5-10-10s4.5-10,10-10h128.5c5.5,0,10,4.5,10,10S559.3,202.7,553.8,202.7z"/>
</g>
<g>
	<path class="st1" d="M969.7,106.7H841.2c-5.5,0-10-4.5-10-10s4.5-10,10-10h128.5c5.5,0,10,4.5,10,10S975.2,106.7,969.7,106.7z"/>
</g>
<g>
	<path class="st1" d="M1034,220.1H905.5c-5.5,0-10-4.5-10-10s4.5-10,10-10H1034c5.5,0,10,4.5,10,10S1039.5,220.1,1034,220.1z"/>
</g>
<g>
	<path class="st1" d="M1034,303H905.5c-5.5,0-10-4.5-10-10s4.5-10,10-10H1034c5.5,0,10,4.5,10,10S1039.5,303,1034,303z"/>
</g>
<g>
	<path class="st1" d="M1025.1,741.3H896.6c-5.5,0-10-4.5-10-10s4.5-10,10-10h128.5c5.5,0,10,4.5,10,10S1030.6,741.3,1025.1,741.3z"
		/>
</g>
<g>
	<path class="st1" d="M990.5,828.5H862c-5.5,0-10-4.5-10-10s4.5-10,10-10h128.5c5.5,0,10,4.5,10,10S996.1,828.5,990.5,828.5z"/>
</g>
<g>
	<path class="st1" d="M885.3,871H756.7c-5.5,0-10-4.5-10-10s4.5-10,10-10h128.5c5.5,0,10,4.5,10,10S890.8,871,885.3,871z"/>
</g>
<g>
	<path class="st1" d="M906.8,924.5H778.2c-5.5,0-10-4.5-10-10s4.5-10,10-10h128.5c5.5,0,10,4.5,10,10S912.3,924.5,906.8,924.5z"/>
</g>
<g>
	<path class="st1" d="M605.1,924.5H476.6c-5.5,0-10-4.5-10-10s4.5-10,10-10h128.5c5.5,0,10,4.5,10,10S610.7,924.5,605.1,924.5z"/>
</g>
<g>
	<path class="st1" d="M176,748.5H47.5c-5.5,0-10-4.5-10-10s4.5-10,10-10H176c5.5,0,10,4.5,10,10S181.6,748.5,176,748.5z"/>
</g>
<g>
	<path class="st1" d="M415.2,965.3H286.7c-5.5,0-10-4.5-10-10s4.5-10,10-10h128.5c5.5,0,10,4.5,10,10S420.7,965.3,415.2,965.3z"/>
</g>
<g>
	<path class="st1" d="M400.1,1021.2H271.6c-5.5,0-10-4.5-10-10s4.5-10,10-10h128.5c5.5,0,10,4.5,10,10S405.6,1021.2,400.1,1021.2z"
		/>
</g>
<g>
	<path class="st1" d="M219.6,264H91.1c-5.5,0-10-4.5-10-10s4.5-10,10-10h128.5c5.5,0,10,4.5,10,10S225.1,264,219.6,264z"/>
</g>
<g>
	<path class="st1" d="M176,152.9H47.5c-5.5,0-10-4.5-10-10s4.5-10,10-10H176c5.5,0,10,4.5,10,10S181.6,152.9,176,152.9z"/>
</g>
<g>
	<g>
		<path class="st2" d="M650.4,859.6c-4.3-7.2-5.6-14.5-3.7-22c0.9-2.6,1.9-5.3,3.1-8c0.1-0.1,0.1-0.2,0.2-0.3l0,0
			c2.1-4.9,4.6-10,7.6-15.4c0.5,6,2.1,12,5.4,17.5c9,14.8,27.8,22.2,56,22.2c3.6,0,7.4-0.1,11.4-0.4l-0.6-10
			c-30.1,1.9-50.2-4-58.2-17.1c-7.4-12.1-3.3-28.1,0.4-35.7c0.3-0.6,0.6-1.2,0.9-1.7c0,0,0-0.1,0.1-0.1l0,0
			c10.9-20.9,14-40.7,9.2-59.2c-11.5-44.1-65.2-71.6-104.4-91.6c-18.6-9.5-39.7-20.3-41-26.7c79-1,181.1-9,181.1-61
			c0-56.8-74.1-122.7-154.6-122.8l4.9-0.1c0-0.2-0.1-19.2,7.4-43.9c6.9-22.6,21.8-54.6,53.7-79.2c30.9-23.8,76.5-13.3,116.8-4.1
			c9.6,2.2,19.1,4.4,28.2,6l-1,0.9c0.8,0.8,19,20,46.8,33.4c17.4,8.4,34.6,12.5,51.3,12.5c19.2,0,37.7-5.5,54.9-16.6l-5.4-8.4
			c-29.3,18.9-61.7,20-96.2,3.5c-15.3-7.3-27.7-16.7-35.4-23.3c1.2,0.1,2.4,0.2,3.6,0.3v0c0.2,0,0.4,0,0.5,0c2.4,0.2,4.7,0.3,7,0.3
			c14.6,0,26.8-3.6,34.7-14c4.3-2.7,8.6-5.7,12.9-8.7c19.6-13.6,40-27.7,75.6-27.7v-10c-37.6,0-60,14.8-79.6,28.3
			c6.7-18.6,10.3-41.2,13.7-63.2c4.8-30.7,9.8-62.4,23.1-71.1c4-2.6,8.8-3.1,14.8-1.5l2.6-9.7c-8.7-2.3-16.4-1.4-22.8,2.8
			c-17.1,11.1-22.2,43.5-27.6,77.9c-4.1,26.4-8.4,53.8-18.1,72.6c-0.5,1-1.1,2-1.7,2.9c-10.7,6.5-21.5,11.1-35,11.2
			c-13.1-1-28.4-4.5-44.8-8.3c-42.4-9.8-90.5-20.8-125.1,5.9c-34.1,26.3-50,60.5-57.3,84.6c-7.8,25.8-7.8,45.4-7.8,46.5
			c-35.1,0.3-77.7,3.6-114.7,11.8c-3.7-28.1-28.7-55.1-57.7-86.3c-25.7-27.7-53.5-57.6-70.1-92.4l0,0c-4.1-10.1-3.3-42.7,13.4-58.4
			c13-12.2,32.8-12.1,59,0.4l4.3-9c-37.6-18-58.9-9.2-70.1,1.3c-9.8,9.2-15.2,22.9-17.4,36.2c-4-16-5.4-33.1-3-51.4
			c5.2-40.3-3.9-69-26.9-85.4c-39-27.7-104.8-9.5-124.3,0.3l4.5,8.9c22.9-11.5,81.8-24,114-1.1c19.8,14.1,27.5,39.6,22.8,76
			c-1.7,13.1-1.7,26.1,0.1,39c-10.6-9.1-25.4-16.4-42.6-20.5c-31.8-7.7-63.8-3.3-83.6,11.6l6,8c17.4-13.1,46.2-16.8,75.2-9.8
			c23.9,5.8,42.3,17.7,49.5,32c2.5,8.6,5.8,17.2,9.8,25.8c0,0,0,0,0,0l0,0c2.6,5.5,5.5,11,8.7,16.5c17.3,29.5,41.7,55.8,63.2,78.9
			c28,30.1,52.1,56.1,55.2,81.2l5-0.6c-45.7,10.9-81.7,29.6-81.7,60c0,28.3,19.3,55.9,48.5,76.5c-5.4,4-19.9,9.7-36.6,16.2
			c-49.4,19.2-131.7,50.2-147.5,104.4l0,0c-0.6,1.4-1.2,1.9-2,3.8c-5.6,13.3-16.1,38.7-26.2,69c-11.8,18.2-40.5,48-69,52.5
			c-11.3,1.8-21.4-0.9-29.9-8c-2.1-1.8-5.3-1.5-7,0.7c-1.8,2.1-1.5,5.3,0.7,7c8.7,7.2,18.6,10.8,29.5,10.8c2.7,0,5.5-0.2,8.3-0.7
			c22.2-3.5,43.8-19.8,59.4-36.3c-2,6.9-3.9,14-5.6,21.1c-15.4,63.1-13.6,109.4,5.1,137.5c14.1,21.1,37.5,31.8,69.7,31.8v-10
			c-28.6,0-49.3-9.2-61.4-27.4c-17.1-25.7-18.4-69.3-3.7-129.6c3.8-15.8,8.4-31.2,13.2-45.6c0-0.1,0-0.1,0.1-0.2
			c6.4-19.5,13.1-37,18.5-50.5c0,2.1,0,4.1,0,6.2h0c0,2.5-0.4,8-1,15c-3.3,40.8-11.1,136.3,21.1,171.3c8.2,8.9,18.5,13.5,30.5,13.5
			v-10c-9.3,0-16.8-3.3-23.2-10.2c-21.7-23.6-23-82.4-21-125.9c6.1,25.3,16.5,46.8,30.5,61.9c12.6,13.7,27.6,21.1,43.3,21.6l0.3-10
			c-12.9-0.4-25.5-6.7-36.3-18.4c-23.8-25.7-36.4-72.2-33.9-124.4c2.8-57.7,89.4-91.4,141.2-111.6c20.2-7.9,34.9-13.6,40.7-18.9
			l-3.4-3.7c29,19.1,66.9,31.5,105.4,31.5c5.3,0,10.8,0,16.5-0.1l-5,0.4c1,11.8,19.1,21.1,46.5,35.1c37.5,19.2,88.9,45.5,99.3,85.2
			c4.2,16.1,1.5,33.1-8.1,51.6l0,0c-0.5,0.8-1,1.8-1.5,2.7c-1.8,3.3-3.8,6.6-6.1,9.9c-6.9,10.4-12.2,20.1-16,29.1
			c-1.6,3.2-2.8,6.4-3.7,9.6c-13.1,39.1,0.1,64.7,8.8,81.5c3.4,6.6,6.6,12.9,5.3,15.3c-4.1,7.2-44.6,9.4-59.8,10.2l0.5,10
			c46.3-2.5,62.8-6.3,68-15.3c4.1-7.1,0-15-5.1-24.8c-6.1-11.7-13.8-26.8-13.2-47.5c0.1,0.2,0.2,0.3,0.3,0.5
			c17.6,29.1,71.3,47.1,111.1,47.1v-10C715.7,901.9,665.7,884.9,650.4,859.6z"/>
	</g>
	<g>
		<path class="st2" d="M876.7,697.4c-17.1,7-36.5,14.9-52.4,19.6c-23.1,6.8-27.4,3.1-28.1,2.3c-0.5-0.7-4.3-7.3,18-37.5
			c25.5-34.4,32.9-62.8,22.1-84.2c-18.2-36.2-82.1-41.6-118.6-41.6v10c27.5,0,93.2,3.5,109.6,36.1c9,17.8,1.8,42.6-21.2,73.8
			c-9,12.1-14.9,21.9-18,29.8l0,0c-7.5,19.4-15.7,47.4-0.1,66.1c9.4,11.3,25.6,16.9,48.9,16.9c12.5,0,27-1.6,43.6-4.8l-1.9-9.8
			c-43.3,8.3-71.1,5.4-82.9-8.7c-8.1-9.7-7.6-23.8-4.4-37.1c2.9,1.9,6.8,2.8,11.6,2.8c16.2,0,42.8-10.2,77.5-24.4
			c17.7-7.2,37.7-15.4,42.5-14.8l1.2-9.9C917.2,681.1,902.3,686.9,876.7,697.4z"/>
	</g>
</g>
<g>
	<path class="st2" d="M526.7,439.8c38.2,0.9,157.3,17.6,166.2,93.2c8.9,75.7-120,69.4-156.4,65.9s-137.8-13.8-154.7-86
		S526.7,439.8,526.7,439.8z"/>
</g>
<g>
	<path class="st0" d="M442.2,569.7c-2.8,0-5-2.2-5-5v-65.5c-1.9,4.4-3.5,8-4.7,10.6c-2.8,6-3.6,7.8-6.7,8.1
		c-1.8,0.2-3.6-0.6-4.6-2.1c-0.1-0.2-0.2-0.4-0.3-0.6l-5.7-11l4.1,44.9c0.2,2.8-1.8,5.2-4.5,5.4c-2.7,0.3-5.2-1.8-5.4-4.5l-5.9-65.1
		c-0.2-2.7,1.4-5.3,3.9-6.2c2.6-0.9,5.4,0,7,2.2c0.1,0.2,0.2,0.4,0.3,0.6l10.5,20.3c2.8-6.4,6.8-15.4,10.4-23.9
		c0.9-2.6,3.5-4.4,6.4-4c3,0.3,5.3,2.9,5.3,6v84.9C447.2,567.4,445,569.7,442.2,569.7z"/>
</g>
<g>
	<path class="st0" d="M457.4,579.9c-2.8,0-5-2.2-5-5v-124c0-2.8,2.2-5,5-5s5,2.2,5,5v124C462.4,577.7,460.1,579.9,457.4,579.9z"/>
</g>
<g>
	<path class="st0" d="M472,579.9c-2.7,0-4.9-2.2-5-4.9l-2-92.4c-0.1-3.1,2.1-5.6,5.1-6.1c3-0.5,5.8,1.4,6.7,4.3l8,28.8v-58.8
		c0-2.8,2.2-5,5-5s5,2.2,5,5v88c0,3-2.2,5.5-5.2,6c-3,0.4-5.8-1.4-6.6-4.3l-7.3-26.3l1.3,60.5c0.1,2.8-2.1,5-4.9,5.1
		C472.1,579.9,472.1,579.9,472,579.9z"/>
</g>
<g>
	<path class="st0" d="M508.5,587.6c-1.2,0-2.5-0.3-3.6-0.8c-3.1-1.5-5-4.6-4.9-8l-0.1-121.4c-0.2-2,0.6-3.9,2.2-5.2
		c1.7-1.4,4.1-1.8,6.2-0.9l27.9,11.9c2.1,0.9,3.5,2.8,3.6,5.1l6.1,84.7c0.1,1.8-0.6,3.6-1.9,4.8l-29.7,27.5
		C512.7,586.8,510.6,587.6,508.5,587.6z M509.9,462.9l0.1,112.8l25.8-23.9l-5.8-80.3L509.9,462.9z"/>
</g>
<g>
	<path class="st0" d="M590.8,591.9c-2.7,0-4.9-2.1-5-4.8l-5.4-111.8l-5.4,17.3c-0.1,0.2-0.1,0.4-0.2,0.6c-1,2.3-3.4,3.7-5.9,3.5
		c-2.5-0.2-4.5-1.8-5.3-4.1l-4-11.2L562,552c0.1,2.8-2.1,5.1-4.8,5.2c-2.7,0.1-5.1-2.1-5.2-4.8l-3.3-95.8c-0.1-3.1,2-5.7,5.1-6.1
		c3-0.5,5.7,1.2,6.7,4.1l8.6,23.8l8.6-27.6c0.1-0.2,0.1-0.4,0.2-0.6c1.1-2.5,3.9-4,6.6-3.4c2.7,0.5,4.8,2.8,4.9,5.6l6.5,134.5
		c0.1,2.8-2,5.1-4.8,5.2C590.9,591.9,590.9,591.9,590.8,591.9z"/>
</g>
<g>
	<path class="st0" d="M637.2,585.8c-2.4,0-4.5-1.7-4.9-4.2L621.7,516l-6.5,1.9l-1.4,49.2c-0.1,2.7-2.3,4.9-5,4.9c0,0-0.1,0-0.1,0
		c-2.8-0.1-4.9-2.4-4.9-5.1l2.9-103.3c0.1-3,2.3-5.5,5.3-5.8c3-0.4,5.7,1.5,6.5,4.4l12.1,45.1c0.2,0.9,0.2,1.9-0.1,2.8
		c0.3,0.6,0.5,1.2,0.6,1.8l11,68.1c0.4,2.7-1.4,5.3-4.1,5.7C637.7,585.7,637.4,585.8,637.2,585.8z M625.2,516.8
		C625.2,516.8,625.2,516.8,625.2,516.8C625.2,516.8,625.2,516.8,625.2,516.8z M615.9,491l-0.5,16.2c1.4-0.5,3-1,4.4-1.5L615.9,491z"
		/>
</g>
<g>
	<path class="st0" d="M647.2,566.1c-2.5,0-4.7-1.9-5-4.5l-10-95.3c-0.3-2.4,1-4.7,3.1-5.9c2.1-1.2,4.8-0.9,6.7,0.6l34.2,27.7
		c1.6,1.3,2.4,3.3,2.2,5.4s-1.5,3.8-3.3,4.7l-27.9,13.6l5,48.3c0.3,2.7-1.7,5.2-4.5,5.5C647.5,566.1,647.3,566.1,647.2,566.1z
		 M643.2,474.8l2.8,26.9l19-9.2L643.2,474.8z"/>
</g>
<g>
	<path class="st1" d="M470.2,858.6H341.7c-5.5,0-10-4.5-10-10s4.5-10,10-10h128.5c5.5,0,10,4.5,10,10S475.8,858.6,470.2,858.6z"/>
</g>
</svg>
