<?xml version="1.0" encoding="utf-8"?>
<!-- Generator: Adobe Illustrator 25.2.0, SVG Export Plug-In . SVG Version: 6.00 Build 0)  -->
<svg version="1.1" id="Calque_1" xmlns="http://www.w3.org/2000/svg" xmlns:xlink="http://www.w3.org/1999/xlink" x="0px" y="0px"
	 viewBox="0 0 1080 1080" style="enable-background:new 0 0 1080 1080;" xml:space="preserve">
<style type="text/css">
	.st0{fill:#FFF9C5;}
	.st1{fill:#FFF200;}
	.st2{fill:#FFE000;}
	.st3{fill:#FFBC00;}
</style>
<path class="st0" d="M152.6,778.5c3.6,146.8,145,138.9,199.9,167.8c149.5,78.9,200.1,49.4,248.5,24.2c65.5-34.1,134-31.2,196.2-17
	c62.2,14.2,169-5.4,195.6-101.1c26.3-94.6-17.8-186.9,0-265.2s51.6-197.6-5.3-264.1S839.8,222.8,813.2,139.2
	c-26.6-83.6-221.8-76.4-276.2-28.4s-161.1,70-247.2,65.8c-71.6-3.5-148.5,54-152.1,193.7c-1.4,55.9-97.8,111.6-99.6,207.9
	S149.5,649,152.6,778.5z"/>
<path class="st1" d="M917.5,443.3C917.5,443.3,917.4,443.3,917.5,443.3c-1.3-1.5-1.5-3.6-0.5-5.2l5.7-9.6c1.3-2.1,0.6-4.8-1.5-6.1
	l-14.3-8.6c-2.1-1.3-4.8-0.6-6.1,1.5l-5.4,9.1c-1,1.7-3,2.5-5,2c-0.6-0.2-1.2-0.3-1.9-0.5c-1.9-0.4-3.3-2-3.4-3.9l-1-11.1
	c-0.2-2.4-2.4-4.2-4.8-4l-16.6,1.5c-2.4,0.2-4.2,2.4-4,4.8l0.9,10.5c0.2,2-1,3.8-2.8,4.5c-0.6,0.2-1.2,0.5-1.8,0.7
	c-1.8,0.8-3.8,0.3-5.1-1.2l-7.3-8.4c-1.6-1.8-4.4-2-6.3-0.4l-12.6,11c-1.8,1.6-2,4.4-0.4,6.3l6.9,8c1.3,1.5,1.4,3.7,0.4,5.3
	c-0.4,0.5-0.7,1.1-1,1.6c-1,1.7-2.9,2.5-4.8,2.1l-10.9-2.5c-2.4-0.5-4.8,0.9-5.3,3.3l-3.7,16.3c-0.5,2.4,0.9,4.8,3.3,5.3l10.3,2.4
	c1.9,0.4,3.3,2.1,3.4,4.1c0,0.6,0.1,1.3,0.1,1.9c0.2,1.9-0.9,3.7-2.7,4.5l-10.3,4.4c-2.3,1-3.3,3.6-2.3,5.8l6.5,15.3
	c1,2.3,3.6,3.3,5.8,2.3l9.7-4.1c1.8-0.8,4-0.2,5.2,1.3c0.4,0.5,0.8,0.9,1.2,1.4c0,0,0,0,0,0c1.3,1.5,1.5,3.5,0.5,5.2l-5.7,9.6
	c-1.3,2.1-0.6,4.8,1.5,6.1l14.3,8.6c2.1,1.3,4.8,0.6,6.1-1.5l5.4-9.1c1-1.7,3-2.5,5-2c0.6,0.2,1.2,0.3,1.9,0.5
	c1.9,0.4,3.3,2,3.4,3.9l1,11.1c0.2,2.4,2.4,4.2,4.8,4l16.6-1.5c2.4-0.2,4.2-2.4,4-4.8l-0.9-10.5c-0.2-2,1-3.8,2.8-4.5
	c0.6-0.2,1.2-0.5,1.8-0.7c1.8-0.8,3.8-0.3,5.1,1.2l7.3,8.4c1.6,1.8,4.4,2,6.3,0.4l12.6-11c1.8-1.6,2-4.4,0.4-6.3l-6.9-8
	c-1.3-1.5-1.4-3.7-0.4-5.3c0.4-0.5,0.7-1.1,1-1.6c1-1.7,2.9-2.5,4.8-2.1l10.9,2.5c2.4,0.5,4.8-0.9,5.3-3.3l3.7-16.3
	c0.5-2.4-0.9-4.8-3.3-5.3l-10.3-2.4c-1.9-0.4-3.3-2.1-3.4-4.1c0-0.6-0.1-1.3-0.1-1.9c-0.2-1.9,0.9-3.7,2.7-4.5l10.3-4.4
	c2.3-1,3.3-3.6,2.3-5.8l-6.5-15.3c-1-2.3-3.6-3.3-5.8-2.3l-9.7,4.1c-1.8,0.8-4,0.2-5.2-1.3C918.2,444.2,917.9,443.8,917.5,443.3z
	 M894.1,494.8c-10.4,11.6-28.8,10.4-37.5-2.6c-5.9-8.8-5.1-20.9,2-28.8c10.4-11.6,28.8-10.4,37.5,2.6
	C902,474.9,901.2,486.9,894.1,494.8z"/>
<path class="st2" d="M484.7,522.2C484.7,522.2,484.7,522.2,484.7,522.2c-1.4-2.4-1.1-5.4,0.8-7.4l10.8-11.6c2.4-2.5,2.2-6.5-0.3-8.9
	l-17.3-16.1c-2.5-2.4-6.5-2.2-8.9,0.3l-10.2,11c-1.9,2.1-5,2.6-7.5,1.3c-0.8-0.4-1.6-0.8-2.5-1.2c-2.5-1.1-3.9-3.7-3.6-6.4l1.9-15.7
	c0.4-3.4-2-6.6-5.5-7l-23.5-2.8c-3.4-0.4-6.6,2-7,5.5l-1.8,14.8c-0.3,2.8-2.5,5-5.3,5.4c-0.9,0.1-1.8,0.3-2.7,0.5
	c-2.7,0.5-5.4-0.7-6.7-3.1l-7.7-13.8c-1.7-3-5.5-4.1-8.5-2.4l-20.6,11.5c-3,1.7-4.1,5.5-2.4,8.5l7.3,13.1c1.4,2.5,0.9,5.5-1.1,7.5
	c-0.6,0.6-1.3,1.3-1.9,2c-1.9,2-4.8,2.6-7.2,1.4l-14.3-6.6c-3.1-1.5-6.9-0.1-8.3,3.1l-9.9,21.4c-1.5,3.1-0.1,6.9,3.1,8.3l13.6,6.3
	c2.5,1.2,4,3.9,3.5,6.7c-0.1,0.9-0.3,1.8-0.4,2.7c-0.3,2.7-2.3,4.9-5,5.4l-15.5,3c-3.4,0.7-5.6,4-5,7.4l4.5,23.2
	c0.7,3.4,4,5.6,7.4,5l14.7-2.9c2.8-0.5,5.6,0.9,6.8,3.4c0.4,0.8,0.8,1.5,1.2,2.3c0,0,0,0,0,0c1.3,2.4,1,5.4-0.8,7.4l-10.8,11.6
	c-2.4,2.5-2.2,6.5,0.3,8.9l17.3,16.1c2.5,2.4,6.5,2.2,8.9-0.3l10.2-11c1.9-2.1,5-2.6,7.5-1.3c0.8,0.4,1.6,0.8,2.5,1.2
	c2.5,1.1,3.9,3.7,3.6,6.4l-1.9,15.7c-0.4,3.4,2,6.6,5.5,7l23.5,2.8c3.4,0.4,6.6-2,7-5.5l1.8-14.8c0.3-2.8,2.5-5,5.3-5.4
	c0.9-0.1,1.8-0.3,2.7-0.5c2.7-0.5,5.4,0.7,6.7,3.1l7.7,13.8c1.7,3,5.5,4.1,8.5,2.4l20.6-11.5c3-1.7,4.1-5.5,2.4-8.5l-7.3-13.1
	c-1.4-2.5-0.9-5.5,1.1-7.5c0.6-0.6,1.3-1.3,1.9-2c1.9-2,4.8-2.6,7.2-1.4l14.3,6.6c3.1,1.5,6.9,0.1,8.3-3.1l9.9-21.4
	c1.5-3.1,0.1-6.9-3.1-8.3l-13.6-6.3c-2.5-1.2-4-3.9-3.5-6.7c0.1-0.9,0.3-1.8,0.4-2.7c0.3-2.7,2.3-4.9,5-5.4l15.5-3
	c3.4-0.7,5.6-4,5-7.4l-4.5-23.2c-0.7-3.4-4-5.6-7.4-5l-14.7,2.9c-2.8,0.5-5.6-0.9-6.8-3.4C485.5,523.7,485.1,523,484.7,522.2z
	 M437.2,586.7c-17.8,13.1-42.9,5.9-51.2-14.6c-5.6-14-0.9-30.4,11.2-39.3c17.8-13.1,42.9-5.9,51.2,14.6
	C454,561.4,449.3,577.8,437.2,586.7z"/>
<path class="st1" d="M728.6,832.3C728.6,832.3,728.6,832.3,728.6,832.3c0-1.2,0.7-2.2,1.8-2.6l6.3-2.1c1.4-0.5,2.2-1.9,1.7-3.3
	l-3.1-9.5c-0.5-1.4-1.9-2.2-3.3-1.7l-6,2c-1.1,0.4-2.4-0.1-3-1c-0.2-0.3-0.4-0.6-0.7-0.9c-0.7-0.9-0.7-2.2,0-3.1l3.9-5.4
	c0.9-1.2,0.6-2.8-0.6-3.7l-8.1-5.9c-1.2-0.9-2.8-0.6-3.7,0.6l-3.7,5.1c-0.7,1-1.9,1.3-3.1,0.9c-0.4-0.1-0.7-0.3-1.1-0.4
	c-1.1-0.4-1.8-1.4-1.8-2.5v-6.7c0-1.5-1.2-2.7-2.7-2.7h-10c-1.5,0-2.7,1.2-2.7,2.7v6.3c0,1.2-0.8,2.2-1.9,2.5
	c-0.4,0.1-0.7,0.2-1.1,0.3c-1.1,0.4-2.3,0-3-1L679,795c-0.9-1.2-2.5-1.4-3.7-0.6l-8.1,5.9c-1.2,0.9-1.4,2.5-0.6,3.7l3.7,5.1
	c0.7,1,0.7,2.3-0.1,3.2c-0.2,0.3-0.5,0.6-0.7,0.9c-0.7,0.9-1.9,1.3-3,1l-6.3-2.1c-1.4-0.5-2.9,0.3-3.3,1.7l-3.1,9.5
	c-0.5,1.4,0.3,2.9,1.7,3.3l6,2c1.1,0.4,1.9,1.5,1.8,2.7c0,0.4,0,0.7,0,1.1c0,0,0,0,0,0c0,1.2-0.7,2.2-1.8,2.5l-6.3,2.1
	c-1.4,0.5-2.2,1.9-1.7,3.3l3.1,9.5c0.5,1.4,1.9,2.2,3.3,1.7l6-2c1.1-0.4,2.4,0.1,3,1c0.2,0.3,0.4,0.6,0.7,0.9c0.7,0.9,0.7,2.2,0,3.1
	l-3.9,5.4c-0.9,1.2-0.6,2.8,0.6,3.7l8.1,5.9c1.2,0.9,2.8,0.6,3.7-0.6l3.7-5.1c0.7-1,1.9-1.3,3.1-0.9c0.4,0.1,0.7,0.3,1.1,0.4
	c1.1,0.4,1.8,1.4,1.8,2.5v6.7c0,1.5,1.2,2.7,2.7,2.7h10c1.5,0,2.7-1.2,2.7-2.7v-6.3c0-1.2,0.8-2.2,1.9-2.5c0.4-0.1,0.7-0.2,1.1-0.3
	c1.1-0.4,2.3,0,3,1l3.9,5.4c0.9,1.2,2.5,1.4,3.7,0.6l8.1-5.9c1.2-0.9,1.4-2.5,0.6-3.7l-3.7-5.1c-0.7-1-0.7-2.3,0.1-3.2
	c0.2-0.3,0.5-0.6,0.7-0.9c0.7-0.9,1.9-1.3,3-1l6.3,2.1c1.4,0.5,2.9-0.3,3.3-1.7l3.1-9.5c0.5-1.4-0.3-2.9-1.7-3.3l-6-2
	c-1.1-0.4-1.9-1.5-1.8-2.7C728.6,833,728.6,832.7,728.6,832.3z M697.9,846.3c-9.3,1.2-17-6.6-15.9-15.9c0.8-6.3,5.9-11.4,12.2-12.2
	c9.3-1.2,17,6.6,15.9,15.9C709.3,840.4,704.2,845.5,697.9,846.3z"/>
<path class="st1" d="M671.2,191.4C671.2,191.4,671.1,191.4,671.2,191.4c-1-1.7-0.9-3.8,0.3-5.2l7.2-8.5c1.6-1.9,1.4-4.7-0.5-6.3
	l-12.7-10.8c-1.9-1.6-4.7-1.4-6.3,0.5l-6.8,8.1c-1.3,1.5-3.4,2-5.2,1.2c-0.6-0.3-1.2-0.5-1.8-0.8c-1.8-0.7-2.9-2.5-2.8-4.4l0.8-11.1
	c0.2-2.4-1.7-4.6-4.1-4.8l-16.6-1.2c-2.4-0.2-4.6,1.7-4.8,4.1l-0.8,10.5c-0.1,2-1.6,3.6-3.5,4c-0.6,0.1-1.3,0.3-1.9,0.4
	c-1.9,0.5-3.8-0.3-4.8-2l-5.9-9.5c-1.3-2.1-4-2.7-6.1-1.4l-14.2,8.8c-2.1,1.3-2.7,4-1.4,6.1l5.6,9c1,1.7,0.8,3.9-0.5,5.3
	c-0.4,0.5-0.9,1-1.3,1.5c-1.2,1.5-3.3,2-5.1,1.3l-10.3-4.2c-2.3-0.9-4.9,0.2-5.8,2.4l-6.3,15.4c-0.9,2.3,0.2,4.9,2.4,5.8l9.8,4
	c1.8,0.8,2.9,2.6,2.7,4.6c-0.1,0.6-0.1,1.3-0.2,1.9c-0.1,1.9-1.5,3.5-3.4,4l-10.8,2.6c-2.4,0.6-3.8,3-3.3,5.4l4,16.2
	c0.6,2.4,3,3.8,5.4,3.3l10.3-2.5c1.9-0.5,3.9,0.4,4.9,2.2c0.3,0.5,0.6,1,0.9,1.6c0,0,0,0,0,0c1,1.6,0.9,3.7-0.3,5.2l-7.2,8.5
	c-1.6,1.9-1.4,4.7,0.5,6.3l12.7,10.8c1.9,1.6,4.7,1.4,6.3-0.5l6.8-8.1c1.3-1.5,3.4-2,5.2-1.2c0.6,0.3,1.2,0.5,1.8,0.8
	c1.8,0.7,2.9,2.5,2.8,4.4l-0.8,11.1c-0.2,2.4,1.7,4.6,4.1,4.8l16.6,1.2c2.4,0.2,4.6-1.7,4.8-4.1l0.8-10.5c0.1-2,1.6-3.6,3.5-4
	c0.6-0.1,1.3-0.3,1.9-0.4c1.9-0.5,3.8,0.3,4.8,2l5.9,9.5c1.3,2.1,4,2.7,6.1,1.4l14.2-8.8c2.1-1.3,2.7-4,1.4-6.1l-5.6-9
	c-1-1.7-0.8-3.9,0.5-5.3c0.4-0.5,0.9-1,1.3-1.5c1.2-1.5,3.3-2,5.1-1.3l10.3,4.2c2.3,0.9,4.9-0.2,5.8-2.4l6.3-15.4
	c0.9-2.3-0.2-4.9-2.4-5.8l-9.8-4c-1.8-0.8-2.9-2.6-2.7-4.6c0.1-0.6,0.1-1.3,0.2-1.9c0.1-1.9,1.5-3.5,3.4-4l10.8-2.6
	c2.4-0.6,3.8-3,3.3-5.4l-4-16.2c-0.6-2.4-3-3.8-5.4-3.3l-10.3,2.5c-1.9,0.5-3.9-0.4-4.9-2.2C671.8,192.5,671.5,191.9,671.2,191.4z
	 M639.7,238.5c-12.2,9.8-30.1,5.6-36.6-8.6c-4.4-9.7-1.6-21.4,6.6-28.1c12.2-9.8,30.1-5.6,36.6,8.6
	C650.8,220.1,648,231.8,639.7,238.5z"/>
<path class="st3" d="M383.1,350.3C383.1,350.3,383.1,350.3,383.1,350.3c0-1.9,1.2-3.7,3-4.2l10.5-3.4c2.3-0.8,3.6-3.2,2.8-5.5
	l-5.1-15.7c-0.8-2.3-3.2-3.6-5.5-2.8l-10,3.2c-1.9,0.6-3.9-0.1-5-1.7c-0.4-0.5-0.7-1.1-1.1-1.6c-1.1-1.5-1.1-3.6,0-5.2l6.5-8.9
	c1.4-2,1-4.7-1-6.1l-13.4-9.7c-2-1.4-4.7-1-6.1,1l-6.1,8.5c-1.2,1.6-3.2,2.2-5.1,1.5c-0.6-0.2-1.2-0.4-1.8-0.6c-1.8-0.6-3-2.3-3-4.2
	v-11c0-2.4-2-4.4-4.4-4.4h-16.5c-2.4,0-4.4,2-4.4,4.4v10.5c0,2-1.3,3.7-3.2,4.2c-0.6,0.2-1.2,0.4-1.8,0.6c-1.8,0.6-3.8,0-4.9-1.6
	l-6.5-8.9c-1.4-2-4.2-2.4-6.1-1l-13.4,9.7c-2,1.4-2.4,4.2-1,6.1l6.2,8.5c1.2,1.6,1.1,3.7-0.1,5.3c-0.4,0.5-0.8,1-1.1,1.5
	c-1.1,1.5-3.1,2.2-4.9,1.6l-10.5-3.4c-2.3-0.8-4.8,0.5-5.5,2.8l-5.1,15.7c-0.8,2.3,0.5,4.8,2.8,5.5l9.9,3.2c1.9,0.6,3.1,2.4,3,4.4
	c0,0.6,0,1.2,0,1.8c0,0,0,0,0,0c0,1.9-1.2,3.6-3,4.2l-10.5,3.4c-2.3,0.8-3.6,3.2-2.8,5.5l5.1,15.7c0.8,2.3,3.2,3.6,5.5,2.8l10-3.2
	c1.9-0.6,3.9,0.1,5,1.7c0.4,0.5,0.7,1.1,1.1,1.6c1.1,1.5,1.1,3.6,0,5.2l-6.5,8.9c-1.4,2-1,4.7,1,6.1l13.4,9.7c2,1.4,4.7,1,6.1-1
	l6.1-8.5c1.2-1.6,3.2-2.2,5.1-1.5c0.6,0.2,1.2,0.4,1.8,0.6c1.8,0.6,3,2.3,3,4.2v11c0,2.4,2,4.4,4.4,4.4h16.5c2.4,0,4.4-2,4.4-4.4
	v-10.5c0-2,1.3-3.7,3.2-4.2c0.6-0.2,1.2-0.4,1.8-0.6c1.8-0.6,3.8,0,4.9,1.6l6.5,8.9c1.4,2,4.2,2.4,6.1,1l13.4-9.7
	c2-1.4,2.4-4.2,1-6.1l-6.2-8.5c-1.2-1.6-1.1-3.7,0.1-5.3c0.4-0.5,0.8-1,1.1-1.5c1.1-1.5,3.1-2.2,4.9-1.6l10.5,3.4
	c2.3,0.7,4.8-0.5,5.5-2.8l5.1-15.7c0.8-2.3-0.5-4.8-2.8-5.5l-9.9-3.2c-1.9-0.6-3.1-2.4-3-4.4C383.1,351.5,383.1,350.9,383.1,350.3z
	 M332.2,373.6c-15.3,1.9-28.3-11-26.3-26.3c1.3-10.5,9.8-18.9,20.2-20.2c15.3-1.9,28.2,11,26.3,26.3
	C351.1,363.8,342.6,372.3,332.2,373.6z"/>
<path class="st3" d="M695.6,744.6L695.6,744.6c-1.4-4.4-6.2-6.8-10.6-5.4l-71.9,23.4c-3.8,1.2-8-0.4-9.9-3.9
	c-10-17.8-27.3-31-47.8-35.5c-3.8-0.8-6.6-4.3-6.6-8.2v-76c0-4.6-3.8-8.4-8.4-8.4c-4.6,0-8.4,3.8-8.4,8.4v75.6c0,4-2.8,7.4-6.8,8.2
	c-20.7,4.1-38.2,16.9-48.5,34.5c-2,3.4-6.1,4.9-9.8,3.7l-72.2-23.5c-4.4-1.4-9.1,1-10.6,5.4l0,0c-1.4,4.4,1,9.1,5.4,10.6l71.9,23.4
	c3.8,1.2,6.2,5,5.7,9c-0.3,2.8-0.5,5.6-0.5,8.5c0,18.5,6.9,35.4,18.3,48.3c2.6,3,2.9,7.3,0.5,10.5l-44.7,61.5
	c-2.7,3.8-1.9,9,1.9,11.7h0c3.7,2.7,9,1.9,11.7-1.9l44.4-61.2c2.4-3.2,6.7-4.3,10.3-2.7c9.3,4.3,19.6,6.7,30.5,6.7
	c10.3,0,20.1-2.1,29-6c3.6-1.6,7.9-0.5,10.2,2.7l44.6,61.4c2.7,3.8,8,4.6,11.7,1.9l0,0c3.8-2.7,4.6-8,1.9-11.7l-44.4-61.2
	c-2.4-3.2-2.1-7.7,0.6-10.6c12-13,19.3-30.4,19.3-49.5c0-2.4-0.1-4.7-0.3-7c-0.4-3.9,2-7.6,5.8-8.8l72.3-23.5
	C694.6,753.7,697,749,695.6,744.6z M539.8,847.4c-29.2,0-52.9-23.7-52.9-52.9c0-29.2,23.7-52.9,52.9-52.9
	c29.2,0,52.9,23.7,52.9,52.9C592.7,823.7,569,847.4,539.8,847.4z"/>
<path class="st1" d="M762.4,413.1L762.4,413.1c-1.9-2.9-5.8-3.8-8.7-1.9l-47.5,30.5c-2.5,1.6-5.8,1.2-7.9-0.9
	c-10.6-11-25.6-17.2-41.3-16.6c-2.9,0.1-5.6-1.8-6.3-4.7l-14.4-54.9c-0.9-3.3-4.3-5.4-7.7-4.5c-3.3,0.9-5.4,4.3-4.5,7.7l14.4,54.6
	c0.8,2.9-0.6,5.9-3.3,7.2c-14.1,6.9-24.4,19.5-28.5,34.1c-0.8,2.8-3.5,4.7-6.4,4.6l-56.7-3.2c-3.5-0.2-6.4,2.4-6.6,5.9l0,0
	c-0.2,3.5,2.4,6.4,5.9,6.6l56.4,3.2c3,0.2,5.4,2.4,5.8,5.4c0.3,2.1,0.7,4.2,1.3,6.2c3.5,13.4,11.7,24.3,22.4,31.4
	c2.5,1.6,3.5,4.8,2.4,7.5l-20.6,52.9c-1.3,3.2,0.3,6.9,3.6,8.1l0,0c3.2,1.3,6.9-0.3,8.1-3.6l20.5-52.6c1.1-2.8,4-4.4,7-3.9
	c7.5,1.3,15.4,1.1,23.3-1c7.5-2,14.1-5.4,19.8-9.9c2.3-1.8,5.6-1.8,7.9,0l43.9,35.9c2.7,2.2,6.6,1.8,8.8-0.9l0,0
	c2.2-2.7,1.8-6.6-0.9-8.8l-43.7-35.8c-2.3-1.9-3-5.2-1.6-7.8c6.2-11.7,8.2-25.6,4.6-39.4c-0.4-1.7-1-3.4-1.6-5c-1-2.8,0-5.8,2.5-7.4
	l47.8-30.7C763.4,419.9,764.3,416,762.4,413.1z M669.4,517c-21.1,5.6-42.7-7.1-48.3-28.2c-5.6-21.1,7.1-42.7,28.2-48.3
	c21.1-5.6,42.7,7.1,48.3,28.2C703.1,489.8,690.5,511.4,669.4,517z"/>
<path class="st2" d="M582,390.6L582,390.6c0.9-1.8,0.2-4.1-1.6-5l-29.9-15.2c-1.6-0.8-2.4-2.6-1.9-4.3c2.4-8.7,1.2-18.3-3.9-26.2
	c-0.9-1.5-0.7-3.4,0.5-4.6l23.9-23.9c1.5-1.5,1.5-3.8,0-5.3c-1.5-1.5-3.8-1.5-5.3,0l-23.7,23.7c-1.3,1.3-3.2,1.4-4.7,0.5
	c-7.8-5.2-17.3-6.7-26.1-4.4c-1.7,0.4-3.5-0.4-4.3-1.9l-15.3-30.1c-0.9-1.8-3.2-2.6-5-1.6l0,0c-1.8,0.9-2.6,3.2-1.6,5l15.2,29.9
	c0.8,1.6,0.4,3.5-1,4.6c-1,0.8-1.9,1.6-2.8,2.5c-5.8,5.8-9,13.3-9.4,20.9c-0.1,1.7-1.4,3.2-3.1,3.5l-33.3,5.3
	c-2,0.3-3.4,2.2-3.1,4.3l0,0c0.3,2,2.2,3.4,4.3,3.1l33.2-5.3c1.8-0.3,3.5,0.7,4.1,2.4c1.6,4.3,4.1,8.2,7.5,11.7
	c3.2,3.2,7,5.6,11,7.2c1.6,0.6,2.6,2.3,2.3,4.1l-5.3,33.3c-0.3,2,1.1,3.9,3.1,4.3l0,0c2,0.3,3.9-1.1,4.3-3.1l5.3-33.2
	c0.3-1.8,1.8-3.1,3.5-3.1c7.8-0.3,15.6-3.5,21.6-9.5c0.7-0.7,1.4-1.5,2.1-2.3c1.1-1.3,3-1.7,4.6-0.9l30.1,15.3
	C578.8,393.1,581.1,392.4,582,390.6z M500.8,373.9c-9.2-9.2-9.2-24,0-33.2c9.2-9.2,24-9.2,33.2,0c9.2,9.2,9.2,24,0,33.2
	C524.9,383.1,510,383.1,500.8,373.9z"/>
<path class="st1" d="M284.8,603.8L284.8,603.8c1.9-2.3,1.6-5.8-0.8-7.7l-38-31c-2-1.6-2.6-4.5-1.4-6.8c6.2-11.7,7.3-25.8,2.6-38.6
	c-0.9-2.4,0-5.1,2.2-6.5l41.4-26.7c2.5-1.6,3.3-5,1.6-7.5c-1.6-2.5-5-3.3-7.5-1.6L243.6,504c-2.2,1.4-5.1,1.1-6.9-0.8
	c-9.5-9.8-22.7-14.9-35.9-14.3c-2.6,0.1-4.8-1.6-5.5-4l-12.6-47.7c-0.8-2.9-3.8-4.6-6.7-3.9l0,0c-2.9,0.8-4.6,3.8-3.9,6.7l12.6,47.4
	c0.7,2.5-0.5,5.1-2.9,6.3c-1.6,0.8-3.2,1.7-4.8,2.7c-10.1,6.5-16.9,16.2-19.9,26.9c-0.7,2.5-3,4.1-5.5,4l-49.2-2.7
	c-3-0.2-5.6,2.1-5.7,5.1l0,0c-0.2,3,2.1,5.6,5.1,5.7l49,2.7c2.6,0.1,4.7,2.1,5.1,4.7c0.9,6.6,3.3,13,7.1,19
	c3.6,5.6,8.2,10.2,13.5,13.7c2.1,1.4,3,4.1,2.1,6.5l-17.8,46c-1.1,2.8,0.3,6,3.1,7l0,0c2.8,1.1,6-0.3,7-3.1l17.7-45.8
	c0.9-2.4,3.5-3.8,6-3.4c11.3,2,23.4-0.1,33.8-6.9c1.3-0.8,2.5-1.7,3.7-2.6c2-1.6,4.8-1.6,6.8,0.1l38.2,31.1
	C279.5,606.5,282.9,606.1,284.8,603.8z M173.9,555c-10.3-15.9-5.7-37.2,10.2-47.5c15.9-10.3,37.2-5.7,47.5,10.2
	c10.3,15.9,5.7,37.2-10.2,47.5C205.5,575.5,184.2,570.9,173.9,555z"/>
<path class="st2" d="M933.9,688.6l-11.2-1.2c-1.5-0.2-2.7-1.4-2.7-3v0v0c0-1.5,1.2-2.8,2.7-3l11.2-1.2c1.6-0.2,2.8-1.6,2.6-3.2
	l-0.9-8.2c-0.2-1.6-1.6-2.8-3.2-2.6l-11.2,1.2c-1.5,0.2-2.9-0.9-3.2-2.4l0-0.1c-0.3-1.5,0.5-2.9,2-3.4l10.7-3.5
	c1.5-0.5,2.4-2.2,1.9-3.7l-2.6-7.8c-0.5-1.5-2.2-2.4-3.7-1.9l-10.7,3.5c-1.5,0.5-3-0.2-3.6-1.6l0-0.1c-0.6-1.4-0.1-3,1.2-3.8
	l9.7-5.6c1.4-0.8,1.9-2.6,1.1-4l-4.1-7.1c-0.8-1.4-2.6-1.9-4-1.1l-9.7,5.6c-1.3,0.8-3,0.4-3.9-0.8l0-0.1c-0.9-1.2-0.7-3,0.4-4
	l8.4-7.5c1.2-1.1,1.3-2.9,0.2-4.1l-5.5-6.1c-1.1-1.2-2.9-1.3-4.1-0.2l-8.4,7.5c-1.1,1-2.9,1-4,0l-0.1,0c-1.1-1-1.3-2.7-0.4-4
	l6.6-9.1c1-1.3,0.7-3.1-0.6-4.1l-6.7-4.9c-1.3-1-3.1-0.7-4.1,0.6l-6.6,9.1c-0.9,1.2-2.6,1.6-3.9,0.8l-0.1,0
	c-1.3-0.8-1.8-2.4-1.2-3.8l4.6-10.2c0.7-1.5,0-3.2-1.5-3.9l-7.5-3.4c-1.5-0.7-3.2,0-3.9,1.5l-4.6,10.3c-0.6,1.4-2.2,2.1-3.6,1.6
	l-0.2,0c-1.4-0.5-2.3-1.9-2-3.4l2.3-11c0.3-1.6-0.7-3.1-2.3-3.5l-8.1-1.7c-1.6-0.3-3.1,0.7-3.5,2.3l-2.3,11
	c-0.3,1.5-1.7,2.5-3.2,2.3l-0.2,0c-1.5-0.2-2.6-1.4-2.6-2.9v-11.3c0-1.6-1.3-2.9-2.9-2.9h-8.3c-1.6,0-2.9,1.3-2.9,2.9v11.3
	c0,1.5-1.1,2.8-2.6,2.9l-0.1,0c-1.5,0.2-2.9-0.9-3.2-2.3l-2.3-11c-0.3-1.6-1.9-2.6-3.5-2.3l-8.1,1.7c-1.6,0.3-2.6,1.9-2.3,3.5
	l2.3,11c0.3,1.5-0.5,3-2,3.5l-0.1,0c-1.5,0.5-3-0.2-3.6-1.6l-4.6-10.2c-0.7-1.5-2.4-2.1-3.9-1.5l-7.5,3.4c-1.5,0.7-2.1,2.4-1.5,3.9
	l4.6,10.2c0.6,1.4,0.1,3-1.2,3.8l-0.1,0c-1.3,0.8-3,0.4-3.9-0.8l-6.6-9.1c-1-1.3-2.8-1.6-4.1-0.6l-6.7,4.9c-1.3,1-1.6,2.8-0.6,4.1
	l6.6,9.1c0.9,1.2,0.7,2.9-0.4,3.9l-0.1,0.1c-1.1,1-2.9,1-4,0l-8.4-7.5c-1.2-1.1-3.1-1-4.1,0.2l-5.5,6.1c-1.1,1.2-1,3.1,0.2,4.1
	l8.4,7.5c1.1,1,1.3,2.7,0.4,4l0,0.1c-0.9,1.2-2.6,1.6-3.9,0.8l-9.7-5.6c-1.4-0.8-3.2-0.3-4,1.1l-4.1,7.1c-0.8,1.4-0.3,3.2,1.1,4
	l9.7,5.6c1.3,0.8,1.9,2.4,1.2,3.8l0,0.1c-0.6,1.4-2.2,2.1-3.6,1.6l-10.7-3.5c-1.5-0.5-3.2,0.3-3.7,1.9l-2.6,7.8
	c-0.5,1.5,0.3,3.2,1.9,3.7l10.7,3.5c1.4,0.5,2.3,2,2,3.5l0,0.1c-0.3,1.5-1.7,2.5-3.2,2.4l-11.2-1.2c-1.6-0.2-3.1,1-3.2,2.6l-0.9,8.2
	c-0.2,1.6,1,3.1,2.6,3.2l11.2,1.2c1.5,0.2,2.7,1.4,2.7,3v0v0c0,1.5-1.2,2.8-2.7,3l-11.2,1.2c-1.6,0.2-2.8,1.6-2.6,3.2l0.8,7.7
	c0.2,1.9,1.9,3.2,3.8,3l11.9-1.2c0.9-0.1,1.7,0.5,1.8,1.3c0.1,0.7,0.3,1.5,0.5,2.3c0.2,0.8-0.3,1.7-1.1,2l-10,3.2
	c-2.6,0.8-4,3.6-3.1,6.1l2,6c0.5,1.5,2.2,2.4,3.7,1.9l13.2-4.3c0,0,0,0,0,0c0.3,0.9,0.7,1.7,1.1,2.5c0.6,1.4,0.1,3-1.2,3.8l-9.7,5.6
	c-1.4,0.8-1.9,2.6-1.1,4l4.1,7.1c0.8,1.4,2.6,1.9,4,1.1l9.8-5.6c1.3-0.8,3-0.4,3.8,0.8l0.1,0.1c0.9,1.2,0.7,3-0.4,4l-8.3,7.5
	c-1.2,1.1-1.3,2.9-0.2,4.2l5.5,6.1c1.1,1.2,2.9,1.3,4.2,0.2l8.4-7.5c1.1-1,2.8-1,3.9,0l0.1,0.1c1.1,1,1.3,2.7,0.4,4l-6.6,9.1
	c-1,1.3-0.7,3.2,0.7,4.1l6.7,4.8c1.3,1,3.2,0.7,4.1-0.7l6.6-9.1c0.9-1.2,2.6-1.6,3.9-0.8l0.1,0.1c1.3,0.8,1.9,2.4,1.2,3.8l-4.6,10.2
	c-0.7,1.5,0,3.2,1.5,3.9l7.5,3.3c1.5,0.7,3.2,0,3.9-1.5L794,775c0.6-1.4,2.2-2.1,3.7-1.6l0.1,0c1.5,0.5,2.3,2,2,3.5l-2.3,11
	c-0.3,1.6,0.7,3.2,2.3,3.5l8.1,1.7c1.6,0.3,3.2-0.7,3.5-2.3l2.3-11c0.3-1.5,1.7-2.5,3.2-2.3l0.1,0c1.5,0.2,2.6,1.4,2.6,2.9v11.3
	c0,1.6,1.3,2.9,2.9,2.9h8.2c1.6,0,2.9-1.3,2.9-2.9v-11.3c0-1.5,1.1-2.8,2.6-2.9l0.1,0c1.5-0.2,2.9,0.9,3.2,2.4l2.3,11
	c0.3,1.6,1.9,2.6,3.5,2.3l8.1-1.7c1.6-0.3,2.6-1.9,2.3-3.5l-2.3-11c-0.3-1.5,0.5-3,2-3.5l0.1,0c1.5-0.5,3,0.2,3.7,1.6l4.6,10.2
	c0.7,1.5,2.4,2.2,3.9,1.5l7.5-3.3c1.5-0.7,2.2-2.4,1.5-3.9l-4.6-10.2c-0.6-1.4-0.1-3,1.2-3.8l0.1,0c1.3-0.8,3-0.4,3.9,0.8l6.6,9.1
	c1,1.3,2.8,1.6,4.1,0.7l6.7-4.8c1.3-1,1.6-2.8,0.7-4.1l-6.6-9.1c-0.9-1.2-0.7-3,0.4-4l0.1-0.1c1.1-1,2.8-1,3.9,0l8.4,7.5
	c1.2,1.1,3.1,1,4.2-0.2l5.5-6.1c1.1-1.2,1-3.1-0.2-4.2l-8.3-7.5c-1.1-1-1.3-2.7-0.4-4l0,0c0.9-1.2,2.6-1.6,3.9-0.8l9.7,5.6
	c1.4,0.8,3.2,0.3,4-1.1l4.1-7.1c0.8-1.4,0.3-3.2-1.1-4l-9.7-5.6c-1.3-0.8-1.9-2.4-1.2-3.8l0,0c0.6-1.4,2.2-2.1,3.7-1.6l10.6,3.5
	c1.5,0.5,3.2-0.3,3.7-1.9l2.5-7.8c0.5-1.5-0.3-3.2-1.9-3.7l-10.7-3.5c-1.4-0.5-2.3-1.9-2-3.4l0-0.1c0.3-1.5,1.7-2.5,3.2-2.4
	l11.1,1.2c1.6,0.2,3.1-1,3.2-2.6l0.9-8.2C936.6,690.3,935.5,688.8,933.9,688.6z M826.6,697.9c-7.4,0-13.4-6-13.4-13.4
	s6-13.4,13.4-13.4s13.4,6,13.4,13.4S834,697.9,826.6,697.9z"/>
<path class="st1" d="M647.2,697.4l-0.1-5.2c0-0.7,0.5-1.3,1.2-1.4l0,0l0,0c0.7-0.1,1.3,0.4,1.5,1.1l1.1,5c0.2,0.7,0.9,1.2,1.6,1
	l3.7-0.8c0.7-0.2,1.2-0.9,1-1.6l-1.1-5c-0.2-0.7,0.2-1.4,0.9-1.6l0.1,0c0.7-0.2,1.4,0.1,1.7,0.7l2.2,4.7c0.3,0.7,1.1,1,1.8,0.7
	l3.4-1.6c0.7-0.3,1-1.1,0.7-1.8l-2.2-4.7c-0.3-0.6-0.1-1.4,0.5-1.8l0,0c0.6-0.4,1.4-0.2,1.8,0.4l3.1,4.1c0.4,0.6,1.3,0.7,1.9,0.3
	l3-2.3c0.6-0.4,0.7-1.3,0.3-1.9l-3.1-4.1c-0.4-0.6-0.4-1.3,0.2-1.8l0,0c0.5-0.5,1.3-0.5,1.8,0l3.9,3.4c0.6,0.5,1.4,0.4,1.9-0.1
	l2.5-2.9c0.5-0.6,0.4-1.4-0.1-1.9l-3.9-3.4c-0.5-0.5-0.6-1.2-0.2-1.8l0,0c0.4-0.6,1.2-0.7,1.8-0.4l4.5,2.5c0.7,0.4,1.5,0.1,1.8-0.5
	l1.9-3.3c0.4-0.7,0.1-1.5-0.5-1.8l-4.5-2.5c-0.6-0.3-0.9-1.1-0.6-1.7l0,0c0.3-0.6,1-1,1.7-0.8l4.9,1.5c0.7,0.2,1.5-0.2,1.7-0.9
	l1.1-3.6c0.2-0.7-0.2-1.5-0.9-1.7l-4.9-1.5c-0.7-0.2-1.1-0.9-0.9-1.5l0-0.1c0.1-0.7,0.8-1.1,1.4-1.1l5.2,0.5
	c0.7,0.1,1.4-0.5,1.5-1.2l0.3-3.8c0.1-0.7-0.5-1.4-1.2-1.5l-5.2-0.5c-0.7-0.1-1.2-0.6-1.2-1.3l0-0.1c0-0.7,0.5-1.3,1.2-1.4l5.2-0.6
	c0.7-0.1,1.3-0.8,1.2-1.5l-0.5-3.8c-0.1-0.7-0.8-1.3-1.5-1.2l-5.2,0.6c-0.7,0.1-1.3-0.4-1.5-1l0-0.1c-0.2-0.7,0.2-1.4,0.9-1.6
	l4.9-1.7c0.7-0.2,1.1-1,0.8-1.7l-1.2-3.6c-0.2-0.7-1-1.1-1.7-0.8l-4.9,1.7c-0.7,0.2-1.4-0.1-1.7-0.7l0,0c-0.3-0.6-0.1-1.4,0.5-1.8
	l4.4-2.6c0.6-0.4,0.8-1.2,0.5-1.9l-1.9-3.3c-0.4-0.6-1.2-0.8-1.9-0.5l-4.4,2.6c-0.6,0.4-1.4,0.2-1.8-0.4l0,0
	c-0.4-0.6-0.4-1.4,0.2-1.8l3.8-3.5c0.5-0.5,0.6-1.4,0.1-1.9l-2.6-2.8c-0.5-0.5-1.4-0.6-1.9-0.1l-3.8,3.5c-0.5,0.5-1.3,0.5-1.8,0l0,0
	c-0.5-0.5-0.6-1.2-0.2-1.8l3-4.2c0.4-0.6,0.3-1.5-0.3-1.9l-3.1-2.2c-0.6-0.4-1.5-0.3-1.9,0.3l-3,4.2c-0.4,0.6-1.2,0.7-1.8,0.4l0,0
	c-0.6-0.3-0.9-1.1-0.6-1.7l2-4.7c0.3-0.7,0-1.5-0.7-1.8l-3.5-1.5c-0.7-0.3-1.5,0-1.8,0.7l-2,4.7c-0.3,0.6-1,1-1.7,0.8l-0.1,0
	c-0.7-0.2-1.1-0.9-0.9-1.6l1-5.1c0.1-0.7-0.3-1.4-1.1-1.6l-3.7-0.7c-0.7-0.1-1.4,0.3-1.6,1.1l-1,5.1c-0.1,0.7-0.8,1.2-1.5,1.1l0,0
	c-0.7-0.1-1.2-0.6-1.3-1.3l-0.1-5.2c0-0.7-0.6-1.3-1.4-1.3l-3.8,0.1c-0.7,0-1.3,0.6-1.3,1.4l0.1,5.2c0,0.7-0.5,1.3-1.2,1.4l0,0l0,0
	c-0.7,0.1-1.3-0.4-1.5-1.1l-1.1-5c-0.2-0.7-0.9-1.2-1.6-1l-3.5,0.8c-0.8,0.2-1.4,1-1.2,1.9l1.2,5.4c0.1,0.4-0.1,0.8-0.5,0.9
	c-0.3,0.1-0.7,0.2-1,0.3c-0.4,0.1-0.8,0-1-0.4l-2-4.4c-0.5-1.1-1.8-1.6-3-1.1l-2.6,1.2c-0.7,0.3-1,1.1-0.7,1.8l2.7,5.8c0,0,0,0,0,0
	c-0.4,0.2-0.7,0.4-1.1,0.6c-0.6,0.4-1.4,0.2-1.8-0.3l-3.1-4.1c-0.4-0.6-1.3-0.7-1.9-0.3l-3,2.3c-0.6,0.4-0.7,1.3-0.3,1.9l3.1,4.1
	c0.4,0.6,0.3,1.3-0.2,1.8l0,0c-0.5,0.5-1.3,0.5-1.8,0l-3.9-3.4c-0.6-0.5-1.4-0.4-1.9,0.1l-2.5,2.9c-0.5,0.6-0.4,1.4,0.1,1.9l3.9,3.4
	c0.5,0.5,0.6,1.2,0.2,1.8l0,0c-0.4,0.6-1.2,0.8-1.8,0.4l-4.5-2.5c-0.7-0.4-1.5-0.1-1.8,0.5l-1.8,3.3c-0.4,0.7-0.1,1.5,0.5,1.8
	l4.5,2.5c0.6,0.3,0.9,1.1,0.6,1.7l0,0c-0.3,0.6-1,1-1.7,0.8l-4.9-1.5c-0.7-0.2-1.5,0.2-1.7,0.9l-1.1,3.6c-0.2,0.7,0.2,1.5,0.9,1.7
	l4.9,1.5c0.7,0.2,1.1,0.9,0.9,1.6l0,0c-0.1,0.7-0.8,1.2-1.5,1.1l-5.1-0.5c-0.7-0.1-1.4,0.5-1.5,1.2l-0.3,3.8
	c-0.1,0.7,0.5,1.4,1.2,1.5l5.2,0.5c0.7,0.1,1.2,0.6,1.2,1.3l0,0.1c0,0.7-0.5,1.3-1.2,1.4l-5.1,0.6c-0.7,0.1-1.3,0.8-1.2,1.5l0.4,3.8
	c0.1,0.7,0.8,1.3,1.5,1.2l5.1-0.6c0.7-0.1,1.3,0.4,1.5,1l0,0c0.2,0.7-0.2,1.4-0.9,1.6l-4.9,1.7c-0.7,0.2-1.1,1-0.8,1.7l1.2,3.6
	c0.2,0.7,1,1.1,1.7,0.8l4.9-1.7c0.7-0.2,1.4,0.1,1.7,0.7l0,0c0.3,0.6,0.1,1.4-0.5,1.8l-4.4,2.6c-0.6,0.4-0.9,1.2-0.5,1.9l1.9,3.3
	c0.4,0.6,1.2,0.9,1.9,0.5l4.4-2.6c0.6-0.4,1.4-0.2,1.8,0.4l0,0c0.4,0.6,0.4,1.4-0.2,1.8l-3.8,3.5c-0.5,0.5-0.6,1.4-0.1,1.9l2.6,2.8
	c0.5,0.5,1.4,0.6,1.9,0.1l3.8-3.5c0.5-0.5,1.3-0.5,1.8,0l0,0c0.5,0.5,0.6,1.2,0.2,1.8l-3,4.2c-0.4,0.6-0.3,1.5,0.3,1.9l3.1,2.2
	c0.6,0.4,1.5,0.3,1.9-0.3l3-4.2c0.4-0.6,1.2-0.8,1.8-0.4l0,0c0.6,0.3,0.9,1.1,0.6,1.7l-2,4.7c-0.3,0.7,0,1.5,0.7,1.8l3.5,1.5
	c0.7,0.3,1.5,0,1.8-0.7l2-4.7c0.3-0.6,1-1,1.7-0.8l0,0c0.7,0.2,1.1,0.9,0.9,1.6l-1,5c-0.1,0.7,0.3,1.4,1.1,1.6l3.7,0.7
	c0.7,0.1,1.4-0.3,1.6-1.1l1-5.1c0.1-0.7,0.8-1.1,1.4-1.1l0,0c0.7,0.1,1.2,0.6,1.3,1.4l0.1,5.2c0,0.7,0.6,1.3,1.4,1.3l3.8-0.1
	C646.6,698.8,647.2,698.1,647.2,697.4z M637.1,648.9c-0.4-3.4,2-6.4,5.4-6.8s6.4,2,6.8,5.4s-2,6.4-5.4,6.8S637.6,652.3,637.1,648.9z
	"/>
<path class="st1" d="M333.5,697.1l-4.1,5.3c-0.6,0.7-1.6,0.9-2.3,0.4l0,0l0,0c-0.8-0.5-1.1-1.5-0.7-2.3l2.9-6
	c0.4-0.9,0.1-1.9-0.8-2.3L324,690c-0.9-0.4-1.9-0.1-2.3,0.8l-2.9,6c-0.4,0.8-1.3,1.2-2.2,0.9l-0.1,0c-0.8-0.3-1.3-1.2-1.1-2.1
	l1.6-6.5c0.2-0.9-0.3-1.9-1.3-2.1l-4.8-1.2c-0.9-0.2-1.9,0.3-2.1,1.3l-1.6,6.5c-0.2,0.9-1.1,1.5-2,1.3l0,0c-0.9-0.1-1.6-0.9-1.5-1.8
	l0.2-6.7c0-1-0.7-1.8-1.7-1.8l-4.9-0.2c-1,0-1.8,0.7-1.8,1.7l-0.2,6.7c0,0.9-0.7,1.6-1.6,1.7l0,0c-0.9,0.1-1.7-0.6-1.9-1.5l-1.2-6.6
	c-0.2-0.9-1.1-1.6-2-1.4l-4.8,0.9c-0.9,0.2-1.6,1.1-1.4,2l1.2,6.6c0.2,0.9-0.4,1.8-1.3,2l0,0c-0.9,0.2-1.8-0.2-2.1-1l-2.5-6.2
	c-0.4-0.9-1.4-1.3-2.3-1l-4.5,1.8c-0.9,0.4-1.3,1.4-1,2.3l2.5,6.2c0.3,0.8,0,1.8-0.8,2.2l0,0c-0.8,0.4-1.8,0.2-2.3-0.6l-3.7-5.5
	c-0.5-0.8-1.6-1-2.4-0.5l-4.1,2.7c-0.8,0.5-1,1.6-0.5,2.4l3.8,5.5c0.5,0.7,0.4,1.7-0.3,2.3l-0.1,0.1c-0.7,0.6-1.7,0.5-2.3-0.1
	l-4.8-4.6c-0.7-0.7-1.8-0.6-2.5,0l-3.4,3.5c-0.7,0.7-0.6,1.8,0,2.5l4.8,4.7c0.6,0.6,0.7,1.6,0.2,2.3l-0.1,0.1
	c-0.5,0.7-1.5,0.9-2.3,0.4l-5.7-3.5c-0.8-0.5-1.9-0.3-2.4,0.6l-2.6,4.2c-0.5,0.8-0.3,1.9,0.6,2.4l5.7,3.5c0.8,0.5,1,1.4,0.6,2.2
	l0,0.1c-0.4,0.8-1.3,1.2-2.2,0.9l-6.3-2.3c-0.9-0.3-1.9,0.1-2.2,1l-1.7,4.6c-0.3,0.9,0.1,1.9,1,2.2l6.3,2.3c0.9,0.3,1.3,1.2,1.1,2.1
	l0,0c-0.2,0.9-1.1,1.5-2,1.3l-6.6-0.9c-1-0.1-1.8,0.5-2,1.5l-0.7,4.9c-0.1,1,0.5,1.8,1.5,2l6.6,0.9c0.9,0.1,1.6,0.9,1.5,1.8l0,0
	c0,0.9-0.7,1.6-1.6,1.7l-6.6,0.5c-1,0.1-1.7,0.9-1.6,1.9l0.4,4.9c0.1,1,0.9,1.7,1.9,1.6l6.7-0.5c0.9-0.1,1.7,0.6,1.8,1.4l0,0.1
	c0.2,0.9-0.4,1.8-1.3,2l-6.4,1.9c-0.9,0.3-1.5,1.2-1.2,2.2l1.4,4.7c0.3,0.9,1.2,1.5,2.2,1.2l6.4-1.9c0.9-0.3,1.8,0.2,2.1,1l0,0
	c0.3,0.8,0,1.8-0.8,2.2l-5.9,3.1c-0.8,0.5-1.2,1.5-0.7,2.4l2.3,4.3c0.5,0.8,1.5,1.2,2.4,0.7l5.9-3.1c0.8-0.4,1.8-0.2,2.3,0.6l0,0.1
	c0.5,0.7,0.4,1.7-0.3,2.3l-5.1,4.3c-0.7,0.6-0.8,1.7-0.2,2.5l3.2,3.8c0.6,0.7,1.7,0.8,2.5,0.2l5.1-4.3c0.7-0.6,1.7-0.6,2.4,0.1l0,0
	c0.7,0.6,0.7,1.7,0.2,2.4l-4.1,5.3c-0.6,0.8-0.5,1.9,0.3,2.4l3.9,3c0.8,0.6,1.9,0.5,2.4-0.3l4.1-5.3c0.6-0.7,1.6-0.9,2.3-0.4l0,0
	l0,0c0.8,0.5,1.1,1.5,0.7,2.3l-2.9,6c-0.4,0.9-0.1,1.9,0.8,2.3l4.2,2c1,0.5,2.2,0.1,2.7-0.9l3.1-6.4c0.2-0.5,0.8-0.7,1.3-0.5
	c0.4,0.1,0.9,0.3,1.3,0.5c0.5,0.2,0.8,0.7,0.6,1.2l-1.5,6c-0.4,1.5,0.6,3.1,2.1,3.5l3.6,0.9c0.9,0.2,1.9-0.3,2.1-1.3l2-8
	c0,0,0,0,0,0c0.5,0.1,1.1,0.2,1.6,0.3c0.9,0.1,1.6,0.9,1.5,1.8l-0.2,6.7c0,1,0.7,1.8,1.7,1.8l4.9,0.2c1,0,1.8-0.7,1.8-1.7l0.2-6.7
	c0-0.9,0.7-1.6,1.6-1.7l0.1,0c0.9-0.1,1.7,0.6,1.9,1.5l1.2,6.6c0.2,1,1.1,1.6,2,1.4l4.8-0.9c1-0.2,1.6-1.1,1.4-2l-1.2-6.6
	c-0.2-0.9,0.4-1.7,1.2-2l0.1,0c0.9-0.3,1.8,0.2,2.1,1l2.5,6.2c0.4,0.9,1.4,1.3,2.3,1l4.5-1.8c0.9-0.4,1.3-1.4,1-2.3l-2.5-6.2
	c-0.3-0.8,0-1.8,0.8-2.2l0.1,0c0.8-0.4,1.8-0.2,2.3,0.6l3.7,5.5c0.5,0.8,1.6,1,2.4,0.5l4.1-2.7c0.8-0.5,1-1.6,0.5-2.4l-3.7-5.5
	c-0.5-0.8-0.4-1.8,0.3-2.4l0,0c0.7-0.6,1.7-0.6,2.4,0.1l4.8,4.6c0.7,0.7,1.8,0.6,2.5,0l3.4-3.5c0.7-0.7,0.6-1.8,0-2.5l-4.8-4.6
	c-0.6-0.6-0.7-1.6-0.2-2.3l0.1-0.1c0.5-0.7,1.5-0.9,2.3-0.4l5.7,3.5c0.8,0.5,1.9,0.3,2.4-0.6l2.6-4.2c0.5-0.8,0.3-1.9-0.6-2.4
	l-5.7-3.5c-0.8-0.5-1-1.4-0.6-2.3l0-0.1c0.4-0.8,1.3-1.2,2.2-0.9l6.3,2.3c0.9,0.3,1.9-0.1,2.2-1l1.7-4.6c0.3-0.9-0.1-1.9-1-2.2
	l-6.3-2.3c-0.9-0.3-1.3-1.2-1.1-2.1l0,0c0.2-0.9,1.1-1.5,2-1.3l6.6,0.9c1,0.1,1.8-0.5,2-1.5l0.7-4.8c0.1-1-0.5-1.8-1.5-2l-6.6-0.9
	c-0.9-0.1-1.6-0.9-1.5-1.8l0,0c0-0.9,0.7-1.7,1.6-1.7l6.6-0.5c1-0.1,1.7-0.9,1.6-1.9l-0.3-4.9c-0.1-1-0.9-1.7-1.9-1.6l-6.7,0.5
	c-0.9,0.1-1.7-0.6-1.9-1.5l0-0.1c-0.2-0.9,0.4-1.7,1.2-2l6.4-1.9c0.9-0.3,1.5-1.2,1.2-2.2l-1.4-4.7c-0.3-0.9-1.2-1.5-2.2-1.2
	l-6.4,1.8c-0.9,0.3-1.8-0.2-2.1-1l0,0c-0.3-0.8,0-1.8,0.8-2.2l5.9-3.1c0.9-0.5,1.2-1.5,0.7-2.4l-2.3-4.3c-0.5-0.9-1.5-1.2-2.4-0.7
	l-5.9,3.1c-0.8,0.4-1.8,0.2-2.3-0.6l0,0c-0.5-0.8-0.4-1.8,0.3-2.4l5.1-4.3c0.7-0.6,0.8-1.7,0.2-2.5l-3.2-3.7
	c-0.6-0.7-1.7-0.8-2.5-0.2l-5.1,4.3c-0.7,0.6-1.7,0.5-2.3-0.1l0,0c-0.7-0.6-0.7-1.7-0.2-2.4l4.1-5.3c0.6-0.8,0.5-1.9-0.3-2.5l-3.9-3
	C335.2,696.2,334.1,696.3,333.5,697.1z M304.4,754.1c-2.3,3.7-7.2,4.9-11,2.6c-3.7-2.3-4.9-7.2-2.6-11c2.3-3.7,7.2-4.9,11-2.6
	C305.6,745.4,306.8,750.3,304.4,754.1z"/>
<path class="st3" d="M842.3,321l-6.6-0.7c-0.9-0.1-1.6-0.9-1.6-1.8v0v0c0-0.9,0.7-1.7,1.6-1.8l6.6-0.7c1-0.1,1.7-1,1.6-1.9l-0.5-4.9
	c-0.1-1-1-1.7-1.9-1.6l-6.6,0.7c-0.9,0.1-1.7-0.5-1.9-1.4l0-0.1c-0.2-0.9,0.3-1.7,1.2-2l6.4-2.1c0.9-0.3,1.4-1.3,1.1-2.2l-1.5-4.7
	c-0.3-0.9-1.3-1.4-2.2-1.1l-6.3,2.1c-0.9,0.3-1.8-0.1-2.2-1l0,0c-0.4-0.8,0-1.8,0.7-2.3l5.8-3.3c0.8-0.5,1.1-1.5,0.6-2.4l-2.5-4.2
	c-0.5-0.8-1.5-1.1-2.4-0.6l-5.8,3.3c-0.8,0.5-1.8,0.2-2.3-0.5l0,0c-0.5-0.7-0.4-1.8,0.2-2.4l5-4.5c0.7-0.6,0.8-1.7,0.1-2.5l-3.3-3.6
	c-0.6-0.7-1.7-0.8-2.5-0.1l-5,4.5c-0.7,0.6-1.7,0.6-2.4,0l0,0c-0.7-0.6-0.8-1.6-0.2-2.4l3.9-5.4c0.6-0.8,0.4-1.9-0.4-2.4l-4-2.9
	c-0.8-0.6-1.9-0.4-2.4,0.4l-3.9,5.4c-0.5,0.7-1.5,0.9-2.3,0.5l0,0c-0.8-0.5-1.1-1.4-0.7-2.3l2.7-6.1c0.4-0.9,0-1.9-0.9-2.3l-4.5-2
	c-0.9-0.4-1.9,0-2.3,0.9l-2.7,6.1c-0.4,0.8-1.3,1.2-2.1,1l-0.1,0c-0.9-0.3-1.4-1.1-1.2-2l1.4-6.5c0.2-0.9-0.4-1.9-1.3-2.1l-4.8-1
	c-0.9-0.2-1.9,0.4-2.1,1.3l-1.4,6.6c-0.2,0.9-1,1.5-1.9,1.4l-0.1,0c-0.9-0.1-1.6-0.8-1.6-1.7v-6.7c0-1-0.8-1.7-1.7-1.7h-4.9
	c-1,0-1.7,0.8-1.7,1.7v6.7c0,0.9-0.7,1.6-1.6,1.7l-0.1,0c-0.9,0.1-1.7-0.5-1.9-1.4l-1.4-6.5c-0.2-0.9-1.1-1.5-2.1-1.3l-4.8,1
	c-0.9,0.2-1.5,1.1-1.3,2.1l1.4,6.5c0.2,0.9-0.3,1.8-1.2,2.1l0,0c-0.9,0.3-1.8-0.1-2.2-1l-2.7-6.1c-0.4-0.9-1.4-1.3-2.3-0.9l-4.5,2
	c-0.9,0.4-1.3,1.4-0.9,2.3l2.7,6.1c0.4,0.8,0.1,1.8-0.7,2.3l0,0c-0.8,0.5-1.8,0.2-2.3-0.5l-3.9-5.4c-0.6-0.8-1.7-1-2.4-0.4l-4,2.9
	c-0.8,0.6-1,1.7-0.4,2.4l3.9,5.4c0.5,0.7,0.4,1.7-0.2,2.3l-0.1,0c-0.7,0.6-1.7,0.6-2.4,0l-5-4.5c-0.7-0.6-1.8-0.6-2.5,0.1l-3.3,3.6
	c-0.6,0.7-0.6,1.8,0.1,2.5l5,4.5c0.7,0.6,0.8,1.6,0.2,2.4l0,0c-0.5,0.7-1.5,0.9-2.3,0.5l-5.8-3.3c-0.8-0.5-1.9-0.2-2.4,0.6l-2.5,4.2
	c-0.5,0.8-0.2,1.9,0.6,2.4l5.8,3.3c0.8,0.5,1.1,1.4,0.7,2.3l0,0.1c-0.4,0.8-1.3,1.2-2.1,1l-6.4-2.1c-0.9-0.3-1.9,0.2-2.2,1.1
	l-1.5,4.7c-0.3,0.9,0.2,1.9,1.1,2.2l6.3,2.1c0.9,0.3,1.4,1.2,1.2,2.1l0,0c-0.2,0.9-1,1.5-1.9,1.4l-6.6-0.7c-1-0.1-1.8,0.6-1.9,1.6
	l-0.5,4.9c-0.1,1,0.6,1.8,1.6,1.9l6.6,0.7c0.9,0.1,1.6,0.9,1.6,1.8v0v0c0,0.9-0.7,1.7-1.6,1.8l-6.6,0.7c-1,0.1-1.7,1-1.6,1.9
	l0.5,4.6c0.1,1.1,1.1,1.9,2.2,1.8l7.1-0.7c0.5-0.1,1,0.3,1.1,0.8c0.1,0.4,0.2,0.9,0.3,1.4c0.1,0.5-0.2,1-0.7,1.2l-5.9,1.9
	c-1.5,0.5-2.3,2.1-1.9,3.6l1.2,3.6c0.3,0.9,1.3,1.4,2.2,1.1l7.9-2.6c0,0,0,0,0,0c0.2,0.5,0.4,1,0.6,1.5c0.4,0.8,0.1,1.8-0.7,2.2
	l-5.8,3.3c-0.8,0.5-1.1,1.6-0.6,2.4l2.4,4.2c0.5,0.8,1.6,1.1,2.4,0.6l5.8-3.3c0.8-0.4,1.8-0.2,2.3,0.5l0,0c0.5,0.7,0.4,1.8-0.2,2.4
	l-5,4.5c-0.7,0.6-0.8,1.8-0.1,2.5l3.3,3.6c0.6,0.7,1.8,0.8,2.5,0.1l5-4.5c0.7-0.6,1.7-0.6,2.3,0l0,0c0.7,0.6,0.8,1.6,0.2,2.4
	l-3.9,5.4c-0.6,0.8-0.4,1.9,0.4,2.4l4,2.9c0.8,0.6,1.9,0.4,2.4-0.4l3.9-5.4c0.5-0.7,1.5-0.9,2.3-0.5l0.1,0c0.8,0.5,1.1,1.4,0.7,2.3
	l-2.7,6.1c-0.4,0.9,0,1.9,0.9,2.3l4.5,2c0.9,0.4,1.9,0,2.3-0.9l2.7-6.1c0.4-0.8,1.3-1.2,2.2-1l0,0c0.9,0.3,1.4,1.2,1.2,2.1l-1.4,6.5
	c-0.2,0.9,0.4,1.9,1.3,2.1l4.8,1c0.9,0.2,1.9-0.4,2.1-1.3l1.4-6.6c0.2-0.9,1-1.5,1.9-1.4l0.1,0c0.9,0.1,1.6,0.8,1.6,1.7v6.7
	c0,1,0.8,1.7,1.7,1.7h4.9c1,0,1.7-0.8,1.7-1.7v-6.7c0-0.9,0.7-1.6,1.6-1.7l0.1,0c0.9-0.1,1.7,0.5,1.9,1.4l1.4,6.5
	c0.2,0.9,1.1,1.5,2.1,1.3l4.8-1c0.9-0.2,1.5-1.1,1.3-2.1l-1.4-6.5c-0.2-0.9,0.3-1.8,1.2-2.1l0,0c0.9-0.3,1.8,0.1,2.2,1l2.7,6.1
	c0.4,0.9,1.4,1.3,2.3,0.9l4.5-2c0.9-0.4,1.3-1.4,0.9-2.3l-2.7-6.1c-0.4-0.8-0.1-1.8,0.7-2.3l0,0c0.8-0.5,1.8-0.2,2.3,0.5l3.9,5.4
	c0.6,0.8,1.7,1,2.4,0.4l4-2.9c0.8-0.6,1-1.7,0.4-2.4l-3.9-5.4c-0.5-0.7-0.4-1.8,0.2-2.4l0,0c0.7-0.6,1.7-0.6,2.3,0l5,4.5
	c0.7,0.6,1.8,0.6,2.5-0.1l3.3-3.6c0.6-0.7,0.6-1.8-0.1-2.5l-5-4.5c-0.7-0.6-0.8-1.6-0.2-2.4l0,0c0.5-0.7,1.5-0.9,2.3-0.5l5.8,3.3
	c0.8,0.5,1.9,0.2,2.4-0.6l2.4-4.2c0.5-0.8,0.2-1.9-0.6-2.4l-5.8-3.3c-0.8-0.5-1.1-1.4-0.7-2.3l0,0c0.4-0.8,1.3-1.3,2.2-1l6.3,2.1
	c0.9,0.3,1.9-0.2,2.2-1.1l1.5-4.7c0.3-0.9-0.2-1.9-1.1-2.2l-6.4-2.1c-0.8-0.3-1.4-1.1-1.2-2l0-0.1c0.2-0.9,1-1.5,1.9-1.4l6.6,0.7
	c1,0.1,1.8-0.6,1.9-1.6l0.5-4.9C843.9,321.9,843.2,321.1,842.3,321z M778.5,326.4c-4.4,0-8-3.6-8-8s3.6-8,8-8s8,3.6,8,8
	S782.9,326.4,778.5,326.4z"/>
</svg>
