<?xml version="1.0" encoding="utf-8"?>
<!-- Generator: Adobe Illustrator 25.2.0, SVG Export Plug-In . SVG Version: 6.00 Build 0)  -->
<svg version="1.1" xmlns="http://www.w3.org/2000/svg" xmlns:xlink="http://www.w3.org/1999/xlink" x="0px" y="0px"
	 viewBox="0 0 1080 1080" style="enable-background:new 0 0 1080 1080;" xml:space="preserve">
<style type="text/css">
	.st0{fill:#FFF200;}
	.st1{fill:#FFF683;}
	.st2{fill:#FFF9C5;}
	.st3{fill:#FFBC00;}
	.st4{fill:#FFE000;}
	.st5{fill:#FFFFFF;}
	.st6{fill:none;stroke:#FFE000;stroke-width:20;stroke-linecap:round;stroke-miterlimit:10;}
	.st7{fill:none;stroke:#FFBC00;stroke-width:10;stroke-linecap:round;stroke-linejoin:round;stroke-miterlimit:10;}
</style>
<g id="COULEURS">
</g>
<g id="Jauge__x2B_accueil">
</g>
<g id="images">
</g>
<g id="TEXTE">
</g>
<g id="jauge">
</g>
<g id="picto_accueil">
</g>
<g id="FOND">
</g>
<g id="PICTOS">
</g>
<g id="bulles_Source__x2B_dico">
</g>
<g id="règles">
</g>
<g id="LOGO">
	<g>
		<path class="st4" d="M900.6,548.2c0-30.3-2.5-52.3-7.8-75.2H547.4v136.5h202.8c-4.1,33.9-26.2,85-75.2,119.4l-0.7,4.6l109.2,84.6
			l7.6,0.8C860.5,754.6,900.6,660.2,900.6,548.2"/>
		<path class="st0" d="M547.4,907.9c99.3,0,182.7-32.7,243.7-89.1l-116.1-89.9c-31.1,21.7-72.8,36.8-127.6,36.8
			c-97.3,0-179.9-64.2-209.3-152.9l-4.3,0.4L220.1,701l-1.5,4.1C279.2,825.4,403.4,907.9,547.4,907.9"/>
		<path class="st3" d="M338,612.8c-7.8-22.9-12.3-47.4-12.3-72.8c0-25.3,4.5-49.9,11.9-72.8l-0.2-4.9l-115-89.3l-3.8,1.8
			c-24.9,49.9-39.2,105.9-39.2,165.2s14.3,115.3,39.2,165.2L338,612.8"/>
		<path class="st0" d="M547.4,314.3c69.1,0,115.7,29.8,142.3,54.8l103.8-101.4c-63.8-59.3-146.8-95.7-246.1-95.7
			c-143.9,0-268.2,82.6-328.7,202.8l119,92.4C367.5,378.5,450.1,314.3,547.4,314.3"/>
	</g>
</g>
</svg>
