<?xml version="1.0" encoding="utf-8"?>
<!-- Generator: Adobe Illustrator 25.2.0, SVG Export Plug-In . SVG Version: 6.00 Build 0)  -->
<svg version="1.1" xmlns="http://www.w3.org/2000/svg" xmlns:xlink="http://www.w3.org/1999/xlink" x="0px" y="0px"
	 viewBox="0 0 1080 1080" style="enable-background:new 0 0 1080 1080;" xml:space="preserve">
<style type="text/css">
	.st0{fill:#FFF200;}
	.st1{fill:#FFF683;}
	.st2{fill:#FFF9C5;}
	.st3{fill:#FFBC00;}
	.st4{fill:#FFE000;}
	.st5{fill:#FFFFFF;}
	.st6{fill:none;stroke:#FFE000;stroke-width:20;stroke-linecap:round;stroke-miterlimit:10;}
	.st7{fill:none;stroke:#FFBC00;stroke-width:10;stroke-linecap:round;stroke-linejoin:round;stroke-miterlimit:10;}
</style>
<g id="COULEURS">
</g>
<g id="Jauge__x2B_accueil">
</g>
<g id="images">
</g>
<g id="TEXTE">
</g>
<g id="jauge">
</g>
<g id="picto_accueil">
</g>
<g id="FOND">
</g>
<g id="PICTOS">
</g>
<g id="bulles_Source__x2B_dico">
</g>
<g id="règles">
</g>
<g id="LOGO">
	<g>
		<path class="st3" d="M99.3,659.3c-0.2-3.5-0.7-7-0.7-10.4c0-58.9,0-117.8,0-176.8c0-3.5,0-6.9,0-11.1c3.1-0.4,5.6-0.9,8-0.9
			c17.9-0.1,35.9-0.3,53.8,0c42.4,0.6,75.3,34,75,75.9c-0.3,40.8-33.4,73-75.5,73.4c-12.1,0.1-24.2,0-37.5,0c0,17.1,0,33.5,0,49.9
			C114.7,659.3,107,659.3,99.3,659.3z M122.8,484.3c0,34.8,0,68.7,0,102.4c15.1,0,29.7,1.6,43.8-0.3c26.1-3.5,44.3-26.5,43.8-52.5
			c-0.5-25.9-19.1-46.7-45.8-49.4C151,483.2,137.2,484.3,122.8,484.3z"/>
		<path class="st3" d="M866.2,541.7c0-6.3,0-11.6,0-18c29.4,0,58.4,0,88.2,0c-1.2-14.1-6.3-25.3-16.7-33
			c-29.7-22-86.1-11.6-94.5,35.8c-5.6,31.6,20,61.9,52.3,62.2c25.7,0.3,48.9-5.8,64.9-29.1c5,5.2,9.7,10.1,15.3,15.9
			c-3.8,4.6-7.3,9.9-11.8,14.2c-28.3,26.6-82.4,29.4-113.4,6.2c-26.5-19.9-37.2-50-28.8-81.3c7.6-28.3,35.4-52.8,65.7-55.6
			c13.8-1.3,28.4-0.7,41.9,2.2c37.2,8,56.5,39.2,51.2,80.6C942.7,541.7,904.8,541.7,866.2,541.7z"/>
		<path class="st3" d="M579.7,541.7c0-6.1,0-11.6,0-18c29.3,0,58,0,88.4,0c-1.8-13.7-6.2-25-16.7-32.7
			c-18.3-13.4-38.9-14.7-59.5-6.9c-19.9,7.5-32.6,22.2-35.6,43.9c-4.2,30.6,20.2,60,51.2,60.7c26,0.6,49.7-5.2,65.7-28.2
			c4.4,5.1,8.8,10.3,14.3,16.7c-2.2,2.7-5.7,8.1-10.2,12.4c-28.9,27.2-83.7,29.6-115,5.3C537,575.1,526.7,545,535,514.7
			c7.8-28.6,35.3-52.9,65.6-55.7c13.8-1.3,28.4-0.7,42,2.2c37.2,8,57,40,51.1,80.6C656.1,541.7,618.4,541.7,579.7,541.7z"/>
		<path class="st3" d="M408.8,609c-8.2,0-15.3,0-23.1,0c0-62.8,0-125.3,0-188.3c7.5,0,14.8,0,23.1,0c0,17.2,0,34.5,0,54.2
			c4.3-2.7,6.8-4.3,9.3-5.9c21.1-13.6,43.4-15.7,65.7-4.2c22.9,11.8,34.8,31.7,35.2,57.4c0.5,28.6,0.1,57.2,0.1,86.5
			c-7.9,0-15.1,0-23.4,0c-0.2-3.3-0.5-6.7-0.6-10c0-24.2,0-48.4,0-72.6c-0.1-27.3-17.8-46.2-43-46.1c-25.4,0.1-42.6,18.8-42.7,46.4
			c-0.1,24.2,0,48.4,0,72.6C409.2,602.1,408.9,605.2,408.8,609z"/>
		<path class="st3" d="M250.4,460.1c8.9,0,15.9-0.5,22.8,0.3c2.8,0.3,6.1,3,7.7,5.5c8.1,12.3,15.6,24.9,23.4,37.3
			c1.6,2.6,3.5,5.1,5.9,8.8c9.3-14.9,18.3-28.4,26.3-42.5c4.2-7.3,9-10.8,17.5-9.6c4.7,0.7,9.5,0.1,15.9,0.1c-1.8,3.5-2.9,6-4.3,8.3
			c-12.2,19.8-24.3,39.8-36.9,59.4c-3.5,5.5-3.3,9.3,0.1,14.6c12.2,19.1,24,38.4,35.9,57.7c1.6,2.6,3,5.4,5.2,9.4
			c-9.1,0-16.7,0.6-24.2-0.3c-2.7-0.3-5.7-3.6-7.4-6.2c-9.3-14.4-18.2-29.1-28.2-45.1c-8.5,13.8-17,25.8-23.6,38.8
			c-5.2,10.1-11.8,15-23.3,13c-3.6-0.6-7.4-0.1-13.3-0.1c4.1-6.7,7.1-11.8,10.2-16.8c10.6-17.1,21.1-34.2,32.1-51.1
			c3.2-5,3.2-8.6-0.1-13.7c-12.6-19.6-24.8-39.5-37-59.3C253.8,466.3,252.7,464.1,250.4,460.1z"/>
		<path class="st3" d="M702,460.6c7.7,0,14.9,0,22.7,0c0.4,4.3,0.7,8.3,1.2,14c20.6-15.8,42.5-21.4,66.5-13.5
			c11,3.6,20.6,9.8,27.8,20.6c-6.1,3.3-11.4,6.8-17.2,9.2c-1.9,0.8-5.4-0.3-7.3-1.7c-29.5-21.1-66.8-5.3-69.6,30.9
			c-1.9,24.7-0.7,49.7-0.9,74.6c0,4.4,0,8.8,0,14c-7.9,0-15.1,0-23.2,0C702,559.4,702,510.3,702,460.6z"/>
	</g>
</g>
</svg>
