<?xml version="1.0" encoding="utf-8"?>
<!-- Generator: Adobe Illustrator 25.2.0, SVG Export Plug-In . SVG Version: 6.00 Build 0)  -->
<svg version="1.1" xmlns="http://www.w3.org/2000/svg" xmlns:xlink="http://www.w3.org/1999/xlink" x="0px" y="0px"
	 viewBox="0 0 1080 1080" style="enable-background:new 0 0 1080 1080;" xml:space="preserve">
<style type="text/css">
	.st0{fill:#FFF200;}
	.st1{fill:#FFF683;}
	.st2{fill:#FFF9C5;}
	.st3{fill:#FFBC00;}
	.st4{fill:#FFE000;}
	.st5{fill:#FFFFFF;}
	.st6{fill:none;stroke:#FFE000;stroke-width:20;stroke-linecap:round;stroke-miterlimit:10;}
	.st7{fill:none;stroke:#FFBC00;stroke-width:10;stroke-linecap:round;stroke-linejoin:round;stroke-miterlimit:10;}
</style>
<g id="COULEURS">
</g>
<g id="Jauge__x2B_accueil">
</g>
<g id="images">
</g>
<g id="TEXTE">
</g>
<g id="jauge">
</g>
<g id="picto_accueil">
</g>
<g id="FOND">
</g>
<g id="PICTOS">
</g>
<g id="bulles_Source__x2B_dico">
</g>
<g id="règles">
</g>
<g id="LOGO">
	<g>
		<path class="st0" d="M772.7,758.2c-28.5-11.4-55.8-22.2-82.9-33.4c-1.9-0.8-3.7-4.3-3.7-6.6c-0.3-13.6-0.2-27.3-0.2-42.9
			c20.7,8.3,39.9,16,60.6,24.3c26.7-68,53.1-135.4,80.2-204.5c-99.9-38.3-199.4-76.4-300.2-115c-7.9,24.3-16.3,47.3-22.6,70.8
			c-3.3,12.3-8.3,17.6-21.4,16c-10.3-1.3-20.8-0.3-32.9-0.3c17.1-49,33.7-96.4,50.7-145.1C628.8,370.7,756.7,419.6,886,469
			C848.1,565.6,810.6,661.3,772.7,758.2z"/>
		<g>
			<path class="st3" d="M631.5,504.2c-86,0-172.1-0.5-258.1,0.4c-17.4,0.2-31.1-6.3-36.7-20c-7.6-18.6-20.3-17.7-35.3-17.1
				c-15.3,0.6-30.7,0.1-46,0.2c-4.3,0-8.6,0.5-13.4,0.8c0.3,34.2-21.6,38.5-47.9,35.5c0,86.1,0,170.1,0,254.6c151.4,0,302,0,453.8,0
				c0-85,0-169.1,0-254.3C641.9,504.2,636.7,504.2,631.5,504.2z M307.1,577.5c-16.9-0.6-33.8-0.4-50.7,0c-7.3,0.2-10-2.4-9.8-9.7
				c0.9-34.5-4.9-27.6,27.4-28.2c20.1-0.4,40.2,0.1,60.3,0.2c1.1,0,2.2,0.7,3.2,1.1c0.3,0.5,0.6,0.9,0.7,1.2
				C340,572.8,342.5,578.7,307.1,577.5z M578.8,628.9c-1,50.3-44.9,91.6-96.2,90.4c-52.9-1.2-94.3-43.7-93.3-95.9
				c1-50.3,44.5-90.4,97-89.3C539.4,535.2,579.9,576.7,578.8,628.9z"/>
			<path class="st3" d="M484.6,575.9c-27.3-0.3-50.6,22.2-50.9,49.3c-0.4,27.1,22.3,49.8,50,50.1c27.8,0.3,50.6-21.7,50.9-49.1
				C534.9,599.1,512.2,576.2,484.6,575.9z"/>
		</g>
	</g>
</g>
</svg>
