<?xml version="1.0" encoding="utf-8"?>
<!-- Generator: Adobe Illustrator 25.2.0, SVG Export Plug-In . SVG Version: 6.00 Build 0)  -->
<svg version="1.1" xmlns="http://www.w3.org/2000/svg" xmlns:xlink="http://www.w3.org/1999/xlink" x="0px" y="0px"
	 viewBox="0 0 1080 1080" style="enable-background:new 0 0 1080 1080;" xml:space="preserve">
<style type="text/css">
	.st0{fill:#FFF200;}
	.st1{fill:#FFF683;}
	.st2{fill:#FFF9C5;}
	.st3{fill:#FFBC00;}
	.st4{fill:#FFE000;}
	.st5{fill:#FFFFFF;}
	.st6{fill:none;stroke:#FFE000;stroke-width:20;stroke-linecap:round;stroke-miterlimit:10;}
	.st7{fill:none;stroke:#FFBC00;stroke-width:10;stroke-linecap:round;stroke-linejoin:round;stroke-miterlimit:10;}
</style>
<g id="COULEURS">
</g>
<g id="Jauge__x2B_accueil">
</g>
<g id="images">
</g>
<g id="TEXTE">
</g>
<g id="jauge">
</g>
<g id="picto_accueil">
</g>
<g id="FOND">
</g>
<g id="PICTOS">
</g>
<g id="bulles_Source__x2B_dico">
</g>
<g id="règles">
</g>
<g id="LOGO">
	<g>
		<path class="st3" d="M693.6,475.9c0-19.5,0-38.7,0-57.7c-2.9-0.5-166.7-0.3-168.4,0.1c0,5.7,0,11.5,0,17.3
			c0.7,0.1,1.3,0.2,1.9,0.2c7.7,0.1,15.3,0.3,23,0.4c1.1,0,2.1,0.1,3.2,0.1c0.9,0,1.4,0.5,1.4,1.4c0,1.4,0.1,2.9,0.1,4.3
			c0,17.3,0.1,34.6,0.1,51.9c0.1,31.8,0.2,63.6,0.3,95.4c0,0.7,0,1.5,0,2.4c-1.3,0.1-2.4,0.3-3.5,0.3c-7.8,0-15.6,0-23.5,0
			c-0.9,0-1.8,0.1-2.6,0.1c-0.5,1.8-0.7,14.9-0.3,18.4c2,0.6,166.4,0.6,168.4,0c0.4-3.5,0.3-57.4-0.2-59c-0.2,0-0.4-0.1-0.7-0.1
			c-6.5,0-13.1,0-19.6,0c-0.6,0-1.1,0.2-1.8,0.4c0,2.8,0,5.4,0,8c0,2.7,0,5.4,0,8.1c0,2.6,0,5.3,0,7.9c0,2.7,0,5.4,0,8.1
			c0,2.6,0.2,5.2-0.1,7.7c-3.1,0.6-88.9,0.5-90.5,0c0-22.9,0-45.8,0-68.7c0.6-0.1,1-0.2,1.4-0.2c13.3-0.1,26.6-0.1,39.9-0.2
			c0.7,0,1.4,0.2,2.4,0.4c0,9.2,0,18.2,0,27.2c7.3,0,14.4,0,21.6,0c0-1,0.1-1.9,0.1-2.8c0-9.5,0-18.9,0-28.4c0-13.2,0-26.5,0-39.7
			c0-3.1,0-3.1-3.2-3.1c-5.4,0-10.8,0-16.2,0c-0.6,0-1.3,0.1-2.1,0.2c-0.1,1.2-0.2,2.2-0.2,3.3c0,7.1,0,14.3,0,21.4
			c0,2.6-0.1,2.7-2.6,2.8c-13.1,0-26.2,0-39.3,0c-0.6,0-1.3-0.1-2-0.2c0-1,0-1.9,0-2.7c0.1-16.2,0.3-32.5,0.4-48.7
			c0-4.3,0.1-8.6,0.1-12.8c0-2.9,0-2.9,3-3c0.9,0,1.8-0.1,2.7-0.1c9.5,0,19-0.1,28.4-0.1c17.6,0.1,35.2,0.2,52.8,0.3
			c1.1,0,2.2,0.2,3.5,0.3c0,6.7,0,13.1,0,19.6c0,6.4,0,12.9,0,19.6C678.9,476,686.2,475.9,693.6,475.9z M129.5,610.6
			c1.2,0.1,2.3,0.2,3.3,0.3c10.4,0,20.8,0,31.1,0c17.4,0,34.9,0,52.3,0c1.2,0,2.4,0.2,3.4-0.5c0.5-4.1,0.1-15.9-0.8-18
			c-2.9-0.1-5.9-0.2-8.9-0.2c-6.8-0.1-13.5-0.2-20.3-0.4c-0.7,0-1.4-0.2-2.2-0.4c0-1.2,0-2.2,0-3.1c0.1-20.7,0.2-41.3,0.2-62
			c0-9.7,0.1-19.4,0.1-29.1c0-19.3,0.1-38.6,0.1-57.9c0-0.9,0.1-1.7,0.2-2.8c1-0.1,1.7-0.1,2.4-0.1c15.1,0,30.2,0,45.3,0
			c0.8,0,1.6,0.2,2.6,0.3c0.2,14.8,0.4,29.4,0.5,44c2.9,0.6,20.5,0.4,22.1-0.2c0.5-2.9,0.3-60.7-0.3-62.4c-57.2,0-114.5,0-171.7,0
			c-0.5,2.5-0.5,61,0.1,62.7c7,0,14,0,21.3,0c0-1,0.1-1.8,0.1-2.6c0.1-13.1,0.3-26.1,0.4-39.2c0-0.8,0.1-1.6,0.2-2.3
			c2.8-0.6,48.1-0.4,50.2,0.2c0.2,51.4,0.2,102.9,0.5,154.5c-0.9,0.2-1.4,0.4-2,0.4c-1.6,0.1-3.2,0.2-4.7,0.2c-7,0.1-14,0.1-21,0.2
			c-1.4,0-2.9-0.2-4.4,0.7C129.8,598.7,129.7,604.4,129.5,610.6z M373.5,495.1c0,32.3,0,64.2,0,96.5c-1.1,0.1-2.1,0.3-3.1,0.3
			c-5.9,0-11.7,0-17.6,0c-0.9,0-1.7,0.1-2.7,0.2c0,6.3,0,12.3,0,18.7c23.5,0,46.8,0.1,70.2-0.1c0.1-0.6,0.2-1,0.2-1.3
			c0-5.1,0.1-10.2,0-15.3c0-1.9-0.3-2.1-2.3-2.1c-5.1,0-10.2,0-15.3,0c-1.7,0-3.4-0.1-5.4-0.2c0-1.2,0-2.2,0-3.1
			c0.1-11.7,0.2-23.4,0.3-35.2c0.1-8.6,0.4-17.3,0.4-25.9c0-8.3,3-15.4,7.8-21.9c4.4-6,10.3-9.9,17.4-11.7c7.6-1.9,15.4-2,23.1-0.6
			c11.6,2.2,18.1,12.1,19.4,21.7c0.6,4.3,0.7,8.7,0.7,13c0.2,20.5,0.4,41,0.5,61.5c0,0.6-0.1,1.3-0.2,2.1c-1,0.1-1.9,0.2-2.8,0.2
			c-5.9,0-11.7,0-17.6,0c-2.2,0-2.4,0.2-2.4,2.3c0,5,0,9.9,0,14.9c0,0.4,0.1,0.9,0.2,1.5c0.8,0.1,1.5,0.2,2.2,0.2
			c21.7,0,43.5,0,65.2,0c1,0,1.9-0.2,3.1-0.3c-0.2-6.1-0.3-12-0.5-18c-7.8-0.7-15.4,0-23.1-0.8c0-1-0.1-1.7-0.1-2.4
			c-0.1-14.7-0.1-29.3-0.2-44c-0.1-10.7-0.4-21.3-0.7-32c-0.2-5.4-1.2-10.6-3.1-15.6c-4.8-12.7-18.8-22.3-30.3-23
			c-6.9-0.5-13.8-0.8-20.7-0.4c-3.1,0.2-6.3,0.4-9.3,1.5c-6.7,2.4-12.9,5.8-18.3,10.5c-3.5,3.1-6.6,6.6-8.7,10.8
			c-0.2,0.4-0.6,0.8-1.3,1.6c-0.3-1.4-0.5-2.3-0.6-3.2c-0.3-5.4-0.5-10.8-0.8-16.2c0-0.8-0.2-1.6-0.3-2.7c-15.7-0.1-31.1-0.2-47-0.4
			c-0.1,6.3,0,12.3-0.1,18.6c1.1,0,1.9,0,2.7,0c6,0,12,0,18,0C371.6,494.8,372.5,495,373.5,495.1z M704.2,494.7
			c4,0.2,7.8,0.4,11.5,0.5c2.2,0.1,3.6,0.9,4.6,3.1c11.5,25.7,23.2,51.4,34.8,77.1c5,11.2,10.1,22.3,15.1,33.5
			c0.5,1.1,0.9,2.1,0.3,3.4c-2.3,5.1-4.4,10.4-6.8,15.5c-1.4,2.9-3.1,5.7-4.9,8.3c-2.9,4.2-7.1,6.7-12.3,7.1
			c-4.2,0.3-8.4,0.2-12.6,0.3c-1.9,0-3.9,0-6,0c-0.1,0.7-0.1,1.4-0.2,2.2c0,3.8-0.1,7.5,0,11.3c0.1,4-1.1,4.2,4.4,4.8
			c7.5,0.7,15,0.5,22.5-0.2c6.2-0.6,11.9-2.5,16.6-6.9c3.3-3.1,6.3-6.5,8.4-10.5c1.7-3.1,3.4-6.2,4.8-9.5
			c10.3-23.4,20.5-46.8,30.7-70.2c9.6-22.2,19.2-44.4,28.6-66.7c0.8-1.9,1.9-2.6,3.9-2.6c3.3,0,6.6-0.2,9.9-0.4
			c0.8,0,1.6-0.2,2.3-0.3c0.4-2.7-0.1-16.2-0.6-17.8c-20.8,0-41.6,0-62.3,0c-0.6,1.9-1,15.1-0.6,17.8c0.9,0.1,1.9,0.2,2.8,0.2
			c6.3,0.2,12.6,0.3,18.9,0.4c1.2,0,2.5-0.1,3.7,0.9c-0.4,0.9-0.7,1.9-1,2.7c-5.4,12.9-10.8,25.8-16.3,38.7
			c-6,14.1-12.1,28.2-18.2,42.2c-0.6,1.3-1.3,2.6-2.2,4.4c-0.7-1.3-1.1-2.2-1.5-3c-7.8-17.8-15.6-35.5-23.3-53.3
			c-4.2-9.7-8.3-19.5-12.4-29.3c-0.4-0.8-0.6-1.8-0.9-2.9c1.6-0.2,2.8-0.5,4.1-0.5c6.1-0.2,12.2-0.3,18.3-0.4c0.8,0,1.6-0.1,2.5-0.1
			c0.1-0.8,0.2-1.4,0.2-2c0-4.7,0-9.3,0-14c0-0.4,0-0.8,0-1.1c-0.1-0.9-0.5-1.4-1.4-1.4c-0.5,0-0.9,0-1.4,0c-20.5,0-40.9,0-61.4,0
			c-0.8,0-1.6,0.1-2.6,0.2C704.2,482.5,704.2,488.5,704.2,494.7z M317.1,476.3c-0.8-0.1-1.4-0.2-2-0.2c-14.1,0-28.1,0-42.2,0
			c-2.5,0-2.6,0.1-2.6,2.5c0,4.7,0,9.3,0,14c0,0.6,0.1,1.3,0.2,2.1c7.6,0,15,0,22.8,0c0,32.4,0,64.6,0,96.9
			c-0.9,0.1-1.5,0.2-2.1,0.2c-6,0.1-12,0.1-18,0.1c-2.7,0-2.9,0.1-2.9,2.7c0,4.6,0,9.2,0,13.7c0,0.7,0.1,1.3,0.1,2.2
			c1.4,0.1,2.8,0.2,4.1,0.2c21.3,0,42.6,0,63.8,0c0.8,0,1.6-0.1,2.3-0.2c0.5-3.6,0.3-16.7-0.3-18.5c-0.8,0-1.7-0.1-2.6-0.1
			c-5.8,0-11.6,0-17.4,0c-1,0-2.1,0.1-3.1-0.8c0-0.9,0-1.8,0-2.8c0-19.3,0-38.6,0-57.9c0-17,0-34,0-50.9
			C317.3,478.5,317.2,477.5,317.1,476.3z M290.7,445.4c8.9,0,17.6,0,26.1,0c0.7-2,0.7-25.1,0.1-27.3c-8.7,0-17.3,0-26.2,0
			C290.7,427.2,290.7,436.1,290.7,445.4z"/>
		<path class="st3" d="M991.1,550.2c-1.4,0-2.7,0-4.1,0c-34.7,0-69.3,0-104,0c-1,0-1.9,0-2.9,0c-0.1,0.6-0.2,1-0.1,1.3
			c0.3,4.6,0.6,9.3,1.8,13.8c3.9,14.6,13.1,23.8,27.8,27.5c9,2.3,18.2,2.7,27.3,1.4c8.4-1.2,16-4.7,22.4-10.3
			c3.6-3.1,6.2-6.9,7.4-11.6c0.3-1,0.6-2,0.9-3.1c1.7,0,3.1,0,4.6,0c5,0,9.9,0.1,14.9,0c2.4-0.1,2.9,1,2.5,2.9
			c-2,10.4-5.8,19.7-14.4,26.5c-9.2,7.3-19.5,11.8-31.1,13.4c-11.5,1.6-23,2.1-34.4,0.3c-23.8-3.7-41-16.4-50.3-38.9
			c-4.1-9.9-5.5-20.4-5.2-31.1c0.1-6.9,0.8-13.7,2.6-20.3c5.6-21.3,18.9-35.6,39.3-43.5c7-2.7,14.3-3.9,21.8-4.4
			c8.3-0.6,16.5-0.3,24.7,1.4c18.6,3.7,31.9,14.1,39.7,31.5c4.3,9.7,6.7,19.9,7.8,30.5c0.2,2.1,0.3,4.2,0.5,6.3
			c0.1,0.9,0.3,1.7,0.5,2.6C991.1,547.5,991.1,548.8,991.1,550.2z M880,531c2.9,0.5,85,0.4,86.7-0.2c0-0.4,0.1-0.9,0-1.3
			c-0.4-2.5-0.7-5.1-1.3-7.5c-4.2-15.7-14-25.5-30.2-28.7c-5.1-1-10.2-1.2-15.3-0.8c-8.9,0.7-17.3,3.3-24.6,8.6
			c-6.6,4.9-11.3,11.1-13.7,19C880.6,523.8,880.2,527.4,880,531z"/>
		<path class="st3" d="M693.6,475.9c-7.4,0-14.7,0.1-22.2,0c-0.1-6.7,0-13.2,0-19.6c0-6.4,0-12.9,0-19.6c-1.3-0.1-2.4-0.2-3.5-0.3
			c-17.6-0.1-35.2-0.2-52.8-0.3c-9.5,0-19,0-28.4,0.1c-0.9,0-1.8,0-2.7,0.1c-3,0.2-3,0.2-3,3c0,4.3,0,8.6-0.1,12.8
			c-0.1,16.2-0.3,32.5-0.4,48.7c0,0.8,0,1.6,0,2.7c0.8,0.1,1.4,0.2,2,0.2c13.1,0,26.2,0,39.3,0c2.5,0,2.6-0.2,2.6-2.8
			c0-7.1,0-14.3,0-21.4c0-1,0.1-2.1,0.2-3.3c0.8-0.1,1.5-0.2,2.1-0.2c5.4,0,10.8,0,16.2,0c3.1,0,3.2,0,3.2,3.1c0,13.2,0,26.5,0,39.7
			c0,9.5,0,18.9,0,28.4c0,0.9-0.1,1.8-0.1,2.8c-7.2,0-14.2,0-21.6,0c0-9.1,0-18.1,0-27.2c-1-0.2-1.7-0.4-2.4-0.4
			c-13.3,0-26.6,0.1-39.9,0.2c-0.4,0-0.7,0.1-1.4,0.2c0,22.9,0,45.8,0,68.7c1.6,0.5,87.4,0.6,90.5,0c0.3-2.5,0.1-5.1,0.1-7.7
			c0-2.7,0-5.4,0-8.1c0-2.6,0-5.3,0-7.9c0-2.7,0-5.4,0-8.1c0-2.6,0-5.2,0-8c0.7-0.1,1.2-0.4,1.8-0.4c6.5,0,13.1,0,19.6,0
			c0.2,0,0.4,0.1,0.7,0.1c0.4,1.6,0.6,55.5,0.2,59c-2,0.6-166.4,0.6-168.4,0c-0.4-3.4-0.3-16.5,0.3-18.4c0.8,0,1.7-0.1,2.6-0.1
			c7.8,0,15.6,0,23.5,0c1.1,0,2.2-0.2,3.5-0.3c0-1,0-1.7,0-2.4c-0.1-31.8-0.2-63.6-0.3-95.4c-0.1-17.3-0.1-34.6-0.1-51.9
			c0-1.4-0.1-2.9-0.1-4.3c0-0.9-0.5-1.4-1.4-1.4c-1.1,0-2.1-0.1-3.2-0.1c-7.7-0.1-15.3-0.3-23-0.4c-0.6,0-1.2-0.1-1.9-0.2
			c0-5.8,0-11.6,0-17.3c1.7-0.5,165.5-0.6,168.4-0.1C693.6,437.2,693.6,456.4,693.6,475.9z"/>
		<path class="st3" d="M129.5,610.6c0.1-6.2,0.3-11.9,0.4-17.6c1.5-0.9,3-0.7,4.4-0.7c7-0.1,14-0.2,21-0.2c1.6,0,3.2-0.1,4.7-0.2
			c0.6,0,1.1-0.2,2-0.4c-0.3-51.6-0.3-103.1-0.5-154.5c-2.1-0.7-47.3-0.8-50.2-0.2c-0.1,0.7-0.2,1.5-0.2,2.3
			c-0.1,13.1-0.3,26.1-0.4,39.2c0,0.8-0.1,1.6-0.1,2.6c-7.2,0-14.3,0-21.3,0c-0.5-1.8-0.6-60.2-0.1-62.7c57.2,0,114.5,0,171.7,0
			c0.6,1.7,0.8,59.5,0.3,62.4c-1.6,0.6-19.2,0.8-22.1,0.2c-0.2-14.6-0.4-29.2-0.5-44c-1-0.1-1.8-0.3-2.6-0.3c-15.1,0-30.2,0-45.3,0
			c-0.7,0-1.5,0.1-2.4,0.1c-0.1,1-0.2,1.9-0.2,2.8c-0.1,19.3-0.1,38.6-0.1,57.9c0,9.7-0.1,19.4-0.1,29.1c-0.1,20.7-0.2,41.3-0.2,62
			c0,1,0,1.9,0,3.1c0.8,0.2,1.5,0.4,2.2,0.4c6.8,0.1,13.5,0.2,20.3,0.4c3,0.1,6,0.2,8.9,0.2c0.8,2.1,1.3,13.8,0.8,18
			c-1,0.7-2.3,0.5-3.4,0.5c-17.4,0-34.9,0-52.3,0c-10.4,0-20.8,0-31.1,0C131.8,610.8,130.8,610.7,129.5,610.6z"/>
		<path class="st3" d="M373.5,495.1c-1-0.1-1.9-0.4-2.9-0.4c-6,0-12,0-18,0c-0.8,0-1.6,0-2.7,0c0-6.3,0-12.3,0.1-18.6
			c15.8,0.1,31.3,0.2,47,0.4c0.1,1.1,0.2,1.9,0.3,2.7c0.3,5.4,0.5,10.8,0.8,16.2c0,0.9,0.3,1.8,0.6,3.2c0.7-0.8,1-1.1,1.3-1.6
			c2.1-4.3,5.2-7.7,8.7-10.8c5.4-4.7,11.6-8.1,18.3-10.5c3-1.1,6.2-1.3,9.3-1.5c6.9-0.4,13.8,0,20.7,0.4c11.4,0.7,25.5,10.4,30.3,23
			c1.9,5.1,3,10.3,3.1,15.6c0.3,10.7,0.6,21.3,0.7,32c0.2,14.6,0.1,29.3,0.2,44c0,0.7,0.1,1.5,0.1,2.4c7.6,0.8,15.2,0.2,23.1,0.8
			c0.2,6.1,0.3,12,0.5,18c-1.2,0.1-2.1,0.3-3.1,0.3c-21.7,0-43.5,0-65.2,0c-0.7,0-1.5-0.1-2.2-0.2c-0.1-0.6-0.2-1.1-0.2-1.5
			c0-5,0-9.9,0-14.9c0-2.1,0.2-2.3,2.4-2.3c5.9,0,11.7,0,17.6,0c0.9,0,1.8-0.1,2.8-0.2c0.1-0.8,0.2-1.5,0.2-2.1
			c-0.2-20.5-0.3-41-0.5-61.5c0-4.4-0.2-8.7-0.7-13c-1.3-9.6-7.7-19.6-19.4-21.7c-7.7-1.4-15.4-1.4-23.1,0.6
			c-7.2,1.8-13,5.7-17.4,11.7c-4.8,6.5-7.8,13.7-7.8,21.9c0,8.6-0.3,17.3-0.4,25.9c-0.1,11.7-0.2,23.4-0.3,35.2c0,1,0,1.9,0,3.1
			c2,0.1,3.7,0.2,5.4,0.2c5.1,0,10.2,0,15.3,0c2,0,2.3,0.2,2.3,2.1c0,5.1,0,10.2,0,15.3c0,0.4-0.1,0.7-0.2,1.3
			c-23.4,0.1-46.7,0.1-70.2,0.1c0-6.4,0-12.4,0-18.7c1-0.1,1.9-0.2,2.7-0.2c5.9,0,11.7,0,17.6,0c1,0,2-0.2,3.1-0.3
			C373.5,559.4,373.5,527.4,373.5,495.1z"/>
		<path class="st3" d="M704.2,494.7c0-6.2,0-12.2,0-18.3c1-0.1,1.8-0.2,2.6-0.2c20.5,0,40.9,0,61.4,0c0.5,0,0.9,0,1.4,0
			c0.9,0,1.4,0.5,1.4,1.4c0,0.4,0,0.8,0,1.1c0,4.7,0,9.3,0,14c0,0.6-0.1,1.2-0.2,2c-0.9,0-1.7,0.1-2.5,0.1
			c-6.1,0.1-12.2,0.2-18.3,0.4c-1.3,0-2.5,0.3-4.1,0.5c0.3,1.1,0.5,2,0.9,2.9c4.1,9.8,8.2,19.6,12.4,29.3
			c7.7,17.8,15.6,35.5,23.3,53.3c0.4,0.9,0.8,1.7,1.5,3c0.9-1.7,1.7-3,2.2-4.4c6.1-14.1,12.2-28.1,18.2-42.2
			c5.5-12.9,10.8-25.8,16.3-38.7c0.4-0.9,0.7-1.8,1-2.7c-1.2-1-2.5-0.9-3.7-0.9c-6.3-0.2-12.6-0.3-18.9-0.4c-1,0-1.9-0.1-2.8-0.2
			c-0.4-2.7,0.1-15.9,0.6-17.8c20.7,0,41.5,0,62.3,0c0.5,1.6,1,15,0.6,17.8c-0.7,0.1-1.5,0.2-2.3,0.3c-3.3,0.1-6.6,0.4-9.9,0.4
			c-2,0-3,0.7-3.9,2.6c-9.5,22.3-19,44.5-28.6,66.7c-10.2,23.4-20.4,46.9-30.7,70.2c-1.4,3.2-3.1,6.4-4.8,9.5
			c-2.2,4-5.1,7.4-8.4,10.5c-4.6,4.4-10.4,6.3-16.6,6.9c-7.5,0.7-15,0.9-22.5,0.2c-5.5-0.6-4.4-0.8-4.4-4.8c-0.1-3.8,0-7.5,0-11.3
			c0-0.7,0.1-1.5,0.2-2.2c2.1,0,4.1,0,6,0c4.2-0.1,8.4,0,12.6-0.3c5.2-0.4,9.3-2.9,12.3-7.1c1.8-2.6,3.6-5.4,4.9-8.3
			c2.4-5.1,4.5-10.3,6.8-15.5c0.6-1.3,0.2-2.3-0.3-3.4c-5.1-11.2-10.1-22.3-15.1-33.5c-11.6-25.7-23.3-51.3-34.8-77.1
			c-1-2.2-2.3-3-4.6-3.1C711.9,495.1,708.2,494.9,704.2,494.7z"/>
		<path class="st3" d="M317.1,476.3c0.1,1.1,0.2,2.1,0.2,3.2c0,17,0,34,0,50.9c0,19.3,0,38.6,0,57.9c0,1,0,1.9,0,2.8
			c1,0.9,2.1,0.8,3.1,0.8c5.8,0,11.6,0,17.4,0c0.9,0,1.8,0.1,2.6,0.1c0.6,1.8,0.8,14.9,0.3,18.5c-0.7,0.1-1.5,0.2-2.3,0.2
			c-21.3,0-42.6,0-63.8,0c-1.3,0-2.7-0.1-4.1-0.2c-0.1-0.9-0.1-1.5-0.1-2.2c0-4.6,0-9.2,0-13.7c0-2.6,0.1-2.7,2.9-2.7
			c6,0,12-0.1,18-0.1c0.6,0,1.2-0.1,2.1-0.2c0.1-32.3,0-64.4,0-96.9c-7.8,0-15.2,0-22.8,0c-0.1-0.9-0.2-1.5-0.2-2.1
			c0-4.7,0-9.3,0-14c0-2.4,0.1-2.5,2.6-2.5c14.1,0,28.1,0,42.2,0C315.7,476.2,316.3,476.3,317.1,476.3z"/>
		<path class="st3" d="M290.7,445.4c0-9.2,0-18.2,0-27.3c8.8,0,17.5,0,26.2,0c0.6,2.2,0.6,25.3-0.1,27.3
			C308.3,445.4,299.7,445.4,290.7,445.4z"/>
	</g>
</g>
</svg>
