<?xml version="1.0" encoding="utf-8"?>
<!-- Generator: Adobe Illustrator 25.2.0, SVG Export Plug-In . SVG Version: 6.00 Build 0)  -->
<svg version="1.1" xmlns="http://www.w3.org/2000/svg" xmlns:xlink="http://www.w3.org/1999/xlink" x="0px" y="0px"
	 viewBox="0 0 1080 1080" style="enable-background:new 0 0 1080 1080;" xml:space="preserve">
<style type="text/css">
	.st0{fill:#FFF200;}
	.st1{fill:#FFF683;}
	.st2{fill:#FFF9C5;}
	.st3{fill:#FFBC00;}
	.st4{fill:#FFE000;}
	.st5{fill:#FFFFFF;}
	.st6{fill:none;stroke:#FFE000;stroke-width:20;stroke-linecap:round;stroke-miterlimit:10;}
	.st7{fill:none;stroke:#FFBC00;stroke-width:10;stroke-linecap:round;stroke-linejoin:round;stroke-miterlimit:10;}
</style>
<g id="COULEURS">
</g>
<g id="Jauge__x2B_accueil">
</g>
<g id="images">
</g>
<g id="TEXTE">
</g>
<g id="jauge">
</g>
<g id="picto_accueil">
</g>
<g id="FOND">
</g>
<g id="PICTOS">
</g>
<g id="bulles_Source__x2B_dico">
</g>
<g id="règles">
</g>
<g id="LOGO">
	<path class="st2" d="M252.8,148.1c-142.6,3.5-77.3,72.2-177,191.7c-96.6,115.8,1.7,246.9,26.2,293.9
		c33.1,63.6,30.3,130.1,16.5,190.5c-13.7,60.4,5.3,164.2,98.2,189.9c91.9,25.5,176-49.3,252-32c76,17.3,193.2-125.3,244.7-81.2
		c86.6,74.3,287.3,41.4,311.6-40.2c23.6-79.2,31.1-165.2-88-289.4c-48.8-50.9,27.5-216.8-1.3-295.5c-31.1-85-115-88.9-250.7-92.4
		c-54.3-1.4-108.4-95-201.9-96.7S378.7,145.1,252.8,148.1z"/>
	<path class="st5" d="M666.1,589.7l24.5-51c0.8-1.6,1.2-3.4,1.2-5.2V481c0-3.9,1.9-7.5,5.1-9.8l17-11.9c3.2-2.2,5.1-5.9,5.1-9.8
		v-10.8c0-1.8,0.4-3.5,1.2-5.1l11.7-24.7c2-4.1,1.4-9-1.5-12.6l-14.7-18.3c-3.4-4.2-3.5-10.2-0.3-14.5l19.4-26.5
		c0.2-0.3,0.5-0.7,0.7-1.1l23-39.6c1.8-3.2,2.1-7,0.8-10.4L746.9,255c-1.7-4.2-0.8-9,2.2-12.3l7.3-8.1c3-3.4,3.9-8.2,2.2-12.4
		l-3.7-9.2c-1-2.6-1.1-5.5-0.2-8.2l6.1-18.2c0.4-1.2,0.6-2.5,0.6-3.8v-12.9c0-2.1,0.6-4.2,1.6-6l-626.1,162
		c-23.6,6.1-38.9,29-35.6,53.1l66.2,479.8l639.4-314.6l-124.7,61.4C672,610.5,661.2,599.9,666.1,589.7z"/>
	<path class="st3" d="M238.4,894.3l603.5-333.8c16.5-9.1,26.1-27,24.7-45.8l-699.1,344C172.1,892.3,208.8,910.7,238.4,894.3z"/>
	<path class="st3" d="M464.5,430l17,114.2c3,20,28.4,26.7,40.8,10.8l73.1-93.2c10.4-13.2,3.5-32.7-12.9-36.5l-90-21
		C476.6,400.5,462.1,413.9,464.5,430z"/>
	<path class="st4" d="M494.9,647.1l-87-39.9c-4-1.9-3.9-7.6,0.2-9.3l34.3-13.6c3.9-1.6,4.3-7,0.6-9.1l-43.1-24.6
		c-3.7-2.1-3.3-7.6,0.7-9.1l22.9-8.6c4-1.5,4.4-7,0.7-9.1l-71.1-40.3c-3.8-2.2-3.2-7.9,0.9-9.2l15.6-5c3.9-1.3,4.8-6.4,1.5-8.9
		l-48.7-36c-3.2-2.4-2.5-7.4,1.3-8.8l11.1-4c4.3-1.6,4.5-7.6,0.3-9.4l-23.8-10c-4.4-1.8-4-8.1,0.5-9.5c4.4-1.3,4.9-7.3,0.8-9.3
		l-26.9-13.4l-1.3-5.2l-9.2,6.4l1.3,5.4l-13.6,19.9c-2.4,3.5,0.3,8.2,4.6,7.9l0.4,0c4.4-0.4,7.1,4.7,4.4,8.2l-14.3,18
		c-2.7,3.3-0.2,8.3,4.1,8.2l10.4-0.2c3.7-0.1,6.2,3.7,4.7,7.1L255,486.1c-1.5,3.5,1.2,7.3,4.9,7.1l14.1-0.9c4.1-0.3,6.7,4.2,4.6,7.7
		l-37.6,62.1c-2,3.4,0.4,7.7,4.4,7.7l21.4-0.2c3.9,0,6.4,4.3,4.4,7.6l-22.9,38.1c-2,3.3,0.4,7.6,4.3,7.6l35.5,0.4
		c3.3,0,5.7,3.2,4.8,6.4l-27.5,95.8c-1.1,3.9,2.5,7.4,6.3,6.2l87-26.9c0.5-0.1,0.9-0.4,1.3-0.6l16.9,68.5h11.5l-17.9-72.1l124-44.3
		C498.8,654.9,499,649,494.9,647.1z"/>
	<path class="st1" d="M795.8,532.4l4.1-2l-0.1-1.5C798.8,530.3,797.5,531.6,795.8,532.4z"/>
	<polygon class="st4" points="795.8,532.4 795.8,532.4 748.8,555.5 	"/>
	<path class="st4" d="M782.6,158.8l-19.6,5.1c-1.1,1.8-1.6,3.9-1.6,6v12.9c0,1.3-0.2,2.6-0.6,3.8l-6.1,18.2
		c-0.9,2.7-0.8,5.6,0.2,8.2l3.7,9.2c1.7,4.2,0.8,9-2.2,12.4l-7.3,8.1c-3,3.4-3.9,8.1-2.2,12.3l12.3,31.1c1.3,3.4,1.1,7.2-0.8,10.4
		l-23,39.6c-0.2,0.4-0.4,0.7-0.7,1.1l-19.4,26.5c-3.2,4.4-3,10.3,0.3,14.5l14.7,18.3c2.9,3.6,3.5,8.5,1.5,12.6l-11.7,24.7
		c-0.8,1.6-1.2,3.4-1.2,5.1v10.8c0,3.9-1.9,7.5-5.1,9.8l-17,11.9c-3.2,2.2-5.1,5.9-5.1,9.8v52.5c0,1.8-0.4,3.6-1.2,5.2l-24.5,51
		c-4.9,10.2,5.8,20.9,16,15.9l124.7-61.4l54.9-27c1.9-1,3.5-2.4,4.7-4.2l-23.8-311.4C840.3,171.8,811.6,151.3,782.6,158.8z"/>
	<g>
		<g>
			<circle class="st2" cx="716.4" cy="607.3" r="125.5"/>
			<path class="st0" d="M571.7,607.3c0-79.8,64.9-144.7,144.7-144.7c79.8,0,144.7,64.9,144.7,144.7S796.1,752,716.4,752
				C636.6,752,571.7,687.1,571.7,607.3z M610.1,607.3c0,58.6,47.7,106.3,106.3,106.3c58.6,0,106.3-47.7,106.3-106.3
				c0-58.6-47.7-106.3-106.3-106.3C657.8,501.1,610.1,548.8,610.1,607.3z"/>
		</g>
		<path class="st0" d="M965.3,862.8l-5.1,6.4c-14.5,18.1-42.3,17.2-55.7-1.8l-99.3-141.8c-3.5-5-2.8-11.9,1.8-16.1
			c0,0,9.7-27.3,14.4-23.7l137.9,127.5C974.7,825.3,977.5,847.6,965.3,862.8z"/>
		<g>
			<path class="st0" d="M636.3,616.9c5.3,0,9.6-4.3,9.6-9.6c0-38.8,31.6-70.4,70.4-70.4c5.3,0,9.6-4.3,9.6-9.6s-4.3-9.6-9.6-9.6
				c-49.4,0-89.6,40.2-89.6,89.6C626.7,612.7,631,616.9,636.3,616.9z"/>
		</g>
		<g>
			<path class="st0" d="M714.6,695.2c49.4,0,89.6-40.2,89.6-89.6c0-5.3-4.3-9.6-9.6-9.6s-9.6,4.3-9.6,9.6
				c0,38.8-31.6,70.4-70.4,70.4c-5.3,0-9.6,4.3-9.6,9.6C705,690.9,709.3,695.2,714.6,695.2z"/>
		</g>
	</g>
</g>
</svg>
