<?xml version="1.0" encoding="utf-8"?>
<!-- Generator: Adobe Illustrator 25.2.0, SVG Export Plug-In . SVG Version: 6.00 Build 0)  -->
<svg version="1.1" xmlns="http://www.w3.org/2000/svg" xmlns:xlink="http://www.w3.org/1999/xlink" x="0px" y="0px"
	 viewBox="0 0 1080 1080" style="enable-background:new 0 0 1080 1080;" xml:space="preserve">
<style type="text/css">
	.st0{fill:#FFF200;}
	.st1{fill:#FFF683;}
	.st2{fill:#FFF9C5;}
	.st3{fill:#FFBC00;}
	.st4{fill:#FFE000;}
	.st5{fill:#FFFFFF;}
	.st6{fill:none;stroke:#FFE000;stroke-width:20;stroke-linecap:round;stroke-miterlimit:10;}
	.st7{fill:none;stroke:#FFBC00;stroke-width:10;stroke-linecap:round;stroke-linejoin:round;stroke-miterlimit:10;}
</style>
<g id="COULEURS">
</g>
<g id="Jauge__x2B_accueil">
</g>
<g id="images">
</g>
<g id="TEXTE">
</g>
<g id="jauge">
</g>
<g id="picto_accueil">
</g>
<g id="FOND">
</g>
<g id="PICTOS">
</g>
<g id="bulles_Source__x2B_dico">
</g>
<g id="règles">
</g>
<g id="LOGO">
	<path class="st2" d="M99.1,821.5c3.6,146.8,74.4,79.5,197.3,182.2c119.2,99.5,254.2-1.7,302.5-26.9c65.5-34.1,134-31.2,196.2-17
		c62.2,14.2,169-5.4,195.6-101.1C1017,764,940,677.4,957.7,599.2s53-254,44.4-323.3c-10.7-86.9-97.9-176.9-181.9-202
		C738.7,49.5,562.7,52.5,534.9,117c-28.8,66.6-223.2-28.3-304.2,1.3c-87.5,32-91.5,118.4-95.1,258.1C134.2,432.3,37.8,488,36,584.3
		C34.2,680.5,95.9,691.9,99.1,821.5z"/>
	<path class="st3" d="M260.4,298.4l378.2-88.9c36.8-8.6,73.7,14,82.6,50.7L818.3,661c7.8,32.1-8.4,65.2-38.4,78.8L372.4,924.6
		c-39,17.7-84.5-4.2-95-45.7L168.4,450C151.3,382.6,192.8,314.3,260.4,298.4z"/>
	<path class="st5" d="M311.8,804.7l218.3-92c6.3-2.6,11-7.9,13-14.4l9-29.4c0.9-2.9,1.2-6,0.9-9.1l-4-38.4c-0.3-2.9,0-5.9,0.8-8.7
		l10.2-35.5c0.2-0.6,0.4-1.2,0.6-1.8l17.5-46.1c2.3-6.1,1.9-12.8-1-18.6l-20-39.1c-2.4-4.7-3.1-10-2-15.2l11.4-54.2
		c0.3-1.6,0.5-3.1,0.5-4.7v-28.1c0-6.5,2.7-12.7,7.6-17l8.6-7.8c4.8-4.4,7.6-10.5,7.6-17c0-7.8,3.9-15,10.4-19.2l8.6-5.6
		c6.5-4.2,10.4-11.5,10.4-19.2v-7.2c0-3.5,0.8-6.9,2.3-10.1l3.8-7.8c2.3-4.6,6-8.3,10.5-10.6c-4.8,0-9.7,0.5-14.5,1.6L286,328.3
		c-60.2,14.1-97.1,74.9-81.8,134.8l94.3,371.2l-0.7-6.1C296.8,818.2,302.4,808.6,311.8,804.7z"/>
	<path class="st4" d="M385.6,885.3L748.1,721c26.8-12.1,41.1-41.6,34.2-70.1l-86.4-356.4c-6.7-27.8-31.5-46.5-58.9-46.8
		c-4.5,2.2-8.3,5.9-10.5,10.6l-3.8,7.8c-1.5,3.1-2.3,6.6-2.3,10.1v7.2c0,7.8-3.9,15-10.4,19.2l-8.6,5.6
		c-6.5,4.2-10.4,11.5-10.4,19.2c0,6.5-2.7,12.7-7.6,17l-8.6,7.8c-4.8,4.4-7.6,10.5-7.6,17v28.1c0,1.6-0.2,3.2-0.5,4.7l-11.4,54.2
		c-1.1,5.1-0.4,10.5,2,15.2l20,39.1c2.9,5.8,3.3,12.5,1,18.6l-17.5,46.1c-0.2,0.6-0.4,1.2-0.6,1.8l-10.2,35.5
		c-0.8,2.8-1.1,5.8-0.8,8.7l4,38.4c0.3,3.1,0,6.2-0.9,9.1l-9,29.4c-2,6.5-6.8,11.8-13,14.4l-218.3,92c-9.3,3.9-15,13.5-13.9,23.6
		l0.7,6.1l2.6,10.3C310.5,881.6,350.9,901.1,385.6,885.3z"/>
	<path class="st4" d="M488,676.8l-76.7-35.2c-3.6-1.6-3.4-6.7,0.2-8.2l30.3-12c3.5-1.4,3.8-6.2,0.6-8l-38-21.7
		c-3.3-1.9-2.9-6.7,0.6-8l20.2-7.6c3.5-1.3,3.9-6.2,0.6-8l-62.8-35.5c-3.4-1.9-2.9-6.9,0.8-8.1l13.7-4.4c3.5-1.1,4.2-5.7,1.3-7.8
		L336,480.5c-2.9-2.1-2.2-6.6,1.1-7.8l9.8-3.5c3.8-1.4,4-6.7,0.2-8.3l-21-8.9c-3.8-1.6-3.6-7.2,0.4-8.4c3.9-1.2,4.3-6.4,0.7-8.2
		l-23.7-11.8l-1.1-4.6l-8.1,5.7l1.2,4.7l-12,17.5c-2.1,3.1,0.3,7.3,4.1,7l0.3,0c3.9-0.3,6.3,4.2,3.9,7.2L279,476.9
		c-2.4,3-0.2,7.3,3.6,7.2l9.2-0.2c3.3-0.1,5.5,3.3,4.2,6.3l-19.7,44.6c-1.3,3.1,1,6.5,4.4,6.2l12.5-0.8c3.6-0.2,5.9,3.7,4.1,6.7
		L264,601.8c-1.8,3,0.4,6.8,3.8,6.8l18.9-0.1c3.5,0,5.6,3.8,3.8,6.7l-20.2,33.6c-1.8,2.9,0.3,6.7,3.8,6.7l31.3,0.4
		c2.9,0,5,2.9,4.2,5.7l-24.3,84.5c-1,3.4,2.2,6.5,5.6,5.5l76.7-23.8c0.4-0.1,0.8-0.3,1.1-0.6l14.9,60.5H394l-15.8-63.6l109.4-39.1
		C491.4,683.7,491.6,678.5,488,676.8z"/>
	<g>
		<g>
			<circle class="st2" cx="622.3" cy="523.2" r="154.4"/>
			<path class="st0" d="M444.2,523.2c0-98.2,79.9-178.1,178.1-178.1c98.2,0,178.1,79.9,178.1,178.1s-79.9,178.1-178.1,178.1
				C524.1,701.3,444.2,621.4,444.2,523.2z M491.5,523.2c0,72.1,58.7,130.8,130.8,130.8c72.1,0,130.8-58.7,130.8-130.8
				s-58.7-130.8-130.8-130.8C550.2,392.4,491.5,451.1,491.5,523.2z"/>
		</g>
		<path class="st0" d="M928.7,837.7l-6.3,7.8c-17.8,22.3-52.1,21.2-68.5-2.2L731.6,668.8c-4.3-6.2-3.4-14.7,2.2-19.8
			c0,0,11.9-33.6,17.7-29.1l169.8,157C940.3,791.5,943.7,818.9,928.7,837.7z"/>
		<g>
			<path class="st0" d="M523.8,535c6.5,0,11.8-5.3,11.8-11.8c0-47.8,38.9-86.7,86.7-86.7c6.5,0,11.8-5.3,11.8-11.8
				s-5.3-11.8-11.8-11.8c-60.8,0-110.3,49.5-110.3,110.3C512,529.7,517.3,535,523.8,535z"/>
		</g>
		<g>
			<path class="st0" d="M620.1,631.3c60.8,0,110.3-49.5,110.3-110.3c0-6.5-5.3-11.8-11.8-11.8s-11.8,5.3-11.8,11.8
				c0,47.8-38.9,86.7-86.7,86.7c-6.5,0-11.8,5.3-11.8,11.8S613.6,631.3,620.1,631.3z"/>
		</g>
	</g>
</g>
</svg>
