<?xml version="1.0" encoding="utf-8"?>
<!-- Generator: Adobe Illustrator 25.2.0, SVG Export Plug-In . SVG Version: 6.00 Build 0)  -->
<svg version="1.1" xmlns="http://www.w3.org/2000/svg" xmlns:xlink="http://www.w3.org/1999/xlink" x="0px" y="0px"
	 viewBox="0 0 1080 1080" style="enable-background:new 0 0 1080 1080;" xml:space="preserve">
<style type="text/css">
	.st0{fill:#FFF200;}
	.st1{fill:#FFF683;}
	.st2{fill:#FFF9C5;}
	.st3{fill:#FFBC00;}
	.st4{fill:#FFE000;}
	.st5{fill:#FFFFFF;}
	.st6{fill:none;stroke:#FFE000;stroke-width:20;stroke-linecap:round;stroke-miterlimit:10;}
	.st7{fill:none;stroke:#FFBC00;stroke-width:10;stroke-linecap:round;stroke-linejoin:round;stroke-miterlimit:10;}
</style>
<g id="COULEURS">
</g>
<g id="Jauge__x2B_accueil">
</g>
<g id="images">
</g>
<g id="TEXTE">
</g>
<g id="jauge">
</g>
<g id="picto_accueil">
</g>
<g id="FOND">
</g>
<g id="PICTOS">
</g>
<g id="bulles_Source__x2B_dico">
</g>
<g id="règles">
</g>
<g id="LOGO">
	<g>
		<path class="st3" d="M199.1,402.4c1.7,0.2,3.4,0.4,5.1,0.6c7.3,0.9,14.5,1.9,21.8,2.8c1.3,0.2,1.7,0.9,1.6,2.2
			c-0.4,4.7-0.7,9.4-1.1,14c-0.5,6.5-1.1,13-1.7,19.4c-0.2,2.6-0.5,5.2-0.7,7.9c-3.4-0.7-6.5-1.6-9.6-1.8c-5-0.3-10-0.7-14.9,0
			c-8.2,1.2-13.1,6.7-15.2,14.5c-1.1,4.1-1.5,8.3-1.9,12.5c-0.3,3.8,0,7.6-0.1,11.4c-0.1,2.1,0.5,2.7,2.7,2.7
			c12.1-0.1,24.3-0.1,36.4,0c5.5,0,4.9-0.9,4.9,5c0,12.1,0,24.3,0.1,36.4c0,2.3-0.7,3-3,2.9c-12.6-0.1-25.2-0.1-37.8-0.1
			c-3.2,0-3.2,0-3.2,3.2c0,44.8,0,89.6,0,134.4c0,3,0,3-2.9,3c-18.4,0-36.9,0-55.3,0c-3.1,0-3.1,0-3.1-3.1c0-44.4,0-88.9,0-133.3
			c0-4.2,0-4.2-4.1-4.2c-9.9,0-19.9,0-29.8,0c-2,0-2.8-0.4-2.7-2.6c0.1-13,0.1-26.1,0-39.1c0-2.2,0.7-2.6,2.7-2.6
			c10.8,0.1,21.6,0,32.3,0.1c2.1,0,2.8-0.6,2.8-2.7c-0.1-5.7-0.2-11.4,0.1-17.1c0.5-10.3,2-20.5,5.7-30.2
			c6.6-17.4,19.4-27.7,37.2-32.4c7.6-2,15.3-3.1,23.1-3.3c1.5,0,3-0.4,4.5-0.6C194.9,402.4,197,402.4,199.1,402.4z"/>
		<path class="st0" d="M995.6,492.9c-0.3,4.1-0.7,8.3-1,12.4c-0.7,11.2-1.3,22.4-2,33.8c-1.7-0.4-3.3-0.8-4.9-1
			c-9.2-1.2-18.5-1.8-27.6,0.4c-15.2,3.7-24.2,13.9-29.3,28.1c-3.5,9.9-4.4,20.2-4.4,30.7c0,24.3,0,48.7,0,73c0,3.2,0,3.2-3.2,3.2
			c-18.4,0-36.9,0-55.3,0c-0.9,0-1.8,0-2.8,0c0-61.8,0-123.2,0-185c0.8,0,1.6-0.1,2.4-0.1c17,0,34,0,51-0.1c2.1,0,2.6,0.6,2.5,2.6
			c-0.1,9.6,0,19.1,0,28.7c0,0.9,0.1,1.9,0.2,2.8c0.2,0,0.4,0.1,0.6,0.1c0.5-0.8,1-1.6,1.4-2.4c3.3-6.9,7.2-13.3,12.3-19.1
			c10.8-12.2,24.5-17.4,40.6-16.9c6.6,0.2,13.1,1.2,19.7,1.8C995.6,488.4,995.6,490.6,995.6,492.9z"/>
		<path class="st3" d="M716.8,566.5c0.7-0.9,1.4-1.7,2-2.6c16.1-24.3,32.2-48.5,48.2-72.9c1.2-1.8,2.4-2.6,4.7-2.6
			c20.4,0.1,40.8,0.1,61.3,0.1c0.8,0,1.5,0,2.7,0c-0.6,0.9-1,1.5-1.5,2.2c-19.6,26.8-39.2,53.6-58.9,80.4c-1.2,1.7-1.3,2.8-0.1,4.5
			c21.4,31.7,42.7,63.5,64.1,95.3c0.5,0.7,0.9,1.4,1.6,2.4c-1.2,0.1-1.9,0.1-2.7,0.1c-22.9,0-45.7,0-68.6,0.1
			c-2.2,0-3.4-0.7-4.4-2.6c-15.2-28.3-30.5-56.6-45.7-84.9c-0.8-1.5-1.7-2.9-2.5-4.4c-0.2,0.1-0.5,0.1-0.7,0.2
			c-0.1,0.9-0.2,1.8-0.2,2.7c0,28.6,0,57.2,0,85.8c0,3.2,0,3.2-3.3,3.2c-18.5,0-37.1,0-55.6,0c-2.2,0-2.8-0.6-2.8-2.8
			c0.1-87,0.1-174,0-261c0-2.2,0.7-2.8,2.8-2.8c18.7,0.1,37.4,0.1,56,0c2.2,0,2.8,0.7,2.8,2.8c-0.1,51.2,0,102.4,0,153.6
			c0,1,0,1.9,0,2.9C716.3,566.3,716.6,566.4,716.8,566.5z"/>
		<path class="st3" d="M622.2,540.2c-4.5-2-8.7-4.3-13.1-5.8c-14-4.6-28.2-5.9-42.3-0.5c-15.1,5.8-23.9,17.2-27.7,32.6
			c-3.5,14.1-2.8,28,5,40.8c8,13.1,20,20.6,34.9,23c16,2.6,31.4-0.2,46-6.9c0.3-0.2,0.7-0.3,1-0.4c0.1,0,0.3,0,0.6,0
			c0.2,4.3,0.4,8.6,0.6,12.8c0.3,10.2,0.5,20.3,1,30.5c0.1,2.4-0.6,3.6-3,4.3c-11.1,3.2-22.3,5.7-33.8,6.3c-7.6,0.4-15.3,0.9-23,0.4
			c-27-1.9-51.3-10.5-70.4-30.6c-12.4-13.1-19.5-28.8-22.6-46.5c-1.7-9.5-2-19.2-1.2-28.8c3.3-40.3,26.9-69.6,65.1-81.7
			c13.9-4.4,28.3-5.9,42.8-5.5c14.5,0.3,28.6,2.8,42,8.8c1.9,0.8,2.7,1.6,2.4,4c-1.4,13.5-2.6,27.1-3.8,40.7
			C622.6,538.6,622.3,539.4,622.2,540.2z"/>
		<path class="st3" d="M259.5,540.1c0-43.4,0-86.7,0-130.1c0-3,0-3,2.9-3c18.6,0,37.2,0,55.8-0.1c2.3,0,2.9,0.6,2.9,2.9
			c-0.1,86.9-0.1,173.8,0,260.7c0,2.3-0.5,3-2.9,3c-18.7-0.1-37.3-0.1-56,0c-2.2,0-2.8-0.6-2.8-2.8
			C259.5,627.2,259.5,583.7,259.5,540.1z"/>
		<path class="st3" d="M435.9,581.1c0,29.8,0,59.6,0,89.4c0,3,0,3-3,3c-18.4,0-36.9,0-55.3,0c-2.9,0-2.9,0-2.9-3
			c0-59.7,0-119.4,0-179c0-2.3,0.6-2.9,2.9-2.9c18.5,0.1,37,0.1,55.6,0c2.4,0,2.9,0.7,2.9,3C435.9,521.3,435.9,551.2,435.9,581.1z"
			/>
		<path class="st3" d="M405,457.7c-9.3,0-18.7,0-28,0c-1.9,0-2.4-0.6-2.4-2.5c0.1-13.9,0.1-27.7,0-41.6c0-2,0.6-2.6,2.6-2.5
			c18.7,0.1,37.5,0.1,56.2,0c2,0,2.6,0.6,2.5,2.6c-0.1,13.9-0.1,27.7,0,41.6c0,1.9-0.6,2.4-2.5,2.4C424,457.7,414.5,457.7,405,457.7
			z"/>
	</g>
</g>
</svg>
