<?xml version="1.0" encoding="utf-8"?>
<!-- Generator: Adobe Illustrator 25.2.0, SVG Export Plug-In . SVG Version: 6.00 Build 0)  -->
<svg version="1.1" id="Calque_1" xmlns="http://www.w3.org/2000/svg" xmlns:xlink="http://www.w3.org/1999/xlink" x="0px" y="0px"
	 viewBox="0 0 1080 1080" style="enable-background:new 0 0 1080 1080;" xml:space="preserve">
<style type="text/css">
	.st0{fill:#FFBC00;}
	.st1{fill:#FFF200;}
	.st2{fill:#FFF683;}
</style>
<path class="st0" d="M477.3,681c-6.5,36.7,49.6,92.4,69.9,115c20.3,22.5,82.3,64.3,97,87.9c14.7,23.7,69.9,81.2,87.9,87.9
	c18,6.8,157.8,16.9,178.1,6.8c20.3-10.1,47.4-38.3,51.9-50.7c4.5-12.4,7.7-73.5,9-98.1c3.5-63.4,4.2-179.3,9.1-238.9
	c4.7-56.5,25.8-192,23.6-225.7c-1-14.7-34-24-56.5-17c-22.5,7-35.2,25.1-35.3,35.2c-0.1,10.1-4,156.7-4,156.7s-4.2-263.5-32.6-285.7
	c-9-7-43.8,9.6-49.5,23.1c-5.6,13.5-14.7,65.6-12.6,87.7c3.5,37.4,25.9,147.8,25.9,147.8s-48.3-251.5-117.4-286.1
	c-14.4-7.2-47.2,12.1-46,44.8c1.1,32.7,54.1,122.9,54.1,144.3s3.4,136.4,3.4,136.4s-149.7-2.8-193.1,18.9c-18.6,9.3-52,41-56.1,61.4
	c-1.8,8.9,7.6,21.1,25.9,25.7s47.4-7.3,54.1-12.4c13.5-10.1,56.4-53,63.1-53c6.8,0,37.2-5.6,48.5,5.6c11.3,11.3,36.1,20.8,37.2,34.1
	c1.1,13.3,6.8,71.9,0,80.9c-6.8,9-48.3,41.4-67.8,41.4c-19.5,0-62.3-51.9-82.1-67.4c-19.8-15.5-29.3-29.3-53-29.3
	C486.3,658.5,479,671.2,477.3,681z"/>
<path class="st1" d="M967.8,836.3c-6-33.6-1-192.9,4-254.8c4.4-54.3,27.2-206.9,25.2-216.2c-4.8-22.7-31-20.9-45-17.9
	c-18.7,4-22.5,40.6-22.5,53S917,520.9,908,540.1c1.1-32.7,9-251.4,0-268.3s-53-24.8-63.1-7.9c-10.1,16.9-18,80-14.7,95.8
	c3.4,15.8,12.4,137.5,9,153.3c-7.9-39.5-16.9-126.6-25.9-147.8c-9-21.3-50.7-123.9-76.7-136.3c-25.9-12.4-40.6,23.7-39.5,40.6
	c1.1,16.9-3.4,29.3,7.9,53c11.3,23.7,41.7,76.7,41.7,99.2c0,22.5,14.7,120.6,4.5,124c-10.1,3.4-25.9-37.2-84.6-44
	c-58.6-6.8-45.1-4.5-60.9,3.4S486.3,610.7,484.1,632.8c-2,20,27.1,24.6,48.5,14.4s81.2-64.3,95.8-64.3c14.7,0,54.1-0.3,62,9.4
	s40.6,30,40.6,49.2c0,19.2,2.3,72.2-7.9,80c-10.1,7.9-47.4,33.8-84.6,33.8c-37.2,0-47.4-40.6-75.5-67.6
	c-28.2-27.1-42.8-22.5-56.4-20.3c-13.5,2.3-28.2,7.9-22.5,16.9c5.6,9,50.7,80,64.3,94.7c13.5,14.7,66.5,44,90.2,67.6
	c23.7,23.7,63.8,84.6,105.2,86.8c41.4,2.3,160.9,7.9,183.4-6.8C949.7,912.1,971.6,857.4,967.8,836.3z"/>
<path class="st2" d="M983.5,404.8c-15,8-49.9-27.1-32.7-46.2c20.1-22.3,34.3-8.8,41-4.2C1000.2,360,1000.4,395.8,983.5,404.8z"/>
<path class="st2" d="M882.1,339.4c-21.3,2.3-43.7-74.4-23.6-84c20.2-9.6,43.6,4.7,49.5,16.3C916.1,287.9,913.6,336,882.1,339.4z"/>
<path class="st2" d="M756.9,312.5c27.8-11.9-2-72.2-20.3-83.6c-7.6-4.8-27-3.6-33,14.4C697.6,261.3,719.7,328.5,756.9,312.5z"/>
<g>
	<circle class="st1" cx="409.9" cy="280.2" r="171.8"/>
	<path class="st0" d="M409.9,478.3c-109.2,0-198.1-88.9-198.1-198.1S300.7,82.1,409.9,82.1C519.2,82.1,608,171,608,280.2
		S519.2,478.3,409.9,478.3z M409.9,134.7c-80.2,0-145.5,65.3-145.5,145.5s65.3,145.5,145.5,145.5c80.2,0,145.5-65.3,145.5-145.5
		S490.2,134.7,409.9,134.7z"/>
</g>
<path class="st0" d="M69.1,630l7,8.7c19.9,24.8,58,23.6,76.2-2.4l136-194.1c4.8-6.9,3.8-16.3-2.4-22c0,0-13.3-37.4-19.7-32.4
	L77.4,562.4C56.1,578.7,52.4,609.2,69.1,630z"/>
<g>
	<path class="st2" d="M519.5,293.4c-7.3,0-13.1-5.9-13.1-13.1c0-53.2-43.3-96.4-96.4-96.4c-7.3,0-13.1-5.9-13.1-13.1
		c0-7.3,5.9-13.1,13.1-13.1c67.7,0,122.7,55,122.7,122.7C532.7,287.5,526.8,293.4,519.5,293.4z"/>
</g>
<g>
	<path class="st2" d="M412.4,400.5c-67.7,0-122.7-55-122.7-122.7c0-7.3,5.9-13.1,13.1-13.1c7.3,0,13.1,5.9,13.1,13.1
		c0,53.2,43.3,96.4,96.4,96.4c7.3,0,13.1,5.9,13.1,13.1C425.5,394.6,419.6,400.5,412.4,400.5z"/>
</g>
</svg>
