<?xml version="1.0" encoding="utf-8"?>
<!-- Generator: Adobe Illustrator 25.2.1, SVG Export Plug-In . SVG Version: 6.00 Build 0)  -->
<svg version="1.1" id="Calque_1" xmlns="http://www.w3.org/2000/svg" xmlns:xlink="http://www.w3.org/1999/xlink" x="0px" y="0px"
	 viewBox="0 0 1080 1080" style="enable-background:new 0 0 1080 1080;" xml:space="preserve">
<style type="text/css">
	.st0{fill:#FFBC00;}
</style>
<g id="COULEURS">
</g>
<g id="Jauge__x2B_accueil">
</g>
<g id="images">
</g>
<g id="TEXTE">
</g>
<g id="jauge">
</g>
<g id="picto_accueil">
</g>
<g id="FOND">
</g>
<g id="PICTOS">
</g>
<g id="bulles_Source__x2B_dico">
</g>
<g id="règles">
</g>
<g>
	<polygon class="st0" points="234.7,441.3 177.6,441.3 117.9,530 117.9,531.2 117.9,533 117.9,534.1 177.6,622.9 234.7,622.9 
		178.4,532.1 	"/>
	<polygon class="st0" points="274.9,441.3 215.1,530 215.1,531.2 215.1,533 215.1,534.1 274.9,622.9 331.9,622.9 275.7,532.1 
		331.9,441.3 	"/>
	<path class="st0" d="M416.1,588.6c-9.8,0-18.1,3.5-25.1,10.3c-6.9,6.9-10.4,15.2-10.4,24.8c0,9.8,3.5,18.1,10.4,25.1
		c6.9,6.9,15.3,10.4,25.1,10.4c6.4,0,12.3-1.6,17.6-4.8c5.3-3.2,9.6-7.5,12.9-12.9c3.3-5.4,5-11.3,5-17.8c0-9.7-3.5-17.9-10.6-24.8
		C433.8,592,425.5,588.6,416.1,588.6z"/>
	<path class="st0" d="M540,588.6c-9.8,0-18.1,3.5-25.1,10.3c-6.9,6.9-10.4,15.2-10.4,24.8c0,9.8,3.5,18.1,10.4,25.1
		c6.9,6.9,15.3,10.4,25.1,10.4c6.4,0,12.3-1.6,17.6-4.8c5.3-3.2,9.6-7.5,12.9-12.9c3.3-5.4,5-11.3,5-17.8c0-9.7-3.5-17.9-10.6-24.8
		C557.7,592,549.4,588.6,540,588.6z"/>
	<path class="st0" d="M663.8,588.6c-9.8,0-18.1,3.5-25.1,10.3c-6.9,6.9-10.4,15.2-10.4,24.8c0,9.8,3.5,18.1,10.4,25.1
		c6.9,6.9,15.3,10.4,25.1,10.4c6.4,0,12.3-1.6,17.6-4.8c5.3-3.2,9.6-7.5,12.9-12.9c3.3-5.4,5-11.3,5-17.8c0-9.7-3.5-17.9-10.6-24.8
		C681.6,592,673.3,588.6,663.8,588.6z"/>
	<polygon class="st0" points="863.6,533 863.6,531.2 863.6,530 803.8,441.3 746.8,441.3 803,532.1 746.8,622.9 803.8,622.9 
		863.6,534.1 	"/>
	<polygon class="st0" points="902.6,441.3 845.5,441.3 901.8,532.1 845.5,622.9 902.6,622.9 962.3,534.1 962.3,533 962.3,531.2 
		962.3,530 	"/>
</g>
</svg>
