<?xml version="1.0" encoding="utf-8"?>
<!-- Generator: Adobe Illustrator 25.2.1, SVG Export Plug-In . SVG Version: 6.00 Build 0)  -->
<svg version="1.1" id="Calque_1" xmlns="http://www.w3.org/2000/svg" xmlns:xlink="http://www.w3.org/1999/xlink" x="0px" y="0px"
	 viewBox="0 0 1080 1080" style="enable-background:new 0 0 1080 1080;" xml:space="preserve">
<style type="text/css">
	.st0{enable-background:new    ;}
	.st1{fill:#FFBC00;}
</style>
<g id="COULEURS">
</g>
<g id="Jauge__x2B_accueil">
</g>
<g id="images">
</g>
<g id="TEXTE">
</g>
<g id="jauge">
</g>
<g id="picto_accueil">
</g>
<g id="FOND">
</g>
<g id="PICTOS">
</g>
<g id="bulles_Source__x2B_dico">
</g>
<g id="règles">
</g>
<g id="LOGO">
	<g class="st0">
		<path class="st1" d="M137.2,539.9c0-46.6,6.2-89.4,18.7-128.6c12.5-39.2,31.5-75.5,57.2-108.9h76.4c-9.8,12.4-18.8,27.5-27.2,45.3
			c-8.4,17.8-15.7,37.4-22,58.7c-6.3,21.3-11.1,43.3-14.6,66c-3.5,22.7-5.3,45.2-5.3,67.5c0,29.7,3,59.6,9.1,89.9
			c6.1,30.2,14.3,58.3,24.8,84.2c10.5,25.9,22.2,47.1,35.2,63.7h-76.4c-25.7-33.4-44.7-69.7-57.2-108.9
			C143.4,629.5,137.2,586.6,137.2,539.9z"/>
		<path class="st1" d="M382.6,699c-12.4,0-23-4.4-31.8-13.2c-8.8-8.8-13.2-19.4-13.2-31.8c0-12.3,4.4-22.8,13.2-31.5
			c8.8-8.8,19.4-13.1,31.8-13.1c12,0,22.5,4.4,31.5,13.1c9,8.8,13.5,19.3,13.5,31.5c0,8.3-2.1,15.8-6.3,22.6
			c-4.2,6.8-9.7,12.3-16.4,16.3C398.2,696.9,390.8,699,382.6,699z"/>
		<path class="st1" d="M540,699c-12.4,0-23-4.4-31.8-13.2c-8.8-8.8-13.2-19.4-13.2-31.8c0-12.3,4.4-22.8,13.2-31.5
			c8.8-8.8,19.4-13.1,31.8-13.1c12,0,22.5,4.4,31.5,13.1c9,8.8,13.5,19.3,13.5,31.5c0,8.3-2.1,15.8-6.3,22.6
			c-4.2,6.8-9.7,12.3-16.4,16.3C555.6,696.9,548.1,699,540,699z"/>
		<path class="st1" d="M697.4,699c-12.4,0-23-4.4-31.8-13.2c-8.8-8.8-13.2-19.4-13.2-31.8c0-12.3,4.4-22.8,13.2-31.5
			c8.8-8.8,19.4-13.1,31.8-13.1c12,0,22.5,4.4,31.5,13.1c9,8.8,13.5,19.3,13.5,31.5c0,8.3-2.1,15.8-6.3,22.6
			c-4.2,6.8-9.7,12.3-16.4,16.3C712.9,696.9,705.5,699,697.4,699z"/>
		<path class="st1" d="M942.8,539.9c0,46.7-6.2,89.6-18.7,128.8c-12.5,39.2-31.5,75.5-57.2,108.9h-76.4
			c9.8-12.4,18.8-27.5,27.2-45.4c8.4-17.9,15.7-37.5,22-58.7c6.3-21.2,11.1-43.2,14.6-66c3.5-22.8,5.3-45.3,5.3-67.6
			c0-29.7-3-59.6-9.1-89.9c-6.1-30.2-14.3-58.3-24.8-84.1c-10.5-25.8-22.2-47-35.2-63.6h76.4c25.7,33.4,44.7,69.7,57.2,108.9
			C936.5,450.5,942.8,493.3,942.8,539.9z"/>
	</g>
</g>
</svg>
