<?xml version="1.0" encoding="utf-8"?>
<!-- Generator: Adobe Illustrator 25.2.1, SVG Export Plug-In . SVG Version: 6.00 Build 0)  -->
<svg version="1.1" id="Calque_1" xmlns="http://www.w3.org/2000/svg" xmlns:xlink="http://www.w3.org/1999/xlink" x="0px" y="0px"
	 viewBox="0 0 1080 1080" style="enable-background:new 0 0 1080 1080;" xml:space="preserve">
<style type="text/css">
	.st0{fill:#FFBC00;}
</style>
<g id="COULEURS">
</g>
<g id="Jauge__x2B_accueil">
</g>
<g id="images">
</g>
<g id="TEXTE">
</g>
<g id="jauge">
</g>
<g id="picto_accueil">
</g>
<g id="FOND">
</g>
<g id="PICTOS">
</g>
<g id="bulles_Source__x2B_dico">
</g>
<g id="règles">
</g>
<g>
	<path class="st0" d="M77,454.3h65.6L212,623.4h3l69.3-169.2h65.6V706h-51.6V542.2h-2.1L231,704.8h-35.2l-65.2-163.3h-2.1V706H77
		V454.3z"/>
	<path class="st0" d="M393.7,706V454.3h169.6v43.9H446.9v60h107.7V602H446.9v60.1h116.9V706H393.7z M460,429.9l26.1-55.9h48.4
		L497,429.9H460z"/>
	<path class="st0" d="M695,706h-89.2V454.3h90c25.3,0,47.1,5,65.4,15.1c18.3,10,32.3,24.4,42.2,43.2c9.9,18.8,14.8,41.2,14.8,67.4
		c0,26.2-4.9,48.8-14.8,67.6c-9.9,18.9-24,33.3-42.4,43.4C742.5,701,720.5,706,695,706z M658.9,660.4h33.8c15.7,0,29-2.8,39.8-8.4
		c10.8-5.6,18.9-14.3,24.3-26.2c5.4-11.8,8.2-27.1,8.2-45.9c0-18.6-2.7-33.8-8.2-45.6c-5.5-11.8-13.5-20.5-24.3-26.1
		c-10.7-5.6-24-8.4-39.7-8.4h-33.9V660.4z"/>
	<path class="st0" d="M916.8,595.9l3.1-47.6L880.1,575l-16.5-29l42.9-20.9l-42.9-20.9l16.5-29l39.8,26.7l-3.1-47.6h33.1l-3.2,47.6
		l39.8-26.7l16.5,29l-42.8,20.9L1003,546l-16.5,29l-39.8-26.7l3.2,47.6H916.8z"/>
</g>
</svg>
