<?xml version="1.0" encoding="utf-8"?>
<!-- Generator: Adobe Illustrator 25.2.0, SVG Export Plug-In . SVG Version: 6.00 Build 0)  -->
<svg version="1.1" id="Calque_1" xmlns="http://www.w3.org/2000/svg" xmlns:xlink="http://www.w3.org/1999/xlink" x="0px" y="0px"
	 viewBox="0 0 1080 1080" style="enable-background:new 0 0 1080 1080;" xml:space="preserve">
<style type="text/css">
	.st0{fill:#FFBC00;stroke:#FFBC00;stroke-width:20;stroke-miterlimit:10;}
	.st1{fill:#FFF9C5;}
	.st2{fill:#FFF200;}
	.st3{fill:url(#SVGID_1_);}
</style>
<circle class="st0" cx="381.3" cy="380.7" r="364.6"/>
<circle class="st0" cx="392.7" cy="703.1" r="364.6"/>
<circle class="st0" cx="699.4" cy="555.2" r="364.6"/>
<g>
	<path class="st1" d="M832,678.5l114.9-31.8c9.1-2.5,13.2-13.5,8.1-21.8l-164.1-267c-8.1-13.2-27.8-5.3-25.2,10.3L814.8,667
		C816.2,675.4,824.1,680.7,832,678.5z"/>
	<path class="st2" d="M760.8,345.6L598.9,638.4c-4.8,8.8,0.9,19.6,10.9,20.5l215.5,18.6c9,0.8,16.3-7.2,14.8-16.1L786.5,350
		C784.3,337.1,767.1,334.2,760.8,345.6z"/>
</g>
<linearGradient id="SVGID_1_" gradientUnits="userSpaceOnUse" x1="264.7515" y1="241.8691" x2="455.3526" y2="432.4701">
	<stop  offset="0.4218" style="stop-color:#FFF200"/>
	<stop  offset="0.9604" style="stop-color:#FFF9C5"/>
</linearGradient>
<circle class="st3" cx="361.4" cy="338.5" r="136.6"/>
<g>
	<path class="st1" d="M408.7,917.4l61.5-72.7c1.9-2.2,2.9-5,3-7.9l3.3-172.7c0.2-10.7-12.1-16.8-20.5-10.2l-64.7,50.8
		c-3.1,2.4-4.9,6.1-4.9,10v194.6C386.4,921.1,401.1,926.5,408.7,917.4z"/>
	<path class="st1" d="M210,691.3l66.5-44.6c2.1-1.4,4.5-2.1,7-2.1l172.4-0.9c12.1-0.1,17.4,15.2,7.9,22.7l-58,45.5
		c-2.2,1.8-5,2.7-7.8,2.7h-181C204.6,714.5,199.6,698.2,210,691.3z"/>
	<path class="st2" d="M196.7,709v200.9c0,6.7,5.4,12.1,12,12.1h191.1c6.6,0,12-5.4,12-12.1V709c0-6.7-5.4-12.1-12-12.1H208.7
		C202.1,696.8,196.7,702.3,196.7,709z"/>
</g>
</svg>
