<?xml version="1.0" encoding="utf-8"?>
<!-- Generator: Adobe Illustrator 25.2.1, SVG Export Plug-In . SVG Version: 6.00 Build 0)  -->
<svg version="1.1" id="Calque_1" xmlns="http://www.w3.org/2000/svg" xmlns:xlink="http://www.w3.org/1999/xlink" x="0px" y="0px"
	 viewBox="0 0 1080 1080" style="enable-background:new 0 0 1080 1080;" xml:space="preserve">
<style type="text/css">
	.st0{fill:#FFF683;}
	.st1{fill:#FFF200;}
	.st2{fill:#FFBC00;}
</style>
<g id="COULEURS">
</g>
<g id="Jauge__x2B_accueil">
</g>
<g id="images">
</g>
<g id="TEXTE">
</g>
<g id="jauge">
</g>
<g id="picto_accueil">
</g>
<g id="FOND">
</g>
<g id="PICTOS">
</g>
<g id="bulles_Source__x2B_dico">
</g>
<g id="règles">
</g>
<path class="st0" d="M67.4,119.1c1.8-2.3,5.3,0,4,2.6c-0.2,0.4-0.5,0.9-0.7,1.3c-4.1,8-7.6,16.2-10.7,24.6
	c-6.2,16.7-10.7,33.9-13.7,51.3c-3,17.3-4.5,34.9-4.4,52.1c0.1,17.3,1.9,34.3,6,50.3c2,8,4.6,15.6,7.8,22.7c3.2,7.1,7,13.6,11.5,19
	c4.4,5.5,9.5,9.8,14.8,13c5.4,3.2,11.2,5.3,17.4,6.3c12.4,2,26.7,0,41.1-4.9c3.6-1.2,7.2-2.6,10.8-4c3.6-1.5,7.2-3.1,10.8-4.9
	c7.2-3.5,14.3-7.4,21.4-11.7c14.1-8.6,27.9-18.4,41.3-29c13.4-10.6,26.5-21.8,39.2-33.6c6.4-5.9,12.7-11.8,19-17.9l2.3-2.3l2.4-2.4
	l5.1-4.9c3.4-3.2,6.9-6.4,10.4-9.6c13.9-12.7,28.2-25,42.9-36.9c14.7-11.9,29.8-23.3,45.2-34.3c15.5-11,31.3-21.5,47.5-31.5
	c16.2-10,32.8-19.5,49.9-28.4c17-8.9,34.5-17.2,52.4-24.7c17.9-7.6,36.4-14.3,55.5-20.1c19.1-5.8,38.9-10.6,59.8-13.6
	c10.4-1.5,21.2-2.5,32.3-2.9c11.1-0.4,22.6-0.1,34.7,1.4c12.1,1.5,24.7,4.2,37.8,9.1c6.5,2.5,13.2,5.6,19.8,9.4
	c6.6,3.8,13.1,8.5,19.2,14c6.1,5.5,11.7,11.8,16.6,18.7c4.8,6.9,8.9,14.3,12,21.8c3.1,7.5,5.3,15.1,6.8,22.5
	c0.8,3.7,1.3,7.3,1.8,10.9c0.4,3.6,0.7,7.1,0.9,10.6c0.6,13.8-0.6,26.6-2.7,38.5c-2.1,11.9-5,22.9-8.4,33.5c-6.8,21-15.4,40-24.7,58
	c-9.3,18-19.4,35-30,51.4c-10.6,16.4-21.6,32.2-33,47.5c-11.4,15.3-23.1,30.3-35,44.9c-23.9,29.2-48.8,57.2-74.2,84.3
	c-6.4,6.8-12.8,13.5-19.2,20.2l-9.7,10l-9.5,9.8c-12.2,12.6-24.1,25.3-35.8,38.2c-23.5,25.8-46.1,52.2-67.5,79.4
	c-21.4,27.1-41.7,55-60.4,83.4c-18.6,28.5-35.6,57.6-49.7,87c-7,14.7-13.2,29.4-18.2,43.8c-2.5,7.2-4.7,14.3-6.4,21.2
	c-1.8,6.9-3.1,13.5-3.9,19.6c-0.8,6-1.1,11.5-0.8,15.5c0.1,2,0.3,3.6,0.5,4.6c0.2,1,0.3,1.4,0.2,1.2c-0.1-0.2-0.7-1.1-1.6-2.1
	c-1-1-2.4-2.1-3.5-2.7c-1.2-0.7-2.1-0.9-2.2-0.8c-0.1,0,0.4,0.3,1.6,0.4c2.3,0.3,7,0.2,12.4-0.8c5.4-0.9,11.7-2.5,18.3-4.7
	c6.6-2.1,13.4-4.8,20.4-7.8c7-3,14.1-6.4,21.2-10.1c14.2-7.3,28.6-15.7,42.8-24.6c14.2-9,28.4-18.5,42.4-28.5
	c28-20,55.7-41.5,82.8-64c13.6-11.2,27.1-22.6,40.4-34.2c13.4-11.6,26.7-23.4,39.9-35.3l19.7-18l4.9-4.5l5-4.7l10.1-9.4
	c13.6-12.5,27.3-24.9,41.2-37.1c14-12.2,28.1-24.2,42.6-36c14.5-11.7,29.3-23.3,44.5-34.4c15.2-11.2,31-21.9,47.5-32.1
	c16.6-10.2,33.9-19.7,53.3-27.7c9.8-4,20.1-7.5,31.6-10c5.8-1.2,11.9-2.2,18.5-2.5c6.6-0.4,13.6-0.2,21.1,1.2
	c7.5,1.3,15.4,4,22.8,8.2c7.4,4.2,13.9,10,18.8,16.2c5,6.2,8.5,12.8,11,19.1c2.5,6.3,4.1,12.4,5.3,18.3c2.2,11.7,2.6,22.6,2.3,33
	c-0.3,10.4-1.4,20.4-2.9,30.1c-3,19.5-7.5,38-12.8,56.1c-5.3,18.1-11.4,35.7-18,53.1c-6.6,17.3-13.9,34.3-21.5,51.1
	c-15.3,33.5-32.4,66.1-51.4,97.5c-9.5,15.7-19.6,31-30.5,45.8c-5.5,7.4-11.1,14.6-17.1,21.6c-0.1,0.1-0.1,0.1-0.2,0.2
	c-1.9,2.2-5.3-0.3-3.8-2.8c0-0.1,0.1-0.2,0.1-0.2c4.7-7.7,9-15.6,13.1-23.6c8.2-16,15.6-32.4,22.6-49
	c13.9-33.1,26.1-66.9,36.6-101.1c10.5-34.1,19.4-68.6,25.4-103c1.5-8.6,2.7-17.2,3.7-25.7c1-8.5,1.7-16.9,2.1-25.2
	c0.3-8.3,0.3-16.4-0.3-24.1c-0.6-7.7-1.7-14.9-3.6-20.9c-0.9-2.9-2-5.5-3.1-7.5c-1.1-2-2.3-3.3-3.1-4c-0.9-0.7-1.4-0.8-2-0.9
	c-0.6-0.1-1.4-0.2-2.9-0.2c-2.9-0.1-8.2,0.7-14.2,2.7c-6,1.9-12.7,4.8-19.4,8.4c-13.5,7-27.3,16.3-40.9,26.2
	c-13.6,10-26.9,20.9-40,32.2c-13.1,11.3-26.1,23.1-38.8,35.2c-12.8,12.1-25.4,24.4-37.9,37c-12.5,12.6-24.8,25.3-37.1,38.2l-9.2,9.7
	l-4.6,4.9l-4.7,5.1c-6.3,6.8-12.6,13.5-19,20.1c-12.7,13.3-25.6,26.6-38.8,39.7c-13.1,13-26.5,26-40.1,38.7
	c-13.6,12.7-27.5,25.2-41.6,37.6c-14.1,12.3-28.6,24.4-43.6,36.2c-14.9,11.8-30.2,23.3-46.2,34.4c-15.9,11.1-32.5,21.7-50.1,31.7
	c-8.8,5-17.9,9.8-27.4,14.3c-9.5,4.5-19.3,8.8-29.9,12.7c-10.5,3.8-21.7,7.3-34,9.9c-12.3,2.5-25.9,4.3-41.6,3.5
	c-7.8-0.4-16.3-1.6-25.2-3.9c-8.8-2.4-18.2-6.1-27.1-11.4c-8.9-5.3-17.4-12.3-24.3-20.1c-6.9-7.8-12.3-16.4-16.3-24.8
	c-4-8.4-6.7-16.6-8.6-24.4c-1.9-7.8-2.9-15.2-3.5-22.2c-1.2-14.1-0.5-26.8,0.8-38.7c1.4-11.9,3.5-23.1,6-33.8
	c2.6-10.7,5.6-21,8.9-30.9c6.6-19.9,14.4-38.6,22.8-56.7c16.9-36.1,36.5-69.7,57.5-101.8c21.1-32.1,43.8-62.7,67.5-92.1
	c23.8-29.4,48.7-57.7,74.6-84.9c12.9-13.6,26.1-27,39.5-40.1l9.6-9.5l9.4-9.3c6.2-6.2,12.4-12.5,18.6-18.8
	c24.6-25.2,48.5-50.9,71.1-77.1c22.6-26.3,44.1-53.2,63.1-80.7c9.5-13.8,18.3-27.7,26.2-41.6c7.8-13.9,14.5-27.9,19.4-41.1
	c2.4-6.6,4.3-13.1,5.6-19c1.3-5.9,1.9-11.3,2-15.6c0-4.3-0.5-7.3-1-9.1c-0.3-0.9-0.5-1.5-0.8-2.1c-0.3-0.6-0.6-1.1-1.2-1.8
	c-1.1-1.3-3.3-3-7.1-4.7c-3.7-1.7-8.8-3.2-14.7-4.2c-5.9-1-12.5-1.6-19.5-1.7c-7-0.1-14.3,0.2-21.8,1c-15.1,1.4-30.8,4.3-46.5,8.2
	c-15.8,3.9-31.6,8.9-47.4,14.5c-31.6,11.3-62.7,25.6-92.9,41.8c-15.1,8.1-30,16.8-44.7,25.9c-14.7,9.1-29.1,18.6-43.3,28.6
	c-14.2,10-28.1,20.4-41.7,31.2c-3.4,2.7-6.8,5.4-10.2,8.2l-10.4,8.5c-7.3,5.9-14.7,11.8-22.2,17.5c-7.5,5.7-15.2,11.3-22.9,16.8
	c-7.8,5.5-15.7,10.8-23.8,16c-16.2,10.3-33,20-50.9,28.4c-8.9,4.2-18.2,8.1-27.7,11.5c-9.5,3.4-19.4,6.4-29.7,8.5
	c-5.2,1.1-10.4,2-15.8,2.6c-5.4,0.6-10.9,1-16.4,1c-11.1,0.1-22.8-1.2-34.1-4.7c-5.7-1.7-11.3-3.9-16.6-6.7c-5.3-2.8-10.4-6-15-9.7
	c-9.3-7.4-16.9-16.4-22.7-25.8c-5.8-9.5-10-19.4-13-29.3c-3-9.9-4.9-19.9-6-29.8c-1.1-9.9-1.5-19.6-1.2-29.3
	c0.2-9.7,1-19.2,2.3-28.6c2.6-18.9,7-37.2,13-54.9c6-17.7,13.6-34.8,22.9-50.8c4.6-8,9.7-15.7,15.2-23.1
	C66.8,119.9,67.1,119.5,67.4,119.1z"/>
<g>
	<circle class="st1" cx="554.3" cy="491.9" r="228.1"/>
	<path class="st2" d="M554.3,755c-145,0-263.1-118.1-263.1-263.1s118.1-263.1,263.1-263.1c145.1,0,263.1,118.1,263.1,263.1
		S699.5,755,554.3,755z M554.3,298.7c-106.5,0-193.2,86.7-193.2,193.2s86.7,193.2,193.2,193.2s193.2-86.7,193.2-193.2
		S660.9,298.7,554.3,298.7z"/>
</g>
<path class="st2" d="M101.8,956.5l9.3,11.6c26.4,32.9,77,31.3,101.2-3.2l180.6-257.7c6.4-9.2,5-21.6-3.2-29.2c0,0-17.7-49.7-26.2-43
	L112.8,866.7C84.5,888.3,79.6,928.8,101.8,956.5z"/>
<g>
	<path class="st0" d="M699.9,509.5c-9.7,0-17.4-7.8-17.4-17.4c0-70.6-57.5-128-128-128c-9.7,0-17.4-7.8-17.4-17.4
		c0-9.7,7.8-17.4,17.4-17.4c89.9,0,162.9,73,162.9,162.9C717.4,501.6,709.5,509.5,699.9,509.5z"/>
</g>
<g>
	<path class="st0" d="M557.6,651.7c-89.9,0-162.9-73-162.9-162.9c0-9.7,7.8-17.4,17.4-17.4c9.7,0,17.4,7.8,17.4,17.4
		c0,70.6,57.5,128,128,128c9.7,0,17.4,7.8,17.4,17.4C575,643.9,567.2,651.7,557.6,651.7z"/>
</g>
</svg>
