<?xml version="1.0" encoding="utf-8"?>
<!-- Generator: Adobe Illustrator 25.2.0, SVG Export Plug-In . SVG Version: 6.00 Build 0)  -->
<svg version="1.1" xmlns="http://www.w3.org/2000/svg" xmlns:xlink="http://www.w3.org/1999/xlink" x="0px" y="0px"
	 viewBox="0 0 1080 1080" style="enable-background:new 0 0 1080 1080;" xml:space="preserve">
<style type="text/css">
	.st0{fill:#FFF200;}
	.st1{fill:#FFF683;}
	.st2{fill:#FFF9C5;}
	.st3{fill:#FFBC00;}
	.st4{fill:#FFE000;}
	.st5{fill:#FFFFFF;}
	.st6{fill:none;stroke:#FFE000;stroke-width:20;stroke-linecap:round;stroke-miterlimit:10;}
	.st7{fill:none;stroke:#FFBC00;stroke-width:10;stroke-linecap:round;stroke-linejoin:round;stroke-miterlimit:10;}
	.st8{font-family:'suisse-Black';}
	.st9{font-size:210px;}
</style>
<g id="COULEURS">
</g>
<g id="Jauge__x2B_accueil">
</g>
<g id="images">
</g>
<g id="TEXTE">
</g>
<g id="jauge">
</g>
<g id="picto_accueil">
</g>
<g id="FOND">
</g>
<g id="PICTOS">
</g>
<g id="bulles_Source__x2B_dico">
</g>
<g id="règles">
</g>
<g id="LOGO">
	<path class="st3" d="M589.3,393.2H253.9c-17.2,0-31.2-14-31.2-31.2V205.7c0-17.2,14-31.2,31.2-31.2h335.4c17.2,0,31.2,14,31.2,31.2
		V362C620.6,379.2,606.6,393.2,589.3,393.2z"/>
	<path class="st3" d="M868.9,641.6H253.9c-17.2,0-31.2-14-31.2-31.2V454.1c0-17.2,14-31.2,31.2-31.2h614.9c17.2,0,31.2,14,31.2,31.2
		v156.2C900.1,627.6,886.1,641.6,868.9,641.6z"/>
	<path class="st3" d="M649.4,890H253.9c-17.2,0-31.2-14-31.2-31.2V702.6c0-17.2,14-31.2,31.2-31.2h395.4c17.2,0,31.2,14,31.2,31.2
		v156.2C680.6,876,666.6,890,649.4,890z"/>
	<text transform="matrix(1 0 0 1 263.2805 361.2825)"><tspan x="0" y="0" class="st5 st8 st9">ET</tspan><tspan x="0" y="252" class="st5 st8 st9">SAUF</tspan><tspan x="0" y="504" class="st5 st8 st9">OU</tspan></text>
</g>
</svg>
