<?xml version="1.0" encoding="utf-8"?>
<!-- Generator: Adobe Illustrator 25.2.1, SVG Export Plug-In . SVG Version: 6.00 Build 0)  -->
<svg version="1.1" id="Calque_1" xmlns="http://www.w3.org/2000/svg" xmlns:xlink="http://www.w3.org/1999/xlink" x="0px" y="0px"
	 viewBox="0 0 1080 1080" style="enable-background:new 0 0 1080 1080;" xml:space="preserve">
<style type="text/css">
	.st0{fill:#FFBC00;}
	.st1{fill:#FFFFFF;}
</style>
<g id="COULEURS">
</g>
<g id="Jauge__x2B_accueil">
</g>
<g id="images">
</g>
<g id="TEXTE">
</g>
<g id="jauge">
</g>
<g id="picto_accueil">
</g>
<g id="FOND">
</g>
<g id="PICTOS">
</g>
<g id="bulles_Source__x2B_dico">
</g>
<g id="règles">
</g>
<path class="st0" d="M704.1,367.4H287.7c-21.4,0-38.7-17.4-38.7-38.7v-194c0-21.4,17.4-38.7,38.7-38.7h416.4
	c21.4,0,38.7,17.4,38.7,38.7v194C742.9,350,725.5,367.4,704.1,367.4z"/>
<path class="st0" d="M891,675.7H127.5c-21.4,0-38.7-17.4-38.7-38.7V443c0-21.4,17.4-38.7,38.7-38.7h763.3
	c21.4,0,38.7,17.4,38.7,38.7v193.9C929.7,658.4,912.3,675.7,891,675.7z"/>
<path class="st0" d="M957.3,984.1H526.5c-18.7,0-34-17.4-34-38.7V751.5c0-21.4,15.3-38.7,34-38.7h430.7c18.7,0,34,17.4,34,38.7
	v193.9C991.3,966.7,976,984.1,957.3,984.1z"/>
<polygon class="st1" points="468.2,294.7 380.1,294.7 380.1,249.4 461.2,249.4 461.2,216.4 380.1,216.4 380.1,171.2 467.8,171.2 
	467.8,138.2 340,138.2 340,327.8 468.2,327.8 "/>
<polygon class="st1" points="550.5,327.8 590.2,327.8 590.2,171.2 648.2,171.2 648.2,138.2 492.5,138.2 492.5,171.2 550.5,171.2 "/>
<path class="st1" d="M243.2,606.7c-5,2-10.9,3-17.7,3c-6.9,0-13.1-1.1-18.6-3.2c-5.5-2.1-9.8-5.3-13.1-9.5
	c-3.2-4.2-5.1-9.5-5.5-15.9h-38.8c0.3,13.6,3.6,25.1,10,34.3c6.3,9.2,15.1,16.2,26.5,20.9c11.3,4.7,24.6,7,39.9,7
	c15.4,0,28.6-2.3,39.6-7c11-4.7,19.3-11.2,25.2-19.7s8.8-18.5,8.8-30.1c-0.1-7.9-1.5-14.9-4.3-21c-2.8-6.1-6.7-11.4-11.8-15.9
	c-5.1-4.5-11-8.3-18-11.4c-6.9-3.1-14.5-5.6-22.8-7.4l-17-4.1c-4.1-0.9-8-2.1-11.7-3.4c-3.6-1.3-6.9-2.9-9.6-4.7
	c-2.8-1.8-5-4-6.5-6.5c-1.6-2.5-2.3-5.5-2.2-8.9c0-4.1,1.2-7.7,3.6-10.9c2.4-3.2,5.8-5.7,10.3-7.5c4.5-1.8,10-2.7,16.6-2.7
	c9.6,0,17.2,2.1,22.9,6.2c5.6,4.1,8.8,9.9,9.5,17.4h38.4c-0.2-11.3-3.2-21.2-9.1-29.8c-5.9-8.6-14.1-15.3-24.6-20.1
	c-10.5-4.8-22.8-7.2-36.9-7.2c-13.8,0-26.2,2.4-37,7.2c-10.9,4.8-19.4,11.5-25.6,20.1c-6.2,8.6-9.3,18.6-9.2,30.1
	c-0.1,14,4.5,25.1,13.8,33.4c9.3,8.3,21.9,14.3,37.9,18.2l20.6,5.2c6.9,1.7,12.8,3.5,17.5,5.6c4.8,2,8.4,4.5,10.9,7.4
	c2.5,2.9,3.7,6.5,3.7,10.7c0,4.6-1.4,8.6-4.2,12.1C252.1,602,248.2,604.7,243.2,606.7z"/>
<path class="st1" d="M437.1,597.4l14,43.2h43L428.8,451h-51.7l-65.4,189.6h43l14.1-43.2H437.1z M403.7,494.3l23.3,71.7h-48.1
	l23.3-71.7H403.7z"/>
<path class="st1" d="M634,570.7c0,7.2-1.6,13.6-4.8,19.3c-3.2,5.6-7.7,10-13.4,13.2c-5.8,3.2-12.5,4.8-20.3,4.8
	c-7.7,0-14.5-1.6-20.3-4.8c-5.8-3.2-10.3-7.6-13.5-13.2c-3.2-5.6-4.8-12-4.8-19.3V451h-40.1v123.1c0,13.8,3.3,25.9,9.8,36.3
	c6.5,10.4,15.7,18.4,27.5,24.2c11.8,5.8,25.5,8.7,41.3,8.7c15.7,0,29.4-2.9,41.2-8.7c11.8-5.8,21-13.8,27.5-24.2
	c6.6-10.4,9.9-22.5,9.9-36.3V451H634V570.7z"/>
<polygon class="st1" points="832.6,484 832.6,451 707,451 707,640.6 747.1,640.6 747.1,562.3 824.2,562.3 824.2,529.2 747.1,529.2 
	747.1,484 "/>
<path class="st1" d="M683.8,772.7c-13.4-7.6-28.5-11.4-45.2-11.4c-16.8,0-32,3.8-45.4,11.4c-13.4,7.6-24,18.7-31.8,33.2
	c-7.8,14.5-11.7,32.1-11.7,52.8c0,20.6,3.9,38.2,11.7,52.7c7.8,14.5,18.4,25.6,31.8,33.2c13.4,7.7,28.5,11.5,45.4,11.5
	c16.7,0,31.8-3.8,45.2-11.4c13.4-7.6,24-18.7,31.8-33.2c7.8-14.5,11.7-32.1,11.7-52.8s-3.9-38.3-11.7-52.8
	C707.9,791.4,697.3,780.3,683.8,772.7z M680.8,892.5c-4,9.2-9.6,16.2-16.8,20.9c-7.2,4.8-15.7,7.1-25.4,7.1
	c-9.7,0-18.1-2.4-25.4-7.1c-7.2-4.8-12.8-11.7-16.8-20.9c-4-9.2-6-20.5-6-33.9s2-24.7,6-33.9c4-9.2,9.6-16.2,16.8-20.9
	c7.2-4.8,15.7-7.1,25.4-7.1c9.7,0,18.1,2.4,25.4,7.1c7.2,4.8,12.8,11.7,16.8,20.9c4,9.2,6,20.5,6,33.9S684.8,883.3,680.8,892.5z"/>
<path class="st1" d="M874.1,883.5c0,7.2-1.6,13.6-4.8,19.3c-3.2,5.6-7.7,10-13.4,13.2c-5.8,3.2-12.5,4.8-20.3,4.8
	c-7.7,0-14.5-1.6-20.3-4.8c-5.8-3.2-10.3-7.6-13.5-13.2c-3.2-5.6-4.8-12-4.8-19.3V763.8H757v123.1c0,13.8,3.3,25.9,9.8,36.3
	c6.5,10.4,15.7,18.4,27.5,24.2c11.8,5.8,25.5,8.7,41.3,8.7c15.7,0,29.4-2.9,41.2-8.7c11.8-5.8,21-13.8,27.5-24.2
	c6.6-10.4,9.9-22.5,9.9-36.3V763.8h-40.1V883.5z"/>
</svg>
