<?xml version="1.0" encoding="utf-8"?>
<!-- Generator: Adobe Illustrator 25.2.0, SVG Export Plug-In . SVG Version: 6.00 Build 0)  -->
<svg version="1.1" xmlns="http://www.w3.org/2000/svg" xmlns:xlink="http://www.w3.org/1999/xlink" x="0px" y="0px"
	 viewBox="0 0 1080 1080" style="enable-background:new 0 0 1080 1080;" xml:space="preserve">
<style type="text/css">
	.st0{fill:#FFF200;}
	.st1{fill:#FFF683;}
	.st2{fill:#FFF9C5;}
	.st3{fill:#FFBC00;}
	.st4{fill:#FFE000;}
	.st5{fill:#FFFFFF;}
	.st6{fill:none;stroke:#FFE000;stroke-width:20;stroke-linecap:round;stroke-miterlimit:10;}
	.st7{fill:none;stroke:#FFBC00;stroke-width:10;stroke-linecap:round;stroke-linejoin:round;stroke-miterlimit:10;}
</style>
<g id="COULEURS">
</g>
<g id="Jauge__x2B_accueil">
</g>
<g id="images">
</g>
<g id="TEXTE">
</g>
<g id="jauge">
</g>
<g id="picto_accueil">
</g>
<g id="FOND">
</g>
<g id="PICTOS">
</g>
<g id="bulles_Source__x2B_dico">
</g>
<g id="règles">
</g>
<g id="LOGO">
	<path class="st3" d="M264.6,427.6c2.1-63.2,18.5-106.7,35.6-126.5s64.6-46.1,113.3-44.8c48.8,1.3,76.4-31.6,106.7-34.3
		c30.3-2.6,138.4-14.5,175.3,0s46.1,40.9,46.1,59.3c31.6,9.2,40.9,29,43.5,47.4s-7.9,44.8-14.5,48.8c19.8,10.5,36.9,30.3,36.9,59.3
		s-22.4,56.7-26.4,58c25,15.8,35.6,43.5,34.3,72.5c-1.3,29-40.9,47.4-51.4,50.1c-10.5,2.6-179.9,0-207.3,0
		c25.4,38.2,32,113.3,32,138.4s-4,84.3-18.5,94.9c-14.5,10.5-40.9,25-61.9,25c-17.1-15.8-25-60.6-30.3-80.4
		c-5.3-19.8-30.3-103.4-51.4-131.8c-21.1-28.3-89.6-72.5-108.1-90.9S261.9,508,264.6,427.6z"/>
	<path class="st0" d="M282,519.7c-0.3-28.8-6.3-92,0-115.8c6.3-23.7,30-83,61.7-98.8c31.6-15.8,57.9-9.2,81.7-31.6
		c23.9-22.4,47.4-21.1,69.8-30.3s112-27.7,146.3-22.4c34.3,5.3,25-2.6,34.3,5.3c9.2,7.9,44.8,34.3,42.2,52.7
		c17.1,5.3,40.9,25,46.1,46.1s-5.3,50.1-13.2,52.7c14.5,6.6,35.6,32.9,35.6,58c0,25-7.9,64.6-27.7,65.9
		c17.1,9.2,23.7,39.1,21.1,55.8s-11.9,49.6-44.8,52.3c-32.9,2.6-178.3,7.9-178.3,7.9s-22.1,4-45.8,0c30.3,11.9,75,151.9,73.8,192.6
		c-1.3,40.7-28,49.4-28,49.4l-48.4,16.3l-15.5-26.7c0,0-36.4-156.4-66.2-185.5c-29.8-29.1-77.8-67.2-108.1-90.9S282,519.7,282,519.7
		z"/>
	<path class="st1" d="M477.2,789c0,0,32.5,10.3,44.3,34c11.9,23.7,11.2,44.5,11.2,44.5l-24.4,8.2c0,0-8.7-12.5-15.5-26.7
		C486,834.9,477.2,789,477.2,789z"/>
</g>
</svg>
