<svg xmlns="http://www.w3.org/2000/svg" viewBox="0 0 1080 1080"><defs><style>.cls-1{fill:#ffbc00;}</style></defs><g id="LOGO"><path class="cls-1" d="M262.78,158H766.94c4.22.73,8.44,1.5,12.68,2.19C837.06,169.5,884.87,215.9,895.83,273c1.16,6.07,2,12.2,2.95,18.29V792.49c-1.46,4.26-1.34,8.77-2.09,13.14C884.85,874.34,825.25,925,755.47,925.05q-240.29.18-480.56,0a139.68,139.68,0,0,1-48.72-8.72c-57-21-94.41-74.25-94.46-135q-.21-239.9,0-479.8c0-13.05,1.44-26,5.33-38.42,17.31-55.33,54.19-89.65,110.88-102.41C252.81,159.61,257.82,158.88,262.78,158ZM754.83,829.2c14.74,0,29.47-.09,44.2.07,3,0,4-.6,3.92-3.82a597.14,597.14,0,0,0-6.25-80.93,557.22,557.22,0,0,0-33.16-124.75C719,507.74,646.88,417.7,546.74,350.62c-95.08-63.69-200.28-95.4-314.69-96.79-3.43,0-4.61.53-4.58,4.33q.27,43.82,0,87.64c0,3.34.84,4.06,4.1,4.08a475.14,475.14,0,0,1,249.93,72.63q118.14,74.43,178.83,200.25c30.8,64,46,131.8,46.57,202.84,0,2.95.82,3.7,3.73,3.67C725.37,829.12,740.1,829.2,754.83,829.2Zm-191.65,0c14.86,0,29.71-.09,44.56.07,2.9,0,3.45-.83,3.42-3.56a381.22,381.22,0,0,0-9.39-80.87c-19.42-84.13-62-154.36-128.16-209.72-69.89-58.48-150.92-87.9-242.06-89.52-3.34-.06-4.08.82-4.06,4.09q.19,44,0,88c0,3,.59,3.93,3.81,4a280.62,280.62,0,0,1,118.28,27c100.52,47.53,163.88,146,165.56,257.12,0,2.72.6,3.57,3.47,3.54C533.47,829.11,548.33,829.2,563.18,829.2Zm-239.76,0a95.88,95.88,0,1,0-95.85-96A96,96,0,0,0,323.42,829.2Z"/></g></svg>