<svg xmlns="http://www.w3.org/2000/svg" viewBox="0 0 1080 1080"><defs><style>.cls-1{fill:#fff200;}.cls-2{fill:#ffe000;}</style></defs><g id="LOGO"><path class="cls-1" d="M109.85,980.79c15.25,12.76,32.93,19.18,52.82,19.54.73,0,.89-.18.89-.9q0-9.6,0-19.2c0-.66-.13-.86-.84-.86a61.29,61.29,0,0,1-25.81-5.89,62.7,62.7,0,0,1-36.13-56.11c0-.59-.13-.78-.76-.77-3.24,0-6.48,0-9.72,0s-6.48,0-9.73,0c-.63,0-.75.18-.74.77a83.63,83.63,0,0,0,30,63.42Z"/><path class="cls-1" d="M163.56,1022.11c0-.73-.18-.89-.89-.89a103.73,103.73,0,0,1-54.55-15.85,104,104,0,0,1-39-43.71A102.87,102.87,0,0,1,58.93,917.4c0-.65-.18-.81-.81-.8-3.22,0-6.43,0-9.65,0s-6.43,0-9.64,0c-.66,0-.87.13-.86.83a130.39,130.39,0,0,0,1.37,17.66,121.61,121.61,0,0,0,7.23,27.23,125.79,125.79,0,0,0,116,79.86c.75,0,1-.12,1-1Q163.5,1031.67,163.56,1022.11Z"/><path class="cls-1" d="M142.57,958.46a20.93,20.93,0,1,0-20.88-21A20.92,20.92,0,0,0,142.57,958.46Z"/><path class="cls-1" d="M461,980.79c15.25,12.76,32.93,19.18,52.82,19.54.73,0,.89-.18.89-.9q0-9.6,0-19.2c0-.66-.13-.86-.83-.86a61.3,61.3,0,0,1-25.82-5.89,62.72,62.72,0,0,1-36.13-56.11c0-.59-.13-.78-.75-.77-3.25,0-6.49,0-9.73,0s-6.48,0-9.72,0c-.64,0-.76.18-.75.77a83.63,83.63,0,0,0,30,63.42Z"/><path class="cls-1" d="M514.71,1022.11c0-.73-.18-.89-.89-.89a103.79,103.79,0,0,1-54.55-15.85,104,104,0,0,1-39-43.71,102.88,102.88,0,0,1-10.17-44.26c0-.65-.17-.81-.81-.8-3.21,0-6.43,0-9.64,0s-6.43,0-9.65,0c-.66,0-.86.13-.86.83a130.39,130.39,0,0,0,1.37,17.66,121.63,121.63,0,0,0,7.24,27.23,125.77,125.77,0,0,0,116,79.86c.75,0,1-.12,1-1C514.67,1034.86,514.68,1028.48,514.71,1022.11Z"/><path class="cls-1" d="M493.72,958.46a20.93,20.93,0,1,0-20.88-21A20.9,20.9,0,0,0,493.72,958.46Z"/><path class="cls-1" d="M804.48,970.31c12.76-15.25,19.18-32.94,19.53-52.83,0-.73-.18-.89-.89-.88q-9.6,0-19.2,0c-.66,0-.86.13-.87.83a61.1,61.1,0,0,1-5.88,25.81,62.71,62.71,0,0,1-56.12,36.13c-.59,0-.77.13-.77.76,0,3.24,0,6.49,0,9.73s0,6.48,0,9.72c0,.63.18.75.78.75a83.63,83.63,0,0,0,63.42-30Z"/><path class="cls-1" d="M845.79,916.6c-.73,0-.89.18-.89.89A103.73,103.73,0,0,1,829.05,972a104,104,0,0,1-43.7,39,102.74,102.74,0,0,1-44.27,10.16c-.64,0-.8.18-.8.82,0,3.21,0,6.43,0,9.64s0,6.43,0,9.65c0,.66.13.86.84.85a130.63,130.63,0,0,0,17.66-1.36,121.55,121.55,0,0,0,27.22-7.24,125.73,125.73,0,0,0,79.86-116c0-.75-.11-1-.94-1Q855.35,916.65,845.79,916.6Z"/><path class="cls-1" d="M782.14,937.59a20.92,20.92,0,1,0-21,20.88A20.91,20.91,0,0,0,782.14,937.59Z"/><path class="cls-1" d="M285.42,806.71c15.25,12.76,32.94,19.18,52.83,19.53.73,0,.89-.18.88-.89q0-9.6,0-19.2c0-.66-.13-.86-.83-.87a61.1,61.1,0,0,1-25.81-5.88,62.68,62.68,0,0,1-36.13-56.11c0-.6-.13-.78-.76-.78-3.24,0-6.48,0-9.73,0s-6.48,0-9.72,0c-.63,0-.75.19-.75.78a83.63,83.63,0,0,0,30,63.42Z"/><path class="cls-1" d="M339.14,848c0-.72-.19-.88-.9-.89a103.47,103.47,0,0,1-54.54-15.85,104,104,0,0,1-39-43.7,102.73,102.73,0,0,1-10.16-44.26c0-.65-.18-.81-.82-.81-3.21,0-6.43,0-9.64,0s-6.43,0-9.65,0c-.66,0-.86.13-.85.84A132,132,0,0,0,214.91,761a121.94,121.94,0,0,0,7.24,27.22,125.73,125.73,0,0,0,116,79.86c.75,0,1-.11,1-.94Q339.08,857.58,339.14,848Z"/><path class="cls-1" d="M318.15,784.38a20.93,20.93,0,1,0-20.88-21A20.92,20.92,0,0,0,318.15,784.38Z"/><path class="cls-2" d="M442.84,803.9c-15.25-12.76-32.93-19.18-52.82-19.54-.73,0-.89.18-.89.9q0,9.6,0,19.2c0,.66.13.86.83.87a61.14,61.14,0,0,1,25.82,5.88,62.72,62.72,0,0,1,36.13,56.11c0,.59.13.78.75.77,3.25,0,6.49,0,9.73,0s6.48,0,9.72,0c.64,0,.76-.18.75-.77a83.63,83.63,0,0,0-30-63.42Z"/><path class="cls-2" d="M389.13,762.59c0,.72.18.88.89.88a103.7,103.7,0,0,1,54.55,15.86,104,104,0,0,1,39,43.7,102.88,102.88,0,0,1,10.17,44.26c0,.65.17.81.81.8,3.21,0,6.43,0,9.64,0s6.43,0,9.65,0c.66,0,.86-.13.86-.83a130.39,130.39,0,0,0-1.37-17.66,121.63,121.63,0,0,0-7.24-27.23,125.77,125.77,0,0,0-116-79.86c-.75,0-1,.12-1,1Q389.18,753,389.13,762.59Z"/><path class="cls-2" d="M410.12,826.23a20.93,20.93,0,1,0,20.88,21A20.9,20.9,0,0,0,410.12,826.23Z"/><path class="cls-1" d="M618.42,803.9c-15.25-12.76-32.94-19.18-52.83-19.54-.73,0-.89.18-.88.9q0,9.6,0,19.2c0,.66.13.86.83.87a61.1,61.1,0,0,1,25.81,5.88,62.68,62.68,0,0,1,36.13,56.11c0,.59.13.78.76.77,3.24,0,6.48,0,9.73,0s6.48,0,9.72,0c.63,0,.75-.18.75-.77a83.63,83.63,0,0,0-30-63.42Z"/><path class="cls-1" d="M564.7,762.59c0,.72.19.88.9.88a103.64,103.64,0,0,1,54.54,15.86,103.92,103.92,0,0,1,39,43.7,102.73,102.73,0,0,1,10.16,44.26c0,.65.18.81.82.8,3.21,0,6.43,0,9.64,0s6.43,0,9.64,0c.67,0,.87-.13.86-.83a132,132,0,0,0-1.36-17.66,122.17,122.17,0,0,0-7.24-27.23,125.77,125.77,0,0,0-116-79.86c-.75,0-1,.12-1,1Q564.76,753,564.7,762.59Z"/><path class="cls-1" d="M585.69,826.23a20.93,20.93,0,1,0,20.88,21A20.92,20.92,0,0,0,585.69,826.23Z"/><path class="cls-2" d="M804.48,796.22C817.24,781,823.66,763.29,824,743.4c0-.73-.18-.89-.89-.89q-9.6,0-19.2,0c-.66,0-.86.13-.87.83a61.13,61.13,0,0,1-5.88,25.81,62.72,62.72,0,0,1-56.12,36.13c-.59,0-.77.13-.77.76,0,3.24,0,6.48,0,9.72s0,6.49,0,9.73c0,.63.18.75.78.74a83.18,83.18,0,0,0,17.65-2A82.29,82.29,0,0,0,804.48,796.22Z"/><path class="cls-2" d="M845.79,742.51c-.73,0-.89.19-.89.9A103.73,103.73,0,0,1,829.05,798a104,104,0,0,1-43.7,39,102.74,102.74,0,0,1-44.27,10.16c-.64,0-.8.18-.8.81,0,3.22,0,6.43,0,9.65s0,6.43,0,9.64c0,.66.13.87.84.86a132.27,132.27,0,0,0,17.66-1.36A122.08,122.08,0,0,0,786,859.5a125.73,125.73,0,0,0,79.86-116c0-.75-.11-1-.94-1Q855.35,742.57,845.79,742.51Z"/><path class="cls-2" d="M782.14,763.5a20.92,20.92,0,1,0-21,20.88A20.91,20.91,0,0,0,782.14,763.5Z"/><path class="cls-1" d="M980.05,796.22c12.76-15.25,19.19-32.93,19.54-52.82,0-.73-.18-.89-.89-.89q-9.6,0-19.21,0c-.66,0-.85.13-.86.83a61.29,61.29,0,0,1-5.89,25.81,62.7,62.7,0,0,1-56.11,36.13c-.59,0-.78.13-.77.76,0,3.24,0,6.48,0,9.72s0,6.49,0,9.73c0,.63.18.75.77.74a83.1,83.1,0,0,0,17.65-2A82.26,82.26,0,0,0,980.05,796.22Z"/><path class="cls-1" d="M1021.37,742.51c-.73,0-.89.19-.89.9A103.73,103.73,0,0,1,1004.63,798a104,104,0,0,1-43.7,39,102.81,102.81,0,0,1-44.27,10.16c-.64,0-.81.18-.8.81,0,3.22,0,6.43,0,9.65s0,6.43,0,9.64c0,.66.13.87.83.86a132,132,0,0,0,17.66-1.36,122,122,0,0,0,27.23-7.24,125.73,125.73,0,0,0,79.86-116c0-.75-.12-1-1-1Q1030.94,742.57,1021.37,742.51Z"/><path class="cls-1" d="M957.72,763.5a20.93,20.93,0,1,0-21,20.88A20.92,20.92,0,0,0,957.72,763.5Z"/><path class="cls-1" d="M91.69,629.82c-15.25-12.77-32.94-19.19-52.83-19.54-.73,0-.89.18-.88.89q0,9.6,0,19.21c0,.66.13.85.83.86a61.26,61.26,0,0,1,25.81,5.89,62.68,62.68,0,0,1,36.13,56.11c0,.59.13.78.76.77,3.24,0,6.49,0,9.73,0s6.48,0,9.72,0c.63,0,.75-.18.75-.78a83.25,83.25,0,0,0-2-17.65A82.38,82.38,0,0,0,91.69,629.82Z"/><path class="cls-1" d="M38,588.5c0,.73.18.89.89.89a103.73,103.73,0,0,1,54.54,15.85,104,104,0,0,1,39,43.7,102.81,102.81,0,0,1,10.16,44.27c0,.64.18.81.82.8,3.21,0,6.43,0,9.64,0s6.43,0,9.65,0c.66,0,.86-.13.85-.83a130.38,130.38,0,0,0-1.36-17.66A121.49,121.49,0,0,0,155,648.29a124.41,124.41,0,0,0-47.31-58.74A123.61,123.61,0,0,0,39,568.43c-.75,0-1,.12-1,1Q38,578.93,38,588.5Z"/><path class="cls-1" d="M59,652.15a20.93,20.93,0,1,0,20.88,21A20.92,20.92,0,0,0,59,652.15Z"/><path class="cls-2" d="M267.26,629.82c-15.25-12.77-32.93-19.19-52.82-19.54-.73,0-.89.18-.89.89q0,9.6,0,19.21c0,.66.12.85.83.86a61.29,61.29,0,0,1,25.81,5.89,62.7,62.7,0,0,1,36.13,56.11c0,.59.13.78.76.77,3.24,0,6.48,0,9.72,0s6.49,0,9.73,0c.63,0,.75-.18.74-.78a83.25,83.25,0,0,0-2-17.65A82.32,82.32,0,0,0,267.26,629.82Z"/><path class="cls-2" d="M213.55,588.5c0,.73.19.89.9.89A103.73,103.73,0,0,1,269,605.24a104,104,0,0,1,39,43.7,103,103,0,0,1,10.16,44.27c0,.64.18.81.81.8,3.22,0,6.43,0,9.65,0s6.43,0,9.64,0c.66,0,.87-.13.86-.83a130.39,130.39,0,0,0-1.37-17.66,121.47,121.47,0,0,0-7.23-27.23,125.75,125.75,0,0,0-116-79.86c-.75,0-1,.12-1,1Q213.61,578.93,213.55,588.5Z"/><path class="cls-2" d="M234.54,652.15a20.93,20.93,0,1,0,20.88,21A20.92,20.92,0,0,0,234.54,652.15Z"/><path class="cls-2" d="M517.94,540.07c-36.58-30.6-79-46-126.68-46.84-1.75,0-2.13.43-2.12,2.14q.11,23,0,46c0,1.57.31,2.05,2,2.07A146.77,146.77,0,0,1,453,557.6a150.36,150.36,0,0,1,86.63,134.56c0,1.42.32,1.87,1.82,1.85,7.78-.08,15.55,0,23.32,0s15.55,0,23.32,0c1.52,0,1.81-.44,1.79-1.86A199,199,0,0,0,585,649.82C574.84,605.8,552.55,569.05,517.94,540.07Z"/><path class="cls-2" d="M389.13,441c0,1.74.44,2.13,2.15,2.13a248.63,248.63,0,0,1,130.79,38q61.83,39,93.59,104.8A246.51,246.51,0,0,1,640,692.09c0,1.54.43,1.93,2,1.92,7.71-.08,15.42,0,23.13,0s15.42,0,23.13,0c1.58,0,2.07-.31,2-2A312.64,312.64,0,0,0,687,649.66a292,292,0,0,0-17.36-65.29c-23.29-58.63-61-105.74-113.45-140.85-49.76-33.33-104.81-49.92-164.68-50.65-1.8,0-2.42.27-2.41,2.27Q389.27,418.06,389.13,441Z"/><path class="cls-2" d="M439.47,593.63a50.17,50.17,0,1,0,50.07,50.31A50.14,50.14,0,0,0,439.47,593.63Z"/><path class="cls-1" d="M794,629.82c-15.25-12.77-32.93-19.19-52.82-19.54-.73,0-.89.18-.89.89q0,9.6,0,19.21c0,.66.13.85.84.86a61.29,61.29,0,0,1,25.81,5.89,62.7,62.7,0,0,1,36.13,56.11c0,.59.13.78.76.77,3.24,0,6.48,0,9.72,0s6.48,0,9.73,0c.63,0,.75-.18.74-.78a83.25,83.25,0,0,0-2-17.65A82.32,82.32,0,0,0,794,629.82Z"/><path class="cls-1" d="M740.28,588.5c0,.73.18.89.89.89a103.73,103.73,0,0,1,54.55,15.85,104,104,0,0,1,39,43.7,103,103,0,0,1,10.16,44.27c0,.64.18.81.81.8,3.22,0,6.43,0,9.65,0s6.43,0,9.64,0c.66,0,.87-.13.86-.83a130.39,130.39,0,0,0-1.37-17.66,121.47,121.47,0,0,0-7.23-27.23,125.75,125.75,0,0,0-116-79.86c-.75,0-1,.12-1,1Q740.34,578.93,740.28,588.5Z"/><path class="cls-1" d="M761.27,652.15a20.93,20.93,0,1,0,20.88,21A20.92,20.92,0,0,0,761.27,652.15Z"/><path class="cls-1" d="M267.26,455.73C252,443,234.33,436.55,214.44,436.2c-.73,0-.89.18-.89.89q0,9.6,0,19.2c0,.66.12.86.83.87A61.13,61.13,0,0,1,240.2,463a62.72,62.72,0,0,1,36.13,56.12c0,.59.13.78.76.77,3.24,0,6.48,0,9.72,0s6.49,0,9.73,0c.63,0,.75-.18.74-.78a83.18,83.18,0,0,0-2-17.65A82.35,82.35,0,0,0,267.26,455.73Z"/><path class="cls-1" d="M213.55,414.42c0,.73.19.89.9.89A103.73,103.73,0,0,1,269,431.16a104,104,0,0,1,39,43.7,102.88,102.88,0,0,1,10.16,44.27c0,.64.18.8.81.8,3.22,0,6.43,0,9.65,0s6.43,0,9.64,0c.66,0,.87-.13.86-.84a130.64,130.64,0,0,0-1.37-17.66,121.52,121.52,0,0,0-7.23-27.22,125.75,125.75,0,0,0-116-79.86c-.75,0-1,.11-1,.94Q213.61,404.86,213.55,414.42Z"/><path class="cls-1" d="M234.54,478.07a20.92,20.92,0,1,0,20.88,21A20.91,20.91,0,0,0,234.54,478.07Z"/><path class="cls-2" d="M794,455.73c-15.25-12.76-32.93-19.18-52.82-19.53-.73,0-.89.18-.89.89q0,9.6,0,19.2c0,.66.13.86.84.87A61.13,61.13,0,0,1,766.93,463a62.72,62.72,0,0,1,36.13,56.12c0,.59.13.78.76.77,3.24,0,6.48,0,9.72,0s6.48,0,9.73,0c.63,0,.75-.18.74-.78a83.18,83.18,0,0,0-2-17.65A82.35,82.35,0,0,0,794,455.73Z"/><path class="cls-2" d="M740.28,414.42c0,.73.18.89.89.89a103.73,103.73,0,0,1,54.55,15.85,104,104,0,0,1,39,43.7,102.88,102.88,0,0,1,10.16,44.27c0,.64.18.8.81.8,3.22,0,6.43,0,9.65,0s6.43,0,9.64,0c.66,0,.87-.13.86-.84a130.64,130.64,0,0,0-1.37-17.66,121.52,121.52,0,0,0-7.23-27.22,125.75,125.75,0,0,0-116-79.86c-.75,0-1,.11-1,.94Q740.34,404.86,740.28,414.42Z"/><path class="cls-2" d="M761.27,478.07a20.92,20.92,0,1,0,20.88,21A20.91,20.91,0,0,0,761.27,478.07Z"/><path class="cls-1" d="M969.57,455.73c-15.25-12.76-32.94-19.18-52.82-19.53-.73,0-.9.18-.89.89q0,9.6,0,19.2c0,.66.13.86.83.87A61.14,61.14,0,0,1,942.51,463a62.72,62.72,0,0,1,36.12,56.12c0,.59.14.78.76.77,3.24,0,6.49,0,9.73,0s6.48,0,9.72,0c.63,0,.76-.18.75-.78a83.18,83.18,0,0,0-2.05-17.65A82.35,82.35,0,0,0,969.57,455.73Z"/><path class="cls-1" d="M915.86,414.42c0,.73.18.89.89.89a103.79,103.79,0,0,1,54.55,15.85,104,104,0,0,1,39,43.7,102.89,102.89,0,0,1,10.17,44.27c0,.64.17.8.81.8,3.21,0,6.43,0,9.64,0s6.43,0,9.65,0c.66,0,.86-.13.85-.84a129,129,0,0,0-1.36-17.66,121.55,121.55,0,0,0-7.24-27.22,125.73,125.73,0,0,0-116-79.86c-.74,0-1,.11-1,.94Q915.91,404.86,915.86,414.42Z"/><path class="cls-1" d="M936.85,478.07a20.92,20.92,0,1,0,20.88,21A20.9,20.9,0,0,0,936.85,478.07Z"/><path class="cls-1" d="M99.36,292.13C86.6,307.39,80.18,325.07,79.83,345c0,.73.18.89.89.89q9.6,0,19.2,0c.66,0,.86-.13.87-.83a61.13,61.13,0,0,1,5.88-25.81,62.71,62.71,0,0,1,56.12-36.13c.59,0,.77-.13.77-.76,0-3.24,0-6.48,0-9.72s0-6.49,0-9.73c0-.63-.18-.75-.78-.74a83.65,83.65,0,0,0-63.42,30Z"/><path class="cls-1" d="M58.05,345.85c.73,0,.89-.19.89-.9a103.73,103.73,0,0,1,15.85-54.54,104,104,0,0,1,43.7-39,102.74,102.74,0,0,1,44.27-10.16c.64,0,.8-.18.8-.82,0-3.21,0-6.42,0-9.64s0-6.43,0-9.64c0-.67-.13-.87-.84-.86a132.27,132.27,0,0,0-17.66,1.36,122.08,122.08,0,0,0-27.22,7.24A125.73,125.73,0,0,0,38,344.85c0,.75.11,1,.94,1Q48.49,345.79,58.05,345.85Z"/><path class="cls-1" d="M121.7,324.86a20.92,20.92,0,1,0,21-20.88A20.91,20.91,0,0,0,121.7,324.86Z"/><path class="cls-2" d="M274.94,292.13c-12.76,15.26-19.18,32.94-19.54,52.83,0,.73.18.89.9.89q9.6,0,19.2,0c.66,0,.86-.13.86-.83a61.29,61.29,0,0,1,5.89-25.81,62.68,62.68,0,0,1,56.11-36.13c.59,0,.78-.13.77-.76,0-3.24,0-6.48,0-9.72s0-6.49,0-9.73c0-.63-.18-.75-.77-.74a83.65,83.65,0,0,0-63.42,30Z"/><path class="cls-2" d="M233.62,345.85c.73,0,.89-.19.89-.9a103.73,103.73,0,0,1,15.85-54.54,104,104,0,0,1,43.71-39,102.73,102.73,0,0,1,44.26-10.16c.65,0,.81-.18.8-.82,0-3.21,0-6.42,0-9.64s0-6.43,0-9.64c0-.67-.13-.87-.83-.86a132,132,0,0,0-17.66,1.36,122.17,122.17,0,0,0-27.23,7.24,125.77,125.77,0,0,0-79.86,116c0,.75.12,1,.95,1Q224.06,345.79,233.62,345.85Z"/><path class="cls-2" d="M297.27,324.86a20.93,20.93,0,1,0,21-20.88A20.92,20.92,0,0,0,297.27,324.86Z"/><path class="cls-1" d="M442.84,281.65c-15.25-12.76-32.93-19.18-52.82-19.54-.73,0-.89.18-.89.9q0,9.6,0,19.2c0,.66.13.86.83.87A61.14,61.14,0,0,1,415.78,289a62.72,62.72,0,0,1,36.13,56.11c0,.6.13.78.75.78,3.25,0,6.49,0,9.73,0s6.48,0,9.72,0c.64,0,.76-.19.75-.78a83.63,83.63,0,0,0-30-63.42Z"/><path class="cls-1" d="M389.13,240.34c0,.72.18.88.89.89a103.53,103.53,0,0,1,54.55,15.85,104,104,0,0,1,39,43.7A102.88,102.88,0,0,1,493.76,345c0,.65.17.81.81.8,3.21,0,6.43,0,9.64,0s6.43,0,9.65,0c.66,0,.86-.13.86-.84a130.39,130.39,0,0,0-1.37-17.66,121.4,121.4,0,0,0-7.24-27.22,125.76,125.76,0,0,0-116-79.87c-.75,0-1,.12-1,1Q389.18,230.78,389.13,240.34Z"/><path class="cls-1" d="M410.12,304A20.93,20.93,0,1,0,431,325,20.91,20.91,0,0,0,410.12,304Z"/><path class="cls-2" d="M618.42,281.65c-15.25-12.76-32.94-19.18-52.83-19.54-.73,0-.89.18-.88.9q0,9.6,0,19.2c0,.66.13.86.83.87A61.1,61.1,0,0,1,591.35,289a62.68,62.68,0,0,1,36.13,56.11c0,.6.13.78.76.78,3.24,0,6.48,0,9.73,0s6.48,0,9.72,0c.63,0,.75-.19.75-.78a83.63,83.63,0,0,0-30-63.42Z"/><path class="cls-2" d="M564.7,240.34c0,.72.19.88.9.89a103.47,103.47,0,0,1,54.54,15.85,103.92,103.92,0,0,1,39,43.7A102.73,102.73,0,0,1,669.33,345c0,.65.18.81.82.8,3.21,0,6.43,0,9.64,0s6.43,0,9.64,0c.67,0,.87-.13.86-.84a132,132,0,0,0-1.36-17.66,121.94,121.94,0,0,0-7.24-27.22,125.76,125.76,0,0,0-116-79.87c-.75,0-1,.12-1,1Q564.76,230.78,564.7,240.34Z"/><path class="cls-2" d="M585.69,304a20.93,20.93,0,1,0,20.88,21A20.92,20.92,0,0,0,585.69,304Z"/><path class="cls-1" d="M794,281.65c-15.25-12.76-32.93-19.18-52.82-19.54-.73,0-.89.18-.89.9q0,9.6,0,19.2c0,.66.13.86.84.87A61.13,61.13,0,0,1,766.93,289a62.7,62.7,0,0,1,36.13,56.11c0,.6.13.78.76.78,3.24,0,6.48,0,9.72,0s6.48,0,9.73,0c.63,0,.75-.19.74-.78a83.63,83.63,0,0,0-30-63.42Z"/><path class="cls-1" d="M740.28,240.34c0,.72.18.88.89.89a103.47,103.47,0,0,1,54.55,15.85,104,104,0,0,1,39,43.7A102.87,102.87,0,0,1,844.91,345c0,.65.18.81.81.8,3.22,0,6.43,0,9.65,0s6.43,0,9.64,0c.66,0,.87-.13.86-.84a130.39,130.39,0,0,0-1.37-17.66,121.38,121.38,0,0,0-7.23-27.22,125.78,125.78,0,0,0-116-79.87c-.75,0-1,.12-1,1Q740.34,230.78,740.28,240.34Z"/><path class="cls-1" d="M761.27,304a20.93,20.93,0,1,0,20.88,21A20.92,20.92,0,0,0,761.27,304Z"/><path class="cls-1" d="M274.94,118.05C262.18,133.3,255.76,151,255.4,170.87c0,.73.18.9.9.89q9.6,0,19.2,0c.66,0,.86-.13.86-.83a61.3,61.3,0,0,1,5.89-25.82A62.69,62.69,0,0,1,338.36,109c.59,0,.78-.14.77-.76,0-3.24,0-6.49,0-9.73s0-6.48,0-9.72c0-.63-.18-.76-.77-.75a83.63,83.63,0,0,0-63.42,30Z"/><path class="cls-1" d="M233.62,171.76c.73,0,.89-.18.89-.89a103.73,103.73,0,0,1,15.85-54.54,103.94,103.94,0,0,1,43.71-39,102.73,102.73,0,0,1,44.26-10.16c.65,0,.81-.18.8-.82,0-3.21,0-6.43,0-9.64s0-6.43,0-9.65c0-.66-.13-.86-.83-.85a128.78,128.78,0,0,0-17.66,1.36,121.63,121.63,0,0,0-27.23,7.24,125.77,125.77,0,0,0-79.86,116c0,.75.12,1,.95,1Q224.06,171.71,233.62,171.76Z"/><path class="cls-1" d="M297.27,150.77a20.93,20.93,0,1,0,21-20.88A20.9,20.9,0,0,0,297.27,150.77Z"/><path class="cls-1" d="M618.42,107.57C603.17,94.81,585.48,88.38,565.59,88c-.73,0-.89.18-.88.89q0,9.61,0,19.21c0,.66.13.85.83.86a61.26,61.26,0,0,1,25.81,5.89A62.68,62.68,0,0,1,627.48,171c0,.59.13.78.76.77,3.24,0,6.48,0,9.73,0s6.48,0,9.72,0c.63,0,.75-.18.75-.77a83.63,83.63,0,0,0-30-63.42Z"/><path class="cls-1" d="M564.7,66.25c0,.73.19.89.9.89A103.73,103.73,0,0,1,620.14,83a104,104,0,0,1,39,43.7A102.81,102.81,0,0,1,669.33,171c0,.64.18.81.82.8,3.21,0,6.43,0,9.64,0s6.43,0,9.64,0c.67,0,.87-.13.86-.83a132,132,0,0,0-1.36-17.66A122,122,0,0,0,681.69,126a125.73,125.73,0,0,0-116-79.86c-.75,0-1,.12-1,1Q564.76,56.69,564.7,66.25Z"/><path class="cls-1" d="M585.69,129.9a20.93,20.93,0,1,0,20.88,21A20.92,20.92,0,0,0,585.69,129.9Z"/><path class="cls-1" d="M969.57,107.57A82.3,82.3,0,0,0,916.75,88c-.73,0-.9.18-.89.89q0,9.61,0,19.21c0,.66.13.85.83.86a61.3,61.3,0,0,1,25.82,5.89A62.69,62.69,0,0,1,978.63,171c0,.59.14.78.76.77,3.24,0,6.49,0,9.73,0s6.48,0,9.72,0c.63,0,.76-.18.75-.77a83.63,83.63,0,0,0-30-63.42Z"/><path class="cls-1" d="M915.86,66.25c0,.73.18.89.89.89A103.79,103.79,0,0,1,971.3,83a104,104,0,0,1,39,43.7A103,103,0,0,1,1020.49,171c0,.64.17.81.81.8,3.21,0,6.43,0,9.64,0s6.43,0,9.65,0c.66,0,.86-.13.85-.83a128.78,128.78,0,0,0-1.36-17.66,121.49,121.49,0,0,0-7.24-27.23,125.73,125.73,0,0,0-116-79.86c-.74,0-1,.12-1,1Q915.91,56.69,915.86,66.25Z"/><path class="cls-1" d="M936.85,129.9a20.93,20.93,0,1,0,20.88,21A20.9,20.9,0,0,0,936.85,129.9Z"/></g></svg>