<?xml version="1.0" encoding="utf-8"?>
<!-- Generator: Adobe Illustrator 25.2.1, SVG Export Plug-In . SVG Version: 6.00 Build 0)  -->
<svg version="1.1" id="Calque_1" xmlns="http://www.w3.org/2000/svg" xmlns:xlink="http://www.w3.org/1999/xlink" x="0px" y="0px"
	 viewBox="0 0 1080 1080" style="enable-background:new 0 0 1080 1080;" xml:space="preserve">
<style type="text/css">
	.st0{fill:#D9FFF8;}
	.st1{fill:#00D6B2;}
	.st2{fill:#00FFDA;}
</style>
<g id="COULEURS">
</g>
<g id="Jauge__x2B_accueil">
</g>
<g id="images">
</g>
<g id="TEXTE">
</g>
<g id="jauge">
</g>
<g id="picto_accueil">
</g>
<g id="FOND">
</g>
<g id="PICTOS">
</g>
<g id="bulles_Source__x2B_dico">
</g>
<g id="règles">
</g>
<path class="st0" d="M134.1,244.7c-8.5,127-48.4,165-96,309.5C-9.2,697.9,48.2,897.9,199.7,897.9c150.8,0,157.8,165.9,296.3,141.4
	s199.8-181.8,357.1-128.7s179.7-244.6,132.7-347s-26.6-227.3-4.1-250.6s19.2-197-72.1-250.1s-287.1,10.2-411.9,0
	S150.4-0.4,134.1,244.7z"/>
<g>
	<g>
		<circle class="st0" cx="713.3" cy="844.7" r="93.1"/>
		<path class="st1" d="M605.9,844.7c0-59.2,48.2-107.4,107.4-107.4s107.4,48.2,107.4,107.4s-48.2,107.4-107.4,107.4
			C654,952.1,605.9,903.9,605.9,844.7z M634.4,844.7c0,43.5,35.4,78.9,78.9,78.9s78.9-35.4,78.9-78.9s-35.4-78.9-78.9-78.9
			C669.8,765.8,634.4,801.2,634.4,844.7z"/>
	</g>
	<path class="st1" d="M898.1,1034.4l-3.8,4.7c-10.8,13.5-31.4,12.8-41.3-1.3l-73.8-105.2c-2.6-3.7-2.1-8.8,1.3-11.9
		c0,0,7.2-20.3,10.7-17.6l102.4,94.7C905.1,1006.5,907.1,1023,898.1,1034.4z"/>
	<g>
		<path class="st2" d="M653.9,851.8c3.9,0,7.1-3.2,7.1-7.1c0-28.8,23.5-52.3,52.3-52.3c3.9,0,7.1-3.2,7.1-7.1c0-3.9-3.2-7.1-7.1-7.1
			c-36.7,0-66.5,29.8-66.5,66.5C646.7,848.6,649.9,851.8,653.9,851.8z"/>
	</g>
	<g>
		<path class="st2" d="M712,909.9c36.7,0,66.5-29.8,66.5-66.5c0-3.9-3.2-7.1-7.1-7.1s-7.1,3.2-7.1,7.1c0,28.8-23.5,52.3-52.3,52.3
			c-3.9,0-7.1,3.2-7.1,7.1C704.8,906.7,708,909.9,712,909.9z"/>
	</g>
</g>
<g>
	<path class="st2" d="M571.8,158c-9.9-5.6-21-8.4-33.4-8.4c-12.4,0-23.6,2.8-33.5,8.4c-9.9,5.6-17.7,13.8-23.4,24.5
		c-5.7,10.7-8.6,23.7-8.6,39c0,15.2,2.9,28.2,8.6,38.9c5.7,10.7,13.6,18.9,23.4,24.5c9.9,5.6,21,8.5,33.5,8.5c8.8,0,17-1.5,24.5-4.3
		l11.3,13.9h27.6l-20.1-25.2c5.4-4.8,9.9-10.5,13.5-17.4c5.8-10.7,8.6-23.7,8.6-39c0-15.3-2.9-28.2-8.6-39
		C589.5,171.8,581.7,163.6,571.8,158z M519.7,261.9c-5.3-3.5-9.5-8.7-12.4-15.4c-2.9-6.8-4.4-15.1-4.4-25c0-9.9,1.5-18.2,4.4-25
		c2.9-6.8,7.1-11.9,12.4-15.4c5.3-3.5,11.6-5.3,18.7-5.3c7.2,0,13.4,1.8,18.7,5.3c5.3,3.5,9.5,8.7,12.4,15.4
		c2.9,6.8,4.4,15.1,4.4,25c0,9.9-1.5,18.2-4.4,25c-1.6,3.7-3.6,6.9-5.9,9.6l-10.3-13.3h-25.1l17.9,23.7c-2.4,0.5-5,0.7-7.7,0.7
		C531.3,267.1,525,265.4,519.7,261.9z"/>
	<path class="st2" d="M653.5,287c8.7,4.3,18.9,6.4,30.5,6.4c11.6,0,21.7-2.1,30.4-6.4c8.7-4.3,15.5-10.2,20.3-17.9
		c4.9-7.7,7.3-16.6,7.3-26.8v-90.9h-29.6v88.4c0,5.3-1.2,10.1-3.5,14.2c-2.3,4.1-5.6,7.4-9.9,9.8c-4.3,2.4-9.3,3.6-15,3.6
		c-5.7,0-10.7-1.2-15-3.6c-4.3-2.4-7.6-5.6-9.9-9.8c-2.3-4.1-3.5-8.9-3.5-14.2v-88.4H626v90.9c0,10.2,2.4,19.1,7.2,26.8
		C638,276.8,644.8,282.7,653.5,287z"/>
	<rect x="766.3" y="151.4" class="st2" width="29.6" height="140"/>
</g>
<g>
	<path class="st2" d="M532.5,455.1c5.8-10.7,8.6-23.7,8.6-39c0-15.3-2.9-28.2-8.6-39c-5.8-10.7-13.6-18.9-23.5-24.5
		c-9.9-5.6-21-8.4-33.4-8.4c-12.4,0-23.6,2.8-33.5,8.4c-9.9,5.6-17.7,13.8-23.4,24.5c-5.7,10.7-8.6,23.7-8.6,39
		c0,15.2,2.9,28.2,8.6,38.9c5.7,10.7,13.6,18.9,23.4,24.5c9.9,5.6,21,8.5,33.5,8.5c8.8,0,17-1.5,24.5-4.3l11.3,13.9H539l-20.1-25.2
		C524.3,467.7,528.8,461.9,532.5,455.1z M456.8,456.6c-5.3-3.5-9.5-8.7-12.4-15.4c-2.9-6.8-4.4-15.1-4.4-25c0-9.9,1.5-18.2,4.4-25
		c2.9-6.8,7.1-11.9,12.4-15.4c5.3-3.5,11.6-5.3,18.7-5.3c7.2,0,13.4,1.8,18.7,5.3c5.3,3.5,9.5,8.7,12.4,15.4
		c2.9,6.8,4.4,15.1,4.4,25c0,9.9-1.5,18.2-4.4,25c-1.6,3.7-3.6,6.9-5.9,9.6l-10.3-13.3h-25.1l17.9,23.7c-2.4,0.5-5,0.7-7.7,0.7
		C468.4,461.9,462.2,460.1,456.8,456.6z"/>
	<path class="st2" d="M590.7,481.7c8.7,4.3,18.9,6.4,30.5,6.4c11.6,0,21.7-2.1,30.4-6.4c8.7-4.3,15.5-10.2,20.3-17.9
		c4.9-7.7,7.3-16.6,7.3-26.8v-90.9h-29.6v88.4c0,5.3-1.2,10.1-3.5,14.2c-2.3,4.1-5.6,7.4-9.9,9.8c-4.3,2.4-9.3,3.6-15,3.6
		c-5.7,0-10.7-1.2-15-3.6c-4.3-2.4-7.6-5.6-9.9-9.8c-2.3-4.1-3.5-8.9-3.5-14.2v-88.4h-29.6v90.9c0,10.2,2.4,19.1,7.2,26.8
		C575.2,471.5,582,477.5,590.7,481.7z"/>
	<path class="st2" d="M733.1,479.6c9.9,5.6,21,8.5,33.5,8.5c12.3,0,23.5-2.8,33.4-8.4c9.9-5.6,17.7-13.8,23.5-24.5
		c5.8-10.7,8.6-23.7,8.6-39c0-15.3-2.9-28.2-8.6-39c-5.8-10.7-13.6-18.9-23.5-24.5c-9.9-5.6-21-8.4-33.4-8.4
		c-12.4,0-23.6,2.8-33.5,8.4c-9.9,5.6-17.7,13.8-23.4,24.5c-5.7,10.7-8.6,23.7-8.6,39c0,15.2,2.9,28.2,8.6,38.9
		C715.4,465.7,723.2,473.9,733.1,479.6z M735.4,391.1c2.9-6.8,7.1-11.9,12.4-15.4c5.3-3.5,11.6-5.3,18.7-5.3s13.4,1.8,18.7,5.3
		c5.3,3.5,9.5,8.7,12.4,15.4c2.9,6.8,4.4,15.1,4.4,25c0,9.9-1.5,18.2-4.4,25c-2.9,6.8-7.1,11.9-12.4,15.4
		c-5.3,3.5-11.6,5.3-18.7,5.3s-13.4-1.8-18.7-5.3c-5.3-3.5-9.5-8.7-12.4-15.4c-2.9-6.8-4.4-15.1-4.4-25
		C731,406.3,732.5,397.9,735.4,391.1z"/>
	<rect x="854" y="346.2" class="st2" width="29.6" height="140"/>
</g>
<g>
	<path class="st2" d="M66.6,580.6c5.4-3.6,11.7-5.4,18.9-5.4c4,0,7.7,0.6,11.2,1.7c3.4,1.1,6.5,2.8,9.1,4.9c2.6,2.1,4.8,4.7,6.5,7.8
		c1.7,3,2.8,6.5,3.3,10.4h29.9c-1-8.1-3.1-15.3-6.5-21.6c-3.4-6.3-7.8-11.6-13.2-16c-5.4-4.3-11.5-7.7-18.5-9.9
		c-6.9-2.3-14.5-3.4-22.6-3.4c-12.3,0-23.4,2.8-33.2,8.4c-9.8,5.6-17.6,13.8-23.4,24.5s-8.6,23.7-8.6,39c0,15.2,2.8,28.2,8.5,38.9
		c5.7,10.7,13.4,18.9,23.2,24.5c9.8,5.6,21,8.5,33.5,8.5c9,0,17-1.4,24.2-4.1c7.1-2.7,13.3-6.4,18.5-11.1c5.2-4.7,9.3-10,12.4-15.9
		c3.1-5.9,5-12.1,5.8-18.6l-29.9-0.1c-0.7,3.7-1.9,7.1-3.7,10c-1.8,2.9-4,5.4-6.6,7.4c-2.6,2-5.7,3.6-9.1,4.6c-3.4,1-7.1,1.6-11,1.6
		c-7.1,0-13.3-1.7-18.7-5.2c-5.4-3.5-9.6-8.6-12.5-15.4c-3-6.8-4.5-15.2-4.5-25.1c0-9.7,1.5-18,4.4-24.8
		C57,589.3,61.2,584.1,66.6,580.6z"/>
	<path class="st2" d="M263.3,557.5c-9.9-5.6-21-8.4-33.4-8.4c-12.4,0-23.6,2.8-33.5,8.4c-9.9,5.6-17.7,13.8-23.4,24.5
		c-5.7,10.7-8.6,23.7-8.6,39c0,15.2,2.9,28.2,8.6,38.9c5.7,10.7,13.6,18.9,23.4,24.5c9.9,5.6,21,8.5,33.5,8.5
		c12.3,0,23.5-2.8,33.4-8.4c9.9-5.6,17.7-13.8,23.5-24.5c5.8-10.7,8.6-23.7,8.6-39c0-15.3-2.9-28.2-8.6-39
		C281,571.3,273.2,563.1,263.3,557.5z M261,645.9c-2.9,6.8-7.1,11.9-12.4,15.4c-5.3,3.5-11.6,5.3-18.7,5.3s-13.4-1.8-18.7-5.3
		c-5.3-3.5-9.5-8.7-12.4-15.4c-2.9-6.8-4.4-15.1-4.4-25c0-9.9,1.5-18.2,4.4-25c2.9-6.8,7.1-11.9,12.4-15.4
		c5.3-3.5,11.6-5.3,18.7-5.3s13.4,1.8,18.7,5.3c5.3,3.5,9.5,8.7,12.4,15.4c2.9,6.8,4.4,15.1,4.4,25C265.5,630.8,264,639.1,261,645.9
		z"/>
	<polygon class="st2" points="394,645 392.4,645 353.8,550.9 317.3,550.9 317.3,690.9 346,690.9 346,599.5 347.2,599.5 383.4,690.2 
		402.9,690.2 439.2,599.8 440.3,599.8 440.3,690.9 469,690.9 469,550.9 432.5,550.9 	"/>
	<polygon class="st2" points="570,645 568.4,645 529.9,550.9 493.4,550.9 493.4,690.9 522.1,690.9 522.1,599.5 523.2,599.5 
		559.4,690.2 579,690.2 615.2,599.8 616.4,599.8 616.4,690.9 645.1,690.9 645.1,550.9 608.6,550.9 	"/>
	<polygon class="st2" points="699,633.1 758.9,633.1 758.9,608.7 699,608.7 699,575.3 763.7,575.3 763.7,550.9 669.4,550.9 
		669.4,690.9 764,690.9 764,666.5 699,666.5 	"/>
	<polygon class="st2" points="874.9,639 873.7,639 813.3,550.9 787.3,550.9 787.3,690.9 816.9,690.9 816.9,602.8 817.9,602.8 
		878.8,690.9 904.4,690.9 904.4,550.9 874.9,550.9 	"/>
	<polygon class="st2" points="923.4,550.9 923.4,575.3 966.3,575.3 966.3,690.9 995.5,690.9 995.5,575.3 1038.4,575.3 1038.4,550.9 
			"/>
</g>
<g>
	<path class="st2" d="M475.2,950.7c-8.5,0-15.7,3-21.7,8.9c-6,5.9-8.9,13.1-8.8,21.4c-0.1,8.4,2.9,15.6,8.8,21.5c6,6,13.2,9,21.7,9
		c5.4,0,10.4-1.4,15-4.1c4.6-2.8,8.3-6.4,11.1-11.1c2.8-4.6,4.3-9.7,4.4-15.3c-0.1-8.3-3.2-15.4-9.3-21.4
		C490.3,953.7,483.2,950.7,475.2,950.7z"/>
	<path class="st2" d="M525.2,752.5c-13-5.6-27.9-8.3-44.8-8.3c-15.3,0-29.4,2.7-42.1,8.2s-22.9,13.7-30.6,24.8s-11.8,25.1-12.2,42
		h51.9c0.3-6.9,1.9-12.8,5.1-17.5c3.1-4.7,7.2-8.3,12.1-10.7c4.9-2.4,10.1-3.6,15.6-3.6c5.7,0,10.9,1.2,15.6,3.6
		c4.7,2.4,8.5,5.8,11.3,10.2c2.8,4.4,4.2,9.5,4.2,15.4c0,5.5-1.2,10.5-3.7,14.9c-2.5,4.4-5.8,8.5-9.9,12.1
		c-4.2,3.6-8.9,7.2-14.1,10.6c-7,4.4-13.1,9.3-18.1,14.7c-5,5.4-8.8,12.5-11.4,21.4c-2.6,8.8-3.9,20.6-4,35.5v4.3h48.2v-4.3
		c0.1-8.3,1.2-15.3,3.2-21c2.1-5.7,5.3-10.7,9.5-15s9.8-8.5,16.5-12.5c8-4.7,14.9-10.1,20.7-16c5.8-5.9,10.4-12.7,13.7-20.3
		c3.3-7.7,4.9-16.5,4.9-26.4c0-14.8-3.7-27.5-11.1-38C548.3,766.1,538.1,758.1,525.2,752.5z"/>
</g>
<g>
	<g>
		<circle class="st0" cx="425.1" cy="302.5" r="90.1"/>
		<path class="st1" d="M425.1,406.4c-57.3,0-103.9-46.6-103.9-103.9s46.6-103.9,103.9-103.9S529,245.2,529,302.5
			S482.4,406.4,425.1,406.4z M425.1,226.2c-42.1,0-76.3,34.2-76.3,76.3s34.2,76.3,76.3,76.3s76.3-34.2,76.3-76.3
			S467.2,226.2,425.1,226.2z"/>
	</g>
	<path class="st1" d="M246.3,486l3.7,4.6c10.4,13,30.4,12.4,40-1.3l71.4-101.8c2.5-3.6,2-8.6-1.3-11.5c0,0-7-19.6-10.3-17l-99,91.6
		C239.5,459.1,237.6,475.1,246.3,486z"/>
	<g>
		<path class="st2" d="M482.6,309.4c-3.8,0-6.9-3.1-6.9-6.9c0-27.9-22.7-50.6-50.6-50.6c-3.8,0-6.9-3.1-6.9-6.9s3.1-6.9,6.9-6.9
			c35.5,0,64.4,28.9,64.4,64.4C489.5,306.3,486.4,309.4,482.6,309.4z"/>
	</g>
	<g>
		<path class="st2" d="M426.4,365.6c-35.5,0-64.4-28.9-64.4-64.4c0-3.8,3.1-6.9,6.9-6.9s6.9,3.1,6.9,6.9c0,27.9,22.7,50.6,50.6,50.6
			c3.8,0,6.9,3.1,6.9,6.9S430.2,365.6,426.4,365.6z"/>
	</g>
</g>
</svg>
