<?xml version="1.0" encoding="utf-8"?>
<!-- Generator: Adobe Illustrator 25.2.0, SVG Export Plug-In . SVG Version: 6.00 Build 0)  -->
<svg version="1.1" xmlns="http://www.w3.org/2000/svg" xmlns:xlink="http://www.w3.org/1999/xlink" x="0px" y="0px"
	 viewBox="0 0 1080 1080" style="enable-background:new 0 0 1080 1080;" xml:space="preserve">
<style type="text/css">
	.st0{fill:#00FFDA;}
	.st1{fill:#A9FFEE;}
	.st2{fill:#D9FFF8;}
	.st3{fill:#00A585;}
	.st4{fill:#00D6B2;}
	.st5{fill:#FFFFFF;}
	.st6{fill:none;stroke:#00FFDA;stroke-width:70;stroke-linecap:round;stroke-miterlimit:10;}
</style>
<g id="COULEURS">
</g>
<g id="Jauge__x2B_accueil">
</g>
<g id="images">
</g>
<g id="TEXTE">
</g>
<g id="jauge">
</g>
<g id="picto_accueil">
</g>
<g id="FOND">
</g>
<g id="PICTOS">
</g>
<g id="bulles_Source__x2B_dico">
</g>
<g id="règles">
</g>
<g id="LOGO">
	<path class="st2" d="M995.5,938.5l-63.2-63.2l-49-49c-11-11-11-29,0-40.1c5.3-5.3,12.4-8.3,20-8.3c7.5,0,14.6,2.9,20,8.3l28,28
		c7.7,7.7,18,12,28.9,12c10.9,0,21.1-4.3,28.9-12c15.9-15.9,15.9-41.9,0-57.8l-4.6-4.6l-48.9-49c-0.3-0.3-0.6-0.6-1-0.8l-66.4-66.4
		l0.1-0.1L685.9,433.3l-89.5-89.5c-6.6-4.4-14.4-6.8-22.6-6.8c-10.9,0-21.2,4.3-28.9,12c-15.9,15.9-15.9,41.9,0,57.8l3.1,3.1
		c11,11,11,29,0,40.1c-5.3,5.3-12.4,8.3-20,8.3c-7.4,0-14.3-2.8-19.6-8l-52.3-52.5c-7.7-7.7-18-12-28.9-12c0,0,0,0,0,0
		c-10.9,0-21.2,4.3-28.9,12c-15.9,15.9-15.9,41.9,0,57.8l63.2,63.2l49,49c11,11,11,29,0,40.1c-5.3,5.3-12.4,8.3-20,8.3
		c-7.5,0-14.6-2.9-20-8.3l-28-28c-7.7-7.7-18-12-28.9-12c-10.9,0-21.1,4.3-28.9,12c-15.9,15.9-15.9,41.9,0,57.8l4.6,4.6l48.9,49
		c0.3,0.3,0.6,0.6,1,0.8l66.4,66.4l-0.1,0.1l202.3,202.3l89.5,89.5c6.6,4.4,14.4,6.8,22.6,6.8c10.9,0,21.1-4.3,28.9-12
		c15.9-15.9,15.9-41.9,0-57.8l-3.1-3.1c-11-11-11-29,0-40.1c5.3-5.3,12.4-8.3,20-8.3c7.4,0,14.3,2.8,19.6,8l52.3,52.5
		c7.7,7.7,18,12,28.9,12c0,0,0,0,0,0c10.9,0,21.2-4.3,28.9-12C1011.4,980.4,1011.4,954.4,995.5,938.5z"/>
	<path class="st2" d="M735.3,678.2l-63.2-63.2l-49-49c-11-11-11-29,0-40.1c5.3-5.3,12.4-8.3,20-8.3c7.5,0,14.6,2.9,20,8.3l28,28
		c7.7,7.7,18,12,28.9,12c10.9,0,21.1-4.3,28.9-12c15.9-15.9,15.9-41.9,0-57.8l-4.6-4.6l-48.9-49c-0.3-0.3-0.6-0.6-1-0.8l-66.4-66.4
		l0.1-0.1L425.7,173l-89.5-89.5c-6.6-4.4-14.4-6.8-22.6-6.8c-10.9,0-21.1,4.3-28.9,12c-15.9,15.9-15.9,41.9,0,57.8l3.1,3.1
		c11,11,11,29,0,40.1c-5.3,5.3-12.4,8.3-20,8.3c-7.4,0-14.3-2.8-19.6-8L196,137.5c-7.7-7.7-18-12-28.9-12c0,0,0,0,0,0
		c-10.9,0-21.2,4.3-28.9,12c-15.9,15.9-15.9,41.9,0,57.8l63.2,63.2l49,49c11,11,11,29,0,40.1c-5.3,5.3-12.4,8.3-20,8.3
		c-7.5,0-14.6-2.9-20-8.3l-28-28c-7.7-7.7-18-12-28.9-12c-10.9,0-21.1,4.3-28.9,12c-15.9,15.9-15.9,41.9,0,57.8l4.6,4.6l48.9,49
		c0.3,0.3,0.6,0.6,1,0.8l66.4,66.4l-0.1,0.1l202.3,202.3l89.5,89.5c6.6,4.4,14.4,6.8,22.6,6.8c10.9,0,21.1-4.3,28.9-12
		c15.9-15.9,15.9-41.9,0-57.8l-3.1-3.1c-11-11-11-29,0-40.1c5.3-5.3,12.4-8.3,20-8.3c7.4,0,14.3,2.8,19.6,8l52.3,52.5
		c7.7,7.7,18,12,28.9,12c0,0,0,0,0,0c10.9,0,21.2-4.3,28.9-12C751.2,720.1,751.2,694.2,735.3,678.2z"/>
	<path class="st1" d="M284.6,145.9l63.2,63.2l49,49c11,11,11,29,0,40.1c-5.3,5.3-12.4,8.3-20,8.3c-7.5,0-14.6-2.9-20-8.3l-28-28
		c-7.7-7.7-18-12-28.9-12c-10.9,0-21.1,4.3-28.9,12c-15.9,15.9-15.9,41.9,0,57.8l4.6,4.6l48.9,49c0.3,0.3,0.6,0.6,1,0.8l66.4,66.4
		l-0.1,0.1l202.3,202.3l89.5,89.5c6.6,4.4,14.4,6.8,22.6,6.8c10.9,0,21.1-4.3,28.9-12c15.9-15.9,15.9-41.9,0-57.8l-3.1-3.1
		c-11-11-11-29,0-40.1c5.3-5.3,12.4-8.3,20-8.3c7.4,0,14.3,2.8,19.6,8l52.3,52.5c7.7,7.7,18,12,28.9,12c0,0,0,0,0,0
		c10.9,0,21.2-4.3,28.9-12c15.9-15.9,15.9-41.9,0-57.8l-63.2-63.2l-49-49c-11-11-11-29,0-40.1c5.3-5.3,12.4-8.3,20-8.3
		c7.5,0,14.6,2.9,20,8.3l28,28c7.7,7.7,18,12,28.9,12c10.9,0,21.1-4.3,28.9-12c15.9-15.9,15.9-41.9,0-57.8l-4.6-4.6l-48.9-49
		c-0.3-0.3-0.6-0.6-1-0.8L774.2,326l0.1-0.1L572,123.6l-89.5-89.5c-6.6-4.4-14.4-6.8-22.6-6.8c-10.9,0-21.1,4.3-28.9,12
		c-15.9,15.9-15.9,41.9,0,57.8l3.1,3.1c11,11,11,29,0,40.1c-5.3,5.3-12.4,8.3-20,8.3c-7.4,0-14.3-2.8-19.6-8l-52.3-52.5
		c-7.7-7.7-18-12-28.9-12c0,0,0,0,0,0c-10.9,0-21.2,4.3-28.9,12C268.7,104.1,268.7,130,284.6,145.9z"/>
	<path class="st1" d="M805.1,944.8l-63.2-63.2l-49-49c-11-11-11-29,0-40.1c5.3-5.3,12.4-8.3,20-8.3c7.5,0,14.6,2.9,20,8.3l28,28
		c7.7,7.7,18,12,28.9,12c10.9,0,21.1-4.3,28.9-12c15.9-15.9,15.9-41.9,0-57.8l-4.6-4.6l-48.9-49c-0.3-0.3-0.6-0.6-1-0.8L697.8,642
		l0.1-0.1L495.6,439.6l-89.5-89.5c-6.6-4.4-14.4-6.8-22.6-6.8c-10.9,0-21.1,4.3-28.9,12c-15.9,15.9-15.9,41.9,0,57.8l3.1,3.1
		c11,11,11,29,0,40.1c-5.3,5.3-12.4,8.3-20,8.3c-7.4,0-14.3-2.8-19.6-8l-52.3-52.5c-7.7-7.7-18-12-28.9-12c0,0,0,0,0,0
		c-10.9,0-21.2,4.3-28.9,12c-15.9,15.9-15.9,41.9,0,57.8l63.2,63.2l49,49c11,11,11,29,0,40.1c-5.3,5.3-12.4,8.3-20,8.3
		c-7.5,0-14.6-2.9-20-8.3l-28-28c-7.7-7.7-18-12-28.9-12c-10.9,0-21.1,4.3-28.9,12c-15.9,15.9-15.9,41.9,0,57.8l4.6,4.6l48.9,49
		c0.3,0.3,0.6,0.6,1,0.8l66.4,66.4l-0.1,0.1l202.3,202.3l89.5,89.5c6.6,4.4,14.4,6.8,22.6,6.8c10.9,0,21.1-4.3,28.9-12
		c15.9-15.9,15.9-41.9,0-57.8l-3.1-3.1c-11-11-11-29,0-40.1c5.3-5.3,12.4-8.3,20-8.3c7.4,0,14.3,2.8,19.6,8l52.3,52.5
		c7.7,7.7,18,12,28.9,12c0,0,0,0,0,0c10.9,0,21.2-4.3,28.9-12C821.1,986.7,821.1,960.8,805.1,944.8z"/>
	<g>
		<circle class="st5" cx="540" cy="540" r="257.1"/>
	</g>
	<g>
		<circle class="st5" cx="540" cy="543.5" r="257.1"/>
		<g>
			<path class="st4" d="M540,807.3c-36.1,0-71.1-7.1-104-21c-31.8-13.5-60.4-32.7-85-57.3c-24.5-24.5-43.8-53.1-57.3-85
				c-13.9-33-21-68-21-104s7.1-71.1,21-104c13.5-31.8,32.7-60.4,57.3-85c24.5-24.5,53.1-43.8,85-57.3c33-13.9,68-21,104-21
				s71.1,7.1,104,21c31.8,13.5,60.4,32.7,85,57.3c24.5,24.5,43.8,53.1,57.3,85c13.9,33,21,68,21,104s-7.1,71.1-21,104
				c-13.5,31.8-32.7,60.4-57.3,85c-24.5,24.5-53.1,43.8-85,57.3C611.1,800.2,576.1,807.3,540,807.3z M540,299.1
				c-132.8,0-240.9,108.1-240.9,240.9S407.2,780.9,540,780.9S780.9,672.8,780.9,540S672.8,299.1,540,299.1z"/>
		</g>
		<circle class="st5" cx="540" cy="403.3" r="44.1"/>
		<g>
			<path class="st4" d="M540,466.3c-33.6,0-60.9-27.3-60.9-60.9c0-33.6,27.3-60.9,60.9-60.9s60.9,27.3,60.9,60.9
				C600.9,439,573.6,466.3,540,466.3z M540,370.9c-19,0-34.5,15.5-34.5,34.5c0,19,15.5,34.5,34.5,34.5s34.5-15.5,34.5-34.5
				C574.5,386.4,559,370.9,540,370.9z"/>
		</g>
		<g>
			<path class="st4" d="M546.2,725.7c-20,0-32.5-8.2-39.4-15.1c-9.1-9-14.2-21.5-14.2-34.3c0-11.7,5-35.7,13.2-73.9
				c4.4-20.7,9.5-44.2,13.2-64.7c-11.3,6.7-24.8,10.2-39.8,10.2c-7.3,0-13.2-5.9-13.2-13.2s5.9-13.2,13.2-13.2
				c15.7,0,36.4-5.4,45.9-31.2c2.2-6,8.4-9.5,14.7-8.4c6.3,1.1,10.9,6.6,10.9,13c0,24.3-10.1,71.4-19,113
				c-6.2,29-12.6,58.9-12.6,68.4c0,11.1,8.5,23.1,27.3,23.1c27.2,0,30.1-17.8,30.1-25.4c0-7.3,5.9-13.2,13.2-13.2
				c7.3,0,13.2,5.9,13.2,13.2C602.7,699.7,585.2,725.7,546.2,725.7z"/>
		</g>
	</g>
</g>
</svg>
