<?xml version="1.0" encoding="utf-8"?>
<!-- Generator: Adobe Illustrator 25.2.0, SVG Export Plug-In . SVG Version: 6.00 Build 0)  -->
<svg version="1.1" xmlns="http://www.w3.org/2000/svg" xmlns:xlink="http://www.w3.org/1999/xlink" x="0px" y="0px"
	 viewBox="0 0 1080 1080" style="enable-background:new 0 0 1080 1080;" xml:space="preserve">
<style type="text/css">
	.st0{fill:#00FFDA;}
	.st1{fill:#A9FFEE;}
	.st2{fill:#D9FFF8;}
	.st3{fill:#00A585;}
	.st4{fill:#00D6B2;}
	.st5{fill:#FFFFFF;}
	.st6{font-family:'suisse-Black';}
	.st7{font-size:190px;}
	.st8{font-size:150px;}
	.st9{fill:none;stroke:#00FFDA;stroke-width:70;stroke-linecap:round;stroke-miterlimit:10;}
</style>
<g id="COULEURS">
</g>
<g id="Jauge__x2B_accueil">
</g>
<g id="images">
</g>
<g id="TEXTE">
</g>
<g id="jauge">
</g>
<g id="picto_accueil">
</g>
<g id="FOND">
</g>
<g id="PICTOS">
</g>
<g id="bulles_Source__x2B_dico">
</g>
<g id="règles">
</g>
<g id="LOGO">
	<path class="st2" d="M134.1,244.7c-8.5,127-48.4,165-96,309.5C-9.2,697.9,48.2,897.9,199.7,897.9c150.8,0,157.8,165.9,296.3,141.4
		c138.5-24.5,199.8-181.8,357.1-128.7S1032.8,666,985.8,563.6s-26.6-227.3-4.1-250.6s19.2-197-72.1-250.1s-287.1,10.2-411.9,0
		S150.4-0.4,134.1,244.7z"/>
	<text transform="matrix(1 0 0 1 555.5873 282.9476)" class="st0 st6 st7">QUI</text>
	<text transform="matrix(1 0 0 1 407.7509 511.4169)" class="st0 st6 st7">QUOI</text>
	<text transform="matrix(1 0 0 1 395.3446 983.4505)" class="st0 st6 st7">?</text>
	<g>
		<g>
			<circle class="st2" cx="425.1" cy="302.5" r="90.1"/>
			<path class="st4" d="M425.1,406.4c-57.3,0-103.9-46.6-103.9-103.9s46.6-103.9,103.9-103.9c57.3,0,103.9,46.6,103.9,103.9
				S482.4,406.4,425.1,406.4z M425.1,226.2c-42.1,0-76.3,34.2-76.3,76.3s34.2,76.3,76.3,76.3c42.1,0,76.3-34.2,76.3-76.3
				S467.2,226.2,425.1,226.2z"/>
		</g>
		<path class="st4" d="M246.3,486l3.7,4.6c10.4,13,30.4,12.4,40-1.3l71.4-101.8c2.5-3.6,2-8.6-1.3-11.5c0,0-7-19.6-10.3-17l-99,91.6
			C239.5,459.1,237.6,475.1,246.3,486z"/>
		<g>
			<path class="st0" d="M482.6,309.4c-3.8,0-6.9-3.1-6.9-6.9c0-27.9-22.7-50.6-50.6-50.6c-3.8,0-6.9-3.1-6.9-6.9s3.1-6.9,6.9-6.9
				c35.5,0,64.4,28.9,64.4,64.4C489.5,306.3,486.4,309.4,482.6,309.4z"/>
		</g>
		<g>
			<path class="st0" d="M426.4,365.6c-35.5,0-64.4-28.9-64.4-64.4c0-3.8,3.1-6.9,6.9-6.9c3.8,0,6.9,3.1,6.9,6.9
				c0,27.9,22.7,50.6,50.6,50.6c3.8,0,6.9,3.1,6.9,6.9C433.3,362.5,430.2,365.6,426.4,365.6z"/>
		</g>
	</g>
	<text transform="matrix(1 0 0 1 73.6371 746.4979)" class="st0 st6 st8">COMMENT</text>
	<g>
		<g>
			<circle class="st2" cx="713.3" cy="844.7" r="93.1"/>
			<path class="st4" d="M605.9,844.7c0-59.2,48.2-107.4,107.4-107.4c59.2,0,107.4,48.2,107.4,107.4s-48.2,107.4-107.4,107.4
				C654,952.1,605.9,903.9,605.9,844.7z M634.4,844.7c0,43.5,35.4,78.9,78.9,78.9c43.5,0,78.9-35.4,78.9-78.9s-35.4-78.9-78.9-78.9
				C669.8,765.8,634.4,801.2,634.4,844.7z"/>
		</g>
		<path class="st4" d="M898.1,1034.4l-3.8,4.7c-10.8,13.5-31.4,12.8-41.3-1.3l-73.8-105.2c-2.6-3.7-2.1-8.8,1.3-11.9
			c0,0,7.2-20.3,10.7-17.6l102.4,94.7C905.1,1006.5,907.1,1023,898.1,1034.4z"/>
		<g>
			<path class="st0" d="M653.9,851.8c3.9,0,7.1-3.2,7.1-7.1c0-28.8,23.5-52.3,52.3-52.3c3.9,0,7.1-3.2,7.1-7.1
				c0-3.9-3.2-7.1-7.1-7.1c-36.7,0-66.5,29.8-66.5,66.5C646.7,848.6,649.9,851.8,653.9,851.8z"/>
		</g>
		<g>
			<path class="st0" d="M712,909.9c36.7,0,66.5-29.8,66.5-66.5c0-3.9-3.2-7.1-7.1-7.1s-7.1,3.2-7.1,7.1c0,28.8-23.5,52.3-52.3,52.3
				c-3.9,0-7.1,3.2-7.1,7.1C704.8,906.7,708,909.9,712,909.9z"/>
		</g>
	</g>
</g>
</svg>
