<?xml version="1.0" encoding="utf-8"?>
<!-- Generator: Adobe Illustrator 25.2.1, SVG Export Plug-In . SVG Version: 6.00 Build 0)  -->
<svg version="1.1" id="Calque_1" xmlns="http://www.w3.org/2000/svg" xmlns:xlink="http://www.w3.org/1999/xlink" x="0px" y="0px"
	 viewBox="0 0 1080 1080" style="enable-background:new 0 0 1080 1080;" xml:space="preserve">
<style type="text/css">
	.st0{fill:#D9FFF8;}
	.st1{enable-background:new    ;}
	.st2{fill:#00FFDA;}
	.st3{fill:#00D6B2;}
</style>
<g id="COULEURS">
</g>
<g id="Jauge__x2B_accueil">
</g>
<g id="images">
</g>
<g id="TEXTE">
</g>
<g id="jauge">
</g>
<g id="picto_accueil">
</g>
<g id="FOND">
</g>
<g id="PICTOS">
</g>
<g id="bulles_Source__x2B_dico">
</g>
<g id="règles">
</g>
<g id="LOGO">
	<path class="st0" d="M134.1,244.7c-8.5,127-48.4,165-96,309.5C-9.2,697.9,48.2,897.9,199.7,897.9c150.8,0,157.8,165.9,296.3,141.4
		s199.8-181.8,357.1-128.7s179.7-244.6,132.7-347s-26.6-227.3-4.1-250.6s19.2-197-72.1-250.1s-287.1,10.2-411.9,0
		S150.4-0.4,134.1,244.7z"/>
	<g class="st1">
		<path class="st2" d="M681,269.3l13.7,18.8L670.5,305l-16.3-22.2c-6.8,1.7-14.4,2.7-22.2,2.7c-42.2,0-72.2-26.2-72.2-71.6
			c0-45.4,30-71.8,72.2-71.8s72.2,26.4,72.2,71.8C704.2,238.3,695.4,257.1,681,269.3z M632,252.2c16,0,31-11.2,31-38.4
			c0-27.2-15-38.6-31-38.6c-16,0-31,11.4-31,38.6C601,241,616,252.2,632,252.2z"/>
		<path class="st2" d="M758.3,145.2v80.8c0,17.5,5.3,26.2,22.4,26.2s22.4-10.1,22.4-26.2v-80.8h39.7V222c0,42.9-16.7,63.5-61.8,63.5
			c-43.3,0-62.5-16.3-62.5-62.1v-78.1H758.3z"/>
		<path class="st2" d="M905.2,282.9h-39.7V145.2h39.7V282.9z"/>
	</g>
	<g class="st1">
		<path class="st2" d="M533.2,497.7l13.7,18.8l-24.1,16.9l-16.3-22.2c-6.8,1.7-14.4,2.7-22.2,2.7c-42.2,0-72.2-26.2-72.2-71.6
			c0-45.4,30-71.8,72.2-71.8s72.2,26.4,72.2,71.8C556.3,466.8,547.6,485.6,533.2,497.7z M484.1,480.6c16,0,31-11.2,31-38.4
			c0-27.2-15-38.6-31-38.6c-16,0-31,11.4-31,38.6C453.2,469.4,468.2,480.6,484.1,480.6z"/>
		<path class="st2" d="M610.5,373.7v80.8c0,17.5,5.3,26.2,22.4,26.2c17.1,0,22.4-10.1,22.4-26.2v-80.8H695v76.8
			c0,42.9-16.7,63.5-61.8,63.5c-43.3,0-62.5-16.3-62.5-62.1v-78.1H610.5z"/>
		<path class="st2" d="M780.5,513.9c-42.2,0-72.2-26.2-72.2-71.6c0-45.4,30-71.8,72.2-71.8s72.2,26.4,72.2,71.8
			C852.7,487.7,822.7,513.9,780.5,513.9z M780.5,480.6c16,0,31-11.2,31-38.4c0-27.2-15-38.6-31-38.6s-31,11.4-31,38.6
			C749.6,469.4,764.6,480.6,780.5,480.6z"/>
		<path class="st2" d="M909,511.4h-39.7V373.7H909V511.4z"/>
	</g>
	<g class="st1">
		<path class="st2" d="M511.4,879.7c0,19.6-15.6,30.6-27.4,36.3c-12.9,6.3-15.6,8.9-15.6,19.2c0,1,0,2.1,0.2,3.2H429
			c-0.4-3.2-0.6-6.3-0.6-9.1c0-14.6,5.9-24.9,23.9-32.3c10.8-4.6,20-8.9,20-16.5c0-7.2-8.6-9.9-16-9.9c-11.4,0-21.9,6.3-21.9,20
			h-37.6c0-33.8,26-48.1,61.4-48.1C487.1,842.5,511.4,855,511.4,879.7z M428.4,983.5v-39.9h41.2v39.9H428.4z"/>
	</g>
	<g>
		<g>
			<circle class="st0" cx="425.1" cy="302.5" r="90.1"/>
			<path class="st3" d="M425.1,406.4c-57.3,0-103.9-46.6-103.9-103.9s46.6-103.9,103.9-103.9S529,245.2,529,302.5
				S482.4,406.4,425.1,406.4z M425.1,226.2c-42.1,0-76.3,34.2-76.3,76.3s34.2,76.3,76.3,76.3s76.3-34.2,76.3-76.3
				S467.2,226.2,425.1,226.2z"/>
		</g>
		<path class="st3" d="M246.3,486l3.7,4.6c10.4,13,30.4,12.4,40-1.3l71.4-101.8c2.5-3.6,2-8.6-1.3-11.5c0,0-7-19.6-10.3-17l-99,91.6
			C239.5,459.1,237.6,475.1,246.3,486z"/>
		<g>
			<path class="st2" d="M482.6,309.4c-3.8,0-6.9-3.1-6.9-6.9c0-27.9-22.7-50.6-50.6-50.6c-3.8,0-6.9-3.1-6.9-6.9s3.1-6.9,6.9-6.9
				c35.5,0,64.4,28.9,64.4,64.4C489.5,306.3,486.4,309.4,482.6,309.4z"/>
		</g>
		<g>
			<path class="st2" d="M426.4,365.6c-35.5,0-64.4-28.9-64.4-64.4c0-3.8,3.1-6.9,6.9-6.9s6.9,3.1,6.9,6.9
				c0,27.9,22.7,50.6,50.6,50.6c3.8,0,6.9,3.1,6.9,6.9S430.2,365.6,426.4,365.6z"/>
		</g>
	</g>
	<g class="st1">
		<path class="st2" d="M131.8,635.2c27.9,0,49,16,53.4,43.5h-30.9c-2.1-10.5-10-17.2-21.4-17.2c-13.6,0-23.2,10-23.2,30.3
			c0,20.4,9.6,30.4,23.2,30.4c11.4,0,19.8-7,21.9-17.4h30.7c-4.4,27.6-25.8,43.6-53.7,43.6c-33.9,0-54.9-21.3-54.9-56.7
			C76.9,656.5,97.9,635.2,131.8,635.2z"/>
		<path class="st2" d="M250.3,748.4c-33.3,0-57-20.7-57-56.5s23.7-56.7,57-56.7c33.3,0,57,20.8,57,56.7S283.6,748.4,250.3,748.4z
			 M250.3,722.2c12.6,0,24.4-8.8,24.4-30.3s-11.8-30.4-24.4-30.4c-12.6,0-24.4,9-24.4,30.4S237.7,722.2,250.3,722.2z"/>
		<path class="st2" d="M370.5,746.5l-21.9-74.8v74.8h-28.2V637.8h45.9l18.4,67.6l18.1-67.6h45.4v108.7h-28.2v-75.3l-21.6,75.3H370.5
			z"/>
		<path class="st2" d="M517.8,746.5l-21.9-74.8v74.8h-28.2V637.8h45.9l18.4,67.6l18.1-67.6h45.4v108.7h-28.2v-75.3l-21.6,75.3H517.8
			z"/>
		<path class="st2" d="M615,637.8h86.1v26.8h-54.7v13.8h51.9v27h-51.9v14.1h55.3v27H615V637.8z"/>
		<path class="st2" d="M779.7,746.5l-33.3-69.3v69.3h-28.9V637.8H756l33.4,69.1v-69.1h28.9v108.7H779.7z"/>
		<path class="st2" d="M861.1,664.6h-32.4v-26.8H925v26.8h-32.5v81.9h-31.3V664.6z"/>
	</g>
	<g>
		<g>
			<circle class="st0" cx="713.3" cy="844.7" r="93.1"/>
			<path class="st3" d="M605.9,844.7c0-59.2,48.2-107.4,107.4-107.4s107.4,48.2,107.4,107.4s-48.2,107.4-107.4,107.4
				C654,952.1,605.9,903.9,605.9,844.7z M634.4,844.7c0,43.5,35.4,78.9,78.9,78.9s78.9-35.4,78.9-78.9s-35.4-78.9-78.9-78.9
				C669.8,765.8,634.4,801.2,634.4,844.7z"/>
		</g>
		<path class="st3" d="M898.1,1034.4l-3.8,4.7c-10.8,13.5-31.4,12.8-41.3-1.3l-73.8-105.2c-2.6-3.7-2.1-8.8,1.3-11.9
			c0,0,7.2-20.3,10.7-17.6l102.4,94.7C905.1,1006.5,907.1,1023,898.1,1034.4z"/>
		<g>
			<path class="st2" d="M653.9,851.8c3.9,0,7.1-3.2,7.1-7.1c0-28.8,23.5-52.3,52.3-52.3c3.9,0,7.1-3.2,7.1-7.1
				c0-3.9-3.2-7.1-7.1-7.1c-36.7,0-66.5,29.8-66.5,66.5C646.7,848.6,649.9,851.8,653.9,851.8z"/>
		</g>
		<g>
			<path class="st2" d="M712,909.9c36.7,0,66.5-29.8,66.5-66.5c0-3.9-3.2-7.1-7.1-7.1s-7.1,3.2-7.1,7.1c0,28.8-23.5,52.3-52.3,52.3
				c-3.9,0-7.1,3.2-7.1,7.1C704.8,906.7,708,909.9,712,909.9z"/>
		</g>
	</g>
</g>
</svg>
