<?xml version="1.0" encoding="utf-8"?>
<!-- Generator: Adobe Illustrator 25.2.0, SVG Export Plug-In . SVG Version: 6.00 Build 0)  -->
<svg version="1.1" xmlns="http://www.w3.org/2000/svg" xmlns:xlink="http://www.w3.org/1999/xlink" x="0px" y="0px"
	 viewBox="0 0 1080 1080" style="enable-background:new 0 0 1080 1080;" xml:space="preserve">
<style type="text/css">
	.st0{fill:#00FFDA;}
	.st1{fill:#A9FFEE;}
	.st2{fill:#D9FFF8;}
	.st3{fill:#00A585;}
	.st4{fill:#00D6B2;}
	.st5{fill:#FFFFFF;}
	.st6{fill:none;stroke:#00FFDA;stroke-width:70;stroke-linecap:round;stroke-miterlimit:10;}
	.st7{fill:#00DBBF;}
</style>
<g id="COULEURS">
</g>
<g id="Jauge__x2B_accueil">
</g>
<g id="images">
</g>
<g id="TEXTE">
</g>
<g id="jauge">
</g>
<g id="picto_accueil">
</g>
<g id="FOND">
</g>
<g id="PICTOS">
</g>
<g id="bulles_Source__x2B_dico">
</g>
<g id="règles">
</g>
<g id="LOGO">
	<g>
		<path class="st0" d="M438,1037.7c-3.9,3.9-7.2,7.8-7.6,13.2c-0.4,5.6,2.8,10.3,7.7,13.2c16.1,9.8,38,9,53.4-1.8
			c2.4-1.7,4.7-3.6,6.1-6.1c3.5-6,1.5-13.8-2.1-19.9c-3.5-6-8.4-11.3-11-17.8c-0.8-1.9-1.4-4.1-3-5.4c-1.5-1.2-3.5-1.5-5.4-1.6
			c-8.6-0.7-19.2-2.7-25.4,3.9C445.4,1021.3,444.3,1031.3,438,1037.7z"/>
		<path class="st0" d="M632.2,1061.4c3.1,2.6,7.2,3.5,11.2,4.1c17.4,2.7,35.3,2.2,52.5-1.6c8.3-1.8,16.8-4.7,22.5-10.9
			c1.3-1.4,2.4-3,2.6-4.8c0.6-4.9-4.9-8.1-9.6-9.6c-12.6-4.1-26.1-6.2-38.2-11.9c-10.1-4.8-22-23.5-32.5-24.1
			C621.4,1001.4,621.9,1052.7,632.2,1061.4z"/>
		<path class="st2" d="M784.6,383.7c11.6-0.9,24.4-4.3,30.3-14.4c3.3-5.7,3.8-12.7,4.1-19.3c0.1-2.3,0.1-4.8-1.3-6.5
			c-2.1-2.6-6.5-2.2-9.2-0.3c-2.8,2-4.5,5-6.7,7.6c-6.8,8.2-18.7,11.8-29,8.7c-0.5-0.2-1.1-0.3-1.5-0.7c-1.5-1.3-0.3-3.8,1.2-5.2
			c4-3.8,10-7,9.9-12.6c0-1.2-0.4-2.5-1.4-3.1c-1-0.6-2.3-0.4-3.5-0.1c-10.8,2.8-21.1,7.6-30.2,14.1c-8.6,6.2-21.7,20.9-7.6,26.5
			C753.3,384.1,770.3,384.8,784.6,383.7z"/>
		<path class="st2" d="M275.8,235.1c-5.4-10.3-9.2-23.1-3.7-33.4c3.1-5.9,8.8-9.9,14.3-13.6c1.9-1.3,4-2.6,6.2-2.3
			c3.4,0.4,5.3,4.3,5.1,7.7c-0.2,3.4-1.9,6.5-3,9.7c-3.3,10.1-0.1,22.1,7.8,29.2c0.4,0.4,0.8,0.7,1.4,0.9c1.9,0.6,3.4-1.8,3.8-3.8
			c1.1-5.4,0.7-12.2,5.5-15c1-0.6,2.3-0.9,3.4-0.4c1,0.5,1.5,1.8,1.9,2.9c3.4,10.6,4.7,21.9,3.9,33.1c-0.7,10.6-6.3,29.5-18.5,20.5
			C292,262,282.4,247.9,275.8,235.1z"/>
		<path class="st7" d="M564.1,190.7c29.1,10.4,56.9,23.2,80.9,43.1c7.4,6.2,9.9,14.1,10.8,23.5c2.4,25.3,0.7,50.5-0.7,75.8
			c-0.7,12.8-1.2,25.7,0.2,38.5c0.6,6,3.9,8.9,9.5,9.8c10,1.6,19.5-0.8,28.8-4c12.8-4.4,25.4-9.5,36.9-16.6c5.7-3.5,8.2-2.2,10.5,3
			c1.9,5.3,4.4,10.3,7.4,15c1,2.5,0.2,3.9-2.2,5.1c-34,17.8-67.8,36.2-103.7,50c-14.6,5.6-16.9,4.1-20.4-11.1
			c-3.2-14.2-3.4-28.6-3.4-43c0-8.7,0-17.4-0.9-26.4c-2,7.6-4.1,15.2-6.1,22.8c-8.3,31.9-17,63.6-22.2,96.2c-1.6,9.9-2.3,20-1.2,30
			c-3.5,0.1-7,0.4-10.4,0.2c-25.5-1.7-51-3.1-76.4-5.3c-20.6-1.8-41.4-2.5-61.8-6.9c0.3-11.1,0.7-22.2,0.9-33.3
			c0.9-46.3-1.2-92.5-9.3-138.2c-0.4-2.4-0.9-4.7-1.7-8.7c-1.5,3.5-2.5,5.7-3.4,7.9c-10.9,26.4-22.3,52.6-37.9,76.7
			c-3.7,5.7-7.8,11.1-13,15.5c-6.5,5.6-12.8,5.6-19.6,0.3c-4.5-3.5-8-7.9-11.1-12.8c-15.4-24.4-24.6-51.4-33.9-78.5
			c-4.2-12.4-7.7-25-12.4-37.2c-2.2-5.9-2.4-10.2,3.2-13.8c4.8-3,9.1-6.5,13.1-10.4c3.2-2.3,6.3-4.5,9.7-6.9
			c2.6,3.6,3.1,7.8,4.4,11.7c7.5,22.6,15,45.1,25.1,66.7c2.5,5.3,5.2,10.6,9,15.2c3.2,3.8,6.2,3.7,8.8-0.6
			c3.1-5.1,5.1-10.6,7.1-16.2c9.2-26.1,17.3-52.6,27.4-78.5c11.3-29.1,31-46.5,61.5-52.5c12.9-2.6,25.5-5.8,38.8-5.6
			c-0.1,1.7-0.3,3.5-0.3,5.2c0,9.1,6.8,21.1,13.5,23.7c15.2,6,30,0.9,38-13.3C560.7,201.9,563,196.6,564.1,190.7z"/>
		<path class="st2" d="M485.5,142.2c-5.1-32.2-5.4-14.1,1.9-46.8c4.4,6.1,9.3,11.4,14.6,16.4c7.8,7.3,14.1-40.5,24.1-38.8
			c13.2,2.3,26.5,2.8,39.7,3.7c2.7,0.2,5.3,0.1,5,4.1c-1.3,23.1-3.1,46.1-8.2,68.7c-0.3,1.5-0.9,2.8-1.4,4.3
			c-7.3,8-5.3,16.8-2.1,25.7c1.4,3.9,3.3,7.5,5,11.3c-1.1,5.8-3.4,11.2-6.3,16.3c-8,14.2-22.9,19.3-38,13.3
			c-6.7-2.7-13.6-14.6-13.5-23.7c0-1.7,0.2-3.5,0.3-5.2c0.7-7.6-0.7-15.1-1.7-22.6c-0.3-2.1-1.3-3.6-2.9-4.9
			C494.9,157.8,490,150.1,485.5,142.2z"/>
		<g>
			<path class="st7" d="M530.9,188c-43.9-1.2-83.6-70.1-69.6-95.7c8.7-16,34-7.3,54.4-30.5c19.1-21.7,10-44.4,23.9-51.1
				C557,2.3,595.2,26.5,607,58.6C626.3,110.6,578.7,189.4,530.9,188z"/>
			<polygon class="st1" points="541.6,141.2 518.6,141.2 518.6,67.1 522.8,67.1 522.8,137 541.6,137 			"/>
		</g>
		<g>
			<path class="st4" d="M616.3,666.6c-3.4-22.6-5.6-45.4-10.9-67.6c-7.7-31.8-12.6-64.1-17-96.5c-3.5,0.1-7,0.4-10.4,0.2
				c-25.5-1.7-51-3.1-76.4-5.3c-20.6-1.8-41.4-2.5-61.8-6.9c-19.4,80.2-8.7,270.3-8.7,270.3l72.5-20.2L516.5,630l-0.6-0.2
				C549.3,642.1,582.8,654.4,616.3,666.6z"/>
			<path class="st4" d="M632.7,779.6c4.6,32.1,9.2,64.2,13.8,96.3c5.1,35.8,10.2,71.5,15.2,107.3c1.6,11.6,3,23.3,4.5,35
				c-14.9,0-29.7,0-44.6,0c-11.1-38.8-22.1-71.5-31.2-110c-7.7-30.6-14.8-86.1-35.7-167.5c-20-77.9-38.3-110.6-38.3-110.6l99.8,36.6
				L632.7,779.6z"/>
			<path class="st4" d="M431.1,760.9c24.2-6.7,48.4-13.5,72.5-20.2c-0.5,10-1,20-1.7,30c-2,29.7-4.3,59.4-6.2,89.1
				c-1.2,18.9-1.6,37.8-3,56.7c-2.4,33.9-3.2,67.8-5,101.7c-15.3,0-30.6,0-45.9,0L434,901.6C431.2,853.6,430.1,806.5,431.1,760.9"/>
		</g>
		<g>
			<path class="st0" d="M291.1,234.6l-29.6-62c-1.3-2.6-0.4-5.8,2.1-7.4l25-16.4c3.1-2,7.2-0.7,8.6,2.6l24.8,59.5
				c0.9,2.3,0.4,4.9-1.4,6.5l-20.3,18.9C297.5,239.1,292.8,238.2,291.1,234.6z"/>
			<path class="st2" d="M266.9,176l19.8,39.7c1.5,3.1,5.4,4.1,8.3,2.1l16.8-11.5c2.2-1.5,3.1-4.4,2-6.9L295.9,158
				c-1.4-3.3-5.5-4.5-8.5-2.4l-18.8,13.3C266.4,170.4,265.7,173.5,266.9,176z"/>
			<path class="st5" d="M303.2,221.9L303.2,221.9c0.8,1.7,2.9,2.2,4.3,1l1.6-1.4c0.9-0.8,1.2-2,0.7-3.1l-0.4-0.9
				c-0.7-1.6-2.7-2.2-4.1-1.2l-0.8,0.6C302.9,218,302.3,220.1,303.2,221.9z"/>
		</g>
		<path class="st2" d="M303.9,233.5c1.9,0.6,3.4-1.8,3.8-3.8c1.1-5.4,0.7-12.2,5.5-15c1-0.6,2.3-0.9,3.4-0.4c1,0.5,1.5,1.8,1.9,2.9
			c3.4,10.6,4.7,21.9,3.9,33.1c-0.7,10.6-6.3,29.5-18.5,20.5c0,0-4.9-3.9-7.8-6.9C293,260.7,303.9,233.5,303.9,233.5z"/>
	</g>
</g>
</svg>
