<?xml version="1.0" encoding="utf-8"?>
<!-- Generator: Adobe Illustrator 25.2.1, SVG Export Plug-In . SVG Version: 6.00 Build 0)  -->
<svg version="1.1" id="Calque_1" xmlns="http://www.w3.org/2000/svg" xmlns:xlink="http://www.w3.org/1999/xlink" x="0px" y="0px"
	 viewBox="0 0 1080 1080" style="enable-background:new 0 0 1080 1080;" xml:space="preserve">
<style type="text/css">
	.st0{fill:#00FFDA;}
	.st1{fill:#A9FFEE;}
	.st2{enable-background:new    ;}
	.st3{fill:#D9FFF8;}
</style>
<g id="COULEURS">
</g>
<g id="Jauge__x2B_accueil">
</g>
<g id="images">
</g>
<g id="TEXTE">
</g>
<g id="jauge">
</g>
<g id="picto_accueil">
</g>
<g id="FOND">
</g>
<g id="PICTOS">
</g>
<g id="bulles_Source__x2B_dico">
</g>
<g id="règles">
</g>
<path class="st0" d="M177.8,714.4l31,31l24,24c5.4,5.4,5.4,14.2,0,19.7c-2.6,2.6-6.1,4.1-9.8,4.1s-7.2-1.4-9.8-4.1l-13.7-13.7
	c-3.8-3.8-8.8-5.9-14.2-5.9s-10.4,2.1-14.2,5.9c-7.8,7.8-7.8,20.6,0,28.4l2.3,2.3l24,24c0.1,0.1,0.3,0.3,0.5,0.4l32.6,32.6l0,0
	l99.3,99.3l43.9,43.9c3.3,2.2,7.1,3.3,11.1,3.3c5.4,0,10.4-2.1,14.2-5.9c7.8-7.8,7.8-20.6,0-28.4l-1.5-1.5c-5.4-5.4-5.4-14.2,0-19.7
	c2.6-2.6,6.1-4.1,9.8-4.1c3.6,0,7,1.4,9.6,3.9l25.7,25.8c3.8,3.8,8.8,5.9,14.2,5.9l0,0c5.4,0,10.4-2.1,14.2-5.9
	c7.8-7.8,7.8-20.6,0-28.4l-31-31l-24-24c-5.4-5.4-5.4-14.2,0-19.7c2.6-2.6,6.1-4.1,9.8-4.1c3.7,0,7.2,1.4,9.8,4.1l13.7,13.7
	c3.8,3.8,8.8,5.9,14.2,5.9c5.4,0,10.4-2.1,14.2-5.9c7.8-7.8,7.8-20.6,0-28.4l-2.3-2.3l-24-24c-0.1-0.1-0.3-0.3-0.5-0.4l-32.6-32.6
	l0,0L319,703.3l-43.9-43.9c-3.3-2.2-7.1-3.3-11.1-3.3c-5.4,0-10.4,2.1-14.2,5.9c-7.8,7.8-7.8,20.6,0,28.4l1.5,1.5
	c5.4,5.4,5.4,14.2,0,19.7c-2.6,2.6-6.1,4.1-9.8,4.1c-3.6,0-7-1.4-9.6-3.9L206.2,686c-3.8-3.8-8.8-5.9-14.2-5.9l0,0
	c-5.4,0-10.4,2.1-14.2,5.9C170,693.9,170,706.6,177.8,714.4z"/>
<path class="st1" d="M262.3,227.4l31,31l24,24c5.4,5.4,5.4,14.2,0,19.7c-2.6,2.6-6.1,4.1-9.8,4.1c-3.7,0-7.2-1.4-9.8-4.1L284,288.4
	c-3.8-3.8-8.8-5.9-14.2-5.9c-5.4,0-10.4,2.1-14.2,5.9c-7.8,7.8-7.8,20.6,0,28.4l2.3,2.3l24,24c0.1,0.1,0.3,0.3,0.5,0.4l32.6,32.6
	l0,0l99.3,99.3l43.9,43.9c3.3,2.2,7.1,3.3,11.1,3.3c5.4,0,10.4-2.1,14.2-5.9c7.8-7.8,7.8-20.6,0-28.4l-1.5-1.5
	c-5.4-5.4-5.4-14.2,0-19.7c2.6-2.6,6.1-4.1,9.8-4.1c3.6,0,7,1.4,9.6,3.9l25.7,25.8c3.8,3.8,8.8,5.9,14.2,5.9l0,0
	c5.4,0,10.4-2.1,14.2-5.9c7.8-7.8,7.8-20.6,0-28.4l-31-31l-24-24c-5.4-5.4-5.4-14.2,0-19.7c2.6-2.6,6.1-4.1,9.8-4.1
	c3.7,0,7.2,1.4,9.8,4.1l13.7,13.7c3.8,3.8,8.8,5.9,14.2,5.9s10.4-2.1,14.2-5.9c7.8-7.8,7.8-20.6,0-28.4l-2.3-2.3l-24-24
	c-0.1-0.1-0.3-0.3-0.5-0.4l-32.6-32.6l0,0l-99.3-99.3l-43.9-43.9c-3.3-2.2-7.1-3.3-11.1-3.3c-5.4,0-10.4,2.1-14.2,5.9
	c-7.8,7.8-7.8,20.6,0,28.4l1.5,1.5c5.4,5.4,5.4,14.2,0,19.7c-2.6,2.6-6.1,4.1-9.8,4.1c-3.6,0-7-1.4-9.6-3.9L290.6,199
	c-3.8-3.8-8.8-5.9-14.2-5.9l0,0c-5.4,0-10.4,2.1-14.2,5.9C254.5,206.9,254.5,219.6,262.3,227.4z"/>
<path class="st0" d="M402.4,83.1l31,31l24,24c5.4,5.4,5.4,14.2,0,19.7c-2.6,2.6-6.1,4.1-9.8,4.1c-3.7,0-7.2-1.4-9.8-4.1l-13.7-13.7
	c-3.8-3.8-8.8-5.9-14.2-5.9c-5.4,0-10.4,2.1-14.2,5.9c-7.8,7.8-7.8,20.6,0,28.4l2.3,2.3l24,24c0.1,0.1,0.3,0.3,0.5,0.4l32.6,32.6
	l0,0l99.3,99.3l43.9,43.9c3.3,2.2,7.1,3.3,11.1,3.3c5.4,0,10.4-2.1,14.2-5.9c7.8-7.8,7.8-20.6,0-28.4l-1.5-1.5
	c-5.4-5.4-5.4-14.2,0-19.7c2.6-2.6,6.1-4.1,9.8-4.1c3.6,0,7,1.4,9.6,3.9l25.7,25.8c3.8,3.8,8.8,5.9,14.2,5.9l0,0
	c5.4,0,10.4-2.1,14.2-5.9c7.8-7.8,7.8-20.6,0-28.4l-31-31l-24-24c-5.4-5.4-5.4-14.2,0-19.7c2.6-2.6,6.1-4.1,9.8-4.1s7.2,1.4,9.8,4.1
	l13.7,13.7c3.8,3.8,8.8,5.9,14.2,5.9s10.4-2.1,14.2-5.9c7.8-7.8,7.8-20.6,0-28.4l-2.3-2.3l-24-24c-0.1-0.1-0.3-0.3-0.5-0.4
	l-32.6-32.6l0,0L543.6,72l-43.9-43.9c-3.3-2.2-7.1-3.3-11.1-3.3c-5.4,0-10.4,2.1-14.2,5.9c-7.8,7.8-7.8,20.6,0,28.4l1.5,1.5
	c5.4,5.4,5.4,14.2,0,19.7c-2.6,2.6-6.1,4.1-9.8,4.1c-3.6,0-7-1.4-9.6-3.9l-25.7-25.8c-3.8-3.8-8.8-5.9-14.2-5.9l0,0
	c-5.4,0-10.4,2.1-14.2,5.9C394.6,62.6,394.6,75.3,402.4,83.1z"/>
<path class="st1" d="M142.6,487.1l31,31l24,24c5.4,5.4,5.4,14.2,0,19.7c-2.6,2.6-6.1,4.1-9.8,4.1s-7.2-1.4-9.8-4.1l-13.7-13.7
	c-3.8-3.8-8.8-5.9-14.2-5.9s-10.4,2.1-14.2,5.9c-7.8,7.8-7.8,20.6,0,28.4l2.3,2.3l24,24c0.1,0.1,0.3,0.3,0.5,0.4l32.6,32.6l0,0
	l99.3,99.3l43.9,43.9c3.3,2.2,7.1,3.3,11.1,3.3c5.4,0,10.4-2.1,14.2-5.9c7.8-7.8,7.8-20.6,0-28.4l-1.5-1.5c-5.4-5.4-5.4-14.2,0-19.7
	c2.6-2.6,6.1-4.1,9.8-4.1c3.6,0,7,1.4,9.6,3.9l25.7,25.8c3.8,3.8,8.8,5.9,14.2,5.9l0,0c5.4,0,10.4-2.1,14.2-5.9
	c7.8-7.8,7.8-20.6,0-28.4l-31-31l-24-24c-5.4-5.4-5.4-14.2,0-19.7c2.6-2.6,6.1-4.1,9.8-4.1c3.7,0,7.2,1.4,9.8,4.1l13.7,13.7
	c3.8,3.8,8.8,5.9,14.2,5.9c5.4,0,10.4-2.1,14.2-5.9c7.8-7.8,7.8-20.6,0-28.4l-2.3-2.3l-24-24c-0.1-0.1-0.3-0.3-0.5-0.4l-32.6-32.6
	l0,0L283.8,476l-43.9-43.9c-3.3-2.2-7.1-3.3-11.1-3.3c-5.4,0-10.4,2.1-14.2,5.9c-7.8,7.8-7.8,20.6,0,28.4l1.5,1.5
	c5.4,5.4,5.4,14.2,0,19.7c-2.6,2.6-6.1,4.1-9.8,4.1c-3.6,0-7-1.4-9.6-3.9L171,458.7c-3.8-3.8-8.8-5.9-14.2-5.9l0,0
	c-5.4,0-10.4,2.1-14.2,5.9C134.8,466.6,134.8,479.3,142.6,487.1z"/>
<path class="st1" d="M635.3,125.4l31,31l24,24c5.4,5.4,5.4,14.2,0,19.7c-2.6,2.6-6.1,4.1-9.8,4.1s-7.2-1.4-9.8-4.1L657,186.3
	c-3.8-3.8-8.8-5.9-14.2-5.9s-10.4,2.1-14.2,5.9c-7.8,7.8-7.8,20.6,0,28.4l2.3,2.3l24,24c0.1,0.1,0.3,0.3,0.5,0.4L688,274l0,0
	l99.3,99.3l43.9,43.9c3.3,2.2,7.1,3.3,11.1,3.3c5.4,0,10.4-2.1,14.2-5.9c7.8-7.8,7.8-20.6,0-28.4l-1.5-1.5c-5.4-5.4-5.4-14.2,0-19.7
	c2.6-2.6,6.1-4.1,9.8-4.1c3.6,0,7,1.4,9.6,3.9l25.7,25.8c3.8,3.8,8.8,5.9,14.2,5.9l0,0c5.4,0,10.4-2.1,14.2-5.9
	c7.8-7.8,7.8-20.6,0-28.4l-31-31l-24-24c-5.4-5.4-5.4-14.2,0-19.7c2.6-2.6,6.1-4.1,9.8-4.1s7.2,1.4,9.8,4.1l13.7,13.7
	c3.8,3.8,8.8,5.9,14.2,5.9s10.4-2.1,14.2-5.9c7.8-7.8,7.8-20.6,0-28.4l-2.3-2.3l-24-24c-0.1-0.1-0.3-0.3-0.5-0.4l-32.6-32.6l0,0
	l-99.3-99.3l-43.9-43.9c-3.3-2.2-7.1-3.3-11.1-3.3c-5.4,0-10.4,2.1-14.2,5.9c-7.8,7.8-7.8,20.6,0,28.4l1.5,1.5
	c5.4,5.4,5.4,14.2,0,19.7c-2.6,2.6-6.1,4.1-9.8,4.1c-3.6,0-7-1.4-9.6-3.9L663.6,97c-3.8-3.8-8.8-5.9-14.2-5.9l0,0
	c-5.4,0-10.4,2.1-14.2,5.9C627.5,104.8,627.5,117.6,635.3,125.4z"/>
<path class="st0" d="M383,537.7l31,31l24,24c5.4,5.4,5.4,14.2,0,19.7c-2.6,2.6-6.1,4.1-9.8,4.1c-3.7,0-7.2-1.4-9.8-4.1l-13.7-13.7
	c-3.8-3.8-8.8-5.9-14.2-5.9c-5.4,0-10.4,2.1-14.2,5.9c-7.8,7.8-7.8,20.6,0,28.4l2.3,2.3l24,24c0.1,0.1,0.3,0.3,0.5,0.4l32.6,32.6
	l0,0l99.3,99.3l43.9,43.9c3.3,2.2,7.1,3.3,11.1,3.3c5.4,0,10.4-2.1,14.2-5.9c7.8-7.8,7.8-20.6,0-28.4l-1.5-1.5
	c-5.4-5.4-5.4-14.2,0-19.7c2.6-2.6,6.1-4.1,9.8-4.1c3.6,0,7,1.4,9.6,3.9l25.7,25.8c3.8,3.8,8.8,5.9,14.2,5.9l0,0
	c5.4,0,10.4-2.1,14.2-5.9c7.8-7.8,7.8-20.6,0-28.4l-31-31l-24-24c-5.4-5.4-5.4-14.2,0-19.7c2.6-2.6,6.1-4.1,9.8-4.1s7.2,1.4,9.8,4.1
	l13.7,13.7c3.8,3.8,8.8,5.9,14.2,5.9s10.4-2.1,14.2-5.9c7.8-7.8,7.8-20.6,0-28.4l-2.3-2.3l-24-24c-0.1-0.1-0.3-0.3-0.5-0.4
	l-32.6-32.6l0,0L524,526.8l-43.9-43.9c-3.3-2.2-7.1-3.3-11.1-3.3c-5.4,0-10.4,2.1-14.2,5.9c-7.8,7.8-7.8,20.6,0,28.4l1.5,1.5
	c5.4,5.4,5.4,14.2,0,19.7c-2.6,2.6-6.1,4.1-9.8,4.1c-3.6,0-7-1.4-9.6-3.9l-25.7-25.8c-3.8-3.8-8.8-5.9-14.2-5.9l0,0
	c-5.4,0-10.4,2.1-14.2,5.9C375.2,517.2,375.2,529.9,383,537.7z"/>
<path class="st0" d="M756.3,436.6l31,31l24,24c5.4,5.4,5.4,14.2,0,19.7c-2.6,2.6-6.1,4.1-9.8,4.1s-7.2-1.4-9.8-4.1L778,497.5
	c-3.8-3.8-8.8-5.9-14.2-5.9s-10.4,2.1-14.2,5.9c-7.8,7.8-7.8,20.6,0,28.4l2.3,2.3l24,24c0.1,0.1,0.3,0.3,0.5,0.4l32.6,32.6l0,0
	l99.3,99.3l43.9,43.9c3.3,2.2,7.1,3.3,11.1,3.3c5.4,0,10.4-2.1,14.2-5.9c7.8-7.8,7.8-20.6,0-28.4l-1.5-1.5c-5.4-5.4-5.4-14.2,0-19.7
	c2.6-2.6,6.1-4.1,9.8-4.1c3.6,0,7,1.4,9.6,3.9l25.6,26c3.8,3.8,8.8,5.9,14.2,5.9l0,0c5.4,0,10.4-2.1,14.2-5.9
	c7.8-7.8,7.8-20.6,0-28.4l-31-31l-24-24c-5.4-5.4-5.4-14.2,0-19.7c2.6-2.6,6.1-4.1,9.8-4.1s7.2,1.4,9.8,4.1l13.7,13.7
	c3.8,3.8,8.8,5.9,14.2,5.9c5.4,0,10.4-2.1,14.2-5.9c7.8-7.8,7.8-20.6,0-28.4l-2.3-2.3l-24-24c-0.1-0.1-0.3-0.3-0.5-0.4L996.6,525
	l0,0l-99.3-99.3l-43.9-43.9c-3.3-2.2-7.1-3.3-11.1-3.3c-5.4,0-10.4,2.1-14.2,5.9c-7.8,7.8-7.8,20.6,0,28.4l1.5,1.5
	c5.4,5.4,5.4,14.2,0,19.7c-2.6,2.6-6.1,4.1-9.8,4.1c-3.6,0-7-1.4-9.6-3.9l-25.7-25.8c-3.8-3.8-8.8-5.9-14.2-5.9l0,0
	c-5.4,0-10.4,2.1-14.2,5.9C748.5,416,748.5,428.8,756.3,436.6z"/>
<g class="st2">
	<path class="st3" d="M866,493.1h75.3v12.7c-26.8,21.7-43.5,55.3-46,96h-16.5c2.4-39,19.6-72.6,46.6-96H866V493.1z"/>
</g>
<path class="st0" d="M29.9,184.3l31,31l24,24c5.4,5.4,5.4,14.2,0,19.7c-2.6,2.6-6.1,4.1-9.8,4.1c-3.7,0-7.2-1.4-9.8-4.1l-13.7-13.7
	c-3.8-3.8-8.8-5.9-14.2-5.9s-10.4,2.1-14.2,5.9c-7.8,7.8-7.8,20.6,0,28.4l2.3,2.3l24,24c0.1,0.1,0.3,0.3,0.5,0.4L82.6,333l0,0
	l99.3,99.3l43.9,43.9c3.3,2.2,7.1,3.3,11.1,3.3c5.4,0,10.4-2.1,14.2-5.9c7.8-7.8,7.8-20.6,0-28.4l-1.5-1.5c-5.4-5.4-5.4-14.2,0-19.7
	c2.6-2.6,6.1-4.1,9.8-4.1c3.6,0,7,1.4,9.6,3.9l25.7,25.8c3.8,3.8,8.8,5.9,14.2,5.9l0,0c5.4,0,10.4-2.1,14.2-5.9
	c7.8-7.8,7.8-20.6,0-28.4l-31-31l-24-24c-5.4-5.4-5.4-14.2,0-19.7c2.6-2.6,6.1-4.1,9.8-4.1c3.7,0,7.2,1.4,9.8,4.1l13.7,13.7
	c3.8,3.8,8.8,5.9,14.2,5.9c5.4,0,10.4-2.1,14.2-5.9c7.8-7.8,7.8-20.6,0-28.4l-2.3-2.3l-24-24c-0.1-0.1-0.3-0.3-0.5-0.4l-32.6-32.6
	l0,0L171,173.3l-43.9-43.9c-3.3-2.2-7.1-3.3-11.1-3.3c-5.4,0-10.4,2.1-14.2,5.9c-7.8,7.8-7.8,20.6,0,28.4l1.5,1.5
	c5.4,5.4,5.4,14.2,0,19.7c-2.6,2.6-6.1,4.1-9.8,4.1c-3.6,0-7-1.4-9.6-3.9L58.2,156c-3.8-3.8-8.8-5.9-14.2-5.9l0,0
	c-5.4,0-10.4,2.1-14.2,5.9C22.1,163.7,22.1,176.4,29.9,184.3z"/>
<path class="st1" d="M522.9,392.9l31,31l24,24c5.4,5.4,5.4,14.2,0,19.7c-2.6,2.6-6.1,4.1-9.8,4.1s-7.2-1.4-9.8-4.1l-13.7-13.7
	c-3.8-3.8-8.8-5.9-14.2-5.9s-10.4,2.1-14.2,5.9c-7.8,7.8-7.8,20.6,0,28.4l2.3,2.3l24,24c0.1,0.1,0.3,0.3,0.5,0.4l32.6,32.6l0,0
	l99.3,99.3l43.9,43.9c3.3,2.2,7.1,3.3,11.1,3.3c5.4,0,10.4-2.1,14.2-5.9c7.8-7.8,7.8-20.6,0-28.4l-1.5-1.5c-5.4-5.4-5.4-14.2,0-19.7
	c2.6-2.6,6.1-4.1,9.8-4.1c3.6,0,7,1.4,9.6,3.9l25.7,25.8c3.8,3.8,8.8,5.9,14.2,5.9l0,0c5.4,0,10.4-2.1,14.2-5.9
	c7.8-7.8,7.8-20.6,0-28.4l-31-31l-24-24c-5.4-5.4-5.4-14.2,0-19.7c2.6-2.6,6.1-4.1,9.8-4.1s7.2,1.4,9.8,4.1l13.7,13.7
	c3.8,3.8,8.8,5.9,14.2,5.9s10.4-2.1,14.2-5.9c7.8-7.8,7.8-20.6,0-28.4l-2.3-2.3l-24-24c-0.1-0.1-0.3-0.3-0.5-0.4l-32.6-32.6l0,0
	L664,382l-43.9-44c-3.3-2.2-7.1-3.3-11.1-3.3c-5.4,0-10.4,2.1-14.2,5.9c-7.8,7.8-7.8,20.6,0,28.4l1.5,1.5c5.4,5.4,5.4,14.2,0,19.7
	c-2.6,2.6-6.1,4.1-9.8,4.1c-3.6,0-7-1.4-9.6-3.9l-25.7-25.8c-3.8-3.8-8.8-5.9-14.2-5.9l0,0c-5.4,0-10.4,2.1-14.2,5.9
	C515.1,372.3,515.1,385.1,522.9,392.9z"/>
<path class="st0" d="M584.3,740.1l31,31l24,24c5.4,5.4,5.4,14.2,0,19.7c-2.6,2.6-6.1,4.1-9.8,4.1s-7.2-1.4-9.8-4.1L606,801
	c-3.8-3.8-8.8-5.9-14.2-5.9s-10.4,2.1-14.2,5.9c-7.8,7.8-7.8,20.6,0,28.4l2.3,2.3l24,24c0.1,0.1,0.3,0.3,0.5,0.4l32.6,32.6l0,0
	l99.3,99.3l43.9,43.9c3.3,2.2,7.1,3.3,11.1,3.3c5.4,0,10.4-2.1,14.2-5.9c7.8-7.8,7.8-20.6,0-28.4l-1.5-1.5c-5.4-5.4-5.4-14.2,0-19.7
	c2.6-2.6,6.1-4.1,9.8-4.1c3.6,0,7,1.4,9.6,3.9l25.7,25.8c3.8,3.8,8.8,5.9,14.2,5.9l0,0c5.4,0,10.4-2.1,14.2-5.9
	c7.8-7.8,7.8-20.6,0-28.4l-31-31l-24-24c-5.4-5.4-5.4-14.2,0-19.7c2.6-2.6,6.1-4.1,9.8-4.1s7.2,1.4,9.8,4.1l13.7,13.7
	c3.8,3.8,8.8,5.9,14.2,5.9s10.4-2.1,14.2-5.9c7.8-7.8,7.8-20.6,0-28.4l-2.3-2.3l-24-24c-0.1-0.1-0.3-0.3-0.5-0.4l-32.6-32.6l0,0
	l-99.3-99.3L681.6,685c-3.3-2.2-7.1-3.3-11.1-3.3c-5.4,0-10.4,2.1-14.2,5.9c-7.8,7.8-7.8,20.6,0,28.4l1.5,1.5
	c5.4,5.4,5.4,14.2,0,19.7c-2.6,2.6-6.1,4.1-9.8,4.1c-3.6,0-7-1.4-9.6-3.9l-25.7-25.8c-3.8-3.8-8.8-5.9-14.2-5.9l0,0
	c-5.4,0-10.4,2.1-14.2,5.9C576.5,719.5,576.5,732.2,584.3,740.1z"/>
<path class="st1" d="M407.4,753.1l31,31l24,24c5.4,5.4,5.4,14.2,0,19.7c-2.6,2.6-6.1,4.1-9.8,4.1c-3.7,0-7.2-1.4-9.8-4.1L429.1,814
	c-3.8-3.8-8.8-5.9-14.2-5.9c-5.4,0-10.4,2.1-14.2,5.9c-7.8,7.8-7.8,20.6,0,28.4l2.3,2.3l24,24c0.1,0.1,0.3,0.3,0.5,0.4l32.6,32.6
	l0,0l99.3,99.3l43.9,43.9c3.3,2.2,7.1,3.3,11.1,3.3c5.4,0,10.4-2.1,14.2-5.9c7.8-7.8,7.8-20.6,0-28.4l-1.5-1.5
	c-5.4-5.4-5.4-14.2,0-19.7c2.6-2.6,6.1-4.1,9.8-4.1c3.6,0,7,1.4,9.6,3.9l25.7,25.8c3.8,3.8,8.8,5.9,14.2,5.9l0,0
	c5.4,0,10.4-2.1,14.2-5.9c7.8-7.8,7.8-20.6,0-28.4l-31-31l-24-24c-5.4-5.4-5.4-14.2,0-19.7c2.6-2.6,6.1-4.1,9.8-4.1s7.2,1.4,9.8,4.1
	l13.7,13.7c3.8,3.8,8.8,5.9,14.2,5.9s10.4-2.1,14.2-5.9c7.8-7.8,7.8-20.6,0-28.4l-2.3-2.3l-24-24c-0.1-0.1-0.3-0.3-0.5-0.4
	l-32.6-32.6l0,0l-99.3-99.3L504.7,698c-3.3-2.2-7.1-3.3-11.1-3.3c-5.4,0-10.4,2.1-14.2,5.9c-7.8,7.8-7.8,20.6,0,28.4l1.5,1.5
	c5.4,5.4,5.4,14.2,0,19.7c-2.6,2.6-6.1,4.1-9.8,4.1c-3.6,0-7-1.4-9.6-3.9l-25.7-25.8c-3.8-3.8-8.8-5.9-14.2-5.9l0,0
	c-5.4,0-10.4,2.1-14.2,5.9C399.6,732.5,399.6,745.3,407.4,753.1z"/>
<g class="st2">
	<path class="st0" d="M590.2,835.3c0,8.8-4.2,19.2-15,25c14.1,5.7,18.3,17.4,18.3,27.3c0,20.7-17.2,32.5-39.6,32.5
		c-22.5,0-39.7-11.8-39.7-32.5c0-9.9,4.2-21.6,18.4-27.3c-10.8-5.8-15-16.2-15-25c0-16,13.9-27.7,36.3-27.7
		C576.1,807.6,590.2,819.3,590.2,835.3z M528.7,887.7c0,12.7,9.7,21.1,25.2,21.1c15.3,0,25.2-8.4,25.2-21.1
		c0-12.8-9.9-21.6-25.2-21.6C538.5,866.1,528.7,874.9,528.7,887.7z M553.9,819c-13.6,0-22.6,7.2-22.6,18c0,11,9,19,22.6,19
		c13.5,0,22.5-8.1,22.5-19C576.4,826.2,567.4,819,553.9,819z"/>
</g>
<g>
	<path class="st3" d="M334.3,782.9v123.6h-15V798.6h-0.7l-30.2,20v-15.2l30.9-20.5H334.3z"/>
</g>
<g>
	<path class="st0" d="M250.2,664.5v-10.9l40.8-44.7c4.8-5.2,8.7-9.8,11.8-13.7c3.1-3.9,5.4-7.5,6.9-11c1.5-3.4,2.3-7.1,2.3-10.8
		c0-4.3-1-8.1-3.1-11.3c-2.1-3.2-4.9-5.6-8.5-7.4c-3.6-1.7-7.6-2.6-12.1-2.6c-4.8,0-8.9,1-12.4,2.9c-3.5,2-6.2,4.7-8.2,8.2
		c-1.9,3.5-2.9,7.6-2.9,12.3h-14.2c0-7.2,1.7-13.6,5-19.1c3.3-5.5,7.9-9.7,13.7-12.8c5.8-3.1,12.3-4.6,19.5-4.6
		c7.2,0,13.7,1.5,19.3,4.6c5.6,3.1,10,7.2,13.2,12.4c3.2,5.2,4.8,11,4.8,17.3c0,4.5-0.8,9-2.4,13.3c-1.6,4.3-4.4,9.1-8.5,14.4
		c-4,5.3-9.5,11.7-16.6,19.3l-27.8,29.7v1h57.5v13.3H250.2z"/>
</g>
<g>
	<path class="st3" d="M521.5,704.6c-8,0-15.1-1.4-21.3-4.1c-6.2-2.7-11.1-6.6-14.8-11.4c-3.6-4.9-5.6-10.6-5.9-17.1h15.2
		c0.3,4,1.7,7.4,4.1,10.3c2.4,2.9,5.6,5.1,9.5,6.7s8.2,2.4,13,2.4c5.3,0,10-0.9,14.1-2.8c4.1-1.9,7.3-4.4,9.7-7.7
		c2.3-3.3,3.5-7.1,3.5-11.5c0-4.5-1.1-8.6-3.4-12c-2.3-3.5-5.6-6.2-9.9-8.2c-4.3-2-9.7-3-15.9-3h-9.9v-13.3h9.9
		c4.9,0,9.2-0.9,12.9-2.7c3.7-1.8,6.6-4.3,8.8-7.5c2.1-3.2,3.2-7,3.2-11.3c0-4.2-0.9-7.8-2.8-10.9c-1.9-3.1-4.5-5.5-7.8-7.2
		c-3.4-1.7-7.3-2.6-11.9-2.6c-4.3,0-8.3,0.8-12,2.3c-3.8,1.5-6.8,3.8-9.2,6.7c-2.4,2.9-3.7,6.4-3.9,10.5h-14.5
		c0.2-6.5,2.2-12.2,5.9-17.1c3.7-4.9,8.5-8.7,14.4-11.4c5.9-2.7,12.5-4.1,19.6-4.1c7.6,0,14.2,1.5,19.7,4.6
		c5.5,3.1,9.7,7.1,12.6,12.2c2.9,5,4.4,10.5,4.4,16.3c0,7-1.8,12.9-5.5,17.8c-3.6,4.9-8.6,8.3-14.8,10.2v1
		c7.8,1.3,13.9,4.6,18.3,9.9c4.4,5.3,6.6,11.9,6.6,19.8c0,6.7-1.8,12.7-5.5,18.1c-3.6,5.3-8.6,9.5-14.9,12.6
		S529.5,704.6,521.5,704.6z"/>
</g>
<path class="st0" d="M453.6,369h-16.9v-85h-9.2h-5.1h-3.9l-54.3,86v12.3h58.2v25.4h14.2v-25.4h16.9V369z M380.4,368.1l41.1-65h1V369
	h-42V368.1z"/>
<g>
	<path class="st0" d="M668.3,574.1c-7.1,0-13.5-1.4-19.1-4.2s-10.2-6.7-13.6-11.6c-3.4-4.9-5.3-10.5-5.6-16.8h14.5
		c0.6,5.6,3.1,10.2,7.6,13.9s10,5.5,16.3,5.5c5.1,0,9.6-1.2,13.6-3.6c4-2.4,7.1-5.6,9.4-9.8c2.3-4.2,3.4-8.9,3.4-14.2
		c0-5.4-1.2-10.2-3.5-14.5c-2.4-4.2-5.6-7.6-9.7-10.1c-4.1-2.5-8.8-3.7-14.1-3.7c-3.8,0-7.7,0.5-11.7,1.7c-4,1.2-7.3,2.7-9.8,4.6
		l-14-1.7l7.5-60.9h64.2V462h-51.7l-4.3,36.5h0.7c2.5-2,5.7-3.7,9.5-5c3.8-1.3,7.8-2,12-2c7.6,0,14.3,1.8,20.3,5.4
		c5.9,3.6,10.6,8.5,14,14.8c3.4,6.2,5.1,13.4,5.1,21.4c0,7.9-1.8,14.9-5.3,21.1c-3.5,6.2-8.4,11-14.5,14.6
		C683.1,572.3,676.1,574.1,668.3,574.1z"/>
</g>
<g>
	<path class="st3" d="M744.6,929.6c-5.1-0.1-10.1-1-15.2-2.9c-5.1-1.9-9.7-5-13.9-9.4c-4.2-4.4-7.5-10.4-10.1-17.9
		c-2.5-7.5-3.8-17-3.8-28.5c0-10.9,1-20.7,3.1-29.1c2.1-8.5,5-15.6,8.9-21.4c3.9-5.8,8.6-10.2,14.2-13.3c5.5-3,11.8-4.5,18.7-4.5
		c6.9,0,13.1,1.4,18.5,4.1s9.8,6.6,13.3,11.5c3.4,4.9,5.6,10.6,6.6,17h-14.7c-1.4-5.6-4-10.2-8-13.8c-3.9-3.7-9.2-5.5-15.7-5.5
		c-9.6,0-17.1,4.2-22.6,12.5c-5.5,8.3-8.3,20-8.3,35.1h1c2.3-3.4,4.9-6.3,8.1-8.8c3.1-2.4,6.6-4.3,10.4-5.6c3.8-1.3,7.8-2,12-2
		c7.1,0,13.6,1.8,19.4,5.3c5.9,3.5,10.6,8.4,14.1,14.5c3.5,6.2,5.3,13.3,5.3,21.2c0,7.6-1.7,14.6-5.1,21
		c-3.4,6.3-8.2,11.4-14.4,15.1C760.2,927.9,752.9,929.7,744.6,929.6z M744.6,916.3c5.1,0,9.6-1.3,13.7-3.8c4-2.5,7.2-5.9,9.6-10.2
		c2.4-4.3,3.5-9,3.5-14.2c0-5.1-1.1-9.8-3.4-14c-2.3-4.2-5.4-7.6-9.4-10.1c-4-2.5-8.5-3.7-13.6-3.7c-3.8,0-7.4,0.8-10.7,2.3
		c-3.3,1.5-6.2,3.6-8.7,6.2c-2.5,2.6-4.4,5.6-5.8,9c-1.4,3.4-2.1,6.9-2.1,10.6c0,4.9,1.2,9.5,3.5,13.8c2.3,4.3,5.5,7.7,9.5,10.3
		C734.8,915,739.4,916.3,744.6,916.3z"/>
</g>
<g>
	<path class="st3" d="M145.3,364.5l55.3-109.4v-1h-63.8v-13.3h79.2v14L161,364.5H145.3z"/>
</g>
<g>
	<path class="st0" d="M781.9,304.4c-8.3,0-15.6-1.5-21.9-4.4c-6.3-3-11.3-7-14.8-12.3c-3.5-5.2-5.3-11.2-5.3-17.8
		c0-5.2,1-10.1,3.1-14.5c2.1-4.4,5-8.2,8.6-11.2c3.6-3,7.7-4.9,12.2-5.7v-0.7c-5.9-1.5-10.6-4.9-14.1-10c-3.5-5.1-5.2-11-5.2-17.5
		c0-6.3,1.5-11.9,4.8-16.8c3.2-5,7.7-8.9,13.3-11.7s12.1-4.3,19.3-4.3c7.2,0,13.6,1.4,19.2,4.3s10.1,6.8,13.3,11.7
		c3.2,5,4.9,10.6,4.9,16.8c0,6.6-1.8,12.4-5.3,17.5c-3.5,5.1-8.2,8.5-14,10v0.7c4.5,0.8,8.5,2.7,12.1,5.7s6.4,6.7,8.6,11.2
		c2.1,4.4,3.2,9.3,3.3,14.5c0,6.7-1.8,12.6-5.4,17.8c-3.6,5.2-8.5,9.3-14.8,12.3C797.4,302.9,790.2,304.4,781.9,304.4z M781.9,291.1
		c5.6,0,10.4-0.9,14.5-2.7c4.1-1.8,7.2-4.4,9.4-7.7c2.2-3.3,3.3-7.2,3.4-11.6c0-4.7-1.2-8.8-3.6-12.4c-2.4-3.6-5.6-6.4-9.7-8.5
		c-4.1-2.1-8.7-3.1-14-3.1c-5.3,0-10,1-14.1,3.1c-4.1,2.1-7.4,4.9-9.7,8.5s-3.5,7.7-3.5,12.4c0,4.4,1,8.3,3.2,11.6
		c2.2,3.3,5.3,5.9,9.4,7.7C771.4,290.2,776.3,291.1,781.9,291.1z M781.9,232.4c4.4,0,8.4-0.9,11.8-2.7c3.4-1.8,6.1-4.2,8.1-7.4
		c2-3.2,3-6.9,3-11.2c0-4.2-1-7.8-3-11c-1.9-3.1-4.6-5.5-8-7.2c-3.4-1.7-7.4-2.6-12-2.6c-4.6,0-8.7,0.9-12.1,2.6
		c-3.5,1.7-6.1,4.1-8,7.2c-1.9,3.1-2.8,6.8-2.8,11c0,4.3,0.9,8,2.9,11.2c2,3.2,4.7,5.7,8.1,7.4C773.4,231.5,777.4,232.4,781.9,232.4
		z"/>
</g>
<g>
	<path class="st3" d="M548.2,134.2c5.1,0,10.1,1,15.2,2.9c5.1,1.9,9.7,5,13.9,9.4c4.2,4.4,7.5,10.3,10.1,17.8s3.8,17,3.8,28.3
		c0,11-1,20.7-3.1,29.2c-2.1,8.5-5.1,15.7-8.9,21.5c-3.9,5.8-8.6,10.3-14.1,13.3c-5.5,3-11.8,4.5-18.7,4.5c-6.9,0-13.1-1.4-18.5-4.1
		c-5.4-2.8-9.8-6.6-13.3-11.5c-3.4-4.9-5.6-10.7-6.6-17.2h14.7c1.3,5.7,4,10.4,7.9,14c4,3.7,9.2,5.5,15.7,5.5
		c9.5,0,17.1-4.2,22.6-12.5c5.5-8.3,8.3-20.1,8.3-35.3h-1c-2.3,3.4-4.9,6.3-8,8.8c-3.1,2.5-6.5,4.3-10.3,5.7c-3.8,1.3-7.8,2-12.1,2
		c-7.1,0-13.6-1.8-19.5-5.3c-5.9-3.5-10.6-8.4-14.1-14.5c-3.5-6.2-5.3-13.3-5.3-21.2c0-7.6,1.7-14.5,5.1-20.8
		c3.4-6.3,8.2-11.3,14.4-15.1C532.5,135.9,539.8,134.1,548.2,134.2z M548.2,147.5c-5.1,0-9.6,1.3-13.7,3.8c-4,2.5-7.2,5.9-9.6,10.1
		s-3.5,8.9-3.5,14.1c0,5.2,1.1,9.8,3.4,14c2.3,4.2,5.4,7.5,9.4,10c4,2.5,8.5,3.7,13.6,3.7c3.8,0,7.4-0.8,10.7-2.3
		c3.3-1.5,6.2-3.6,8.7-6.2c2.5-2.6,4.4-5.6,5.8-9c1.4-3.4,2.1-6.9,2.1-10.5c0-4.8-1.2-9.4-3.5-13.6c-2.3-4.2-5.5-7.6-9.5-10.3
		C557.9,148.8,553.3,147.5,548.2,147.5z"/>
</g>
</svg>
