<?xml version="1.0" encoding="utf-8"?>
<!-- Generator: Adobe Illustrator 25.2.1, SVG Export Plug-In . SVG Version: 6.00 Build 0)  -->
<svg version="1.1" id="Calque_1" xmlns="http://www.w3.org/2000/svg" xmlns:xlink="http://www.w3.org/1999/xlink" x="0px" y="0px"
	 viewBox="0 0 1080 1080" style="enable-background:new 0 0 1080 1080;" xml:space="preserve">
<style type="text/css">
	.st0{fill:#00FFDA;}
	.st1{enable-background:new    ;}
	.st2{fill:#D9FFF8;}
	.st3{fill:#A9FFEE;}
</style>
<g id="COULEURS">
</g>
<g id="Jauge__x2B_accueil">
</g>
<g id="images">
</g>
<g id="TEXTE">
</g>
<g id="jauge">
</g>
<g id="picto_accueil">
</g>
<g id="FOND">
</g>
<g id="PICTOS">
</g>
<g id="bulles_Source__x2B_dico">
</g>
<g id="règles">
</g>
<g id="LOGO">
	<path class="st0" d="M177.8,714.4l31,31l24,24c5.4,5.4,5.4,14.2,0,19.7c-2.6,2.6-6.1,4.1-9.8,4.1s-7.2-1.4-9.8-4.1l-13.7-13.7
		c-3.8-3.8-8.8-5.9-14.2-5.9s-10.4,2.1-14.2,5.9c-7.8,7.8-7.8,20.6,0,28.4l2.3,2.3l24,24c0.1,0.1,0.3,0.3,0.5,0.4l32.6,32.6l0,0
		l99.3,99.3l43.9,43.9c3.3,2.2,7.1,3.3,11.1,3.3c5.4,0,10.4-2.1,14.2-5.9c7.8-7.8,7.8-20.6,0-28.4l-1.5-1.5
		c-5.4-5.4-5.4-14.2,0-19.7c2.6-2.6,6.1-4.1,9.8-4.1c3.6,0,7,1.4,9.6,3.9l25.7,25.8c3.8,3.8,8.8,5.9,14.2,5.9l0,0
		c5.4,0,10.4-2.1,14.2-5.9c7.8-7.8,7.8-20.6,0-28.4l-31-31l-24-24c-5.4-5.4-5.4-14.2,0-19.7c2.6-2.6,6.1-4.1,9.8-4.1
		c3.7,0,7.2,1.4,9.8,4.1l13.7,13.7c3.8,3.8,8.8,5.9,14.2,5.9c5.4,0,10.4-2.1,14.2-5.9c7.8-7.8,7.8-20.6,0-28.4l-2.3-2.3l-24-24
		c-0.1-0.1-0.3-0.3-0.5-0.4l-32.6-32.6l0,0L319,703.3l-43.9-43.9c-3.3-2.2-7.1-3.3-11.1-3.3c-5.4,0-10.4,2.1-14.2,5.9
		c-7.8,7.8-7.8,20.6,0,28.4l1.5,1.5c5.4,5.4,5.4,14.2,0,19.7c-2.6,2.6-6.1,4.1-9.8,4.1c-3.6,0-7-1.4-9.6-3.9L206.2,686
		c-3.8-3.8-8.8-5.9-14.2-5.9l0,0c-5.4,0-10.4,2.1-14.2,5.9C170,693.9,170,706.6,177.8,714.4z"/>
	<g class="st1">
		<path class="st2" d="M320.7,893.1v-85h-25.2v-9.3c15.6-0.6,23.5-2.6,29.5-14.4h9.3v108.7H320.7z"/>
	</g>
	<path class="st3" d="M262.3,227.4l31,31l24,24c5.4,5.4,5.4,14.2,0,19.7c-2.6,2.6-6.1,4.1-9.8,4.1c-3.7,0-7.2-1.4-9.8-4.1L284,288.4
		c-3.8-3.8-8.8-5.9-14.2-5.9c-5.4,0-10.4,2.1-14.2,5.9c-7.8,7.8-7.8,20.6,0,28.4l2.3,2.3l24,24c0.1,0.1,0.3,0.3,0.5,0.4l32.6,32.6
		l0,0l99.3,99.3l43.9,43.9c3.3,2.2,7.1,3.3,11.1,3.3c5.4,0,10.4-2.1,14.2-5.9c7.8-7.8,7.8-20.6,0-28.4l-1.5-1.5
		c-5.4-5.4-5.4-14.2,0-19.7c2.6-2.6,6.1-4.1,9.8-4.1c3.6,0,7,1.4,9.6,3.9l25.7,25.8c3.8,3.8,8.8,5.9,14.2,5.9l0,0
		c5.4,0,10.4-2.1,14.2-5.9c7.8-7.8,7.8-20.6,0-28.4l-31-31l-24-24c-5.4-5.4-5.4-14.2,0-19.7c2.6-2.6,6.1-4.1,9.8-4.1
		c3.7,0,7.2,1.4,9.8,4.1l13.7,13.7c3.8,3.8,8.8,5.9,14.2,5.9s10.4-2.1,14.2-5.9c7.8-7.8,7.8-20.6,0-28.4l-2.3-2.3l-24-24
		c-0.1-0.1-0.3-0.3-0.5-0.4l-32.6-32.6l0,0l-99.3-99.3l-43.9-43.9c-3.3-2.2-7.1-3.3-11.1-3.3c-5.4,0-10.4,2.1-14.2,5.9
		c-7.8,7.8-7.8,20.6,0,28.4l1.5,1.5c5.4,5.4,5.4,14.2,0,19.7c-2.6,2.6-6.1,4.1-9.8,4.1c-3.6,0-7-1.4-9.6-3.9L290.6,199
		c-3.8-3.8-8.8-5.9-14.2-5.9l0,0c-5.4,0-10.4,2.1-14.2,5.9C254.5,206.9,254.5,219.6,262.3,227.4z"/>
	<g class="st1">
		<path class="st0" d="M452.3,365.8h-19.9v26.8h-13.8v-26.8h-54v-12.9l53.8-69h13.9v69h19.9V365.8z M379.7,352.9h38.8v-50.2
			L379.7,352.9z"/>
	</g>
	<path class="st0" d="M402.4,83.1l31,31l24,24c5.4,5.4,5.4,14.2,0,19.7c-2.6,2.6-6.1,4.1-9.8,4.1c-3.7,0-7.2-1.4-9.8-4.1l-13.7-13.7
		c-3.8-3.8-8.8-5.9-14.2-5.9c-5.4,0-10.4,2.1-14.2,5.9c-7.8,7.8-7.8,20.6,0,28.4l2.3,2.3l24,24c0.1,0.1,0.3,0.3,0.5,0.4l32.6,32.6
		l0,0l99.3,99.3l43.9,43.9c3.3,2.2,7.1,3.3,11.1,3.3c5.4,0,10.4-2.1,14.2-5.9c7.8-7.8,7.8-20.6,0-28.4l-1.5-1.5
		c-5.4-5.4-5.4-14.2,0-19.7c2.6-2.6,6.1-4.1,9.8-4.1c3.6,0,7,1.4,9.6,3.9l25.7,25.8c3.8,3.8,8.8,5.9,14.2,5.9l0,0
		c5.4,0,10.4-2.1,14.2-5.9c7.8-7.8,7.8-20.6,0-28.4l-31-31l-24-24c-5.4-5.4-5.4-14.2,0-19.7c2.6-2.6,6.1-4.1,9.8-4.1
		s7.2,1.4,9.8,4.1l13.7,13.7c3.8,3.8,8.8,5.9,14.2,5.9s10.4-2.1,14.2-5.9c7.8-7.8,7.8-20.6,0-28.4l-2.3-2.3l-24-24
		c-0.1-0.1-0.3-0.3-0.5-0.4l-32.6-32.6l0,0L543.6,72l-43.9-43.9c-3.3-2.2-7.1-3.3-11.1-3.3c-5.4,0-10.4,2.1-14.2,5.9
		c-7.8,7.8-7.8,20.6,0,28.4l1.5,1.5c5.4,5.4,5.4,14.2,0,19.7c-2.6,2.6-6.1,4.1-9.8,4.1c-3.6,0-7-1.4-9.6-3.9l-25.7-25.8
		c-3.8-3.8-8.8-5.9-14.2-5.9l0,0c-5.4,0-10.4,2.1-14.2,5.9C394.6,62.6,394.6,75.3,402.4,83.1z"/>
	<g class="st1">
		<path class="st2" d="M573.2,196.9c-5,8.5-14.4,15.1-28.8,15.1c-20.1,0-34.9-15.1-34.9-37c0-20.1,15-37.3,38.2-37.3
			c27.1,0,39.6,18.9,39.6,52.5c0,30.7-11.1,60.1-42.4,60.1c-21.3,0-31.3-13.3-33.6-27.1h14.8c1.8,9.8,9.1,15.8,20.2,15.8
			C563.2,238.9,572.5,222.1,573.2,196.9z M547.9,149c-14.1,0-23.8,10.5-23.8,25.3s9.6,25.6,23.7,25.6c14.2,0,23.7-10.8,23.7-25.6
			C571.4,159.4,562.3,149,547.9,149z"/>
	</g>
	<path class="st3" d="M142.6,487.1l31,31l24,24c5.4,5.4,5.4,14.2,0,19.7c-2.6,2.6-6.1,4.1-9.8,4.1s-7.2-1.4-9.8-4.1l-13.7-13.7
		c-3.8-3.8-8.8-5.9-14.2-5.9s-10.4,2.1-14.2,5.9c-7.8,7.8-7.8,20.6,0,28.4l2.3,2.3l24,24c0.1,0.1,0.3,0.3,0.5,0.4l32.6,32.6l0,0
		l99.3,99.3l43.9,43.9c3.3,2.2,7.1,3.3,11.1,3.3c5.4,0,10.4-2.1,14.2-5.9c7.8-7.8,7.8-20.6,0-28.4l-1.5-1.5
		c-5.4-5.4-5.4-14.2,0-19.7c2.6-2.6,6.1-4.1,9.8-4.1c3.6,0,7,1.4,9.6,3.9l25.7,25.8c3.8,3.8,8.8,5.9,14.2,5.9l0,0
		c5.4,0,10.4-2.1,14.2-5.9c7.8-7.8,7.8-20.6,0-28.4l-31-31l-24-24c-5.4-5.4-5.4-14.2,0-19.7c2.6-2.6,6.1-4.1,9.8-4.1
		c3.7,0,7.2,1.4,9.8,4.1l13.7,13.7c3.8,3.8,8.8,5.9,14.2,5.9c5.4,0,10.4-2.1,14.2-5.9c7.8-7.8,7.8-20.6,0-28.4l-2.3-2.3l-24-24
		c-0.1-0.1-0.3-0.3-0.5-0.4l-32.6-32.6l0,0L283.8,476l-43.9-43.9c-3.3-2.2-7.1-3.3-11.1-3.3c-5.4,0-10.4,2.1-14.2,5.9
		c-7.8,7.8-7.8,20.6,0,28.4l1.5,1.5c5.4,5.4,5.4,14.2,0,19.7c-2.6,2.6-6.1,4.1-9.8,4.1c-3.6,0-7-1.4-9.6-3.9L171,458.7
		c-3.8-3.8-8.8-5.9-14.2-5.9l0,0c-5.4,0-10.4,2.1-14.2,5.9C134.8,466.6,134.8,479.3,142.6,487.1z"/>
	<g class="st1">
		<path class="st0" d="M324.6,570.1c0,25.2-26.2,47.5-56.7,69.4h59.7v12.8h-78.3V640c38.4-28.3,60.9-48.9,60.9-68.1
			c0-11.2-7.5-18.9-20.4-18.9c-11.7,0-23.1,6.4-23.4,24.4h-14.1c-0.3-21.6,14.7-35.8,37.8-35.8C310.2,541.6,324.6,551.8,324.6,570.1
			z"/>
	</g>
	<path class="st3" d="M635.3,125.4l31,31l24,24c5.4,5.4,5.4,14.2,0,19.7c-2.6,2.6-6.1,4.1-9.8,4.1s-7.2-1.4-9.8-4.1L657,186.3
		c-3.8-3.8-8.8-5.9-14.2-5.9s-10.4,2.1-14.2,5.9c-7.8,7.8-7.8,20.6,0,28.4l2.3,2.3l24,24c0.1,0.1,0.3,0.3,0.5,0.4L688,274l0,0
		l99.3,99.3l43.9,43.9c3.3,2.2,7.1,3.3,11.1,3.3c5.4,0,10.4-2.1,14.2-5.9c7.8-7.8,7.8-20.6,0-28.4l-1.5-1.5
		c-5.4-5.4-5.4-14.2,0-19.7c2.6-2.6,6.1-4.1,9.8-4.1c3.6,0,7,1.4,9.6,3.9l25.7,25.8c3.8,3.8,8.8,5.9,14.2,5.9l0,0
		c5.4,0,10.4-2.1,14.2-5.9c7.8-7.8,7.8-20.6,0-28.4l-31-31l-24-24c-5.4-5.4-5.4-14.2,0-19.7c2.6-2.6,6.1-4.1,9.8-4.1
		s7.2,1.4,9.8,4.1l13.7,13.7c3.8,3.8,8.8,5.9,14.2,5.9s10.4-2.1,14.2-5.9c7.8-7.8,7.8-20.6,0-28.4l-2.3-2.3l-24-24
		c-0.1-0.1-0.3-0.3-0.5-0.4l-32.6-32.6l0,0l-99.3-99.3l-43.9-43.9c-3.3-2.2-7.1-3.3-11.1-3.3c-5.4,0-10.4,2.1-14.2,5.9
		c-7.8,7.8-7.8,20.6,0,28.4l1.5,1.5c5.4,5.4,5.4,14.2,0,19.7c-2.6,2.6-6.1,4.1-9.8,4.1c-3.6,0-7-1.4-9.6-3.9L663.6,97
		c-3.8-3.8-8.8-5.9-14.2-5.9l0,0c-5.4,0-10.4,2.1-14.2,5.9C627.5,104.8,627.5,117.6,635.3,125.4z"/>
	<g class="st1">
		<path class="st0" d="M818.1,207.6c0,8.8-4.2,19.2-15,25c14.1,5.7,18.3,17.4,18.3,27.3c0,20.7-17.2,32.5-39.6,32.5
			c-22.5,0-39.7-11.8-39.7-32.5c0-9.9,4.2-21.6,18.4-27.3c-10.8-5.8-15-16.2-15-25c0-16,13.9-27.7,36.3-27.7
			C804,179.9,818.1,191.6,818.1,207.6z M756.6,260c0,12.7,9.7,21.1,25.2,21.1c15.3,0,25.2-8.4,25.2-21.1c0-12.8-9.9-21.6-25.2-21.6
			C766.3,238.4,756.6,247.2,756.6,260z M781.8,191.3c-13.6,0-22.6,7.2-22.6,18c0,11,9,19,22.6,19c13.5,0,22.5-8.1,22.5-19
			C804.3,198.5,795.3,191.3,781.8,191.3z"/>
	</g>
	<path class="st0" d="M383,537.7l31,31l24,24c5.4,5.4,5.4,14.2,0,19.7c-2.6,2.6-6.1,4.1-9.8,4.1c-3.7,0-7.2-1.4-9.8-4.1l-13.7-13.7
		c-3.8-3.8-8.8-5.9-14.2-5.9c-5.4,0-10.4,2.1-14.2,5.9c-7.8,7.8-7.8,20.6,0,28.4l2.3,2.3l24,24c0.1,0.1,0.3,0.3,0.5,0.4l32.6,32.6
		l0,0l99.3,99.3l43.9,43.9c3.3,2.2,7.1,3.3,11.1,3.3c5.4,0,10.4-2.1,14.2-5.9c7.8-7.8,7.8-20.6,0-28.4l-1.5-1.5
		c-5.4-5.4-5.4-14.2,0-19.7c2.6-2.6,6.1-4.1,9.8-4.1c3.6,0,7,1.4,9.6,3.9l25.7,25.8c3.8,3.8,8.8,5.9,14.2,5.9l0,0
		c5.4,0,10.4-2.1,14.2-5.9c7.8-7.8,7.8-20.6,0-28.4l-31-31l-24-24c-5.4-5.4-5.4-14.2,0-19.7c2.6-2.6,6.1-4.1,9.8-4.1
		s7.2,1.4,9.8,4.1l13.7,13.7c3.8,3.8,8.8,5.9,14.2,5.9s10.4-2.1,14.2-5.9c7.8-7.8,7.8-20.6,0-28.4l-2.3-2.3l-24-24
		c-0.1-0.1-0.3-0.3-0.5-0.4l-32.6-32.6l0,0L524,526.8l-43.9-43.9c-3.3-2.2-7.1-3.3-11.1-3.3c-5.4,0-10.4,2.1-14.2,5.9
		c-7.8,7.8-7.8,20.6,0,28.4l1.5,1.5c5.4,5.4,5.4,14.2,0,19.7c-2.6,2.6-6.1,4.1-9.8,4.1c-3.6,0-7-1.4-9.6-3.9l-25.7-25.8
		c-3.8-3.8-8.8-5.9-14.2-5.9l0,0c-5.4,0-10.4,2.1-14.2,5.9C375.2,517.2,375.2,529.9,383,537.7z"/>
	<g class="st1">
		<path class="st2" d="M552.4,672.5c0-15.6-14-20.7-31.3-20.7h-2.2v-12.5h1.8c18.9,0,28.9-5.2,28.9-18c0-11.7-9.6-17.7-21.1-17.7
			c-14.5,0-22.5,8.8-23.7,21.1h-14.1c1.6-19.2,15.3-32.5,38.1-32.5c18.9,0,35.2,7.5,35.2,27.6c0,11.1-6.3,20.5-17.7,25.2
			c16.2,5.1,20.7,15.9,20.7,27.3c0,21.9-18.6,32.5-39.3,32.5c-25.5,0-37.2-15.9-38.7-34H503c1.5,13.3,9.4,22.6,24.7,22.6
			C542.2,693.5,552.4,686,552.4,672.5z"/>
	</g>
	<path class="st0" d="M756.3,436.6l31,31l24,24c5.4,5.4,5.4,14.2,0,19.7c-2.6,2.6-6.1,4.1-9.8,4.1s-7.2-1.4-9.8-4.1L778,497.5
		c-3.8-3.8-8.8-5.9-14.2-5.9s-10.4,2.1-14.2,5.9c-7.8,7.8-7.8,20.6,0,28.4l2.3,2.3l24,24c0.1,0.1,0.3,0.3,0.5,0.4l32.6,32.6l0,0
		l99.3,99.3l43.9,43.9c3.3,2.2,7.1,3.3,11.1,3.3c5.4,0,10.4-2.1,14.2-5.9c7.8-7.8,7.8-20.6,0-28.4l-1.5-1.5
		c-5.4-5.4-5.4-14.2,0-19.7c2.6-2.6,6.1-4.1,9.8-4.1c3.6,0,7,1.4,9.6,3.9l25.6,26c3.8,3.8,8.8,5.9,14.2,5.9l0,0
		c5.4,0,10.4-2.1,14.2-5.9c7.8-7.8,7.8-20.6,0-28.4l-31-31l-24-24c-5.4-5.4-5.4-14.2,0-19.7c2.6-2.6,6.1-4.1,9.8-4.1
		s7.2,1.4,9.8,4.1l13.7,13.7c3.8,3.8,8.8,5.9,14.2,5.9c5.4,0,10.4-2.1,14.2-5.9c7.8-7.8,7.8-20.6,0-28.4l-2.3-2.3l-24-24
		c-0.1-0.1-0.3-0.3-0.5-0.4L996.6,525l0,0l-99.3-99.3l-43.9-43.9c-3.3-2.2-7.1-3.3-11.1-3.3c-5.4,0-10.4,2.1-14.2,5.9
		c-7.8,7.8-7.8,20.6,0,28.4l1.5,1.5c5.4,5.4,5.4,14.2,0,19.7c-2.6,2.6-6.1,4.1-9.8,4.1c-3.6,0-7-1.4-9.6-3.9l-25.7-25.8
		c-3.8-3.8-8.8-5.9-14.2-5.9l0,0c-5.4,0-10.4,2.1-14.2,5.9C748.5,416,748.5,428.8,756.3,436.6z"/>
	<g class="st1">
		<path class="st2" d="M866,493.1h75.3v12.7c-26.8,21.7-43.5,55.3-46,96h-16.5c2.4-39,19.6-72.6,46.6-96H866V493.1z"/>
	</g>
	<path class="st0" d="M29.9,184.3l31,31l24,24c5.4,5.4,5.4,14.2,0,19.7c-2.6,2.6-6.1,4.1-9.8,4.1c-3.7,0-7.2-1.4-9.8-4.1l-13.7-13.7
		c-3.8-3.8-8.8-5.9-14.2-5.9s-10.4,2.1-14.2,5.9c-7.8,7.8-7.8,20.6,0,28.4l2.3,2.3l24,24c0.1,0.1,0.3,0.3,0.5,0.4L82.6,333l0,0
		l99.3,99.3l43.9,43.9c3.3,2.2,7.1,3.3,11.1,3.3c5.4,0,10.4-2.1,14.2-5.9c7.8-7.8,7.8-20.6,0-28.4l-1.5-1.5
		c-5.4-5.4-5.4-14.2,0-19.7c2.6-2.6,6.1-4.1,9.8-4.1c3.6,0,7,1.4,9.6,3.9l25.7,25.8c3.8,3.8,8.8,5.9,14.2,5.9l0,0
		c5.4,0,10.4-2.1,14.2-5.9c7.8-7.8,7.8-20.6,0-28.4l-31-31l-24-24c-5.4-5.4-5.4-14.2,0-19.7c2.6-2.6,6.1-4.1,9.8-4.1
		c3.7,0,7.2,1.4,9.8,4.1l13.7,13.7c3.8,3.8,8.8,5.9,14.2,5.9c5.4,0,10.4-2.1,14.2-5.9c7.8-7.8,7.8-20.6,0-28.4l-2.3-2.3l-24-24
		c-0.1-0.1-0.3-0.3-0.5-0.4l-32.6-32.6l0,0L171,173.3l-43.9-43.9c-3.3-2.2-7.1-3.3-11.1-3.3c-5.4,0-10.4,2.1-14.2,5.9
		c-7.8,7.8-7.8,20.6,0,28.4l1.5,1.5c5.4,5.4,5.4,14.2,0,19.7c-2.6,2.6-6.1,4.1-9.8,4.1c-3.6,0-7-1.4-9.6-3.9L58.2,156
		c-3.8-3.8-8.8-5.9-14.2-5.9l0,0c-5.4,0-10.4,2.1-14.2,5.9C22.1,163.7,22.1,176.4,29.9,184.3z"/>
	<g class="st1">
		<path class="st2" d="M139.6,240.7h75.3v12.7c-26.8,21.7-43.5,55.3-46,96h-16.5c2.4-39,19.6-72.6,46.6-96h-59.4V240.7z"/>
	</g>
	<path class="st3" d="M522.9,392.9l31,31l24,24c5.4,5.4,5.4,14.2,0,19.7c-2.6,2.6-6.1,4.1-9.8,4.1s-7.2-1.4-9.8-4.1l-13.7-13.7
		c-3.8-3.8-8.8-5.9-14.2-5.9s-10.4,2.1-14.2,5.9c-7.8,7.8-7.8,20.6,0,28.4l2.3,2.3l24,24c0.1,0.1,0.3,0.3,0.5,0.4l32.6,32.6l0,0
		l99.3,99.3l43.9,43.9c3.3,2.2,7.1,3.3,11.1,3.3c5.4,0,10.4-2.1,14.2-5.9c7.8-7.8,7.8-20.6,0-28.4l-1.5-1.5
		c-5.4-5.4-5.4-14.2,0-19.7c2.6-2.6,6.1-4.1,9.8-4.1c3.6,0,7,1.4,9.6,3.9l25.7,25.8c3.8,3.8,8.8,5.9,14.2,5.9l0,0
		c5.4,0,10.4-2.1,14.2-5.9c7.8-7.8,7.8-20.6,0-28.4l-31-31l-24-24c-5.4-5.4-5.4-14.2,0-19.7c2.6-2.6,6.1-4.1,9.8-4.1
		s7.2,1.4,9.8,4.1l13.7,13.7c3.8,3.8,8.8,5.9,14.2,5.9s10.4-2.1,14.2-5.9c7.8-7.8,7.8-20.6,0-28.4l-2.3-2.3l-24-24
		c-0.1-0.1-0.3-0.3-0.5-0.4l-32.6-32.6l0,0L664,382l-43.9-44c-3.3-2.2-7.1-3.3-11.1-3.3c-5.4,0-10.4,2.1-14.2,5.9
		c-7.8,7.8-7.8,20.6,0,28.4l1.5,1.5c5.4,5.4,5.4,14.2,0,19.7c-2.6,2.6-6.1,4.1-9.8,4.1c-3.6,0-7-1.4-9.6-3.9l-25.7-25.8
		c-3.8-3.8-8.8-5.9-14.2-5.9l0,0c-5.4,0-10.4,2.1-14.2,5.9C515.1,372.3,515.1,385.1,522.9,392.9z"/>
	<g class="st1">
		<path class="st0" d="M693.5,522.4c0-18-12.6-25.8-24.4-25.8c-11.2,0-18.6,6.6-21,12l-13.6-0.8l7-58.5h62.4v12.7h-51.3l-3.8,30.9
			c5.7-5.5,14.4-8.2,23.4-8.2c19,0,35.7,13.5,35.7,37.5c0,24.9-18.4,37.8-38.7,37.8c-25.2,0-36.6-15.9-38.7-33.4h14.1
			c2.1,13.6,9.4,22.1,24.6,22.1C682.3,548.7,693.5,539.2,693.5,522.4z"/>
	</g>
	<path class="st0" d="M584.3,740.1l31,31l24,24c5.4,5.4,5.4,14.2,0,19.7c-2.6,2.6-6.1,4.1-9.8,4.1s-7.2-1.4-9.8-4.1L606,801
		c-3.8-3.8-8.8-5.9-14.2-5.9s-10.4,2.1-14.2,5.9c-7.8,7.8-7.8,20.6,0,28.4l2.3,2.3l24,24c0.1,0.1,0.3,0.3,0.5,0.4l32.6,32.6l0,0
		l99.3,99.3l43.9,43.9c3.3,2.2,7.1,3.3,11.1,3.3c5.4,0,10.4-2.1,14.2-5.9c7.8-7.8,7.8-20.6,0-28.4l-1.5-1.5
		c-5.4-5.4-5.4-14.2,0-19.7c2.6-2.6,6.1-4.1,9.8-4.1c3.6,0,7,1.4,9.6,3.9l25.7,25.8c3.8,3.8,8.8,5.9,14.2,5.9l0,0
		c5.4,0,10.4-2.1,14.2-5.9c7.8-7.8,7.8-20.6,0-28.4l-31-31l-24-24c-5.4-5.4-5.4-14.2,0-19.7c2.6-2.6,6.1-4.1,9.8-4.1
		s7.2,1.4,9.8,4.1l13.7,13.7c3.8,3.8,8.8,5.9,14.2,5.9s10.4-2.1,14.2-5.9c7.8-7.8,7.8-20.6,0-28.4l-2.3-2.3l-24-24
		c-0.1-0.1-0.3-0.3-0.5-0.4l-32.6-32.6l0,0l-99.3-99.3L681.6,685c-3.3-2.2-7.1-3.3-11.1-3.3c-5.4,0-10.4,2.1-14.2,5.9
		c-7.8,7.8-7.8,20.6,0,28.4l1.5,1.5c5.4,5.4,5.4,14.2,0,19.7c-2.6,2.6-6.1,4.1-9.8,4.1c-3.6,0-7-1.4-9.6-3.9l-25.7-25.8
		c-3.8-3.8-8.8-5.9-14.2-5.9l0,0c-5.4,0-10.4,2.1-14.2,5.9C576.5,719.5,576.5,732.2,584.3,740.1z"/>
	<g class="st1">
		<path class="st2" d="M706,848c4.9-8.5,14.2-15.1,28.6-15.1c20.2,0,35.1,15.1,35.1,36.9c0,20.2-15,37.5-38.2,37.5
			c-27.1,0-39.6-18.9-39.6-52.5c0-30.7,10.9-60.1,42.4-60.1c21.3,0,31.3,13.3,33.6,27.1h-14.8c-1.8-9.7-9.3-15.7-20.4-15.7
			C715.9,806,706.7,822.8,706,848z M731.3,895.8c13.9,0,23.8-10.5,23.8-25.3s-9.7-25.8-23.7-25.8c-14.2,0-23.8,10.9-23.8,25.8
			C707.6,885.5,716.9,895.8,731.3,895.8z"/>
	</g>
	<path class="st3" d="M407.4,753.1l31,31l24,24c5.4,5.4,5.4,14.2,0,19.7c-2.6,2.6-6.1,4.1-9.8,4.1c-3.7,0-7.2-1.4-9.8-4.1L429.1,814
		c-3.8-3.8-8.8-5.9-14.2-5.9c-5.4,0-10.4,2.1-14.2,5.9c-7.8,7.8-7.8,20.6,0,28.4l2.3,2.3l24,24c0.1,0.1,0.3,0.3,0.5,0.4l32.6,32.6
		l0,0l99.3,99.3l43.9,43.9c3.3,2.2,7.1,3.3,11.1,3.3c5.4,0,10.4-2.1,14.2-5.9c7.8-7.8,7.8-20.6,0-28.4l-1.5-1.5
		c-5.4-5.4-5.4-14.2,0-19.7c2.6-2.6,6.1-4.1,9.8-4.1c3.6,0,7,1.4,9.6,3.9l25.7,25.8c3.8,3.8,8.8,5.9,14.2,5.9l0,0
		c5.4,0,10.4-2.1,14.2-5.9c7.8-7.8,7.8-20.6,0-28.4l-31-31l-24-24c-5.4-5.4-5.4-14.2,0-19.7c2.6-2.6,6.1-4.1,9.8-4.1
		s7.2,1.4,9.8,4.1l13.7,13.7c3.8,3.8,8.8,5.9,14.2,5.9s10.4-2.1,14.2-5.9c7.8-7.8,7.8-20.6,0-28.4l-2.3-2.3l-24-24
		c-0.1-0.1-0.3-0.3-0.5-0.4l-32.6-32.6l0,0l-99.3-99.3L504.7,698c-3.3-2.2-7.1-3.3-11.1-3.3c-5.4,0-10.4,2.1-14.2,5.9
		c-7.8,7.8-7.8,20.6,0,28.4l1.5,1.5c5.4,5.4,5.4,14.2,0,19.7c-2.6,2.6-6.1,4.1-9.8,4.1c-3.6,0-7-1.4-9.6-3.9l-25.7-25.8
		c-3.8-3.8-8.8-5.9-14.2-5.9l0,0c-5.4,0-10.4,2.1-14.2,5.9C399.6,732.5,399.6,745.3,407.4,753.1z"/>
	<g class="st1">
		<path class="st0" d="M590.2,835.3c0,8.8-4.2,19.2-15,25c14.1,5.7,18.3,17.4,18.3,27.3c0,20.7-17.2,32.5-39.6,32.5
			c-22.5,0-39.7-11.8-39.7-32.5c0-9.9,4.2-21.6,18.4-27.3c-10.8-5.8-15-16.2-15-25c0-16,13.9-27.7,36.3-27.7
			C576.1,807.6,590.2,819.3,590.2,835.3z M528.7,887.7c0,12.7,9.7,21.1,25.2,21.1c15.3,0,25.2-8.4,25.2-21.1
			c0-12.8-9.9-21.6-25.2-21.6C538.5,866.1,528.7,874.9,528.7,887.7z M553.9,819c-13.6,0-22.6,7.2-22.6,18c0,11,9,19,22.6,19
			c13.5,0,22.5-8.1,22.5-19C576.4,826.2,567.4,819,553.9,819z"/>
	</g>
</g>
</svg>
