<?xml version="1.0" encoding="utf-8"?>
<!-- Generator: Adobe Illustrator 25.2.0, SVG Export Plug-In . SVG Version: 6.00 Build 0)  -->
<svg version="1.1" xmlns="http://www.w3.org/2000/svg" xmlns:xlink="http://www.w3.org/1999/xlink" x="0px" y="0px"
	 viewBox="0 0 1080 1080" style="enable-background:new 0 0 1080 1080;" xml:space="preserve">
<style type="text/css">
	.st0{fill:#00FFDA;}
	.st1{fill:#A9FFEE;}
	.st2{fill:#D9FFF8;}
	.st3{fill:#00A585;}
	.st4{fill:#00D6B2;}
	.st5{fill:#FFFFFF;}
	.st6{font-family:'suisse';}
	.st7{font-size:150px;}
	.st8{fill:none;stroke:#00FFDA;stroke-width:70;stroke-linecap:round;stroke-miterlimit:10;}
</style>
<g id="COULEURS">
</g>
<g id="Jauge__x2B_accueil">
</g>
<g id="images">
</g>
<g id="TEXTE">
</g>
<g id="jauge">
</g>
<g id="picto_accueil">
</g>
<g id="FOND">
</g>
<g id="PICTOS">
</g>
<g id="bulles_Source__x2B_dico">
</g>
<g id="règles">
</g>
<g id="LOGO">
	<path class="st0" d="M177.8,714.4l31,31l24,24c5.4,5.4,5.4,14.2,0,19.7c-2.6,2.6-6.1,4.1-9.8,4.1c-3.7,0-7.2-1.4-9.8-4.1
		l-13.7-13.7c-3.8-3.8-8.8-5.9-14.2-5.9c-5.4,0-10.4,2.1-14.2,5.9c-7.8,7.8-7.8,20.6,0,28.4l2.3,2.3l24,24c0.1,0.1,0.3,0.3,0.5,0.4
		l32.6,32.6l0,0l99.3,99.3l43.9,43.9c3.3,2.2,7.1,3.3,11.1,3.3c5.4,0,10.4-2.1,14.2-5.9c7.8-7.8,7.8-20.6,0-28.4l-1.5-1.5
		c-5.4-5.4-5.4-14.2,0-19.7c2.6-2.6,6.1-4.1,9.8-4.1c3.6,0,7,1.4,9.6,3.9l25.7,25.8c3.8,3.8,8.8,5.9,14.2,5.9c0,0,0,0,0,0
		c5.4,0,10.4-2.1,14.2-5.9c7.8-7.8,7.8-20.6,0-28.4l-31-31l-24-24c-5.4-5.4-5.4-14.2,0-19.7c2.6-2.6,6.1-4.1,9.8-4.1
		c3.7,0,7.2,1.4,9.8,4.1l13.7,13.7c3.8,3.8,8.8,5.9,14.2,5.9c5.4,0,10.4-2.1,14.2-5.9c7.8-7.8,7.8-20.6,0-28.4l-2.3-2.3l-24-24
		c-0.1-0.1-0.3-0.3-0.5-0.4l-32.6-32.6l0,0l-99.3-99.3l-43.9-43.9c-3.3-2.2-7.1-3.3-11.1-3.3c-5.4,0-10.4,2.1-14.2,5.9
		c-7.8,7.8-7.8,20.6,0,28.4l1.5,1.5c5.4,5.4,5.4,14.2,0,19.7c-2.6,2.6-6.1,4.1-9.8,4.1c-3.6,0-7-1.4-9.6-3.9l-25.7-25.8
		c-3.8-3.8-8.8-5.9-14.2-5.9c0,0,0,0,0,0c-5.4,0-10.4,2.1-14.2,5.9C170,693.9,170,706.6,177.8,714.4z"/>
	<text transform="matrix(1 0 0 1 293.7474 893.1349)" class="st2 st6 st7">1</text>
	<path class="st1" d="M262.3,227.4l31,31l24,24c5.4,5.4,5.4,14.2,0,19.7c-2.6,2.6-6.1,4.1-9.8,4.1c-3.7,0-7.2-1.4-9.8-4.1L284,288.4
		c-3.8-3.8-8.8-5.9-14.2-5.9c-5.4,0-10.4,2.1-14.2,5.9c-7.8,7.8-7.8,20.6,0,28.4l2.3,2.3l24,24c0.1,0.1,0.3,0.3,0.5,0.4l32.6,32.6
		l0,0l99.3,99.3l43.9,43.9c3.3,2.2,7.1,3.3,11.1,3.3c5.4,0,10.4-2.1,14.2-5.9c7.8-7.8,7.8-20.6,0-28.4l-1.5-1.5
		c-5.4-5.4-5.4-14.2,0-19.7c2.6-2.6,6.1-4.1,9.8-4.1c3.6,0,7,1.4,9.6,3.9l25.7,25.8c3.8,3.8,8.8,5.9,14.2,5.9c0,0,0,0,0,0
		c5.4,0,10.4-2.1,14.2-5.9c7.8-7.8,7.8-20.6,0-28.4l-31-31l-24-24c-5.4-5.4-5.4-14.2,0-19.7c2.6-2.6,6.1-4.1,9.8-4.1
		c3.7,0,7.2,1.4,9.8,4.1l13.7,13.7c3.8,3.8,8.8,5.9,14.2,5.9c5.4,0,10.4-2.1,14.2-5.9c7.8-7.8,7.8-20.6,0-28.4l-2.3-2.3l-24-24
		c-0.1-0.1-0.3-0.3-0.5-0.4l-32.6-32.6l0,0l-99.3-99.3l-43.9-43.9c-3.3-2.2-7.1-3.3-11.1-3.3c-5.4,0-10.4,2.1-14.2,5.9
		c-7.8,7.8-7.8,20.6,0,28.4l1.5,1.5c5.4,5.4,5.4,14.2,0,19.7c-2.6,2.6-6.1,4.1-9.8,4.1c-3.6,0-7-1.4-9.6-3.9L290.6,199
		c-3.8-3.8-8.8-5.9-14.2-5.9c0,0,0,0,0,0c-5.4,0-10.4,2.1-14.2,5.9C254.5,206.9,254.5,219.6,262.3,227.4z"/>
	<text transform="matrix(1 0 0 1 362.0328 392.625)" class="st0 st6 st7">4</text>
	<path class="st0" d="M402.4,83.1l31,31l24,24c5.4,5.4,5.4,14.2,0,19.7c-2.6,2.6-6.1,4.1-9.8,4.1c-3.7,0-7.2-1.4-9.8-4.1l-13.7-13.7
		c-3.8-3.8-8.8-5.9-14.2-5.9c-5.4,0-10.4,2.1-14.2,5.9c-7.8,7.8-7.8,20.6,0,28.4l2.3,2.3l24,24c0.1,0.1,0.3,0.3,0.5,0.4l32.6,32.6
		l0,0l99.3,99.3l43.9,43.9c3.3,2.2,7.1,3.3,11.1,3.3c5.4,0,10.4-2.1,14.2-5.9c7.8-7.8,7.8-20.6,0-28.4l-1.5-1.5
		c-5.4-5.4-5.4-14.2,0-19.7c2.6-2.6,6.1-4.1,9.8-4.1c3.6,0,7,1.4,9.6,3.9l25.7,25.8c3.8,3.8,8.8,5.9,14.2,5.9c0,0,0,0,0,0
		c5.4,0,10.4-2.1,14.2-5.9c7.8-7.8,7.8-20.6,0-28.4l-31-31l-24-24c-5.4-5.4-5.4-14.2,0-19.7c2.6-2.6,6.1-4.1,9.8-4.1
		c3.7,0,7.2,1.4,9.8,4.1l13.7,13.7c3.8,3.8,8.8,5.9,14.2,5.9c5.4,0,10.4-2.1,14.2-5.9c7.8-7.8,7.8-20.6,0-28.4l-2.3-2.3l-24-24
		c-0.1-0.1-0.3-0.3-0.5-0.4l-32.6-32.6l0,0l-99.3-99.3l-43.9-43.9c-3.3-2.2-7.1-3.3-11.1-3.3c-5.4,0-10.4,2.1-14.2,5.9
		c-7.8,7.8-7.8,20.6,0,28.4l1.5,1.5c5.4,5.4,5.4,14.2,0,19.7c-2.6,2.6-6.1,4.1-9.8,4.1c-3.6,0-7-1.4-9.6-3.9l-25.7-25.8
		c-3.8-3.8-8.8-5.9-14.2-5.9c0,0,0,0,0,0c-5.4,0-10.4,2.1-14.2,5.9C394.6,62.6,394.6,75.3,402.4,83.1z"/>
	<text transform="matrix(1 0 0 1 503.2006 248.3387)" class="st2 st6 st7">9</text>
	<path class="st1" d="M142.6,487.1l31,31l24,24c5.4,5.4,5.4,14.2,0,19.7c-2.6,2.6-6.1,4.1-9.8,4.1c-3.7,0-7.2-1.4-9.8-4.1
		l-13.7-13.7c-3.8-3.8-8.8-5.9-14.2-5.9c-5.4,0-10.4,2.1-14.2,5.9c-7.8,7.8-7.8,20.6,0,28.4l2.3,2.3l24,24c0.1,0.1,0.3,0.3,0.5,0.4
		l32.6,32.6l0,0l99.3,99.3l43.9,43.9c3.3,2.2,7.1,3.3,11.1,3.3c5.4,0,10.4-2.1,14.2-5.9c7.8-7.8,7.8-20.6,0-28.4l-1.5-1.5
		c-5.4-5.4-5.4-14.2,0-19.7c2.6-2.6,6.1-4.1,9.8-4.1c3.6,0,7,1.4,9.6,3.9l25.7,25.8c3.8,3.8,8.8,5.9,14.2,5.9c0,0,0,0,0,0
		c5.4,0,10.4-2.1,14.2-5.9c7.8-7.8,7.8-20.6,0-28.4l-31-31l-24-24c-5.4-5.4-5.4-14.2,0-19.7c2.6-2.6,6.1-4.1,9.8-4.1
		c3.7,0,7.2,1.4,9.8,4.1l13.7,13.7c3.8,3.8,8.8,5.9,14.2,5.9c5.4,0,10.4-2.1,14.2-5.9c7.8-7.8,7.8-20.6,0-28.4l-2.3-2.3l-24-24
		c-0.1-0.1-0.3-0.3-0.5-0.4l-32.6-32.6l0,0l-99.3-99.3l-43.9-43.9c-3.3-2.2-7.1-3.3-11.1-3.3c-5.4,0-10.4,2.1-14.2,5.9
		c-7.8,7.8-7.8,20.6,0,28.4l1.5,1.5c5.4,5.4,5.4,14.2,0,19.7c-2.6,2.6-6.1,4.1-9.8,4.1c-3.6,0-7-1.4-9.6-3.9l-25.7-25.8
		c-3.8-3.8-8.8-5.9-14.2-5.9c0,0,0,0,0,0c-5.4,0-10.4,2.1-14.2,5.9C134.8,466.6,134.8,479.3,142.6,487.1z"/>
	<text transform="matrix(1 0 0 1 244.8234 652.3237)" class="st0 st6 st7">2</text>
	<path class="st1" d="M635.3,125.4l31,31l24,24c5.4,5.4,5.4,14.2,0,19.7c-2.6,2.6-6.1,4.1-9.8,4.1c-3.7,0-7.2-1.4-9.8-4.1L657,186.3
		c-3.8-3.8-8.8-5.9-14.2-5.9c-5.4,0-10.4,2.1-14.2,5.9c-7.8,7.8-7.8,20.6,0,28.4l2.3,2.3l24,24c0.1,0.1,0.3,0.3,0.5,0.4L688,274l0,0
		l99.3,99.3l43.9,43.9c3.3,2.2,7.1,3.3,11.1,3.3c5.4,0,10.4-2.1,14.2-5.9c7.8-7.8,7.8-20.6,0-28.4l-1.5-1.5
		c-5.4-5.4-5.4-14.2,0-19.7c2.6-2.6,6.1-4.1,9.8-4.1c3.6,0,7,1.4,9.6,3.9l25.7,25.8c3.8,3.8,8.8,5.9,14.2,5.9c0,0,0,0,0,0
		c5.4,0,10.4-2.1,14.2-5.9c7.8-7.8,7.8-20.6,0-28.4l-31-31l-24-24c-5.4-5.4-5.4-14.2,0-19.7c2.6-2.6,6.1-4.1,9.8-4.1
		c3.7,0,7.2,1.4,9.8,4.1l13.7,13.7c3.8,3.8,8.8,5.9,14.2,5.9c5.4,0,10.4-2.1,14.2-5.9c7.8-7.8,7.8-20.6,0-28.4l-2.3-2.3l-24-24
		c-0.1-0.1-0.3-0.3-0.5-0.4l-32.6-32.6l0,0l-99.3-99.3l-43.9-43.9c-3.3-2.2-7.1-3.3-11.1-3.3c-5.4,0-10.4,2.1-14.2,5.9
		c-7.8,7.8-7.8,20.6,0,28.4l1.5,1.5c5.4,5.4,5.4,14.2,0,19.7c-2.6,2.6-6.1,4.1-9.8,4.1c-3.6,0-7-1.4-9.6-3.9L663.6,97
		c-3.8-3.8-8.8-5.9-14.2-5.9c0,0,0,0,0,0c-5.4,0-10.4,2.1-14.2,5.9C627.5,104.8,627.5,117.6,635.3,125.4z"/>
	<text transform="matrix(1 0 0 1 734.8398 290.5846)" class="st0 st6 st7">8</text>
	<path class="st0" d="M383,537.7l31,31l24,24c5.4,5.4,5.4,14.2,0,19.7c-2.6,2.6-6.1,4.1-9.8,4.1c-3.7,0-7.2-1.4-9.8-4.1l-13.7-13.7
		c-3.8-3.8-8.8-5.9-14.2-5.9c-5.4,0-10.4,2.1-14.2,5.9c-7.8,7.8-7.8,20.6,0,28.4l2.3,2.3l24,24c0.1,0.1,0.3,0.3,0.5,0.4l32.6,32.6
		l0,0l99.3,99.3l43.9,43.9c3.3,2.2,7.1,3.3,11.1,3.3c5.4,0,10.4-2.1,14.2-5.9c7.8-7.8,7.8-20.6,0-28.4l-1.5-1.5
		c-5.4-5.4-5.4-14.2,0-19.7c2.6-2.6,6.1-4.1,9.8-4.1c3.6,0,7,1.4,9.6,3.9l25.7,25.8c3.8,3.8,8.8,5.9,14.2,5.9c0,0,0,0,0,0
		c5.4,0,10.4-2.1,14.2-5.9c7.8-7.8,7.8-20.6,0-28.4l-31-31l-24-24c-5.4-5.4-5.4-14.2,0-19.7c2.6-2.6,6.1-4.1,9.8-4.1
		c3.7,0,7.2,1.4,9.8,4.1l13.7,13.7c3.8,3.8,8.8,5.9,14.2,5.9c5.4,0,10.4-2.1,14.2-5.9c7.8-7.8,7.8-20.6,0-28.4l-2.3-2.3l-24-24
		c-0.1-0.1-0.3-0.3-0.5-0.4l-32.6-32.6l0,0L524,526.8l-43.9-43.9c-3.3-2.2-7.1-3.3-11.1-3.3c-5.4,0-10.4,2.1-14.2,5.9
		c-7.8,7.8-7.8,20.6,0,28.4l1.5,1.5c5.4,5.4,5.4,14.2,0,19.7c-2.6,2.6-6.1,4.1-9.8,4.1c-3.6,0-7-1.4-9.6-3.9l-25.7-25.8
		c-3.8-3.8-8.8-5.9-14.2-5.9c0,0,0,0,0,0c-5.4,0-10.4,2.1-14.2,5.9C375.2,517.2,375.2,529.9,383,537.7z"/>
	<text transform="matrix(1 0 0 1 485.4587 702.9216)" class="st2 st6 st7">3</text>
	<path class="st0" d="M756.3,436.6l31,31l24,24c5.4,5.4,5.4,14.2,0,19.7c-2.6,2.6-6.1,4.1-9.8,4.1c-3.7,0-7.2-1.4-9.8-4.1L778,497.5
		c-3.8-3.8-8.8-5.9-14.2-5.9c-5.4,0-10.4,2.1-14.2,5.9c-7.8,7.8-7.8,20.6,0,28.4l2.3,2.3l24,24c0.1,0.1,0.3,0.3,0.5,0.4l32.6,32.6
		l0,0l99.3,99.3l43.9,43.9c3.3,2.2,7.1,3.3,11.1,3.3c5.4,0,10.4-2.1,14.2-5.9c7.8-7.8,7.8-20.6,0-28.4l-1.5-1.5
		c-5.4-5.4-5.4-14.2,0-19.7c2.6-2.6,6.1-4.1,9.8-4.1c3.6,0,7,1.4,9.6,3.9L1021,702c3.8,3.8,8.8,5.9,14.2,5.9c0,0,0,0,0,0
		c5.4,0,10.4-2.1,14.2-5.9c7.8-7.8,7.8-20.6,0-28.4l-31-31l-24-24c-5.4-5.4-5.4-14.2,0-19.7c2.6-2.6,6.1-4.1,9.8-4.1
		c3.7,0,7.2,1.4,9.8,4.1l13.7,13.7c3.8,3.8,8.8,5.9,14.2,5.9c5.4,0,10.4-2.1,14.2-5.9c7.8-7.8,7.8-20.6,0-28.4l-2.3-2.3l-24-24
		c-0.1-0.1-0.3-0.3-0.5-0.4L996.6,525l0,0l-99.3-99.3l-43.9-43.9c-3.3-2.2-7.1-3.3-11.1-3.3c-5.4,0-10.4,2.1-14.2,5.9
		c-7.8,7.8-7.8,20.6,0,28.4l1.5,1.5c5.4,5.4,5.4,14.2,0,19.7c-2.6,2.6-6.1,4.1-9.8,4.1c-3.6,0-7-1.4-9.6-3.9l-25.7-25.8
		c-3.8-3.8-8.8-5.9-14.2-5.9c0,0,0,0,0,0c-5.4,0-10.4,2.1-14.2,5.9C748.5,416,748.5,428.8,756.3,436.6z"/>
	<text transform="matrix(1 0 0 1 864.3595 601.7971)" class="st2 st6 st7">7</text>
	<path class="st0" d="M29.9,184.3l31,31l24,24c5.4,5.4,5.4,14.2,0,19.7c-2.6,2.6-6.1,4.1-9.8,4.1c-3.7,0-7.2-1.4-9.8-4.1l-13.7-13.7
		c-3.8-3.8-8.8-5.9-14.2-5.9c-5.4,0-10.4,2.1-14.2,5.9c-7.8,7.8-7.8,20.6,0,28.4l2.3,2.3l24,24c0.1,0.1,0.3,0.3,0.5,0.4l32.6,32.6
		l0,0l99.3,99.3l43.9,43.9c3.3,2.2,7.1,3.3,11.1,3.3c5.4,0,10.4-2.1,14.2-5.9c7.8-7.8,7.8-20.6,0-28.4l-1.5-1.5
		c-5.4-5.4-5.4-14.2,0-19.7c2.6-2.6,6.1-4.1,9.8-4.1c3.6,0,7,1.4,9.6,3.9l25.7,25.8c3.8,3.8,8.8,5.9,14.2,5.9c0,0,0,0,0,0
		c5.4,0,10.4-2.1,14.2-5.9c7.8-7.8,7.8-20.6,0-28.4l-31-31l-24-24c-5.4-5.4-5.4-14.2,0-19.7c2.6-2.6,6.1-4.1,9.8-4.1
		c3.7,0,7.2,1.4,9.8,4.1l13.7,13.7c3.8,3.8,8.8,5.9,14.2,5.9c5.4,0,10.4-2.1,14.2-5.9c7.8-7.8,7.8-20.6,0-28.4l-2.3-2.3l-24-24
		c-0.1-0.1-0.3-0.3-0.5-0.4l-32.6-32.6l0,0L171,173.3l-43.9-43.9c-3.3-2.2-7.1-3.3-11.1-3.3c-5.4,0-10.4,2.1-14.2,5.9
		c-7.8,7.8-7.8,20.6,0,28.4l1.5,1.5c5.4,5.4,5.4,14.2,0,19.7c-2.6,2.6-6.1,4.1-9.8,4.1c-3.6,0-7-1.4-9.6-3.9l-25.7-25.8
		c-3.8-3.8-8.8-5.9-14.2-5.9c0,0,0,0,0,0c-5.4,0-10.4,2.1-14.2,5.9C22.1,163.7,22.1,176.4,29.9,184.3z"/>
	<text transform="matrix(1 0 0 1 137.9534 349.4635)" class="st2 st6 st7">7</text>
	<path class="st1" d="M522.9,392.9l31,31l24,24c5.4,5.4,5.4,14.2,0,19.7c-2.6,2.6-6.1,4.1-9.8,4.1c-3.7,0-7.2-1.4-9.8-4.1
		l-13.7-13.7c-3.8-3.8-8.8-5.9-14.2-5.9c-5.4,0-10.4,2.1-14.2,5.9c-7.8,7.8-7.8,20.6,0,28.4l2.3,2.3l24,24c0.1,0.1,0.3,0.3,0.5,0.4
		l32.6,32.6l0,0l99.3,99.3l43.9,43.9c3.3,2.2,7.1,3.3,11.1,3.3c5.4,0,10.4-2.1,14.2-5.9c7.8-7.8,7.8-20.6,0-28.4l-1.5-1.5
		c-5.4-5.4-5.4-14.2,0-19.7c2.6-2.6,6.1-4.1,9.8-4.1c3.6,0,7,1.4,9.6,3.9l25.7,25.8c3.8,3.8,8.8,5.9,14.2,5.9c0,0,0,0,0,0
		c5.4,0,10.4-2.1,14.2-5.9c7.8-7.8,7.8-20.6,0-28.4l-31-31l-24-24c-5.4-5.4-5.4-14.2,0-19.7c2.6-2.6,6.1-4.1,9.8-4.1
		c3.7,0,7.2,1.4,9.8,4.1l13.7,13.7c3.8,3.8,8.8,5.9,14.2,5.9c5.4,0,10.4-2.1,14.2-5.9c7.8-7.8,7.8-20.6,0-28.4l-2.3-2.3l-24-24
		c-0.1-0.1-0.3-0.3-0.5-0.4l-32.6-32.6l0,0L664,382L620.1,338c-3.3-2.2-7.1-3.3-11.1-3.3c-5.4,0-10.4,2.1-14.2,5.9
		c-7.8,7.8-7.8,20.6,0,28.4l1.5,1.5c5.4,5.4,5.4,14.2,0,19.7c-2.6,2.6-6.1,4.1-9.8,4.1c-3.6,0-7-1.4-9.6-3.9l-25.7-25.8
		c-3.8-3.8-8.8-5.9-14.2-5.9c0,0,0,0,0,0c-5.4,0-10.4,2.1-14.2,5.9C515.1,372.3,515.1,385.1,522.9,392.9z"/>
	<text transform="matrix(1 0 0 1 623.9195 558.1042)" class="st0 st6 st7">5</text>
	<path class="st0" d="M584.3,740.1l31,31l24,24c5.4,5.4,5.4,14.2,0,19.7c-2.6,2.6-6.1,4.1-9.8,4.1c-3.7,0-7.2-1.4-9.8-4.1L606,801
		c-3.8-3.8-8.8-5.9-14.2-5.9c-5.4,0-10.4,2.1-14.2,5.9c-7.8,7.8-7.8,20.6,0,28.4l2.3,2.3l24,24c0.1,0.1,0.3,0.3,0.5,0.4l32.6,32.6
		l0,0l99.3,99.3l43.9,43.9c3.3,2.2,7.1,3.3,11.1,3.3c5.4,0,10.4-2.1,14.2-5.9c7.8-7.8,7.8-20.6,0-28.4l-1.5-1.5
		c-5.4-5.4-5.4-14.2,0-19.7c2.6-2.6,6.1-4.1,9.8-4.1c3.6,0,7,1.4,9.6,3.9l25.7,25.8c3.8,3.8,8.8,5.9,14.2,5.9c0,0,0,0,0,0
		c5.4,0,10.4-2.1,14.2-5.9c7.8-7.8,7.8-20.6,0-28.4l-31-31l-24-24c-5.4-5.4-5.4-14.2,0-19.7c2.6-2.6,6.1-4.1,9.8-4.1
		c3.7,0,7.2,1.4,9.8,4.1l13.7,13.7c3.8,3.8,8.8,5.9,14.2,5.9c5.4,0,10.4-2.1,14.2-5.9c7.8-7.8,7.8-20.6,0-28.4l-2.3-2.3l-24-24
		c-0.1-0.1-0.3-0.3-0.5-0.4l-32.6-32.6l0,0l-99.3-99.3l-43.9-43.9c-3.3-2.2-7.1-3.3-11.1-3.3c-5.4,0-10.4,2.1-14.2,5.9
		c-7.8,7.8-7.8,20.6,0,28.4l1.5,1.5c5.4,5.4,5.4,14.2,0,19.7c-2.6,2.6-6.1,4.1-9.8,4.1c-3.6,0-7-1.4-9.6-3.9l-25.7-25.8
		c-3.8-3.8-8.8-5.9-14.2-5.9c0,0,0,0,0,0c-5.4,0-10.4,2.1-14.2,5.9C576.5,719.5,576.5,732.2,584.3,740.1z"/>
	<text transform="matrix(1 0 0 1 684.6652 905.2557)" class="st2 st6 st7">6</text>
	<path class="st1" d="M407.4,753.1l31,31l24,24c5.4,5.4,5.4,14.2,0,19.7c-2.6,2.6-6.1,4.1-9.8,4.1c-3.7,0-7.2-1.4-9.8-4.1L429.1,814
		c-3.8-3.8-8.8-5.9-14.2-5.9c-5.4,0-10.4,2.1-14.2,5.9c-7.8,7.8-7.8,20.6,0,28.4l2.3,2.3l24,24c0.1,0.1,0.3,0.3,0.5,0.4l32.6,32.6
		l0,0l99.3,99.3l43.9,43.9c3.3,2.2,7.1,3.3,11.1,3.3c5.4,0,10.4-2.1,14.2-5.9c7.8-7.8,7.8-20.6,0-28.4l-1.5-1.5
		c-5.4-5.4-5.4-14.2,0-19.7c2.6-2.6,6.1-4.1,9.8-4.1c3.6,0,7,1.4,9.6,3.9l25.7,25.8c3.8,3.8,8.8,5.9,14.2,5.9c0,0,0,0,0,0
		c5.4,0,10.4-2.1,14.2-5.9c7.8-7.8,7.8-20.6,0-28.4l-31-31l-24-24c-5.4-5.4-5.4-14.2,0-19.7c2.6-2.6,6.1-4.1,9.8-4.1
		c3.7,0,7.2,1.4,9.8,4.1l13.7,13.7c3.8,3.8,8.8,5.9,14.2,5.9c5.4,0,10.4-2.1,14.2-5.9c7.8-7.8,7.8-20.6,0-28.4l-2.3-2.3l-24-24
		c-0.1-0.1-0.3-0.3-0.5-0.4l-32.6-32.6l0,0l-99.3-99.3l-43.9-43.9c-3.3-2.2-7.1-3.3-11.1-3.3c-5.4,0-10.4,2.1-14.2,5.9
		c-7.8,7.8-7.8,20.6,0,28.4l1.5,1.5c5.4,5.4,5.4,14.2,0,19.7c-2.6,2.6-6.1,4.1-9.8,4.1c-3.6,0-7-1.4-9.6-3.9l-25.7-25.8
		c-3.8-3.8-8.8-5.9-14.2-5.9c0,0,0,0,0,0c-5.4,0-10.4,2.1-14.2,5.9C399.6,732.5,399.6,745.3,407.4,753.1z"/>
	<text transform="matrix(1 0 0 1 506.959 918.2861)" class="st0 st6 st7">8</text>
</g>
</svg>
