<?xml version="1.0" encoding="utf-8"?>
<!-- Generator: Adobe Illustrator 25.2.1, SVG Export Plug-In . SVG Version: 6.00 Build 0)  -->
<svg version="1.1" id="Calque_1" xmlns="http://www.w3.org/2000/svg" xmlns:xlink="http://www.w3.org/1999/xlink" x="0px" y="0px"
	 viewBox="0 0 1080 1080" style="enable-background:new 0 0 1080 1080;" xml:space="preserve">
<style type="text/css">
	.st0{fill:#00FFDA;}
</style>
<g id="COULEURS">
</g>
<g id="Jauge__x2B_accueil">
</g>
<g id="images">
</g>
<g id="TEXTE">
</g>
<g id="jauge">
</g>
<g id="picto_accueil">
</g>
<g id="FOND">
</g>
<g id="PICTOS">
</g>
<g id="bulles_Source__x2B_dico">
</g>
<g id="règles">
</g>
<g id="LOGO">
	<g>
		<path class="st0" d="M231.9,702.4l82.9-76.3l26,28.2l-50,46l13.4,14.5l47-43.2l26.1,28.4l-47,43.2l39.8,43.2l-32.9,30.3
			L231.9,702.4L231.9,702.4z"/>
		<path class="st0" d="M350,593.7l36.1-33.2l146.8,76.1l-35.8,32.9l-23.4-13.7l-36.4,33.5l11.8,24.4l-35.2,32.4L350,593.7z
			 M422.3,657.6l21.1-19.4l-42-24.8L422.3,657.6z"/>
		<path class="st0" d="M507.4,523.9l-4.7-70.8l39.9-36.7l2.8,82.5L649.7,529l-38.7,35.7l-63.6-19.8l0.9,23.1l27.1,29.5l-32.9,30.3
			L437.1,513.5l32.9-30.3L507.4,523.9L507.4,523.9z"/>
		<path class="st0" d="M553,406.8l90.5-83.4l26,28.2l-57.6,53l13.4,14.5l54.6-50.3l26.1,28.4l-54.5,50.2l13.7,14.9l58.2-53.6
			l26.1,28.4l-91.2,84L553,406.8z"/>
		<path class="st0" d="M769.7,349.4l-55.2-45.9l-22.6-24.6l38-35l22.6,24.6l41.4,58.6L769.7,349.4z M799.1,391.4l-30.5-33.1
			l34.2-31.5l30.5,33.1L799.1,391.4z"/>
	</g>
	<g>
		<path class="st0" d="M984,654.8L617.9,991.9c-55.3,51-127.5,77.4-203.1,74.2s-145.3-35.3-196.3-90.6L79.6,824.6
			c-51-55.3-77.4-127.5-74.2-203.1S40.7,476.1,96,425.2L462.1,88.1c55.3-51,127.5-77.4,203.1-74.2s145.3,35.3,196.3,90.6
			l138.9,150.8c51,55.3,77.4,127.5,74.2,203.1S1039.3,603.9,984,654.8z M141.9,475c-87.2,80.3-92.8,216.6-12.5,303.8l138.9,150.8
			c80.3,87.2,216.6,92.8,303.8,12.5L938.1,605c87.2-80.3,92.8-216.6,12.5-303.8L811.7,150.4C731.5,63.2,595.2,57.6,508,137.9
			L141.9,475z"/>
	</g>
</g>
</svg>
