<?xml version="1.0" encoding="utf-8"?>
<!-- Generator: Adobe Illustrator 25.2.0, SVG Export Plug-In . SVG Version: 6.00 Build 0)  -->
<svg version="1.1" xmlns="http://www.w3.org/2000/svg" xmlns:xlink="http://www.w3.org/1999/xlink" x="0px" y="0px"
	 viewBox="0 0 1080 1080" style="enable-background:new 0 0 1080 1080;" xml:space="preserve">
<style type="text/css">
	.st0{fill:#00FFDA;}
	.st1{fill:#A9FFEE;}
	.st2{fill:#D9FFF8;}
	.st3{fill:#00A585;}
	.st4{fill:#00D6B2;}
	.st5{fill:#FFFFFF;}
	.st6{fill:none;stroke:#00FFDA;stroke-width:70;stroke-linecap:round;stroke-miterlimit:10;}
</style>
<g id="COULEURS">
</g>
<g id="Jauge__x2B_accueil">
</g>
<g id="images">
</g>
<g id="TEXTE">
</g>
<g id="jauge">
</g>
<g id="picto_accueil">
</g>
<g id="FOND">
</g>
<g id="PICTOS">
</g>
<g id="bulles_Source__x2B_dico">
</g>
<g id="règles">
</g>
<g id="LOGO">
	<g>
		<path class="st0" d="M241.5,460.9h99.9v34h-60.2v17.5h56.6v34.2h-56.6v52.1h-39.7V460.9z"/>
		<path class="st0" d="M383.8,460.9h43.5l50,137.8h-43.1l-7-23h-43.9l-7,23h-42.4L383.8,460.9z M392.6,546H418l-12.5-41.4L392.6,546
			z"/>
		<path class="st0" d="M528.4,509.9l39.5-49H616l-47.7,55.5l49.8,82.3h-46.7l-29.6-51.1l-13.3,15.6v35.5h-39.7V460.9h39.7V509.9z"/>
		<path class="st0" d="M628.5,460.9h109.1v34h-69.4v17.5H734v34.2h-65.7v17.9h70.1v34.2H628.5V460.9z"/>
		<path class="st0" d="M804.3,553.6l-8.4-63.1v-29.6h45.8v29.6l-8.2,63.1H804.3z M798.2,598.7v-39.9h41.2v39.9H798.2z"/>
	</g>
	<g>
		<path class="st0" d="M760.6,881.5H319.4c-66.7,0-129.6-26.1-177-73.6s-73.6-110.3-73.6-177V449.1c0-66.7,26.1-129.6,73.6-177
			s110.3-73.6,177-73.6h441.2c66.7,0,129.6,26.1,177,73.6s73.6,110.3,73.6,177v181.8c0,66.7-26.1,129.6-73.6,177
			S827.3,881.5,760.6,881.5z M319.4,258.5c-105.1,0-190.6,85.5-190.6,190.6v181.8c0,105.1,85.5,190.6,190.6,190.6h441.2
			c105.1,0,190.6-85.5,190.6-190.6V449.1c0-105.1-85.5-190.6-190.6-190.6H319.4z"/>
	</g>
</g>
</svg>
