<?xml version="1.0" encoding="utf-8"?>
<!-- Generator: Adobe Illustrator 25.2.1, SVG Export Plug-In . SVG Version: 6.00 Build 0)  -->
<svg version="1.1" id="Calque_1" xmlns="http://www.w3.org/2000/svg" xmlns:xlink="http://www.w3.org/1999/xlink" x="0px" y="0px"
	 viewBox="0 0 1080 1080" style="enable-background:new 0 0 1080 1080;" xml:space="preserve">
<style type="text/css">
	.st0{fill:#00FFDA;}
</style>
<g id="COULEURS">
</g>
<g id="Jauge__x2B_accueil">
</g>
<g id="images">
</g>
<g id="TEXTE">
</g>
<g id="jauge">
</g>
<g id="picto_accueil">
</g>
<g id="FOND">
</g>
<g id="PICTOS">
</g>
<g id="bulles_Source__x2B_dico">
</g>
<g id="règles">
</g>
<g id="LOGO">
	<g>
		<path class="st0" d="M984,654.8L617.9,991.9c-55.3,51-127.5,77.4-203.1,74.2s-145.3-35.3-196.3-90.6L79.6,824.6
			c-51-55.3-77.4-127.5-74.2-203.1S40.7,476.1,96,425.2L462.1,88.1c55.3-51,127.5-77.4,203.1-74.2s145.3,35.3,196.3,90.6
			l138.9,150.8c51,55.3,77.4,127.5,74.2,203.1S1039.3,603.9,984,654.8z M141.9,475c-87.2,80.3-92.8,216.6-12.5,303.8l138.9,150.8
			c80.3,87.2,216.6,92.8,303.8,12.5l366-337.1c87.2-80.3,92.8-216.6,12.5-303.8L811.7,150.4C731.5,63.2,595.2,57.6,508,137.9
			L141.9,475z"/>
	</g>
</g>
<g>
	<polygon class="st0" points="270.4,712.5 328.4,659.4 307.9,637 222.7,715 340.5,843.7 367.7,818.8 319.1,765.7 371.4,717.7 
		350.9,695.3 298.5,743.2 	"/>
	<path class="st0" d="M347.5,600.7L421,770.1l29.2-26.7l-17.3-38.1l46.5-42.6l36.4,20.6l29.2-26.7l-162.3-88.1L347.5,600.7z
		 M420.3,677.7l-28.8-63.2l1-0.9l60.4,34.2L420.3,677.7z"/>
	<polygon class="st0" points="550.3,415 517.7,444.8 523.3,544 521.6,545.6 469.7,488.8 442.5,513.7 560.3,642.5 587.5,617.5 
		554.1,581 552.5,552.4 636.2,573 668.8,543.2 555.3,516.4 	"/>
	<polygon class="st0" points="660.9,452.6 716,402.2 695.4,379.7 640.4,430.2 612.3,399.5 671.8,345 651.3,322.5 564.5,402 
		682.4,530.7 769.4,451 748.8,428.6 689.1,483.3 	"/>
	<polygon class="st0" points="825.6,328.6 745.5,236.3 717.5,261.9 802.6,349.7 	"/>
	<path class="st0" d="M837.9,344.1c-5.7-0.2-10.5,1.6-14.5,5.2c-4.1,3.8-6.4,8.5-6.7,14.2c-0.3,5.7,1.5,10.5,5.3,14.6
		c3.8,4.2,8.5,6.4,14.2,6.6c5.7,0.2,10.6-1.6,14.7-5.4c2.7-2.5,4.5-5.4,5.5-8.8c1-3.4,1.2-6.9,0.5-10.5c-0.7-3.6-2.3-6.8-4.8-9.6
		C848.4,346.4,843.6,344.3,837.9,344.1z"/>
</g>
</svg>
