<?xml version="1.0" encoding="utf-8"?>
<!-- Generator: Adobe Illustrator 25.2.1, SVG Export Plug-In . SVG Version: 6.00 Build 0)  -->
<svg version="1.1" id="Calque_1" xmlns="http://www.w3.org/2000/svg" xmlns:xlink="http://www.w3.org/1999/xlink" x="0px" y="0px"
	 viewBox="0 0 1080 1080" style="enable-background:new 0 0 1080 1080;" xml:space="preserve">
<style type="text/css">
	.st0{fill:#A5003F;}
	.st1{fill:#FF85A2;}
	.st2{fill:#FF0049;}
	.st3{fill:#D30046;}
	.st4{fill:#FF5072;}
</style>
<g id="LOGO_2_">
	<path class="st0" d="M645.9,881.6c0,0,25,16.5,33.3,22c9.6,6.3,53,4.4,62.1-2.7l276-216.6c7.7-6,11.5-15.8,9.9-25.5l-67.4-408.4
		c-1.6-9.7-8.4-17.8-17.8-21l0,0c-18-6.2-36.5,7.9-35.5,26.9l18.7,339.5c0.4,8.1-2.8,15.9-8.7,21.3L699.8,814.8
		C673.7,838.6,616.4,862.3,645.9,881.6z"/>
	<path class="st1" d="M687.1,887.2l3.4,2.2c9.6,6.3,22.2,5.8,31.3-1.3l276-216.6c7.7-6,11.5-15.8,9.9-25.5l-67.4-408.4
		c-1.6-9.7-8.4-17.8-17.8-21l0,0c-18-6.2-36.5,7.9-35.5,26.9L905.6,583c0.4,8.1-2.8,15.9-8.7,21.3L680.2,802
		C654.1,825.8,657.5,867.9,687.1,887.2z"/>
	<path class="st2" d="M684,878.1l280.9-219.3c10.3-8.1,15.3-21.2,13-34l-72.5-407c-5-28.2-39.8-39-60-18.6L621.7,426.4
		c-6.8,6.9-10.5,16.4-10.1,26.2L627,851.6C628.1,880.4,661.3,895.9,684,878.1z"/>
	<path class="st3" d="M676.4,520.8c0.1,4.2,5.1,6.4,8.3,3.6l0,0l125.1-108.6c1.1-1,1.8-2.5,1.7-4l-3.6-95.7
		c-0.2-4.4-5.4-6.4-8.5-3.4l-123.7,123c-1,1-1.5,2.3-1.5,3.7L676.4,520.8z"/>
	<path class="st4" d="M706.9,440.7l66-61.8c3.1-2.9,8.1-0.3,7.5,3.9l-2.2,16c-0.1,1.1-0.7,2-1.5,2.7L706.2,464
		c-2.8,2.5-7.2,0.6-7.4-3.1l0,0C698.4,453.3,701.4,445.9,706.9,440.7z"/>
	<path class="st3" d="M862.1,739.2c-0.9,0.7-1.5,1.8-1.5,3c-0.1,8.1,2.1,40.3,40.1,65.2c43.7,28.6,17.7,22.9,23.4,50.3
		c3.3,16,7,32.2,9.5,42.9c0.9,3.7,6.1,4,7.4,0.4l12.1-33c0.9-2.3,3.7-3.3,5.7-1.9l17.5,11.5c3.2,2.1,7.1-1.2,5.7-4.7
		c-6.5-15.8-17.3-43.6-18.4-57.1c-1.5-19.5-17.6-32-38.5-45.8c-19.4-12.7-23.8-26.8-28.9-50.5c-0.6-2.8-3.9-4-6.1-2.2L862.1,739.2z"
		/>
</g>
<g id="COULEURS_1_">
</g>
<g id="Jauge__x2B_accueil_1_">
</g>
<g id="images_1_">
</g>
<g id="TEXTE_1_">
</g>
<g id="jauge_1_">
</g>
<g id="picto_accueil_1_">
</g>
<g id="FOND_1_">
</g>
<g id="PICTOS_1_">
</g>
<g id="bulles_Source__x2B_dico_1_">
</g>
<g id="règles_1_">
</g>
<g id="LOGO_1_">
	<path class="st0" d="M435.4,942c0,0,30.1,19.9,40.1,26.5c11.6,7.6,63.9,5.3,74.8-3.2l332.6-261.1c9.3-7.3,13.9-19.1,11.9-30.7
		l-81.2-492.2c-1.9-11.7-10.2-21.5-21.4-25.3l0,0c-21.7-7.4-44,9.5-42.8,32.4l22.5,409.2c0.5,9.7-3.3,19.1-10.5,25.7L500.3,861.5
		C468.8,890.2,399.7,918.6,435.4,942z"/>
	<path class="st1" d="M484.9,948.8l4.1,2.7c11.6,7.6,26.8,6.9,37.7-1.6l332.6-261.1c9.3-7.3,13.9-19.1,11.9-30.7L790,165.9
		c-1.9-11.7-10.2-21.5-21.4-25.3l0,0c-21.7-7.4-44,9.5-42.8,32.4l22.5,409.2c0.5,9.7-3.3,19.1-10.5,25.7L476.7,846
		C445.2,874.7,449.3,925.4,484.9,948.8z"/>
	<path class="st2" d="M481.2,937.8l338.5-264.3c12.4-9.7,18.5-25.5,15.7-41L748.1,142c-6.1-34-48-47-72.2-22.4L406.1,393.4
		c-8.2,8.4-12.7,19.8-12.2,31.5l18.6,480.9C413.8,940.5,453.9,959.1,481.2,937.8z"/>
	<path class="st3" d="M472.1,507.1c0.1,5.1,6.1,7.7,10,4.4l0,0l150.8-130.8c1.4-1.2,2.1-3,2.1-4.8l-4.4-115.4
		c-0.2-5.2-6.5-7.7-10.3-4L471.2,404.7c-1.2,1.2-1.8,2.8-1.8,4.4L472.1,507.1z"/>
	<path class="st4" d="M508.9,410.7l79.5-74.5c3.7-3.5,9.7-0.4,9,4.7l-2.7,19.3c-0.2,1.3-0.8,2.4-1.8,3.3L508,438.6
		c-3.4,3-8.7,0.8-8.9-3.8l0,0C498.6,425.8,502.2,416.9,508.9,410.7z"/>
	<path class="st3" d="M695.8,770.3c-1.1,0.9-1.8,2.2-1.8,3.6c-0.1,9.7,2.6,48.6,48.3,78.5c52.7,34.5,21.4,27.6,28.2,60.6
		c4,19.2,8.5,38.8,11.5,51.7c1,4.5,7.3,4.9,8.9,0.5l14.6-39.8c1-2.8,4.4-3.9,6.9-2.3l21.1,13.8c3.8,2.5,8.6-1.4,6.8-5.7
		c-7.9-19-20.9-52.6-22.1-68.8c-1.8-23.5-21.2-38.6-46.5-55.2c-23.4-15.3-28.7-32.3-34.8-60.8c-0.7-3.4-4.7-4.8-7.4-2.7L695.8,770.3
		z"/>
</g>
<g id="COULEURS">
</g>
<g id="Jauge__x2B_accueil">
</g>
<g id="images">
</g>
<g id="TEXTE">
</g>
<g id="jauge">
</g>
<g id="picto_accueil">
</g>
<g id="FOND">
</g>
<g id="PICTOS">
</g>
<g id="bulles_Source__x2B_dico">
</g>
<g id="règles">
</g>
<g id="LOGO">
	<path class="st0" d="M174.8,991.6c0,0,35.3,23.4,47.1,31.1c13.6,8.9,74.9,6.3,87.7-3.8l389.8-306c10.9-8.5,16.3-22.3,14-36
		l-95.2-576.8C615.9,86.3,606.2,75,593,70.4l0,0c-25.4-8.7-51.6,11.1-50.1,37.9l26.4,479.6c0.6,11.4-3.9,22.4-12.3,30.1l-306,279.2
		C214,930.9,133.1,964.2,174.8,991.6z"/>
	<path class="st1" d="M232.9,999.5l4.8,3.2c13.6,8.9,31.4,8.1,44.2-1.9l389.8-306c10.9-8.5,16.3-22.3,14-36L590.5,82
		c-2.3-13.8-11.9-25.2-25.1-29.7l0,0c-25.4-8.7-51.6,11.1-50.1,37.9l26.4,479.6c0.6,11.4-3.9,22.4-12.3,30.1l-306,279.2
		C186.4,912.8,191.1,972.2,232.9,999.5z"/>
	<path class="st2" d="M228.6,986.6l396.8-309.7c14.6-11.4,21.7-29.9,18.4-48.1L541.4,54c-7.1-39.9-56.2-55.1-84.7-26.3L140.5,348.6
		c-9.7,9.8-14.9,23.2-14.3,37L148,949.2C149.6,989.9,196.5,1011.7,228.6,986.6z"/>
	<path class="st3" d="M217.9,481.9c0.2,6,7.2,9,11.7,5.1l0,0l176.8-153.3c1.6-1.4,2.5-3.5,2.4-5.6l-5.1-135.2
		c-0.2-6.1-7.7-9.1-12-4.7L216.9,361.8c-1.4,1.4-2.1,3.2-2.1,5.2L217.9,481.9z"/>
	<path class="st4" d="M261,368.9l93.2-87.3c4.3-4.1,11.4-0.4,10.6,5.5l-3.1,22.6c-0.2,1.5-0.9,2.9-2.1,3.9L260,401.7
		c-4,3.5-10.2,0.9-10.5-4.4l0,0C248.9,386.6,253.1,376.2,261,368.9z"/>
	<path class="st3" d="M480.1,790.4c-1.3,1-2.1,2.6-2.1,4.2c-0.1,11.4,3,57,56.6,92c61.8,40.4,25,32.4,33.1,71
		c4.7,22.5,9.9,45.4,13.4,60.6c1.2,5.3,8.5,5.7,10.4,0.6l17.1-46.6c1.2-3.3,5.2-4.6,8.1-2.7l24.8,16.2c4.5,2.9,10.1-1.7,8-6.6
		c-9.2-22.3-24.5-61.6-25.9-80.7c-2.1-27.5-24.8-45.2-54.4-64.6c-27.4-17.9-33.6-37.8-40.8-71.3c-0.8-3.9-5.5-5.6-8.7-3.2
		L480.1,790.4z"/>
</g>
</svg>
