<?xml version="1.0" encoding="utf-8"?>
<!-- Generator: Adobe Illustrator 25.2.0, SVG Export Plug-In . SVG Version: 6.00 Build 0)  -->
<svg version="1.1" xmlns="http://www.w3.org/2000/svg" xmlns:xlink="http://www.w3.org/1999/xlink" x="0px" y="0px"
	 viewBox="0 0 1080 1080" style="enable-background:new 0 0 1080 1080;" xml:space="preserve">
<style type="text/css">
	.st0{fill:#FF0049;}
	.st1{fill:#FF5072;}
	.st2{fill:#FF85A2;}
	.st3{fill:#A5003F;}
	.st4{fill:#D30046;}
	.st5{fill:none;stroke:#A5003F;stroke-width:20;stroke-linecap:round;stroke-miterlimit:10;}
	.st6{fill:none;stroke:#FFFFFF;stroke-width:15;stroke-linecap:round;stroke-miterlimit:10;}
	.st7{fill:none;stroke:#FF0049;stroke-width:70;stroke-linecap:round;stroke-miterlimit:10;}
	.st8{fill:none;stroke:#FFFFFF;stroke-width:10;stroke-linecap:round;stroke-miterlimit:10;}
	.st9{fill:#FFFFFF;}
</style>
<g id="COULEURS">
</g>
<g id="Jauge__x2B_accueil">
</g>
<g id="images">
</g>
<g id="TEXTE">
</g>
<g id="jauge">
</g>
<g id="picto_accueil">
</g>
<g id="FOND">
</g>
<g id="PICTOS">
</g>
<g id="bulles_Source__x2B_dico">
</g>
<g id="règles">
</g>
<g id="LOGO">
	<path class="st3" d="M195.23,571.91c0,0-0.17,30.98-0.19,41.31c-0.03,11.91,26.21,48.43,37.49,52.24l343.84,116.13
		c9.6,3.24,20.21,1,27.67-5.86l315.3-289.71c7.53-6.91,10.64-17.4,8.12-27.31l0,0c-4.87-19.08-27.5-27.17-43.36-15.5L600.78,651.73
		c-6.72,4.94-15.3,6.61-23.37,4.53l-293.83-75.55C248.15,571.6,195.23,535.34,195.23,571.91z"/>
	<path class="st2" d="M213.66,610.7v4.23c0,11.91,7.6,22.49,18.88,26.3l343.84,116.13c9.6,3.24,20.21,1,27.67-5.86l315.3-289.71
		c7.53-6.91,10.64-17.4,8.12-27.31l0,0c-4.87-19.08-27.5-27.17-43.36-15.5L600.78,627.51c-6.72,4.94-15.3,6.61-23.37,4.53
		l-293.83-75.55C248.15,547.38,213.66,574.13,213.66,610.7z"/>
	<path class="st0" d="M219.81,602.89l348.95,118.92c12.82,4.37,27.01,1.29,36.86-8l311.2-293.32
		c21.59-20.35,11.22-56.58-17.86-62.43l-323.49-65.05c-9.89-1.99-20.17,0.2-28.39,6.05L210.42,538.51
		C186.14,555.77,191.61,593.28,219.81,602.89z"/>
	<path class="st4" d="M524.81,393.86c-3.59,2.49-2.67,8.02,1.53,9.22l0,0l164.87,46.81c1.51,0.43,3.13,0.15,4.4-0.76l80.81-57.37
		c3.67-2.61,2.48-8.33-1.92-9.27L598,345.1c-1.39-0.29-2.84,0-4.01,0.81L524.81,393.86z"/>
	<path class="st1" d="M611.38,374.92l90.87,22.09c4.23,1.03,4.82,6.8,0.89,8.67l-15.11,7.16c-1,0.47-2.13,0.57-3.19,0.28
		l-93.96-25.65c-3.74-1.02-4.64-5.91-1.5-8.19l0,0C595.72,374.66,603.76,373.07,611.38,374.92z"/>
	<path class="st4" d="M440.96,678.26c-1.15-0.39-2.41-0.24-3.44,0.42c-7.04,4.51-33.7,24.69-33.7,71.61
		c0,54.06-9.79,28.33-30.22,48.75c-11.93,11.93-23.87,24.31-31.74,32.54c-2.74,2.86-0.07,7.53,3.79,6.63l35.43-8.2
		c2.5-0.58,4.89,1.32,4.89,3.88v21.68c0,3.92,5.06,5.49,7.28,2.26c9.98-14.6,27.94-39.7,39.03-48.26
		c16-12.34,17.78-33.34,17.78-59.29c0-23.97,9.71-35.76,27.33-53.56c2.07-2.09,1.24-5.63-1.54-6.58L440.96,678.26z"/>
</g>
</svg>
