<?xml version="1.0" encoding="utf-8"?>
<!-- Generator: Adobe Illustrator 25.2.0, SVG Export Plug-In . SVG Version: 6.00 Build 0)  -->
<svg version="1.1" xmlns="http://www.w3.org/2000/svg" xmlns:xlink="http://www.w3.org/1999/xlink" x="0px" y="0px"
	 viewBox="0 0 1080 1080" style="enable-background:new 0 0 1080 1080;" xml:space="preserve">
<style type="text/css">
	.st0{fill:#FF0049;}
	.st1{fill:#FF5072;}
	.st2{fill:#FF85A2;}
	.st3{fill:#A5003F;}
	.st4{fill:#D30046;}
	.st5{fill:none;stroke:#A5003F;stroke-width:20;stroke-linecap:round;stroke-miterlimit:10;}
	.st6{fill:none;stroke:#FFFFFF;stroke-width:15;stroke-linecap:round;stroke-miterlimit:10;}
	.st7{fill:none;stroke:#FF0049;stroke-width:70;stroke-linecap:round;stroke-miterlimit:10;}
	.st8{fill:none;stroke:#FFFFFF;stroke-width:10;stroke-linecap:round;stroke-miterlimit:10;}
	.st9{fill:#FFFFFF;}
</style>
<g id="COULEURS">
</g>
<g id="Jauge__x2B_accueil">
</g>
<g id="images">
</g>
<g id="TEXTE">
</g>
<g id="jauge">
</g>
<g id="picto_accueil">
</g>
<g id="FOND">
</g>
<g id="PICTOS">
</g>
<g id="bulles_Source__x2B_dico">
</g>
<g id="règles">
</g>
<g id="LOGO">
	<path class="st3" d="M301.44,233.05L93.12,453.07c-20.5,21.65-31.18,50.79-29.52,80.56L79.21,813.7
		c2.21,39.71,25.99,75.01,61.95,91.99L353.57,1006c15.36,7.25,32.2,10.79,49.18,10.34l389.72-10.39
		c28.23-0.75,55.06-12.49,74.76-32.73l108.11-110.99c18.46-18.95,29.35-43.99,30.62-70.41l12.9-267.02
		c0.95-19.75-3.51-39.39-12.92-56.78L873.14,222.34c-16.59-30.69-46.94-51.52-81.54-55.97l-260.96-33.54
		c-21.12-2.71-42.56,0.85-61.66,10.25L332.31,210.3C320.75,215.99,310.29,223.69,301.44,233.05z"/>
	<path class="st4" d="M305.9,228.33L167.02,463.76c-13.67,14.43-20.78,59.68-19.68,79.53l10.41,268.87
		c0.22,4.02,0.91,13.19,1.64,17.06c5.89,31.15,24.28,58.88,52.84,73.84l160.02,82.43c2.08,1.36,24.1,11.66,26.39,12.54
		c14.09,5.42,28.89,8.9,44.04,8.33l323.35-12.51c3.36-0.24,32.3-2.17,35.44-3.04c24.61-6.84,48.55-16.33,64.7-36.49l82.3-101.22
		c0.27-0.59,4.27-5.18,4.59-5.75c10.74-19.12,20.1-38.58,21.23-60.58c0.06-1.08-0.08-3.26-0.03-4.35l-4.68-190.2
		c-0.98-4.12-1.11-44.13-3.74-47.45c0.64-13.17-12.15-38.64-18.42-50.23L812.36,272.05c-11.06-20.46-48.39-55.93-71.46-58.89
		L528.69,137.5l-6.13,0.06c-14.08-1.81-44.29,6.54-57.03,12.81l-129.36,59.17C328.46,213.32,311.8,222.09,305.9,228.33z"/>
	<path class="st1" d="M310.36,223.62l-69.44,250.84c-6.83,7.22-10.39,68.57-9.84,78.5l5.2,257.68c0.11,2.01,0.53,14.45,0.82,16.4
		c4.56,30.14,19.58,57.89,46.19,73.41l137.25,78.53c4.16,2.71,18.54,9.41,23.15,11.08c12.44,4.52,25.58,7,38.91,6.31l295.77-15.67
		c6.71-0.47,25.93-2.9,32.08-5.04c21.89-7.62,42.05-20.17,54.64-40.25l62.26-97.37c0.53-1.18,2.85-4.4,3.4-5.57
		c8.31-17.49,12.22-36.09,12.17-55.63c0-0.54-0.43-3.27-0.41-3.82l-19.64-167.61c-1.97-8.24-4.84-34.03-10.1-40.67
		c0.32-6.58-20.79-37.89-23.92-43.69L751.58,321.77c-5.53-10.23-49.85-60.34-61.38-61.82L520.05,141.3l-5.58,0.97
		c-7.04-0.9-46.03,12.23-52.4,15.37l-122.05,51.12C336.17,210.66,313.32,220.5,310.36,223.62z"/>
	<path class="st2" d="M314.83,218.9v605.93c0,29.45,14.87,56.9,39.54,72.99l114.48,74.64c15.9,10.37,34.75,15.26,53.69,13.93
		l268.19-18.82c31.97-2.24,60.13-21.86,73.31-51.06l42.22-93.52c7.94-17.58,9.82-37.3,5.34-56.07l-35.38-148.3
		c-2.95-12.36-8.57-23.93-16.46-33.89l-348.33-439.6L314.83,218.9z"/>
	<path class="st9" d="M427.68,265.11c24.16,0,43.74-19.58,43.74-43.74c0-4.73-0.76-9.28-2.15-13.54l-80.51,33.5
		C396.01,255.44,410.71,265.11,427.68,265.11z"/>
	<path class="st1" d="M529.76,168.03L420.91,31.97c-3.43-4.28-9.36-5.63-14.3-3.23l-94.94,46c-4.33,2.1-6.95,6.63-6.6,11.44
		l1.26,17.09L63.74,392.96c-2.38,2.84-3.28,6.63-2.43,10.24l98.12,416.82c1.49,6.32,7.81,10.23,14.13,8.75l0,0
		c6.32-1.49,10.23-7.81,8.75-14.13L86.89,409.27c-0.85-3.6,0.05-7.4,2.43-10.24L308.8,136.92l8.74,118.92
		c0.59,8,8.83,13.07,16.23,9.99l41.7-17.35L482.37,204l42.72-17.78C532.31,183.22,534.64,174.14,529.76,168.03z"/>
	<path class="st1" d="M123.85,842.96h612.48c7.84,0,14.2-6.36,14.2-14.2v0c0-7.84-6.36-14.2-14.2-14.2H123.85
		c-7.84,0-14.2,6.36-14.2,14.2v0C109.65,836.6,116,842.96,123.85,842.96z"/>
	<path class="st9" d="M416.01,319.49l70.3,471.99c1.85,12.34,12.64,21.56,25.48,21.77l173.06,0.59
		c18.94,0.31,31.94-18.4,24.55-35.33L497.68,293.14c-5.62-12.87-20.88-18.93-34.18-13.56l-31.63,12.78
		C420.82,296.82,414.29,307.99,416.01,319.49z"/>
</g>
</svg>
