<?xml version="1.0" encoding="utf-8"?>
<!-- Generator: Adobe Illustrator 25.2.0, SVG Export Plug-In . SVG Version: 6.00 Build 0)  -->
<svg version="1.1" xmlns="http://www.w3.org/2000/svg" xmlns:xlink="http://www.w3.org/1999/xlink" x="0px" y="0px"
	 viewBox="0 0 1080 1080" style="enable-background:new 0 0 1080 1080;" xml:space="preserve">
<style type="text/css">
	.st0{fill:#FF0049;}
	.st1{fill:#FF5072;}
	.st2{fill:#FF85A2;}
	.st3{fill:#A5003F;}
	.st4{fill:#D30046;}
	.st5{fill:none;stroke:#A5003F;stroke-width:20;stroke-linecap:round;stroke-miterlimit:10;}
	.st6{fill:none;stroke:#FFFFFF;stroke-width:15;stroke-linecap:round;stroke-miterlimit:10;}
	.st7{fill:none;stroke:#FF0049;stroke-width:70;stroke-linecap:round;stroke-miterlimit:10;}
	.st8{fill:none;stroke:#FFFFFF;stroke-width:10;stroke-linecap:round;stroke-miterlimit:10;}
	.st9{fill:#FFFFFF;}
</style>
<g id="COULEURS">
</g>
<g id="Jauge__x2B_accueil">
</g>
<g id="images">
</g>
<g id="TEXTE">
</g>
<g id="jauge">
</g>
<g id="picto_accueil">
</g>
<g id="FOND">
</g>
<g id="PICTOS">
</g>
<g id="bulles_Source__x2B_dico">
</g>
<g id="règles">
</g>
<g id="LOGO">
	<path class="st4" d="M340.52,848.22c49.28-1.05,281.01,19.92,311.42-12.58c-4.19-52.43-27.26-432-16.78-473.94
		c-58.72-12.58-271.57,6.29-307.22,11.53C327.93,415.17,356.24,794.74,340.52,848.22z"/>
	<g>
		<g>
			<path class="st1" d="M363.58,418.93c-4.14,0-7.5-3.36-7.5-7.5s3.36-7.5,7.5-7.5c28.74,0,56.78-4.09,86.48-8.42
				c43.94-6.41,89.37-13.04,140.92-6.7c4.11,0.51,7.03,4.25,6.53,8.36c-0.51,4.11-4.25,7.04-8.36,6.53
				c-49.55-6.09-93.97,0.39-136.93,6.66C421.98,414.76,393.41,418.93,363.58,418.93z"/>
		</g>
		<g>
			<path class="st1" d="M366.61,463.26c-4.11,0-7.46-3.31-7.5-7.43c-0.04-4.14,3.29-7.53,7.43-7.57c31.58-0.29,61.84-4.07,91.1-7.72
				c41.92-5.23,85.28-10.64,134.8-6.46c4.13,0.35,7.19,3.98,6.84,8.11s-3.98,7.18-8.11,6.84c-47.96-4.06-90.52,1.26-131.68,6.39
				c-29.69,3.71-60.38,7.54-92.83,7.83C366.66,463.26,366.63,463.26,366.61,463.26z"/>
		</g>
		<g>
			<path class="st1" d="M369.64,507.6c-4.08,0-7.42-3.27-7.5-7.37c-0.07-4.14,3.23-7.56,7.37-7.63c34.82-0.6,66.16-3.85,96.46-6.98
				c41.51-4.29,80.71-8.35,127.93-6.23c4.14,0.19,7.34,3.69,7.16,7.83c-0.19,4.14-3.7,7.36-7.83,7.16
				c-46.1-2.07-84.77,1.93-125.71,6.17c-30.62,3.17-62.28,6.45-97.75,7.06C369.73,507.6,369.68,507.6,369.64,507.6z"/>
		</g>
		<g>
			<path class="st1" d="M372.67,551.94c-4.06,0-7.39-3.24-7.49-7.32c-0.1-4.14,3.17-7.58,7.31-7.68
				c39.14-0.96,72.13-3.67,104.03-6.28c38.45-3.15,74.76-6.13,118.83-5.96c4.14,0.02,7.49,3.39,7.47,7.53
				c-0.02,4.13-3.37,7.47-7.5,7.47c-0.01,0-0.02,0-0.03,0c-43.43-0.19-79.42,2.78-117.54,5.91c-32.11,2.63-65.32,5.35-104.89,6.33
				C372.79,551.94,372.73,551.94,372.67,551.94z"/>
		</g>
		<g>
			<path class="st1" d="M375.7,596.28c-4.04,0-7.37-3.21-7.49-7.27c-0.13-4.14,3.12-7.6,7.26-7.73c49.85-1.55,88.21-3.9,125.3-6.18
				c31.08-1.91,60.43-3.7,96.01-5.08c4.16-0.16,7.62,3.07,7.78,7.21c0.16,4.14-3.07,7.62-7.21,7.78
				c-35.41,1.37-64.68,3.16-95.67,5.06c-37.2,2.28-75.67,4.64-125.75,6.2C375.86,596.28,375.78,596.28,375.7,596.28z"/>
		</g>
		<g>
			<path class="st1" d="M378.73,640.62c-4.01,0-7.34-3.18-7.49-7.22c-0.15-4.14,3.08-7.62,7.22-7.77
				c23.05-0.85,43.65-1.53,61.83-2.13c57.57-1.9,99.16-3.26,157.91-8.12c4.12-0.34,7.75,2.73,8.09,6.86
				c0.34,4.13-2.73,7.75-6.86,8.09c-59.12,4.89-100.87,6.26-158.65,8.16c-18.16,0.6-38.75,1.28-61.77,2.13
				C378.91,640.62,378.82,640.62,378.73,640.62z"/>
		</g>
		<g>
			<path class="st1" d="M381.75,684.96c-4,0-7.32-3.15-7.49-7.18c-0.18-4.14,3.04-7.64,7.17-7.81c36.97-1.57,66.24-1.91,92.06-2.21
				c43.82-0.51,78.44-0.91,126.1-7.03c4.11-0.53,7.87,2.37,8.39,6.48c0.53,4.11-2.38,7.87-6.48,8.39
				c-48.53,6.23-83.53,6.64-127.84,7.15c-25.71,0.3-54.85,0.64-91.59,2.2C381.97,684.95,381.86,684.96,381.75,684.96z"/>
		</g>
		<g>
			<path class="st1" d="M384.78,729.29c-3.98,0-7.3-3.13-7.49-7.15c-0.2-4.14,3-7.65,7.14-7.85c41.75-1.98,72.79-1.6,100.17-1.27
				c40.25,0.49,72.04,0.87,116.4-6.93c4.08-0.72,7.97,2.01,8.69,6.09s-2.01,7.97-6.09,8.69c-45.73,8.04-78.15,7.65-119.18,7.16
				c-27.17-0.33-57.97-0.7-99.28,1.26C385.02,729.29,384.9,729.29,384.78,729.29z"/>
		</g>
		<g>
			<path class="st1" d="M529.59,774.41c-12.05,0-24.2-0.45-37.28-0.93c-27.85-1.02-59.41-2.18-104.11,0.14
				c-4.12,0.2-7.66-2.96-7.88-7.1c-0.21-4.14,2.96-7.66,7.1-7.88c45.37-2.35,77.28-1.18,105.43-0.15c39.16,1.44,67.45,2.47,109.54-7
				c4.04-0.91,8.05,1.63,8.96,5.67c0.91,4.04-1.63,8.05-5.67,8.96C576.54,772.69,553.26,774.41,529.59,774.41z"/>
		</g>
		<g>
			<path class="st1" d="M539.37,820.71c-13.04,0-26.01-0.81-40.13-1.69c-26.84-1.67-60.23-3.75-107.98-1.07
				c-4.11,0.23-7.68-2.93-7.91-7.07c-0.23-4.14,2.93-7.68,7.07-7.91c48.63-2.72,82.52-0.62,109.75,1.08
				c36.83,2.29,63.44,3.95,103.62-7.16c4-1.11,8.12,1.24,9.23,5.23c1.1,3.99-1.24,8.12-5.23,9.23
				C581.51,818.62,560.36,820.71,539.37,820.71z"/>
		</g>
	</g>
	<path class="st1" d="M406.19,782.54c49.28-1.05,281.01,19.92,311.42-12.58c-4.19-52.43-27.26-432-16.78-473.94
		c-58.72-12.58-271.57,6.29-307.22,11.53C393.61,349.49,421.92,729.06,406.19,782.54z"/>
	<g>
		<g>
			<path class="st4" d="M429.26,350.75c-2.76,0-5-2.24-5-5s2.24-5,5-5c28.92,0,57.05-4.1,86.84-8.45
				c43.78-6.39,89.04-12.99,140.26-6.7c2.74,0.34,4.69,2.83,4.35,5.57c-0.34,2.74-2.83,4.69-5.57,4.35
				c-49.89-6.13-94.48,0.37-137.6,6.67C487.39,346.59,458.91,350.75,429.26,350.75z"/>
		</g>
		<g>
			<path class="st4" d="M432.29,395.09c-2.74,0-4.97-2.21-5-4.95c-0.03-2.76,2.19-5.02,4.95-5.05c31.72-0.29,62.06-4.08,91.39-7.74
				c41.8-5.22,85.01-10.61,134.28-6.44c2.75,0.23,4.79,2.65,4.56,5.4c-0.23,2.75-2.66,4.78-5.4,4.56
				c-48.22-4.08-90.91,1.25-132.2,6.4c-29.62,3.7-60.24,7.52-92.54,7.81C432.32,395.09,432.31,395.09,432.29,395.09z"/>
		</g>
		<g>
			<path class="st4" d="M435.32,439.42c-2.72,0-4.95-2.18-5-4.91c-0.05-2.76,2.15-5.04,4.91-5.09c34.92-0.6,66.32-3.85,96.67-7
				c41.41-4.29,80.53-8.33,127.56-6.22c2.76,0.12,4.89,2.46,4.77,5.22c-0.12,2.76-2.48,4.87-5.22,4.77
				c-46.28-2.08-85.05,1.93-126.08,6.18c-30.57,3.16-62.18,6.43-97.53,7.05C435.38,439.42,435.35,439.42,435.32,439.42z"/>
		</g>
		<g>
			<path class="st4" d="M438.35,483.76c-2.71,0-4.93-2.16-5-4.88c-0.07-2.76,2.11-5.05,4.88-5.12c39.21-0.96,72.23-3.67,104.17-6.29
				c38.4-3.15,74.67-6.11,118.62-5.95c2.76,0.01,4.99,2.26,4.98,5.02c-0.01,2.75-2.25,4.98-5,4.98c-0.01,0-0.01,0-0.02,0
				c-43.49-0.18-79.58,2.78-117.76,5.91c-32.08,2.63-65.25,5.35-104.74,6.32C438.43,483.76,438.39,483.76,438.35,483.76z"/>
		</g>
		<g>
			<path class="st4" d="M441.38,528.1c-2.69,0-4.91-2.14-5-4.84c-0.09-2.76,2.08-5.07,4.84-5.15c49.88-1.55,88.25-3.9,125.35-6.18
				c31.07-1.9,60.42-3.7,95.97-5.07c2.77-0.11,5.08,2.04,5.19,4.8c0.11,2.76-2.04,5.08-4.8,5.19c-35.44,1.37-64.73,3.16-95.74,5.06
				c-37.18,2.28-75.62,4.63-125.65,6.19C441.48,528.1,441.43,528.1,441.38,528.1z"/>
		</g>
		<g>
			<path class="st4" d="M444.41,572.44c-2.68,0-4.89-2.12-4.99-4.81c-0.1-2.76,2.05-5.08,4.81-5.18
				c23.03-0.85,43.62-1.53,61.78-2.13c57.62-1.9,99.25-3.27,158.07-8.13c2.76-0.21,5.17,1.82,5.4,4.57s-1.82,5.17-4.57,5.4
				c-59.07,4.88-100.8,6.26-158.57,8.16c-18.15,0.6-38.73,1.27-61.74,2.13C444.53,572.44,444.47,572.44,444.41,572.44z"/>
		</g>
		<g>
			<path class="st4" d="M447.43,616.78c-2.66,0-4.88-2.1-4.99-4.79c-0.12-2.76,2.02-5.09,4.78-5.21
				c36.93-1.57,66.18-1.91,91.98-2.21c43.9-0.51,78.58-0.91,126.39-7.05c2.74-0.37,5.24,1.58,5.6,4.32s-1.58,5.24-4.32,5.6
				c-48.39,6.21-83.32,6.62-127.55,7.13c-25.73,0.3-54.89,0.63-91.67,2.2C447.58,616.78,447.5,616.78,447.43,616.78z"/>
		</g>
		<g>
			<path class="st4" d="M450.46,661.11c-2.65,0-4.86-2.09-4.99-4.76c-0.13-2.76,2-5.1,4.76-5.23c41.68-1.98,72.67-1.6,100.02-1.27
				c40.38,0.49,72.28,0.87,116.86-6.97c2.72-0.47,5.31,1.34,5.79,4.06c0.48,2.72-1.34,5.31-4.06,5.79
				c-45.51,8-77.81,7.62-118.72,7.12c-27.21-0.33-58.05-0.7-99.43,1.26C450.62,661.11,450.54,661.11,450.46,661.11z"/>
		</g>
		<g>
			<path class="st4" d="M595.22,706.23c-12,0-24.11-0.44-37.14-0.92c-27.9-1.02-59.51-2.18-104.33,0.14
				c-2.75,0.16-5.11-1.98-5.25-4.73s1.98-5.11,4.73-5.25c45.25-2.35,77.11-1.18,105.21-0.15c39.34,1.44,67.77,2.49,110.18-7.06
				c2.69-0.61,5.37,1.08,5.98,3.78c0.61,2.69-1.09,5.37-3.78,5.98C641.9,704.52,618.76,706.23,595.22,706.23z"/>
		</g>
		<g>
			<path class="st4" d="M605.54,752.57c-12.89,0-25.9-0.81-40.47-1.72c-26.9-1.67-60.38-3.76-108.27-1.07
				c-2.73,0.12-5.12-1.96-5.27-4.71c-0.15-2.76,1.96-5.12,4.71-5.27c48.48-2.71,82.29-0.61,109.45,1.08
				c37.07,2.31,63.86,3.97,104.45-7.25c2.66-0.73,5.42,0.83,6.15,3.49c0.74,2.66-0.83,5.42-3.49,6.15
				C646.76,750.47,626.32,752.57,605.54,752.57z"/>
		</g>
	</g>
	<path class="st0" d="M471.87,716.86c49.28-1.05,281.01,19.92,311.42-12.58c-4.19-52.43-27.26-432-16.78-473.94
		c-58.72-12.58-271.57,6.29-307.22,11.53C459.29,283.81,487.6,663.38,471.87,716.86z"/>
	<g>
		<g>
			<path class="st3" d="M494.94,285.07c-2.76,0-5-2.24-5-5s2.24-5,5-5c28.92,0,57.05-4.1,86.84-8.45
				c43.77-6.39,89.04-12.99,140.26-6.7c2.74,0.34,4.69,2.83,4.35,5.57c-0.34,2.74-2.83,4.69-5.57,4.35
				c-49.89-6.13-94.48,0.37-137.6,6.67C553.07,280.92,524.59,285.07,494.94,285.07z"/>
		</g>
		<g>
			<path class="st3" d="M497.97,329.41c-2.74,0-4.97-2.21-5-4.95c-0.03-2.76,2.19-5.02,4.95-5.05c31.72-0.29,62.05-4.08,91.39-7.74
				c41.8-5.22,85.01-10.61,134.28-6.44c2.75,0.23,4.79,2.65,4.56,5.4c-0.23,2.75-2.65,4.78-5.4,4.56
				c-48.22-4.08-90.91,1.25-132.2,6.4c-29.62,3.7-60.24,7.52-92.54,7.82C498,329.41,497.99,329.41,497.97,329.41z"/>
		</g>
		<g>
			<path class="st3" d="M501,373.75c-2.72,0-4.95-2.18-5-4.91c-0.05-2.76,2.15-5.04,4.91-5.09c34.92-0.6,66.32-3.85,96.67-7
				c41.41-4.29,80.53-8.33,127.56-6.22c2.76,0.12,4.89,2.46,4.77,5.22c-0.12,2.76-2.5,4.88-5.22,4.77
				c-46.28-2.08-85.04,1.93-126.08,6.18c-30.57,3.16-62.18,6.43-97.53,7.05C501.06,373.75,501.03,373.75,501,373.75z"/>
		</g>
		<g>
			<path class="st3" d="M504.03,418.08c-2.71,0-4.93-2.16-5-4.88c-0.07-2.76,2.11-5.05,4.88-5.12c39.21-0.96,72.23-3.67,104.17-6.29
				c38.4-3.15,74.68-6.11,118.61-5.95c2.76,0.01,4.99,2.26,4.98,5.02c-0.01,2.75-2.25,4.98-5,4.98c-0.01,0-0.01,0-0.02,0
				c-43.49-0.19-79.58,2.79-117.76,5.91c-32.08,2.63-65.25,5.35-104.74,6.32C504.11,418.08,504.07,418.08,504.03,418.08z"/>
		</g>
		<g>
			<path class="st3" d="M507.05,462.42c-2.69,0-4.91-2.14-5-4.84c-0.09-2.76,2.08-5.07,4.84-5.15c49.88-1.55,88.25-3.9,125.36-6.18
				c31.07-1.9,60.41-3.7,95.96-5.07c2.79-0.12,5.08,2.04,5.19,4.8c0.11,2.76-2.04,5.08-4.8,5.19c-35.44,1.37-64.73,3.16-95.74,5.06
				c-37.18,2.28-75.63,4.63-125.66,6.19C507.16,462.42,507.11,462.42,507.05,462.42z"/>
		</g>
		<g>
			<path class="st3" d="M510.08,506.76c-2.68,0-4.89-2.12-4.99-4.81c-0.1-2.76,2.05-5.08,4.81-5.18
				c23.03-0.85,43.62-1.53,61.78-2.13c57.62-1.9,99.25-3.27,158.07-8.13c2.75-0.21,5.17,1.82,5.4,4.57s-1.82,5.17-4.57,5.4
				c-59.07,4.88-100.8,6.26-158.57,8.16c-18.15,0.6-38.73,1.27-61.74,2.13C510.21,506.76,510.15,506.76,510.08,506.76z"/>
		</g>
		<g>
			<path class="st3" d="M513.11,551.1c-2.66,0-4.88-2.1-4.99-4.79c-0.12-2.76,2.02-5.09,4.78-5.21c36.93-1.57,66.18-1.91,91.98-2.21
				c43.9-0.51,78.58-0.91,126.39-7.05c2.74-0.36,5.25,1.58,5.6,4.32c0.35,2.74-1.58,5.24-4.32,5.6
				c-48.39,6.21-83.32,6.62-127.55,7.13c-25.73,0.3-54.89,0.63-91.67,2.2C513.26,551.1,513.18,551.1,513.11,551.1z"/>
		</g>
		<g>
			<path class="st3" d="M516.14,595.44c-2.65,0-4.86-2.09-4.99-4.76c-0.13-2.76,2-5.1,4.76-5.23c41.68-1.98,72.67-1.6,100.02-1.27
				c40.38,0.49,72.27,0.87,116.86-6.97c2.72-0.48,5.31,1.34,5.79,4.06c0.48,2.72-1.34,5.31-4.06,5.79
				c-45.51,8-77.81,7.61-118.71,7.12c-27.21-0.33-58.05-0.7-99.43,1.26C516.3,595.43,516.22,595.44,516.14,595.44z"/>
		</g>
		<g>
			<path class="st3" d="M660.9,640.55c-12,0-24.11-0.44-37.14-0.92c-27.9-1.02-59.52-2.18-104.33,0.14
				c-2.76,0.15-5.11-1.98-5.25-4.73s1.98-5.11,4.73-5.25c45.25-2.35,77.11-1.18,105.21-0.15c39.34,1.44,67.77,2.49,110.18-7.06
				c2.69-0.61,5.37,1.08,5.98,3.78c0.61,2.69-1.09,5.37-3.78,5.98C707.58,638.84,684.44,640.55,660.9,640.55z"/>
		</g>
		<g>
			<path class="st3" d="M671.22,686.89c-12.89,0-25.9-0.81-40.46-1.72c-26.9-1.67-60.38-3.76-108.27-1.07
				c-2.72,0.14-5.12-1.96-5.27-4.71c-0.15-2.76,1.96-5.12,4.71-5.27c48.48-2.71,82.29-0.61,109.45,1.08
				c37.08,2.31,63.86,3.97,104.45-7.25c2.66-0.73,5.42,0.83,6.15,3.49c0.74,2.66-0.83,5.42-3.49,6.15
				C712.44,684.79,692,686.89,671.22,686.89z"/>
		</g>
	</g>
</g>
</svg>
