<?xml version="1.0" encoding="utf-8"?>
<!-- Generator: Adobe Illustrator 25.2.1, SVG Export Plug-In . SVG Version: 6.00 Build 0)  -->
<svg version="1.1" id="Calque_1" xmlns="http://www.w3.org/2000/svg" xmlns:xlink="http://www.w3.org/1999/xlink" x="0px" y="0px"
	 viewBox="0 0 1080 1080" style="enable-background:new 0 0 1080 1080;" xml:space="preserve">
<style type="text/css">
	.st0{fill:#D30046;}
	.st1{fill:#FF5072;}
	.st2{fill:#FF0049;}
	.st3{fill:#A5003F;}
</style>
<g id="COULEURS">
</g>
<g id="Jauge__x2B_accueil">
</g>
<g id="images">
</g>
<g id="TEXTE">
</g>
<g id="jauge">
</g>
<g id="picto_accueil">
</g>
<g id="FOND">
</g>
<g id="PICTOS">
</g>
<g id="bulles_Source__x2B_dico">
</g>
<g id="règles">
</g>
<g id="LOGO">
	<path class="st0" d="M240.1,1048.6c111,3.9,361.2,21.2,448.7-7.4c15.2-5,25-19.7,23.9-35.6C704,879.8,676.6,414.7,683.3,278
		c0.9-18.9-13.3-35-32.2-36.5c-110.9-8.8-344.3,9.7-438.5,19.8c-18.4,2-32,17.9-31.2,36.3c6.2,132.6,36.1,568.6,25,713.4
		C205,1030.8,220.3,1047.9,240.1,1048.6z"/>
	<g>
		<g>
			<path class="st1" d="M239.1,340.5c-6.8,0-12.4-5.5-12.4-12.4c0-6.8,5.5-12.4,12.4-12.4c47.4,0,93.6-6.7,142.5-13.9
				c72.4-10.6,147.3-21.5,232.2-11c6.8,0.8,11.6,7,10.8,13.8c-0.8,6.8-7,11.6-13.8,10.8c-81.7-10-154.9,0.6-225.7,11
				C335.4,333.6,288.3,340.5,239.1,340.5z"/>
		</g>
		<g>
			<path class="st1" d="M244.1,413.5c-6.8,0-12.3-5.5-12.4-12.2c-0.1-6.8,5.4-12.4,12.2-12.5c52-0.5,101.9-6.7,150.1-12.7
				c69.1-8.6,140.5-17.5,222.2-10.6c6.8,0.6,11.8,6.6,11.3,13.4s-6.6,11.8-13.4,11.3c-79-6.7-149.2,2.1-217,10.5
				C348.3,406.7,297.7,413,244.1,413.5C244.2,413.5,244.2,413.5,244.1,413.5z"/>
		</g>
		<g>
			<path class="st1" d="M249.1,486.6c-6.7,0-12.2-5.4-12.4-12.1c-0.1-6.8,5.3-12.5,12.1-12.6c57.4-1,109-6.3,159-11.5
				c68.4-7.1,133-13.8,210.8-10.3c6.8,0.3,12.1,6.1,11.8,12.9c-0.3,6.8-6.1,12.1-12.9,11.8c-76-3.4-139.7,3.2-207.2,10.2
				c-50.5,5.2-102.6,10.6-161.1,11.6C249.3,486.6,249.2,486.6,249.1,486.6z"/>
		</g>
		<g>
			<path class="st1" d="M254.1,559.7c-6.7,0-12.2-5.3-12.3-12.1c-0.2-6.8,5.2-12.5,12-12.7c64.5-1.6,118.9-6,171.4-10.3
				c63.4-5.2,123.2-10.1,195.8-9.8c6.8,0,12.3,5.6,12.3,12.4c0,6.8-5.6,12.3-12.4,12.3c0,0,0,0,0,0c-71.6-0.3-130.9,4.6-193.7,9.7
				c-52.9,4.3-107.6,8.8-172.9,10.4C254.3,559.7,254.2,559.7,254.1,559.7z"/>
		</g>
		<g>
			<path class="st1" d="M259.1,632.7c-6.7,0-12.1-5.3-12.3-12c-0.2-6.8,5.1-12.5,12-12.7c82.2-2.6,145.4-6.4,206.5-10.2
				c51.2-3.1,99.6-6.1,158.2-8.4c6.9-0.3,12.6,5.1,12.8,11.9c0.3,6.8-5.1,12.6-11.9,12.8c-58.4,2.3-106.6,5.2-157.7,8.3
				c-61.3,3.8-124.7,7.6-207.2,10.2C259.4,632.7,259.2,632.7,259.1,632.7z"/>
		</g>
		<g>
			<path class="st1" d="M264.1,705.8c-6.6,0-12.1-5.2-12.3-11.9c-0.2-6.8,5.1-12.6,11.9-12.8c38-1.4,71.9-2.5,101.9-3.5
				c94.9-3.1,163.4-5.4,260.2-13.4c6.8-0.6,12.8,4.5,13.3,11.3s-4.5,12.8-11.3,13.3c-97.4,8.1-166.2,10.3-261.5,13.4
				c-29.9,1-63.9,2.1-101.8,3.5C264.4,705.8,264.3,705.8,264.1,705.8z"/>
		</g>
		<g>
			<path class="st1" d="M269.1,778.9c-6.6,0-12.1-5.2-12.3-11.8c-0.3-6.8,5-12.6,11.8-12.9c60.9-2.6,109.2-3.1,151.7-3.6
				c72.2-0.8,129.3-1.5,207.8-11.6c6.8-0.9,13,3.9,13.8,10.7c0.9,6.8-3.9,13-10.7,13.8c-80,10.3-137.7,10.9-210.7,11.8
				c-42.4,0.5-90.4,1.1-150.9,3.6C269.4,778.9,269.3,778.9,269.1,778.9z"/>
		</g>
		<g>
			<path class="st1" d="M274.1,851.9c-6.6,0-12-5.2-12.3-11.8c-0.3-6.8,4.9-12.6,11.8-12.9c68.8-3.3,120-2.6,165.1-2.1
				c66.3,0.8,118.7,1.4,191.8-11.4c6.7-1.2,13.1,3.3,14.3,10c1.2,6.7-3.3,13.1-10,14.3c-75.4,13.2-128.8,12.6-196.4,11.8
				c-44.8-0.5-95.5-1.2-163.6,2.1C274.5,851.9,274.3,851.9,274.1,851.9z"/>
		</g>
		<g>
			<path class="st1" d="M512.7,926.3c-19.9,0-39.9-0.7-61.4-1.5c-45.9-1.7-97.9-3.6-171.6,0.2c-6.8,0.3-12.6-4.9-13-11.7
				c-0.3-6.8,4.9-12.6,11.7-13c74.8-3.9,127.4-1.9,173.7-0.2c64.5,2.4,111.2,4.1,180.5-11.5c6.7-1.5,13.3,2.7,14.8,9.3
				c1.5,6.7-2.7,13.3-9.3,14.8C590.1,923.5,551.7,926.3,512.7,926.3z"/>
		</g>
		<g>
			<path class="st1" d="M528.8,1002.6c-21.5,0-42.9-1.3-66.1-2.8c-44.2-2.8-99.3-6.2-178-1.8c-6.8,0.4-12.7-4.8-13-11.7
				s4.8-12.7,11.7-13c80.1-4.5,136-1,180.9,1.8c60.7,3.8,104.5,6.5,170.8-11.8c6.6-1.8,13.4,2,15.2,8.6c1.8,6.6-2,13.4-8.6,15.2
				C598.3,999.2,563.4,1002.6,528.8,1002.6z"/>
		</g>
	</g>
	<path class="st1" d="M348.3,940.4c111,3.9,361.2,21.2,448.7-7.4c15.2-5,25-19.7,23.9-35.6c-8.8-125.7-36.2-590.9-29.5-727.6
		c0.9-18.9-13.3-35-32.2-36.5c-110.9-8.8-344.3,9.7-438.5,19.8c-18.4,2-32,17.9-31.2,36.3c6.2,132.6,36.1,568.6,25,713.4
		C313.2,922.6,328.5,939.7,348.3,940.4z"/>
	<g>
		<g>
			<path class="st0" d="M347.4,228.1c-4.5,0-8.2-3.7-8.2-8.2c0-4.5,3.7-8.2,8.2-8.2c47.7,0,94-6.8,143.1-13.9
				c72.2-10.5,146.7-21.4,231.2-11c4.5,0.6,7.7,4.7,7.2,9.2c-0.6,4.5-4.7,7.7-9.2,7.2c-82.2-10.1-155.7,0.6-226.8,11
				C443.2,221.3,396.2,228.1,347.4,228.1z"/>
		</g>
		<g>
			<path class="st0" d="M352.4,301.2c-4.5,0-8.2-3.6-8.2-8.2c0-4.5,3.6-8.3,8.2-8.3c52.3-0.5,102.3-6.7,150.6-12.8
				c68.9-8.6,140.1-17.5,221.3-10.6c4.5,0.4,7.9,4.4,7.5,8.9c-0.4,4.5-4.4,7.9-8.9,7.5c-79.5-6.7-149.8,2.1-217.9,10.5
				C456.1,294.4,405.7,300.7,352.4,301.2C352.4,301.2,352.4,301.2,352.4,301.2z"/>
		</g>
		<g>
			<path class="st0" d="M357.4,374.2c-4.5,0-8.2-3.6-8.2-8.1c-0.1-4.5,3.5-8.3,8.1-8.4c57.5-1,109.3-6.3,159.3-11.5
				c68.2-7.1,132.7-13.7,210.2-10.3c4.5,0.2,8.1,4.1,7.9,8.6s-4.1,8-8.6,7.9c-76.3-3.4-140.2,3.2-207.8,10.2
				c-50.4,5.2-102.5,10.6-160.7,11.6C357.5,374.2,357.4,374.2,357.4,374.2z"/>
		</g>
		<g>
			<path class="st0" d="M362.4,447.3c-4.5,0-8.1-3.6-8.2-8c-0.1-4.5,3.5-8.3,8-8.4c64.6-1.6,119-6,171.7-10.4
				c63.3-5.2,123.1-10.1,195.5-9.8c4.5,0,8.2,3.7,8.2,8.3c0,4.5-3.7,8.2-8.2,8.2c0,0,0,0,0,0c-71.7-0.3-131.1,4.6-194.1,9.7
				c-52.9,4.3-107.5,8.8-172.6,10.4C362.5,447.3,362.4,447.3,362.4,447.3z"/>
		</g>
		<g>
			<path class="st0" d="M367.4,520.4c-4.4,0-8.1-3.5-8.2-8c-0.1-4.5,3.4-8.4,8-8.5c82.2-2.6,145.4-6.4,206.6-10.2
				c51.2-3.1,99.6-6.1,158.2-8.4c4.6-0.2,8.4,3.4,8.6,7.9c0.2,4.5-3.4,8.4-7.9,8.6c-58.4,2.3-106.7,5.2-157.8,8.3
				c-61.3,3.8-124.6,7.6-207.1,10.2C367.5,520.4,367.4,520.4,367.4,520.4z"/>
		</g>
		<g>
			<path class="st0" d="M372.3,593.5c-4.4,0-8.1-3.5-8.2-7.9c-0.2-4.5,3.4-8.4,7.9-8.5c38-1.4,71.9-2.5,101.8-3.5
				c95-3.1,163.6-5.4,260.5-13.4c4.5-0.3,8.5,3,8.9,7.5c0.4,4.5-3,8.5-7.5,8.9c-97.3,8-166.1,10.3-261.3,13.4
				c-29.9,1-63.8,2.1-101.7,3.5C372.5,593.5,372.4,593.5,372.3,593.5z"/>
		</g>
		<g>
			<path class="st0" d="M377.3,666.5c-4.4,0-8-3.5-8.2-7.9c-0.2-4.5,3.3-8.4,7.9-8.6c60.9-2.6,109.1-3.1,151.6-3.6
				c72.3-0.8,129.5-1.5,208.3-11.6c4.5-0.6,8.6,2.6,9.2,7.1c0.6,4.5-2.6,8.6-7.1,9.2c-79.7,10.2-137.3,10.9-210.2,11.8
				c-42.4,0.5-90.5,1-151.1,3.6C377.6,666.5,377.4,666.5,377.3,666.5z"/>
		</g>
		<g>
			<path class="st0" d="M382.3,739.6c-4.4,0-8-3.4-8.2-7.8c-0.2-4.5,3.3-8.4,7.8-8.6c68.7-3.3,119.8-2.6,164.8-2.1
				c66.5,0.8,119.1,1.4,192.6-11.5c4.5-0.8,8.8,2.2,9.5,6.7s-2.2,8.8-6.7,9.5c-75,13.2-128.2,12.6-195.7,11.7
				c-44.8-0.5-95.7-1.2-163.9,2.1C382.6,739.6,382.5,739.6,382.3,739.6z"/>
		</g>
		<g>
			<path class="st0" d="M620.9,813.9c-19.8,0-39.7-0.7-61.2-1.5c-46-1.7-98.1-3.6-171.9,0.2c-4.5,0.3-8.4-3.3-8.7-7.8
				s3.3-8.4,7.8-8.7c74.6-3.9,127.1-1.9,173.4-0.2c64.8,2.4,111.7,4.1,181.6-11.6c4.4-1,8.8,1.8,9.9,6.2c1,4.4-1.8,8.8-6.2,9.9
				C697.8,811.1,659.7,813.9,620.9,813.9z"/>
		</g>
		<g>
			<path class="st0" d="M637.9,890.3c-21.2,0-42.7-1.3-66.7-2.8c-44.3-2.8-99.5-6.2-178.4-1.8c-4.5,0.2-8.4-3.2-8.7-7.8
				c-0.2-4.5,3.2-8.4,7.8-8.7c79.9-4.5,135.6-1,180.4,1.8c61.1,3.8,105.2,6.5,172.1-11.9c4.4-1.2,8.9,1.4,10.1,5.8
				c1.2,4.4-1.4,8.9-5.8,10.1C705.8,886.9,672.1,890.3,637.9,890.3z"/>
		</g>
	</g>
	<path class="st2" d="M456.6,832.1c111,3.9,361.2,21.2,448.7-7.4c15.2-5,25-19.7,23.9-35.6c-8.8-125.7-36.2-590.9-29.5-727.6
		c0.9-18.9-13.3-35-32.2-36.5c-110.9-8.8-344.3,9.7-438.5,19.8c-18.4,2-32,17.9-31.2,36.3c6.2,132.6,36.1,568.6,25,713.4
		C421.5,814.3,436.7,831.4,456.6,832.1z"/>
	<g>
		<g>
			<path class="st3" d="M455.6,119.9c-4.5,0-8.2-3.7-8.2-8.2s3.7-8.2,8.2-8.2c47.7,0,94-6.8,143.1-13.9
				c72.1-10.5,146.7-21.4,231.2-11c4.5,0.6,7.7,4.7,7.2,9.2c-0.6,4.5-4.7,7.7-9.2,7.2c-82.2-10.1-155.7,0.6-226.8,11
				C551.4,113,504.5,119.9,455.6,119.9z"/>
		</g>
		<g>
			<path class="st3" d="M460.6,192.9c-4.5,0-8.2-3.6-8.2-8.2c0-4.5,3.6-8.3,8.2-8.3c52.3-0.5,102.3-6.7,150.6-12.8
				c68.9-8.6,140.1-17.5,221.3-10.6c4.5,0.4,7.9,4.4,7.5,8.9c-0.4,4.5-4.4,7.9-8.9,7.5c-79.5-6.7-149.8,2.1-217.9,10.5
				C564.4,186.2,513.9,192.4,460.6,192.9C460.7,192.9,460.6,192.9,460.6,192.9z"/>
		</g>
		<g>
			<path class="st3" d="M465.6,266c-4.5,0-8.2-3.6-8.2-8.1c-0.1-4.5,3.5-8.3,8.1-8.4c57.5-1,109.3-6.3,159.3-11.5
				c68.2-7.1,132.7-13.7,210.2-10.3c4.5,0.2,8.1,4.1,7.9,8.6c-0.2,4.5-4.1,8-8.6,7.9c-76.3-3.4-140.1,3.2-207.8,10.2
				C576.1,259.6,524,265,465.7,266C465.7,266,465.7,266,465.6,266z"/>
		</g>
		<g>
			<path class="st3" d="M470.6,339.1c-4.5,0-8.1-3.6-8.2-8c-0.1-4.5,3.5-8.3,8-8.4c64.6-1.6,119-6,171.7-10.4
				c63.3-5.2,123.1-10.1,195.5-9.8c4.5,0,8.2,3.7,8.2,8.3c0,4.5-3.7,8.2-8.2,8.2c0,0,0,0,0,0c-71.7-0.3-131.1,4.6-194.1,9.7
				c-52.9,4.3-107.5,8.8-172.6,10.4C470.7,339.1,470.7,339.1,470.6,339.1z"/>
		</g>
		<g>
			<path class="st3" d="M475.6,412.1c-4.4,0-8.1-3.5-8.2-8c-0.1-4.5,3.4-8.4,8-8.5c82.2-2.6,145.4-6.4,206.6-10.2
				c51.2-3.1,99.6-6.1,158.1-8.4c4.6-0.2,8.4,3.4,8.6,7.9c0.2,4.5-3.4,8.4-7.9,8.6c-58.4,2.3-106.7,5.2-157.8,8.3
				c-61.3,3.8-124.6,7.6-207.1,10.2C475.8,412.1,475.7,412.1,475.6,412.1z"/>
		</g>
		<g>
			<path class="st3" d="M480.6,485.2c-4.4,0-8.1-3.5-8.2-7.9c-0.2-4.5,3.4-8.4,7.9-8.5c38-1.4,71.9-2.5,101.8-3.5
				c95-3.1,163.6-5.4,260.5-13.4c4.5-0.3,8.5,3,8.9,7.5s-3,8.5-7.5,8.9c-97.3,8-166.1,10.3-261.3,13.4c-29.9,1-63.8,2.1-101.7,3.5
				C480.8,485.2,480.7,485.2,480.6,485.2z"/>
		</g>
		<g>
			<path class="st3" d="M485.6,558.3c-4.4,0-8-3.5-8.2-7.9c-0.2-4.5,3.3-8.4,7.9-8.6c60.9-2.6,109.1-3.1,151.6-3.6
				c72.3-0.8,129.5-1.5,208.3-11.6c4.5-0.6,8.7,2.6,9.2,7.1c0.6,4.5-2.6,8.6-7.1,9.2c-79.7,10.2-137.3,10.9-210.2,11.8
				c-42.4,0.5-90.5,1-151.1,3.6C485.8,558.3,485.7,558.3,485.6,558.3z"/>
		</g>
		<g>
			<path class="st3" d="M490.6,631.4c-4.4,0-8-3.4-8.2-7.8c-0.2-4.5,3.3-8.4,7.8-8.6c68.7-3.3,119.8-2.6,164.8-2.1
				c66.5,0.8,119.1,1.4,192.6-11.5c4.5-0.8,8.8,2.2,9.5,6.7s-2.2,8.8-6.7,9.5c-75,13.2-128.2,12.5-195.6,11.7
				c-44.8-0.5-95.7-1.2-163.9,2.1C490.8,631.3,490.7,631.4,490.6,631.4z"/>
		</g>
		<g>
			<path class="st3" d="M729.1,705.7c-19.8,0-39.7-0.7-61.2-1.5c-46-1.7-98.1-3.6-171.9,0.2c-4.5,0.2-8.4-3.3-8.7-7.8
				c-0.2-4.5,3.3-8.4,7.8-8.7c74.6-3.9,127.1-1.9,173.4-0.2c64.8,2.4,111.7,4.1,181.6-11.6c4.4-1,8.8,1.8,9.9,6.2
				c1,4.4-1.8,8.8-6.2,9.9C806.1,702.9,767.9,705.7,729.1,705.7z"/>
		</g>
		<g>
			<path class="st3" d="M746.1,782.1c-21.2,0-42.7-1.3-66.7-2.8c-44.3-2.8-99.5-6.2-178.4-1.8c-4.5,0.2-8.4-3.2-8.7-7.8
				c-0.2-4.5,3.2-8.4,7.8-8.7c79.9-4.5,135.6-1,180.4,1.8c61.1,3.8,105.2,6.5,172.1-11.9c4.4-1.2,8.9,1.4,10.1,5.8
				c1.2,4.4-1.4,8.9-5.8,10.1C814.1,778.6,780.4,782.1,746.1,782.1z"/>
		</g>
	</g>
</g>
</svg>
