<?xml version="1.0" encoding="utf-8"?>
<!-- Generator: Adobe Illustrator 25.2.1, SVG Export Plug-In . SVG Version: 6.00 Build 0)  -->
<svg version="1.1" id="Calque_1" xmlns="http://www.w3.org/2000/svg" xmlns:xlink="http://www.w3.org/1999/xlink" x="0px" y="0px"
	 viewBox="0 0 16 16" style="enable-background:new 0 0 16 16;" xml:space="preserve">
<g>
	<path d="M11.4,6.3c0.3,0,0.5,0.1,0.7,0.3l1.2,1.2c0.3,0.3,0.6,0.4,1,0.4c0.4,0,0.7-0.1,1-0.4c0.5-0.5,0.5-1.4,0-2l-0.2-0.2
		l-0.8-0.8c0.1-0.2,0.2-0.5,0.2-0.7c0-0.7-0.6-1.3-1.3-1.3c-0.7,0-1.3,0.6-1.3,1.3s0.6,1.3,1.3,1.3c0.3,0,0.5-0.1,0.7-0.2l0.8,0.8
		L15,6.1c0.4,0.4,0.4,1,0,1.4c-0.2,0.2-0.4,0.3-0.7,0.3c-0.3,0-0.5-0.1-0.7-0.3l-1.2-1.2c-0.3-0.3-0.6-0.4-1-0.4
		c-0.4,0-0.7,0.1-1,0.4c-0.5,0.5-0.5,1.4,0,2l1.9,1.9l2.1,2.1c0.4,0.4,0.4,1,0,1.4c-0.2,0.2-0.4,0.3-0.7,0.3c-0.3,0-0.5-0.1-0.7-0.3
		l-1.8-1.8l0,0c0,0,0,0,0,0l-0.1-0.1l0,0l0,0c-0.2-0.2-0.5-0.3-0.9-0.3c-0.4,0-0.7,0.1-1,0.4c-0.5,0.5-0.5,1.4,0,2l0.1,0.1
		c0.4,0.4,0.4,1,0,1.4c-0.2,0.2-0.4,0.3-0.7,0.3c-0.3,0-0.5-0.1-0.7-0.3L6,13.1c-0.3-0.3-0.6-0.4-1-0.4c0,0,0,0,0,0
		c-0.4,0-0.7,0.1-1,0.4c-0.1,0.1-0.1,0.2,0,0.3c0.1,0.1,0.2,0.1,0.3,0c0.2-0.2,0.4-0.3,0.7-0.3c0.3,0,0.5,0.1,0.7,0.3l2.1,2.2
		c0.3,0.3,0.6,0.4,1,0.4c0,0,0,0,0,0c0.4,0,0.7-0.1,1-0.4c0.5-0.5,0.5-1.4,0-2l-0.1-0.1c-0.4-0.4-0.4-1,0-1.4
		c0.2-0.2,0.4-0.3,0.7-0.3c0.3,0,0.5,0.1,0.7,0.3l1.8,1.8c0.3,0.3,0.6,0.4,1,0.4c0.4,0,0.7-0.1,1-0.4c0.5-0.5,0.5-1.4,0-2l-2.1-2.1
		l-1.9-1.9c-0.4-0.4-0.4-1,0-1.4C10.9,6.4,11.2,6.3,11.4,6.3z M12.5,4.1c0-0.5,0.4-0.9,0.9-0.9c0.5,0,0.9,0.4,0.9,0.9
		c0,0.5-0.4,0.9-0.9,0.9C12.8,5,12.5,4.6,12.5,4.1z"/>
	<path d="M2.8,10.6c-0.3,0-0.5,0.1-0.7,0.2l-0.8-0.8L1.1,9.9c-0.4-0.4-0.4-1,0-1.4c0.2-0.2,0.4-0.3,0.7-0.3c0.3,0,0.5,0.1,0.7,0.3
		l1,1c0.3,0.3,0.6,0.4,1,0.4c0.4,0,0.7-0.1,1-0.4c0.5-0.5,0.5-1.4,0-2L3.7,5.9L1.6,3.7c-0.4-0.4-0.4-1,0-1.4C1.8,2.2,2,2.1,2.3,2.1
		c0.3,0,0.5,0.1,0.7,0.3l1.8,1.8l0,0c0,0,0,0,0,0l0.1,0.1l0,0l0,0c0.2,0.2,0.5,0.3,0.9,0.3c0,0,0,0,0,0c0.4,0,0.7-0.1,1-0.4
		c0.5-0.5,0.5-1.4,0-2L6.6,2.1c-0.4-0.4-0.4-1,0-1.4C6.8,0.5,7,0.4,7.2,0.4c0.3,0,0.5,0.1,0.7,0.3l2.1,2.2c0.3,0.3,0.6,0.4,1,0.4
		c0.4,0,0.7-0.1,1-0.4c0.1-0.1,0.1-0.2,0-0.3c-0.1-0.1-0.2-0.1-0.3,0c-0.2,0.2-0.4,0.3-0.7,0.3c-0.3,0-0.5-0.1-0.7-0.3L8.2,0.4
		C8,0.1,7.6,0,7.2,0c-0.4,0-0.7,0.1-1,0.4c-0.5,0.5-0.5,1.4,0,2l0.1,0.1c0.4,0.4,0.4,1,0,1.4C6.2,4,5.9,4.1,5.7,4.1
		C5.4,4.1,5.2,4,5,3.8L3.3,2.1C3,1.8,2.6,1.7,2.3,1.7c0,0,0,0,0,0c-0.4,0-0.7,0.1-1,0.4c-0.5,0.5-0.5,1.4,0,2l2.1,2.1l1.7,1.7
		c0.4,0.4,0.4,1,0,1.4C4.9,9.4,4.7,9.5,4.4,9.5c-0.3,0-0.5-0.1-0.7-0.3l-1-1C2.5,8,2.2,7.8,1.8,7.8S1.1,8,0.8,8.2
		c-0.5,0.5-0.5,1.4,0,2L1,10.4l0.8,0.8c-0.1,0.2-0.2,0.5-0.2,0.7c0,0.7,0.6,1.3,1.3,1.3c0.7,0,1.3-0.6,1.3-1.3
		C4.1,11.2,3.5,10.6,2.8,10.6z M2.8,12.7c-0.5,0-0.9-0.4-0.9-0.9C2,11.4,2.3,11,2.8,11c0.5,0,0.9,0.4,0.9,0.9
		C3.7,12.3,3.3,12.7,2.8,12.7z"/>
</g>
</svg>
