<?xml version="1.0" encoding="utf-8"?>
<!-- Generator: Adobe Illustrator 25.1.0, SVG Export Plug-In . SVG Version: 6.00 Build 0)  -->
<svg version="1.1" id="Calque_1" xmlns="http://www.w3.org/2000/svg" xmlns:xlink="http://www.w3.org/1999/xlink" x="0px" y="0px"
	 viewBox="0 0 274 106" style="enable-background:new 0 0 274 106;" xml:space="preserve">
<style type="text/css">
	.st0{fill:#FFFFFF;}
</style>
<g>
	<path d="M219.6,96.95h-18.97c-3.46,0-6.28-2.82-6.28-6.28V32.02c0-3.46,2.82-6.28,6.28-6.28h18.97c12.22,0,21.85,2.55,28.62,7.58
		c8.03,5.96,12.1,15.38,12.1,27.98c0,12.64-4.07,22.09-12.1,28.06C241.45,94.4,231.82,96.95,219.6,96.95z M200.63,30.2
		c-1,0-1.82,0.82-1.82,1.82v58.65c0,1,0.82,1.82,1.82,1.82h18.97c24.4,0,36.26-10.2,36.26-31.19c0-11.12-3.46-19.33-10.3-24.4
		c-5.98-4.44-14.71-6.7-25.96-6.7H200.63z M219.87,81.39c-3.46,0-6.28-2.82-6.28-6.28V47.58c0-3.46,2.82-6.28,6.28-6.28
		c4.56,0,10.32,0.42,14.42,3.67c4,3.17,5.94,8.51,5.94,16.33C240.24,78.96,230.45,81.39,219.87,81.39z M219.87,45.76
		c-1,0-1.82,0.82-1.82,1.82v27.53c0,1,0.82,1.82,1.82,1.82c10.32,0,15.91-2.49,15.91-15.63C235.78,48.24,230.19,45.76,219.87,45.76z
		"/>
	<g>
		<path d="M175.1,36.72c-7.61,0-13.81-6.21-13.81-13.84s6.19-13.84,13.81-13.84s13.81,6.21,13.81,13.84S182.71,36.72,175.1,36.72z
			 M175.1,13.33c-5.25,0-9.52,4.28-9.52,9.55c0,5.27,4.27,9.55,9.52,9.55c5.25,0,9.52-4.28,9.52-9.55
			C184.62,17.62,180.35,13.33,175.1,13.33z"/>
	</g>
	<g>
		<path d="M111.96,36.72c-7.61,0-13.81-6.21-13.81-13.84s6.19-13.84,13.81-13.84s13.81,6.21,13.81,13.84S119.57,36.72,111.96,36.72z
			 M111.96,13.33c-5.25,0-9.52,4.28-9.52,9.55c0,5.27,4.27,9.55,9.52,9.55s9.52-4.28,9.52-9.55
			C121.48,17.62,117.21,13.33,111.96,13.33z"/>
	</g>
	<g>
		<path d="M44.1,95.92l-13.3-45.56v45.56H13.69V29.72h27.87l11.2,41.18l11.02-41.18h27.59v66.19H74.25V50.08L61.13,95.92H44.1z"/>
	</g>
	<g>
		<path d="M121.45,95.92h-18.98V45.3h18.98V95.92z"/>
	</g>
	<g>
		<path d="M153.01,77.41L153.01,77.41v18.5h-19.03V21.4h19.03V77.41z"/>
	</g>
	<path d="M180.92,96.66h-11.65c-3.25,0-5.89-2.55-5.89-5.68v-40.7c0-3.13,2.64-5.68,5.89-5.68h11.65c3.25,0,5.89,2.55,5.89,5.68
		v40.7C186.82,94.11,184.17,96.66,180.92,96.66z M169.28,49.07c-0.79,0-1.44,0.55-1.44,1.22v40.7c0,0.67,0.64,1.22,1.44,1.22h11.65
		c0.79,0,1.44-0.55,1.44-1.22v-40.7c0-0.67-0.64-1.22-1.44-1.22H169.28z"/>
</g>
</svg>
