<?xml version="1.0" encoding="UTF-8" standalone="no"?>
<!-- Generator: Adobe Illustrator 25.1.0, SVG Export Plug-In . SVG Version: 6.00 Build 0)  -->

<svg
   xmlns:dc="http://purl.org/dc/elements/1.1/"
   xmlns:cc="http://creativecommons.org/ns#"
   xmlns:rdf="http://www.w3.org/1999/02/22-rdf-syntax-ns#"
   xmlns:svg="http://www.w3.org/2000/svg"
   xmlns="http://www.w3.org/2000/svg"
   xmlns:sodipodi="http://sodipodi.sourceforge.net/DTD/sodipodi-0.dtd"
   xmlns:inkscape="http://www.inkscape.org/namespaces/inkscape"
   version="1.1"
   id="Calque_1"
   x="0px"
   y="0px"
   viewBox="0 0 166.10251 174.37"
   xml:space="preserve"
   sodipodi:docname="MILID-logo-minimal.svg"
   width="166.10251"
   height="174.37"
   inkscape:version="0.92.5 (0.92.5+68)"><metadata
   id="metadata39"><rdf:RDF><cc:Work
       rdf:about=""><dc:format>image/svg+xml</dc:format><dc:type
         rdf:resource="http://purl.org/dc/dcmitype/StillImage" /><dc:title></dc:title></cc:Work></rdf:RDF></metadata><defs
   id="defs37" /><sodipodi:namedview
   pagecolor="#ffffff"
   bordercolor="#666666"
   borderopacity="1"
   objecttolerance="10"
   gridtolerance="10"
   guidetolerance="10"
   inkscape:pageopacity="0"
   inkscape:pageshadow="2"
   inkscape:window-width="1376"
   inkscape:window-height="771"
   id="namedview35"
   showgrid="false"
   inkscape:pagecheckerboard="true"
   fit-margin-top="0"
   fit-margin-left="0"
   fit-margin-right="0"
   fit-margin-bottom="0"
   inkscape:zoom="0.7195122"
   inkscape:cx="-77.084003"
   inkscape:cy="20.9"
   inkscape:window-x="49"
   inkscape:window-y="24"
   inkscape:window-maximized="0"
   inkscape:current-layer="Calque_1" />
<style
   type="text/css"
   id="style2">
	.st0{fill:#FFFFFF;}
</style>







<g
   id="g32"
   transform="translate(-52.168749,-10.53)">
	<path
   class="st0"
   d="m 171.79,78.72 c 2.79,0 5.41,1.09 7.38,3.07 l 13.35,13.35 c 2.85,2.86 6.64,4.43 10.67,4.43 4.03,0 7.82,-1.57 10.67,-4.43 5.88,-5.9 5.88,-15.49 0.01,-21.38 l -1.75,-1.77 -8.34,-8.36 c 1.63,-2.29 2.6,-5.09 2.6,-8.11 0,-7.72 -6.27,-14 -13.97,-14 -7.71,0 -13.97,6.28 -13.97,14 0,7.72 6.27,14 13.97,14 3.01,0 5.8,-0.97 8.08,-2.6 l 8.33,8.35 1.75,1.77 c 4.07,4.09 4.07,10.73 0,14.82 -1.97,1.98 -4.59,3.07 -7.38,3.07 -2.79,0 -5.41,-1.09 -7.38,-3.07 L 182.46,78.5 c -2.85,-2.86 -6.64,-4.43 -10.67,-4.43 -4.03,0 -7.82,1.57 -10.67,4.43 -5.88,5.9 -5.88,15.49 0,21.39 l 21.05,21.05 23.38,23.36 c 4.07,4.08 4.07,10.73 0,14.82 -1.97,1.98 -4.59,3.07 -7.38,3.07 -2.79,0 -5.41,-1.09 -7.38,-3.06 l -19.21,-19.3 v 0 c 0,0 0,0 0,0 l -1.21,-1.21 v 0 l -0.07,0.07 c -2.66,-2.13 -5.94,-3.28 -9.39,-3.28 -4.03,0 -7.82,1.57 -10.67,4.43 -5.88,5.9 -5.88,15.49 0,21.38 l 1.14,1.14 c 4.07,4.08 4.07,10.73 0,14.82 -1.97,1.98 -4.59,3.07 -7.38,3.07 -2.79,0 -5.41,-1.09 -7.38,-3.06 l -23.4,-23.47 c -2.85,-2.86 -6.64,-4.43 -10.67,-4.43 0,0 0,0 0,0 -4.03,0 -7.82,1.57 -10.67,4.43 -0.91,0.91 -0.9,2.38 0,3.29 0.9,0.91 2.38,0.9 3.29,0 1.97,-1.98 4.59,-3.07 7.38,-3.07 2.79,0 5.41,1.09 7.38,3.06 l 23.4,23.47 c 2.85,2.86 6.64,4.43 10.67,4.43 0,0 0,0 0,0 4.03,0 7.82,-1.57 10.67,-4.43 5.88,-5.9 5.88,-15.49 0,-21.38 l -1.14,-1.14 c -4.07,-4.08 -4.07,-10.73 0,-14.82 1.97,-1.98 4.59,-3.07 7.38,-3.07 2.73,0 5.29,1.04 7.25,2.94 l 19.34,19.43 c 2.85,2.86 6.64,4.43 10.67,4.43 4.03,0 7.82,-1.57 10.67,-4.43 5.88,-5.9 5.88,-15.49 0,-21.39 L 185.46,117.68 164.41,96.6 c -4.07,-4.09 -4.07,-10.73 0,-14.82 1.97,-1.97 4.59,-3.06 7.38,-3.06 z m 11.3,-23.2 c 0,-5.16 4.18,-9.36 9.32,-9.36 5.14,0 9.32,4.2 9.32,9.36 0,5.16 -4.18,9.36 -9.32,9.36 -5.14,0 -9.32,-4.2 -9.32,-9.36 z"
   id="path28"
   inkscape:connector-curvature="0"
   style="fill:#ffffff" />
	<path
   class="st0"
   d="m 78.08,125.91 c -3.04,0 -5.85,0.99 -8.15,2.65 l -8.37,-8.39 -1.7,-1.71 c -4.07,-4.08 -4.07,-10.73 0,-14.82 1.97,-1.98 4.59,-3.07 7.38,-3.07 2.79,0 5.41,1.09 7.38,3.07 L 84.97,114 c 2.85,2.86 6.64,4.43 10.67,4.43 4.03,0 7.82,-1.57 10.67,-4.43 5.88,-5.9 5.88,-15.49 0,-21.39 L 88.21,74.5 64.84,51.13 c -4.07,-4.09 -4.07,-10.73 0,-14.82 1.97,-1.98 4.59,-3.07 7.38,-3.07 2.79,0 5.41,1.09 7.38,3.06 l 19.21,19.3 v 0 c 0,0 0,0 0,0 l 1.21,1.21 v 0 l 0.07,-0.07 c 2.66,2.13 5.94,3.28 9.39,3.28 0,0 0,0 0,0 4.03,0 7.82,-1.57 10.67,-4.43 5.88,-5.9 5.88,-15.49 0,-21.38 l -1.14,-1.14 c -4.07,-4.09 -4.07,-10.73 0,-14.82 1.97,-1.98 4.59,-3.07 7.38,-3.07 2.79,0 5.41,1.09 7.38,3.07 l 23.39,23.47 c 2.85,2.86 6.64,4.43 10.67,4.43 4.03,0 7.82,-1.57 10.67,-4.43 0.91,-0.91 0.9,-2.38 0,-3.29 -0.91,-0.91 -2.38,-0.9 -3.29,0 -1.97,1.98 -4.59,3.07 -7.38,3.07 -2.79,0 -5.41,-1.09 -7.38,-3.07 L 137.06,14.96 c -2.85,-2.86 -6.64,-4.43 -10.67,-4.43 -4.03,0 -7.82,1.57 -10.67,4.43 -5.88,5.9 -5.88,15.49 0,21.38 l 1.14,1.14 c 4.07,4.09 4.07,10.73 0,14.82 -1.97,1.98 -4.59,3.07 -7.38,3.07 -2.73,0 -5.3,-1.04 -7.26,-2.94 L 82.89,33.03 C 80.04,30.17 76.25,28.6 72.22,28.6 c 0,0 0,0 0,0 -4.03,0 -7.82,1.57 -10.67,4.43 -5.88,5.9 -5.88,15.49 0,21.39 l 23.38,23.36 18.1,18.11 c 4.07,4.09 4.07,10.73 0,14.82 -1.97,1.98 -4.59,3.07 -7.38,3.07 -2.79,0 -5.41,-1.09 -7.38,-3.07 L 77.92,100.35 c -2.85,-2.86 -6.64,-4.43 -10.67,-4.43 -4.03,0 -7.82,1.57 -10.67,4.43 -5.88,5.9 -5.88,15.49 -0.01,21.38 l 1.7,1.71 8.4,8.42 c -1.61,2.28 -2.56,5.05 -2.56,8.05 0,7.72 6.27,14 13.97,14 7.71,0 13.97,-6.28 13.97,-14 0,-7.72 -6.27,-14 -13.97,-14 z m 0,23.36 c -5.14,0 -9.32,-4.2 -9.32,-9.36 0,-5.16 4.18,-9.36 9.32,-9.36 5.14,0 9.32,4.2 9.32,9.36 0,5.16 -4.18,9.36 -9.32,9.36 z"
   id="path30"
   inkscape:connector-curvature="0"
   style="fill:#ffffff" />
</g>
</svg>