<?xml version="1.0" encoding="utf-8"?>
<!-- Generator: Adobe Illustrator 25.1.0, SVG Export Plug-In . SVG Version: 6.00 Build 0)  -->
<svg version="1.1" id="Calque_1" xmlns="http://www.w3.org/2000/svg" xmlns:xlink="http://www.w3.org/1999/xlink" x="0px" y="0px"
	 viewBox="0 0 274 328" style="enable-background:new 0 0 274 328;" xml:space="preserve">
<style type="text/css">
	.st0{fill:#FFFFFF;}
</style>
<path class="st0" d="M222.74,317.16h-18.97c-3.46,0-6.28-2.82-6.28-6.28v-58.65c0-3.46,2.82-6.28,6.28-6.28h18.97
	c12.22,0,21.85,2.55,28.62,7.58c8.03,5.96,12.1,15.38,12.1,27.98c0,12.64-4.07,22.09-12.1,28.06
	C244.6,314.6,234.97,317.16,222.74,317.16z M203.77,250.4c-1,0-1.82,0.82-1.82,1.82v58.65c0,1,0.82,1.82,1.82,1.82h18.97
	c24.4,0,36.26-10.2,36.26-31.19c0-11.12-3.46-19.33-10.3-24.4c-5.98-4.44-14.71-6.7-25.96-6.7H203.77z M223.01,301.6
	c-3.46,0-6.28-2.82-6.28-6.28v-27.53c0-3.46,2.82-6.28,6.28-6.28c4.56,0,10.32,0.42,14.42,3.67c4,3.17,5.94,8.51,5.94,16.33
	C243.38,299.16,233.59,301.6,223.01,301.6z M223.01,265.96c-1,0-1.82,0.82-1.82,1.82v27.53c0,1,0.82,1.82,1.82,1.82
	c10.32,0,15.91-2.49,15.91-15.63C238.92,268.44,233.33,265.96,223.01,265.96z"/>
<g>
	<path class="st0" d="M178.24,256.92c-7.61,0-13.81-6.21-13.81-13.84s6.19-13.84,13.81-13.84c7.61,0,13.81,6.21,13.81,13.84
		S185.85,256.92,178.24,256.92z M178.24,233.54c-5.25,0-9.52,4.28-9.52,9.55c0,5.27,4.27,9.55,9.52,9.55c5.25,0,9.52-4.28,9.52-9.55
		C187.76,237.82,183.49,233.54,178.24,233.54z"/>
</g>
<g>
	<path class="st0" d="M115.1,256.92c-7.61,0-13.81-6.21-13.81-13.84s6.19-13.84,13.81-13.84c7.61,0,13.81,6.21,13.81,13.84
		S122.71,256.92,115.1,256.92z M115.1,233.54c-5.25,0-9.52,4.28-9.52,9.55c0,5.27,4.27,9.55,9.52,9.55c5.25,0,9.52-4.28,9.52-9.55
		C124.62,237.82,120.35,233.54,115.1,233.54z"/>
</g>
<g>
	<path class="st0" d="M47.25,316.12l-13.3-45.56v45.56H16.83v-66.19H44.7l11.2,41.18l11.02-41.18h27.59v66.19H77.39v-45.83
		l-13.11,45.83H47.25z"/>
</g>
<g>
	<path class="st0" d="M124.59,316.12h-18.98V265.5h18.98V316.12z"/>
</g>
<g>
	<path class="st0" d="M156.16,297.62L156.16,297.62v18.5h-19.03V241.6h19.03V297.62z"/>
</g>
<path class="st0" d="M184.07,316.86h-11.65c-3.25,0-5.89-2.55-5.89-5.68v-40.7c0-3.13,2.64-5.68,5.89-5.68h11.65
	c3.25,0,5.89,2.55,5.89,5.68v40.7C189.96,314.32,187.32,316.86,184.07,316.86z M172.42,269.27c-0.79,0-1.44,0.55-1.44,1.22v40.7
	c0,0.67,0.64,1.22,1.44,1.22h11.65c0.79,0,1.44-0.55,1.44-1.22v-40.7c0-0.67-0.64-1.22-1.44-1.22H172.42z"/>
<g>
	<path class="st0" d="M171.79,78.72c2.79,0,5.41,1.09,7.38,3.07l13.35,13.35c2.85,2.86,6.64,4.43,10.67,4.43
		c4.03,0,7.82-1.57,10.67-4.43c5.88-5.9,5.88-15.49,0.01-21.38l-1.75-1.77l-8.34-8.36c1.63-2.29,2.6-5.09,2.6-8.11
		c0-7.72-6.27-14-13.97-14c-7.71,0-13.97,6.28-13.97,14s6.27,14,13.97,14c3.01,0,5.8-0.97,8.08-2.6l8.33,8.35l1.75,1.77
		c4.07,4.09,4.07,10.73,0,14.82c-1.97,1.98-4.59,3.07-7.38,3.07c-2.79,0-5.41-1.09-7.38-3.07L182.46,78.5
		c-2.85-2.86-6.64-4.43-10.67-4.43c-4.03,0-7.82,1.57-10.67,4.43c-5.88,5.9-5.88,15.49,0,21.39l21.05,21.05l23.38,23.36
		c4.07,4.08,4.07,10.73,0,14.82c-1.97,1.98-4.59,3.07-7.38,3.07c-2.79,0-5.41-1.09-7.38-3.06l-19.21-19.3l0,0c0,0,0,0,0,0
		l-1.21-1.21l0,0l-0.07,0.07c-2.66-2.13-5.94-3.28-9.39-3.28c-4.03,0-7.82,1.57-10.67,4.43c-5.88,5.9-5.88,15.49,0,21.38l1.14,1.14
		c4.07,4.08,4.07,10.73,0,14.82c-1.97,1.98-4.59,3.07-7.38,3.07s-5.41-1.09-7.38-3.06l-23.4-23.47c-2.85-2.86-6.64-4.43-10.67-4.43
		c0,0,0,0,0,0c-4.03,0-7.82,1.57-10.67,4.43c-0.91,0.91-0.9,2.38,0,3.29s2.38,0.9,3.29,0c1.97-1.98,4.59-3.07,7.38-3.07
		c2.79,0,5.41,1.09,7.38,3.06l23.4,23.47c2.85,2.86,6.64,4.43,10.67,4.43c0,0,0,0,0,0c4.03,0,7.82-1.57,10.67-4.43
		c5.88-5.9,5.88-15.49,0-21.38l-1.14-1.14c-4.07-4.08-4.07-10.73,0-14.82c1.97-1.98,4.59-3.07,7.38-3.07c2.73,0,5.29,1.04,7.25,2.94
		l19.34,19.43c2.85,2.86,6.64,4.43,10.67,4.43c4.03,0,7.82-1.57,10.67-4.43c5.88-5.9,5.88-15.49,0-21.39l-23.38-23.36L164.41,96.6
		c-4.07-4.09-4.07-10.73,0-14.82C166.38,79.81,169,78.72,171.79,78.72z M183.09,55.52c0-5.16,4.18-9.36,9.32-9.36
		c5.14,0,9.32,4.2,9.32,9.36c0,5.16-4.18,9.36-9.32,9.36C187.27,64.88,183.09,60.68,183.09,55.52z"/>
	<path class="st0" d="M78.08,125.91c-3.04,0-5.85,0.99-8.15,2.65l-8.37-8.39l-1.7-1.71c-4.07-4.08-4.07-10.73,0-14.82
		c1.97-1.98,4.59-3.07,7.38-3.07c2.79,0,5.41,1.09,7.38,3.07l10.35,10.36c2.85,2.86,6.64,4.43,10.67,4.43
		c4.03,0,7.82-1.57,10.67-4.43c5.88-5.9,5.88-15.49,0-21.39L88.21,74.5L64.84,51.13c-4.07-4.09-4.07-10.73,0-14.82
		c1.97-1.98,4.59-3.07,7.38-3.07c2.79,0,5.41,1.09,7.38,3.06l19.21,19.3l0,0c0,0,0,0,0,0l1.21,1.21l0,0l0.07-0.07
		c2.66,2.13,5.94,3.28,9.39,3.28c0,0,0,0,0,0c4.03,0,7.82-1.57,10.67-4.43c5.88-5.9,5.88-15.49,0-21.38l-1.14-1.14
		c-4.07-4.09-4.07-10.73,0-14.82c1.97-1.98,4.59-3.07,7.38-3.07s5.41,1.09,7.38,3.07l23.39,23.47c2.85,2.86,6.64,4.43,10.67,4.43
		c4.03,0,7.82-1.57,10.67-4.43c0.91-0.91,0.9-2.38,0-3.29c-0.91-0.91-2.38-0.9-3.29,0c-1.97,1.98-4.59,3.07-7.38,3.07
		c-2.79,0-5.41-1.09-7.38-3.07l-23.39-23.47c-2.85-2.86-6.64-4.43-10.67-4.43c-4.03,0-7.82,1.57-10.67,4.43
		c-5.88,5.9-5.88,15.49,0,21.38l1.14,1.14c4.07,4.09,4.07,10.73,0,14.82c-1.97,1.98-4.59,3.07-7.38,3.07c-2.73,0-5.3-1.04-7.26-2.94
		L82.89,33.03c-2.85-2.86-6.64-4.43-10.67-4.43c0,0,0,0,0,0c-4.03,0-7.82,1.57-10.67,4.43c-5.88,5.9-5.88,15.49,0,21.39l23.38,23.36
		l18.1,18.11c4.07,4.09,4.07,10.73,0,14.82c-1.97,1.98-4.59,3.07-7.38,3.07c-2.79,0-5.41-1.09-7.38-3.07l-10.35-10.36
		c-2.85-2.86-6.64-4.43-10.67-4.43s-7.82,1.57-10.67,4.43c-5.88,5.9-5.88,15.49-0.01,21.38l1.7,1.71l8.4,8.42
		c-1.61,2.28-2.56,5.05-2.56,8.05c0,7.72,6.27,14,13.97,14c7.71,0,13.97-6.28,13.97-14C92.05,132.19,85.78,125.91,78.08,125.91z
		 M78.08,149.27c-5.14,0-9.32-4.2-9.32-9.36s4.18-9.36,9.32-9.36c5.14,0,9.32,4.2,9.32,9.36S83.22,149.27,78.08,149.27z"/>
</g>
</svg>
