<?xml version="1.0" encoding="utf-8"?>
<!-- Generator: Adobe Illustrator 25.2.0, SVG Export Plug-In . SVG Version: 6.00 Build 0)  -->
<svg version="1.1" id="Calque_1" xmlns="http://www.w3.org/2000/svg" xmlns:xlink="http://www.w3.org/1999/xlink" x="0px" y="0px"
	 viewBox="0 0 173.8 586.6" style="enable-background:new 0 0 173.8 586.6;" xml:space="preserve">
<style type="text/css">
	.st0{fill:#01C0FF;}
	.st1{fill:#008CE2;}
	.st2{fill:#0060D3;}
	.st3{fill:#8761FF;}
</style>
<path class="st0" d="M109.2,387.8c-1.7,0-3.7-1.9-4.9-0.8c-1.1,0.9,0.4,2.9,0.4,4.4c0,6-7,10.6-5.6,16c5.6,21.7,35.3,29,35.3,52.8
	c0,12-7,21.6-10.1,32.4c-0.2,0.6,0,1.2,0,1.8c0,19.7-16,35.6-35.6,35.6c-4.3,0-8.8-4.2-12.3-2.2c-6.5,3.7-13,10.9-11.5,18
	c2,9.4,16.6,10.2,16.6,20.2c0,11.4-9.2,20.6-20.6,20.6s-20.6-9.2-20.6-20.6c0-5.9,8.4-9.9,6.6-15.1c-5.1-14-26.7-13.2-26.7-28.3
	c0-10.6,12.8-14.9,14.4-24.7c1.6-9.6-5.5-19.5-13.2-26C12.3,464.3,0,461.8,0,449.8c0-12.2,9.9-22.2,22.2-22.2c2.5,0,5,2,7.2,1.2
	c11.6-4,24.7-10.6,28.4-22.5c1.5-5-4.8-9.4-4.8-15c0-4.7,6.7-10,3.5-12.9c-2.7-2.4-6.5,3.4-10.4,3.4c-9.8,0-17.7-7.9-17.7-17.7
	c0-9.8,7.9-17.7,17.7-17.7c9.8,0,17.7,7.9,17.7,17.7c0,2.7-3.7,6.1-1.7,7.6c4.7,3.6,10.3-6.2,16.7-6.2c5.8,0,10.5,7.2,15.5,5.1
	c6.8-2.9,7.3-13,14.9-13c8.3,0,15.1,6.8,15.1,15.1C124.3,381,117.5,387.8,109.2,387.8z"/>
<path class="st1" d="M120.1,179.8c-1,0-2.1-1.1-2.8-0.5c-0.6,0.5,0.2,1.6,0.2,2.5c0,3.4-3.9,5.9-3.1,9c3.2,12.1,19.8,16.2,19.8,29.6
	c0,6.7-3.9,12.1-5.7,18.2c-0.1,0.3,0,0.7,0,1c0,11-8.9,20-20,20c-2.4,0-4.9-2.4-6.9-1.2c-3.7,2.1-7.3,6.1-6.4,10.1
	c1.1,5.3,9.3,5.7,9.3,11.3c0,6.4-5.2,11.6-11.6,11.6c-6.4,0-11.6-5.2-11.6-11.6c0-3.3,4.7-5.5,3.7-8.4c-2.8-7.8-14.9-7.4-14.9-15.8
	c0-5.9,7.2-8.4,8.1-13.8c0.9-5.4-3.1-11-7.4-14.6c-5.1-4.3-12-5.7-12-12.4c0-6.9,5.6-12.4,12.4-12.4c1.4,0,2.8,1.1,4.1,0.7
	c6.5-2.2,13.9-5.9,15.9-12.6c0.9-2.8-2.7-5.3-2.7-8.4c0-2.6,3.8-5.6,1.9-7.2c-1.5-1.4-3.6,1.9-5.8,1.9c-5.5,0-9.9-4.4-9.9-9.9
	c0-5.5,4.4-9.9,9.9-9.9c5.5,0,9.9,4.4,9.9,9.9c0,1.5-2.1,3.4-1,4.3c2.6,2,5.8-3.5,9.4-3.5c3.2,0,5.9,4,8.7,2.9
	c3.8-1.6,4.1-7.3,8.4-7.3c4.7,0,8.4,3.8,8.4,8.4C128.6,176,124.8,179.8,120.1,179.8z"/>
<path class="st0" d="M119.6,83.1c0-11.2,9.2-48.3-20-81.3c-2.1-2.4-5.9-2.3-7.9,0.1C66.8,31,71.6,72,71.6,83.1
	c0,11.7-11.8,30.1-11.8,37.5c0,7.5,9.2,7.7,9.2,0c0-5.5,3.9-11.1,8.6-13.9c2.4-1.4,5.4,0.4,5.2,3.2c-0.4,6.6,0.9,17.4,12.8,17.4
	c11.8,0,13.1-10.7,12.8-17.3c-0.1-2.9,3-4.7,5.4-3.2c4.6,2.8,8.4,8.3,8.4,13.7c0,7.7,9.2,7.5,9.2,0
	C131.4,113.2,119.6,94.8,119.6,83.1z M96.3,83c-5.3,0.4-9.7-4-9.3-9.3c0.3-4.2,3.7-7.6,7.9-7.9c5.3-0.4,9.7,4,9.3,9.3
	C103.9,79.2,100.5,82.6,96.3,83z M96.3,61.9c-5.3,0.4-9.7-4-9.3-9.3c0.3-4.2,3.7-7.6,7.9-7.9c5.3-0.4,9.7,4,9.3,9.3
	C103.9,58.2,100.5,61.6,96.3,61.9z M96.3,40.9c-5.3,0.4-9.7-4-9.3-9.3c0.3-4.2,3.7-7.6,7.9-7.9c5.3-0.4,9.7,4,9.3,9.3
	C103.9,37.1,100.5,40.5,96.3,40.9z"/>
<path class="st1" d="M63.5,219.6c1,0,2.1-1.1,2.8-0.5c0.6,0.5-0.2,1.6-0.2,2.5c0,3.4,3.9,5.9,3.1,9c-3.2,12.1-19.8,16.2-19.8,29.6
	c0,6.7,3.9,12.1,5.7,18.2c0.1,0.3,0,0.7,0,1c0,11,8.9,20,20,20c2.4,0,4.9-2.4,6.9-1.2c3.7,2.1,7.3,6.1,6.4,10.1
	c-1.1,5.3-9.3,5.7-9.3,11.3c0,6.4,5.2,11.6,11.6,11.6c6.4,0,11.6-5.2,11.6-11.6c0-3.3-4.7-5.5-3.7-8.4c2.8-7.8,14.9-7.4,14.9-15.8
	c0-5.9-7.2-8.4-8.1-13.8c-0.9-5.4,3.1-11,7.4-14.6c5.1-4.3,12-5.7,12-12.4c0-6.9-5.6-12.4-12.4-12.4c-1.4,0-2.8,1.1-4.1,0.7
	c-6.5-2.2-13.9-5.9-15.9-12.6c-0.9-2.8,2.7-5.3,2.7-8.4c0-2.6-3.8-5.6-1.9-7.2c1.5-1.4,3.6,1.9,5.8,1.9c5.5,0,9.9-4.4,9.9-9.9
	c0-5.5-4.4-9.9-9.9-9.9c-5.5,0-9.9,4.4-9.9,9.9c0,1.5,2.1,3.4,1,4.3c-2.6,2-5.8-3.5-9.4-3.5c-3.2,0-5.9,4-8.7,2.9
	c-3.8-1.6-4.1-7.3-8.4-7.3c-4.7,0-8.4,3.8-8.4,8.4C55,215.9,58.8,219.6,63.5,219.6z"/>
<path class="st2" d="M67.7,250.3c1,0,2.1,1.1,2.8,0.5c0.6-0.5-0.2-1.6-0.2-2.5c0-3.4,3.9-5.9,3.1-9c-3.2-12.1-19.8-16.2-19.8-29.6
	c0-6.7,3.9-12.1,5.7-18.2c0.1-0.3,0-0.7,0-1c0-11,8.9-20,20-20c2.4,0,4.9,2.4,6.9,1.2c3.7-2.1,7.3-6.1,6.4-10.1
	c-1.1-5.3-9.3-5.7-9.3-11.3c0-6.4,5.2-11.6,11.6-11.6c6.4,0,11.6,5.2,11.6,11.6c0,3.3-4.7,5.5-3.7,8.4c2.8,7.8,14.9,7.4,14.9,15.8
	c0,5.9-7.2,8.4-8.1,13.8c-0.9,5.4,3.1,11,7.4,14.6c5.1,4.3,12,5.7,12,12.4c0,6.9-5.6,12.4-12.4,12.4c-1.4,0-2.8-1.1-4.1-0.7
	c-6.5,2.2-13.9,5.9-15.9,12.6c-0.9,2.8,2.7,5.3,2.7,8.4c0,2.6-3.8,5.6-1.9,7.2c1.5,1.4,3.6-1.9,5.8-1.9c5.5,0,9.9,4.4,9.9,9.9
	c0,5.5-4.4,9.9-9.9,9.9c-5.5,0-9.9-4.4-9.9-9.9c0-1.5,2.1-3.4,1-4.3c-2.6-2-5.8,3.5-9.4,3.5c-3.2,0-5.9-4-8.7-2.9
	c-3.8,1.6-4.1,7.3-8.4,7.3c-4.7,0-8.4-3.8-8.4-8.4C59.2,254.1,63,250.3,67.7,250.3z"/>
<path class="st2" d="M67.6,374.3c1,0,2.1,1.1,2.8,0.5c0.6-0.5-0.2-1.6-0.2-2.5c0-3.4,3.9-5.9,3.1-9c-3.2-12.1-19.8-16.2-19.8-29.6
	c0-6.7,3.9-12.1,5.7-18.2c0.1-0.3,0-0.7,0-1c0-11,8.9-20,20-20c2.4,0,4.9,2.4,6.9,1.2c3.7-2.1,7.3-6.1,6.4-10.1
	c-1.1-5.3-9.3-5.7-9.3-11.3c0-6.4,5.2-11.6,11.6-11.6c6.4,0,11.6,5.2,11.6,11.6c0,3.3-4.7,5.5-3.7,8.4c2.8,7.8,14.9,7.4,14.9,15.8
	c0,5.9-7.2,8.4-8.1,13.8c-0.9,5.4,3.1,11,7.4,14.6c5.1,4.3,12,5.7,12,12.4c0,6.9-5.6,12.4-12.4,12.4c-1.4,0-2.8-1.1-4.1-0.7
	c-6.5,2.2-13.9,5.9-15.9,12.6c-0.9,2.8,2.7,5.3,2.7,8.4c0,2.6-3.8,5.6-1.9,7.2c1.5,1.4,3.6-1.9,5.8-1.9c5.5,0,9.9,4.4,9.9,9.9
	c0,5.5-4.4,9.9-9.9,9.9c-5.5,0-9.9-4.4-9.9-9.9c0-1.5,2.1-3.4,1-4.3c-2.6-2-5.8,3.5-9.4,3.5c-3.2,0-5.9-4-8.7-2.9
	c-3.8,1.6-4.1,7.3-8.4,7.3c-4.7,0-8.4-3.8-8.4-8.4C59.1,378.1,62.9,374.3,67.6,374.3z"/>
<path class="st3" d="M112.8,438.3c-1,0-2.1,1.1-2.8,0.5c-0.6-0.5,0.2-1.6,0.2-2.5c0-3.4-3.9-5.9-3.1-9c3.2-12.1,19.8-16.2,19.8-29.6
	c0-6.7-3.9-12.1-5.7-18.2c-0.1-0.3,0-0.7,0-1c0-11-8.9-20-20-20c-2.4,0-4.9,2.4-6.9,1.2c-3.7-2.1-7.3-6.1-6.4-10.1
	c1.1-5.3,9.3-5.7,9.3-11.3c0-6.4-5.2-11.6-11.6-11.6c-6.4,0-11.6,5.2-11.6,11.6c0,3.3,4.7,5.5,3.7,8.4c-2.8,7.8-14.9,7.4-14.9,15.8
	c0,5.9,7.2,8.4,8.1,13.8c0.9,5.4-3.1,11-7.4,14.6c-5.1,4.3-12,5.7-12,12.4c0,6.9,5.6,12.4,12.4,12.4c1.4,0,2.8-1.1,4.1-0.7
	c6.5,2.2,13.9,5.9,15.9,12.6c0.9,2.8-2.7,5.3-2.7,8.4c0,2.6,3.8,5.6,1.9,7.2c-1.5,1.4-3.6-1.9-5.8-1.9c-5.5,0-9.9,4.4-9.9,9.9
	c0,5.5,4.4,9.9,9.9,9.9c5.5,0,9.9-4.4,9.9-9.9c0-1.5-2.1-3.4-1-4.3c2.6-2,5.8,3.5,9.4,3.5c3.2,0,5.9-4,8.7-2.9
	c3.8,1.6,4.1,7.3,8.4,7.3c4.7,0,8.4-3.8,8.4-8.4C121.3,442.1,117.5,438.3,112.8,438.3z"/>
<path class="st0" d="M84,316.1c1.4,0,3-1.6,4.1-0.7c0.9,0.8-0.3,2.4-0.3,3.6c0,5,5.7,8.7,4.6,13.1c-4.6,17.8-29,23.8-29,43.4
	c0,9.9,5.8,17.8,8.3,26.6c0.1,0.5,0,1,0,1.5c0,16.2,13.1,29.3,29.3,29.3c3.6,0,7.2-3.5,10.2-1.8c5.4,3.1,10.7,9,9.4,14.8
	c-1.7,7.8-13.7,8.4-13.7,16.6c0,9.4,7.6,17,17,17s17-7.6,17-17c0-4.9-6.9-8.1-5.4-12.4c4.2-11.5,21.9-10.8,21.9-23.2
	c0-8.7-10.5-12.3-11.9-20.3c-1.3-7.9,4.5-16.1,10.8-21.4c7.5-6.3,17.6-8.4,17.6-18.2c0-10.1-8.2-18.2-18.2-18.2
	c-2.1,0-4.1,1.6-5.9,1c-9.6-3.3-20.3-8.7-23.4-18.5c-1.3-4.1,4-7.7,4-12.4c0-3.9-5.5-8.2-2.8-10.6c2.2-2,5.4,2.8,8.5,2.8
	c8.1,0,14.6-6.5,14.6-14.6c0-8.1-6.5-14.6-14.6-14.6c-8.1,0-14.6,6.5-14.6,14.6c0,2.2,3.1,5,1.4,6.3c-3.9,3-8.5-5.1-13.8-5.1
	c-4.8,0-8.6,5.9-12.7,4.2c-5.6-2.4-6-10.7-12.3-10.7c-6.8,0-12.4,5.5-12.4,12.4C71.6,310.6,77.2,316.1,84,316.1z"/>
<path class="st1" d="M73.6,517.8c1.5,0,3.1,1.6,4.2,0.7c0.9-0.8-0.3-2.4-0.3-3.7c0-5.1,5.9-8.9,4.7-13.5
	c-4.8-18.3-29.7-24.4-29.7-44.5c0-10.1,5.9-18.2,8.5-27.3c0.1-0.5,0-1,0-1.6c0-16.6,13.4-30,30-30c3.7,0,7.4,3.6,10.4,1.9
	c5.5-3.1,11-9.2,9.7-15.2c-1.7-8-14-8.6-14-17c0-9.6,7.8-17.4,17.4-17.4s17.4,7.8,17.4,17.4c0,5-7.1,8.3-5.5,12.7
	c4.3,11.8,22.5,11.1,22.5,23.8c0,8.9-10.8,12.6-12.1,20.8c-1.3,8.1,4.6,16.5,11.1,21.9c7.7,6.4,18,8.6,18,18.7
	c0,10.3-8.4,18.7-18.7,18.7c-2.1,0-4.2-1.7-6.1-1c-9.8,3.4-20.8,8.9-23.9,19c-1.3,4.2,4.1,7.9,4.1,12.7c0,4-5.7,8.4-2.9,10.9
	c2.3,2,5.5-2.8,8.8-2.8c8.3,0,14.9,6.7,14.9,14.9c0,8.3-6.7,14.9-14.9,14.9c-8.3,0-14.9-6.7-14.9-14.9c0-2.3,3.2-5.1,1.4-6.4
	c-4-3-8.7,5.2-14.1,5.2c-4.9,0-8.8-6.1-13-4.3c-5.8,2.4-6.2,11-12.6,11c-7,0-12.7-5.7-12.7-12.7C60.9,523.4,66.6,517.8,73.6,517.8z"
	/>
<path class="st2" d="M82.8,337.9c1.2,0,2.5-1.3,3.3-0.6c0.7,0.6-0.3,1.9-0.3,2.9c0,4,4.6,7,3.7,10.6C85.8,365.3,66,370.2,66,386
	c0,8,4.7,14.4,6.7,21.6c0.1,0.4,0,0.8,0,1.2c0,13.1,10.6,23.7,23.7,23.7c2.9,0,5.9-2.8,8.2-1.5c4.4,2.5,8.7,7.3,7.6,12
	c-1.4,6.3-11.1,6.8-11.1,13.5c0,7.6,6.1,13.7,13.7,13.7c7.6,0,13.7-6.1,13.7-13.7c0-4-5.6-6.6-4.4-10c3.4-9.3,17.8-8.8,17.8-18.8
	c0-7.1-8.5-9.9-9.6-16.4c-1.1-6.4,3.6-13,8.8-17.3c6.1-5.1,14.2-6.8,14.2-14.8c0-8.2-6.6-14.8-14.8-14.8c-1.7,0-3.3,1.3-4.8,0.8
	c-7.7-2.6-16.5-7-18.9-15c-1-3.3,3.2-6.3,3.2-10c0-3.1-4.5-6.6-2.3-8.6c1.8-1.6,4.3,2.2,6.9,2.2c6.5,0,11.8-5.3,11.8-11.8
	c0-6.5-5.3-11.8-11.8-11.8c-6.5,0-11.8,5.3-11.8,11.8c0,1.8,2.5,4,1.1,5.1c-3.1,2.4-6.9-4.1-11.1-4.1c-3.9,0-7,4.8-10.3,3.4
	c-4.6-1.9-4.9-8.7-9.9-8.7c-5.5,0-10,4.5-10,10C72.7,333.4,77.2,337.9,82.8,337.9z"/>
<path class="st1" d="M106.9,317.2c-1.2,0-2.6-1.3-3.5-0.6c-0.8,0.7,0.3,2,0.3,3.1c0,4.3-5,7.5-3.9,11.4c4,15.4,25.1,20.6,25.1,37.5
	c0,8.6-5,15.4-7.2,23c-0.1,0.4,0,0.9,0,1.3c0,14-11.3,25.3-25.3,25.3c-3.1,0-6.2-3-8.8-1.6c-4.6,2.7-9.2,7.8-8.2,12.8
	c1.4,6.7,11.8,7.3,11.8,14.4c0,8.1-6.6,14.7-14.7,14.7s-14.7-6.6-14.7-14.7c0-4.2,6-7,4.7-10.7c-3.6-10-18.9-9.4-18.9-20.1
	c0-7.5,9.1-10.6,10.2-17.5c1.1-6.8-3.9-13.9-9.4-18.5c-6.5-5.4-15.2-7.2-15.2-15.7c0-8.7,7.1-15.8,15.8-15.8c1.8,0,3.5,1.4,5.1,0.9
	c8.3-2.8,17.6-7.5,20.2-16c1.1-3.5-3.4-6.7-3.4-10.7c0-3.3,4.8-7.1,2.5-9.2c-1.9-1.7-4.6,2.4-7.4,2.4c-7,0-12.6-5.6-12.6-12.6
	c0-7,5.6-12.6,12.6-12.6c7,0,12.6,5.6,12.6,12.6c0,1.9-2.7,4.3-1.2,5.4c3.3,2.6,7.4-4.4,11.9-4.4c4.1,0,7.5,5.1,11,3.6
	c4.9-2,5.2-9.2,10.6-9.2c5.9,0,10.7,4.8,10.7,10.7C117.6,312.4,112.8,317.2,106.9,317.2z"/>
<path class="st1" d="M132.8,286.5c-1,0-2.1-1.1-2.8-0.5c-0.6,0.5,0.2,1.6,0.2,2.5c0,3.4-3.9,5.9-3.1,9c3.2,12.1,19.8,16.2,19.8,29.6
	c0,6.7-3.9,12.1-5.7,18.2c-0.1,0.3,0,0.7,0,1c0,11-8.9,20-20,20c-2.4,0-4.9-2.4-6.9-1.2c-3.7,2.1-7.3,6.1-6.4,10.1
	c1.1,5.3,9.3,5.7,9.3,11.3c0,6.4-5.2,11.6-11.6,11.6c-6.4,0-11.6-5.2-11.6-11.6c0-3.3,4.7-5.5,3.7-8.4c-2.8-7.8-14.9-7.4-14.9-15.8
	c0-5.9,7.2-8.4,8.1-13.8c0.9-5.4-3.1-11-7.4-14.6c-5.1-4.3-12-5.7-12-12.4c0-6.9,5.6-12.4,12.4-12.4c1.4,0,2.8,1.1,4.1,0.7
	c6.5-2.2,13.9-5.9,15.9-12.6c0.9-2.8-2.7-5.3-2.7-8.4c0-2.6,3.8-5.6,1.9-7.2c-1.5-1.4-3.6,1.9-5.8,1.9c-5.5,0-9.9-4.4-9.9-9.9
	c0-5.5,4.4-9.9,9.9-9.9c5.5,0,9.9,4.4,9.9,9.9c0,1.5-2.1,3.4-1,4.3c2.6,2,5.8-3.5,9.4-3.5c3.2,0,5.9,4,8.7,2.9
	c3.8-1.6,4.1-7.3,8.4-7.3c4.7,0,8.4,3.8,8.4,8.4C141.2,282.8,137.5,286.5,132.8,286.5z"/>
<path class="st0" d="M73.7,236.4c1,0,2.1-1.1,2.8-0.5c0.6,0.5-0.2,1.6-0.2,2.5c0,3.4,3.9,5.9,3.1,9c-3.2,12.1-19.8,16.2-19.8,29.6
	c0,6.7,3.9,12.1,5.7,18.2c0.1,0.3,0,0.7,0,1c0,11,8.9,20,20,20c2.4,0,4.9-2.4,6.9-1.2c3.7,2.1,7.3,6.1,6.4,10.1
	c-1.1,5.3-9.3,5.7-9.3,11.3c0,6.4,5.2,11.6,11.6,11.6c6.4,0,11.6-5.2,11.6-11.6c0-3.3-4.7-5.5-3.7-8.4c2.8-7.8,14.9-7.4,14.9-15.8
	c0-5.9-7.2-8.4-8.1-13.8c-0.9-5.4,3.1-11,7.4-14.6c5.1-4.3,12-5.7,12-12.4c0-6.9-5.6-12.4-12.4-12.4c-1.4,0-2.8,1.1-4.1,0.7
	c-6.5-2.2-13.9-5.9-15.9-12.6c-0.9-2.8,2.7-5.3,2.7-8.4c0-2.6-3.8-5.6-1.9-7.2c1.5-1.4,3.6,1.9,5.8,1.9c5.5,0,9.9-4.4,9.9-9.9
	c0-5.5-4.4-9.9-9.9-9.9c-5.5,0-9.9,4.4-9.9,9.9c0,1.5,2.1,3.4,1,4.3c-2.6,2-5.8-3.5-9.4-3.5c-3.2,0-5.9,4-8.7,2.9
	c-3.8-1.6-4.1-7.3-8.4-7.3c-4.7,0-8.4,3.8-8.4,8.4C65.2,232.6,69,236.4,73.7,236.4z"/>
<path class="st1" d="M138.8,267.2c-1,0-2.1,1.1-2.8,0.5c-0.6-0.5,0.2-1.6,0.2-2.5c0-3.4-3.9-5.9-3.1-9c3.2-12.1,19.8-16.2,19.8-29.6
	c0-6.7-3.9-12.1-5.7-18.2c-0.1-0.3,0-0.7,0-1c0-11-8.9-20-20-20c-2.4,0-4.9,2.4-6.9,1.2c-3.7-2.1-7.3-6.1-6.4-10.1
	c1.1-5.3,9.3-5.7,9.3-11.3c0-6.4-5.2-11.6-11.6-11.6c-6.4,0-11.6,5.2-11.6,11.6c0,3.3,4.7,5.5,3.7,8.4c-2.8,7.8-14.9,7.4-14.9,15.8
	c0,5.9,7.2,8.4,8.1,13.8c0.9,5.4-3.1,11-7.4,14.6c-5.1,4.3-12,5.7-12,12.4c0,6.9,5.6,12.4,12.4,12.4c1.4,0,2.8-1.1,4.1-0.7
	c6.5,2.2,13.9,5.9,15.9,12.6c0.9,2.8-2.7,5.3-2.7,8.4c0,2.6,3.8,5.6,1.9,7.2c-1.5,1.4-3.6-1.9-5.8-1.9c-5.5,0-9.9,4.4-9.9,9.9
	c0,5.5,4.4,9.9,9.9,9.9c5.5,0,9.9-4.4,9.9-9.9c0-1.5-2.1-3.4-1-4.3c2.6-2,5.8,3.5,9.4,3.5c3.2,0,5.9-4,8.7-2.9
	c3.8,1.6,4.1,7.3,8.4,7.3c4.7,0,8.4-3.8,8.4-8.4C147.3,271,143.5,267.2,138.8,267.2z"/>
</svg>
