<?xml version="1.0" encoding="utf-8"?>
<!-- Generator: Adobe Illustrator 25.2.0, SVG Export Plug-In . SVG Version: 6.00 Build 0)  -->
<svg version="1.1" id="Calque_1" xmlns="http://www.w3.org/2000/svg" xmlns:xlink="http://www.w3.org/1999/xlink" x="0px" y="0px"
	 viewBox="0 0 106.69 100" style="enable-background:new 0 0 106.69 100;" xml:space="preserve">
<style type="text/css">
	.st0{fill:#6900FF;}
	.st1{fill:#808183;}
</style>
<g>
	<path class="st0" d="M41.09,63.16V44.6h-5.53v-2.39c3.48-0.1,5.22-0.46,6.53-3.12h2.41v24.07H41.09z"/>
	<path class="st0" d="M49.36,51.04c0-7.44,3.05-12.38,9.51-12.38c6.5,0,9.54,4.95,9.54,12.38c0,7.4-3.05,12.55-9.54,12.55
		C52.41,63.59,49.36,58.45,49.36,51.04z M64.87,51.04c0-6.34-2.31-9.46-5.99-9.46c-3.65,0-5.89,3.12-5.89,9.46
		c0,6.28,2.24,9.63,5.89,9.63C62.56,60.67,64.87,57.32,64.87,51.04z"/>
</g>
<path class="st1" d="M95.69,29.38C87.37,11.14,68.44-1.27,46.83,0.1C22.1,1.68,2.01,21.52,0.15,46.23
	c-2.08,27.59,18.34,50.98,44.79,53.69c2.76,0.28,5.15-1.93,5.15-4.71v0c0-2.42-1.83-4.44-4.24-4.69
	C24.88,88.34,8.6,70.14,9.48,48.41c0.83-20.6,17.3-37.52,37.87-38.88c16.97-1.12,31.93,8.25,39.02,22.25
	c0.96,1.89,0.01,4.19-1.99,4.88l-2.91,1c-2.22,0.77-2.79,3.65-1.01,5.2l8.45,7.34l8.45,7.35c1.78,1.54,4.56,0.59,5-1.72l2.14-10.99
	l2.14-10.99c0.45-2.31-1.77-4.24-3.99-3.47l-2.62,0.9C98.3,31.87,96.44,31.03,95.69,29.38z"/>
</svg>
