<?xml version="1.0" encoding="utf-8"?>
<!-- Generator: Adobe Illustrator 25.2.0, SVG Export Plug-In . SVG Version: 6.00 Build 0)  -->
<svg version="1.1" id="Calque_1" xmlns="http://www.w3.org/2000/svg" xmlns:xlink="http://www.w3.org/1999/xlink" x="0px" y="0px"
	 viewBox="0 0 106.69 100" style="enable-background:new 0 0 106.69 100;" xml:space="preserve">
<style type="text/css">
	.st0{fill:#6900FF;}
	.st1{fill:#808183;}
</style>
<g>
	<path class="st0" d="M44.64,63.16V44.6h-5.53v-2.39c3.48-0.1,5.22-0.46,6.53-3.12h2.41v24.07H44.64z"/>
	<path class="st0" d="M52.91,51.04c0-7.44,3.05-12.38,9.51-12.38c6.5,0,9.54,4.95,9.54,12.38c0,7.4-3.05,12.55-9.54,12.55
		C55.96,63.59,52.91,58.45,52.91,51.04z M68.42,51.04c0-6.34-2.31-9.46-5.99-9.46c-3.65,0-5.89,3.12-5.89,9.46
		c0,6.28,2.24,9.63,5.89,9.63C66.11,60.67,68.42,57.32,68.42,51.04z"/>
</g>
<path class="st1" d="M11.01,29.38C19.32,11.14,38.26-1.27,59.87,0.1c24.72,1.58,44.82,21.42,46.68,46.12
	c2.08,27.59-18.34,50.98-44.79,53.69c-2.76,0.28-5.15-1.93-5.15-4.71v0c0-2.42,1.83-4.44,4.24-4.69
	c20.97-2.18,37.25-20.38,36.37-42.11c-0.83-20.6-17.3-37.52-37.87-38.88c-16.97-1.12-31.93,8.25-39.02,22.25
	c-0.96,1.89-0.01,4.19,1.99,4.88l2.91,1c2.22,0.77,2.79,3.65,1.01,5.2l-8.45,7.34l-8.45,7.35c-1.78,1.54-4.56,0.59-5-1.72
	L2.19,44.84L0.06,33.85c-0.45-2.31,1.77-4.24,3.99-3.47l2.62,0.9C8.39,31.87,10.25,31.03,11.01,29.38z"/>
</svg>
