<?xml version="1.0" encoding="utf-8"?>
<!-- Generator: Adobe Illustrator 25.2.0, SVG Export Plug-In . SVG Version: 6.00 Build 0)  -->
<svg version="1.1" id="Calque_1" xmlns="http://www.w3.org/2000/svg" xmlns:xlink="http://www.w3.org/1999/xlink" x="0px" y="0px"
	 viewBox="0 0 87 87" style="enable-background:new 0 0 87 87;" xml:space="preserve">
<g>
	<path d="M79.44,43.5c0,9.6-3.74,18.63-10.53,25.41C62.13,75.7,53.1,79.44,43.5,79.44S24.87,75.7,18.09,68.91
		C11.3,62.13,7.56,53.1,7.56,43.5s3.74-18.63,10.53-25.41C24.87,11.3,33.9,7.56,43.5,7.56s18.63,3.74,25.41,10.53
		C75.7,24.87,79.44,33.9,79.44,43.5 M87,43.5C87,19.48,67.52,0,43.5,0S0,19.48,0,43.5S19.48,87,43.5,87S87,67.52,87,43.5L87,43.5z"
		/>
	<path d="M47.52,63.49V32.79l14.51,13.64c1.62,1.52,4.16,1.44,5.68-0.18c1.52-1.62,1.44-4.16-0.18-5.68l-21.28-20
		c-0.03-0.02-0.06-0.04-0.08-0.07c-0.07-0.07-0.15-0.13-0.23-0.19c-0.08-0.06-0.16-0.12-0.24-0.18c-0.07-0.05-0.15-0.09-0.23-0.14
		c-0.09-0.05-0.19-0.1-0.29-0.15c-0.03-0.01-0.05-0.03-0.08-0.04c-0.05-0.02-0.1-0.03-0.16-0.05c-0.1-0.04-0.2-0.08-0.3-0.11
		c-0.09-0.03-0.18-0.05-0.26-0.07c-0.1-0.02-0.2-0.04-0.3-0.06c-0.09-0.01-0.19-0.02-0.28-0.03c-0.1-0.01-0.19-0.01-0.29-0.01
		c-0.1,0-0.19,0.01-0.29,0.01c-0.09,0.01-0.19,0.02-0.28,0.03c-0.1,0.01-0.2,0.03-0.3,0.06c-0.09,0.02-0.18,0.04-0.26,0.07
		c-0.1,0.03-0.2,0.07-0.3,0.11c-0.05,0.02-0.11,0.03-0.16,0.05c-0.03,0.01-0.06,0.03-0.08,0.04c-0.1,0.05-0.19,0.1-0.29,0.15
		c-0.08,0.04-0.16,0.09-0.23,0.14c-0.08,0.05-0.16,0.12-0.24,0.18c-0.08,0.06-0.16,0.12-0.23,0.19c-0.03,0.02-0.06,0.04-0.08,0.07
		l-21.28,20c-0.84,0.79-1.27,1.86-1.27,2.93c0,0.99,0.36,1.97,1.09,2.75c1.52,1.62,4.06,1.7,5.68,0.18l14.51-13.64v30.71
		c0,2.22,1.8,4.02,4.02,4.02C45.72,67.51,47.52,65.71,47.52,63.49z"/>
</g>
</svg>
