<?xml version="1.0" encoding="utf-8"?>
<!-- Generator: Adobe Illustrator 25.2.0, SVG Export Plug-In . SVG Version: 6.00 Build 0)  -->
<svg version="1.1" id="Calque_1" xmlns="http://www.w3.org/2000/svg" xmlns:xlink="http://www.w3.org/1999/xlink" x="0px" y="0px"
	 viewBox="0 0 87 87" style="enable-background:new 0 0 87 87;" xml:space="preserve">
<g>
	<path d="M43.5,7.56c9.6,0,18.63,3.74,25.41,10.53C75.7,24.87,79.44,33.9,79.44,43.5S75.7,62.13,68.91,68.91
		C62.13,75.7,53.1,79.44,43.5,79.44S24.87,75.7,18.09,68.91C11.3,62.13,7.56,53.1,7.56,43.5s3.74-18.63,10.53-25.41
		C24.87,11.3,33.9,7.56,43.5,7.56 M43.5,0C19.48,0,0,19.48,0,43.5S19.48,87,43.5,87S87,67.52,87,43.5S67.52,0,43.5,0L43.5,0z"/>
	<path d="M63.49,39.48H32.79l13.64-14.51c1.52-1.62,1.44-4.16-0.18-5.68c-1.62-1.52-4.16-1.44-5.68,0.18l-20,21.28
		c-0.02,0.03-0.04,0.06-0.07,0.08c-0.07,0.07-0.13,0.15-0.19,0.23c-0.06,0.08-0.12,0.16-0.18,0.24c-0.05,0.07-0.09,0.15-0.14,0.23
		c-0.05,0.09-0.1,0.19-0.15,0.29c-0.01,0.03-0.03,0.05-0.04,0.08c-0.02,0.05-0.03,0.1-0.05,0.16c-0.04,0.1-0.08,0.2-0.11,0.3
		c-0.03,0.09-0.05,0.18-0.07,0.26c-0.02,0.1-0.04,0.2-0.06,0.3c-0.01,0.09-0.02,0.19-0.03,0.28c-0.01,0.1-0.01,0.19-0.01,0.29
		c0,0.1,0.01,0.19,0.01,0.29c0.01,0.09,0.02,0.19,0.03,0.28c0.01,0.1,0.03,0.2,0.06,0.3c0.02,0.09,0.04,0.18,0.07,0.26
		c0.03,0.1,0.07,0.2,0.11,0.3c0.02,0.05,0.03,0.11,0.05,0.16c0.01,0.03,0.03,0.06,0.04,0.08c0.05,0.1,0.1,0.19,0.15,0.29
		c0.04,0.08,0.09,0.16,0.14,0.23c0.05,0.08,0.12,0.16,0.18,0.24c0.06,0.08,0.12,0.16,0.19,0.23c0.02,0.03,0.04,0.06,0.07,0.08
		l20,21.28c0.79,0.84,1.86,1.27,2.93,1.27c0.99,0,1.97-0.36,2.75-1.09c1.62-1.52,1.7-4.06,0.18-5.68L32.79,47.52h30.71
		c2.22,0,4.02-1.8,4.02-4.02C67.51,41.28,65.71,39.48,63.49,39.48z"/>
</g>
</svg>
