<?xml version="1.0" encoding="utf-8"?>
<!-- Generator: Adobe Illustrator 25.2.0, SVG Export Plug-In . SVG Version: 6.00 Build 0)  -->
<svg version="1.1" id="Calque_1" xmlns="http://www.w3.org/2000/svg" xmlns:xlink="http://www.w3.org/1999/xlink" x="0px" y="0px"
	 viewBox="0 0 91 91" style="enable-background:new 0 0 91 91;" xml:space="preserve">
<g>
	<path d="M85.75,20.12L70.89,5.25C67.72,2.08,63.56,0.5,59.41,0.5c-4.15,0-8.31,1.58-11.48,4.75L9.61,43.57
		c-2.37,2.37-3.94,5.4-4.51,8.7L0.66,77.83C-0.51,84.57,4.74,90.5,11.28,90.5c0.62,0,1.25-0.05,1.89-0.16l25.56-4.44
		c3.29-0.57,6.33-2.15,8.7-4.51l38.32-38.32C92.09,36.73,92.09,26.45,85.75,20.12z M80.23,37.55L41.91,75.86
		c-1.23,1.23-2.79,2.04-4.51,2.34l-25.56,4.44c-0.19,0.03-0.37,0.05-0.55,0.05c-0.86,0-1.69-0.4-2.27-1.09
		c-0.41-0.49-0.85-1.3-0.65-2.44l4.44-25.56c0.3-1.72,1.11-3.28,2.34-4.51l38.32-38.32c1.59-1.59,3.7-2.47,5.95-2.47
		c2.25,0,4.36,0.88,5.95,2.47l14.86,14.86C83.51,28.92,83.51,34.26,80.23,37.55z"/>
	<path d="M73.17,33.96l-8.27,8.27L48.77,26.1l8.27-8.27c1.31-1.31,3.42-1.31,4.73,0l11.4,11.4C74.48,30.53,74.48,32.65,73.17,33.96z
		"/>
	<path d="M59.58,47.55L37.51,69.62c-0.73,0.73-1.67,1.22-2.69,1.4l-15.61,2.71c-1.14,0.2-2.13-0.79-1.93-1.93l2.71-15.61
		c0.18-1.02,0.67-1.96,1.4-2.69l22.07-22.06L59.58,47.55z"/>
</g>
</svg>
