<?xml version="1.0" encoding="utf-8"?>
<!-- Generator: Adobe Illustrator 25.2.0, SVG Export Plug-In . SVG Version: 6.00 Build 0)  -->
<svg version="1.1" id="Calque_1" xmlns="http://www.w3.org/2000/svg" xmlns:xlink="http://www.w3.org/1999/xlink" x="0px" y="0px"
	 viewBox="0 0 87 87" style="enable-background:new 0 0 87 87;" xml:space="preserve">
<g>
	<path d="M43.5,7.6c9.6,0,18.6,3.7,25.4,10.5s10.5,15.8,10.5,25.4s-3.7,18.6-10.5,25.4S53.1,79.4,43.5,79.4s-18.6-3.7-25.4-10.5
		S7.6,53.1,7.6,43.5s3.7-18.6,10.5-25.4S33.9,7.6,43.5,7.6 M43.5,0C19.5,0,0,19.5,0,43.5S19.5,87,43.5,87S87,67.5,87,43.5
		S67.5,0,43.5,0L43.5,0z"/>
</g>
<path d="M53.2,40.5l10.7-10.7c1.7-1.7,2-4.8,0.3-6.6c-1.9-2.1-4.9-2.2-6.9-0.2L46.5,33.8c-1.7,1.7-4.3,1.7-6,0L29.7,23.1
	c-2-2-5-1.9-6.9,0.2c-1.6,1.8-1.4,4.9,0.3,6.6l10.7,10.7c1.7,1.7,1.7,4.3,0,6L23.2,57.2c-1.6,1.6-1.9,4.4-0.6,6.2c1,1.4,2.5,2,3.8,2
	c1.1,0,2.4-0.5,3.3-1.4l10.8-10.8c1.7-1.7,4.3-1.7,6,0L57.3,64c0.9,0.9,2.2,1.4,3.3,1.4c1.1,0,2.4-0.5,3.3-1.4
	c1.9-1.9,1.9-4.8,0-6.7L53.2,46.5C51.5,44.8,51.5,42.2,53.2,40.5z"/>
</svg>
