<?xml version="1.0" encoding="utf-8"?>
<!-- Generator: Adobe Illustrator 25.2.0, SVG Export Plug-In . SVG Version: 6.00 Build 0)  -->
<svg version="1.1" id="Calque_1" xmlns="http://www.w3.org/2000/svg" xmlns:xlink="http://www.w3.org/1999/xlink" x="0px" y="0px"
	 viewBox="0 0 87 87" style="enable-background:new 0 0 87 87;" xml:space="preserve">
<g>
	<path d="M43.5,7.56c9.6,0,18.63,3.74,25.41,10.53C75.7,24.87,79.44,33.9,79.44,43.5S75.7,62.13,68.91,68.91
		C62.13,75.7,53.1,79.44,43.5,79.44S24.87,75.7,18.09,68.91C11.3,62.13,7.56,53.1,7.56,43.5s3.74-18.63,10.53-25.41
		C24.87,11.3,33.9,7.56,43.5,7.56 M43.5,0C19.48,0,0,19.48,0,43.5S19.48,87,43.5,87S87,67.52,87,43.5S67.52,0,43.5,0L43.5,0z"/>
	<path d="M68.4,36.44L45.87,15.37c-1.29-1.21-3.3-1.21-4.59,0L18.76,36.44c-1.13,1.06-0.38,2.96,1.17,2.96h4.43v24.08
		c0,1.86,1.5,3.36,3.36,3.36h31.74c1.86,0,3.36-1.5,3.36-3.36V39.41h4.43C68.79,39.41,69.54,37.5,68.4,36.44z M53.53,57.57
		c-1.11,1.11-2.59,1.72-4.16,1.72c-1.57,0-3.05-0.61-4.16-1.72c-1.11-1.11-1.72-2.59-1.72-4.16c0-1.57,0.61-3.05,1.72-4.16
		c1.11-1.11,2.59-1.72,4.16-1.72c1.57,0,3.05,0.61,4.16,1.72c1.11,1.11,1.72,2.59,1.72,4.16C55.26,54.98,54.65,56.46,53.53,57.57z"
		/>
</g>
</svg>
