<?xml version="1.0" encoding="utf-8"?>
<!-- Generator: Adobe Illustrator 25.2.0, SVG Export Plug-In . SVG Version: 6.00 Build 0)  -->
<svg version="1.1" id="Calque_1" xmlns="http://www.w3.org/2000/svg" xmlns:xlink="http://www.w3.org/1999/xlink" x="0px" y="0px"
	 viewBox="0 0 87 87" style="enable-background:new 0 0 87 87;" xml:space="preserve">
<g>
	<path d="M43.5,0.04c-24,0-43.46,19.46-43.46,43.46c0,2.58,0.22,5.1,0.65,7.55c3.57,20.4,21.38,35.91,42.8,35.91
		c21.43,0,39.23-15.51,42.8-35.91c0.43-2.45,0.65-4.97,0.65-7.55C86.96,19.5,67.5,0.04,43.5,0.04z M43.49,79.41c0,0,0.01,0,0.01,0
		s0.01,0,0.01,0c0,0-0.01,0-0.01,0S43.49,79.41,43.49,79.41z M78.62,51.05c-0.77,3.6-2.09,7.05-3.91,10.24H12.3
		c-1.82-3.19-3.15-6.63-3.91-10.24c-0.52-2.45-0.79-4.98-0.79-7.55c0-9.59,3.74-18.61,10.52-25.39c6.78-6.78,15.8-10.52,25.39-10.52
		c9.59,0,18.61,3.74,25.39,10.52c6.78,6.78,10.52,15.8,10.52,25.39C79.41,46.07,79.14,48.6,78.62,51.05z"/>
	<g>
		<path d="M31.75,53.74H19.01l-0.05-24.85c0-1.93,1.5-3.49,3.35-3.5l6.02-0.01c1.85-0.01,3.36,1.56,3.36,3.48L31.75,53.74z"/>
	</g>
	<g>
		<path d="M51.19,53.74H38.46l-0.05-34.92c0-1.85,1.5-3.36,3.35-3.36l6.02-0.01c1.85,0,3.36,1.5,3.36,3.35L51.19,53.74z"/>
	</g>
	<g>
		<path d="M70.63,53.74H57.89l-0.05-14.76c-0.01-2.02,1.49-3.66,3.34-3.67l6.02-0.03c1.85-0.01,3.36,1.62,3.37,3.64L70.63,53.74z"/>
	</g>
</g>
</svg>
