<?xml version="1.0" encoding="utf-8"?>
<!-- Generator: Adobe Illustrator 25.2.0, SVG Export Plug-In . SVG Version: 6.00 Build 0)  -->
<svg version="1.1" id="Calque_1" xmlns="http://www.w3.org/2000/svg" xmlns:xlink="http://www.w3.org/1999/xlink" x="0px" y="0px"
	 viewBox="0 0 87 87" style="enable-background:new 0 0 87 87;" xml:space="preserve">
<g>
	<path d="M43.5,7.56c9.6,0,18.63,3.74,25.41,10.53C75.7,24.87,79.44,33.9,79.44,43.5S75.7,62.13,68.91,68.91
		C62.13,75.7,53.1,79.44,43.5,79.44S24.87,75.7,18.09,68.91C11.3,62.13,7.56,53.1,7.56,43.5s3.74-18.63,10.53-25.41
		C24.87,11.3,33.9,7.56,43.5,7.56 M43.5,0C19.48,0,0,19.48,0,43.5S19.48,87,43.5,87S87,67.52,87,43.5S67.52,0,43.5,0L43.5,0z"/>
	<path d="M71.92,40.45c0-1.86-1.72-3.36-3.84-3.35l-4.76,0.01c-0.35-1.08-0.79-2.14-1.31-3.15l3.36-3.37
		c1.49-1.5,1.64-3.77,0.33-5.08l-4.27-4.25c-1.31-1.31-3.59-1.16-5.08,0.34L53,24.95c-1.01-0.52-2.07-0.95-3.15-1.3l-0.01-4.76
		c0-2.12-1.51-3.83-3.36-3.82l-6.03,0.01c-1.86,0-3.36,1.72-3.35,3.84l0.01,4.76c-1.08,0.35-2.14,0.79-3.15,1.31l-3.37-3.36
		c-1.5-1.49-3.77-1.64-5.08-0.33l-4.25,4.27c-1.31,1.31-1.16,3.59,0.34,5.08L24.95,34c-0.52,1.01-0.95,2.07-1.3,3.15l-4.76,0.01
		c-2.12,0-3.83,1.51-3.82,3.36l0.01,6.03c0,1.86,1.72,3.36,3.84,3.35l4.76-0.01c0.35,1.08,0.79,2.14,1.31,3.15l-3.36,3.37
		c-1.49,1.5-1.64,3.77-0.33,5.08l4.27,4.25c1.31,1.31,3.59,1.16,5.08-0.34L34,62.05c1.01,0.52,2.07,0.95,3.15,1.3l0.01,4.76
		c0,2.12,1.51,3.83,3.36,3.82l6.03-0.01c1.86,0,3.36-1.72,3.35-3.84l-0.01-4.76c1.08-0.35,2.14-0.79,3.15-1.31l3.37,3.36
		c1.5,1.49,3.77,1.64,5.08,0.33l4.25-4.27c1.31-1.31,1.16-3.59-0.34-5.08L62.05,53c0.52-1.01,0.95-2.07,1.3-3.15l4.76-0.01
		c2.12,0,3.83-1.51,3.82-3.36L71.92,40.45z M47.66,47.66c-1.11,1.11-2.59,1.72-4.16,1.72c-1.57,0-3.05-0.61-4.16-1.72
		c-1.11-1.11-1.72-2.59-1.72-4.16c0-1.57,0.61-3.05,1.72-4.16c1.11-1.11,2.59-1.72,4.16-1.72c1.57,0,3.05,0.61,4.16,1.72
		c1.11,1.11,1.72,2.59,1.72,4.16C49.38,45.07,48.77,46.55,47.66,47.66z"/>
</g>
</svg>
