<?xml version="1.0" encoding="utf-8"?>
<!-- Generator: Adobe Illustrator 25.2.0, SVG Export Plug-In . SVG Version: 6.00 Build 0)  -->
<svg version="1.1" id="Calque_1" xmlns="http://www.w3.org/2000/svg" xmlns:xlink="http://www.w3.org/1999/xlink" x="0px" y="0px"
	 viewBox="0 0 100 100" style="enable-background:new 0 0 100 100;" xml:space="preserve">
<g>
	<path d="M50.03,43.47c1.78,0,3.38,0.66,4.64,1.92c1.26,1.26,1.92,2.86,1.92,4.64c0,1.78-0.66,3.38-1.92,4.64
		c-1.26,1.26-2.86,1.92-4.64,1.92v8.68c4.07,0,7.9-1.59,10.78-4.46c2.88-2.88,4.46-6.71,4.46-10.78c0-4.07-1.59-7.9-4.46-10.78
		c-2.88-2.88-6.71-4.46-10.78-4.46l0,0V43.47z"/>
	<path d="M50.03,82.64c8.71,0,16.9-3.39,23.05-9.55c6.16-6.16,9.55-14.35,9.55-23.06s-3.39-16.9-9.55-23.05
		c-6.16-6.16-14.35-9.55-23.05-9.55l0,0v8.68c6.39,0,12.4,2.49,16.92,7.01c4.52,4.52,7.01,10.53,7.01,16.92
		c0,6.39-2.49,12.4-7.01,16.92c-4.52,4.52-10.53,7.01-16.92,7.01V82.64z"/>
	<path d="M50.03,0.06c-2.96,0-5.86,0.26-8.68,0.75C17.89,4.93,0.06,25.4,0.06,50.03s17.83,45.11,41.29,49.22
		c2.82,0.49,5.72,0.75,8.68,0.75C77.63,100,100,77.63,100,50.03C100,22.44,77.63,0.06,50.03,0.06z M79.23,79.23
		c-7.8,7.8-18.17,12.09-29.19,12.09c-2.95,0-5.86-0.31-8.68-0.91V9.65c2.82-0.6,5.73-0.91,8.68-0.91c11.03,0,21.4,4.29,29.19,12.09
		c7.8,7.8,12.09,18.17,12.09,29.19S87.02,71.43,79.23,79.23z"/>
</g>
</svg>
