<?xml version="1.0" encoding="UTF-8" standalone="no"?>
<!-- Generator: Adobe Illustrator 25.2.0, SVG Export Plug-In . SVG Version: 6.00 Build 0)  -->

<svg
   xmlns:dc="http://purl.org/dc/elements/1.1/"
   xmlns:cc="http://creativecommons.org/ns#"
   xmlns:rdf="http://www.w3.org/1999/02/22-rdf-syntax-ns#"
   xmlns:svg="http://www.w3.org/2000/svg"
   xmlns="http://www.w3.org/2000/svg"
   xmlns:sodipodi="http://sodipodi.sourceforge.net/DTD/sodipodi-0.dtd"
   xmlns:inkscape="http://www.inkscape.org/namespaces/inkscape"
   version="1.1"
   id="Calque_1"
   x="0px"
   y="0px"
   viewBox="0 0 87 87"
   style="enable-background:new 0 0 87 87;"
   xml:space="preserve"
   sodipodi:docname="sources.svg"
   inkscape:version="0.92.5 (0.92.5+68)"><metadata
   id="metadata9"><rdf:RDF><cc:Work
       rdf:about=""><dc:format>image/svg+xml</dc:format><dc:type
         rdf:resource="http://purl.org/dc/dcmitype/StillImage" /></cc:Work></rdf:RDF></metadata><defs
   id="defs7" /><sodipodi:namedview
   pagecolor="#ffffff"
   bordercolor="#666666"
   borderopacity="1"
   objecttolerance="10"
   gridtolerance="10"
   guidetolerance="10"
   inkscape:pageopacity="0"
   inkscape:pageshadow="2"
   inkscape:window-width="1871"
   inkscape:window-height="1176"
   id="namedview5"
   showgrid="false"
   inkscape:zoom="2.7126437"
   inkscape:cx="43.5"
   inkscape:cy="43.5"
   inkscape:window-x="49"
   inkscape:window-y="24"
   inkscape:window-maximized="1"
   inkscape:current-layer="Calque_1" />
<circle
   style="opacity:1;fill:#ffffff;fill-opacity:1;stroke:none;stroke-width:2.79999995;stroke-linecap:round;stroke-linejoin:round;stroke-miterlimit:4;stroke-dasharray:none;stroke-dashoffset:0;stroke-opacity:1"
   id="path819"
   cx="43.5"
   cy="43.5"
   r="38.707626" /><path
   d="M43.5,0C19.48,0,0,19.48,0,43.5S19.48,87,43.5,87S87,67.52,87,43.5S67.52,0,43.5,0z M68.91,68.91  C62.13,75.7,53.1,79.44,43.5,79.44S24.87,75.7,18.09,68.91C11.3,62.13,7.56,53.1,7.56,43.5s3.74-18.63,10.53-25.41  c4.76-4.76,10.63-8.02,17.02-9.54v46.28c0,3.07,3.77,4.53,5.84,2.27l10.12-11.07l10.12,11.07c2.07,2.26,5.84,0.8,5.84-2.27v-38.5  c0.65,0.56,1.29,1.14,1.9,1.76C75.7,24.87,79.44,33.9,79.44,43.5S75.7,62.13,68.91,68.91z"
   id="path2" />
</svg>