<?xml version="1.0" encoding="utf-8"?>
<!-- Generator: Adobe Illustrator 25.2.0, SVG Export Plug-In . SVG Version: 6.00 Build 0)  -->
<svg version="1.1" id="Calque_1" xmlns="http://www.w3.org/2000/svg" xmlns:xlink="http://www.w3.org/1999/xlink" x="0px" y="0px"
	 viewBox="0 0 87 87" style="enable-background:new 0 0 87 87;" xml:space="preserve">
<path d="M43.5,0C19.48,0,0,19.48,0,43.5S19.48,87,43.5,87S87,67.52,87,43.5S67.52,0,43.5,0z M68.91,68.91
	C62.13,75.7,53.1,79.44,43.5,79.44S24.87,75.7,18.09,68.91C11.3,62.13,7.56,53.1,7.56,43.5s3.74-18.63,10.53-25.41
	c4.76-4.76,10.63-8.02,17.02-9.54v46.28c0,3.07,3.77,4.53,5.84,2.27l10.12-11.07l10.12,11.07c2.07,2.26,5.84,0.8,5.84-2.27v-38.5
	c0.65,0.56,1.29,1.14,1.9,1.76C75.7,24.87,79.44,33.9,79.44,43.5S75.7,62.13,68.91,68.91z"/>
</svg>
