<?xml version="1.0" encoding="UTF-8" standalone="no"?>
<!-- Generator: Adobe Illustrator 25.2.0, SVG Export Plug-In . SVG Version: 6.00 Build 0)  -->

<svg
   xmlns:dc="http://purl.org/dc/elements/1.1/"
   xmlns:cc="http://creativecommons.org/ns#"
   xmlns:rdf="http://www.w3.org/1999/02/22-rdf-syntax-ns#"
   xmlns:svg="http://www.w3.org/2000/svg"
   xmlns="http://www.w3.org/2000/svg"
   xmlns:sodipodi="http://sodipodi.sourceforge.net/DTD/sodipodi-0.dtd"
   xmlns:inkscape="http://www.inkscape.org/namespaces/inkscape"
   version="1.1"
   id="Calque_1"
   x="0px"
   y="0px"
   viewBox="0 0 305.46912 175.2"
   xml:space="preserve"
   sodipodi:docname="source_bar.svg"
   width="305.46912"
   height="175.2"
   inkscape:version="0.92.5 (0.92.5+68)"><metadata
   id="metadata17"><rdf:RDF><cc:Work
       rdf:about=""><dc:format>image/svg+xml</dc:format><dc:type
         rdf:resource="http://purl.org/dc/dcmitype/StillImage" /><dc:title></dc:title></cc:Work></rdf:RDF></metadata><defs
   id="defs15" /><sodipodi:namedview
   pagecolor="#ffffff"
   bordercolor="#666666"
   borderopacity="1"
   objecttolerance="10"
   gridtolerance="10"
   guidetolerance="10"
   inkscape:pageopacity="0"
   inkscape:pageshadow="2"
   inkscape:window-width="1871"
   inkscape:window-height="1176"
   id="namedview13"
   showgrid="false"
   showguides="true"
   inkscape:guide-bbox="true"
   fit-margin-top="0"
   fit-margin-left="0"
   fit-margin-right="0"
   fit-margin-bottom="0"
   inkscape:zoom="3.2181215"
   inkscape:cx="155.56144"
   inkscape:cy="78.558433"
   inkscape:window-x="49"
   inkscape:window-y="24"
   inkscape:window-maximized="1"
   inkscape:current-layer="Calque_1"><sodipodi:guide
     position="305.46914,-24.609372"
     orientation="1,0"
     id="guide828"
     inkscape:locked="false" /><sodipodi:guide
     position="0.049216426,56.689457"
     orientation="1,0"
     id="guide830"
     inkscape:locked="false" /></sodipodi:namedview>
<style
   type="text/css"
   id="style2">
	.st0{fill:#FFFFFF;}
</style>
<rect
   x="0.049216427"
   y="78.5"
   class="st0"
   width="304.10156"
   height="91.599998"
   id="rect4"
   style="fill:#ffffff;stroke-width:0.51991588" />
<path
   d="m 305.2,78.5 c -30.1,0 -57.3,16.9 -71.5,43.4 -4.4,8.1 -10.1,15.7 -16.9,22.3 -17,16.6 -40,25.9 -63.7,25.9 -6.8,0 -13.5,-0.7 -20,-2.1 -16.9,-3.7 -32.4,-12.2 -45,-24.7 C 81.6,136.8 76.2,129.5 72,121.6 57.8,95 30.1,78.5 0,78.5 c 0.0492,24.76034 0.0492,45.38402 0.0492,96.6 h 305.41991 c 0,-66.20496 0.26916,-37.14934 3e-5,-96.359965 z"
   id="path6"
   inkscape:connector-curvature="0"
   sodipodi:nodetypes="cccscccccccc"
   style="stroke:#ff0000;stroke-width:0;stroke-miterlimit:4;stroke-dasharray:none" />
<circle
   class="st0"
   cx="152.10001"
   cy="87.599998"
   r="72.400002"
   id="circle8"
   style="fill:#ffffff" />
<circle
   style="opacity:1;fill:#ffffff;fill-opacity:1;stroke:none;stroke-width:4.73625565;stroke-linecap:round;stroke-linejoin:round;stroke-miterlimit:4;stroke-dasharray:none;stroke-dashoffset:0;stroke-opacity:1"
   id="path824"
   cx="151.63248"
   cy="87.400253"
   r="75.074028" /><path
   d="m 152.1,0 c -48.4,0 -87.6,39.2 -87.6,87.6 0,48.4 39.2,87.6 87.6,87.6 48.4,0 87.6,-39.2 87.6,-87.6 C 239.7,39.2 200.5,0 152.1,0 Z m 51.2,138.8 C 189.6,152.5 171.4,160 152.1,160 132.8,160 114.6,152.5 100.9,138.8 87.2,125.1 79.7,107 79.7,87.6 c 0,-19.4 7.5,-37.5 21.2,-51.2 9.6,-9.6 21.4,-16.1 34.3,-19.2 v 93.2 c 0,6.2 7.6,9.1 11.8,4.6 l 20.4,-22.3 20.4,22.3 c 4.2,4.6 11.8,1.6 11.8,-4.6 V 32.9 c 1.3,1.1 2.6,2.3 3.8,3.5 13.7,13.7 21.2,31.8 21.2,51.2 0,19.4 -7.6,37.5 -21.3,51.2 z"
   id="path10"
   inkscape:connector-curvature="0" />
</svg>