<?xml version="1.0" encoding="utf-8"?>
<!-- Generator: Adobe Illustrator 25.2.0, SVG Export Plug-In . SVG Version: 6.00 Build 0)  -->
<svg version="1.1" id="Calque_1" xmlns="http://www.w3.org/2000/svg" xmlns:xlink="http://www.w3.org/1999/xlink" x="0px" y="0px"
	 viewBox="0 0 65.59 68.23" style="enable-background:new 0 0 65.59 68.23;" xml:space="preserve">
<style type="text/css">
	.st0{opacity:0.5;}
</style>
<path class="st0" d="M21.81,64.47c8.59,4.45,24.03,6.12,29.82-1.63C65.85,43.83,67.99,0,38.81,0C-13,0-6.83,49.63,21.81,64.47z"/>
<path d="M23.27,20.01c-5.52,0-10.01,4.49-10.01,10.01c0,0.66,0.54,1.2,1.2,1.2c0.66,0,1.2-0.54,1.2-1.2c0-3.11,1.88-5.79,4.57-6.97
	c-0.89,0.82-1.45,1.98-1.45,3.29c0,2.48,2.01,4.49,4.49,4.49s4.49-2.01,4.49-4.49c0-1.3-0.56-2.47-1.45-3.29
	c2.69,1.18,4.57,3.86,4.57,6.97c0,0.66,0.54,1.2,1.2,1.2c0.66,0,1.2-0.54,1.2-1.2C33.28,24.5,28.79,20.01,23.27,20.01z"/>
<path d="M55.58,20.01c-5.52,0-10.01,4.49-10.01,10.01c0,0.66,0.54,1.2,1.2,1.2c0.66,0,1.2-0.54,1.2-1.2c0-3.39,2.23-6.26,5.29-7.24
	c-1.08,0.82-1.78,2.1-1.78,3.56c0,2.48,2.01,4.49,4.49,4.49s4.49-2.01,4.49-4.49c0-1.11-0.42-2.12-1.09-2.9
	c2.28,1.32,3.82,3.77,3.82,6.59c0,0.66,0.54,1.2,1.2,1.2s1.2-0.54,1.2-1.2C65.59,24.5,61.1,20.01,55.58,20.01z"/>
<g>
	<path d="M35.25,54.26h-3.18c-0.66,0-1.2-0.54-1.2-1.2c0-0.66,0.54-1.2,1.2-1.2h3.18c1,0,1.81-0.81,1.81-1.81V35.32
		c0-0.66,0.54-1.2,1.2-1.2c0.66,0,1.2,0.54,1.2,1.2v14.73C39.46,52.37,37.58,54.26,35.25,54.26z"/>
</g>
</svg>
