<?xml version="1.0" encoding="utf-8"?>
<!-- Generator: Adobe Illustrator 25.2.0, SVG Export Plug-In . SVG Version: 6.00 Build 0)  -->
<svg version="1.1" id="Calque_1" xmlns="http://www.w3.org/2000/svg" xmlns:xlink="http://www.w3.org/1999/xlink" x="0px" y="0px"
	 viewBox="0 0 90 100" style="enable-background:new 0 0 90 100;" xml:space="preserve">
<g>
	<g>
		<path d="M13.43,8.72c0.83,0,1.64,0.22,2.4,0.66l63.09,36.43c1.53,0.88,2.4,2.4,2.4,4.16c0,1.76-0.88,3.28-2.4,4.16L15.83,90.56
			c-0.76,0.44-1.57,0.66-2.4,0.66c-0.83,0-1.64-0.22-2.4-0.66c-1.53-0.88-2.4-2.4-2.4-4.16V13.55c0-1.76,0.88-3.28,2.4-4.16
			C11.79,8.95,12.6,8.72,13.43,8.72L13.43,8.72 M13.43,0.05c-2.31,0-4.63,0.61-6.74,1.83c-4.22,2.44-6.74,6.8-6.74,11.67V86.4
			c0,4.87,2.52,9.23,6.74,11.67c2.11,1.22,4.42,1.83,6.74,1.83s4.63-0.61,6.74-1.83l63.09-36.43c4.22-2.44,6.74-6.8,6.74-11.67
			c0-4.87-2.52-9.23-6.74-11.67L20.17,1.87C18.06,0.66,15.75,0.05,13.43,0.05L13.43,0.05z"/>
	</g>
	<path d="M17.3,73.02V26.93c0-2.97,3.21-4.82,5.78-3.34L63,46.63c2.57,1.48,2.57,5.19,0,6.68L23.09,76.35
		C20.52,77.84,17.3,75.98,17.3,73.02z"/>
</g>
</svg>
